<?xml version="1.0" encoding="utf-8"?>
<!-- Generator: Adobe Illustrator 24.1.0, SVG Export Plug-In . SVG Version: 6.00 Build 0)  -->
<svg version="1.1" id="Layer_1" xmlns="http://www.w3.org/2000/svg" xmlns:xlink="http://www.w3.org/1999/xlink" x="0px" y="0px"
	 viewBox="0 0 300 300" style="enable-background:new 0 0 300 300;" xml:space="preserve">
<style type="text/css">
	.st0{fill:url(#SVGID_1_);}
	.st1{fill:url(#SVGID_2_);}
	.st2{fill:url(#SVGID_3_);}
	.st3{fill:url(#SVGID_4_);}
	.st4{fill:url(#SVGID_5_);}
	.st5{fill:url(#SVGID_6_);}
	.st6{fill:url(#SVGID_7_);}
	.st7{fill:url(#SVGID_8_);}
</style>
<g id="Layer_2_1_">
	<g id="Layer_1-2">
		
			<linearGradient id="SVGID_1_" gradientUnits="userSpaceOnUse" x1="59.5683" y1="821.8822" x2="252.3083" y2="1011.8621" gradientTransform="matrix(1 0 0 1 0 -758)">
			<stop  offset="0" style="stop-color:#6AC9D2"/>
			<stop  offset="1" style="stop-color:#527DBE"/>
		</linearGradient>
		<path class="st0" d="M196.1,194.1c7.7,0,13.9-6.2,13.9-13.9s-6.2-13.9-13.9-13.9c-5.2,0-10,2.9-12.4,7.5c-3.8-2.2-8.4-2.2-12.2,0
			c-3.5-6.8-12-9.5-18.8-5.9c-6.8,3.5-9.5,12-5.9,18.8c3.6,6.8,12,9.5,18.8,5.9c4.6-2.4,7.5-7.2,7.5-12.4c0-0.5,0-1-0.1-1.5
			c2.7-2.2,6.6-2.2,9.2,0c-0.1,0.5-0.1,1-0.1,1.5C182.2,187.9,188.4,194.1,196.1,194.1z M159.1,189.2c-5,0-9-4-9-9s4-9,9-9s9,4,9,9
			S164.1,189.2,159.1,189.2L159.1,189.2z M196.1,171.2c5,0,9,4,9,9c0,5-4,9-9,9s-9-4-9-9C187.1,175.2,191.1,171.2,196.1,171.2
			L196.1,171.2z"/>
		
			<linearGradient id="SVGID_2_" gradientUnits="userSpaceOnUse" x1="39.056" y1="842.6837" x2="231.7961" y2="1032.6736" gradientTransform="matrix(1 0 0 1 0 -758)">
			<stop  offset="0" style="stop-color:#6AC9D2"/>
			<stop  offset="1" style="stop-color:#527DBE"/>
		</linearGradient>
		<path class="st1" d="M224.6,160.1c-1.4,0-2.5,1.1-2.5,2.4c0,36.3-35.8,73.3-44,81.3c-6.1-5.9-27.6-28-38.1-53.8
			c-0.5-1.3-2-1.9-3.2-1.3c-0.6,0.2-1.1,0.7-1.3,1.3c-10.5,25.8-32,47.8-38.1,53.8c-8.2-8-44-45-44-81.3c-0.1-1.4-1.3-2.4-2.6-2.3
			c-1.3,0.1-2.3,1.1-2.4,2.3c0,18.1,8,38.2,23.7,59.7c7,9.6,14.9,18.6,23.6,26.8c0.9,0.9,2.4,0.9,3.3,0c1.1-1,25.3-23.2,38.7-51.9
			c13.4,28.7,37.6,51,38.7,51.9c0.9,0.9,2.4,0.9,3.3,0c8.7-8.2,16.6-17.2,23.6-26.8c15.7-21.5,23.7-41.6,23.7-59.7
			C227.1,161.1,226,160,224.6,160.1C224.6,160,224.6,160,224.6,160.1z"/>
		
			<linearGradient id="SVGID_3_" gradientUnits="userSpaceOnUse" x1="28.8427" y1="853.0478" x2="221.5827" y2="1043.0377" gradientTransform="matrix(1 0 0 1 0 -758)">
			<stop  offset="0" style="stop-color:#6AC9D2"/>
			<stop  offset="1" style="stop-color:#527DBE"/>
		</linearGradient>
		<path class="st2" d="M103.7,181.9c1,1,2.5,1,3.5,0l0,0c4.5-4.5,11.8-4.5,16.3,0c1,0.9,2.6,0.8,3.5-0.2c0.9-0.9,0.9-2.4,0-3.3
			c-6.4-6.4-16.8-6.4-23.2,0c-1,0.9-1.3,2.3-0.4,3.3C103.3,181.9,103.4,182,103.7,181.9z"/>
		
			<linearGradient id="SVGID_4_" gradientUnits="userSpaceOnUse" x1="11.1039" y1="871.0466" x2="203.8439" y2="1061.0266" gradientTransform="matrix(1 0 0 1 0 -758)">
			<stop  offset="0" style="stop-color:#6AC9D2"/>
			<stop  offset="1" style="stop-color:#527DBE"/>
		</linearGradient>
		<path class="st3" d="M67.7,178.5c-1,1-1,2.5,0,3.5s2.5,1,3.5,0c4.5-4.5,11.8-4.5,16.3,0c0.5,0.5,1.1,0.7,1.7,0.7
			c0.7,0,1.3-0.3,1.7-0.7c1-1,1-2.5,0-3.5l0,0C84.5,172.1,74.1,172.1,67.7,178.5z"/>
		
			<linearGradient id="SVGID_5_" gradientUnits="userSpaceOnUse" x1="0.299" y1="882.0109" x2="193.039" y2="1071.991" gradientTransform="matrix(1 0 0 1 0 -758)">
			<stop  offset="0" style="stop-color:#6AC9D2"/>
			<stop  offset="1" style="stop-color:#527DBE"/>
		</linearGradient>
		<path class="st4" d="M86.1,218.3c-1,1-1,2.5,0,3.5s2.5,1,3.5,0c4.5-4.5,11.8-4.5,16.3,0c1,1,2.5,1,3.5,0s1-2.5,0-3.5
			C102.9,211.9,92.6,211.9,86.1,218.3z"/>
		
			<linearGradient id="SVGID_6_" gradientUnits="userSpaceOnUse" x1="39.7222" y1="842.0168" x2="232.4622" y2="1031.9968" gradientTransform="matrix(1 0 0 1 0 -758)">
			<stop  offset="0" style="stop-color:#6AC9D2"/>
			<stop  offset="1" style="stop-color:#527DBE"/>
		</linearGradient>
		<path class="st5" d="M166,218.3c-0.9,1-0.8,2.6,0.2,3.5c0.9,0.9,2.4,0.9,3.3,0c4.5-4.5,11.8-4.5,16.3,0c0.9,1,2.5,1.1,3.5,0.2
			c1-0.9,1.1-2.5,0.2-3.5c-0.1-0.1-0.1-0.1-0.2-0.2C182.8,211.9,172.4,211.9,166,218.3z"/>
		
			<linearGradient id="SVGID_7_" gradientUnits="userSpaceOnUse" x1="86.039" y1="795.0212" x2="278.789" y2="985.0112" gradientTransform="matrix(1 0 0 1 0 -758)">
			<stop  offset="0" style="stop-color:#6AC9D2"/>
			<stop  offset="1" style="stop-color:#527DBE"/>
		</linearGradient>
		<path class="st6" d="M177.6,90.7c-19.2,0-37.8,7.1-52.1,19.9c-3.8-2.4-7.9-4.4-12.1-6c-4-1.4-8-2.4-12.2-3.2
			c-7.4-1.5-14.3-3-19.7-7.8c-4.5-4-7.1-9.7-7.1-15.8c0-12.5,10.2-22.7,22.8-22.7c12.5,0,22.7,10.2,22.7,22.8
			c0,5.9-2.3,11.6-6.4,15.8c-1,1-1,2.5,0,3.5s2.5,1,3.5,0l0,0c10.7-10.8,10.5-28.3-0.4-39s-28.4-10.5-39.1,0.4
			c-5,5.2-7.9,12.1-7.9,19.3c0,7.4,3.2,14.5,8.7,19.4c6.3,5.6,14.2,7.3,21.9,8.9c3.9,0.7,7.7,1.7,11.4,3c9.3,3.3,17.5,9.1,23.9,16.7
			c6.2,7.8,9.6,17.5,9.6,27.5c0,1.4,1.1,2.4,2.4,2.4h44.6c0.9,0,1.7-0.5,2.1-1.2c3.2-5.4,4.5-11.6,3.7-17.8c4,4.5,6.1,10.4,5.8,16.4
			c0,0.7,0.2,1.3,0.6,1.8c0.4,0.5,1.1,0.8,1.7,0.8h18.4c1.4,0.1,2.5-0.9,2.6-2.3c0.1-1.4-0.9-2.5-2.3-2.6c-0.1,0-0.2,0-0.3,0h-15.8
			c-0.4-9.5-5.7-18.2-14-22.9c-1.2-0.7-2.7-0.3-3.3,0.9c-0.4,0.7-0.4,1.5-0.1,2.2c2.5,5.4,2.7,11.5,0.7,17.1
			c-0.3,0.9-0.7,1.8-1.2,2.7H150c-0.5-10.3-4.2-20.1-10.6-28.1c-2.8-3.5-6.1-6.6-9.7-9.3c30.4-26.5,76.6-23.3,103.1,7.2
			c11.6,13.3,17.9,30.4,17.9,48v15.8h-15.9c-1.4,0-2.5,1.1-2.5,2.5s1.1,2.5,2.5,2.5h18.3c1.4,0,2.5-1.1,2.4-2.5v-18.3
			C255.5,125.7,220.7,90.8,177.6,90.7z"/>
		
			<linearGradient id="SVGID_8_" gradientUnits="userSpaceOnUse" x1="33.2477" y1="848.5825" x2="225.9877" y2="1038.5725" gradientTransform="matrix(1 0 0 1 0 -758)">
			<stop  offset="0" style="stop-color:#6AC9D2"/>
			<stop  offset="1" style="stop-color:#527DBE"/>
		</linearGradient>
		<path class="st7" d="M113.2,119.2c0.7-1.1,0.4-2.7-0.8-3.4s-2.7-0.4-3.4,0.8c-12.8,20.7-35.2,33.6-59.5,34.4
			c1.1-18.9,13.1-35.4,30.7-42.2c1.3-0.4,2-1.8,1.5-3.1c-0.4-1.3-1.8-2-3.1-1.5c-0.1,0-0.1,0-0.2,0.1C58,112,44.5,131.6,44.5,153.5
			c0,1,0.6,1.9,1.5,2.3c0.3,0.1,0.6,0.2,0.9,0.2H47C74,155.9,99,142,113.2,119.2z"/>
	</g>
</g>
</svg>
