<svg xmlns="http://www.w3.org/2000/svg" xmlns:xlink="http://www.w3.org/1999/xlink" viewBox="0 0 250 250"><defs><style>.cls-1{fill:url(#New_Gradient_Swatch_1);}.cls-2{font-size:23.28px;font-family:Europa-Regular;}.cls-2,.cls-6{fill:#fff;}.cls-3{letter-spacing:-0.05em;}.cls-4{letter-spacing:0em;}.cls-5{letter-spacing:-0.07em;}</style><linearGradient id="New_Gradient_Swatch_1" x1="271.87" y1="312.88" x2="46.58" y2="24.68" gradientUnits="userSpaceOnUse"><stop offset="0" stop-color="#ed693c"/><stop offset="0.18" stop-color="#f17f31"/><stop offset="0.54" stop-color="#f7a51c"/><stop offset="0.82" stop-color="#fbbd10"/><stop offset="1" stop-color="#fdc60b"/></linearGradient></defs><g id="Layer_2" data-name="Layer 2"><g id="Layer_1-2" data-name="Layer 1"><circle class="cls-1" cx="125" cy="125" r="125"/><text class="cls-2" transform="translate(48.52 187.48)"><tspan class="cls-3">W</tspan><tspan class="cls-4" x="21.04" y="0">omen in </tspan><tspan class="cls-5" x="106.74" y="0">T</tspan><tspan x="117.17" y="0">ech</tspan><tspan x="53.07" y="27.93">Oslo</tspan></text><polygon class="cls-6" points="95.98 70.16 95.98 72 95.98 76.02 95.98 77.44 154.02 77.44 154.02 76.02 154.02 72 154.02 70.16 95.98 70.16"/><path class="cls-6" d="M181.78,60.25,154,44.23l-6.56-3.79-16.15-9.32a12.62,12.62,0,0,0-12.62,0L96,44.23l-27.76,16a12.64,12.64,0,0,0-6.31,10.93V106a8.74,8.74,0,0,0,4.37,7.56l18.35,10.59a12.61,12.61,0,0,0,12.61,0l27.76-16,27.76,16a12.61,12.61,0,0,0,12.61,0l18.35-10.59a8.73,8.73,0,0,0,4.36-7.56V71.18A12.63,12.63,0,0,0,181.78,60.25Zm4,45.77a6.42,6.42,0,0,1-3.2,5.54l-18.35,10.6a10.35,10.35,0,0,1-10.29,0L127.33,106.8,147.71,95A12.61,12.61,0,0,0,154,84.11v-.86H96v.86A12.61,12.61,0,0,0,102.29,95l20.38,11.77L96.08,122.16a10.35,10.35,0,0,1-10.29,0l-18.35-10.6a6.42,6.42,0,0,1-3.2-5.54V71.18a10.31,10.31,0,0,1,5.15-8.91L96,46.92V64.34h58V46.92l26.59,15.35a10.31,10.31,0,0,1,5.15,8.91Z"/></g></g></svg>