<svg xmlns="http://www.w3.org/2000/svg" viewBox="0 0 126.17 96.44"><defs><style>.cls-1{fill:#fcb73c;}</style></defs><g id="Layer_2" data-name="Layer 2"><g id="Layer_1-2" data-name="Layer 1"><polygon class="cls-1" points="34.07 40.73 34.07 42.58 34.07 46.59 34.07 48.01 92.1 48.01 92.1 46.59 92.1 42.58 92.1 40.73 34.07 40.73"/><path class="cls-1" d="M119.86,30.83,92.1,14.8,85.55,11,69.39,1.69a12.61,12.61,0,0,0-12.61,0L34.07,14.8l-27.76,16A12.6,12.6,0,0,0,0,41.76V76.59a8.73,8.73,0,0,0,4.36,7.56l18.35,10.6a12.62,12.62,0,0,0,12.62,0l27.75-16,27.76,16a12.62,12.62,0,0,0,12.62,0l18.35-10.6a8.73,8.73,0,0,0,4.36-7.56V41.76A12.62,12.62,0,0,0,119.86,30.83Zm4,45.76a6.42,6.42,0,0,1-3.2,5.55L102.3,92.73a10.28,10.28,0,0,1-10.29,0L65.41,77.38,85.8,65.61a12.63,12.63,0,0,0,6.3-10.93v-.85h-58v.85a12.63,12.63,0,0,0,6.3,10.93L60.76,77.38,34.16,92.73a10.28,10.28,0,0,1-10.29,0L5.53,82.14a6.42,6.42,0,0,1-3.2-5.55V41.76a10.34,10.34,0,0,1,5.14-8.92l26.6-15.35V34.92h58V17.49l26.6,15.35a10.34,10.34,0,0,1,5.14,8.92Z"/></g></g></svg>