<svg xmlns="http://www.w3.org/2000/svg" xmlns:xlink="http://www.w3.org/1999/xlink" viewBox="0 0 78.1 78.1"><defs><style>.cls-1{fill:url(#linear-gradient);}.cls-2{fill:#fff;}</style><linearGradient id="linear-gradient" x1="58.58" y1="72.88" x2="19.52" y2="5.23" gradientUnits="userSpaceOnUse"><stop offset="0" stop-color="#527dbe"/><stop offset="1" stop-color="#6ac9d2"/></linearGradient></defs><g id="Layer_2" data-name="Layer 2"><g id="Layer_1-2" data-name="Layer 1"><circle class="cls-1" cx="39.05" cy="39.05" r="39.05"/><path class="cls-2" d="M65.64,28.73A1.29,1.29,0,0,0,64.36,30c0,10.45-10.09,21.27-13,24.13-2.26-2.25-8.19-8.58-11.18-15.92a1.27,1.27,0,0,0-2.36,0c-3,7.33-8.91,13.67-11.17,15.92-2.86-2.86-13-13.68-13-24.13a1.28,1.28,0,1,0-2.55,0c0,5.64,2.48,11.89,7.37,18.56a61.84,61.84,0,0,0,7.28,8.28,1.29,1.29,0,0,0,.86.33,1.26,1.26,0,0,0,.85-.33,58.38,58.38,0,0,0,11.5-15.09,58.34,58.34,0,0,0,11.5,15.09,1.31,1.31,0,0,0,1.71,0,60.88,60.88,0,0,0,7.29-8.28C64.43,41.9,66.91,35.65,66.91,30A1.28,1.28,0,0,0,65.64,28.73Z"/></g></g></svg>