<svg width="750" height="320" viewBox="0 0 750 320" fill="none" xmlns="http://www.w3.org/2000/svg">
<path fill-rule="evenodd" clip-rule="evenodd" d="M750 0H0V320H750V0ZM421 203.292C423.447 203.292 425.85 202.642 427.963 201.406C428.918 200.847 429.799 200.178 430.588 199.415C431.543 198.491 432.363 197.431 433.02 196.263C434.219 194.13 434.83 191.717 434.789 189.27C434.748 186.823 434.057 184.432 432.785 182.34C431.514 180.25 429.711 178.534 427.557 177.371C425.404 176.207 422.98 175.638 420.535 175.72C418.09 175.803 415.711 176.535 413.641 177.841C412.701 178.434 411.842 179.135 411.076 179.928C410.623 180.397 410.203 180.898 409.822 181.427C409.635 181.686 409.457 181.951 409.289 182.222C409.184 182.392 409.082 182.563 408.984 182.738C408.906 182.875 408.832 183.013 408.76 183.152C406.924 182.081 404.836 181.516 402.711 181.516C402.057 181.516 401.406 181.569 400.766 181.675C400.447 181.727 400.131 181.792 399.818 181.87C399.078 182.054 398.357 182.308 397.662 182.629C397.32 182.788 396.986 182.962 396.66 183.152C395.104 180.167 392.508 177.855 389.361 176.654C386.217 175.453 382.74 175.446 379.59 176.635C376.439 177.823 373.834 180.125 372.266 183.104C370.697 186.083 370.273 189.534 371.078 192.804C371.881 196.073 373.854 198.936 376.625 200.849C379.395 202.762 382.77 203.594 386.113 203.188C389.455 202.781 392.533 201.165 394.764 198.643C396.994 196.121 398.225 192.869 398.221 189.502C398.219 189.008 398.191 188.514 398.141 188.022C399.424 186.951 401.043 186.364 402.715 186.364C403.695 186.364 404.658 186.566 405.545 186.949C405.707 187.019 405.867 187.096 406.025 187.178C406.16 187.249 406.295 187.325 406.426 187.404C406.602 187.512 406.775 187.627 406.943 187.75C407.061 187.837 407.176 187.928 407.289 188.022C407.238 188.514 407.211 189.008 407.211 189.502C407.215 193.158 408.67 196.663 411.254 199.248C413.84 201.833 417.344 203.287 421 203.292ZM384.4 198.432C382.635 198.43 380.908 197.905 379.441 196.922C377.975 195.94 376.832 194.545 376.156 192.913C375.482 191.281 375.307 189.486 375.652 187.754C375.998 186.022 376.85 184.432 378.1 183.185C379.348 181.937 380.939 181.087 382.672 180.743C384.404 180.399 386.199 180.577 387.83 181.253C388.064 181.35 388.295 181.458 388.52 181.574C388.697 181.666 388.873 181.764 389.043 181.867C389.4 182.084 389.742 182.326 390.064 182.59C390.744 183.146 391.342 183.803 391.836 184.542C392.816 186.01 393.34 187.737 393.34 189.502C393.334 191.871 392.391 194.141 390.715 195.814C389.039 197.488 386.768 198.43 384.4 198.432ZM421 180.572C422.766 180.572 424.492 181.096 425.961 182.077C427.43 183.059 428.574 184.453 429.25 186.085C429.926 187.717 430.104 189.512 429.758 191.245C429.414 192.977 428.562 194.568 427.314 195.817C426.066 197.066 424.475 197.916 422.742 198.261C421.01 198.605 419.215 198.429 417.582 197.752C415.951 197.077 414.557 195.932 413.574 194.463C412.594 192.995 412.07 191.269 412.07 189.502C412.07 187.134 413.012 184.863 414.686 183.188C416.359 181.513 418.631 180.572 421 180.572ZM447.422 170.344C447.877 169.888 448.496 169.632 449.141 169.632C449.461 169.631 449.777 169.693 450.072 169.814C450.234 169.881 450.389 169.964 450.531 170.063C450.65 170.145 450.762 170.238 450.865 170.34C451.092 170.566 451.271 170.834 451.395 171.13C451.518 171.426 451.58 171.742 451.58 172.062C451.58 189.942 443.68 209.802 428.1 231.062C421.143 240.593 413.334 249.473 404.77 257.592C404.568 257.779 404.338 257.928 404.09 258.035C403.789 258.165 403.463 258.233 403.131 258.232C402.814 258.234 402.504 258.172 402.217 258.054C401.955 257.945 401.711 257.79 401.5 257.592C400.42 256.623 376.43 234.592 363.18 206.212C349.93 234.592 325.939 256.592 324.869 257.592C324.424 258.001 323.84 258.228 323.234 258.228C322.961 258.228 322.691 258.182 322.436 258.093C322.129 257.985 321.844 257.816 321.6 257.592C313.029 249.478 305.217 240.598 298.26 231.062C282.689 209.812 274.789 189.952 274.789 172.062C274.789 171.78 274.838 171.502 274.932 171.24C275.053 170.906 275.246 170.6 275.502 170.344C275.646 170.2 275.807 170.076 275.979 169.974C276.35 169.752 276.779 169.632 277.221 169.632C277.865 169.632 278.482 169.888 278.938 170.344C279.293 170.698 279.527 171.151 279.613 171.638C279.639 171.777 279.65 171.919 279.65 172.062C279.65 207.932 315.119 244.552 323.23 252.452C329.279 246.572 350.539 224.752 360.93 199.242C361.113 198.795 361.424 198.413 361.824 198.144C362.225 197.874 362.697 197.73 363.18 197.73C363.662 197.73 364.135 197.874 364.535 198.144C364.936 198.413 365.248 198.795 365.43 199.242C375.84 224.782 397.131 246.572 403.131 252.452C411.24 244.552 446.711 207.932 446.711 172.062C446.711 171.648 446.816 171.245 447.014 170.888C447.123 170.69 447.26 170.507 447.422 170.344ZM329.883 191.52L329.996 191.595L330.064 191.634C330.152 191.685 330.242 191.73 330.336 191.77C330.631 191.892 330.947 191.955 331.266 191.955C331.408 191.955 331.551 191.942 331.689 191.917C331.785 191.9 331.881 191.877 331.975 191.848C332.049 191.826 332.121 191.799 332.193 191.77C332.342 191.708 332.482 191.633 332.615 191.544C332.746 191.456 332.869 191.355 332.98 191.242C335.119 189.11 338.016 187.914 341.035 187.914C344.055 187.914 346.951 189.11 349.09 191.242C349.547 191.697 350.166 191.952 350.811 191.952C351.455 191.952 352.072 191.697 352.529 191.242C352.756 191.017 352.936 190.749 353.059 190.454C353.094 190.366 353.125 190.276 353.15 190.185C353.213 189.969 353.244 189.747 353.244 189.522C353.244 189.441 353.24 189.359 353.232 189.278L353.203 189.078C353.172 188.911 353.123 188.748 353.059 188.591L353.014 188.49L352.932 188.332L352.855 188.203C352.762 188.059 352.652 187.924 352.529 187.802C349.479 184.756 345.342 183.046 341.029 183.046C336.719 183.046 332.582 184.756 329.529 187.802C329.305 188.029 329.127 188.298 329.006 188.594C328.887 188.89 328.824 189.207 328.826 189.526C328.828 189.846 328.893 190.162 329.018 190.457C329.141 190.751 329.322 191.018 329.551 191.242C329.6 191.292 329.65 191.338 329.703 191.383C329.74 191.414 329.777 191.444 329.818 191.473L329.883 191.52ZM293.277 189.504C293.268 188.872 293.506 188.262 293.939 187.802C296.99 184.763 301.119 183.057 305.426 183.057C309.73 183.057 313.861 184.763 316.91 187.802C317.137 188.028 317.316 188.296 317.438 188.591C317.506 188.755 317.557 188.926 317.588 189.101L317.611 189.285C317.619 189.364 317.623 189.443 317.623 189.522C317.623 189.658 317.611 189.792 317.59 189.925C317.559 190.106 317.508 190.283 317.438 190.454C317.316 190.749 317.137 191.017 316.91 191.242C316.67 191.482 316.383 191.667 316.072 191.788C315.795 191.895 315.498 191.951 315.195 191.951C314.855 191.951 314.521 191.879 314.217 191.745C314.1 191.693 313.988 191.633 313.881 191.564C313.738 191.472 313.604 191.364 313.48 191.242C311.342 189.11 308.445 187.914 305.426 187.914C302.406 187.914 299.508 189.11 297.369 191.242C296.91 191.675 296.299 191.911 295.666 191.901C295.035 191.89 294.432 191.634 293.986 191.187C293.758 190.958 293.58 190.688 293.459 190.395C293.344 190.115 293.281 189.813 293.277 189.504ZM402.689 100.992C383.674 100.979 365.326 108.004 351.18 120.712C349.74 119.808 348.266 118.96 346.76 118.172C344.311 116.89 341.777 115.764 339.18 114.802C335.266 113.445 331.254 112.386 327.18 111.632C319.891 110.103 313 108.632 307.73 103.932C305.518 101.982 303.748 99.5806 302.541 96.8901C301.334 94.1992 300.717 91.2812 300.73 88.3325C300.734 84.6484 301.645 81.0225 303.381 77.7729C305.117 74.5234 307.623 71.7505 310.682 69.6973C313.742 67.6445 317.258 66.375 320.922 66C324.588 65.625 328.287 66.1567 331.699 67.5479C335.109 68.939 338.127 71.147 340.484 73.978C342.842 76.8086 344.467 80.1753 345.219 83.7822C345.969 87.3887 345.822 91.1245 344.789 94.6606C343.758 98.1973 341.873 101.426 339.301 104.062C338.871 104.526 338.639 105.14 338.654 105.772C338.668 106.405 338.93 107.006 339.383 107.449C339.566 107.628 339.775 107.776 340 107.889C340.33 108.054 340.697 108.142 341.074 108.144C341.705 108.146 342.314 107.901 342.77 107.462C345.906 104.258 348.205 100.332 349.467 96.0298C350.727 91.7275 350.91 87.1812 350 82.791C349.092 78.4009 347.115 74.3022 344.248 70.8555C341.381 67.4092 337.711 64.7202 333.559 63.0264C329.408 61.3325 324.904 60.6855 320.445 61.1421C315.984 61.5991 311.705 63.1455 307.984 65.6455C304.262 68.1455 301.213 71.5225 299.104 75.4785C296.994 79.4351 295.891 83.8491 295.891 88.3325C295.895 91.9609 296.662 95.5483 298.146 98.8599C299.629 102.172 301.795 105.134 304.5 107.552C310.74 113.143 318.59 114.792 326.189 116.382C330.033 117.1 333.816 118.103 337.51 119.382C346.715 122.666 354.869 128.361 361.119 135.873C367.275 143.608 370.621 153.206 370.609 163.092C370.609 163.737 370.865 164.355 371.322 164.811C371.777 165.266 372.396 165.522 373.039 165.522H417.15C417.57 165.522 417.984 165.413 418.348 165.204C418.713 164.996 419.018 164.695 419.23 164.333C420.117 162.85 420.861 161.287 421.449 159.662C422.963 155.524 423.455 151.081 422.881 146.712C426.855 151.16 428.914 156.996 428.609 162.952C428.582 163.603 428.814 164.238 429.256 164.718C429.471 164.954 429.729 165.143 430.012 165.277C430.307 165.417 430.629 165.498 430.961 165.512H449.141C449.311 165.512 449.479 165.495 449.641 165.46C449.771 165.433 449.9 165.394 450.025 165.345C450.334 165.224 450.619 165.04 450.857 164.801C451.314 164.345 451.57 163.727 451.57 163.083C451.57 162.739 451.498 162.402 451.361 162.094C451.24 161.824 451.07 161.577 450.857 161.364C450.402 160.908 449.785 160.652 449.141 160.652H433.48C433.283 156.01 431.914 151.493 429.498 147.524C427.084 143.554 423.703 140.261 419.67 137.952C419.225 137.702 418.711 137.598 418.203 137.656C417.695 137.713 417.219 137.93 416.84 138.274C416.463 138.619 416.203 139.074 416.1 139.575C415.994 140.075 416.051 140.596 416.26 141.062C418.678 146.406 418.904 152.484 416.891 157.992C416.553 158.906 416.158 159.798 415.711 160.662H375.41C374.916 150.514 371.244 140.777 364.91 132.833C362.109 129.36 358.885 126.252 355.311 123.583C365.775 114.488 378.637 108.596 392.357 106.608C406.08 104.62 420.084 106.621 432.701 112.373C445.316 118.124 456.012 127.382 463.512 139.043C471.012 150.705 475 164.277 475 178.143V193.782H459.34C458.695 193.782 458.078 194.039 457.621 194.494C457.166 194.95 456.91 195.568 456.91 196.212C456.91 196.857 457.166 197.475 457.621 197.931C458.078 198.386 458.695 198.643 459.34 198.643H477.41C477.771 198.643 478.125 198.562 478.445 198.411C478.615 198.331 478.777 198.23 478.926 198.111C478.996 198.055 479.064 197.995 479.129 197.931C479.584 197.475 479.84 196.857 479.84 196.212V178.143C479.816 157.688 471.68 138.079 457.217 123.615C442.754 109.152 423.145 101.016 402.689 100.992ZM339.227 127.294C339.373 127.923 339.262 128.584 338.92 129.132C332.027 140.264 322.4 149.447 310.957 155.81C299.514 162.172 286.633 165.501 273.539 165.482H273.43C273.111 165.481 272.795 165.42 272.5 165.302C272.383 165.253 272.27 165.196 272.162 165.13C271.865 164.947 271.609 164.701 271.412 164.408C271.146 164.01 271.002 163.542 271 163.062C270.996 152.486 274.203 142.157 280.195 133.442C286.188 124.727 294.684 118.036 304.561 114.252C305.162 114.021 305.832 114.04 306.42 114.302C307.01 114.564 307.469 115.05 307.699 115.652C307.932 116.254 307.912 116.923 307.65 117.512C307.389 118.101 306.902 118.562 306.301 118.792C297.762 122.102 290.355 127.799 284.969 135.205C279.582 142.61 276.439 151.41 275.92 160.552C287.775 160.182 299.355 156.883 309.629 150.951C319.9 145.019 328.545 136.637 334.789 126.552C335.133 126.005 335.678 125.615 336.307 125.47C336.936 125.325 337.598 125.435 338.145 125.777C338.693 126.12 339.082 126.665 339.227 127.294Z" fill="url(#paint0_linear)"/>
<defs>
<linearGradient id="paint0_linear" x1="631.122" y1="349.284" x2="513.902" y2="-126.588" gradientUnits="userSpaceOnUse">
<stop stop-color="#F27252"/>
<stop offset="1" stop-color="#FAAD19"/>
</linearGradient>
</defs>
</svg>
