<svg width="150" height="142" viewBox="0 0 150 142" fill="none" xmlns="http://www.w3.org/2000/svg">
<path fill-rule="evenodd" clip-rule="evenodd" d="M94.5869 28.7245C80.9287 28.7155 67.7501 33.7607 57.5898 42.8885C54.8706 41.1806 51.9823 39.7581 48.9708 38.6436C46.1592 37.6688 43.278 36.9077 40.3518 36.3667C35.1157 35.2678 30.167 34.212 26.3818 30.8362C24.7929 29.4353 23.5222 27.7107 22.655 25.7781C21.7878 23.8455 21.3443 21.7497 21.3541 19.6315C21.3577 16.9856 22.0115 14.3811 23.258 12.0471C24.5045 9.71322 26.3055 7.72139 28.5025 6.2469C30.6995 4.7724 33.2252 3.86043 35.8574 3.5912C38.4896 3.32198 41.1477 3.70375 43.5977 4.70294C46.0477 5.70213 48.2146 7.28811 49.9078 9.32136C51.601 11.3546 52.7685 13.7728 53.3078 16.3632C53.847 18.9536 53.7413 21.6369 53.0001 24.1768C52.2589 26.7168 50.9048 29.0358 49.057 30.9296C48.7482 31.263 48.5817 31.7036 48.5927 32.1579C48.6037 32.6121 48.7915 33.0442 49.116 33.3622C49.4406 33.6802 49.8764 33.8591 50.3308 33.8609C50.7851 33.8626 51.2223 33.6871 51.5493 33.3716C53.8016 31.0702 55.4533 28.2502 56.359 25.1601C57.2647 22.07 57.3965 18.8045 56.743 15.6514C56.0894 12.4983 54.6705 9.55435 52.6112 7.0788C50.5518 4.60325 47.9153 2.67211 44.9339 1.4555C41.9525 0.23888 38.7176 -0.225875 35.5142 0.102169C32.3109 0.430214 29.2373 1.54099 26.5643 3.33666C23.8914 5.13232 21.701 7.55776 20.1862 10.3993C18.6714 13.2409 17.8786 16.4114 17.8777 19.6315C17.8806 22.2379 18.4328 24.8144 19.4983 27.1931C20.5639 29.5717 22.1189 31.699 24.0619 33.4363C28.5437 37.4513 34.182 38.6364 39.6407 39.7784C42.4007 40.2936 45.1184 41.0139 47.7713 41.9332C54.3824 44.2918 60.2389 48.3822 64.7292 53.7771C69.1508 59.3336 71.5541 66.227 71.5454 73.3279C71.5454 73.7908 71.7293 74.2348 72.0566 74.5621C72.384 74.8894 72.8279 75.0733 73.2908 75.0733H104.973C105.275 75.0735 105.572 74.9947 105.834 74.8448C106.096 74.6948 106.314 74.479 106.467 74.2186C107.104 73.1541 107.638 72.0308 108.061 70.8643C109.149 67.892 109.501 64.7009 109.088 61.563C111.943 64.7572 113.422 68.9489 113.204 73.2274C113.185 73.6949 113.351 74.1511 113.668 74.4958C113.984 74.8405 114.424 75.0456 114.892 75.0661H127.95C128.413 75.0661 128.857 74.8822 129.184 74.5549C129.511 74.2276 129.695 73.7836 129.695 73.3207C129.695 72.8579 129.511 72.4139 129.184 72.0866C128.857 71.7593 128.413 71.5754 127.95 71.5754H116.702C116.561 68.2411 115.577 64.9969 113.842 62.1458C112.108 59.2946 109.679 56.9295 106.783 55.2711C106.463 55.091 106.094 55.0164 105.729 55.0579C105.364 55.0995 105.022 55.2551 104.751 55.5025C104.479 55.75 104.293 56.0767 104.218 56.4362C104.143 56.7957 104.184 57.1697 104.334 57.5049C106.07 61.3428 106.232 65.7085 104.786 69.6649C104.544 70.321 104.26 70.9615 103.939 71.5826H74.993C74.6387 64.2934 72.0003 57.3003 67.4514 51.5937C65.4396 49.0997 63.1231 46.8677 60.5562 44.9498C68.0733 38.4178 77.3105 34.1856 87.1662 32.758C97.022 31.3303 107.08 32.7676 116.142 36.8982C125.204 41.0289 132.886 47.6787 138.273 56.0546C143.66 64.4305 146.524 74.179 146.524 84.1376V95.3711H135.276C134.813 95.3711 134.369 95.5549 134.042 95.8823C133.714 96.2096 133.531 96.6535 133.531 97.1164C133.531 97.5793 133.714 98.0232 134.042 98.3506C134.369 98.6779 134.813 98.8618 135.276 98.8618H148.255C148.718 98.8618 149.161 98.6779 149.489 98.3506C149.816 98.0232 150 97.5793 150 97.1164V84.1376C149.983 69.4464 144.139 55.3618 133.751 44.9736C123.363 34.5853 109.278 28.7417 94.5869 28.7245ZM126.714 78.5365C127.042 78.2092 127.486 78.0253 127.949 78.0253C128.178 78.0244 128.406 78.0688 128.619 78.1561C128.831 78.2434 129.025 78.3718 129.187 78.534C129.35 78.6961 129.479 78.8888 129.568 79.1011C129.656 79.3133 129.701 79.5408 129.701 79.7706C129.701 92.613 124.027 106.877 112.837 122.147C107.839 128.993 102.23 135.371 96.0798 141.203C95.7591 141.499 95.3384 141.663 94.9018 141.662C94.4672 141.664 94.0483 141.5 93.7311 141.203C92.9554 140.506 75.7245 124.683 66.2077 104.299C56.8637 124.313 40.0834 139.909 38.7495 141.149L38.6915 141.203C38.371 141.496 37.952 141.659 37.5172 141.659C37.0824 141.659 36.6634 141.496 36.3428 141.203C30.1864 135.375 24.5751 128.996 19.5789 122.147C8.39568 106.885 2.7215 92.6202 2.7215 79.7706C2.7215 79.3077 2.90538 78.8638 3.2327 78.5365C3.56002 78.2092 4.00395 78.0253 4.46685 78.0253C4.92974 78.0253 5.37368 78.2092 5.701 78.5365C6.02831 78.8638 6.2122 79.3077 6.2122 79.7706C6.2122 105.534 31.6886 131.837 37.5136 137.511C41.859 133.288 57.129 117.615 64.5916 99.2927C64.7226 98.9716 64.9463 98.6968 65.2341 98.5033C65.522 98.3099 65.8609 98.2066 66.2077 98.2066C66.5545 98.2066 66.8934 98.3099 67.1813 98.5033C67.4691 98.6968 67.6928 98.9716 67.8238 99.2927C75.3008 117.637 90.5923 133.288 94.9018 137.511C100.727 131.837 126.203 105.534 126.203 79.7706C126.203 79.3077 126.387 78.8638 126.714 78.5365ZM112.738 100.847C111.221 101.734 109.495 102.202 107.737 102.202C105.112 102.198 102.595 101.153 100.738 99.2965C98.8813 97.4398 97.8366 94.9227 97.8328 92.297C97.8338 91.9419 97.853 91.5871 97.8902 91.234C96.9681 90.4644 95.8052 90.0429 94.6042 90.0429C93.4032 90.0429 92.2403 90.4644 91.3182 91.234C91.3555 91.5871 91.3746 91.9419 91.3757 92.297C91.3785 94.7153 90.4953 97.0508 88.8929 98.862C87.2906 100.673 85.0802 101.835 82.6796 102.127C80.279 102.419 77.8546 101.821 75.8648 100.447C73.875 99.0724 72.4576 97.0167 71.8806 94.6682C71.3037 92.3198 71.6072 89.8413 72.7337 87.7015C73.8602 85.5616 75.7316 83.9086 77.9943 83.055C80.2569 82.2014 82.7538 82.2063 85.013 83.0688C87.2723 83.9314 89.1372 85.5918 90.2552 87.7361C91.574 86.9662 93.0736 86.5605 94.6006 86.5605C96.1277 86.5605 97.6273 86.9662 98.946 87.7361C99.7554 86.1759 100.965 84.8592 102.452 83.9211C103.938 82.983 105.647 82.4573 107.404 82.398C109.16 82.3386 110.901 82.7477 112.447 83.5834C113.993 84.419 115.289 85.651 116.202 87.1529C117.115 88.6549 117.612 90.3727 117.641 92.1301C117.671 93.8874 117.233 95.621 116.371 97.1528C115.509 98.6847 114.255 99.9597 112.738 100.847ZM77.888 97.6265C78.9418 98.3322 80.1812 98.7096 81.4494 98.711C83.1506 98.7091 84.7817 98.0329 85.9853 96.8307C87.1889 95.6285 87.8668 93.9982 87.8706 92.297C87.8706 91.0287 87.4946 89.7889 86.7902 88.7343C86.0857 87.6797 85.0844 86.8576 83.9128 86.3719C82.7412 85.8863 81.452 85.7588 80.208 86.0057C78.964 86.2526 77.8211 86.8628 76.9238 87.7591C76.0265 88.6554 75.4151 89.7976 75.1668 91.0413C74.9185 92.285 75.0445 93.5744 75.5288 94.7465C76.0132 95.9187 76.8342 96.9209 77.888 97.6265ZM111.301 86.964C110.246 86.2592 109.006 85.883 107.737 85.883C106.036 85.883 104.405 86.5588 103.202 87.7616C101.999 88.9645 101.323 90.5959 101.323 92.297C101.323 93.5656 101.7 94.8056 102.404 95.8604C103.109 96.9152 104.111 97.7373 105.283 98.2227C106.455 98.7082 107.745 98.8352 108.989 98.5877C110.233 98.3402 111.376 97.7294 112.273 96.8324C113.17 95.9353 113.781 94.7925 114.028 93.5483C114.276 92.3041 114.149 91.0145 113.663 89.8425C113.178 88.6705 112.356 87.6687 111.301 86.964ZM42.0534 93.5468C42.2149 93.709 42.4068 93.8378 42.6182 93.9256C42.8296 94.0134 43.0563 94.0587 43.2852 94.0587C43.5141 94.0587 43.7407 94.0134 43.9521 93.9256C44.1635 93.8378 44.3555 93.709 44.517 93.5468C46.0531 92.0157 48.1336 91.1559 50.3025 91.1559C52.4714 91.1559 54.5519 92.0157 56.088 93.5468C56.4163 93.8731 56.8605 94.0563 57.3234 94.0563C57.7863 94.0563 58.2304 93.8731 58.5588 93.5468C58.7212 93.3847 58.8501 93.1921 58.938 92.9802C59.026 92.7682 59.0712 92.5409 59.0712 92.3114C59.0712 92.0819 59.026 91.8547 58.938 91.6427C58.8501 91.4307 58.7212 91.2382 58.5588 91.076C56.3666 88.8883 53.396 87.6596 50.2989 87.6596C47.2018 87.6596 44.2312 88.8883 42.039 91.076C41.8775 91.2391 41.7497 91.4324 41.663 91.6449C41.5763 91.8574 41.5324 92.0849 41.5337 92.3144C41.5351 92.5439 41.5817 92.7709 41.6708 92.9824C41.76 93.1938 41.89 93.3857 42.0534 93.5468ZM16.0009 92.2981C15.9948 91.8443 16.1657 91.4059 16.4773 91.076C18.6677 88.893 21.6341 87.6673 24.7265 87.6673C27.8189 87.6673 30.7852 88.893 32.9756 91.076C33.138 91.2381 33.2669 91.4307 33.3548 91.6426C33.4427 91.8546 33.488 92.0819 33.488 92.3114C33.488 92.5409 33.4427 92.7681 33.3548 92.9801C33.2669 93.1921 33.138 93.3846 32.9756 93.5468C32.6484 93.8726 32.2055 94.0556 31.7438 94.0556C31.282 94.0556 30.8391 93.8726 30.512 93.5468C28.9758 92.0156 26.8954 91.1558 24.7265 91.1558C22.5575 91.1558 20.4771 92.0156 18.9409 93.5468C18.6101 93.8575 18.1713 94.0271 17.7175 94.0196C17.2636 94.0122 16.8306 93.8283 16.5101 93.5069C16.1897 93.1855 16.007 92.7519 16.0009 92.2981ZM49.0044 47.616C49.1087 48.0679 49.0293 48.5427 48.7836 48.9361C43.8323 56.9312 36.9184 63.5272 28.6991 68.0969C20.4799 72.6666 11.2285 75.0583 1.82436 75.0445H1.74535C1.51652 75.0441 1.28986 75.0002 1.07738 74.9152C0.759592 74.7826 0.487932 74.5592 0.296323 74.2731C0.104715 73.987 0.00165013 73.6507 2.01223e-06 73.3064C-0.002485 65.7098 2.30045 58.2914 6.60439 52.0317C10.9083 45.772 17.0106 40.9658 24.1045 38.2485C24.5369 38.0828 25.0175 38.0956 25.4404 38.2842C25.8634 38.4728 26.1941 38.8217 26.3598 39.2541C26.5255 39.6865 26.5127 40.167 26.3241 40.59C26.1356 41.0129 25.7867 41.3437 25.3543 41.5094C19.2213 43.8862 13.9023 47.9785 10.0329 53.2974C6.16343 58.6163 3.90721 64.9367 3.5338 71.5036C12.0494 71.2374 20.3668 68.8682 27.7446 64.6072C35.1223 60.3463 41.331 54.326 45.8172 47.083C46.063 46.6897 46.4549 46.41 46.9068 46.3056C47.3587 46.2012 47.8336 46.2806 48.227 46.5264C48.6203 46.7721 48.9 47.164 49.0044 47.616Z" fill="white"/>
</svg>
