<svg xmlns="http://www.w3.org/2000/svg" xmlns:xlink="http://www.w3.org/1999/xlink" viewBox="0 0 208.85 197.19"><defs><style>.cls-1{fill:url(#linear-gradient);}.cls-2{fill:url(#linear-gradient-2);}.cls-3{fill:url(#linear-gradient-3);}.cls-4{fill:url(#linear-gradient-4);}.cls-5{fill:url(#linear-gradient-5);}.cls-6{fill:url(#linear-gradient-6);}</style><linearGradient id="linear-gradient" x1="216.87" y1="205.61" x2="-17.32" y2="-6.4" gradientUnits="userSpaceOnUse"><stop offset="0" stop-color="#f2734f"/><stop offset="1" stop-color="#ec228f"/></linearGradient><linearGradient id="linear-gradient-2" x1="197.31" y1="227.22" x2="-36.88" y2="15.22" xlink:href="#linear-gradient"/><linearGradient id="linear-gradient-3" x1="189.1" y1="236.29" x2="-45.09" y2="24.29" xlink:href="#linear-gradient"/><linearGradient id="linear-gradient-4" x1="173.06" y1="254.01" x2="-61.13" y2="42" xlink:href="#linear-gradient"/><linearGradient id="linear-gradient-5" x1="243.85" y1="175.81" x2="9.65" y2="-36.19" xlink:href="#linear-gradient"/><linearGradient id="linear-gradient-6" x1="194.85" y1="229.93" x2="-39.34" y2="17.93" xlink:href="#linear-gradient"/></defs><g id="Layer_2" data-name="Layer 2"><g id="Layer_1-2" data-name="Layer 1"><path class="cls-1" d="M150,142.3a13.8,13.8,0,1,0-12.24-20.14,12,12,0,0,0-12.1,0,13.77,13.77,0,1,0,1.56,6.35,14.36,14.36,0,0,0-.08-1.48,7.14,7.14,0,0,1,9.15,0,14.36,14.36,0,0,0-.08,1.48A13.81,13.81,0,0,0,150,142.3Zm-36.58-4.86a8.94,8.94,0,1,1,8.94-8.93A8.95,8.95,0,0,1,113.41,137.44ZM150,119.57a8.94,8.94,0,1,1-8.93,8.94A8.94,8.94,0,0,1,150,119.57Z"/><path class="cls-2" d="M178.15,108.59a2.43,2.43,0,0,0-2.43,2.43c0,35.87-35.47,72.49-43.58,80.39-6-5.88-27.29-27.68-37.7-53.22a2.43,2.43,0,0,0-4.5,0c-10.4,25.52-31.65,47.34-37.7,53.22C44.13,183.51,8.66,146.89,8.66,111a2.43,2.43,0,0,0-4.86,0c0,17.89,7.89,37.74,23.47,59A195,195,0,0,0,50.6,196.56a2.43,2.43,0,0,0,3.28,0c1.07-1,25.06-23,38.31-51.39,13.25,28.39,37.24,50.42,38.31,51.39a2.45,2.45,0,0,0,3.28,0A195,195,0,0,0,157.11,170c15.58-21.27,23.47-41.12,23.47-59A2.42,2.42,0,0,0,178.15,108.59Z"/><path class="cls-3" d="M58.56,130.25a2.42,2.42,0,0,0,3.43,0,11.41,11.41,0,0,1,16.11,0,2.43,2.43,0,0,0,3.44-3.44,16.28,16.28,0,0,0-23,0A2.43,2.43,0,0,0,58.56,130.25Z"/><path class="cls-4" d="M23,126.81a2.43,2.43,0,0,0,3.43,3.44,11.41,11.41,0,0,1,16.11,0,2.43,2.43,0,0,0,3.43-3.44A16.27,16.27,0,0,0,23,126.81Z"/><path class="cls-5" d="M131.7,40A77,77,0,0,0,80.19,59.72a64.94,64.94,0,0,0-12-5.91,82.32,82.32,0,0,0-12-3.17c-7.29-1.54-14.18-3-19.45-7.7a20.67,20.67,0,0,1-7-15.6A22.48,22.48,0,1,1,68.31,43.07a2.43,2.43,0,0,0,3.47,3.39A27.34,27.34,0,1,0,24.9,27.34a25.84,25.84,0,0,0,8.61,19.22c6.24,5.58,14.09,7.23,21.69,8.83a77.37,77.37,0,0,1,11.32,3A54.5,54.5,0,0,1,90.13,74.85a43.6,43.6,0,0,1,9.49,27.21,2.43,2.43,0,0,0,2.43,2.43h44.1a2.43,2.43,0,0,0,2.09-1.19,27.47,27.47,0,0,0,3.64-17.62,22.59,22.59,0,0,1,5.74,16.24,2.43,2.43,0,0,0,.64,1.76,2.47,2.47,0,0,0,1.71.8h18.18a2.43,2.43,0,1,0,0-4.86H162.49a27.53,27.53,0,0,0-13.81-22.7,2.44,2.44,0,0,0-3.42,3.12A22.34,22.34,0,0,1,145.9,97a22.92,22.92,0,0,1-1.18,2.68h-40.3a48.41,48.41,0,0,0-10.5-27.82,54.12,54.12,0,0,0-9.6-9.26A72.29,72.29,0,0,1,204,117.14v15.64H188.35a2.43,2.43,0,0,0,0,4.86h18.07a2.43,2.43,0,0,0,2.43-2.43V117.14A77.24,77.24,0,0,0,131.7,40Z"/><path class="cls-6" d="M67.93,68.14a2.43,2.43,0,0,0-4.13-2.58,71.91,71.91,0,0,1-58.87,34A47.69,47.69,0,0,1,35.3,57.8a2.43,2.43,0,0,0-1.73-4.54A52.25,52.25,0,0,0,0,102.06a2.45,2.45,0,0,0,1.5,2.25,2.52,2.52,0,0,0,.93.18h.11A76.79,76.79,0,0,0,67.93,68.14Z"/></g></g></svg>