<?xml version="1.0" encoding="utf-8"?>
<!-- Generator: Adobe Illustrator 24.1.0, SVG Export Plug-In . SVG Version: 6.00 Build 0)  -->
<svg version="1.1" id="Layer_1" xmlns="http://www.w3.org/2000/svg" xmlns:xlink="http://www.w3.org/1999/xlink" x="0px" y="0px"
	 viewBox="0 0 300 300" style="enable-background:new 0 0 300 300;" xml:space="preserve">
<style type="text/css">
	.st0{fill:url(#SVGID_1_);}
	.st1{fill:url(#SVGID_2_);}
	.st2{fill:url(#SVGID_3_);}
	.st3{fill:url(#SVGID_4_);}
	.st4{fill:url(#SVGID_5_);}
	.st5{fill:url(#SVGID_6_);}
</style>
<g id="Layer_2_1_">
	<g id="Layer_1-2">
		
			<linearGradient id="SVGID_1_" gradientUnits="userSpaceOnUse" x1="101.7557" y1="224.8021" x2="208.598" y2="76.289" gradientTransform="matrix(1 0 0 -1 0 299.6)">
			<stop  offset="0" style="stop-color:#ED1C24"/>
			<stop  offset="0.16" style="stop-color:#F26522"/>
			<stop  offset="0.38" style="stop-color:#FFDE17"/>
			<stop  offset="0.6" style="stop-color:#00A14B"/>
			<stop  offset="0.8" style="stop-color:#21409A"/>
			<stop  offset="1" style="stop-color:#7F3F98"/>
		</linearGradient>
		<path class="st0" d="M196.2,194.3c7.7,0,14-6.3,14-14c0-7.7-6.3-14-14-14c-5.2,0-10,2.9-12.4,7.5c-3.8-2.2-8.5-2.2-12.3,0
			c-3.6-6.8-12-9.5-18.9-5.9c-6.8,3.6-9.5,12-5.9,18.9c3.6,6.8,12,9.5,18.9,5.9c4.6-2.4,7.5-7.2,7.5-12.4c0-0.5,0-1-0.1-1.5
			c2.7-2.2,6.6-2.2,9.3,0c-0.1,0.5-0.1,1-0.1,1.5C182.2,188.1,188.5,194.3,196.2,194.3z M159.1,189.4c-5,0-9.1-4-9.1-9
			c0-5,4-9.1,9-9.1c5,0,9.1,4,9.1,9c0,0,0,0,0,0C168.2,185.3,164.1,189.4,159.1,189.4z M196.2,171.3c5,0,9.1,4.1,9.1,9.1
			s-4.1,9.1-9.1,9.1c-5,0-9.1-4.1-9.1-9.1c0,0,0,0,0,0C187.2,175.3,191.2,171.3,196.2,171.3z"/>
		
			<linearGradient id="SVGID_2_" gradientUnits="userSpaceOnUse" x1="77.5942" y1="207.42" x2="184.4364" y2="58.9068" gradientTransform="matrix(1 0 0 -1 0 299.6)">
			<stop  offset="0" style="stop-color:#ED1C24"/>
			<stop  offset="0.16" style="stop-color:#F26522"/>
			<stop  offset="0.38" style="stop-color:#FFDE17"/>
			<stop  offset="0.6" style="stop-color:#00A14B"/>
			<stop  offset="0.8" style="stop-color:#21409A"/>
			<stop  offset="1" style="stop-color:#7F3F98"/>
		</linearGradient>
		<path class="st1" d="M224.8,160.1c-1.4,0-2.5,1.1-2.5,2.5c0,36.4-36,73.5-44.2,81.5c-6.1-6-27.7-28.1-38.2-54
			c-0.5-1.3-1.9-1.9-3.2-1.4c-0.6,0.3-1.1,0.7-1.4,1.4c-10.5,25.9-32.1,48-38.2,54c-8.2-8-44.2-45.2-44.2-81.5
			c0.1-1.4-1-2.5-2.4-2.6c-1.4-0.1-2.5,1-2.6,2.4c0,0.1,0,0.1,0,0.2c0,18.1,8,38.3,23.8,59.9c11.7,15.9,23.2,26.5,23.7,26.9
			c0.9,0.9,2.4,0.9,3.3,0c1.1-1,25.4-23.3,38.9-52.1c13.4,28.8,37.8,51.1,38.9,52.1c0.9,0.9,2.4,0.9,3.3,0c0.5-0.4,12-11,23.7-26.9
			c15.8-21.6,23.8-41.7,23.8-59.9C227.2,161.2,226.1,160.1,224.8,160.1z"/>
		
			<linearGradient id="SVGID_3_" gradientUnits="userSpaceOnUse" x1="60.53" y1="195.1451" x2="167.3722" y2="46.6319" gradientTransform="matrix(1 0 0 -1 0 299.6)">
			<stop  offset="0" style="stop-color:#ED1C24"/>
			<stop  offset="0.16" style="stop-color:#F26522"/>
			<stop  offset="0.38" style="stop-color:#FFDE17"/>
			<stop  offset="0.6" style="stop-color:#00A14B"/>
			<stop  offset="0.8" style="stop-color:#21409A"/>
			<stop  offset="1" style="stop-color:#7F3F98"/>
		</linearGradient>
		<path class="st2" d="M103.5,182.1c1,1,2.5,1,3.5,0c0,0,0,0,0,0c4.5-4.5,11.8-4.5,16.3,0c1,1,2.5,1,3.5,0c1-1,1-2.5,0-3.5l0,0
			c-6.4-6.4-16.9-6.4-23.3,0C102.5,179.6,102.5,181.1,103.5,182.1C103.5,182.1,103.5,182.1,103.5,182.1z"/>
		
			<linearGradient id="SVGID_4_" gradientUnits="userSpaceOnUse" x1="36.7306" y1="178.0233" x2="143.5728" y2="29.5101" gradientTransform="matrix(1 0 0 -1 0 299.6)">
			<stop  offset="0" style="stop-color:#ED1C24"/>
			<stop  offset="0.16" style="stop-color:#F26522"/>
			<stop  offset="0.38" style="stop-color:#FFDE17"/>
			<stop  offset="0.6" style="stop-color:#00A14B"/>
			<stop  offset="0.8" style="stop-color:#21409A"/>
			<stop  offset="1" style="stop-color:#7F3F98"/>
		</linearGradient>
		<path class="st3" d="M67.4,178.6c-1,1-1,2.5,0,3.5c1,1,2.5,1,3.5,0c4.5-4.5,11.8-4.5,16.3,0c1,1,2.5,1,3.5,0c1-1,1-2.5,0-3.5l0,0
			C84.2,172.2,73.8,172.2,67.4,178.6z"/>
		
			<linearGradient id="SVGID_5_" gradientUnits="userSpaceOnUse" x1="122.8642" y1="239.9864" x2="229.7064" y2="91.4732" gradientTransform="matrix(1 0 0 -1 0 299.6)">
			<stop  offset="0" style="stop-color:#ED1C24"/>
			<stop  offset="0.16" style="stop-color:#F26522"/>
			<stop  offset="0.38" style="stop-color:#FFDE17"/>
			<stop  offset="0.6" style="stop-color:#00A14B"/>
			<stop  offset="0.8" style="stop-color:#21409A"/>
			<stop  offset="1" style="stop-color:#7F3F98"/>
		</linearGradient>
		<path class="st4" d="M177.7,90.6c-19.3,0-37.9,7.1-52.2,20c-3.8-2.4-7.9-4.4-12.1-6c-3.9-1.5-8.1-2.4-12.2-3.2
			c-7.4-1.6-14.4-3-19.7-7.8c-4.5-4-7.1-9.8-7.1-15.8c0-12.6,10.2-22.8,22.8-22.8s22.8,10.2,22.8,22.8c0,6-2.3,11.7-6.5,16
			c-1,1-0.9,2.5,0,3.5c1,1,2.5,0.9,3.5,0c10.7-10.9,10.5-28.5-0.4-39.2S88,47.4,77.2,58.3c-5.1,5.2-7.9,12.1-7.9,19.4
			c0,7.4,3.2,14.5,8.7,19.5c6.3,5.7,14.3,7.3,22,9c4.1,0.9,7.9,1.7,11.5,3c9.8,3.7,18.1,9.5,23.9,16.7c6.2,7.8,9.6,17.6,9.6,27.6
			c0,1.4,1.1,2.5,2.5,2.5l0,0h44.7c0.9,0,1.7-0.5,2.1-1.2c0.9-1.5,1.6-3.1,2.2-4.7c1.5-4.2,2-8.7,1.4-13.1c4,4.5,6.1,10.4,5.8,16.5
			c-0.1,1.4,1,2.5,2.4,2.6h18.4c1.4-0.1,2.4-1.2,2.4-2.6c0-1.3-1.1-2.3-2.4-2.4h-15.9c-0.4-9.6-5.7-18.3-14-23
			c-1.2-0.7-2.7-0.3-3.4,0.9c-0.4,0.7-0.4,1.5-0.1,2.2c2.5,5.4,2.7,11.6,0.6,17.2c-0.3,0.9-0.7,1.8-1.2,2.7c-1.2,0-2.9,0-5.5,0H150
			c-0.5-10.3-4.2-20.2-10.7-28.2c-2.8-3.5-6.1-6.7-9.8-9.4c13.3-11.6,30.4-18,48.1-17.9c40.4,0,73.3,32.9,73.3,73.3v15.9h-15.9
			c-1.4,0.1-2.4,1.2-2.4,2.6c0,1.3,1.1,2.3,2.4,2.4h18.3c1.4,0,2.5-1.1,2.5-2.5v-18.3C255.9,125.7,220.8,90.6,177.7,90.6z"/>
		
			<linearGradient id="SVGID_6_" gradientUnits="userSpaceOnUse" x1="57.7724" y1="193.1608" x2="164.6146" y2="44.6476" gradientTransform="matrix(1 0 0 -1 0 299.6)">
			<stop  offset="0" style="stop-color:#ED1C24"/>
			<stop  offset="0.16" style="stop-color:#F26522"/>
			<stop  offset="0.38" style="stop-color:#FFDE17"/>
			<stop  offset="0.6" style="stop-color:#00A14B"/>
			<stop  offset="0.8" style="stop-color:#21409A"/>
			<stop  offset="1" style="stop-color:#7F3F98"/>
		</linearGradient>
		<path class="st5" d="M113,119.1c0.8-1.1,0.5-2.7-0.6-3.4c-1.1-0.8-2.7-0.5-3.4,0.6c0,0.1-0.1,0.1-0.1,0.2
			c-12.9,20.8-35.3,33.7-59.7,34.5c1.1-18.9,13.1-35.5,30.8-42.4c1.3-0.5,1.8-2,1.3-3.2c-0.5-1.2-1.8-1.8-3.1-1.4
			c-20.5,7.9-34,27.5-34,49.5c0,1.4,1.1,2.5,2.5,2.5h0.1C73.7,156,98.8,142.1,113,119.1z"/>
	</g>
</g>
</svg>
