<svg xmlns="http://www.w3.org/2000/svg" xmlns:xlink="http://www.w3.org/1999/xlink" viewBox="0 0 250 250"><defs><style>.cls-1{fill:url(#linear-gradient);}.cls-2,.cls-3{fill:#fff;}.cls-3{font-size:20px;font-family:Europa-Regular;}.cls-4{letter-spacing:-0.01em;}</style><linearGradient id="linear-gradient" x1="187.51" y1="233.27" x2="62.49" y2="16.73" gradientUnits="userSpaceOnUse"><stop offset="0" stop-color="#527dbe"/><stop offset="1" stop-color="#6ac9d2"/></linearGradient></defs><g id="Layer_2" data-name="Layer 2"><g id="Layer_1-2" data-name="Layer 1"><circle class="cls-1" cx="125" cy="125" r="125"/><path class="cls-2" d="M159.66,143.11a10.5,10.5,0,1,0-9.31-15.33,9.17,9.17,0,0,0-9.2,0,10.5,10.5,0,1,0,1.18,4.83,10.37,10.37,0,0,0-.06-1.12,5.44,5.44,0,0,1,7,0,10.37,10.37,0,0,0-.06,1.12A10.51,10.51,0,0,0,159.66,143.11Zm-27.82-3.7a6.8,6.8,0,1,1,6.79-6.8A6.81,6.81,0,0,1,131.84,139.41Zm27.82-13.59a6.8,6.8,0,1,1-6.79,6.79A6.8,6.8,0,0,1,159.66,125.82Z"/><path class="cls-2" d="M181.08,117.46a1.84,1.84,0,0,0-1.84,1.85c0,27.29-27,55.14-33.16,61.15-4.6-4.47-20.76-21.05-28.67-40.48a1.85,1.85,0,0,0-3.43,0c-7.91,19.41-24.07,36-28.67,40.48-6.18-6-33.16-33.86-33.16-61.15a1.85,1.85,0,1,0-3.69,0c0,13.61,6,28.71,17.85,44.89a147.78,147.78,0,0,0,17.75,20.18,1.85,1.85,0,0,0,2.49,0c.82-.74,19.06-17.5,29.14-39.09,10.08,21.59,28.33,38.35,29.15,39.09a1.84,1.84,0,0,0,1.24.48,1.87,1.87,0,0,0,1.25-.48,148.12,148.12,0,0,0,17.74-20.18c11.85-16.18,17.86-31.28,17.86-44.89A1.85,1.85,0,0,0,181.08,117.46Z"/><path class="cls-2" d="M90.11,133.94a1.85,1.85,0,0,0,2.61,0,8.68,8.68,0,0,1,12.26,0,1.85,1.85,0,0,0,2.61,0,1.86,1.86,0,0,0,0-2.62,12.39,12.39,0,0,0-17.48,0A1.86,1.86,0,0,0,90.11,133.94Z"/><path class="cls-2" d="M63,131.32a1.85,1.85,0,1,0,2.62,2.62,8.67,8.67,0,0,1,12.25,0,1.85,1.85,0,0,0,2.61,0,1.86,1.86,0,0,0,0-2.62A12.39,12.39,0,0,0,63,131.32Z"/><path class="cls-2" d="M145.75,65.29a58.52,58.52,0,0,0-39.18,15,50.06,50.06,0,0,0-9.1-4.5,62.93,62.93,0,0,0-9.15-2.41c-5.55-1.17-10.79-2.27-14.8-5.85A15.75,15.75,0,0,1,68.2,55.66a17.11,17.11,0,1,1,29.33,12,1.85,1.85,0,1,0,2.64,2.59A20.8,20.8,0,1,0,64.51,55.66a19.61,19.61,0,0,0,6.55,14.62c4.74,4.25,10.72,5.5,16.5,6.72a59.52,59.52,0,0,1,8.61,2.25,41.5,41.5,0,0,1,18,12.55,33.14,33.14,0,0,1,7.23,20.7,1.84,1.84,0,0,0,1.84,1.85h33.55a1.84,1.84,0,0,0,1.59-.9A20.88,20.88,0,0,0,161.1,100a17.18,17.18,0,0,1,4.36,12.36,1.9,1.9,0,0,0,.49,1.34,1.94,1.94,0,0,0,1.3.61h13.83a1.85,1.85,0,0,0,0-3.7H169.17a21,21,0,0,0-10.51-17.27,1.85,1.85,0,0,0-2.15.25,1.82,1.82,0,0,0-.44,2.12,17.05,17.05,0,0,1,.48,12.88,17.61,17.61,0,0,1-.9,2H125a36.89,36.89,0,0,0-8-21.17,41,41,0,0,0-7.3-7,55,55,0,0,1,91,41.52v11.9h-11.9a1.85,1.85,0,1,0,0,3.69h13.74a1.84,1.84,0,0,0,1.85-1.84V124A58.74,58.74,0,0,0,145.75,65.29Z"/><path class="cls-2" d="M97.24,86.69a1.85,1.85,0,1,0-3.14-2,54.71,54.71,0,0,1-44.78,25.89,36.28,36.28,0,0,1,23.1-31.79,1.85,1.85,0,1,0-1.32-3.45A39.76,39.76,0,0,0,45.57,112.5a1.85,1.85,0,0,0,1.14,1.71,2,2,0,0,0,.71.14h.08A58.39,58.39,0,0,0,97.24,86.69Z"/><text class="cls-3" transform="translate(61.71 215.56)"><tspan class="cls-4">w</tspan><tspan x="14.68" y="0">omen in tech</tspan></text></g></g></svg>