<svg id="Layer_2" data-name="Layer 2" xmlns="http://www.w3.org/2000/svg" viewBox="0 0 900 680"><defs><style>.cls-1{fill:none;}.cls-2{fill:#9fd6c0;}.cls-3{fill:#fff;}.cls-13,.cls-4{fill:#ed9ac2;}.cls-4,.cls-5{stroke:#fff;stroke-miterlimit:10;stroke-width:0.75px;}.cls-5,.cls-9{fill:#f37a6f;}.cls-6{fill:#d289bb;}.cls-7{fill:#fbb349;}.cls-8{fill:#7273b6;}.cls-10{fill:#fae603;}.cls-11{fill:#fbb716;}.cls-12{fill:#8ac2e5;}</style></defs><rect class="cls-1" x="687" y="440" width="240" height="240"/><path class="cls-2" d="M834.83,657.29h-3.1a24.73,24.73,0,0,0-49.46,0h-3.1a27.7,27.7,0,0,1,2.06-10.52l0-.08.45-1.05,0-.08a27.84,27.84,0,0,1,50.61.28l.27.62A27.71,27.71,0,0,1,834.83,657.29Z"/><path class="cls-3" d="M835,657.5h-3.52v-.21a24.52,24.52,0,0,0-49,0v.21H779v-.21a27.81,27.81,0,0,1,2.08-10.6l0-.09.48-1.11a28.05,28.05,0,0,1,51,.27l.27.62A27.85,27.85,0,0,1,835,657.29Zm-3.11-.42h2.69a27.56,27.56,0,0,0-2.17-10.54l-.27-.61a27.63,27.63,0,0,0-50.23-.28l0,.07-.5,1.14a27.4,27.4,0,0,0-2,10.22h2.69a24.93,24.93,0,0,1,49.86,0Z"/><path class="cls-3" d="M832.12,645.93a27.63,27.63,0,0,0-50.24-.28l-.38-.17L786.06,635l0,0a32,32,0,0,1,41.68,0l0,0,4.68,10.75Zm-25.18-16.67a28.1,28.1,0,0,1,23.4,12.59l-2.86-6.58a31.61,31.61,0,0,0-41.07,0l-2.86,6.56A28.16,28.16,0,0,1,806.94,629.26Z"/><path class="cls-4" d="M827.71,635.14a31.83,31.83,0,0,0-41.42,0l6-13.78h29.42Z"/><path class="cls-5" d="M785.74,635.89l6.41-14.74h29.7l6.41,14.74-.69-.59a31.61,31.61,0,0,0-41.14,0ZM807,627.27a32,32,0,0,1,20.16,7.15l-5.58-12.85H792.42l-5.58,12.84A32,32,0,0,1,807,627.27Z"/><polygon class="cls-2" points="818.46 588.38 795.54 588.38 795.82 587.59 796.99 584.23 817.01 584.23 818.18 587.59 818.46 588.38"/><path class="cls-3" d="M818.75,588.59h-23.5l1.59-4.57h20.32Zm-22.91-.42h22.32l-1.3-3.73H797.14Z"/><polygon class="cls-6" points="811.31 482.38 811.31 489.07 802.69 489.07 802.69 482.38 805.95 478.74 808.02 478.74 811.31 482.38"/><path class="cls-3" d="M811.52,489.28h-9v-7l3.38-3.77h2.25l3.41,3.76Zm-8.62-.42h8.2v-6.4l-3.17-3.52h-1.88l-3.15,3.52Z"/><polygon class="cls-3" points="808.03 478.74 805.97 478.74 807 462.5 808.03 478.74"/><polygon class="cls-7" points="807.81 478.52 806.19 478.52 807 465.78 807.81 478.52"/><rect class="cls-8" x="804.28" y="627.59" width="0.42" height="1.99" transform="translate(-51.69 72.46) rotate(-5)"/><rect class="cls-8" x="799.33" y="628.46" width="0.42" height="1.99" transform="translate(-135.67 228.38) rotate(-15)"/><rect class="cls-8" x="794.57" y="630" width="0.42" height="2.17" transform="translate(-192.24 395) rotate(-25)"/><rect class="cls-8" x="790.16" y="632.37" width="0.42" height="2.33" transform="translate(-220.45 567.92) rotate(-35)"/><rect class="cls-8" x="786.41" y="635.92" width="0.42" height="1.99" transform="translate(-219.98 742.67) rotate(-44.99)"/><rect class="cls-8" x="808.52" y="628.37" width="1.99" height="0.42" transform="translate(112.7 1380.16) rotate(-84.99)"/><rect class="cls-8" x="813.46" y="629.24" width="1.99" height="0.42" transform="translate(-4.49 1253.06) rotate(-74.99)"/><rect class="cls-8" x="818.18" y="630.96" width="1.99" height="0.42" transform="translate(-99.31 1106.37) rotate(-64.97)"/><rect class="cls-8" x="822.46" y="633.33" width="2.33" height="0.42" transform="translate(-167.78 944.76) rotate(-55)"/><rect class="cls-8" x="826.38" y="636.7" width="1.99" height="0.42" transform="translate(-208.03 771.59) rotate(-45)"/><path class="cls-3" d="M806.34,630.52h1.33a.45.45,0,0,1,.45.45v.69a0,0,0,0,1,0,0h-2.23a0,0,0,0,1,0,0V631a.45.45,0,0,1,.45-.45Z"/><path class="cls-3" d="M808.32,631.86h-2.64v-1a.6.6,0,0,1,.6-.6h1.44a.6.6,0,0,1,.6.6Zm-2.22-.41h1.8v-.54a.18.18,0,0,0-.18-.18h-1.44a.18.18,0,0,0-.18.18Z"/><path class="cls-3" d="M811.79,631.09h1.33a.45.45,0,0,1,.45.45v.69a0,0,0,0,1,0,0h-2.23a0,0,0,0,1,0,0v-.69A.45.45,0,0,1,811.79,631.09Z" transform="translate(149.08 -155.11) rotate(12)"/><path class="cls-3" d="M813.58,632.69l-2.59-.55.2-.93a.6.6,0,0,1,.71-.46l1.42.3a.59.59,0,0,1,.38.26.63.63,0,0,1,.08.45Zm-2.09-.87,1.77.38.11-.53a.17.17,0,0,0-.14-.21h0l-1.41-.3a.18.18,0,0,0-.22.14Z"/><path class="cls-3" d="M817,632.78h1.33a.45.45,0,0,1,.45.45v.69a0,0,0,0,1,0,0h-2.23a0,0,0,0,1,0,0v-.69A.45.45,0,0,1,817,632.78Z" transform="translate(328.3 -277.82) rotate(24)"/><path class="cls-3" d="M818.55,634.6l-2.41-1.08.38-.87a.58.58,0,0,1,.34-.31.54.54,0,0,1,.45,0l1.33.59a.59.59,0,0,1,.31.33.61.61,0,0,1,0,.46Zm-1.86-1.29,1.65.74.22-.49a.17.17,0,0,0,0-.14.18.18,0,0,0-.09-.1l-1.33-.59a.15.15,0,0,0-.13,0,.17.17,0,0,0-.11.09Z"/><path class="cls-3" d="M821.74,635.52h1.33a.45.45,0,0,1,.45.45v.69a0,0,0,0,1,0,0h-2.23a0,0,0,0,1,0,0V636a.45.45,0,0,1,.45-.45Z" transform="translate(530.95 -361.91) rotate(36)"/><path class="cls-3" d="M823,637.5l-2.14-1.56.56-.77a.6.6,0,0,1,.39-.24.58.58,0,0,1,.44.11l1.18.85a.6.6,0,0,1,.13.83Zm-1.56-1.65,1.46,1.06.32-.43a.18.18,0,0,0,0-.25l-1.17-.86a.22.22,0,0,0-.14,0,.21.21,0,0,0-.11.07Z"/><path class="cls-3" d="M825.81,639.19h1.33a.45.45,0,0,1,.45.45v.69a0,0,0,0,1,0,0h-2.23a0,0,0,0,1,0,0v-.69A.45.45,0,0,1,825.81,639.19Z" transform="translate(748.89 -402.51) rotate(48)"/><path class="cls-3" d="M826.78,641.26l-1.77-2,.71-.64a.63.63,0,0,1,.43-.15.62.62,0,0,1,.42.2l1,1.07a.64.64,0,0,1,.15.44.6.6,0,0,1-.2.41Zm-1.18-1.94,1.21,1.35.4-.36a.16.16,0,0,0,.06-.13.22.22,0,0,0,0-.13h0l-1-1.07a.18.18,0,0,0-.13-.06.17.17,0,0,0-.13.05Z"/><path class="cls-3" d="M829,643.62h1.33a.45.45,0,0,1,.45.45v.69a0,0,0,0,1,0,0h-2.23a0,0,0,0,1,0,0v-.69A.45.45,0,0,1,829,643.62Z" transform="translate(972.73 -396.44) rotate(60)"/><path class="cls-3" d="M829.68,645.72l-1.32-2.29.83-.48a.61.61,0,0,1,.82.22l.72,1.26a.59.59,0,0,1-.22.81Zm-.75-2.14.91,1.57.46-.27a.17.17,0,0,0,.07-.24l-.73-1.26a.18.18,0,0,0-.24-.06Z"/><path class="cls-3" d="M831.26,648.63h1.33a.45.45,0,0,1,.45.45v.69a0,0,0,0,1,0,0h-2.23a0,0,0,0,1,0,0v-.69a.45.45,0,0,1,.45-.45Z" transform="translate(1192.27 -342.62) rotate(72)"/><path class="cls-3" d="M831.59,650.69l-.81-2.51.9-.3a.6.6,0,0,1,.76.39l.44,1.37a.59.59,0,0,1-.38.76Zm-.29-2.25.56,1.72.51-.16a.2.2,0,0,0,.11-.09.22.22,0,0,0,0-.14h0l-.45-1.38a.18.18,0,0,0-.23-.11Z"/><path class="cls-3" d="M832.4,654h1.33a.45.45,0,0,1,.45.45v.69a0,0,0,0,1,0,0h-2.23a0,0,0,0,1,0,0v-.69A.45.45,0,0,1,832.4,654Z" transform="translate(1396.95 -242.37) rotate(84)"/><path class="cls-3" d="M832.43,656l-.28-2.63,1-.1a.6.6,0,0,1,.66.53l.15,1.44a.6.6,0,0,1-.53.66Zm.18-2.26.19,1.8.53-.06a.18.18,0,0,0,.16-.2l-.15-1.44a.19.19,0,0,0-.2-.16Z"/><path class="cls-3" d="M800.89,631.09h1.33a.45.45,0,0,1,.45.45v.69a0,0,0,0,1,0,0h-2.23a0,0,0,0,1,0,0v-.69A.45.45,0,0,1,800.89,631.09Z" transform="translate(-113.81 180.46) rotate(-12)"/><path class="cls-3" d="M800.42,632.69l-.2-.93a.63.63,0,0,1,.08-.45.59.59,0,0,1,.38-.26l1.42-.3a.6.6,0,0,1,.71.46l.2.93Zm1.8-1.54h0l-1.41.3a.2.2,0,0,0-.12.08.19.19,0,0,0,0,.13l.11.53,1.77-.38-.11-.52A.18.18,0,0,0,802.22,631.15Z"/><path class="cls-3" d="M795.68,632.78H797a.45.45,0,0,1,.45.45v.69a0,0,0,0,1,0,0h-2.23a0,0,0,0,1,0,0v-.69A.45.45,0,0,1,795.68,632.78Z" transform="translate(-188.76 378.66) rotate(-24)"/><path class="cls-3" d="M795.45,634.6l-.39-.87a.61.61,0,0,1,0-.46.59.59,0,0,1,.31-.33l1.33-.59a.6.6,0,0,1,.79.3l.38.87Zm1.41-1.87-1.33.59a.18.18,0,0,0-.09.1.17.17,0,0,0,0,.14l.22.49,1.65-.74-.21-.49A.19.19,0,0,0,796.86,632.73Z"/><path class="cls-3" d="M790.93,635.52h1.33a.45.45,0,0,1,.45.45v.69a0,0,0,0,1,0,0h-2.23a0,0,0,0,1,0,0V636A.45.45,0,0,1,790.93,635.52Z" transform="translate(-222.7 586.77) rotate(-36)"/><path class="cls-3" d="M791,637.5l-.56-.78a.6.6,0,0,1,.13-.83l1.18-.85a.58.58,0,0,1,.83.13l.56.77Zm1.1-2.16a.2.2,0,0,0-.11,0h0l-1.17.86a.18.18,0,0,0,0,.25l.32.43,1.46-1.06-.32-.44a.21.21,0,0,0-.11-.07Z"/><path class="cls-3" d="M786.86,639.19h1.33a.45.45,0,0,1,.45.45v.69a0,0,0,0,1,0,0h-2.23a0,0,0,0,1,0,0v-.69A.45.45,0,0,1,786.86,639.19Z" transform="translate(-214.86 796.92) rotate(-48)"/><path class="cls-3" d="M787.22,641.26l-.71-.64a.6.6,0,0,1-.2-.41.64.64,0,0,1,.15-.44l1-1.07a.62.62,0,0,1,.42-.2.59.59,0,0,1,.43.16l.71.63Zm.66-2.34h0a.18.18,0,0,0-.13.06l-1,1.07a.22.22,0,0,0,0,.13.16.16,0,0,0,.06.13l.4.36,1.21-1.35L788,639A.16.16,0,0,0,787.88,638.92Z"/><path class="cls-3" d="M783.64,643.62H785a.45.45,0,0,1,.45.45v.69a0,0,0,0,1,0,0h-2.23a0,0,0,0,1,0,0v-.69A.45.45,0,0,1,783.64,643.62Z" transform="translate(-165.73 1001.32) rotate(-60)"/><path class="cls-3" d="M784.32,645.72l-.83-.48a.59.59,0,0,1-.22-.81l.72-1.26a.61.61,0,0,1,.82-.22l.83.48Zm.19-2.43a.16.16,0,0,0-.15.09l-.73,1.26a.17.17,0,0,0,.07.24l.46.27.91-1.57-.47-.26A.14.14,0,0,0,784.51,643.29Z"/><path class="cls-3" d="M781.41,648.63h1.33a.45.45,0,0,1,.45.45v.69a0,0,0,0,1,0,0H781a0,0,0,0,1,0,0v-.69A.45.45,0,0,1,781.41,648.63Z" transform="translate(-77.02 1192.38) rotate(-72)"/><path class="cls-3" d="M782.41,650.69l-.91-.29a.59.59,0,0,1-.38-.76l.44-1.37a.6.6,0,0,1,.76-.39l.9.3Zm-.28-2.42a.18.18,0,0,0-.17.12h0l-.45,1.38a.18.18,0,0,0,.12.23l.51.16.56-1.72-.51-.16Z"/><path class="cls-3" d="M780.27,654h1.33a.45.45,0,0,1,.45.45v.69a0,0,0,0,1,0,0h-2.23a0,0,0,0,1,0,0v-.69a.45.45,0,0,1,.45-.45Z" transform="translate(48.34 1362.79) rotate(-84)"/><path class="cls-3" d="M781.57,656l-1-.1a.62.62,0,0,1-.4-.22.58.58,0,0,1-.13-.44l.15-1.44a.6.6,0,0,1,.66-.53l1,.1Zm-.91-2.16-.15,1.44a.17.17,0,0,0,0,.14.22.22,0,0,0,.13.06l.53.06.19-1.8-.53-.06a.19.19,0,0,0-.2.16Z"/><path class="cls-8" d="M792.29,621.36l-6,13.78-4.54,10.42,0,.08c-.15.35-.31.69-.45,1.05l0,.08a27.7,27.7,0,0,0-2.06,10.52H767.78l15.9-35.93Z"/><path class="cls-3" d="M779.38,657.5H767.46l.13-.29,15.95-36.06h9.07l-10.69,24.57c-.18.39-.32.72-.45,1l-.05.1a27.45,27.45,0,0,0-2,10.43Zm-11.28-.42H779A28,28,0,0,1,781,646.69l0-.09c.13-.32.28-.66.46-1l0-.07L792,621.57h-8.15Z"/><rect class="cls-3" x="780.49" y="628.37" width="8.66" height="0.42"/><rect class="cls-3" x="776.97" y="636.32" width="8.72" height="0.42"/><rect class="cls-3" x="773.45" y="644.27" width="8.78" height="0.42"/><rect class="cls-3" x="772.04" y="647.45" width="8.88" height="0.42"/><rect class="cls-3" x="770.63" y="650.63" width="9.25" height="0.42"/><rect class="cls-3" x="769.23" y="653.81" width="10.12" height="0.42"/><rect class="cls-3" x="781.41" y="626.29" width="8.65" height="0.42"/><path class="cls-8" d="M821.71,621.36l6,13.78,4.54,10.42,0,.08c.15.35.31.69.45,1.05l0,.08a27.7,27.7,0,0,1,2.06,10.52h11.39l-15.9-35.93Z"/><path class="cls-3" d="M846.54,657.5H834.62v-.21a27.36,27.36,0,0,0-2-10.44l0-.08c-.14-.33-.28-.66-.45-1l0-.09-10.66-24.49h9.07l0,.13ZM835,657.08H845.9l-15.72-35.51H822l10.44,24c.17.37.32.71.45,1l0,.08A27.74,27.74,0,0,1,835,657.08Z"/><line class="cls-8" x1="833.51" y1="628.58" x2="824.85" y2="628.58"/><rect class="cls-3" x="824.85" y="628.37" width="8.66" height="0.42"/><line class="cls-8" x1="837.03" y1="636.53" x2="828.31" y2="636.53"/><rect class="cls-3" x="828.31" y="636.32" width="8.72" height="0.42"/><line class="cls-8" x1="840.55" y1="644.48" x2="831.77" y2="644.48"/><rect class="cls-3" x="831.77" y="644.27" width="8.78" height="0.42"/><line class="cls-8" x1="841.96" y1="647.66" x2="833.08" y2="647.66"/><rect class="cls-3" x="833.08" y="647.45" width="8.88" height="0.42"/><line class="cls-8" x1="843.37" y1="650.84" x2="834.12" y2="650.84"/><rect class="cls-3" x="834.12" y="650.63" width="9.25" height="0.42"/><line class="cls-8" x1="844.77" y1="654.02" x2="834.66" y2="654.02"/><rect class="cls-3" x="834.66" y="653.81" width="10.12" height="0.42"/><line class="cls-8" x1="823.95" y1="626.5" x2="832.59" y2="626.5"/><rect class="cls-3" x="823.95" y="626.29" width="8.65" height="0.42"/><polygon class="cls-9" points="802.26 590.8 797.37 613.83 786.65 613.83 794.69 590.8 802.26 590.8"/><path class="cls-3" d="M797.54,614H786.36l8.18-23.45h8ZM787,613.62H797.2L802,591h-7.16Z"/><rect class="cls-3" x="790.67" y="602.11" width="9.14" height="0.42"/><rect class="cls-3" x="788.45" y="608.47" width="10.01" height="0.42"/><rect class="cls-3" x="792.89" y="595.75" width="8.27" height="0.42"/><line class="cls-3" x1="794.69" y1="590.8" x2="801.17" y2="595.96"/><rect class="cls-3" x="797.72" y="589.24" width="0.42" height="8.28" transform="translate(-163.32 847.92) rotate(-51.47)"/><line class="cls-3" x1="802.26" y1="590.8" x2="792.89" y2="595.96"/><rect class="cls-3" x="792.23" y="593.17" width="10.69" height="0.42" transform="translate(-187.21 457.65) rotate(-28.8)"/><line class="cls-3" x1="799.82" y1="602.32" x2="792.89" y2="595.96"/><rect class="cls-3" x="796.15" y="594.44" width="0.42" height="9.4" transform="translate(-183.62 780.23) rotate(-47.43)"/><line class="cls-3" x1="801.17" y1="595.96" x2="790.67" y2="602.32"/><rect class="cls-3" x="789.78" y="598.93" width="12.27" height="0.42" transform="translate(-195.26 499.08) rotate(-31.21)"/><line class="cls-3" x1="798.47" y1="608.68" x2="790.67" y2="602.32"/><rect class="cls-3" x="794.36" y="600.47" width="0.42" height="10.06" transform="translate(-176.93 838.2) rotate(-50.78)"/><line class="cls-3" x1="799.82" y1="602.32" x2="788.45" y2="608.68"/><rect class="cls-3" x="787.62" y="605.29" width="13.02" height="0.42" transform="translate(-194.57 464.99) rotate(-29.24)"/><line class="cls-3" x1="797.37" y1="613.83" x2="788.45" y2="608.68"/><rect class="cls-3" x="792.7" y="606.1" width="0.42" height="10.3" transform="translate(-133.13 991.77) rotate(-59.97)"/><line class="cls-3" x1="798.47" y1="608.68" x2="786.65" y2="613.83"/><rect class="cls-3" x="786.12" y="611.05" width="12.89" height="0.42" transform="translate(-178.26 367.76) rotate(-23.56)"/><polygon class="cls-9" points="811.78 590.8 816.67 613.83 827.39 613.83 819.35 590.8 811.78 590.8"/><path class="cls-3" d="M811.52,590.59h8L827.68,614H816.5Zm7.68.42H812l4.8,22.61h10.25Z"/><line class="cls-3" x1="814.22" y1="602.32" x2="823.37" y2="602.32"/><rect class="cls-3" x="814.22" y="602.11" width="9.14" height="0.42"/><line class="cls-3" x1="815.58" y1="608.68" x2="825.59" y2="608.68"/><rect class="cls-3" x="815.58" y="608.47" width="10.01" height="0.42"/><line class="cls-3" x1="812.87" y1="595.96" x2="821.15" y2="595.96"/><rect class="cls-3" x="812.87" y="595.75" width="8.27" height="0.42"/><line class="cls-3" x1="819.35" y1="590.8" x2="812.87" y2="595.96"/><rect class="cls-3" x="811.97" y="593.17" width="8.28" height="0.42" transform="translate(-191.95 637.6) rotate(-38.53)"/><line class="cls-3" x1="811.78" y1="590.8" x2="821.15" y2="595.96"/><rect class="cls-3" x="816.26" y="588.03" width="0.42" height="10.69" transform="translate(-96.86 1022.97) rotate(-61.2)"/><line class="cls-3" x1="814.22" y1="602.32" x2="821.15" y2="595.96"/><rect class="cls-3" x="812.99" y="598.93" width="9.4" height="0.42" transform="translate(-189.8 711.13) rotate(-42.57)"/><line class="cls-3" x1="812.87" y1="595.96" x2="823.37" y2="602.32"/><rect class="cls-3" x="817.91" y="593" width="0.42" height="12.27" transform="translate(-118.21 988.45) rotate(-58.79)"/><line class="cls-3" x1="815.58" y1="608.68" x2="823.37" y2="602.32"/><rect class="cls-3" x="814.44" y="605.29" width="10.06" height="0.42" transform="translate(-198.25 654.57) rotate(-39.22)"/><line class="cls-3" x1="814.22" y1="602.32" x2="825.59" y2="608.68"/><rect class="cls-3" x="819.7" y="598.99" width="0.42" height="13.02" transform="translate(-108.91 1025.23) rotate(-60.76)"/><line class="cls-3" x1="816.67" y1="613.83" x2="825.59" y2="608.68"/><rect class="cls-3" x="815.98" y="611.05" width="10.3" height="0.42" transform="translate(-195.69 493.05) rotate(-30.03)"/><line class="cls-3" x1="815.58" y1="608.68" x2="827.39" y2="613.83"/><rect class="cls-3" x="821.27" y="604.81" width="0.42" height="12.89" transform="translate(-67.18 1119.92) rotate(-66.44)"/><path class="cls-8" d="M807,489.07v54l-2.16,37.25h-6.77q4.63-45.6,5.57-91.21Z"/><path class="cls-3" d="M805,580.49h-7.19l0-.23c3.08-30.22,4.95-60.9,5.57-91.19v-.21h3.78V543Zm-6.73-.42h6.34L806.79,543V489.28h-2.95C803.22,519.44,801.36,550,798.3,580.07Z"/><rect class="cls-3" x="801.78" y="534.47" width="5.22" height="0.42"/><rect class="cls-3" x="801.27" y="542.42" width="5.73" height="0.42"/><rect class="cls-3" x="800.7" y="550.37" width="5.86" height="0.42"/><rect class="cls-3" x="800.07" y="558.32" width="6.03" height="0.42"/><rect class="cls-3" x="799.39" y="566.27" width="6.25" height="0.42"/><rect class="cls-3" x="798.65" y="574.22" width="6.53" height="0.42"/><rect class="cls-3" x="802.24" y="526.52" width="4.76" height="0.42"/><rect class="cls-3" x="802.64" y="518.57" width="4.36" height="0.42"/><rect class="cls-3" x="802.98" y="510.62" width="4.02" height="0.42"/><rect class="cls-3" x="803.27" y="502.67" width="3.73" height="0.42"/><rect class="cls-3" x="803.5" y="494.71" width="3.5" height="0.42"/><path class="cls-8" d="M807,489.07v54l2.16,37.25h6.77q-4.63-45.6-5.57-91.21Z"/><path class="cls-3" d="M816.16,580.49H809l-2.18-37.44V488.86h3.78v.21c.62,30.29,2.49,61,5.57,91.19Zm-6.8-.42h6.34c-3.06-30.09-4.92-60.63-5.54-90.79h-2.95V543Z"/><line class="cls-8" x1="812.22" y1="534.68" x2="807" y2="534.68"/><rect class="cls-3" x="807" y="534.47" width="5.22" height="0.42"/><line class="cls-8" x1="812.73" y1="542.63" x2="807" y2="542.63"/><rect class="cls-3" x="807" y="542.42" width="5.73" height="0.42"/><line class="cls-8" x1="813.3" y1="550.58" x2="807.44" y2="550.58"/><rect class="cls-3" x="807.44" y="550.37" width="5.86" height="0.42"/><line class="cls-8" x1="813.93" y1="558.53" x2="807.9" y2="558.53"/><rect class="cls-3" x="807.9" y="558.32" width="6.03" height="0.42"/><line class="cls-8" x1="814.61" y1="566.48" x2="808.36" y2="566.48"/><rect class="cls-3" x="808.36" y="566.27" width="6.25" height="0.42"/><line class="cls-8" x1="815.35" y1="574.43" x2="808.82" y2="574.43"/><rect class="cls-3" x="808.82" y="574.22" width="6.53" height="0.42"/><line class="cls-8" x1="811.76" y1="526.73" x2="807" y2="526.73"/><rect class="cls-3" x="807" y="526.52" width="4.76" height="0.42"/><line class="cls-8" x1="811.36" y1="518.78" x2="807" y2="518.78"/><rect class="cls-3" x="807" y="518.57" width="4.36" height="0.42"/><line class="cls-8" x1="811.02" y1="510.82" x2="807" y2="510.82"/><rect class="cls-3" x="807" y="510.62" width="4.02" height="0.42"/><line class="cls-8" x1="810.73" y1="502.87" x2="807" y2="502.87"/><rect class="cls-3" x="807" y="502.67" width="3.73" height="0.42"/><line class="cls-8" x1="810.5" y1="494.92" x2="807" y2="494.92"/><rect class="cls-3" x="807" y="494.71" width="3.5" height="0.42"/><rect class="cls-3" x="802.69" y="484.07" width="8.63" height="0.42"/><rect class="cls-3" x="802.69" y="485.97" width="8.63" height="0.42"/><rect class="cls-9" x="795.54" y="580.28" width="22.92" height="3.95"/><path class="cls-3" d="M818.67,584.44H795.33v-4.37h23.34ZM795.75,584h22.5v-3.53h-22.5Z"/><rect class="cls-3" x="803.73" y="580.28" width="0.42" height="3.95"/><rect class="cls-3" x="800.55" y="580.28" width="0.42" height="3.95"/><rect class="cls-3" x="797.37" y="580.28" width="0.42" height="3.95"/><rect class="cls-3" x="806.91" y="580.28" width="0.42" height="3.95"/><rect class="cls-3" x="810.09" y="580.28" width="0.42" height="3.95"/><rect class="cls-3" x="813.27" y="580.28" width="0.42" height="3.95"/><rect class="cls-3" x="816.45" y="580.28" width="0.42" height="3.95"/><rect class="cls-7" x="782.75" y="613.83" width="48.5" height="7.53"/><path class="cls-3" d="M831.46,621.57H782.54v-8h48.92Zm-48.5-.42H831V614H783Z"/><rect class="cls-3" x="782.75" y="617.39" width="48.5" height="0.42"/><rect class="cls-3" x="827" y="613.83" width="0.42" height="7.53"/><rect class="cls-3" x="822.96" y="613.83" width="0.42" height="7.53"/><rect class="cls-3" x="818.92" y="613.83" width="0.42" height="7.53"/><rect class="cls-3" x="814.87" y="613.83" width="0.42" height="7.53"/><rect class="cls-3" x="810.83" y="613.83" width="0.42" height="7.53"/><rect class="cls-3" x="806.79" y="613.83" width="0.42" height="7.53"/><rect class="cls-3" x="802.75" y="613.83" width="0.42" height="7.53"/><rect class="cls-3" x="798.71" y="613.83" width="0.42" height="7.53"/><rect class="cls-3" x="794.67" y="613.83" width="0.42" height="7.53"/><rect class="cls-3" x="790.63" y="613.83" width="0.42" height="7.53"/><rect class="cls-3" x="786.58" y="613.83" width="0.42" height="7.53"/><path class="cls-3" d="M818.61,588.17H795.39l-1,2.84h25.2Zm-22.92.42h22.62l.7,2H795Z"/><polygon class="cls-7" points="819.01 590.6 794.99 590.6 795.69 588.59 818.31 588.59 819.01 590.6"/><rect class="cls-1" x="-18" width="240" height="240"/><path class="cls-2" d="M81.1,202.41l-1-2.06a44.35,44.35,0,0,0,17.36-15.72,57.93,57.93,0,0,0,8.68-22.1c2.22-13-1.58-23.35-5.6-34.27-1.53-4.15-3.12-8.44-4.43-13C92.84,103.8,95,87.06,100.52,74.09c-7,8.79-12.35,17.47-14.75,30-2,10.34-2.38,20.92-2.78,31.15-.13,3.56-.27,7.24-.48,10.88-.69,12.37-3.72,21.5-9.24,27.9-6.38,7.41-16.79,11.15-28.55,10.26l.17-2.28c11,.83,20.74-2.62,26.65-9.47,5.18-6,8-14.69,8.69-26.54.2-3.62.34-7.29.48-10.83.39-10.32.8-21,2.82-31.5,3.33-17.36,12-27.47,23-40.27l1.26-1.47h0l1.74,1.49C99.38,75.2,94,99.64,98.31,114.61c1.29,4.5,2.86,8.75,4.37,12.86,4.13,11.21,8,21.8,5.71,35.44a60.24,60.24,0,0,1-9,23A46.69,46.69,0,0,1,81.1,202.41Z"/><path class="cls-2" d="M81.1,202.41l-1-2.06a44.35,44.35,0,0,0,17.36-15.72,57.93,57.93,0,0,0,8.68-22.1c2.22-13-1.58-23.35-5.6-34.27-1.53-4.15-3.12-8.44-4.43-13C92.84,103.8,95,87.06,100.52,74.09c-7,8.79-12.35,17.47-14.75,30-2,10.34-2.38,20.92-2.78,31.15-.13,3.56-.27,7.24-.48,10.88-.69,12.37-3.72,21.5-9.24,27.9-6.38,7.41-16.79,11.15-28.55,10.26l.17-2.28c11,.83,20.74-2.62,26.65-9.47,5.18-6,8-14.69,8.69-26.54.2-3.62.34-7.29.48-10.83.39-10.32.8-21,2.82-31.5,3.33-17.36,12-27.47,23-40.27l1.26-1.47h0l1.74,1.49C99.38,75.2,94,99.64,98.31,114.61c1.29,4.5,2.86,8.75,4.37,12.86,4.13,11.21,8,21.8,5.71,35.44a60.24,60.24,0,0,1-9,23A46.69,46.69,0,0,1,81.1,202.41Z"/><path class="cls-2" d="M140.35,201.54l-1.75-1.47a44.3,44.3,0,0,0,9.46-21.42A58,58,0,0,0,147,154.93c-3.27-12.82-10.94-20.69-19.06-29-3.08-3.17-6.27-6.44-9.33-10.1-7.65-9.11-12.51-25.27-12.72-39.38-2.83,10.89-4.17,21-1.28,33.36,2.39,10.25,6.32,20.08,10.13,29.59,1.32,3.3,2.69,6.72,4,10.13,4.4,11.58,5.35,21.15,2.91,29.25-2.82,9.37-10.81,17-21.91,21L99,197.58c10.41-3.72,17.88-10.83,20.49-19.49,2.29-7.6,1.35-16.68-2.86-27.78-1.28-3.39-2.65-6.8-4-10.09-3.84-9.59-7.81-19.51-10.24-29.92-4-17.21-.19-30,4.65-46.15l.56-1.87,2.2.65h0c-4.47,15,.57,39.46,10.58,51.4,3,3.58,6.17,6.83,9.22,10,8.34,8.56,16.21,16.64,19.64,30.05a60.43,60.43,0,0,1,1.1,24.66A46.62,46.62,0,0,1,140.35,201.54Z"/><path class="cls-2" d="M156.27,191.53l-1.58-1.65c8-7.64,11.93-17.17,10.79-26.15-1-7.87-5.55-15.79-13.91-24.21-2.55-2.57-5.18-5.13-7.73-7.61-7.4-7.2-15.06-14.64-21.51-23.16C111.65,94.65,110,81.43,107.81,64.69l-.25-1.94,2.26-.29c2,15.49,16.57,35.82,30.57,42.66,4.21,2,8.41,3.73,12.48,5.35,11.1,4.43,21.58,8.62,30.17,19.47a60.5,60.5,0,0,1,11,22.09,46.66,46.66,0,0,1,.05,24.63l-2.19-.64a44.41,44.41,0,0,0-.07-23.42,58.11,58.11,0,0,0-10.62-21.24C173,121,162.83,116.91,152,112.6c-4.1-1.64-8.35-3.34-12.63-5.43-10.69-5.22-21.71-18-27.64-30.81,1.84,11.1,4.72,20.87,12.4,31,6.35,8.39,13.94,15.77,21.29,22.91,2.55,2.48,5.19,5,7.76,7.64,8.72,8.79,13.49,17.14,14.55,25.53C169,173.15,164.8,183.39,156.27,191.53Z"/><path class="cls-2" d="M121.28,199.45l-1.1-2c9.71-5.31,16-13.5,17.19-22.47,1.08-7.86-1.27-16.68-7.16-27-1.8-3.14-3.68-6.29-5.5-9.34-5.29-8.87-10.76-18-14.79-27.95-6.66-16.37-4.88-29.58-2.62-46.31l.26-1.94,2.26.31c-2.07,15.48,6.74,38.89,18.49,49.11,3.53,3.08,7.16,5.79,10.67,8.41,9.57,7.15,18.61,13.9,24.09,26.61a60.41,60.41,0,0,1,5,24.19,46.74,46.74,0,0,1-6.32,23.8l-2-1.18a44.49,44.49,0,0,0,6-22.64A57.93,57.93,0,0,0,161,147.8c-5.24-12.15-14-18.73-23.36-25.69-3.54-2.65-7.21-5.38-10.8-8.51-9-7.81-16.31-23-18.72-36.92-1.1,11.21-.84,21.39,4,33.16,4,9.74,9.39,18.84,14.63,27.64,1.83,3.05,3.71,6.22,5.52,9.38,6.16,10.75,8.59,20,7.45,28.43C138.32,185,131.63,193.79,121.28,199.45Z"/><path class="cls-2" d="M57.24,195.5l-.62-2.2a44.44,44.44,0,0,0,19.82-12.47,58.25,58.25,0,0,0,12.39-20.26c4.45-12.46,2.5-23.27.43-34.72-.79-4.35-1.6-8.85-2.1-13.59-1.23-11.84,3.77-27.95,11.49-39.77-8.44,7.45-15.2,15.07-19.73,26.94-3.74,9.83-6,20.19-8.14,30.2-.75,3.48-1.53,7.08-2.36,10.62-2.84,12.07-7.4,20.53-14,25.88-7.57,6.19-18.47,8.06-29.9,5.14l.56-2.21c10.72,2.74,20.89,1,27.9-4.7,6.14-5,10.45-13.08,13.16-24.63.83-3.53,1.61-7.11,2.36-10.59,2.18-10.09,4.43-20.53,8.24-30.52C83.08,82.1,93.4,73.65,106.45,63L108,61.72l1.45,1.77h0c-12.07,9.91-21.59,33-20,48.53.49,4.65,1.29,9.11,2.07,13.42,2.12,11.76,4.13,22.86-.53,35.9A60.29,60.29,0,0,1,78.1,182.4,46.66,46.66,0,0,1,57.24,195.5Z"/><path class="cls-2" d="M44.19,184c-7.36-9.22-10.13-19.92-7.6-29.38,2.19-8.16,8-15.8,17.86-23.34,2.89-2.22,5.85-4.41,8.72-6.52,8.24-6.09,16.75-12.38,24.18-19.83,9-9,13.14-18.3,16.45-29.06-7.6,11.9-20.23,23.08-31.53,26.81-4.52,1.5-9,2.61-13.25,3.68-11.29,2.82-22,5.48-31.48,14.66a58.22,58.22,0,0,0-13.38,19.62,44.45,44.45,0,0,0-3.22,23.19l-2.26.34a46.72,46.72,0,0,1,3.37-24.4A60.33,60.33,0,0,1,26,119.32c10-9.6,20.91-12.33,32.51-15.23,4.25-1.06,8.64-2.16,13.09-3.63,14.78-4.88,32-23.07,36-38.15l2.2.59-.5,1.89C104.9,81.09,101.44,94,89,106.49c-7.55,7.58-16.14,13.92-24.44,20.06-2.86,2.11-5.81,4.29-8.69,6.49-9.41,7.23-15,14.46-17,22.12-2.34,8.75.28,18.72,7.18,27.37Z"/><path class="cls-2" d="M146.6,200a46.64,46.64,0,0,1-19.45-15.11,60.47,60.47,0,0,1-10.71-22.25c-3.33-13.43-.22-24.28,3.06-35.77,1.21-4.21,2.46-8.56,3.41-13.15,3.16-15.25-4-39.21-15-50.28l1.62-1.61,1.38,1.38c11.92,11.95,21.34,21.38,26,38.45,2.79,10.32,4,20.93,5.15,31.2.4,3.52.81,7.17,1.29,10.76,1.54,11.77,5,20.21,10.63,25.82,6.41,6.4,16.35,9.12,27.29,7.47l.34,2.26c-11.66,1.76-22.32-1.2-29.24-8.11-6-6-9.68-14.85-11.29-27.14-.47-3.61-.89-7.27-1.29-10.81-1.15-10.18-2.34-20.7-5.09-30.85C131.31,90,125.35,81.7,117.69,73.45c6.5,12.53,9.87,29.06,7.46,40.71-1,4.66-2.23,9.06-3.45,13.31-3.2,11.19-6.22,21.75-3,34.59a58.16,58.16,0,0,0,10.3,21.4,44.48,44.48,0,0,0,18.48,14.39Z"/><path class="cls-9" d="M150,71.74c0-18.59-19.66-33.66-43.91-33.66S62.2,53.15,62.2,71.74c0,7,2.79,10.09,7.57,11.22q-.67.75-1.29,1.53a3.12,3.12,0,0,0,3,5,219.27,219.27,0,0,1,34.69-2.66,219.23,219.23,0,0,1,34.68,2.66,3.12,3.12,0,0,0,2.95-5c-.41-.52-.84-1-1.28-1.53C147.24,81.83,150,78.74,150,71.74Z"/><path class="cls-2" d="M70.91,90a3.61,3.61,0,0,1-2.81-5.83c.25-.32.5-.63.78-1-4.88-1.45-7.17-5.12-7.17-11.49,0-18.83,19.92-34.15,44.41-34.15s44.4,15.32,44.4,34.15c0,6.37-2.28,10-7.17,11.49.28.33.54.64.79,1A3.61,3.61,0,0,1,140.72,90a219.09,219.09,0,0,0-34.6-2.65A219.22,219.22,0,0,0,71.51,90,4,4,0,0,1,70.91,90Zm35.21-51.45c-24,0-43.43,14.88-43.43,33.17,0,6.25,2.22,9.56,7.19,10.74l.8.19-.54.61c-.48.53-.89,1-1.27,1.51A2.63,2.63,0,0,0,71.36,89a219.84,219.84,0,0,1,34.76-2.66A219.93,219.93,0,0,1,140.88,89a2.63,2.63,0,0,0,2.49-4.21c-.38-.48-.8-1-1.27-1.51l-.54-.61.79-.19c5-1.18,7.19-4.49,7.19-10.74C149.54,53.45,130.06,38.57,106.12,38.57Z"/><path class="cls-9" d="M143.79,71.74c0-18.59-16.87-33.66-37.67-33.66S68.44,53.15,68.44,71.74c0,7,2.4,10.09,6.49,11.22-.38.5-.75,1-1.1,1.53-1.49,2.22.14,5.44,2.53,5a167.75,167.75,0,0,1,59.51,0c2.4.44,4-2.78,2.53-5-.35-.52-.72-1-1.1-1.53C141.4,81.83,143.79,78.74,143.79,71.74Z"/><path class="cls-2" d="M136.32,90a3.29,3.29,0,0,1-.54,0,167.37,167.37,0,0,0-59.33,0,2.93,2.93,0,0,1-3-1.39,4,4,0,0,1,0-4.37c.22-.32.45-.65.7-1C69.92,81.77,68,78.1,68,71.74c0-18.83,17.11-34.15,38.16-34.15s38.16,15.32,38.16,34.15c0,6.36-2,10-6.17,11.48.25.34.48.67.7,1a4,4,0,0,1,0,4.37A3,3,0,0,1,136.32,90Zm-30.2-3.68A162.7,162.7,0,0,1,136,89a2,2,0,0,0,2-1,3,3,0,0,0,0-3.28c-.32-.48-.68-1-1.08-1.51l-.44-.57.7-.2c4.24-1.16,6.13-4.48,6.13-10.74,0-18.29-16.68-33.17-37.18-33.17S68.93,53.45,68.93,71.74c0,6.26,1.9,9.58,6.13,10.74l.7.2-.44.57c-.4.53-.75,1-1.08,1.51a3,3,0,0,0,0,3.28,2,2,0,0,0,2,1A162.81,162.81,0,0,1,106.12,86.34Z"/><path class="cls-9" d="M136.21,71.74c0-18.59-13.47-33.66-30.09-33.66S76,53.15,76,71.74c0,7,1.92,10.09,5.19,11.22-.31.5-.6,1-.88,1.53-1.2,2.22.11,5.44,2,5a107.54,107.54,0,0,1,47.54,0c1.91.44,3.21-2.78,2-5-.28-.52-.58-1-.88-1.53C134.3,81.83,136.21,78.74,136.21,71.74Z"/><path class="cls-2" d="M82,90a2.26,2.26,0,0,1-1.78-1,4.69,4.69,0,0,1-.31-4.79c.18-.35.38-.69.59-1.06-3.38-1.46-5-5.13-5-11.46,0-18.83,13.72-34.15,30.59-34.15S136.7,52.91,136.7,71.74c0,6.33-1.58,10-5,11.46.22.36.41.71.6,1.06a4.66,4.66,0,0,1-.32,4.79,2.16,2.16,0,0,1-2.25.91,107.3,107.3,0,0,0-47.31,0A1.89,1.89,0,0,1,82,90Zm24.13-3.68A105,105,0,0,1,130,89a1.24,1.24,0,0,0,1.25-.56,3.73,3.73,0,0,0,.23-3.73c-.27-.48-.55-1-.87-1.51l-.32-.52.58-.2c3.35-1.15,4.85-4.47,4.85-10.75,0-18.29-13.28-33.17-29.6-33.17S76.51,53.45,76.51,71.74c0,6.28,1.5,9.6,4.86,10.75l.57.2-.31.52c-.33.54-.61,1-.87,1.51A3.68,3.68,0,0,0,81,88.45a1.23,1.23,0,0,0,1.25.56A105,105,0,0,1,106.12,86.34Z"/><path class="cls-9" d="M128.19,71.74c0-18.59-9.88-33.66-22.07-33.66S84.05,53.15,84.05,71.74c0,7,1.4,10.09,3.8,11.22-.22.5-.44,1-.64,1.53-.88,2.22.07,5.44,1.48,5a58.44,58.44,0,0,1,34.86,0c1.4.44,2.36-2.78,1.48-5-.21-.52-.42-1-.65-1.53C126.78,81.83,128.19,78.74,128.19,71.74Z"/><path class="cls-2" d="M123.81,90a1.22,1.22,0,0,1-.41-.07,58.08,58.08,0,0,0-34.56,0,1.39,1.39,0,0,1-1.49-.45c-1-1.06-1.27-3.48-.6-5.19.15-.37.3-.74.47-1.13-2.53-1.49-3.66-5.05-3.66-11.44,0-18.83,10.12-34.15,22.56-34.15s22.56,15.32,22.56,34.15c0,6.39-1.14,10-3.66,11.44.17.39.32.76.47,1.13.67,1.71.39,4.13-.6,5.19A1.48,1.48,0,0,1,123.81,90Zm-17.69-3.68A57.69,57.69,0,0,1,123.7,89c.07,0,.23.07.47-.19a4.58,4.58,0,0,0,.4-4.16c-.19-.48-.39-1-.63-1.51l-.2-.44.44-.21c1.51-.71,3.52-2.6,3.52-10.77,0-18.29-9.68-33.17-21.58-33.17S84.54,53.45,84.54,71.74c0,8.17,2,10.06,3.52,10.77l.43.21-.19.44c-.24.53-.45,1-.64,1.51a4.64,4.64,0,0,0,.4,4.16c.24.26.41.21.48.19A57.64,57.64,0,0,1,106.12,86.34Z"/><path class="cls-9" d="M120.16,71.74c0-18.59-6.29-33.66-14-33.66S92.07,53.15,92.07,71.74c0,7,.9,10.09,2.42,11.22-.14.5-.28,1-.41,1.53-.56,2.22,0,5.44,1,5a24.45,24.45,0,0,1,22.18,0c.89.44,1.5-2.78.94-5-.13-.52-.27-1-.41-1.53C119.27,81.83,120.16,78.74,120.16,71.74Z"/><path class="cls-2" d="M117.38,90a.81.81,0,0,1-.39-.1,24,24,0,0,0-21.74,0,.84.84,0,0,1-.94-.11c-.93-.74-1.16-3.61-.7-5.44.1-.4.21-.81.33-1.24-1.63-1.49-2.36-5-2.36-11.39,0-9,1.48-17.57,4.16-24a23.3,23.3,0,0,1,4.55-7.36c-1,1.35-2,3.68-3.65,7.74-2.63,6.3-4.08,14.68-4.08,23.61,0,6.26.71,9.7,2.22,10.82l.28.2-.1.33c-.15.54-.28,1-.4,1.52a6.71,6.71,0,0,0,.32,4.4,25,25,0,0,1,22.48,0,6.85,6.85,0,0,0,.32-4.4c-.13-.5-.26-1-.41-1.52l-.09-.33.27-.2c1.52-1.12,2.22-4.56,2.22-10.82,0-8.93-1.45-17.31-4.07-23.61-1.7-4.06-2.67-6.4-3.65-7.74a23.19,23.19,0,0,1,4.55,7.36c2.68,6.42,4.15,14.94,4.15,24,0,6.35-.73,9.9-2.35,11.39.12.43.23.83.33,1.24.46,1.83.22,4.7-.7,5.44A.86.86,0,0,1,117.38,90ZM110.3,39a11.25,11.25,0,0,0-4.18-.42,11.33,11.33,0,0,0-4.19.42,7,7,0,0,1,8.37,0Z"/><path class="cls-9" d="M112.58,71.74c0-18.59-2.89-33.66-6.46-33.66s-6.47,15.07-6.47,33.66c0,7,.41,10.09,1.12,11.22-.07.5-.13,1-.19,1.53-.26,2.22,0,5.44.43,5a6.23,6.23,0,0,1,10.21,0c.41.44.69-2.78.44-5-.06-.52-.13-1-.19-1.53C112.17,81.83,112.58,78.74,112.58,71.74Z"/><path class="cls-2" d="M100.93,90a.64.64,0,0,1-.23,0c-1-.47-.61-5.49-.61-5.54,0-.46.11-.92.17-1.37-.77-1.44-1.1-4.86-1.1-11.32,0-16.56,2.44-34.15,7-34.15s6.95,17.59,6.95,34.15c0,6.46-.33,9.88-1.09,11.32,0,.45.11.91.16,1.37,0,0,.42,5.07-.61,5.54a.59.59,0,0,1-.67-.15,5.75,5.75,0,0,0-9.49,0A.6.6,0,0,1,100.93,90Zm5.19-3.68a7.13,7.13,0,0,1,5,2.33,17.75,17.75,0,0,0,0-4.13c-.06-.51-.12-1-.19-1.52l0-.17.09-.15c.7-1.13,1-4.71,1-11,0-19.55-3.15-33.17-6-33.17s-6,13.62-6,33.17c0,6.25.34,9.83,1,11l.09.15,0,.17c-.06.5-.13,1-.19,1.52a17.67,17.67,0,0,0,.06,4.13A7.13,7.13,0,0,1,106.12,86.34Z"/><path class="cls-9" d="M108.12,71.74c0-18.59-.89-33.66-2-33.66s-2,15.07-2,33.66c0,7,.13,10.09.35,11.22q0,.75-.06,1.53c-.08,2.22,0,5.44.13,5,.49-1.72,1-2.66,1.59-2.66s1.1.94,1.58,2.66c.13.44.22-2.78.14-5L107.78,83C108,81.83,108.12,78.74,108.12,71.74Z"/><path class="cls-2" d="M107.73,90a.52.52,0,0,1-.5-.4c-.63-2.2-1.11-2.3-1.11-2.3s-.49.1-1.12,2.3a.51.51,0,0,1-.57.39c-.48-.07-.5-.38-.54-2.22,0-1.11,0-2.35,0-3.32,0-.5,0-1,0-1.48a96.78,96.78,0,0,1-.34-11.25c0-9,.21-17.46.59-23.83.61-10.32,1.33-10.32,1.91-10.32s1.29,0,1.91,10.32c.37,6.37.58,14.83.58,23.83,0,6.46-.1,9.94-.34,11.25l.06,1.48c0,1,0,2.21,0,3.32,0,1.84-.06,2.15-.54,2.22Zm-1.61-3.68c.47,0,.88.3,1.25.94,0-.87,0-1.89,0-2.77q0-.78-.06-1.53v-.12c.23-1.18.33-4.72.33-11.12,0-16.9-.74-29.68-1.51-32.67-.77,3-1.52,15.77-1.52,32.67a93,93,0,0,0,.34,11.12V83q0,.75-.06,1.53c0,.88,0,1.9,0,2.77C105.24,86.64,105.65,86.34,106.12,86.34Z"/><rect class="cls-1" x="467" width="240" height="240"/><path class="cls-8" d="M616.43,198.13a113,113,0,0,1-58.87,0l16.35-83.5h26.17Z"/><path class="cls-3" d="M587,202.5a115,115,0,0,1-29.56-3.9l.25-.95a113.1,113.1,0,0,0,58.61,0l.26.95A115.09,115.09,0,0,1,587,202.5Z"/><path class="cls-3" d="M587,188a106.57,106.57,0,0,1-26.84-3.29l.25-1c16.15,4.28,37,4.28,53.17,0l.25,1A106.44,106.44,0,0,1,587,188Z"/><path class="cls-3" d="M587,173.37c-8.79,0-17.58-.87-24.11-2.6l.25-1c12.93,3.42,34.78,3.42,47.71,0l.26,1C604.57,172.5,595.78,173.37,587,173.37Z"/><path class="cls-3" d="M587,158.84c-8.2,0-16.39-.66-21.39-2l.25-.95c9.68,2.57,32.59,2.57,42.27,0l.25.95C603.38,158.18,595.19,158.84,587,158.84Z"/><path class="cls-3" d="M587,144.25c-7.68,0-15.35-.44-18.66-1.31l.25-.95c6.54,1.73,30.28,1.73,36.81,0l.26.95C602.34,143.81,594.67,144.25,587,144.25Z"/><path class="cls-3" d="M587,129.7c-7.11,0-14.23-.23-15.94-.68l.25-1c3.23.85,28.14.85,31.37,0l.25,1C601.22,129.47,594.11,129.7,587,129.7Z"/><rect class="cls-3" x="573.91" y="114.14" width="26.16" height="0.98"/><path class="cls-7" d="M587,202.5a115,115,0,0,1-29.56-3.9l-.45-.12.09-.45,16.43-83.89h27L617,198.48l-.44.12A115.09,115.09,0,0,1,587,202.5Zm-28.87-4.73a113.19,113.19,0,0,0,57.73,0l-16.19-82.65H574.32Z"/><path class="cls-9" d="M600,114.63H574c0-9.14,8.8-16.55,13-16.55S600,105.49,600,114.63Z"/><path class="cls-7" d="M600.49,115.12h-27v-.49c0-9.33,8.93-17,13.49-17s13.49,7.71,13.49,17Zm-26-1h25a17.66,17.66,0,0,0-4.76-10.88c-2.5-2.76-5.68-4.69-7.74-4.69C583,98.57,574.81,105.72,574.5,114.14Z"/><polygon class="cls-8" points="524.76 47.18 523.48 48.46 585.77 110.75 523.48 173.04 524.76 174.32 587.05 112.03 649.34 174.32 650.62 173.04 588.32 110.75 650.62 48.46 649.34 47.18 587.05 109.47 524.76 47.18"/><path class="cls-3" d="M524.76,174.78,523,173l62.29-62.29L523,48.46l1.74-1.74L587.05,109l62.29-62.29,1.74,1.74-62.29,62.29L651.08,173l-1.74,1.74-62.29-62.29Zm62.29-63.22,62.29,62.29.81-.81-62.29-62.29,62.29-62.29-.81-.81-62.29,62.29L524.76,47.65l-.82.81,62.3,62.29L523.94,173l.82.81Z"/><rect class="cls-2" x="550.21" y="31.24" width="13.04" height="77.4" transform="translate(113.61 414.15) rotate(-45)"/><path class="cls-3" d="M579.49,102.38l-55.2-55.2L534,37.5l55.2,55.19Zm-54.27-55.2,54.27,54.27,8.75-8.76L534,38.43Z"/><rect class="cls-9" x="529.69" y="48.92" width="13.04" height="0.98" transform="translate(122.11 393.63) rotate(-45)"/><rect class="cls-9" x="536.53" y="55.76" width="13.04" height="0.98" transform="translate(119.28 400.47) rotate(-45)"/><rect class="cls-9" x="543.37" y="62.6" width="13.04" height="0.98" transform="translate(116.44 407.31) rotate(-45)"/><rect class="cls-9" x="550.21" y="69.45" width="13.04" height="0.98" transform="translate(113.61 414.15) rotate(-45)"/><rect class="cls-9" x="557.05" y="76.29" width="13.04" height="0.98" transform="translate(110.78 420.99) rotate(-45)"/><rect class="cls-9" x="563.89" y="83.13" width="13.04" height="0.98" transform="translate(107.94 427.83) rotate(-45)"/><rect class="cls-9" x="570.74" y="89.97" width="13.04" height="0.98" transform="translate(105.11 434.68) rotate(-45)"/><rect class="cls-2" x="610.9" y="112.81" width="13.04" height="77.4" transform="translate(73.7 480.96) rotate(-45)"/><path class="cls-3" d="M640.17,184,585,128.75l9.68-9.68,55.2,55.2Zm-54.26-55.2L640.17,183l8.76-8.75L594.66,120Z"/><rect class="cls-2" x="621.32" y="41.71" width="13.04" height="77.4" transform="translate(1014.93 581.21) rotate(-135)"/><path class="cls-3" d="M605.08,112.84l-9.68-9.68L650.59,48l9.68,9.68Zm-8.75-9.68,8.75,8.76,54.27-54.27-8.76-8.75Z"/><rect class="cls-2" x="539.65" y="102.29" width="13.04" height="77.4" transform="translate(832.66 626.89) rotate(-135)"/><path class="cls-3" d="M523.41,173.43l-9.68-9.68,55.19-55.19,9.68,9.68Zm-8.76-9.68,8.76,8.76,54.26-54.27-8.75-8.75Z"/><rect class="cls-9" x="590.38" y="130.49" width="13.04" height="0.98" transform="translate(82.21 460.43) rotate(-45)"/><rect class="cls-9" x="597.22" y="137.33" width="13.04" height="0.98" transform="translate(79.37 467.27) rotate(-45)"/><rect class="cls-9" x="604.06" y="144.18" width="13.04" height="0.98" transform="translate(76.54 474.12) rotate(-45)"/><rect class="cls-9" x="610.9" y="151.02" width="13.04" height="0.98" transform="translate(73.7 480.96) rotate(-45)"/><rect class="cls-9" x="617.74" y="157.86" width="13.04" height="0.98" transform="translate(70.87 487.8) rotate(-45)"/><rect class="cls-9" x="624.58" y="164.7" width="13.04" height="0.98" transform="translate(68.04 494.64) rotate(-45)"/><rect class="cls-9" x="631.42" y="171.54" width="13.04" height="0.98" transform="translate(65.2 501.48) rotate(-45)"/><rect class="cls-8" x="606.82" y="94.41" width="0.98" height="13.04" transform="translate(106.51 459) rotate(-45)"/><rect class="cls-8" x="613.66" y="87.57" width="0.98" height="13.04" transform="translate(113.35 461.83) rotate(-45)"/><rect class="cls-8" x="620.5" y="80.73" width="0.98" height="13.04" transform="translate(120.19 464.66) rotate(-45)"/><rect class="cls-8" x="627.34" y="73.89" width="0.98" height="13.04" transform="translate(127.03 467.5) rotate(-45)"/><rect class="cls-8" x="634.18" y="67.05" width="0.98" height="13.04" transform="translate(133.87 470.33) rotate(-45)"/><rect class="cls-8" x="641.03" y="60.21" width="0.98" height="13.04" transform="translate(140.72 473.16) rotate(-45)"/><rect class="cls-8" x="647.87" y="53.36" width="0.98" height="13.04" transform="translate(147.56 476) rotate(-45)"/><rect class="cls-8" x="525.15" y="155" width="0.98" height="13.04" transform="translate(39.75 418.99) rotate(-45)"/><rect class="cls-8" x="531.99" y="148.16" width="0.98" height="13.04" transform="translate(46.59 421.83) rotate(-45)"/><rect class="cls-8" x="538.83" y="141.32" width="0.98" height="13.04" transform="translate(53.43 424.66) rotate(-45)"/><rect class="cls-8" x="545.67" y="134.48" width="0.98" height="13.04" transform="translate(60.27 427.49) rotate(-45)"/><rect class="cls-8" x="552.51" y="127.64" width="0.98" height="13.04" transform="translate(67.11 430.33) rotate(-45)"/><rect class="cls-8" x="559.36" y="120.79" width="0.98" height="13.04" transform="translate(73.95 433.16) rotate(-45)"/><rect class="cls-8" x="566.2" y="113.95" width="0.98" height="13.04" transform="translate(80.79 435.99) rotate(-45)"/><rect class="cls-1" x="202" y="440" width="240" height="240"/><path class="cls-2" d="M292,538.37a17.68,17.68,0,0,0-.27,2.59c-3.49-2-7.81-4-12-3.53a9.38,9.38,0,0,0-5.72,3,3.92,3.92,0,0,0-.93,3.37,45.14,45.14,0,0,0-1.92-5.9c-.68-1.9-1.05-3.87-1.78-5.75a2.21,2.21,0,0,0-.6-1,1.75,1.75,0,0,0-1.21-.3c-4,.25-7.85,5.74-10.72,8.13-2.31,1.92-9.63,12.32-9.63,12.32s0-5.78-6.73-3.86c0-.88,1.17-2.18,1.62-2.87,1.08-1.68,2.21-3.33,3.33-5,2.26-3.31,4.09-6.35,7.25-9,3.77-3.12,7.79-5.94,11.84-8.67,3.44-2.32,7.18-5.82,11.36-6.57a14.48,14.48,0,0,1,8.72,1.77,14.21,14.21,0,0,1,1.89,1.21h0l.1.07a11.93,11.93,0,0,1,3.42,4.54,26.37,26.37,0,0,1,2,9A46,46,0,0,1,292,538.37Z"/><path class="cls-7" d="M247.09,551.89v-.53a4.56,4.56,0,0,0-1.56-3.33c-1.13-.86-2.8-1-5-.36l-.22.06v-.23a5.05,5.05,0,0,1,1.23-2.38c.16-.22.31-.42.42-.59,1.07-1.66,2.2-3.31,3.29-4.92l0-.05.88-1.3a33.46,33.46,0,0,1,6.4-7.7c3.91-3.23,8-6.08,11.86-8.68.81-.55,1.62-1.16,2.49-1.8,2.8-2.07,5.7-4.22,8.93-4.8a15.49,15.49,0,0,1,10.74,3l.07.05,0,0a12.07,12.07,0,0,1,3.48,4.6,26.14,26.14,0,0,1,2,9.06,48,48,0,0,1,0,6.34h0s0,.22-.07.46a18.83,18.83,0,0,0-.22,2,.16.16,0,0,0-.06-.08l-.17.3h0c-3.31-1.9-7.65-4-11.85-3.5a7.32,7.32,0,0,0-1.23.26,9.08,9.08,0,0,0-4.38,2.7,3.74,3.74,0,0,0-.9,3.23h0l-.33.07h0a36.21,36.21,0,0,0-1.55-4.9l-.36-1c-.32-.9-.58-1.82-.82-2.71a31.41,31.41,0,0,0-1-3,2.22,2.22,0,0,0-.54-.9,1.66,1.66,0,0,0-1.1-.27c-2.83.18-5.58,3-8,5.55-.93,1-1.81,1.87-2.62,2.55-2.27,1.88-9.52,12.18-9.6,12.28ZM243,546.94a4.35,4.35,0,0,1,2.71.82,4.66,4.66,0,0,1,1.66,3.11c1.36-1.92,7.31-10.24,9.38-12a35.19,35.19,0,0,0,2.59-2.53c2.47-2.56,5.26-5.46,8.23-5.64a1.91,1.91,0,0,1,1.33.34,2.42,2.42,0,0,1,.65,1,32,32,0,0,1,1,3.07c.25.88.5,1.8.82,2.68l.36,1c.43,1.15.86,2.33,1.21,3.54a4.46,4.46,0,0,1,1-2,9.35,9.35,0,0,1,4.55-2.82,7.7,7.7,0,0,1,1.28-.27c4.19-.51,8.47,1.51,11.79,3.4,0-.32.09-.87.23-1.87,0-.23.05-.39.06-.43h0a47.4,47.4,0,0,0,0-6.3,25.74,25.74,0,0,0-1.94-8.94,11.85,11.85,0,0,0-3.38-4.47l0,0h-.12v-.1A15.17,15.17,0,0,0,276,515.62c-3.15.56-6,2.68-8.79,4.74-.87.64-1.69,1.25-2.5,1.8-3.85,2.59-7.94,5.44-11.83,8.66a33.15,33.15,0,0,0-6.34,7.63l-.88,1.3,0,.06c-1.09,1.6-2.22,3.25-3.29,4.91-.11.17-.26.38-.43.61a6.32,6.32,0,0,0-1.13,1.95A8.66,8.66,0,0,1,243,546.94Z"/><polygon class="cls-10" points="286.53 518.61 286.36 518.61 286.36 518.03 286.81 518.48 286.57 518.61 286.53 518.61"/><path class="cls-11" d="M301.35,518.25v3.66h-1.93c.39,0-.13,2.93-.22,3.19a6.31,6.31,0,0,1-2.13,3h0a2.27,2.27,0,0,1-1.11.42,4.74,4.74,0,0,1-2.45-.78c-1.24-.73-2.4-1.87-2.56-3a5.62,5.62,0,0,0-.89-1.74,11.93,11.93,0,0,0-3.42-4.54l-.1-.07c.4-.13,12.37-3.85,16.54-3.47C303.63,515,301.35,518.31,301.35,518.25Z"/><path class="cls-11" d="M295.83,528.71a5.15,5.15,0,0,1-2.4-.82c-1.17-.68-2.47-1.85-2.64-3.07a5.09,5.09,0,0,0-.87-1.68,11.89,11.89,0,0,0-3.39-4.49l-.09-.07-.29-.2.34-.11c.12,0,12.35-3.85,16.61-3.46a.26.26,0,0,1,.23.32,13.82,13.82,0,0,1-1.81,3.17v3.77H299.7a12.2,12.2,0,0,1-.35,3.09,6.49,6.49,0,0,1-2.18,3.09l-.05,0a2.42,2.42,0,0,1-1.14.42Zm-8.94-10.21a12.21,12.21,0,0,1,3.33,4.48,5.31,5.31,0,0,1,.9,1.79,4.78,4.78,0,0,0,2.48,2.83,4.54,4.54,0,0,0,2.35.76,2.13,2.13,0,0,0,1-.39l0,0a6.25,6.25,0,0,0,2-2.9,10.83,10.83,0,0,0,.31-3,.09.09,0,0,0,.07,0v-.33h1.76v-3.49h.17l-.12-.13a14.66,14.66,0,0,0,1.77-3C299.13,514.83,288.81,517.92,286.89,518.5Z"/><path class="cls-2" d="M314.87,538.91c-5.4.68-15.87,1.73-18.14-.07,0,0-.39,8.86-1.93,10.59a7.74,7.74,0,0,0-.72-3,6.21,6.21,0,0,0-2-2.41s.28-1.13.64-2.82c.82-4,2-11,.76-13.47a4.74,4.74,0,0,0,2.45.78,2.27,2.27,0,0,0,1.11-.42h0c3.78.7,9.51,1.61,13.13,1.5h.34l.18.17A17.12,17.12,0,0,1,314.87,538.91Z"/><path class="cls-7" d="M294.63,549.88v-.45a7.76,7.76,0,0,0-.7-2.91,6,6,0,0,0-1.92-2.34l-.09-.07,0-.11s.29-1.15.64-2.81c.82-3.93,2-10.9.78-13.37l-.26-.51.5.29a4.54,4.54,0,0,0,2.35.76,2.13,2.13,0,0,0,1-.39l0,0h.09c4,.75,9.56,1.62,13.09,1.5a2,2,0,0,1,.35,0h.06l.05,0,.18.19a17.22,17.22,0,0,1,4.19,9.21l0,.17-.17,0c-5.64.71-15.3,1.64-18,.07-.08,1.59-.53,8.8-1.95,10.39ZM292.3,544a6.22,6.22,0,0,1,1.93,2.41,8.09,8.09,0,0,1,.71,2.55c1.27-2.33,1.61-10,1.62-10.09v-.34l.26.21c2.25,1.78,13.09.65,17.84,0a16.81,16.81,0,0,0-4.07-8.86l-.13-.13h-.26a73.54,73.54,0,0,1-13.1-1.48,2.47,2.47,0,0,1-1.13.41,4.36,4.36,0,0,1-2.13-.57c1,2.85-.15,9.37-.94,13.13C292.62,542.63,292.38,543.65,292.3,544Z"/><path class="cls-12" d="M289.21,637.46c-.49,2.32-3.75.81-5.13.55a32.07,32.07,0,0,0-9.78-.26c-1.87.19-5.19.57-6.33-1.39-.88-1.5-.1-3.49.65-6.56,2.94,2,8.57,5.34,12.57,5.87a4.14,4.14,0,0,0,4.22-1.54l1.14.31a4.48,4.48,0,0,1,1.94,1A2.28,2.28,0,0,1,289.21,637.46Z"/><path class="cls-11" d="M287.47,638.91a9.4,9.4,0,0,1-2.49-.49,7.57,7.57,0,0,0-.93-.24,31.63,31.63,0,0,0-9.74-.26h-.09c-2,.2-5.22.54-6.4-1.48-.76-1.31-.33-2.93.25-5.19.13-.47.26-1,.38-1.5l.06-.23.2.13c1.83,1.22,8.12,5.26,12.5,5.84a4,4,0,0,0,4.06-1.47l.07-.09.15,0,1.11.3a4.49,4.49,0,0,1,2,1.06,2.41,2.41,0,0,1,.76,2.16h0a1.65,1.65,0,0,1-.74,1.13A2.22,2.22,0,0,1,287.47,638.91Zm-8.8-1.58a28.29,28.29,0,0,1,5.44.51c.27,0,.59.15,1,.25,1.09.32,2.57.74,3.38.25a1.28,1.28,0,0,0,.59-.91h0a2.08,2.08,0,0,0-.66-1.85,4.33,4.33,0,0,0-1.87-1l-1-.29a4.33,4.33,0,0,1-4.3,1.52c-4.31-.57-10.38-4.39-12.44-5.76-.11.44-.22.87-.33,1.27-.57,2.17-1,3.74-.29,4.93,1.08,1.83,4.21,1.5,6.08,1.31h.09A41.39,41.39,0,0,1,278.67,637.33Z"/><path class="cls-13" d="M285.41,634.13a4.14,4.14,0,0,1-4.22,1.54c-4-.53-9.63-3.89-12.57-5.87a30.14,30.14,0,0,0,.67-11.57c-.56-4.1-1.4-8-1.21-12.06a25,25,0,0,1,10.09,2.23c-.1.44-.18.88-.27,1.32-1.12,5.81-2.84,12-1.46,17.92C277.53,632.34,281.46,633.1,285.41,634.13Z"/><path class="cls-7" d="M282.06,635.9a7,7,0,0,1-.89-.06c-4.46-.59-10.81-4.66-12.65-5.9l-.09-.06,0-.12a30.18,30.18,0,0,0,.68-11.51c-.13-.93-.28-1.87-.42-2.77a45.68,45.68,0,0,1-.8-9.32V606h.17a25,25,0,0,1,10.14,2.25l.13,0,0,.14c-.09.43-.18.87-.26,1.31-.17.85-.34,1.71-.52,2.57-1,5-2.11,10.26-.95,15.29,1,4.33,4.51,5.24,8.21,6.19l.88.23-.15.2A4.06,4.06,0,0,1,282.06,635.9Zm-13.25-6.17c1.94,1.29,8.09,5.2,12.4,5.77a4.06,4.06,0,0,0,3.91-1.27l-.39-.1c-3.81-1-7.4-1.91-8.46-6.45-1.18-5.1-.1-10.35,1-15.43.18-.86.35-1.72.51-2.56l.24-1.19a24.65,24.65,0,0,0-9.72-2.16,45.63,45.63,0,0,0,.8,9.08c.14.91.28,1.85.41,2.79A30.42,30.42,0,0,1,268.81,629.73Z"/><path class="cls-8" d="M294.08,546.45c-2.69,2.09-3.8,6.77-4.37,9.87-1.68,9.2-2.48,18.58-4.91,27.64-2.22,8.19-4.92,16.12-6.63,24.44a25,25,0,0,0-10.09-2.23c0-.41.05-.83.1-1.25.46-4.58,1.32-9.11,2.11-13.64a35.9,35.9,0,0,0,.5-4.86h0a59.51,59.51,0,0,0-1.25-13.59c-.75-3.94-2.11-8.3-1.3-12.29h0a10.22,10.22,0,0,1,1.24-3.21c1.77-3,5.07-4.88,5.88-8.42a8.33,8.33,0,0,0,0-3.55c-.29-1.5-.84-3-1.18-4.45,0-.15-.07-.3-.11-.44a9.38,9.38,0,0,1,5.72-3c4.15-.5,8.47,1.52,12,3.53a17.68,17.68,0,0,1,.27-2.59,46,46,0,0,0,0-6.32,26.37,26.37,0,0,0-2-9,5.62,5.62,0,0,1,.89,1.74c.16,1.09,1.32,2.23,2.56,3,1.26,2.51.06,9.51-.76,13.47-.36,1.69-.64,2.82-.64,2.82A6.21,6.21,0,0,1,294.08,546.45Z"/><path class="cls-7" d="M278.29,608.64l-.19-.08a24.7,24.7,0,0,0-10-2.22h-.17v-.18c0-.41.06-.83.1-1.25.39-3.88,1.08-7.79,1.74-11.56.13-.7.25-1.4.37-2.1a35.21,35.21,0,0,0,.5-4.84,59.28,59.28,0,0,0-1.24-13.55c-.15-.78-.32-1.55-.5-2.37-.72-3.32-1.46-6.74-.8-10a10.38,10.38,0,0,1,1.25-3.28,19.17,19.17,0,0,1,2.52-3.14c1.47-1.59,2.86-3.1,3.35-5.22a8.35,8.35,0,0,0,0-3.48,25.12,25.12,0,0,0-.66-2.55c-.18-.62-.37-1.27-.52-1.9l-.12-.53.05-.06a9.35,9.35,0,0,1,4.55-2.82,7.7,7.7,0,0,1,1.28-.27c4.19-.51,8.47,1.51,11.79,3.4,0-.32.09-.87.23-1.87,0-.23.05-.39.06-.43a47.4,47.4,0,0,0,0-6.3,25.74,25.74,0,0,0-1.94-8.94l.29-.16a5.3,5.3,0,0,1,.92,1.81,4.78,4.78,0,0,0,2.48,2.83l0,0,0,0c1.28,2.56.08,9.61-.75,13.59-.29,1.37-.53,2.39-.61,2.71a6.22,6.22,0,0,1,1.93,2.41l.06.12-.11.08c-2.94,2.29-4,7.92-4.3,9.77-.59,3.22-1.08,6.52-1.55,9.7A160,160,0,0,1,285,584c-.75,2.77-1.56,5.55-2.35,8.24-1.55,5.25-3.14,10.69-4.28,16.2Zm-10-2.64a25.11,25.11,0,0,1,9.78,2.16c1.14-5.45,2.71-10.82,4.24-16,.79-2.69,1.61-5.46,2.35-8.23A158.92,158.92,0,0,0,288,566c.47-3.19,1-6.49,1.55-9.71.33-1.86,1.35-7.48,4.32-9.89a5.94,5.94,0,0,0-1.86-2.22l-.09-.07,0-.11s.29-1.15.64-2.81c.82-3.91,2-10.82.8-13.32a6.84,6.84,0,0,1-2.11-1.9,33.23,33.23,0,0,1,.92,6.07,48,48,0,0,1,0,6.34s0,.22-.07.46a18.83,18.83,0,0,0-.22,2,.16.16,0,0,0-.06-.08h0l-.17.3h0c-3.31-1.9-7.65-4-11.85-3.5a7.32,7.32,0,0,0-1.23.26,9,9,0,0,0-4.32,2.64l.08.36c.15.62.34,1.27.52,1.89.24.84.5,1.7.67,2.57a8.5,8.5,0,0,1,0,3.62c-.51,2.22-2,3.82-3.43,5.38a19.42,19.42,0,0,0-2.48,3.09,10,10,0,0,0-1.21,3.16c-.64,3.17.09,6.57.8,9.85.18.82.35,1.6.5,2.37A60,60,0,0,1,271,586.42a39.45,39.45,0,0,1-.5,4.89c-.13.7-.25,1.4-.37,2.1-.67,3.77-1.36,7.66-1.75,11.53C268.31,605.29,268.28,605.65,268.26,606Z"/><path class="cls-12" d="M238.23,631.08h0a12.51,12.51,0,0,1-2.32,3.81c-1,1-5.2,3.5-6.93,1.54s1.15-5.58,1.92-9.24.77-6.93,1.35-8.28,4.16-1,5.22-1.77a21.14,21.14,0,0,1,.93,6.27A66.94,66.94,0,0,1,238.23,631.08Z"/><path class="cls-7" d="M230.77,637.33h-.11a2.43,2.43,0,0,1-1.82-.78c-1.19-1.35-.37-3.34.59-5.64a21.54,21.54,0,0,0,1.3-3.74c.36-1.74.55-3.36.72-4.79a15.28,15.28,0,0,1,.63-3.53c.36-.82,1.76-1,3.11-1.26a6,6,0,0,0,2.17-.58l.19-.13.07.21a21.69,21.69,0,0,1,.94,6.32,65.85,65.85,0,0,1-.17,7.68l0,.08A12.33,12.33,0,0,1,236,635,9.42,9.42,0,0,1,230.77,637.33Zm6.6-19.93a7.77,7.77,0,0,1-2.13.53c-1.2.19-2.56.41-2.84,1.06a14.52,14.52,0,0,0-.62,3.43c-.16,1.44-.35,3.07-.72,4.82a21.65,21.65,0,0,1-1.32,3.8c-.91,2.2-1.7,4.1-.65,5.29a2.12,2.12,0,0,0,1.58.66c2,0,4.48-1.58,5.11-2.21a11.91,11.91,0,0,0,2.27-3.72v0a64.45,64.45,0,0,0,.16-7.59A21.9,21.9,0,0,0,237.37,617.4Zm.86,13.68Z"/><path class="cls-6" d="M252.27,605.14c-3.75,3.49-7.29,7.38-9.26,12.15-1.4,3.36-2,7-3.38,10.34-.43,1-.88,2.24-1.4,3.45a66.94,66.94,0,0,0,.16-7.66,21.14,21.14,0,0,0-.93-6.27.63.63,0,0,0,.17-.15,9.7,9.7,0,0,0,1.13-3c.7-2.06,1.35-4.13,2-6.19,1.13-3.47,2.06-7.21,3.67-10.54A14.33,14.33,0,0,1,252.27,605.14Z"/><path class="cls-7" d="M238,632.09l.09-1a65.26,65.26,0,0,0,.16-7.64,21.22,21.22,0,0,0-.92-6.21l0-.13.11-.07.13-.12a6.26,6.26,0,0,0,.88-2.14c.07-.27.15-.53.22-.76.46-1.37.91-2.77,1.35-4.12.22-.69.44-1.38.67-2.06l.84-2.7a54.28,54.28,0,0,1,2.84-7.87l.07-.14.15.06a14.44,14.44,0,0,1,7.91,7.91l0,.11-.09.08c-3.19,3-7.13,7-9.23,12.1a46.28,46.28,0,0,0-1.65,5.08,43.1,43.1,0,0,1-1.73,5.26l-.54,1.35c-.27.68-.55,1.39-.86,2.1Zm-.31-14.88a22,22,0,0,1,.9,6.2,65.62,65.62,0,0,1-.09,6.64c.16-.38.31-.75.45-1.12s.37-.94.55-1.36a45,45,0,0,0,1.71-5.23,46.15,46.15,0,0,1,1.67-5.11c2.11-5.08,6-9.15,9.22-12.14a14,14,0,0,0-7.54-7.55,56.4,56.4,0,0,0-2.75,7.67c-.27.89-.55,1.81-.84,2.7-.23.69-.45,1.38-.67,2.06-.43,1.36-.88,2.76-1.34,4.13-.08.23-.15.48-.22.74a6.76,6.76,0,0,1-1,2.26Z"/><path class="cls-8" d="M270.79,586.42h0c-.69.75-1.38,1.5-2.08,2.24-1.66,1.76-3.35,3.51-5,5.24-3,3.11-6,6.39-9.2,9.25-.74.65-1.47,1.31-2.2,2a14.33,14.33,0,0,0-7.82-7.82c.33-.68.68-1.34,1.07-2,1.71-2.79,4.41-4.47,7-6.31a21.31,21.31,0,0,0,6.1-7.07c2.33-4.05,5.61-8,7-12.5a30.19,30.19,0,0,0,.8-4.22,12.16,12.16,0,0,1,1.77-4.7c-.81,4,.55,8.35,1.3,12.29A59.51,59.51,0,0,1,270.79,586.42Z"/><path class="cls-7" d="M252.21,605.43l-.09-.23a14.12,14.12,0,0,0-7.73-7.73l-.17-.07.08-.16a20.84,20.84,0,0,1,1.08-2c1.55-2.54,3.94-4.2,6.25-5.8l.82-.57a20.84,20.84,0,0,0,6.05-7c.73-1.28,1.57-2.56,2.38-3.81a36.41,36.41,0,0,0,4.63-8.66,19.22,19.22,0,0,0,.61-3l.18-1.2a12.29,12.29,0,0,1,1.8-4.76l.5-.81-.19.93c-.64,3.17.09,6.57.8,9.85.18.82.35,1.6.5,2.37A60,60,0,0,1,271,586.42v.07l0,0-2.09,2.23c-1.54,1.64-3.19,3.36-5,5.25l-2.49,2.59c-2.15,2.25-4.37,4.59-6.72,6.67-.7.62-1.45,1.29-2.19,2Zm-7.53-8.2a14.42,14.42,0,0,1,7.66,7.62c.68-.64,1.37-1.25,2-1.82,2.34-2.08,4.56-4.4,6.71-6.66.83-.86,1.65-1.73,2.49-2.58,1.84-1.89,3.49-3.61,5-5.25.68-.72,1.36-1.45,2-2.19a59.93,59.93,0,0,0-1.24-13.49c-.15-.78-.32-1.55-.5-2.37-.65-3-1.32-6.09-.95-9.06a11.32,11.32,0,0,0-1.29,3.84c-.07.4-.13.79-.19,1.19a19.18,19.18,0,0,1-.62,3,36.9,36.9,0,0,1-4.66,8.75c-.81,1.24-1.65,2.52-2.38,3.78a21.22,21.22,0,0,1-6.14,7.13l-.83.57c-2.38,1.65-4.64,3.22-6.15,5.69C245.32,596,245,596.61,244.68,597.23Z"/><path class="cls-8" d="M303.08,515c-4.17-.38-16.14,3.34-16.54,3.47h0c-.5-4.88-.26-10.33,4.61-12.92,5.24-2.79,11.62.4,13.79,5.59C305.73,513,304.85,514.19,303.08,515Z"/><path class="cls-11" d="M286.49,518.63l-.12-.12v-.07c-.48-4.67-.38-10.38,4.7-13.08a9.29,9.29,0,0,1,7.53-.47,11.29,11.29,0,0,1,6.5,6.14c.76,1.82.11,3.2-1.94,4.1l0,0h0c-4.19-.38-16.36,3.42-16.48,3.46Zm8.8-14a8.64,8.64,0,0,0-4.07,1c-4.83,2.57-5,8-4.54,12.56,1.56-.49,12.37-3.75,16.37-3.42,1.84-.82,2.41-2,1.73-3.64a10.91,10.91,0,0,0-6.31-6A9.56,9.56,0,0,0,295.29,504.65Z"/><path class="cls-9" d="M415.58,508.68a9.16,9.16,0,0,1-8.91,9.07c-5.91.1-9.9-5.93-15.48-6-2.18,0-3.93,1.38-5.73,2.42a22.66,22.66,0,0,1-5.69,2.28c-4.37,1.15-9.22.91-12.81-2.1s-4.75-7.57-6.62-11.69a3.76,3.76,0,0,0-1.55-2,2.55,2.55,0,0,0-2.66.42c-4.85,3.87,1.29,13.72,3.1,17.88s3.81,8.3,5.7,12.46c1.79,3.94,5.13,9.16,4.1,13.59a7.94,7.94,0,0,1-.83,2.08c-5.41,9.53-20.14,9.43-29.52,10.47A30,30,0,0,0,326.83,561a25,25,0,0,0-4.42,3.51c-.19.18-2.5,2.87-2.5,2.89l-11.16-2.68c.92.22,3.09-4.86,3.3-5.37a43.31,43.31,0,0,0,3.08-17.79,23.89,23.89,0,0,0-.26-2.67,17.12,17.12,0,0,0-4.15-9.13l-.18-.17c-2-1.84-8.55-4.63-7.71-7.67a4.84,4.84,0,0,1,.7-1.33c4.77-7.36,4.65-16.71,7.72-24.7-.27.64,10.16,3.6,10.85,3.73,5.27.95,10.67.48,15-2.95,4.09-3.24,6.42-8.32,10.58-11.47,6.8-5.15,16.78-5,24.11-1.1,7.63,4.08,11,12.95,16.54,19.19a25.7,25.7,0,0,0,12.7,8.23C406,512.78,411.62,511.94,415.58,508.68Z"/><path class="cls-7" d="M320.08,567.64l-.21-.06-11.16-2.67h0l.08-.33c.51.12,2-2.64,3.1-5.27A42.66,42.66,0,0,0,315,541.59a24.22,24.22,0,0,0-.26-2.66,16.92,16.92,0,0,0-4.1-9l-.18-.17a18.63,18.63,0,0,0-2.51-1.77c-2.62-1.68-5.88-3.77-5.25-6.07a4.79,4.79,0,0,1,.66-1.27l.07-.11c2.87-4.42,4-9.65,5.05-14.72a66.16,66.16,0,0,1,2.65-9.94h0l.31.13a.08.08,0,0,0,0-.07c.37.65,9.78,3.4,10.72,3.57,6,1.1,11,.11,14.87-2.91a32.26,32.26,0,0,0,5.14-5.62,31.21,31.21,0,0,1,5.45-5.86c6.43-4.87,16.42-5.33,24.29-1.11,5.06,2.7,8.31,7.55,11.45,12.23a65.57,65.57,0,0,0,5.13,7c2.59,2.93,6.88,6.73,12.62,8.17a16.6,16.6,0,0,0,14.39-2.82l.27-.22v.35a8.8,8.8,0,0,1-2.53,6.31,9.41,9.41,0,0,1-6.55,2.93c-3.08.06-5.66-1.54-8.14-3.08s-4.67-2.88-7.34-2.91a8.86,8.86,0,0,0-4.63,1.78l-1,.62a22.94,22.94,0,0,1-5.74,2.3c-3,.78-8.57,1.53-13-2.14-2.75-2.31-4.15-5.72-5.51-9-.37-.9-.75-1.83-1.15-2.72a3.65,3.65,0,0,0-1.47-1.9,2.41,2.41,0,0,0-2.48.4c-4,3.17-.37,10.47,2,15.3.46.92.85,1.71,1.14,2.38,1.15,2.64,2.39,5.31,3.59,7.88.7,1.53,1.41,3.05,2.1,4.58.34.73.72,1.5,1.13,2.32,1.8,3.62,3.84,7.71,3,11.38a8,8,0,0,1-.84,2.12c-4.74,8.34-16.33,9.36-25.65,10.18-1.41.13-2.75.24-4,.38-5,.55-8.75,1.64-11.78,3.4a24.55,24.55,0,0,0-4.39,3.5c-.17.15-2.17,2.48-2.45,2.82Zm-10.81-2.95,10.59,2.54c.51-.66,2.41-2.8,2.43-2.82a25.36,25.36,0,0,1,4.46-3.54c3.07-1.79,6.86-2.89,11.92-3.45,1.25-.13,2.59-.25,4-.38,9.24-.81,20.74-1.82,25.39-10a8,8,0,0,0,.8-2c.83-3.54-1.18-7.59-3-11.15-.4-.82-.79-1.59-1.12-2.33q-1-2.29-2.11-4.57c-1.2-2.58-2.44-5.25-3.59-7.9-.29-.66-.68-1.45-1.13-2.36-2.44-4.93-6.11-12.37-1.93-15.72a2.76,2.76,0,0,1,2.85-.44,4,4,0,0,1,1.63,2.07c.4.9.78,1.83,1.15,2.73,1.35,3.27,2.73,6.65,5.42,8.9,4.27,3.58,9.76,2.83,12.65,2.07a21.81,21.81,0,0,0,5.66-2.27l1-.6a9,9,0,0,1,4.82-1.84c2.76,0,5.17,1.52,7.5,3s5,3.1,8,3a9,9,0,0,0,6.31-2.83,8.47,8.47,0,0,0,2.44-5.72A17,17,0,0,1,401,511.7c-5.83-1.46-10.17-5.31-12.79-8.28a66.2,66.2,0,0,1-5.16-7c-3.12-4.65-6.34-9.46-11.33-12.12-7.76-4.16-17.59-3.71-23.93,1.08a30.86,30.86,0,0,0-5.38,5.8,32.49,32.49,0,0,1-5.2,5.67c-3.91,3.09-9,4.1-15.14,3-.09,0-9.25-2.51-10.76-3.56a66.93,66.93,0,0,0-2.54,9.61c-1.08,5.1-2.2,10.37-5.1,14.84l-.07.11A4.5,4.5,0,0,0,303,522c-.57,2.06,2.58,4.07,5.1,5.69a21.34,21.34,0,0,1,2.57,1.81l.18.19a17.22,17.22,0,0,1,4.19,9.21,22.68,22.68,0,0,1,.27,2.69,43.05,43.05,0,0,1-3.1,17.87C311.74,560.56,310.32,563.81,309.27,564.69Z"/><path class="cls-7" d="M280,600.63c-.24.9-.47,1.8-.7,2.7-2.05,1.87-3.93,3.3-3.95,3.31l-.65.5c-.67-.19-1.32-.35-1.94-.48h0a25.8,25.8,0,0,1-3.73-2.14c-.27-.19-.53-.39-.78-.58q.12-1.07.27-2.13a22.87,22.87,0,0,0,3.7,2.57,10.2,10.2,0,0,0,2.19,1l.05,0,.1-.06v0l.33-.26A50.58,50.58,0,0,0,280,600.63Z"/><path class="cls-7" d="M282.09,593.38l-.42,1.46c-2.17-.16-6.74,2.64-7.32,3l-.41-.19a25.47,25.47,0,0,0-4.47-1.72c.09-.55.19-1.11.29-1.67a26.22,26.22,0,0,1,4.6,1.68l.09,0,.07,0c2-1.18,4.81-2.49,6.76-2.61A4.36,4.36,0,0,1,282.09,593.38Z"/><path class="cls-7" d="M284.86,583.71l-.06.25c-.4,1.47-.81,2.94-1.23,4.4a25.74,25.74,0,0,1-3.65,3.26c-2.28,1.74-4.47,3.1-4.5,3.11l-1,.61-.95-.48-.08.15.06-.16a26.82,26.82,0,0,1-3.42-2.17l.24-1.4.09-.56a25.59,25.59,0,0,0,2.57,1.86c1.17.76,1.48.88,1.59.88l.06,0,.1-.05v0l.35-.22c5.41-3.4,8.24-6.06,8.42-7.92a1.14,1.14,0,0,0-.52-1.18c-1.74-1-7.38,1.67-8.06,2.05-.09,0-.24-.14-.41-.23a29.79,29.79,0,0,0-3.67-1.86c0-.59,0-1.18-.06-1.78a29.19,29.19,0,0,1,4.25,2l.08,0,.08,0a17.88,17.88,0,0,1,6.9-1.87,3.52,3.52,0,0,1,2.58,1A2.18,2.18,0,0,1,284.86,583.71Z"/><path class="cls-7" d="M286.43,574.81c-.26,1.72-2,3.49-5.62,5.73-2.4,1.49-4.64,2.57-4.67,2.58l-1,.5-.92-.57-.09.15.07-.16a29.28,29.28,0,0,1-3.56-2.69c-.07-.87-.16-1.73-.28-2.59a27.41,27.41,0,0,0,3.87,3.34c.8.59,1,.7,1.11.7l.06,0,.11,0h0l.37-.18c5.59-2.77,8.57-5.09,8.86-6.88a1.17,1.17,0,0,0-.47-1.23c-1.68-1.15-7.41.89-8.15,1.21l-.42-.29c-1.31-.9-4.56-3.13-6.46-3.1-.12-.54-.23-1.09-.35-1.64a4.22,4.22,0,0,1,1.05.06c2.2.39,5.13,2.34,6.38,3.17l.07,0,.08,0a17.77,17.77,0,0,1,7-1.12A3.77,3.77,0,0,1,286,573,2.28,2.28,0,0,1,286.43,574.81Z"/><path class="cls-7" d="M285.44,561.45a18,18,0,0,0-7.07.37l-.08,0-.06-.05c-1.21-.95-4-3.17-6.22-3.79a3.43,3.43,0,0,0-2.74.23,2.36,2.36,0,0,0-.42.33,10.92,10.92,0,0,0-.61,2h0a11,11,0,0,0-.19,1.4h0a13.26,13.26,0,0,0,3.58,6.07,30.55,30.55,0,0,0,3.93,3.55l-.09.14.1-.14.89.66,1.05-.38s2.35-.85,4.82-2.05c3.75-1.82,5.58-3.37,5.93-5S287.48,562,285.44,561.45Zm1.11,3c-.38,1.73-3.49,3.69-9.25,5.83l-.36.14h0l-.12.05-.06,0c-.08,0-.21-.09-.71-.5-.72-.58-7-5.84-6.31-9.37a1.29,1.29,0,0,1,.8-1.06c1.72-.62,5.55,2.48,7,3.64a4.9,4.9,0,0,0,.41.33c.78-.25,6.53-1.63,8.19-.35A1.19,1.19,0,0,1,286.55,564.44Z"/><path class="cls-7" d="M290.37,553.29c-.28,1.08-.49,2.12-.66,3l-.06.35a15.1,15.1,0,0,1-5.21,2.76c-2.56.92-4.91,1.5-4.93,1.5l-1.07.27-.87-.74-.11.12.1-.13a33.63,33.63,0,0,1-3.73-3.9,24.68,24.68,0,0,1-1.74-2.47c.38-.41.75-.82,1.11-1.24a30.42,30.42,0,0,0,5.15,6.32c.31.28.4.35.47.35h.06l.09,0,.4-.11c5.87-1.5,9.09-3.1,9.57-4.76a1.23,1.23,0,0,0-.37-1.31c-1.61-1.4-7.36-.67-8.19-.5l-.41-.38a28.63,28.63,0,0,0-4.57-3.7,6.86,6.86,0,0,0,.13-1.63,28.82,28.82,0,0,1,5.23,4l.05,0h.08a18.06,18.06,0,0,1,7.1.38A4.4,4.4,0,0,1,290.37,553.29Z"/><path class="cls-7" d="M293.6,545.6c0,.09-.05.19-.08.29-.52,1.5-2.5,2.6-6.42,3.56-2.6.63-5,.95-5,1l-1.09.14-.83-.82-.11.12.11-.13a34.39,34.39,0,0,1-3.53-4.25,18.43,18.43,0,0,1-2.57-4.92l0-.09a7.2,7.2,0,0,1,1.4-1.29c.31,3.29,4.45,8.21,5.72,9.51.17.18.24.25.33.25h.09l.45-.07c6-.86,9.25-2.06,9.82-3.68a1.19,1.19,0,0,0-.32-1.34c-1.55-1.53-7.27-1.44-8.13-1.36-.08-.07-.23-.25-.4-.43a28.73,28.73,0,0,0-4.61-4.3l.11,0a9.44,9.44,0,0,1,1.26-.26l.53,0a41.48,41.48,0,0,1,3.56,3.48l0,.06H284a18.65,18.65,0,0,1,7.07,1.14,6.28,6.28,0,0,1,1.33.82c-.16.73-.27,1.16-.27,1.16A5.91,5.91,0,0,1,293.6,545.6Z"/><path class="cls-9" d="M242.47,558.67a5.38,5.38,0,0,1-.43-10.75l.06.67a4.71,4.71,0,1,0,.76,9.39l0,.67A3.17,3.17,0,0,1,242.47,558.67Z"/><polygon class="cls-2" points="248.16 623.28 243.78 557.91 241.94 558.06 248.16 623.28"/><path class="cls-13" d="M248,623.3l-6.24-65.39,2.19-.18v.17l4.38,65.37Zm-5.87-65.09,5.07,53.09-3.57-53.21Z"/><ellipse class="cls-9" cx="242.89" cy="558.32" rx="10.3" ry="0.38" transform="translate(-44.37 21.48) rotate(-4.64)"/><path class="cls-13" d="M233.55,559.4c-1.08,0-1.09-.1-1.1-.24s0-.31,3.13-.69c1.94-.23,4.52-.47,7.26-.7s5.33-.39,7.28-.48c3.18-.14,3.19,0,3.2.18h0c0,.2,0,.32-3.13.69-1.94.23-4.51.48-7.26.7s-5.33.39-7.28.48C234.69,559.38,234,559.4,233.55,559.4Zm18.53-1.83c-1.57,0-4.88.19-9.21.54s-7.62.71-9.18.95c1.57,0,4.89-.19,9.21-.54S250.53,557.81,252.08,557.57Z"/><path class="cls-11" d="M247.25,551.36s-4,9.43-5.39,8.66-4.23-7.13-3.07-8.66a12.74,12.74,0,0,0,1.73-3.86C247.25,545.58,247.25,551.36,247.25,551.36Z"/><path class="cls-7" d="M242,560.23a.59.59,0,0,1-.26-.06c-1-.59-2.78-4-3.29-6.5a3.19,3.19,0,0,1,.16-2.42,12.65,12.65,0,0,0,1.71-3.79l0-.09.09,0c2.27-.65,4-.51,5.26.42a4.84,4.84,0,0,1,1.69,3.6v.06c-.36.84-3.57,8.24-5.17,8.78Zm-1.38-12.59a12.73,12.73,0,0,1-1.74,3.82,2.86,2.86,0,0,0-.09,2.14c.52,2.52,2.25,5.78,3.12,6.27a.2.2,0,0,0,.18,0c1.23-.42,4-6.28,5-8.56a4.52,4.52,0,0,0-1.56-3.29C244.41,547.18,242.77,547.06,240.66,547.64Z"/><path class="cls-9" d="M270.82,517.59s1.64,4.94,6.63,4.15,8-2.49,7.19-4.52S275.11,511.84,270.82,517.59Z"/><path class="cls-7" d="M276.41,522c-4.25,0-5.73-4.31-5.75-4.36l0-.08.06-.07a8.68,8.68,0,0,1,8.41-3.17c2.9.39,5.28,1.79,5.69,2.84a1.85,1.85,0,0,1-.12,1.65c-.81,1.4-3.36,2.5-7.19,3.1A6.72,6.72,0,0,1,276.41,522Zm-5.4-4.38c.24.65,1.92,4.66,6.42,4,3.67-.57,6.2-1.64,6.94-2.93a1.52,1.52,0,0,0,.11-1.36c-.37-.94-2.69-2.25-5.43-2.62A8.37,8.37,0,0,0,271,517.62Z"/></svg>