<svg id="Layer_2" data-name="Layer 2" xmlns="http://www.w3.org/2000/svg" viewBox="0 0 900 680"><defs><style>.cls-1{fill:none;}.cls-2{fill:#7273b6;}.cls-3{fill:#8ac2e5;}.cls-4{fill:#f37a6f;}.cls-5{fill:#ed9ac2;}.cls-6{fill:#9fd6c0;}.cls-7{fill:#fbb716;}.cls-8{fill:#fbb349;}</style></defs><rect class="cls-1" x="220" y="440" width="240" height="240"/><polygon class="cls-2" points="345.91 657.5 333.86 657.5 337.73 551.58 342.04 551.58 345.91 657.5"/><polygon class="cls-3" points="337.73 551.58 333.86 657.5 335.41 657.5 339.28 551.58 337.73 551.58"/><path class="cls-4" d="M346.14,556.81v2.58c0,.57-2.75,1-6.14,1s-6.14-.46-6.14-1v-2.58c0,.57,2.75,1,6.14,1S346.14,557.38,346.14,556.81Z"/><path class="cls-5" d="M343.21,533.27V523.05a3.2,3.2,0,0,0-2.17-3l-1-57.53L339,520a3.2,3.2,0,0,0-2.17,3v10.22a10.2,10.2,0,1,0,6.42,0Z"/><polygon class="cls-6" points="340.03 463.94 340 462.5 339.99 462.97 340.03 463.94"/><path class="cls-6" d="M331.18,543.13a10.21,10.21,0,0,1,6.82-9.8l-.18-10.22a3.22,3.22,0,0,1,2.12-3.06l0-56.14L339,520a3.2,3.2,0,0,0-2.17,3v10.22A10.2,10.2,0,0,0,340,553.15c.21,0,.41,0,.62,0A10.21,10.21,0,0,1,331.18,543.13Z"/><path class="cls-7" d="M342.23,555.85v1a9.4,9.4,0,0,1-4.69,0l0-.95c-2.18.16-3.71.53-3.71.95,0,.57,2.75,1,6.14,1s6.14-.46,6.14-1S344.52,556,342.23,555.85Z"/><rect class="cls-1" x="678" y="440" width="240" height="240"/><polygon class="cls-5" points="715.39 521.04 798 491.27 880.61 521.04 715.39 521.04"/><path class="cls-6" d="M798,492.46l76.21,27.46H721.79L798,492.46m0-2.38-89,32.08H887l-89-32.08Z"/><path class="cls-8" d="M808.09,529.74H787.91a10,10,0,0,0,4.81,8.59L791.19,623h13.62l-1.53-84.71A10,10,0,0,0,808.09,529.74Z"/><path class="cls-4" d="M768.63,529.74H748.45a10,10,0,0,0,4.81,8.59L751.73,623h13.62l-1.53-84.71A10,10,0,0,0,768.63,529.74Z"/><path class="cls-8" d="M729.17,529.74H709a10,10,0,0,0,4.81,8.59L712.27,623h13.62l-1.53-84.71A10.07,10.07,0,0,0,729.17,529.74Z"/><path class="cls-4" d="M847.55,529.74H827.37a10,10,0,0,0,4.81,8.59L830.65,623h13.62l-1.53-84.71A10,10,0,0,0,847.55,529.74Z"/><path class="cls-8" d="M887,529.74H866.83a10,10,0,0,0,4.81,8.59L870.11,623h13.62l-1.53-84.71A10,10,0,0,0,887,529.74Z"/><rect class="cls-2" x="708.99" y="522.16" width="178.03" height="7.59"/><polygon class="cls-6" points="706.38 628.8 709.57 624.16 886.43 624.16 889.62 628.8 706.38 628.8"/><path class="cls-2" d="M885.84,625.28l1.65,2.4h-179l1.65-2.4H885.84M887,623H709l-4.74,6.88h187.5L887,623Z"/><rect class="cls-1" x="458" width="240" height="240"/><path class="cls-8" d="M623.69,74.61c0,4.47-22.9,8.1-51.09,8.1s-51.1-3.63-51.1-8.1,22.87-8.07,51.1-8.07S623.69,70.18,623.69,74.61Z"/><path class="cls-4" d="M634.69,160.92c0,6.9-27.79,12.54-62.09,12.54s-62.1-5.64-62.1-12.54l.09-.62L521.5,74.61c0,4.47,22.87,8.1,51.1,8.1s51.09-3.63,51.09-8.1L634.6,160.3Z"/><path class="cls-2" d="M636.94,116.53h-4.49c0-11-1-20-3.08-26.72-1.5-4.94-3.51-8.57-6-10.78-2.66-2.41-4.89-2.2-5-2.2h.05l-.66-4.44c.42-.07,4.19-.51,8.34,3.07,3.13,2.7,5.63,7,7.42,12.72C635.8,95.37,636.94,104.91,636.94,116.53Z"/><polygon class="cls-2" points="624.59 147.96 645.36 148.91 634.76 108.1 624.59 147.96"/><path class="cls-2" d="M645.5,149l-21-1,0-.13,10.28-40.25Zm-20.78-1.17,20.5.94-10.46-40.27Z"/><rect class="cls-1" width="240" height="240"/><path class="cls-2" d="M231.2,140.72c0,16.57-46.34,14.69-108.41,29.32C51,187,8.8,151.34,8.8,135.15c0-23.89,54.11-27.65,114-27.65S231.2,124.53,231.2,140.72Z"/><path class="cls-6" d="M212.31,79.28c-3.61-.16-6.05-4.06-9.92-2.94a8.18,8.18,0,0,0-3.71,2.81c-11.21,13.08-10.27,31-7.13,46.8.07.36.14.73.22,1.1.6,3,1.29,6,2,9,.39,1.6,1.1,3.47,1.58,5.29h-28.2c.16-.25.31-.51.46-.76,7.61-12.92,9.93-27.55,11.9-42.18.95-7.12,2.33-13.95,5.95-20.25,3.9-6.79,10.15-11.89,18.15-12.55a12.82,12.82,0,0,1,10.77,4,8.5,8.5,0,0,1,2.09,4.85C216.66,77.09,215.2,79.4,212.31,79.28Z"/><path class="cls-6" d="M157.67,141.29H86.35c3.27-12.38,18-21.71,35.66-21.71S154.4,128.91,157.67,141.29Z"/><path class="cls-6" d="M41.28,141.37c3.54-5.5,8.52-9,13.95-9s10.42,3.49,14,9h8.88c-4.78-10.06-13.21-16.75-22.83-16.75s-18,6.69-22.83,16.75Z"/></svg>