<svg id="Layer_2" data-name="Layer 2" xmlns="http://www.w3.org/2000/svg" viewBox="0 0 900 680"><defs><style>.cls-1{fill:none;}.cls-2{fill:#f37a6f;}.cls-3{fill:#7273b6;}.cls-4{fill:#9fd6c0;}.cls-5{fill:#fbb349;}.cls-6{fill:#d289bb;}.cls-7{fill:#fbb716;}.cls-8{fill:#ed9ac2;}.cls-9{fill:#8ac2e5;}.cls-10{fill:#fff;}</style></defs><rect class="cls-1" x="211" y="440" width="240" height="240"/><path class="cls-2" d="M305.77,500.67l-2.2.34c-1.09.17-2.19.36-3.27.55-1.91.34-3.78.72-5.63,1.12l-3.27.74c-1.91.47-3.78.95-5.62,1.47-1.1.32-2.2.64-3.27,1q-2.88.9-5.62,1.88c-1.12.41-2.2.81-3.28,1.24q-2.89,1.15-5.62,2.39c-1.11.52-2.2,1-3.27,1.59q-2.94,1.47-5.62,3.07c-1.12.65-2.22,1.34-3.28,2-2,1.31-3.87,2.68-5.62,4.09-1.15.93-2.23,1.87-3.27,2.83a49.4,49.4,0,0,0-5.62,6.17,38.49,38.49,0,0,0-3.28,5,30.36,30.36,0,0,0-4,14.8V539.77c0-22,25.38-40.79,61.27-48.42l2.52,3h5Z"/><path class="cls-3" d="M234.6,551h-1.1V539.77c0-10.82,6-21.2,17.39-30,11.05-8.57,26.37-15.12,44.32-18.93l.32-.07,2.57,3.06h5l3.45,7.3-.74.11c-.73.11-1.46.21-2.18.33-1,.16-2.07.34-3.27.56-1.8.32-3.63.68-5.6,1.1-1.13.25-2.23.5-3.26.75-1.86.45-3.74.94-5.6,1.46-1.05.3-2.16.63-3.26,1-1.83.57-3.66,1.18-5.6,1.88-1.13.41-2.2.81-3.25,1.23-1.89.75-3.77,1.55-5.6,2.38-1.22.57-2.28,1.08-3.25,1.58-1.9.95-3.78,2-5.59,3-1.1.64-2.19,1.32-3.25,2a68.79,68.79,0,0,0-5.58,4.06c-1.1.89-2.17,1.81-3.25,2.81a50,50,0,0,0-5.56,6.09,39.38,39.38,0,0,0-3.22,4.91A29.76,29.76,0,0,0,234.6,551Zm60.52-59c-17.65,3.79-32.71,10.24-43.56,18.65-11.09,8.61-17,18.69-17,29.16V543a32.79,32.79,0,0,1,3-7.13,39.86,39.86,0,0,1,3.32-5,50.63,50.63,0,0,1,5.68-6.23c1.11-1,2.19-2,3.31-2.85,1.78-1.44,3.69-2.83,5.66-4.13,1.08-.71,2.19-1.41,3.3-2.06,1.83-1.08,3.73-2.12,5.65-3.08,1-.5,2.06-1,3.29-1.59,1.85-.85,3.75-1.66,5.65-2.41,1.07-.42,2.14-.83,3.29-1.24,2-.7,3.8-1.32,5.64-1.9l3.29-1c1.87-.52,3.77-1,5.64-1.47,1.05-.25,2.15-.5,3.29-.75,2-.43,3.82-.79,5.64-1.12l3.29-.55,1.46-.23-2.51-5.33h-4.86Z"/><path class="cls-3" d="M331,629.25h-7V609.78a13.44,13.44,0,0,1,2-7.27,6.19,6.19,0,0,1,5-3.15c3.88,0,7,4.69,7,10.43v19.44h-7Zm-5.94-1.11H336.9V609.78c0-5.13-2.65-9.31-5.92-9.32a5.13,5.13,0,0,0-4.12,2.65,12.39,12.39,0,0,0-1.8,6.67Z"/><path class="cls-3" d="M320.17,629.2h-.55c-4.76-.05-9-.11-13-.2h-.54V610a13.2,13.2,0,0,1,2-7.17,6.39,6.39,0,0,1,5-3.21,5.39,5.39,0,0,1,3.95,1.68c1.94,1.88,3.09,5.07,3.09,8.54Zm-12.95-1.28c3.65.07,7.54.13,11.85.17V609.81a11,11,0,0,0-2.76-7.76,4.37,4.37,0,0,0-3.15-1.36,5.31,5.31,0,0,0-4.13,2.72,12,12,0,0,0-1.81,6.56Z"/><path class="cls-3" d="M302.34,628.9h-.56c-4.48-.12-8.83-.26-12.94-.43l-.53,0v-18a12.3,12.3,0,0,1,2-6.91,6.55,6.55,0,0,1,5-3.2,5.34,5.34,0,0,1,4,1.58,11.35,11.35,0,0,1,3,8.2Zm-12.93-1.52c3.77.15,7.75.29,11.83.39v-17.7a10.27,10.27,0,0,0-2.69-7.41,4.24,4.24,0,0,0-3.19-1.27,5.5,5.5,0,0,0-4.15,2.71,11.31,11.31,0,0,0-1.8,6.3Z"/><path class="cls-3" d="M284.53,628.28l-.57,0c-4.17-.2-8.17-.42-11.89-.65l-.52,0V611a12,12,0,0,1,1.83-6.47,6.39,6.39,0,0,1,4.61-3.13,4.7,4.7,0,0,1,3.67,1.32c1.8,1.64,2.87,4.56,2.87,7.79Zm-11.88-1.73c3.4.21,7,.4,10.78.58V610.55c0-2.93-.94-5.54-2.52-7a3.65,3.65,0,0,0-2.82-1,5.41,5.41,0,0,0-3.79,2.64,10.91,10.91,0,0,0-1.65,5.87Z"/><path class="cls-3" d="M266.74,627.25l-.59,0c-4.17-.31-8.08-.66-11.62-1l-.49,0V611.91a10.46,10.46,0,0,1,1.79-5.88,6.59,6.59,0,0,1,4.49-3,4.65,4.65,0,0,1,3.74,1.21,9.34,9.34,0,0,1,2.68,7Zm-11.6-2.12c3.23.34,6.76.65,10.5.94V611.26a8.25,8.25,0,0,0-2.3-6.16,3.54,3.54,0,0,0-2.88-1,5.49,5.49,0,0,0-3.72,2.51,9.19,9.19,0,0,0-1.6,5.25Z"/><path class="cls-3" d="M249,625.52l-.62-.08a82.16,82.16,0,0,1-10.48-1.92l-.41-.11V613a9,9,0,0,1,1.63-5.12,6.45,6.45,0,0,1,4-2.76,4.17,4.17,0,0,1,3.46,1,8,8,0,0,1,2.39,6.1Zm-10.41-2.95a84.59,84.59,0,0,0,9.31,1.7V612.19a6.86,6.86,0,0,0-2-5.25,3,3,0,0,0-2.56-.72,5.34,5.34,0,0,0-3.33,2.31,7.91,7.91,0,0,0-1.42,4.48Z"/><path class="cls-3" d="M341.79,629.2V609.81c0-5.63,3.1-10.22,6.9-10.22h.12c3.88.12,7,4.77,7,10.38v19h-.54c-4,.09-8.19.15-12.94.2Zm7-28.51h-.1c-3.2,0-5.8,4.09-5.8,9.12v18.28c4.31,0,8.19-.1,11.84-.17V610C354.73,605,352.07,600.79,348.79,600.69Z"/><path class="cls-3" d="M359.62,628.9V610.07c0-5.49,3-9.79,6.76-9.79h.3c3.84.23,7,4.76,7,10.11v18.05l-.53,0c-4.34.17-8.69.31-12.94.42Zm6.81-27.52h-.05c-3.12,0-5.67,3.9-5.67,8.69v17.7c3.9-.1,7.87-.23,11.84-.38v-17c0-4.78-2.67-8.83-5.95-9h-.17Z"/><path class="cls-3" d="M377.43,628.28V610.55c0-5.12,2.7-9.13,6.15-9.13H384c3.56.33,6.46,4.64,6.46,9.6v16.54l-.52,0c-4.31.27-8.21.48-11.92.65Zm6.15-25.76c-2.83,0-5.05,3.52-5.05,8v16.58c3.39-.15,6.94-.34,10.82-.58V611c0-4.41-2.45-8.22-5.46-8.51Z"/><path class="cls-3" d="M395.22,627.25v-.59c0-5.11,0-10.29,0-15.4a9.49,9.49,0,0,1,2.4-6.72,4.82,4.82,0,0,1,3.46-1.52c.19,0,.37,0,.55,0h0c3.48.43,6.3,4.4,6.3,8.85v14.21l-.49,0c-3.56.38-7.48.73-11.66,1Zm5.86-23.13a3.74,3.74,0,0,0-2.68,1.2,8.34,8.34,0,0,0-2.08,5.94c0,4.91,0,9.89,0,14.81,3.76-.29,7.3-.6,10.54-.94V611.91c0-3.91-2.39-7.4-5.33-7.76Z"/><path class="cls-3" d="M413,625.53V612.19c0-4.06,2.21-7.12,5.13-7.12a4.62,4.62,0,0,1,.74.06c3.13.55,5.68,4.09,5.68,7.88v10.4l-.41.11a81.69,81.69,0,0,1-10.51,1.93Zm5.13-19.36c-2.29,0-4,2.59-4,6v12.09a82.78,82.78,0,0,0,9.35-1.71V613c0-3.28-2.14-6.33-4.77-6.79A3.41,3.41,0,0,0,418.1,606.17Z"/><path class="cls-3" d="M338,594.44h-.56c-4.24,0-8.72,0-13,0h-.55V568.1a10.69,10.69,0,0,1,2-6.37,6.35,6.35,0,0,1,5-2.71c3.88,0,7,4.07,7,9.08Zm-7-34.33a5.28,5.28,0,0,0-4.15,2.29,9.51,9.51,0,0,0-1.79,5.7v25.24c3.9,0,8,0,11.88,0V568.1C336.92,563.69,334.25,560.11,331,560.11Z"/><path class="cls-3" d="M306.1,594.78v-26a10.68,10.68,0,0,1,2-6.38,6.56,6.56,0,0,1,5-2.88,5.86,5.86,0,0,1,4.33,1.74,9.72,9.72,0,0,1,2.72,7v26.22h-.54c-4.68.07-8.93.16-13,.28Zm7.24-34.21h-.18A5.46,5.46,0,0,0,309,563a9.62,9.62,0,0,0-1.79,5.73v24.91c3.72-.1,7.61-.19,11.87-.25V568.26a8.77,8.77,0,0,0-2.38-6.25A4.84,4.84,0,0,0,313.34,560.57Z"/><path class="cls-3" d="M288.27,595.57v-25.3a10.76,10.76,0,0,1,2-6.33,7,7,0,0,1,5-3,5.81,5.81,0,0,1,4.4,1.62,9.2,9.2,0,0,1,2.68,6.78v25.61l-.53,0c-4.83.18-9.07.38-13,.6ZM295.68,562h-.33a5.86,5.86,0,0,0-4.19,2.58,9.76,9.76,0,0,0-1.79,5.68v24.14c3.59-.2,7.49-.38,11.87-.55V569.31a8.12,8.12,0,0,0-2.32-6A4.71,4.71,0,0,0,295.68,562Z"/><path class="cls-3" d="M271.55,596.8V572.74a11.11,11.11,0,0,1,1.84-6.21,6.55,6.55,0,0,1,4.58-3.1,5,5,0,0,1,3.95,1.29,8.84,8.84,0,0,1,2.6,6.6V595.8l-.51,0c-4.38.3-8.26.59-11.86.92Zm7-32.31a3.71,3.71,0,0,0-.47,0,5.52,5.52,0,0,0-3.8,2.63,10,10,0,0,0-1.65,5.59V595.6c3.29-.29,6.83-.56,10.78-.83V571.32a7.75,7.75,0,0,0-2.24-5.78A3.92,3.92,0,0,0,278.57,564.49Z"/><path class="cls-3" d="M254,598.88v-22a10.21,10.21,0,0,1,1.8-5.81,6.84,6.84,0,0,1,4.46-3,4.94,4.94,0,0,1,4,1.19,7.69,7.69,0,0,1,2.4,5.91v22.13l-.49.06c-4.15.44-8.05.93-11.57,1.45Zm7-29.8a4,4,0,0,0-.6,0,5.71,5.71,0,0,0-3.73,2.56,9.07,9.07,0,0,0-1.6,5.18V597.6c3.23-.46,6.75-.9,10.5-1.31V575.14a6.62,6.62,0,0,0-2-5.08A3.79,3.79,0,0,0,261.07,569.08Z"/><path class="cls-3" d="M237.48,602.83V582.5a9.16,9.16,0,0,1,1.62-5.19,6.43,6.43,0,0,1,4-2.81,4.46,4.46,0,0,1,3.73,1A6.59,6.59,0,0,1,249,580.6v19.14l-.45.09a58.52,58.52,0,0,0-10.3,2.7ZM244,575.52a3.68,3.68,0,0,0-.66.06,5.32,5.32,0,0,0-3.32,2.36,8,8,0,0,0-1.43,4.56v18.72a65.81,65.81,0,0,1,9.31-2.39V580.6a5.5,5.5,0,0,0-1.73-4.28A3.35,3.35,0,0,0,244,575.52Z"/><path class="cls-3" d="M355.86,594.78h-.57c-4.58-.14-8.82-.23-13-.28h-.55V568.25c0-4.84,3.07-8.78,6.84-8.78h.2c3.89.14,7,4.3,7,9.27Zm-13-1.38c3.81.05,7.71.13,11.88.25V568.74c0-4.39-2.68-8-6-8.17h-.18c-3.16,0-5.74,3.44-5.74,7.68Z"/><path class="cls-3" d="M373.68,595.57l-.58,0c-4.13-.24-8.48-.44-13-.61l-.52,0v-25.6c0-4.72,2.92-8.41,6.66-8.41h.41c3.86.3,7,4.5,7,9.36Zm-13-1.72c4.09.16,8.08.35,11.87.56V570.27c0-4.3-2.68-8-6-8.26h-.33c-3.12,0-5.57,3.21-5.57,7.31Z"/><path class="cls-3" d="M390.45,596.8l-.6,0c-3.63-.33-7.52-.63-11.91-.92l-.51,0V571.32c0-4.44,2.63-7.93,6-7.93a5.49,5.49,0,0,1,.6,0c3.54.41,6.43,4.59,6.43,9.31Zm-11.92-2c3.94.27,7.5.54,10.82.83V572.74c0-4.18-2.46-7.87-5.47-8.22a3.44,3.44,0,0,0-.46,0c-2.74,0-4.89,3-4.89,6.83Z"/><path class="cls-3" d="M408,598.88l-.63-.1c-3.52-.52-7.43-1-11.62-1.45l-.49-.05V575.14c0-4.08,2.45-7.16,5.7-7.16a5,5,0,0,1,.76.06c3.46.51,6.28,4.47,6.28,8.83Zm-11.64-2.59c3.77.4,7.31.84,10.54,1.31V576.87c0-3.84-2.4-7.31-5.34-7.74a4.28,4.28,0,0,0-.6,0c-2.62,0-4.6,2.61-4.6,6.06Z"/><path class="cls-3" d="M424.52,602.83l-.76-.3a58.87,58.87,0,0,0-10.35-2.71l-.44-.09V580.6c0-3.52,2.15-6.18,5-6.18a5.38,5.38,0,0,1,.85.08c3.13.57,5.68,4.16,5.68,8Zm-10.46-4a64.88,64.88,0,0,1,9.36,2.39V582.5c0-3.34-2.14-6.44-4.77-6.92a4.14,4.14,0,0,0-.66-.06c-2.24,0-3.93,2.18-3.93,5.08Z"/><path class="cls-2" d="M320.6,549.05V536.61c0-5.53-2.91-9.94-6.47-9.77a5.93,5.93,0,0,0-4.6,3.16,13.63,13.63,0,0,0-1.9,7.18v12.5c-1.63.11-3.24.24-4.84.37V538.39c0-.22,0-.45,0-.67s0-.44,0-.66a12.28,12.28,0,0,0-.67-3.19,5.25,5.25,0,0,0-.22-.55c0-.09-.07-.17-.1-.26s-.17-.36-.26-.54-.05-.1-.08-.14-.2-.38-.31-.55a8.92,8.92,0,0,0-.94-1.2l-.25-.25-.26-.23-.27-.21a5.36,5.36,0,0,0-.59-.38,2.64,2.64,0,0,0-.29-.15,4.71,4.71,0,0,0-1-.33L297,529h-.69a6.46,6.46,0,0,0-4.6,3.36c-.12.21-.24.42-.35.65a11.28,11.28,0,0,0-.8,1.91,3.5,3.5,0,0,0-.14.46c0,.12-.07.25-.11.37s-.11.43-.15.64-.08.4-.12.59a.71.71,0,0,0,0,.14,4.89,4.89,0,0,0-.09.53c0,.05,0,.11,0,.17a4.22,4.22,0,0,0-.07.61c0,.08,0,.17,0,.25,0,.28,0,.57,0,.85v11.9c-1.65.22-3.25.44-4.85.68V541.71a14.49,14.49,0,0,0-.09-1.64c0-.17-.05-.35-.08-.52a11.46,11.46,0,0,0-.73-2.64l-.23-.46-.24-.46a6.86,6.86,0,0,0-.38-.6c-.1-.13-.19-.27-.29-.38s-.22-.25-.32-.37a5.62,5.62,0,0,0-.85-.71,2.14,2.14,0,0,0-.38-.23,2.76,2.76,0,0,0-.43-.2,1.6,1.6,0,0,0-.33-.11.9.9,0,0,0-.22-.06,1.47,1.47,0,0,0-.27-.06l-.18,0-.38,0-.54,0a6.09,6.09,0,0,0-4.18,3.3,13.54,13.54,0,0,0-1.73,6.77v10.9c-2.05.42-4,.86-5.94,1.33v-8.91c0-4.7-2.59-8.09-5.79-7.54a6.36,6.36,0,0,0-4.11,3.22,12.3,12.3,0,0,0-1.68,6.3v10.28c-2.19.76-4.26,1.55-6.15,2.37v-4.85c0-3.88-2.34-6.6-5.22-6a5.31,5.31,0,0,0-2.9,1.78,7.23,7.23,0,0,0-.78,1,8.68,8.68,0,0,0-.79,1.55,10.23,10.23,0,0,0-.71,3.73v8.83c-3.23,2.69-5,5.56-5,8.56V563.75a20.88,20.88,0,0,1,4-11.89,31.28,31.28,0,0,1,3.28-4,43.67,43.67,0,0,1,5.62-4.94c1-.78,2.12-1.53,3.27-2.27,1.75-1.15,3.63-2.24,5.62-3.29,1.06-.56,2.16-1.12,3.28-1.65q2.68-1.28,5.62-2.46c1.07-.44,2.16-.86,3.27-1.27q2.73-1,5.62-1.93c1.08-.33,2.16-.66,3.28-1,1.83-.54,3.7-1,5.62-1.52,1.07-.27,2.17-.53,3.27-.78q2.76-.64,5.62-1.18l3.27-.61c1.85-.32,3.72-.62,5.63-.89,1.08-.16,2.17-.3,3.27-.44,5.68-.72,11.59-1.23,17.66-1.49l.78,4.67,9,22.06C327.49,548.89,324,549,320.6,549.05Z"/><path class="cls-3" d="M234.6,575.87h-1.1V563.75a21.34,21.34,0,0,1,4.08-12.2,32.53,32.53,0,0,1,3.33-4.07,44.85,44.85,0,0,1,5.69-5c1-.76,2.09-1.51,3.3-2.29,1.72-1.13,3.63-2.25,5.67-3.32,1.08-.57,2.19-1.13,3.29-1.66,1.79-.85,3.69-1.68,5.65-2.47,1-.4,2.06-.82,3.29-1.27,1.77-.66,3.61-1.29,5.65-1.94,1.15-.36,2.23-.69,3.28-1,1.87-.55,3.77-1.06,5.64-1.53,1-.25,2.15-.52,3.29-.77,1.82-.43,3.66-.81,5.64-1.19,1.06-.21,2.16-.41,3.28-.61,2-.35,3.87-.64,5.64-.89l3.28-.45c5.8-.73,11.76-1.23,17.71-1.48l.49,0,.84,5.09,9.28,22.76H331c-3.49,0-7,.06-10.38.16l-.57,0v-13c0-3.29-1.05-6.26-2.82-7.94a4.17,4.17,0,0,0-3.08-1.28,5.44,5.44,0,0,0-4.16,2.9,13.19,13.19,0,0,0-1.81,6.89v13l-.51,0c-1.48.1-3,.21-4.84.37l-.59,0V538.39c0-.22,0-.43,0-.65s0-.42,0-.61a12.28,12.28,0,0,0-.65-3.08,4.18,4.18,0,0,0-.2-.51l-.11-.28c-.07-.16-.15-.32-.23-.48a.25.25,0,0,1,0-.07l-.05-.08a4.7,4.7,0,0,0-.29-.5,6.71,6.71,0,0,0-.87-1.11,2.49,2.49,0,0,0-.22-.23l-.09-.08-.14-.13,0,0-.21-.17a6.49,6.49,0,0,0-.55-.36l-.25-.12a4,4,0,0,0-.86-.29l-.45-.07a5.74,5.74,0,0,0-.6,0,5.92,5.92,0,0,0-4.18,3.1c-.11.19-.23.39-.32.59l0,0a11.79,11.79,0,0,0-.76,1.81c-.05.16-.1.29-.13.42l0,.07-.06.2,0,.13c-.05.18-.09.37-.13.56v0c0,.17-.07.34-.1.5l0,.07a.07.07,0,0,1,0,0v.1c0,.17-.05.32-.07.47v0a.19.19,0,0,0,0,.08v.09a4,4,0,0,0-.06.54v0a1.21,1.21,0,0,0,0,.19v0c0,.28,0,.55,0,.82v12.39l-.48.06c-1.77.23-3.35.45-4.84.67l-.63.1v-11a14.08,14.08,0,0,0-.09-1.58c0-.16,0-.33-.07-.49a10.36,10.36,0,0,0-.7-2.51c-.06-.14-.13-.28-.2-.42s-.16-.31-.24-.45a4.74,4.74,0,0,0-.35-.55c-.08-.12-.17-.24-.26-.35l-.3-.34a4.56,4.56,0,0,0-.75-.63,2.16,2.16,0,0,0-.31-.19l0,0a2.19,2.19,0,0,0-.35-.17l-.26-.09-.07,0-.12,0h0l-.2,0-.18,0h-.32a3.13,3.13,0,0,0-.46,0,5.54,5.54,0,0,0-3.78,3,12.9,12.9,0,0,0-1.66,6.5v11.35l-.44.09c-2,.41-4,.86-5.91,1.33l-.69.16v-9.61c0-2.65-.86-5-2.32-6.19a3.42,3.42,0,0,0-2.82-.81,5.89,5.89,0,0,0-3.74,3,11.76,11.76,0,0,0-1.6,6V559.3l-.37.13c-2.36.82-4.36,1.59-6.11,2.36l-.77.33v-5.69a6.22,6.22,0,0,0-1.89-4.81,3.15,3.15,0,0,0-2.68-.69,4.8,4.8,0,0,0-2.59,1.62,8.08,8.08,0,0,0-.73,1,8.3,8.3,0,0,0-.74,1.46,9.58,9.58,0,0,0-.67,3.52v9.09l-.2.17C236.21,570.38,234.6,573.11,234.6,575.87Zm86.17-53.14c-5.76.26-11.52.75-17.13,1.46l-3.26.45c-1.76.24-3.6.53-5.61.89-1.11.19-2.2.39-3.26.6-2,.37-3.8.76-5.61,1.18-1.13.25-2.23.51-3.26.77-1.86.46-3.75,1-5.6,1.51-1.05.31-2.11.63-3.26,1-2,.64-3.85,1.27-5.6,1.92-1.22.45-2.29.86-3.25,1.26-1.95.78-3.83,1.61-5.6,2.45-1.08.51-2.18,1.06-3.25,1.63-2,1.06-3.88,2.16-5.58,3.27-1.19.77-2.25,1.5-3.24,2.25a42.69,42.69,0,0,0-5.55,4.88,30.39,30.39,0,0,0-3.22,3.93,20.31,20.31,0,0,0-3.89,11.58v7.91a15.91,15.91,0,0,1,3.88-4.6v-8.58a10.72,10.72,0,0,1,.75-3.93,10.19,10.19,0,0,1,.84-1.65,8.82,8.82,0,0,1,.83-1.09,5.86,5.86,0,0,1,3.2-1.95,4.26,4.26,0,0,1,3.59.91,7.23,7.23,0,0,1,2.29,5.66v4c1.49-.63,3.15-1.26,5.05-1.93v-9.89a12.9,12.9,0,0,1,1.76-6.59,6.91,6.91,0,0,1,4.49-3.47,4.47,4.47,0,0,1,3.72,1c1.7,1.43,2.71,4.06,2.71,7v8.21c1.58-.38,3.2-.74,4.84-1.08V543.33a14.05,14.05,0,0,1,1.81-7.05,6.62,6.62,0,0,1,4.58-3.56,5,5,0,0,1,1,0l.21,0a1.63,1.63,0,0,1,.36.07h0l.21.06a2.43,2.43,0,0,1,.38.13,3.15,3.15,0,0,1,.47.22,3.82,3.82,0,0,1,.45.27,5.16,5.16,0,0,1,.92.78l.36.4c.09.12.2.26.3.41a5.46,5.46,0,0,1,.42.64l0,0c.08.15.15.3.23.46s.15.3.24.49a11.69,11.69,0,0,1,.78,2.78c0,.18.05.36.07.54a13.85,13.85,0,0,1,.1,1.7v9.77l3.75-.52V539.54q0-.43,0-.87a2.45,2.45,0,0,1,0-.27,5.63,5.63,0,0,1,.06-.63.9.9,0,0,1,0-.18,5.06,5.06,0,0,1,.08-.52,1.37,1.37,0,0,1,0-.19v0c0-.19.07-.38.11-.55v0c0-.21.09-.42.15-.64l0-.1a2.58,2.58,0,0,1,.08-.26,5,5,0,0,1,.15-.5,12.24,12.24,0,0,1,.83-2,6.43,6.43,0,0,1,.37-.69c1.35-2.16,3.13-3.45,5-3.62a4.75,4.75,0,0,1,.76,0h0a5.21,5.21,0,0,1,.59.09,4.91,4.91,0,0,1,1.1.37,3.2,3.2,0,0,1,.33.16c.22.13.43.26.64.41l.3.24.19.17.07.07.29.29a8.4,8.4,0,0,1,1,1.27c.11.18.23.38.33.58l0,.07,0,.09c.09.18.19.37.27.57l.11.27a4.86,4.86,0,0,1,.23.59,13.21,13.21,0,0,1,.7,3.32c0,.21,0,.44.05.67s0,.47,0,.7v11.06l3.74-.28v-12a14.24,14.24,0,0,1,2-7.47,6.51,6.51,0,0,1,5.05-3.42,5.22,5.22,0,0,1,3.88,1.59c2,1.88,3.16,5.15,3.16,8.73v11.88c3-.09,6-.14,9-.15L321.48,527Z"/><path class="cls-4" d="M321.23,522.16c-6.07.26-12,.77-17.66,1.49-1.1.14-2.19.28-3.27.44-1.91.27-3.78.57-5.63.89l-3.27.61q-2.86.54-5.62,1.18c-1.1.25-2.2.51-3.27.78-1.92.48-3.79,1-5.62,1.52-1.12.32-2.2.65-3.28,1Q270.72,531,268,532c-1.11.41-2.2.83-3.27,1.27q-2.94,1.18-5.62,2.46c-1.12.53-2.22,1.09-3.28,1.65-2,1-3.87,2.14-5.62,3.29-1.15.74-2.24,1.49-3.27,2.27a43.67,43.67,0,0,0-5.62,4.94,31.28,31.28,0,0,0-3.28,4,20.88,20.88,0,0,0-4,11.89V551a30.36,30.36,0,0,1,4-14.8,38.49,38.49,0,0,1,3.28-5,49.4,49.4,0,0,1,5.62-6.17c1-1,2.12-1.9,3.27-2.83,1.75-1.41,3.63-2.78,5.62-4.09,1.06-.7,2.16-1.39,3.28-2q2.68-1.6,5.62-3.07c1.07-.55,2.16-1.07,3.27-1.59q2.73-1.23,5.62-2.39c1.08-.43,2.16-.83,3.28-1.24q2.75-1,5.62-1.88c1.07-.34,2.17-.66,3.27-1,1.84-.52,3.71-1,5.62-1.47l3.27-.74c1.85-.4,3.72-.78,5.63-1.12,1.08-.19,2.18-.38,3.27-.55l2.2-.34,7.36,15.63,7.47,2.09Z"/><path class="cls-3" d="M234.6,563.75h-1.1V551a30.83,30.83,0,0,1,4.05-15.07,39.86,39.86,0,0,1,3.32-5,50.63,50.63,0,0,1,5.68-6.23c1.11-1,2.19-2,3.31-2.85,1.78-1.44,3.69-2.83,5.66-4.13,1.08-.71,2.19-1.41,3.3-2.06,1.83-1.08,3.73-2.12,5.65-3.08,1-.5,2.06-1,3.29-1.59,1.85-.85,3.75-1.66,5.65-2.41,1.07-.42,2.14-.83,3.29-1.24,2-.7,3.8-1.32,5.64-1.9l3.29-1c1.87-.52,3.77-1,5.64-1.47,1.05-.25,2.15-.5,3.29-.75,2-.43,3.82-.79,5.64-1.12l3.29-.55,2.2-.34.4-.06,7.43,15.77,7.57,2.12.79,4.73-.62,0c-5.92.25-11.85.75-17.62,1.48l-3.26.45c-1.76.24-3.6.53-5.61.89-1.11.19-2.2.39-3.26.6-2,.37-3.8.76-5.61,1.18-1.13.25-2.23.51-3.26.77-1.86.46-3.75,1-5.6,1.51-1.05.31-2.11.63-3.26,1-2,.64-3.85,1.27-5.6,1.92-1.22.45-2.29.86-3.25,1.26-1.95.78-3.83,1.61-5.6,2.45-1.08.51-2.18,1.06-3.25,1.63-2,1.06-3.88,2.16-5.58,3.27-1.19.77-2.25,1.5-3.24,2.25a42.69,42.69,0,0,0-5.55,4.88,30.39,30.39,0,0,0-3.22,3.93A20.31,20.31,0,0,0,234.6,563.75Zm70.84-62.47c-.6.08-1.19.17-1.78.27-1,.16-2.07.34-3.27.56-1.8.32-3.63.68-5.6,1.1-1.13.25-2.23.5-3.26.75-1.86.45-3.74.94-5.6,1.46-1.05.3-2.16.63-3.26,1-1.83.57-3.66,1.18-5.6,1.88-1.13.41-2.2.81-3.25,1.23-1.89.75-3.77,1.55-5.6,2.38-1.22.57-2.28,1.08-3.25,1.58-1.9.95-3.78,2-5.59,3-1.1.64-2.19,1.32-3.25,2a68.79,68.79,0,0,0-5.58,4.06c-1.1.89-2.17,1.81-3.25,2.81a50,50,0,0,0-5.56,6.09,39.38,39.38,0,0,0-3.22,4.91A29.76,29.76,0,0,0,234.6,551v6.4a24.58,24.58,0,0,1,3-5.8,32.53,32.53,0,0,1,3.33-4.07,44.85,44.85,0,0,1,5.69-5c1-.76,2.09-1.51,3.3-2.29,1.72-1.13,3.63-2.25,5.67-3.32,1.08-.57,2.19-1.13,3.29-1.66,1.79-.85,3.69-1.68,5.65-2.47,1-.4,2.06-.82,3.29-1.27,1.77-.66,3.61-1.29,5.65-1.94,1.15-.36,2.23-.69,3.28-1,1.87-.55,3.77-1.06,5.64-1.53,1-.25,2.15-.52,3.29-.77,1.82-.43,3.66-.81,5.64-1.19,1.06-.21,2.16-.41,3.28-.61,2-.35,3.87-.64,5.64-.89l3.28-.45c5.6-.71,11.35-1.2,17.09-1.46l-.47-2.81-7.38-2.07Z"/><path class="cls-2" d="M428,605.27v15.45c0,.79-1.4,1.55-4,2.27V613c0-3.53-2.33-6.83-5.23-7.33a3.47,3.47,0,0,0-.64-.06c-2.58,0-4.58,2.79-4.58,6.57v12.72c-1.87.25-3.92.49-6.11.72V611.91c0-4.16-2.6-7.91-5.81-8.31l-.52,0c-3,0-5.32,3.32-5.31,7.69q0,7.69,0,15.4l-5.87.41V611c0-4.67-2.67-8.74-6-9.06h-.36c-3.13,0-5.6,3.76-5.6,8.58v17.16l-4.88.21V610.4c0-5.06-2.89-9.36-6.47-9.56h-.25c-3.45,0-6.21,4.08-6.21,9.24v18.27l-4.89.11V610c0-5.3-2.9-9.72-6.47-9.83h-.12c-3.51,0-6.35,4.32-6.35,9.67v18.84l-4.89,0V609.78c0-5.43-2.89-9.86-6.47-9.87a5.68,5.68,0,0,0-4.58,2.9,13,13,0,0,0-1.89,7v18.91l-4.89,0V609.81c0-5.42-2.9-9.77-6.47-9.67a5.91,5.91,0,0,0-4.58,3,12.61,12.61,0,0,0-1.9,6.87v18.48l-4.88-.11V610.07c0-5.28-2.89-9.44-6.47-9.23a6.06,6.06,0,0,0-4.57,3,11.88,11.88,0,0,0-1.89,6.6v17.51l-4.88-.2V610.55c0-5-2.66-8.87-5.94-8.57a5.94,5.94,0,0,0-4.2,2.89A11.49,11.49,0,0,0,272.1,611v16l-5.91-.41v-15.4c0-4.62-2.59-8.07-5.8-7.66a6.1,6.1,0,0,0-4.1,2.74,9.87,9.87,0,0,0-1.7,5.57v13.72c-2.21-.23-4.26-.48-6.15-.73V612.19c0-4.09-2.33-7-5.2-6.51a5.91,5.91,0,0,0-3.68,2.53A8.43,8.43,0,0,0,238,613v10c-2.58-.72-4-1.48-4-2.27V605.27c0-1.13,1.4-2.22,4-3.25a59.63,59.63,0,0,1,10.41-2.73c1.89-.37,3.94-.71,6.15-1,3.5-.52,7.38-1,11.6-1.46q2.85-.3,5.91-.58c3.74-.34,7.72-.64,11.87-.91l4.85-.3c4.16-.24,8.5-.43,13-.6l4.86-.17c4.21-.13,8.55-.21,13-.28l4.87-.05q3.22,0,6.51,0t6.47,0l4.86.05c4.42.06,8.76.15,13,.28l4.86.16c4.47.17,8.8.37,13,.61,1.65.09,3.26.19,4.85.3,4.17.27,8.16.57,11.92.91q3,.28,5.87.58c4.23.45,8.13.93,11.64,1.46,2.19.33,4.23.68,6.1,1A59.76,59.76,0,0,1,424,602C426.55,603.05,428,604.14,428,605.27Z"/><path class="cls-3" d="M325.06,629.24h-.56c-1.63,0-3.26,0-4.88,0h-.55V609.81a11,11,0,0,0-2.76-7.76,4.34,4.34,0,0,0-3.15-1.36,5.31,5.31,0,0,0-4.13,2.72,12,12,0,0,0-1.81,6.56v19l-.56,0-2.61-.06-2.27-.05h-.54V610.07a10.27,10.27,0,0,0-2.69-7.41,4.24,4.24,0,0,0-3.19-1.27,5.5,5.5,0,0,0-4.15,2.71,11.31,11.31,0,0,0-1.8,6.3v18.08l-.57,0-4.88-.2-.53,0V610.55c0-2.93-.94-5.54-2.52-7a3.65,3.65,0,0,0-2.82-1,5.41,5.41,0,0,0-3.79,2.64,10.91,10.91,0,0,0-1.65,5.87v16.61l-.59,0-5.91-.4-.51,0V611.26a8.25,8.25,0,0,0-2.3-6.16,3.58,3.58,0,0,0-2.88-1,5.49,5.49,0,0,0-3.72,2.51,9.19,9.19,0,0,0-1.6,5.25v14.32l-.61-.06c-2.06-.21-4.13-.45-6.16-.73l-.48-.06V612.19a6.86,6.86,0,0,0-2-5.25,3,3,0,0,0-2.56-.72,5.34,5.34,0,0,0-3.33,2.31,7.91,7.91,0,0,0-1.42,4.48v10.71l-.69-.2c-3-.84-4.39-1.71-4.39-2.8V605.27c0-1.37,1.42-2.6,4.33-3.76a60,60,0,0,1,10.51-2.76c1.81-.35,3.82-.7,6.16-1,3.55-.53,7.46-1,11.63-1.47,2-.21,4-.4,5.92-.57,3.61-.33,7.49-.63,11.89-.92l4.85-.3c3.89-.22,8.14-.42,13-.6l4.86-.17c4.05-.12,8.29-.21,13-.28l4.87,0c4.25,0,8.74,0,13,0l4.87,0c4.15.05,8.4.14,13,.28l4.85.16c4.48.17,8.85.38,13,.61,1.62.09,3.25.19,4.85.3,4.39.29,8.29.59,11.93.91,1.92.18,4,.38,5.88.58,4.2.45,8.13.94,11.66,1.47,2.2.33,4.26.68,6.13,1a61.36,61.36,0,0,1,10.55,2.77c2.91,1.16,4.33,2.39,4.33,3.76v15.45c0,1.09-1.35,2-4.39,2.8l-.69.2V613c0-3.28-2.14-6.33-4.77-6.79a3.41,3.41,0,0,0-.55-.05c-2.29,0-4,2.59-4,6v13.19l-.47.07c-1.85.25-3.91.5-6.13.72l-.61.06V611.91c0-3.91-2.39-7.4-5.33-7.76l-.45,0a3.74,3.74,0,0,0-2.68,1.2,8.34,8.34,0,0,0-2.08,5.94c0,5.11,0,10.29,0,15.4v.51l-.51,0-5.87.4-.59,0V611c0-4.41-2.45-8.22-5.46-8.51h-.31c-2.83,0-5.05,3.52-5.05,8v17.68l-.52,0-4.89.21-.57,0V610.4c0-4.78-2.67-8.83-5.95-9h-.22c-3.12,0-5.67,3.9-5.67,8.69v18.81h-.53l-2.27.05-2.62.06-.56,0V610c0-5-2.66-9.18-5.94-9.28h-.1c-3.2,0-5.8,4.09-5.8,9.12v19.38h-.54c-1.62,0-3.25,0-4.9,0h-.55V609.78c0-5.13-2.65-9.31-5.92-9.32a5.13,5.13,0,0,0-4.12,2.65,12.39,12.39,0,0,0-1.8,6.67ZM331,599.36c3.88,0,7,4.69,7,10.43v18.34l3.79,0v-18.3c0-5.63,3.1-10.22,6.9-10.22h.12c3.88.12,7,4.77,7,10.38v17.92l2.05,0,1.74,0V610.07c0-5.49,3-9.79,6.76-9.79h.3c3.84.23,7,4.76,7,10.11v17l3.78-.17V610.55c0-5.12,2.7-9.13,6.15-9.13H384c3.56.33,6.46,4.64,6.46,9.6v15.44l4.77-.33c0-4.95,0-9.95,0-14.89a9.49,9.49,0,0,1,2.4-6.72,4.82,4.82,0,0,1,3.46-1.52c.19,0,.37,0,.55,0h0c3.48.43,6.3,4.4,6.3,8.85V625c1.79-.19,3.47-.39,5-.59V612.19c0-4.06,2.21-7.12,5.13-7.12a4.62,4.62,0,0,1,.74.06c3.13.55,5.68,4.09,5.68,7.88v9.25c2.85-.88,2.88-1.52,2.88-1.54V605.27c0-.48-.47-1.48-3.64-2.74a58.87,58.87,0,0,0-10.35-2.71c-1.85-.36-3.9-.71-6.08-1-3.52-.52-7.43-1-11.62-1.45-1.91-.21-3.95-.4-5.86-.58-3.63-.33-7.52-.63-11.91-.92l-4.84-.29c-4.13-.24-8.48-.44-13-.61l-4.85-.16c-4.58-.14-8.82-.23-13-.28l-4.87,0c-4.24,0-8.72,0-13,0l-4.86,0c-4.68.07-8.93.16-13,.28-1.63.05-3.25.1-4.85.17-4.83.18-9.07.38-13,.6l-4.84.29c-4.38.3-8.26.59-11.86.92-1.9.17-3.93.36-5.91.58-4.15.44-8.05.93-11.57,1.45-2.32.36-4.33.7-6.12,1.05a58.43,58.43,0,0,0-10.31,2.7c-3.17,1.26-3.64,2.26-3.64,2.74v15.45s0,.66,2.88,1.54V613a9,9,0,0,1,1.63-5.12,6.45,6.45,0,0,1,4-2.76,4.17,4.17,0,0,1,3.46,1,8,8,0,0,1,2.39,6.1v12.23c1.67.22,3.36.42,5,.6V611.91a10.46,10.46,0,0,1,1.79-5.88,6.59,6.59,0,0,1,4.49-3,4.65,4.65,0,0,1,3.74,1.21,9.34,9.34,0,0,1,2.68,7v14.89l4.81.33V611a12,12,0,0,1,1.83-6.47,6.39,6.39,0,0,1,4.61-3.13,4.7,4.7,0,0,1,3.67,1.32c1.8,1.64,2.87,4.56,2.87,7.79v16.63l3.78.16V610.4a12.3,12.3,0,0,1,2-6.91,6.55,6.55,0,0,1,5-3.2,5.34,5.34,0,0,1,4,1.58,11.35,11.35,0,0,1,3,8.2V627.8l1.74,0,2,0V610a13.2,13.2,0,0,1,2-7.17,6.39,6.39,0,0,1,5-3.21,5.41,5.41,0,0,1,3.95,1.68c1.94,1.88,3.09,5.07,3.09,8.54v18.3l3.79,0V609.78a13.44,13.44,0,0,1,2-7.27A6.19,6.19,0,0,1,331,599.36Z"/><path class="cls-2" d="M428,575.87v29.4c0-1.13-1.4-2.22-4-3.25V582.5c0-3.58-2.34-6.93-5.23-7.46A4.76,4.76,0,0,0,418,575c-2.53,0-4.48,2.38-4.48,5.63v18.68c-1.87-.36-3.91-.71-6.1-1V576.87c0-4.08-2.6-7.81-5.81-8.29a5.45,5.45,0,0,0-.68-.05c-2.89,0-5.15,2.82-5.15,6.61v21.64q-2.83-.3-5.87-.58V572.74c0-4.43-2.67-8.38-6-8.76a3.2,3.2,0,0,0-.52,0c-3.05,0-5.44,3.21-5.44,7.38v24c-1.59-.11-3.2-.21-4.85-.3V570.27c0-4.56-2.9-8.53-6.48-8.81h-.37c-3.4,0-6.11,3.43-6.11,7.86v25.07l-4.86-.16V568.74c0-4.65-2.91-8.59-6.49-8.72h-.2c-3.49,0-6.29,3.65-6.29,8.23v25.69l-4.86-.05V568.1c0-4.69-2.9-8.53-6.49-8.53a5.84,5.84,0,0,0-4.59,2.5,10.06,10.06,0,0,0-1.9,6v25.79l-4.87.05V568.26c0-4.67-2.9-8.37-6.48-8.23a6,6,0,0,0-4.59,2.66,10.21,10.21,0,0,0-1.9,6v25.48l-4.86.17V569.31c0-4.58-2.91-8.11-6.48-7.85a6.43,6.43,0,0,0-4.59,2.8,10.26,10.26,0,0,0-1.9,6V595l-4.85.3v-24c0-4.42-2.65-7.74-5.94-7.34a6.06,6.06,0,0,0-4.19,2.86,10.66,10.66,0,0,0-1.74,5.9V596.2q-3.06.28-5.91.58V575.14c0-4.08-2.6-7-5.8-6.56a6.29,6.29,0,0,0-4.1,2.8,9.7,9.7,0,0,0-1.7,5.49v21.37c-2.21.34-4.26.68-6.15,1V580.6c0-3.57-2.34-6.08-5.21-5.56a5.91,5.91,0,0,0-3.67,2.58A8.59,8.59,0,0,0,238,582.5V602c-2.58,1-4,2.12-4,3.25v-29.4c0-3,1.75-5.87,5-8.56a42.91,42.91,0,0,1,10.4-6c1.89-.82,4-1.61,6.15-2.37,3.52-1.2,7.39-2.32,11.58-3.35,1.92-.47,3.89-.91,5.94-1.33,3.75-.78,7.71-1.49,11.85-2.11,1.6-.24,3.2-.46,4.85-.68,4.17-.55,8.51-1,13-1.39,1.6-.13,3.21-.26,4.84-.37q6.33-.43,13-.63c3.42-.1,6.89-.16,10.4-.16C384.55,548.89,428,561,428,575.87Z"/><path class="cls-3" d="M428.5,605.27h-1.1c0-.48-.47-1.48-3.64-2.74l-.34-.14V582.5c0-3.34-2.14-6.44-4.77-6.92a4.14,4.14,0,0,0-.66-.06c-2.24,0-3.93,2.18-3.93,5.08V600l-.65-.13c-1.85-.36-3.9-.71-6.08-1l-.47-.07V576.87c0-3.84-2.4-7.31-5.34-7.74a4.28,4.28,0,0,0-.6,0c-2.62,0-4.6,2.61-4.6,6.06v22.25l-.61-.06c-1.91-.21-3.95-.4-5.86-.58l-.5,0v-24c0-4.18-2.46-7.87-5.47-8.22a3.44,3.44,0,0,0-.46,0c-2.74,0-4.89,3-4.89,6.83v24.55l-.59,0-4.84-.29-.52,0V570.27c0-4.3-2.68-8-6-8.26h-.33c-3.12,0-5.57,3.21-5.57,7.31V595l-.56,0-4.86-.16-.53,0v-26c0-4.39-2.68-8-6-8.17h-.18c-3.16,0-5.74,3.44-5.74,7.68V594.5h-.56l-4.86,0h-.54V568.1c0-4.41-2.67-8-5.94-8a5.28,5.28,0,0,0-4.15,2.29,9.51,9.51,0,0,0-1.79,5.7v26.34h-.55l-4.86,0h-.56V568.26a8.77,8.77,0,0,0-2.38-6.25,4.77,4.77,0,0,0-3.53-1.43A5.46,5.46,0,0,0,309,563a9.62,9.62,0,0,0-1.79,5.73v26l-.54,0c-1.63.05-3.25.1-4.85.17l-.57,0V569.31a8.12,8.12,0,0,0-2.32-6,4.66,4.66,0,0,0-3.57-1.33,5.86,5.86,0,0,0-4.19,2.58,9.76,9.76,0,0,0-1.79,5.68v25.24l-.52,0-4.84.29-.58,0V571.32a7.75,7.75,0,0,0-2.24-5.78,3.88,3.88,0,0,0-3.09-1,5.52,5.52,0,0,0-3.8,2.63,10,10,0,0,0-1.65,5.59v24l-.5,0c-1.9.17-3.93.36-5.91.58l-.6.06V575.14a6.62,6.62,0,0,0-2-5.08,3.82,3.82,0,0,0-3.14-.93,5.71,5.71,0,0,0-3.73,2.56,9.07,9.07,0,0,0-1.6,5.18v21.84l-.47.07c-2.32.36-4.33.7-6.12,1.05l-.66.12V580.6a5.5,5.5,0,0,0-1.73-4.28,3.37,3.37,0,0,0-2.83-.74,5.32,5.32,0,0,0-3.32,2.36,8,8,0,0,0-1.43,4.56v19.89l-.34.14c-3.17,1.26-3.64,2.26-3.64,2.74h-1.1v-29.4c0-3.1,1.74-6.12,5.18-9a43.15,43.15,0,0,1,10.53-6.11c1.78-.78,3.8-1.56,6.19-2.39,3.53-1.21,7.45-2.34,11.63-3.36,1.93-.48,3.93-.93,6-1.34,3.72-.78,7.72-1.49,11.88-2.11,1.5-.23,3.08-.45,4.86-.68,4.07-.54,8.45-1,13-1.4,1.83-.15,3.38-.27,4.86-.36,4.27-.3,8.64-.51,13-.64,3.4-.1,6.9-.16,10.41-.16,25.94,0,50.34,2.82,68.7,7.92,18.57,5.17,28.8,12.13,28.8,19.61ZM331,549.44c-3.49,0-7,.06-10.38.16-4.34.12-8.69.34-12.95.63-1.48.1-3,.21-4.84.37-4.54.38-8.9.85-13,1.39-1.77.23-3.35.45-4.83.67-4.14.63-8.12,1.33-11.83,2.11-2,.41-4,.86-5.91,1.33-4.16,1-8,2.13-11.54,3.33-2.36.82-4.36,1.59-6.11,2.36a42.36,42.36,0,0,0-10.27,5.94c-3.17,2.65-4.78,5.38-4.78,8.14v27.42a11,11,0,0,1,2.88-1.64V582.5a9.16,9.16,0,0,1,1.62-5.19,6.43,6.43,0,0,1,4-2.81,4.46,4.46,0,0,1,3.73,1A6.59,6.59,0,0,1,249,580.6v18c1.52-.28,3.18-.56,5-.85v-20.9a10.21,10.21,0,0,1,1.8-5.81,6.84,6.84,0,0,1,4.46-3,4.94,4.94,0,0,1,4,1.19,7.69,7.69,0,0,1,2.4,5.91v21c1.62-.17,3.26-.32,4.82-.47v-23a11.11,11.11,0,0,1,1.84-6.21,6.55,6.55,0,0,1,4.58-3.1,5,5,0,0,1,3.95,1.29,8.84,8.84,0,0,1,2.6,6.6V594.7l3.75-.22V570.27a10.76,10.76,0,0,1,2-6.33,7,7,0,0,1,5-3,5.81,5.81,0,0,1,4.4,1.62,9.2,9.2,0,0,1,2.68,6.78v24.51l3.76-.13v-25a10.68,10.68,0,0,1,2-6.38,6.56,6.56,0,0,1,5-2.88,5.86,5.86,0,0,1,4.33,1.74,9.72,9.72,0,0,1,2.72,7v25.12l3.77,0V568.1a10.69,10.69,0,0,1,2-6.37,6.35,6.35,0,0,1,5-2.71c3.88,0,7,4.07,7,9.08v25.24l3.76,0V568.25c0-4.84,3.07-8.78,6.84-8.78h.2c3.89.14,7,4.3,7,9.27v25l3.76.12v-24.5c0-4.72,2.92-8.41,6.66-8.41h.41c3.86.3,7,4.5,7,9.36v24.2l3.75.23V571.32c0-4.44,2.63-7.93,6-7.93a5.49,5.49,0,0,1,.6,0c3.54.41,6.43,4.59,6.43,9.31v23c1.57.15,3.2.3,4.77.47v-21c0-4.08,2.45-7.16,5.7-7.16a5,5,0,0,1,.76.06c3.46.51,6.28,4.47,6.28,8.83v20.9c1.77.27,3.45.55,5,.85v-18c0-3.52,2.15-6.18,5-6.18a5.38,5.38,0,0,1,.85.08c3.13.57,5.68,4.16,5.68,8v19.15a11,11,0,0,1,2.88,1.64V575.87c0-6.84-10.2-13.6-28-18.55C381.14,552.24,356.85,549.44,331,549.44Z"/><path class="cls-3" d="M307.08,550.27V537.18a14.24,14.24,0,0,1,2-7.47,6.51,6.51,0,0,1,5.05-3.42,5.21,5.21,0,0,1,3.88,1.59c2,1.88,3.16,5.15,3.16,8.73v13h-.53c-4.34.12-8.69.34-12.95.63Zm7.24-22.88h-.17a5.44,5.44,0,0,0-4.16,2.9,13.19,13.19,0,0,0-1.81,6.89V549.1c3.91-.27,7.9-.46,11.87-.58V536.61c0-3.29-1.05-6.26-2.82-7.94A4.21,4.21,0,0,0,314.32,527.39Z"/><path class="cls-3" d="M289.25,552.07V539.54q0-.43,0-.87a2.45,2.45,0,0,1,0-.27,5.73,5.73,0,0,1,.06-.61,1,1,0,0,1,0-.2,5.06,5.06,0,0,1,.08-.52,1.37,1.37,0,0,1,0-.19v0c0-.19.07-.38.11-.55v0c0-.21.09-.42.15-.64l0-.1c0-.09,0-.18.08-.27l.15-.49a12.24,12.24,0,0,1,.83-2,6.43,6.43,0,0,1,.37-.69c1.35-2.16,3.13-3.45,5-3.62a6.2,6.2,0,0,1,.76,0h0a5.21,5.21,0,0,1,.59.09,4.91,4.91,0,0,1,1.1.37,3.2,3.2,0,0,1,.33.16c.22.13.43.26.64.41l.3.24.19.17.07.07.29.29a8.4,8.4,0,0,1,1,1.27c.11.18.23.38.33.58l0,.07,0,.09c.09.18.19.37.27.57l.11.27a4.86,4.86,0,0,1,.23.59,13.21,13.21,0,0,1,.7,3.32c0,.21,0,.44.05.67s0,.47,0,.7v12.16l-.51.05c-4.54.38-8.9.85-13,1.39Zm7.44-22.52h-.35a5.92,5.92,0,0,0-4.18,3.1c-.11.19-.23.39-.32.59l0,0a11.79,11.79,0,0,0-.76,1.81c-.05.16-.09.3-.13.45l0,0-.06.2,0,.13c-.05.18-.09.37-.13.56v0c0,.17-.07.34-.1.5l0,.07a.07.07,0,0,1,0,0v.1c0,.17-.05.32-.07.47v0a.19.19,0,0,0,0,.08v.07c0,.2-.05.38-.06.56v0a1.21,1.21,0,0,0,0,.19v0c0,.28,0,.55,0,.82v11.28c3.75-.49,7.74-.91,11.89-1.28V538.39c0-.22,0-.43,0-.65s0-.42,0-.61a12.28,12.28,0,0,0-.65-3.08,4.18,4.18,0,0,0-.2-.51l-.11-.28c-.07-.16-.15-.32-.23-.48a.25.25,0,0,1,0-.07l-.05-.08a4.7,4.7,0,0,0-.29-.5,6.71,6.71,0,0,0-.87-1.11,2.49,2.49,0,0,0-.22-.23l-.09-.08-.14-.13,0,0-.21-.17a6.49,6.49,0,0,0-.55-.36l-.25-.12a4,4,0,0,0-.86-.29l-.45-.07Z"/><path class="cls-3" d="M272.55,554.9V543.33a14.05,14.05,0,0,1,1.81-7.05,6.62,6.62,0,0,1,4.58-3.56,5,5,0,0,1,1,0l.21,0a1.63,1.63,0,0,1,.36.07h0l.21.06a2.43,2.43,0,0,1,.38.13,3.15,3.15,0,0,1,.47.22,3.82,3.82,0,0,1,.45.27,5.16,5.16,0,0,1,.92.78l.36.4c.09.12.2.26.3.41a5.46,5.46,0,0,1,.42.64l0,0c.08.15.15.3.23.46s.15.3.24.49a11.69,11.69,0,0,1,.78,2.78c0,.18.05.36.07.54a13.85,13.85,0,0,1,.1,1.7v10.88l-.47.07c-4.13.63-8.11,1.33-11.82,2.11Zm7-21.12a3.13,3.13,0,0,0-.46,0,5.54,5.54,0,0,0-3.78,3,12.9,12.9,0,0,0-1.66,6.5v10.22c3.39-.69,7-1.33,10.75-1.9v-9.94a14.08,14.08,0,0,0-.09-1.58c0-.16,0-.33-.07-.49a10.36,10.36,0,0,0-.7-2.51c-.06-.14-.13-.28-.2-.42s-.16-.31-.24-.45a4.74,4.74,0,0,0-.35-.55c-.08-.12-.17-.24-.26-.35l-.3-.34a4.56,4.56,0,0,0-.75-.63,2.16,2.16,0,0,0-.31-.19l0,0a2.19,2.19,0,0,0-.35-.17l-.26-.09-.07,0-.12,0h0l-.2,0-.18,0Z"/><path class="cls-3" d="M255,559.68v-11a12.9,12.9,0,0,1,1.76-6.59,6.91,6.91,0,0,1,4.49-3.47,4.47,4.47,0,0,1,3.72,1c1.7,1.43,2.71,4.06,2.71,7V556l-.42.11c-4.15,1-8,2.13-11.53,3.33Zm7-20.08a3.66,3.66,0,0,0-.57,0,5.89,5.89,0,0,0-3.74,3,11.76,11.76,0,0,0-1.6,6v9.51c3.22-1.07,6.74-2.08,10.48-3v-8.48c0-2.65-.86-5-2.32-6.19A3.45,3.45,0,0,0,262,539.6Z"/><path class="cls-3" d="M238.48,568.49v-10a10.72,10.72,0,0,1,.75-3.93,10.19,10.19,0,0,1,.84-1.65,8.82,8.82,0,0,1,.83-1.09,5.86,5.86,0,0,1,3.2-1.95,4.26,4.26,0,0,1,3.59.91,7.23,7.23,0,0,1,2.29,5.66v5.21l-.33.15a42.36,42.36,0,0,0-10.27,5.94ZM245,550.87a3.66,3.66,0,0,0-.65.06,4.8,4.8,0,0,0-2.59,1.62,8.08,8.08,0,0,0-.73,1,8.3,8.3,0,0,0-.74,1.46,9.58,9.58,0,0,0-.67,3.52v7.69a45.55,45.55,0,0,1,9.3-5.25v-4.49a6.22,6.22,0,0,0-1.89-4.81A3.11,3.11,0,0,0,245,550.87Z"/><path class="cls-5" d="M260.39,597.45c-2,.26-4,.52-5.8.79V576.87a9.7,9.7,0,0,1,1.7-5.49,6.29,6.29,0,0,1,4.1-2.8h0V557.39c-1.67.49-3.28,1-4.81,1.52V548.63a12.3,12.3,0,0,1,1.68-6.3,7.13,7.13,0,0,1,3.13-2.92v-35.3c-16.33,9.32-26.34,21.86-26.34,35.66v81c0,.79,1.4,1.55,4,2.27V613a8.43,8.43,0,0,1,1.53-4.8,5.91,5.91,0,0,1,3.68-2.53c2.87-.51,5.2,2.42,5.2,6.51V624.9c1.89.25,3.94.5,6.15.73V611.91a9.87,9.87,0,0,1,1.7-5.57,6.1,6.1,0,0,1,4.1-2.74h0Zm-4.57-79.37c1.06-.7,2.16-1.39,3.28-2v19.67c-1.12.53-2.22,1.09-3.28,1.65ZM238,536.15a38.49,38.49,0,0,1,3.28-5v16.69a31.28,31.28,0,0,0-3.28,4Zm10.41,63.14A59.63,59.63,0,0,0,238,602V582.5a8.59,8.59,0,0,1,1.53-4.88,5.91,5.91,0,0,1,3.67-2.58c2.87-.52,5.21,2,5.21,5.56Zm1-38a42.91,42.91,0,0,0-10.4,6v-8.83a10.23,10.23,0,0,1,.71-3.73,8.68,8.68,0,0,1,.79-1.55,7.23,7.23,0,0,1,.78-1,5.31,5.31,0,0,1,2.9-1.78c2.88-.57,5.22,2.15,5.22,6Zm.77-20.63c-1.15.74-2.24,1.49-3.27,2.27V525c1-1,2.12-1.9,3.27-2.83Z"/><path class="cls-3" d="M295.86,497.23a1.33,1.33,0,0,1-.28-2.64l.43-.09a1.33,1.33,0,1,1,.57,2.6l-.44.1A1.33,1.33,0,0,1,295.86,497.23Z"/><path class="cls-3" d="M261.8,510.08a1.33,1.33,0,0,1-.67-2.48l.76-.44a1.33,1.33,0,1,1,1.33,2.31l-.75.43A1.25,1.25,0,0,1,261.8,510.08Z"/><path class="cls-3" d="M267.16,507.19a1.34,1.34,0,0,1-.6-2.53l.79-.39a1.32,1.32,0,0,1,1.78.6,1.33,1.33,0,0,1-.6,1.79l-.77.38A1.33,1.33,0,0,1,267.16,507.19Z"/><path class="cls-3" d="M272.68,504.61a1.33,1.33,0,0,1-.53-2.56l.8-.35a1.34,1.34,0,0,1,1.05,2.46l-.79.34A1.48,1.48,0,0,1,272.68,504.61Z"/><path class="cls-3" d="M278.33,502.33a1.33,1.33,0,0,1-.47-2.58l.82-.31a1.34,1.34,0,1,1,.92,2.51l-.81.3A1.24,1.24,0,0,1,278.33,502.33Z"/><path class="cls-3" d="M284.09,500.35a1.33,1.33,0,0,1-.4-2.61l.83-.26a1.33,1.33,0,1,1,.79,2.55l-.82.26A1.44,1.44,0,0,1,284.09,500.35Z"/><path class="cls-3" d="M289.93,498.65a1.31,1.31,0,0,1-1.28-1,1.33,1.33,0,0,1,.94-1.63l.86-.23a1.34,1.34,0,0,1,.66,2.59l-.83.21A1.06,1.06,0,0,1,289.93,498.65Z"/><path class="cls-3" d="M239.34,530.25a1.34,1.34,0,0,1-1.12-2l.49-.75a1.33,1.33,0,1,1,2.22,1.48l-.46.71A1.36,1.36,0,0,1,239.34,530.25Z"/><path class="cls-3" d="M243,525.36a1.28,1.28,0,0,1-.86-.32,1.32,1.32,0,0,1-.16-1.88c.19-.22.38-.45.58-.67a1.34,1.34,0,0,1,1.88-.13,1.32,1.32,0,0,1,.13,1.88l-.55.65A1.34,1.34,0,0,1,243,525.36Z"/><path class="cls-3" d="M247.14,520.93a1.34,1.34,0,0,1-.92-2.3l.65-.61a1.33,1.33,0,0,1,1.82,2l-.62.59A1.32,1.32,0,0,1,247.14,520.93Z"/><path class="cls-3" d="M256.64,513.33a1.33,1.33,0,0,1-.74-2.44l.73-.5a1.34,1.34,0,1,1,1.47,2.23l-.71.48A1.38,1.38,0,0,1,256.64,513.33Z"/><path class="cls-3" d="M251.82,516.9a1.36,1.36,0,0,1-1.15-.5,1.33,1.33,0,0,1,.21-1.87l.69-.55a1.34,1.34,0,1,1,1.65,2.1l-.67.53A1.29,1.29,0,0,1,251.82,516.9Z"/><path class="cls-3" d="M236.64,535.23a1.34,1.34,0,0,1-1.22-1.88l.19-.42a1.33,1.33,0,0,1,2.42,1.12l-.18.39A1.32,1.32,0,0,1,236.64,535.23Z"/><path class="cls-3" d="M378,552.3v19.06c0-4.17,2.39-7.39,5.44-7.39a3.2,3.2,0,0,1,.52,0c3.29.38,6,4.33,6,8.76v23.47c-3.76-.34-7.75-.65-11.92-.92v15.26c0-4.82,2.47-8.58,5.6-8.58l.36,0c3.29.31,6,4.38,6,9.05v16q3-.2,5.87-.41,0-7.7,0-15.4c0-4.36,2.33-7.69,5.31-7.69a4.73,4.73,0,0,1,.52,0c3.21.4,5.81,4.14,5.81,8.3v13.72c2.19-.22,4.24-.46,6.11-.72V612.23c0-3.78,2-6.58,4.58-6.58a3.47,3.47,0,0,1,.64.06c2.9.51,5.23,3.8,5.23,7.34v10c2.58-.72,4-1.49,4-2.28V575.9C428,565.75,407.78,556.9,378,552.3Zm29.43,46c-3.51-.52-7.41-1-11.64-1.46V575.17c0-3.79,2.26-6.61,5.15-6.61a4.08,4.08,0,0,1,.68.06c3.21.47,5.81,4.2,5.81,8.28ZM424,602.05a60.66,60.66,0,0,0-10.46-2.74V580.63c0-3.25,1.95-5.63,4.48-5.63a3.82,3.82,0,0,1,.75.08c2.89.52,5.23,3.87,5.23,7.45Z"/><path class="cls-3" d="M234.6,575.87h-1.1V563.75a21.34,21.34,0,0,1,4.08-12.2,32.53,32.53,0,0,1,3.33-4.07,44.85,44.85,0,0,1,5.69-5c1-.76,2.09-1.51,3.3-2.29,1.72-1.13,3.63-2.25,5.67-3.32,1.08-.57,2.19-1.13,3.29-1.66,1.79-.85,3.69-1.68,5.65-2.47,1-.4,2.06-.82,3.29-1.27,1.77-.66,3.61-1.29,5.65-1.94,1.15-.36,2.23-.69,3.28-1,1.87-.55,3.77-1.06,5.64-1.53,1-.25,2.15-.52,3.29-.77,1.82-.43,3.66-.81,5.64-1.19,1.06-.21,2.16-.41,3.28-.61,2-.35,3.87-.64,5.64-.89l3.28-.45c5.8-.73,11.76-1.23,17.71-1.48l.49,0,.84,5.09,9.28,22.76H331c-3.49,0-7,.06-10.38.16l-.57,0v-13c0-3.29-1.05-6.26-2.82-7.94a4.17,4.17,0,0,0-3.08-1.28,5.44,5.44,0,0,0-4.16,2.9,13.19,13.19,0,0,0-1.81,6.89v13l-.51,0c-1.48.1-3,.21-4.84.37l-.59,0V538.39c0-.22,0-.43,0-.65s0-.42,0-.61a12.28,12.28,0,0,0-.65-3.08,4.18,4.18,0,0,0-.2-.51l-.11-.28c-.07-.16-.15-.32-.23-.48a.25.25,0,0,1,0-.07l-.05-.08a4.7,4.7,0,0,0-.29-.5,6.71,6.71,0,0,0-.87-1.11,2.49,2.49,0,0,0-.22-.23l-.09-.08-.14-.13,0,0-.21-.17a6.49,6.49,0,0,0-.55-.36l-.25-.12a4,4,0,0,0-.86-.29l-.45-.07a5.74,5.74,0,0,0-.6,0,5.92,5.92,0,0,0-4.18,3.1c-.11.19-.23.39-.32.59l0,0a11.79,11.79,0,0,0-.76,1.81c-.05.16-.1.29-.13.42l0,.07-.06.2,0,.13c-.05.18-.09.37-.13.56v0c0,.17-.07.34-.1.5l0,.07a.07.07,0,0,1,0,0v.1c0,.17-.05.32-.07.47v0a.19.19,0,0,0,0,.08v.09a4,4,0,0,0-.06.54v0a1.21,1.21,0,0,0,0,.19v0c0,.28,0,.55,0,.82v12.39l-.48.06c-1.77.23-3.35.45-4.84.67l-.63.1v-11a14.08,14.08,0,0,0-.09-1.58c0-.16,0-.33-.07-.49a10.36,10.36,0,0,0-.7-2.51c-.06-.14-.13-.28-.2-.42s-.16-.31-.24-.45a4.74,4.74,0,0,0-.35-.55c-.08-.12-.17-.24-.26-.35l-.3-.34a4.56,4.56,0,0,0-.75-.63,2.16,2.16,0,0,0-.31-.19l0,0a2.19,2.19,0,0,0-.35-.17l-.26-.09-.07,0-.12,0h0l-.2,0-.18,0h-.32a3.13,3.13,0,0,0-.46,0,5.54,5.54,0,0,0-3.78,3,12.9,12.9,0,0,0-1.66,6.5v11.35l-.44.09c-2,.41-4,.86-5.91,1.33l-.69.16v-9.61c0-2.65-.86-5-2.32-6.19a3.42,3.42,0,0,0-2.82-.81,5.89,5.89,0,0,0-3.74,3,11.76,11.76,0,0,0-1.6,6V559.3l-.37.13c-2.36.82-4.36,1.59-6.11,2.36l-.77.33v-5.69a6.22,6.22,0,0,0-1.89-4.81,3.15,3.15,0,0,0-2.68-.69,4.8,4.8,0,0,0-2.59,1.62,8.08,8.08,0,0,0-.73,1,8.3,8.3,0,0,0-.74,1.46,9.58,9.58,0,0,0-.67,3.52v9.09l-.2.17C236.21,570.38,234.6,573.11,234.6,575.87Zm86.17-53.14c-5.76.26-11.52.75-17.13,1.46l-3.26.45c-1.76.24-3.6.53-5.61.89-1.11.19-2.2.39-3.26.6-2,.37-3.8.76-5.61,1.18-1.13.25-2.23.51-3.26.77-1.86.46-3.75,1-5.6,1.51-1.05.31-2.11.63-3.26,1-2,.64-3.85,1.27-5.6,1.92-1.22.45-2.29.86-3.25,1.26-1.95.78-3.83,1.61-5.6,2.45-1.08.51-2.18,1.06-3.25,1.63-2,1.06-3.88,2.16-5.58,3.27-1.19.77-2.25,1.5-3.24,2.25a42.69,42.69,0,0,0-5.55,4.88,30.39,30.39,0,0,0-3.22,3.93,20.31,20.31,0,0,0-3.89,11.58v7.91a15.91,15.91,0,0,1,3.88-4.6v-8.58a10.72,10.72,0,0,1,.75-3.93,10.19,10.19,0,0,1,.84-1.65,8.82,8.82,0,0,1,.83-1.09,5.86,5.86,0,0,1,3.2-1.95,4.26,4.26,0,0,1,3.59.91,7.23,7.23,0,0,1,2.29,5.66v4c1.49-.63,3.15-1.26,5.05-1.93v-9.89a12.9,12.9,0,0,1,1.76-6.59,6.91,6.91,0,0,1,4.49-3.47,4.47,4.47,0,0,1,3.72,1c1.7,1.43,2.71,4.06,2.71,7v8.21c1.58-.38,3.2-.74,4.84-1.08V543.33a14.05,14.05,0,0,1,1.81-7.05,6.62,6.62,0,0,1,4.58-3.56,5,5,0,0,1,1,0l.21,0a1.63,1.63,0,0,1,.36.07h0l.21.06a2.43,2.43,0,0,1,.38.13,3.15,3.15,0,0,1,.47.22,3.82,3.82,0,0,1,.45.27,5.16,5.16,0,0,1,.92.78l.36.4c.09.12.2.26.3.41a5.46,5.46,0,0,1,.42.64l0,0c.08.15.15.3.23.46s.15.3.24.49a11.69,11.69,0,0,1,.78,2.78c0,.18.05.36.07.54a13.85,13.85,0,0,1,.1,1.7v9.77l3.75-.52V539.54q0-.43,0-.87a2.45,2.45,0,0,1,0-.27,5.63,5.63,0,0,1,.06-.63.9.9,0,0,1,0-.18,5.06,5.06,0,0,1,.08-.52,1.37,1.37,0,0,1,0-.19v0c0-.19.07-.38.11-.55v0c0-.21.09-.42.15-.64l0-.1a2.58,2.58,0,0,1,.08-.26,5,5,0,0,1,.15-.5,12.24,12.24,0,0,1,.83-2,6.43,6.43,0,0,1,.37-.69c1.35-2.16,3.13-3.45,5-3.62a4.75,4.75,0,0,1,.76,0h0a5.21,5.21,0,0,1,.59.09,4.91,4.91,0,0,1,1.1.37,3.2,3.2,0,0,1,.33.16c.22.13.43.26.64.41l.3.24.19.17.07.07.29.29a8.4,8.4,0,0,1,1,1.27c.11.18.23.38.33.58l0,.07,0,.09c.09.18.19.37.27.57l.11.27a4.86,4.86,0,0,1,.23.59,13.21,13.21,0,0,1,.7,3.32c0,.21,0,.44.05.67s0,.47,0,.7v11.06l3.74-.28v-12a14.24,14.24,0,0,1,2-7.47,6.51,6.51,0,0,1,5.05-3.42,5.22,5.22,0,0,1,3.88,1.59c2,1.88,3.16,5.15,3.16,8.73v11.88c3-.09,6-.14,9-.15L321.48,527Z"/><path class="cls-3" d="M428.5,605.27h-1.1c0-.48-.47-1.48-3.64-2.74l-.34-.14V582.5c0-3.34-2.14-6.44-4.77-6.92a4.14,4.14,0,0,0-.66-.06c-2.24,0-3.93,2.18-3.93,5.08V600l-.65-.13c-1.85-.36-3.9-.71-6.08-1l-.47-.07V576.87c0-3.84-2.4-7.31-5.34-7.74a4.28,4.28,0,0,0-.6,0c-2.62,0-4.6,2.61-4.6,6.06v22.25l-.61-.06c-1.91-.21-3.95-.4-5.86-.58l-.5,0v-24c0-4.18-2.46-7.87-5.47-8.22a3.44,3.44,0,0,0-.46,0c-2.74,0-4.89,3-4.89,6.83v24.55l-.59,0-4.84-.29-.52,0V570.27c0-4.3-2.68-8-6-8.26h-.33c-3.12,0-5.57,3.21-5.57,7.31V595l-.56,0-4.86-.16-.53,0v-26c0-4.39-2.68-8-6-8.17h-.18c-3.16,0-5.74,3.44-5.74,7.68V594.5h-.56l-4.86,0h-.54V568.1c0-4.41-2.67-8-5.94-8a5.28,5.28,0,0,0-4.15,2.29,9.51,9.51,0,0,0-1.79,5.7v26.34h-.55l-4.86,0h-.56V568.26a8.77,8.77,0,0,0-2.38-6.25,4.77,4.77,0,0,0-3.53-1.43A5.46,5.46,0,0,0,309,563a9.62,9.62,0,0,0-1.79,5.73v26l-.54,0c-1.63.05-3.25.1-4.85.17l-.57,0V569.31a8.12,8.12,0,0,0-2.32-6,4.66,4.66,0,0,0-3.57-1.33,5.86,5.86,0,0,0-4.19,2.58,9.76,9.76,0,0,0-1.79,5.68v25.24l-.52,0-4.84.29-.58,0V571.32a7.75,7.75,0,0,0-2.24-5.78,3.88,3.88,0,0,0-3.09-1,5.52,5.52,0,0,0-3.8,2.63,10,10,0,0,0-1.65,5.59v24l-.5,0c-1.9.17-3.93.36-5.91.58l-.6.06V575.14a6.62,6.62,0,0,0-2-5.08,3.82,3.82,0,0,0-3.14-.93,5.71,5.71,0,0,0-3.73,2.56,9.07,9.07,0,0,0-1.6,5.18v21.84l-.47.07c-2.32.36-4.33.7-6.12,1.05l-.66.12V580.6a5.5,5.5,0,0,0-1.73-4.28,3.37,3.37,0,0,0-2.83-.74,5.32,5.32,0,0,0-3.32,2.36,8,8,0,0,0-1.43,4.56v19.89l-.34.14c-3.17,1.26-3.64,2.26-3.64,2.74h-1.1v-29.4c0-3.1,1.74-6.12,5.18-9a43.15,43.15,0,0,1,10.53-6.11c1.78-.78,3.8-1.56,6.19-2.39,3.53-1.21,7.45-2.34,11.63-3.36,1.93-.48,3.93-.93,6-1.34,3.72-.78,7.72-1.49,11.88-2.11,1.5-.23,3.08-.45,4.86-.68,4.07-.54,8.45-1,13-1.4,1.83-.15,3.38-.27,4.86-.36,4.27-.3,8.64-.51,13-.64,3.4-.1,6.9-.16,10.41-.16,25.94,0,50.34,2.82,68.7,7.92,18.57,5.17,28.8,12.13,28.8,19.61ZM331,549.44c-3.49,0-7,.06-10.38.16-4.34.12-8.69.34-12.95.63-1.48.1-3,.21-4.84.37-4.54.38-8.9.85-13,1.39-1.77.23-3.35.45-4.83.67-4.14.63-8.12,1.33-11.83,2.11-2,.41-4,.86-5.91,1.33-4.16,1-8,2.13-11.54,3.33-2.36.82-4.36,1.59-6.11,2.36a42.36,42.36,0,0,0-10.27,5.94c-3.17,2.65-4.78,5.38-4.78,8.14v27.42a11,11,0,0,1,2.88-1.64V582.5a9.16,9.16,0,0,1,1.62-5.19,6.43,6.43,0,0,1,4-2.81,4.46,4.46,0,0,1,3.73,1A6.59,6.59,0,0,1,249,580.6v18c1.52-.28,3.18-.56,5-.85v-20.9a10.21,10.21,0,0,1,1.8-5.81,6.84,6.84,0,0,1,4.46-3,4.94,4.94,0,0,1,4,1.19,7.69,7.69,0,0,1,2.4,5.91v21c1.62-.17,3.26-.32,4.82-.47v-23a11.11,11.11,0,0,1,1.84-6.21,6.55,6.55,0,0,1,4.58-3.1,5,5,0,0,1,3.95,1.29,8.84,8.84,0,0,1,2.6,6.6V594.7l3.75-.22V570.27a10.76,10.76,0,0,1,2-6.33,7,7,0,0,1,5-3,5.81,5.81,0,0,1,4.4,1.62,9.2,9.2,0,0,1,2.68,6.78v24.51l3.76-.13v-25a10.68,10.68,0,0,1,2-6.38,6.56,6.56,0,0,1,5-2.88,5.86,5.86,0,0,1,4.33,1.74,9.72,9.72,0,0,1,2.72,7v25.12l3.77,0V568.1a10.69,10.69,0,0,1,2-6.37,6.35,6.35,0,0,1,5-2.71c3.88,0,7,4.07,7,9.08v25.24l3.76,0V568.25c0-4.84,3.07-8.78,6.84-8.78h.2c3.89.14,7,4.3,7,9.27v25l3.76.12v-24.5c0-4.72,2.92-8.41,6.66-8.41h.41c3.86.3,7,4.5,7,9.36v24.2l3.75.23V571.32c0-4.44,2.63-7.93,6-7.93a5.49,5.49,0,0,1,.6,0c3.54.41,6.43,4.59,6.43,9.31v23c1.57.15,3.2.3,4.77.47v-21c0-4.08,2.45-7.16,5.7-7.16a5,5,0,0,1,.76.06c3.46.51,6.28,4.47,6.28,8.83v20.9c1.77.27,3.45.55,5,.85v-18c0-3.52,2.15-6.18,5-6.18a5.38,5.38,0,0,1,.85.08c3.13.57,5.68,4.16,5.68,8v19.15a11,11,0,0,1,2.88,1.64V575.87c0-6.84-10.2-13.6-28-18.55C381.14,552.24,356.85,549.44,331,549.44Z"/><path class="cls-3" d="M325.06,629.24h-.56c-1.63,0-3.26,0-4.88,0h-.55V609.81a11,11,0,0,0-2.76-7.76,4.34,4.34,0,0,0-3.15-1.36,5.31,5.31,0,0,0-4.13,2.72,12,12,0,0,0-1.81,6.56v19l-.56,0-2.61-.06-2.27-.05h-.54V610.07a10.27,10.27,0,0,0-2.69-7.41,4.24,4.24,0,0,0-3.19-1.27,5.5,5.5,0,0,0-4.15,2.71,11.31,11.31,0,0,0-1.8,6.3v18.08l-.57,0-4.88-.2-.53,0V610.55c0-2.93-.94-5.54-2.52-7a3.65,3.65,0,0,0-2.82-1,5.41,5.41,0,0,0-3.79,2.64,10.91,10.91,0,0,0-1.65,5.87v16.61l-.59,0-5.91-.4-.51,0V611.26a8.25,8.25,0,0,0-2.3-6.16,3.58,3.58,0,0,0-2.88-1,5.49,5.49,0,0,0-3.72,2.51,9.19,9.19,0,0,0-1.6,5.25v14.32l-.61-.06c-2.06-.21-4.13-.45-6.16-.73l-.48-.06V612.19a6.86,6.86,0,0,0-2-5.25,3,3,0,0,0-2.56-.72,5.34,5.34,0,0,0-3.33,2.31,7.91,7.91,0,0,0-1.42,4.48v10.71l-.69-.2c-3-.84-4.39-1.71-4.39-2.8V605.27c0-1.37,1.42-2.6,4.33-3.76a60,60,0,0,1,10.51-2.76c1.81-.35,3.82-.7,6.16-1,3.55-.53,7.46-1,11.63-1.47,2-.21,4-.4,5.92-.57,3.61-.33,7.49-.63,11.89-.92l4.85-.3c3.89-.22,8.14-.42,13-.6l4.86-.17c4.05-.12,8.29-.21,13-.28l4.87,0c4.25,0,8.74,0,13,0l4.87,0c4.15.05,8.4.14,13,.28l4.85.16c4.48.17,8.85.38,13,.61,1.62.09,3.25.19,4.85.3,4.39.29,8.29.59,11.93.91,1.92.18,4,.38,5.88.58,4.2.45,8.13.94,11.66,1.47,2.2.33,4.26.68,6.13,1a61.36,61.36,0,0,1,10.55,2.77c2.91,1.16,4.33,2.39,4.33,3.76v15.45c0,1.09-1.35,2-4.39,2.8l-.69.2V613c0-3.28-2.14-6.33-4.77-6.79a3.41,3.41,0,0,0-.55-.05c-2.29,0-4,2.59-4,6v13.19l-.47.07c-1.85.25-3.91.5-6.13.72l-.61.06V611.91c0-3.91-2.39-7.4-5.33-7.76l-.45,0a3.74,3.74,0,0,0-2.68,1.2,8.34,8.34,0,0,0-2.08,5.94c0,5.11,0,10.29,0,15.4v.51l-.51,0-5.87.4-.59,0V611c0-4.41-2.45-8.22-5.46-8.51h-.31c-2.83,0-5.05,3.52-5.05,8v17.68l-.52,0-4.89.21-.57,0V610.4c0-4.78-2.67-8.83-5.95-9h-.22c-3.12,0-5.67,3.9-5.67,8.69v18.81h-.53l-2.27.05-2.62.06-.56,0V610c0-5-2.66-9.18-5.94-9.28h-.1c-3.2,0-5.8,4.09-5.8,9.12v19.38h-.54c-1.62,0-3.25,0-4.9,0h-.55V609.78c0-5.13-2.65-9.31-5.92-9.32a5.13,5.13,0,0,0-4.12,2.65,12.39,12.39,0,0,0-1.8,6.67ZM331,599.36c3.88,0,7,4.69,7,10.43v18.34l3.79,0v-18.3c0-5.63,3.1-10.22,6.9-10.22h.12c3.88.12,7,4.77,7,10.38v17.92l2.05,0,1.74,0V610.07c0-5.49,3-9.79,6.76-9.79h.3c3.84.23,7,4.76,7,10.11v17l3.78-.17V610.55c0-5.12,2.7-9.13,6.15-9.13H384c3.56.33,6.46,4.64,6.46,9.6v15.44l4.77-.33c0-4.95,0-9.95,0-14.89a9.49,9.49,0,0,1,2.4-6.72,4.82,4.82,0,0,1,3.46-1.52c.19,0,.37,0,.55,0h0c3.48.43,6.3,4.4,6.3,8.85V625c1.79-.19,3.47-.39,5-.59V612.19c0-4.06,2.21-7.12,5.13-7.12a4.62,4.62,0,0,1,.74.06c3.13.55,5.68,4.09,5.68,7.88v9.25c2.85-.88,2.88-1.52,2.88-1.54V605.27c0-.48-.47-1.48-3.64-2.74a58.87,58.87,0,0,0-10.35-2.71c-1.85-.36-3.9-.71-6.08-1-3.52-.52-7.43-1-11.62-1.45-1.91-.21-3.95-.4-5.86-.58-3.63-.33-7.52-.63-11.91-.92l-4.84-.29c-4.13-.24-8.48-.44-13-.61l-4.85-.16c-4.58-.14-8.82-.23-13-.28l-4.87,0c-4.24,0-8.72,0-13,0l-4.86,0c-4.68.07-8.93.16-13,.28-1.63.05-3.25.1-4.85.17-4.83.18-9.07.38-13,.6l-4.84.29c-4.38.3-8.26.59-11.86.92-1.9.17-3.93.36-5.91.58-4.15.44-8.05.93-11.57,1.45-2.32.36-4.33.7-6.12,1.05a58.43,58.43,0,0,0-10.31,2.7c-3.17,1.26-3.64,2.26-3.64,2.74v15.45s0,.66,2.88,1.54V613a9,9,0,0,1,1.63-5.12,6.45,6.45,0,0,1,4-2.76,4.17,4.17,0,0,1,3.46,1,8,8,0,0,1,2.39,6.1v12.23c1.67.22,3.36.42,5,.6V611.91a10.46,10.46,0,0,1,1.79-5.88,6.59,6.59,0,0,1,4.49-3,4.65,4.65,0,0,1,3.74,1.21,9.34,9.34,0,0,1,2.68,7v14.89l4.81.33V611a12,12,0,0,1,1.83-6.47,6.39,6.39,0,0,1,4.61-3.13,4.7,4.7,0,0,1,3.67,1.32c1.8,1.64,2.87,4.56,2.87,7.79v16.63l3.78.16V610.4a12.3,12.3,0,0,1,2-6.91,6.55,6.55,0,0,1,5-3.2,5.34,5.34,0,0,1,4,1.58,11.35,11.35,0,0,1,3,8.2V627.8l1.74,0,2,0V610a13.2,13.2,0,0,1,2-7.17,6.39,6.39,0,0,1,5-3.21,5.41,5.41,0,0,1,3.95,1.68c1.94,1.88,3.09,5.07,3.09,8.54v18.3l3.79,0V609.78a13.44,13.44,0,0,1,2-7.27A6.19,6.19,0,0,1,331,599.36Z"/><path class="cls-2" d="M321.23,522.16c-6.07.26-12,.77-17.66,1.49-1.1.14-2.19.28-3.27.44-1.91.27-3.78.57-5.63.89l-3.27.61q-2.86.54-5.62,1.18c-1.1.25-2.2.51-3.27.78-1.92.48-3.79,1-5.62,1.52-1.12.32-2.2.65-3.28,1Q270.72,531,268,532c-1.11.41-2.2.83-3.27,1.27q-2.94,1.18-5.62,2.46c-1.12.53-2.22,1.09-3.28,1.65-2,1-3.87,2.14-5.62,3.29-1.15.74-2.24,1.49-3.27,2.27a43.67,43.67,0,0,0-5.62,4.94,31.28,31.28,0,0,0-3.28,4,20.88,20.88,0,0,0-4,11.89V551a30.36,30.36,0,0,1,4-14.8,38.49,38.49,0,0,1,3.28-5,49.4,49.4,0,0,1,5.62-6.17c1-1,2.12-1.9,3.27-2.83,1.75-1.41,3.63-2.78,5.62-4.09,1.06-.7,2.16-1.39,3.28-2q2.68-1.6,5.62-3.07c1.07-.55,2.16-1.07,3.27-1.59q2.73-1.23,5.62-2.39c1.08-.43,2.16-.83,3.28-1.24q2.75-1,5.62-1.88c1.07-.34,2.17-.66,3.27-1,1.84-.52,3.71-1,5.62-1.47l3.27-.74c1.85-.4,3.72-.78,5.63-1.12,1.08-.19,2.18-.38,3.27-.55l2.2-.34,7.36,15.63,7.47,2.09Z"/><path class="cls-3" d="M234.6,551h-1.1V539.77c0-10.82,6-21.2,17.39-30,11.05-8.57,26.37-15.12,44.32-18.93l.32-.07,2.57,3.06h5l3.45,7.3-.74.11c-.73.11-1.46.21-2.18.33-1,.16-2.07.34-3.27.56-1.8.32-3.63.68-5.6,1.1-1.13.25-2.23.5-3.26.75-1.86.45-3.74.94-5.6,1.46-1.05.3-2.16.63-3.26,1-1.83.57-3.66,1.18-5.6,1.88-1.13.41-2.2.81-3.25,1.23-1.89.75-3.77,1.55-5.6,2.38-1.22.57-2.28,1.08-3.25,1.58-1.9.95-3.78,2-5.59,3-1.1.64-2.19,1.32-3.25,2a68.79,68.79,0,0,0-5.58,4.06c-1.1.89-2.17,1.81-3.25,2.81a50,50,0,0,0-5.56,6.09,39.38,39.38,0,0,0-3.22,4.91A29.76,29.76,0,0,0,234.6,551Zm60.52-59c-17.65,3.79-32.71,10.24-43.56,18.65-11.09,8.61-17,18.69-17,29.16V543a32.79,32.79,0,0,1,3-7.13,39.86,39.86,0,0,1,3.32-5,50.63,50.63,0,0,1,5.68-6.23c1.11-1,2.19-2,3.31-2.85,1.78-1.44,3.69-2.83,5.66-4.13,1.08-.71,2.19-1.41,3.3-2.06,1.83-1.08,3.73-2.12,5.65-3.08,1-.5,2.06-1,3.29-1.59,1.85-.85,3.75-1.66,5.65-2.41,1.07-.42,2.14-.83,3.29-1.24,2-.7,3.8-1.32,5.64-1.9l3.29-1c1.87-.52,3.77-1,5.64-1.47,1.05-.25,2.15-.5,3.29-.75,2-.43,3.82-.79,5.64-1.12l3.29-.55,1.46-.23-2.51-5.33h-4.86Z"/><path class="cls-4" d="M303.57,501v22.64c-1.1.14-2.19.28-3.27.44V501.56C301.38,501.37,302.48,501.18,303.57,501Z"/><path class="cls-4" d="M294.67,502.68V525l-3.27.61V503.42Z"/><path class="cls-4" d="M285.78,504.89v21.88c-1.1.25-2.2.51-3.27.78V505.87C283.58,505.53,284.68,505.21,285.78,504.89Z"/><path class="cls-4" d="M276.89,507.75v21.32c-1.12.32-2.2.65-3.28,1V509C274.69,508.56,275.77,508.16,276.89,507.75Z"/><path class="cls-4" d="M268,511.38V532c-1.11.41-2.2.83-3.27,1.27V513C265.79,512.42,266.88,511.9,268,511.38Z"/><path class="cls-4" d="M259.1,516v19.67c-1.12.53-2.22,1.09-3.28,1.65V518.08C256.88,517.38,258,516.69,259.1,516Z"/><path class="cls-4" d="M250.2,522.17v18.48c-1.15.74-2.24,1.49-3.27,2.27V525C248,524,249.05,523.1,250.2,522.17Z"/><path class="cls-4" d="M241.31,531.17v16.69a31.28,31.28,0,0,0-3.28,4V536.15A38.49,38.49,0,0,1,241.31,531.17Z"/><path class="cls-3" d="M234.6,563.75h-1.1V551a30.83,30.83,0,0,1,4.05-15.07,39.86,39.86,0,0,1,3.32-5,50.63,50.63,0,0,1,5.68-6.23c1.11-1,2.19-2,3.31-2.85,1.78-1.44,3.69-2.83,5.66-4.13,1.08-.71,2.19-1.41,3.3-2.06,1.83-1.08,3.73-2.12,5.65-3.08,1-.5,2.06-1,3.29-1.59,1.85-.85,3.75-1.66,5.65-2.41,1.07-.42,2.14-.83,3.29-1.24,2-.7,3.8-1.32,5.64-1.9l3.29-1c1.87-.52,3.77-1,5.64-1.47,1.05-.25,2.15-.5,3.29-.75,2-.43,3.82-.79,5.64-1.12l3.29-.55,2.2-.34.4-.06,7.43,15.77,7.57,2.12.79,4.73-.62,0c-5.92.25-11.85.75-17.62,1.48l-3.26.45c-1.76.24-3.6.53-5.61.89-1.11.19-2.2.39-3.26.6-2,.37-3.8.76-5.61,1.18-1.13.25-2.23.51-3.26.77-1.86.46-3.75,1-5.6,1.51-1.05.31-2.11.63-3.26,1-2,.64-3.85,1.27-5.6,1.92-1.22.45-2.29.86-3.25,1.26-1.95.78-3.83,1.61-5.6,2.45-1.08.51-2.18,1.06-3.25,1.63-2,1.06-3.88,2.16-5.58,3.27-1.19.77-2.25,1.5-3.24,2.25a42.69,42.69,0,0,0-5.55,4.88,30.39,30.39,0,0,0-3.22,3.93A20.31,20.31,0,0,0,234.6,563.75Zm70.84-62.47c-.6.08-1.19.17-1.78.27-1,.16-2.07.34-3.27.56-1.8.32-3.63.68-5.6,1.1-1.13.25-2.23.5-3.26.75-1.86.45-3.74.94-5.6,1.46-1.05.3-2.16.63-3.26,1-1.83.57-3.66,1.18-5.6,1.88-1.13.41-2.2.81-3.25,1.23-1.89.75-3.77,1.55-5.6,2.38-1.22.57-2.28,1.08-3.25,1.58-1.9.95-3.78,2-5.59,3-1.1.64-2.19,1.32-3.25,2a68.79,68.79,0,0,0-5.58,4.06c-1.1.89-2.17,1.81-3.25,2.81a50,50,0,0,0-5.56,6.09,39.38,39.38,0,0,0-3.22,4.91A29.76,29.76,0,0,0,234.6,551v6.4a24.58,24.58,0,0,1,3-5.8,32.53,32.53,0,0,1,3.33-4.07,44.85,44.85,0,0,1,5.69-5c1-.76,2.09-1.51,3.3-2.29,1.72-1.13,3.63-2.25,5.67-3.32,1.08-.57,2.19-1.13,3.29-1.66,1.79-.85,3.69-1.68,5.65-2.47,1-.4,2.06-.82,3.29-1.27,1.77-.66,3.61-1.29,5.65-1.94,1.15-.36,2.23-.69,3.28-1,1.87-.55,3.77-1.06,5.64-1.53,1-.25,2.15-.52,3.29-.77,1.82-.43,3.66-.81,5.64-1.19,1.06-.21,2.16-.41,3.28-.61,2-.35,3.87-.64,5.64-.89l3.28-.45c5.6-.71,11.35-1.2,17.09-1.46l-.47-2.81-7.38-2.07Z"/><rect class="cls-1" x="-9" width="240" height="240"/><ellipse class="cls-6" cx="92.05" cy="167.52" rx="5.02" ry="9.54" transform="translate(-87.02 234.38) rotate(-81.69)"/><path class="cls-3" d="M93.93,173.09a19.06,19.06,0,0,1-2.67-.19,15.26,15.26,0,0,1-6.65-2.51c-1.77-1.29-2.63-2.83-2.42-4.31.44-3,5.12-4.75,10.64-3.94a15.33,15.33,0,0,1,6.65,2.5c1.78,1.3,2.64,2.83,2.42,4.32C101.54,171.47,98.22,173.09,93.93,173.09Zm-3.67-10.3c-3.84,0-6.94,1.36-7.24,3.41-.17,1.16.57,2.41,2.09,3.52a14.5,14.5,0,0,0,6.27,2.35c4.9.71,9.34-.77,9.7-3.23.17-1.17-.57-2.42-2.09-3.52A14.37,14.37,0,0,0,92.71,163,15.89,15.89,0,0,0,90.26,162.79Z"/><path class="cls-3" d="M92.39,173a8.59,8.59,0,0,1-1.13-.08c-3.53-.52-6-3.35-5.61-6.32h0A5,5,0,0,1,88.11,163a7.11,7.11,0,0,1,4.72-.89c3.53.52,6,3.35,5.62,6.31A5,5,0,0,1,96,172,6.92,6.92,0,0,1,92.39,173Zm-5.91-6.28c-.37,2.51,1.83,4.92,4.9,5.37a6.27,6.27,0,0,0,4.17-.78,4.18,4.18,0,0,0,2.07-3c.37-2.51-1.83-4.91-4.91-5.36a6.2,6.2,0,0,0-4.16.78,4.15,4.15,0,0,0-2.07,2.95Z"/><path class="cls-3" d="M91.43,172.91h-.17c-1.5-.22-1.9-3.11-1.52-5.72a10.64,10.64,0,0,1,1.12-3.57c.58-1.05,1.29-1.57,2-1.47,1.5.22,1.91,3.11,1.53,5.71a10.7,10.7,0,0,1-1.12,3.58C92.7,172.39,92.07,172.91,91.43,172.91ZM92.67,163c-.31,0-.72.4-1.08,1.06a9.46,9.46,0,0,0-1,3.28c-.41,2.78.21,4.68.81,4.77.31.05.74-.36,1.13-1a10,10,0,0,0,1-3.29c.41-2.77-.21-4.68-.82-4.76Z"/><rect class="cls-6" x="91.16" y="159.95" width="3.62" height="2.62" transform="translate(24.29 -11.74) rotate(8.31)"/><path class="cls-3" d="M94.92,163.29l-4.41-.65.5-3.42,4.41.65Zm-3.46-1.35,2.75.4.26-1.77-2.75-.4Z"/><path class="cls-6" d="M95.44,159.5a22.41,22.41,0,0,1-12.63-4.78c-4.46-3.64-12.16-12.59-13.65-31.61C68,107.68,70.77,95,76.91,88.39a14.09,14.09,0,0,1,10.68-4.83,19.86,19.86,0,0,1,6.91,1.35c1.13.42,4.94,3.31,6.84,23a247.41,247.41,0,0,1-.07,43,32.77,32.77,0,0,0,0,5.06C100.55,158.31,98.6,159.5,95.44,159.5Z"/><path class="cls-3" d="M87.59,82.16V85A18.57,18.57,0,0,1,94,86.22c.06,0,1.56.63,3.18,6A85.94,85.94,0,0,1,100,108a246.37,246.37,0,0,1-.06,42.77,33.6,33.6,0,0,0-.07,5c-.29.88-1.12,2.31-4.38,2.31a20.88,20.88,0,0,1-11.75-4.47A32.61,32.61,0,0,1,74.27,140a59.81,59.81,0,0,1-3.72-17,69.49,69.49,0,0,1,1.15-20.46c1.28-5.62,3.44-10.19,6.23-13.21A12.77,12.77,0,0,1,87.59,85V82.16m0,0c-14,0-21.69,17.2-19.81,41.06.91,11.64,4.76,24.91,14.15,32.58,3.43,2.8,9,5.1,13.51,5.1,3.46,0,6.32-1.34,7.19-4.81a31.77,31.77,0,0,1,0-5.07c2.53-28.49.19-64.48-7.67-67.41a21.22,21.22,0,0,0-7.4-1.45Z"/><path class="cls-5" d="M16.06,108.77l-2.56-4.94c2.25-1.26,15.91-8.88,27.24-14.32,1.89-1.88,2.16-4.43,2.4-8.26.21-3.37.45-7.18,2.76-10.49,4.65-6.65,22.2-21.09,22.95-21.71l3.53,4.31C67.47,57.39,54,69,50.46,74c-1.41,2-1.59,4.76-1.77,7.65a41,41,0,0,1-.45,4.51,30.16,30.16,0,0,1,6.65-2.17c7.21-.91,28.84.71,35.67,1.61,8.25,1.09,15.53,3.32,24.06,2.38a64.7,64.7,0,0,0,21.54-6.6c8.25-4.1,14.53-9.42,24.19-9.53,17-.2,30.75,12.77,47.57,12.41a13.62,13.62,0,0,1,.56,3.67c-.46,1.27-1,1.25-2.19,1.68-3.59,1.31-8.08-.35-11.38-1.73-8-3.35-14.73-6-23.41-6.9-7.56-.82-16.15-1.92-23.16,1.79-7.27,3.84-21.34,7-31.87,7.84-11.38.91-23,1-26.64.51-6.85-.9-27.73-2.43-34.25-1.61-1.84.23-6.25,2.1-11.71,4.72a14.66,14.66,0,0,1-2,1.38C33.56,100.39,16.77,108.43,16.06,108.77Z"/><path class="cls-2" d="M123.72,189.55a5.94,5.94,0,0,1-2.23-.43,13.92,13.92,0,0,1-6.13-4.12c-1.52-1.88-2.76-4.63-4-8.91-.92-3.13-3-6.18-4.93-9.12-2.36-3.54-4.81-7.2-5.14-10.78a14,14,0,0,0,0-5.22,251.22,251.22,0,0,0,0-43.37c-1-10.58-2.74-17.92-5.13-21.94a93.91,93.91,0,0,0,12.2.82c11.48,0,22.38-.7,28.46-5.22.7.54,0,0,2.39,2,10.05,11.3,6.28,27.9,2,42.58-1,3.45-2,6.53-2.94,9.52-4.32,13.7-7.45,23.59-7,45.06a9.68,9.68,0,0,1-2.64,7A6.9,6.9,0,0,1,123.72,189.55Z"/><path class="cls-3" d="M136.66,82.9c.75.59,0,0,1.63,1.34,9.49,10.76,5.8,26.89,1.59,41.18-1,3.43-2,6.51-2.92,9.49-4.37,13.82-7.53,23.81-7.11,45.51a8.28,8.28,0,0,1-2.25,6,5.51,5.51,0,0,1-3.88,1.78,4.64,4.64,0,0,1-1.71-.33c-4.91-2-7-4-9.33-12.13-1-3.33-3.08-6.47-5.11-9.51-2.22-3.32-4.52-6.75-4.89-9.92a15.67,15.67,0,0,0,0-5.35,252.22,252.22,0,0,0,0-43.46c-1-10.13-2.53-16.31-4.13-20.12a94.3,94.3,0,0,0,9.81.53c11.25,0,22-.68,28.25-5m3.57-.67s-3.13-2.56-3.13-2.56c-7,5.68-19.87,5.42-28.69,5.42a89.6,89.6,0,0,1-16.18-1.48c7.86,2.93,10.2,38.92,7.67,67.41a12.7,12.7,0,0,1,0,5.07c.5,7.1,8.16,13.67,10.14,20.39,2.58,8.82,5.15,11.59,11,13.93a7.47,7.47,0,0,0,2.75.54c4.71,0,9-4.6,8.91-10.59-.49-25.88,4.25-34.9,9.92-54.15,4.11-13.93,8.56-31.86-2.32-44a39.54,39.54,0,0,0-3.13-2.56Z"/><path class="cls-3" d="M130.74,88.66a3.56,3.56,0,0,0,1-.25,2.57,2.57,0,0,0,.73-.48,1.53,1.53,0,0,0,.42-.67,1.65,1.65,0,0,0,0-.83,1.7,1.7,0,0,0-.25-.59,2.27,2.27,0,0,0-.48-.5,2.46,2.46,0,0,0-.63-.38,2.55,2.55,0,0,0-.73-.2,1.58,1.58,0,0,0-.53,0,1.66,1.66,0,0,0-.48.19,1.54,1.54,0,0,0-.37.35,1.4,1.4,0,0,0-.24.47l-.31-.15a3.31,3.31,0,0,1,.16-.83,1.65,1.65,0,0,1,.37-.62,1.36,1.36,0,0,1,.64-.34,2.25,2.25,0,0,1,.94,0,4.5,4.5,0,0,1,1,.29,5.5,5.5,0,0,1,1,.51,3.35,3.35,0,0,1,.74.65,1.84,1.84,0,0,1,.4.77,1,1,0,0,1,0,.45,1.59,1.59,0,0,1-.2.5,3.4,3.4,0,0,1-.39.5,3,3,0,0,1-.5.45,2.94,2.94,0,0,1,.77.39,2.91,2.91,0,0,1,.62.59,2.55,2.55,0,0,1,.39.7,1.52,1.52,0,0,1,.07.73,2.83,2.83,0,0,1-.59,1.39,4.87,4.87,0,0,1-1.21,1.08,7.59,7.59,0,0,1-1.59.78,10.22,10.22,0,0,1-1.81.46,2.23,2.23,0,0,1-1.14,0,.39.39,0,0,1-.21-.54.88.88,0,0,1,.17-.28,1.57,1.57,0,0,1,.25-.2,1.39,1.39,0,0,1,.28-.12l.27-.06a1.21,1.21,0,0,1,.57,0,1.69,1.69,0,0,1,.33.19,2.07,2.07,0,0,0,.32.19,1.07,1.07,0,0,0,.53,0A3.3,3.3,0,0,0,132,93a3.16,3.16,0,0,0,.77-.49,2.41,2.41,0,0,0,.56-.64,2,2,0,0,0,.3-.72,1.72,1.72,0,0,0,0-.88,1.55,1.55,0,0,0-.5-.7,2.82,2.82,0,0,0-1-.48,4.57,4.57,0,0,0-1.36-.18Z"/><path class="cls-3" d="M134.69,114.12l-4.49.28c.06-.32.12-.64.16-1a31.68,31.68,0,0,0,4-6.46l.92.11a11.61,11.61,0,0,1,.88,6l1.33,0q-.06.48-.15,1L136,114a11.79,11.79,0,0,1-.72,2.3l-1.37.17A12.73,12.73,0,0,0,134.69,114.12Zm-3.38-.9,3.54-.13a12.15,12.15,0,0,0-.38-4.68A32.9,32.9,0,0,1,131.31,113.22Z"/><path class="cls-3" d="M130.27,136.69l-3.14-.34c-.34.41-.67.84-1,1.28a5.17,5.17,0,0,1,1.69.4,5,5,0,0,1,1.34.83,4.05,4.05,0,0,1,.93,1.14,3.67,3.67,0,0,1,.41,1.39,2.85,2.85,0,0,1-.17,1.3,3.49,3.49,0,0,1-.69,1.15,4.28,4.28,0,0,1-1.17.9,4.65,4.65,0,0,1-1.59.52,3.22,3.22,0,0,1-.75,0,2.88,2.88,0,0,1-.64-.14,1.36,1.36,0,0,1-.46-.27.79.79,0,0,1-.24-.38.4.4,0,0,1,.1-.44.77.77,0,0,1,.44-.18,1.12,1.12,0,0,1,.52.06l.48.21a2.86,2.86,0,0,0,.54.19,1.64,1.64,0,0,0,.71,0,2,2,0,0,0,.84-.29,2,2,0,0,0,.61-.57,2.14,2.14,0,0,0,.36-.76,2.62,2.62,0,0,0,.06-.89,2.44,2.44,0,0,0-.43-1.14,3.09,3.09,0,0,0-1-.9,5.46,5.46,0,0,0-1.5-.63,9,9,0,0,0-2-.29,21,21,0,0,1,2.85-3.74l3.78.54C130.86,136,130.56,136.35,130.27,136.69Z"/><path class="cls-3" d="M124.41,165.62a9.33,9.33,0,0,0-1.59,1.15,17.17,17.17,0,0,0-1.49,1.46,14.07,14.07,0,0,0-1.19,1.52,6.1,6.1,0,0,0-.72,1.45l.46-.29c.16-.09.32-.18.5-.26a3.94,3.94,0,0,1,.55-.22,2.87,2.87,0,0,1,.61-.12,1.68,1.68,0,0,1,1,.15,2.3,2.3,0,0,1,.81.7,4.57,4.57,0,0,1,.61,1.19,7.53,7.53,0,0,1,.39,1.52,6.26,6.26,0,0,1,.07,1.7,2.06,2.06,0,0,1-.39,1.12,1.08,1.08,0,0,1-.9.36,3.47,3.47,0,0,1-1.37-.39,9.35,9.35,0,0,1-1.6-1,9.45,9.45,0,0,1-1.31-1.13,4.89,4.89,0,0,1-.83-1.1,2.12,2.12,0,0,1-.27-1.06,2.86,2.86,0,0,1,.29-1.12,5.42,5.42,0,0,1,.72-1.15,14,14,0,0,1,1.07-1.24c.42-.43.88-.86,1.38-1.3s1-.85,1.59-1.25a12.15,12.15,0,0,1,1.72-1C124.46,165.42,124.44,165.52,124.41,165.62Zm-5,5.94a4.86,4.86,0,0,0-.1.55c0,.19,0,.37,0,.55a4,4,0,0,0,.2,1.07,4.11,4.11,0,0,0,.51,1,4.77,4.77,0,0,0,.8.89,4,4,0,0,0,1,.66,1.17,1.17,0,0,0,.67.13.58.58,0,0,0,.43-.3,1.63,1.63,0,0,0,.18-.7,5.48,5.48,0,0,0-.08-1,9.6,9.6,0,0,0-.35-1.38,5.21,5.21,0,0,0-.49-1.11,2.3,2.3,0,0,0-.6-.69,1.17,1.17,0,0,0-.72-.21l-.34.06a2.91,2.91,0,0,0-.39.12,3.39,3.39,0,0,0-.39.18A2.77,2.77,0,0,0,119.38,171.56Z"/><path class="cls-3" d="M107.88,151.5a13.6,13.6,0,0,0-2.66,10l-1.16-.26a14.12,14.12,0,0,1,2.41-8.61l-4,.65q.55-.54,1.17-1.08l4.34-.94Z"/><path class="cls-3" d="M114.38,103c.44-1.24.82-2.54,1.15-3.84s.61-2.61.83-3.93a38,38,0,0,0,.47-4,27.66,27.66,0,0,0,0-4h0l-.35-2.55L117.81,87a11.9,11.9,0,0,1,.6,1.08c.19.36.35.73.51,1.1.08.18.16.36.23.55l.21.56c.13.38.29.75.4,1.13l.35,1.14.17.58.14.58c.18.77.41,1.54.53,2.32a55.6,55.6,0,0,1,1,9.44l0,2.37c0,.79,0,1.58-.07,2.37s-.07,1.57-.12,2.36-.15,1.57-.23,2.35l-.26,2.34c-.09.79-.24,1.56-.36,2.34-.26,1.54-.47,3.1-.82,4.63l-.92,4.61c-.35,1.52-.7,3-1,4.58l-.24,1.14-.22,1.14-.23,1.13-.11.57-.09.57-.33,2.28-.2,2.3a46,46,0,0,0,.26,9.17,37.2,37.2,0,0,0,.89,4.47c.08.37.2.73.31,1.09s.22.71.35,1.07.25.69.39,1,.29.69.43,1l-2.54,1.13c-.17-.46-.27-.83-.39-1.24s-.21-.79-.3-1.19-.18-.79-.26-1.18-.16-.79-.22-1.19l-.19-1.19-.14-1.19c-.06-.39-.09-.79-.13-1.19s-.07-.79-.1-1.19a59,59,0,0,1,.19-9.49l.28-2.34.38-2.34c0-.19.06-.39.1-.58l.12-.58.25-1.15.49-2.3c.32-1.51.62-3,.91-4.56.15-.76.25-1.53.36-2.29l.32-2.31c.23-1.53.33-3.07.48-4.61l.1-1.16c0-.38.09-.76.1-1.15l.13-2.31c0-.77.11-1.54.13-2.31s0-1.53.06-2.3c.08-1.54,0-3.07,0-4.61,0-.77,0-1.53-.07-2.3l0-1.14c0-.39,0-.77-.06-1.15l-.19-2.29c-.06-.76-.18-1.52-.27-2.28-.2-1.51-.46-3-.79-4.5-.07-.38-.18-.74-.27-1.11l-.14-.55c0-.19-.11-.37-.16-.55-.11-.36-.22-.73-.34-1.08s-.26-.72-.39-1l1-.33h0a28.77,28.77,0,0,1,.05,4.15,40,40,0,0,1-.48,4.09c-.23,1.35-.52,2.69-.85,4s-.72,2.64-1.18,4Z"/><path class="cls-3" d="M105.51,116.6a3.1,3.1,0,0,1,.95-.45,1,1,0,0,1,.75.06,1.15,1.15,0,0,1,.51.57,2.63,2.63,0,0,1,.21,1,2.68,2.68,0,0,1-.14.88,4.62,4.62,0,0,1-.41.94,3.84,3.84,0,0,1-.63.8,2.92,2.92,0,0,1-.77.54,4.62,4.62,0,0,1,1.08.9,8.44,8.44,0,0,1,.85,1.14,7.47,7.47,0,0,1,.58,1.17,4.45,4.45,0,0,1,.28,1,3.06,3.06,0,0,1-.07,1.31,1.15,1.15,0,0,1-.6.73,1.5,1.5,0,0,1-1,0,5.64,5.64,0,0,1-1.41-.71,14.79,14.79,0,0,1-1.49-1.11q-.68-.57-1.14-1.05a5.35,5.35,0,0,1-.69-.84.89.89,0,0,1-.17-.62.76.76,0,0,1,.23-.42,2.28,2.28,0,0,1,.5-.33l.7-.32.89-.42-.81-.56a2.88,2.88,0,0,1-.5-.41.81.81,0,0,1-.24-.37.9.9,0,0,1,0-.46,2,2,0,0,1,.32-.69,7.19,7.19,0,0,1,.6-.79,8.56,8.56,0,0,1,.78-.83A6.46,6.46,0,0,1,105.51,116.6Zm-.71,5.09a6.23,6.23,0,0,0-.58.44,4,4,0,0,0-.41.43,2,2,0,0,0-.25.4,1.1,1.1,0,0,0-.09.38,1.31,1.31,0,0,0,.14.64,4.14,4.14,0,0,0,.45.71,6.9,6.9,0,0,0,.71.74,5,5,0,0,0,.87.66,3.88,3.88,0,0,0,.86.41,1.36,1.36,0,0,0,.67.06.62.62,0,0,0,.41-.31,1,1,0,0,0,.09-.61,2.84,2.84,0,0,0-.16-.6,6.86,6.86,0,0,0-.3-.69,4.6,4.6,0,0,0-.4-.64,4.08,4.08,0,0,0-.43-.54A18.77,18.77,0,0,0,104.8,121.69Zm.85-1a4.25,4.25,0,0,0,.93-1.29,3.83,3.83,0,0,0,.33-1.63,1.44,1.44,0,0,0-.09-.58.77.77,0,0,0-.28-.35.64.64,0,0,0-.44-.06,1.87,1.87,0,0,0-.6.24,3.21,3.21,0,0,0-.56.43c-.17.17-.33.35-.47.52a4.45,4.45,0,0,0-.33.52,1.45,1.45,0,0,0-.17.46.74.74,0,0,0,.09.5,2,2,0,0,0,.38.41c.17.13.35.26.57.4Z"/><path class="cls-3" d="M100.3,99.48a6.31,6.31,0,0,0,1.35-1,14.84,14.84,0,0,0,2.4-2.8,6,6,0,0,0,.73-1.46l-.47.27c-.16.08-.32.17-.49.24a4.76,4.76,0,0,1-.53.19,3.68,3.68,0,0,1-.61.11,1.79,1.79,0,0,1-1-.2,2.7,2.7,0,0,1-.83-.76,5.49,5.49,0,0,1-.63-1.21,7,7,0,0,1-.39-1.46,5,5,0,0,1,0-1.63,1.92,1.92,0,0,1,.51-1.09,1.43,1.43,0,0,1,1-.38,3.89,3.89,0,0,1,1.51.35,8.68,8.68,0,0,1,1.62.91,8.79,8.79,0,0,1,1.31,1.12,4.25,4.25,0,0,1,.8,1.12,1.92,1.92,0,0,1,.19,1.11,3.4,3.4,0,0,1-.41,1.18,8.44,8.44,0,0,1-.83,1.21,15.23,15.23,0,0,1-1.1,1.26c-.41.43-.83.84-1.28,1.25a16.35,16.35,0,0,1-1.4,1.12,7.85,7.85,0,0,1-1.45.82Zm4.64-5.69c0-.18.08-.38.12-.59s0-.43.06-.64a3,3,0,0,0-.18-1.06,4.15,4.15,0,0,0-.52-1,5.5,5.5,0,0,0-.81-.87,3.56,3.56,0,0,0-1-.59,1.5,1.5,0,0,0-.84-.12.72.72,0,0,0-.47.38,1.59,1.59,0,0,0-.17.74,4.27,4.27,0,0,0,.06.93,10.13,10.13,0,0,0,.29,1.4,4.85,4.85,0,0,0,.43,1.09,1.92,1.92,0,0,0,.6.68,1.46,1.46,0,0,0,.84.21,1.44,1.44,0,0,0,.4-.06,3.38,3.38,0,0,0,.42-.13l.4-.17A3.4,3.4,0,0,0,104.94,93.79Z"/><rect class="cls-1" x="714" y="440" width="240" height="240"/><path class="cls-2" d="M868.07,523.53a34.73,34.73,0,1,0-68.16-.11,29.5,29.5,0,0,1-2.75,19.43,80.08,80.08,0,0,0-8.83,37.35c0,34.9,20.45,57.77,45.67,57.77s45.67-22.87,45.67-57.77a80.08,80.08,0,0,0-8.83-37.35A29.26,29.26,0,0,1,868.07,523.53Z"/><path class="cls-7" d="M834,638.75c-12.71,0-24.39-5.71-32.9-16.08-8.74-10.67-13.55-25.75-13.55-42.47a80.63,80.63,0,0,1,8.92-37.72,28.8,28.8,0,0,0,2.67-18.91,36,36,0,0,1-.65-6.81A35.51,35.51,0,0,1,834,481.25h.25a35.61,35.61,0,0,1,35.26,36,36.1,36.1,0,0,1-.67,6.4l-.77-.15.77.15a28.42,28.42,0,0,0,2.69,18.8,80.63,80.63,0,0,1,8.92,37.72c0,16.72-4.81,31.8-13.55,42.47C858.39,633,846.71,638.75,834,638.75Zm0-155.94a33.94,33.94,0,0,0-34,33.95,34.52,34.52,0,0,0,.62,6.51,30.27,30.27,0,0,1-2.83,19.94,79.23,79.23,0,0,0-8.73,37c0,16.36,4.68,31.09,13.2,41.48,8.2,10,19.45,15.51,31.69,15.51s23.49-5.51,31.69-15.51c8.52-10.39,13.2-25.12,13.2-41.48a79.23,79.23,0,0,0-8.73-37,30,30,0,0,1-2.85-19.83h0a34.93,34.93,0,0,0,.64-6.13,34.08,34.08,0,0,0-33.71-34.44Z"/><path class="cls-3" d="M877.1,559.26l-9.06-.37-4.39-8.36-11.75,2.29-7.68-6.93L834,550.75l-10.22-4.86-7.69,6.93-11.74-2.29L800,558.89l-9.06.37c.47-1.87,1-3.71,1.61-5.49l2.3-.1,5.05-9.61,13.53,2.63,8.85-8L834,544.3l11.76-5.6,8.85,8,13.53-2.63,5.05,9.61,2.3.1C876.09,555.55,876.63,557.39,877.1,559.26Z"/><path class="cls-5" d="M878.12,560.08l-10.56-.43-4.33-8.24-11.56,2.25-7.58-6.85L834,551.61l-10.09-4.8-7.58,6.85-11.56-2.25-4.33,8.24-10.56.43.26-1c.48-1.89,1-3.76,1.63-5.55l.17-.51,2.39-.1,5.11-9.73,13.71,2.67,9-8.08L834,543.43l11.89-5.66,9,8.08,13.72-2.67,5.11,9.73,2.39.1.17.51c.61,1.8,1.15,3.66,1.63,5.55Zm-85-5.56c-.42,1.28-.81,2.59-1.16,3.92l7.56-.31,4.45-8.47L815.86,552l7.78-7L834,549.89,844.36,545l7.78,7,11.93-2.32,4.45,8.47,7.56.31c-.35-1.33-.74-2.64-1.16-3.92l-2.21-.09-5-9.5-13.34,2.6-8.76-7.9L834,545.16l-11.62-5.53-8.76,7.9-13.34-2.6-5,9.5Z"/><circle class="cls-5" cx="834" cy="513.96" r="21.56"/><path class="cls-4" d="M834,536.3A22.34,22.34,0,1,1,856.34,514,22.36,22.36,0,0,1,834,536.3Zm0-43.12A20.79,20.79,0,1,0,854.78,514,20.8,20.8,0,0,0,834,493.18Z"/><path class="cls-6" d="M833.88,492.4a21.55,21.55,0,0,1-21.44,21.45A21.56,21.56,0,0,1,833.88,492.4Z"/><path class="cls-4" d="M812,514.32v-.48a22.08,22.08,0,0,1,21.91-21.9h.47v.48a22.08,22.08,0,0,1-21.91,21.9Zm21.44-21.44a21.15,21.15,0,0,0-20.49,20.49A21.16,21.16,0,0,0,833.41,492.88Z"/><path class="cls-8" d="M855.56,513.85A21.57,21.57,0,0,1,834,492.4,21.56,21.56,0,0,1,855.56,513.85Z"/><path class="cls-4" d="M856,514.32h-.47a22.1,22.1,0,0,1-22-21.92v-.47H834a22.09,22.09,0,0,1,22,21.92Zm-21.55-21.45a21.15,21.15,0,0,0,20.6,20.51A21.14,21.14,0,0,0,834.48,492.87Z"/><ellipse class="cls-9" cx="824.59" cy="516.93" rx="4.96" ry="3.94"/><circle class="cls-3" cx="824.33" cy="516.15" r="2.99"/><circle class="cls-10" cx="823.84" cy="515.43" r="1.49"/><ellipse class="cls-9" cx="843.41" cy="516.15" rx="4.96" ry="3.94"/><circle class="cls-3" cx="843.15" cy="515.38" r="2.99"/><circle class="cls-10" cx="842.65" cy="514.66" r="1.49"/><circle class="cls-8" cx="821.79" cy="524.93" r="2.88"/><circle class="cls-8" cx="846.21" cy="524.93" r="2.88"/><path class="cls-2" d="M830.08,526.79c0,2,1.91,3.1,3.92,3.1s3.92-1.09,3.92-3.1-2.84-2.43-3.92-.94C832.93,524.3,830.08,524.77,830.08,526.79Z"/><polygon class="cls-4" points="833.84 550.75 833.84 629.18 816.16 552.61 823.61 545.89 833.84 550.75"/><path class="cls-5" d="M834.61,636l-19.32-83.68,8.19-7.38,11.13,5.3ZM817,552.88l16,69.46v-71.1l-9.3-4.43Z"/><path class="cls-4" d="M859.59,617.17c-7.42,7.6-16.25,12-25.71,12h0Z"/><path class="cls-5" d="M833.88,630h-3.56l32.82-15.3-3,3.05C852.32,625.73,843.24,630,833.88,630Zm21.53-10L838,628.12A35,35,0,0,0,855.41,620Z"/><path class="cls-4" d="M833.83,629.18l-45.31-56h0a83,83,0,0,1,2.29-14l8.75-.36Z"/><path class="cls-5" d="M837.53,635,787.74,573.5v-.34a85.06,85.06,0,0,1,2.31-14.09l.15-.57,9.83-.4Zm-48.21-62,40.81,50.4-31-63.67-7.66.31A82.8,82.8,0,0,0,789.32,573Z"/><polygon class="cls-4" points="868.11 558.9 833.84 629.18 851.51 552.61 851.74 552.82 863.49 550.53 867.87 558.89 868.11 558.9"/><path class="cls-5" d="M831.54,635.67l19.51-84.53.92.84,11.94-2.32,4.44,8.47,1,0Zm20.56-82.13-16,69.15,31-63.55-4.06-7.73Z"/><path class="cls-4" d="M879.48,576a98.73,98.73,0,0,1-7.86,23.66l-37.79,29.52L879.29,573C879.37,574,879.44,575,879.48,576Z"/><path class="cls-5" d="M828.92,634l51-63,.16,1.94c.09,1,.15,2,.19,3v.1l0,.09A99.31,99.31,0,0,1,872.32,600l-.08.16-.14.11Zm49.74-58.94-39.91,49.28L871,599.16a98,98,0,0,0,7.7-23.22C878.69,575.65,878.67,575.36,878.66,575.07Z"/><path class="cls-4" d="M833.83,629.18l-25.6-11.94a67.19,67.19,0,0,1-12-17.47Z"/><path class="cls-5" d="M839.71,632.78l-31.93-14.89-.1-.1a67.48,67.48,0,0,1-12.19-17.68l-1.49-3Zm-31-16.18,19.27,9-29.43-23A63.64,63.64,0,0,0,808.69,616.6Z"/><path class="cls-3" d="M834,629.18c-21.25,0-39.27-22.21-45.57-53,0,1.22-.07,2.44-.07,3.68C788.33,615,808.78,638,834,638s45.67-23,45.67-58.07c0-1.33,0-2.65-.08-4C873.34,606.83,855.28,629.18,834,629.18Z"/><path class="cls-5" d="M834,638.59c-12.66,0-24.31-5.73-32.78-16.11-8.72-10.69-13.52-25.82-13.52-42.59,0-1.21,0-2.46.08-3.71l.21-5.1,1,5c3.11,15.19,9,28.24,17,37.75s17.8,14.73,27.92,14.73,19.82-5.13,28-14.82,13.94-22.68,17-37.94l1-5,.23,5.1c.06,1.32.09,2.67.09,4,0,16.77-4.8,31.9-13.52,42.59C858.31,632.86,846.66,638.59,834,638.59Zm-45-57.14c.29,15.86,5,30.1,13.23,40.24s19.53,15.65,31.81,15.65,23.58-5.56,31.81-15.65,13-24.55,13.23-40.53c-3.33,13.29-8.86,24.75-16.14,33.38-8.4,10-18.41,15.26-28.93,15.26s-20.48-5.24-28.87-15.17C797.85,606.06,792.32,594.66,789,581.45Z"/><path class="cls-3" d="M834,540.26a1.56,1.56,0,0,1-1.56-1.56h0a1.56,1.56,0,0,1,1.56-1.56h0a1.56,1.56,0,0,1,1.56,1.56h0a1.56,1.56,0,0,1-1.56,1.56Zm4-1.82a1.56,1.56,0,0,1,1.17-1.87h0a1.56,1.56,0,0,1,1.87,1.18h0a1.56,1.56,0,0,1-1.18,1.86h0a1.32,1.32,0,0,1-.34,0h0A1.56,1.56,0,0,1,838,538.44Zm-9.83,1.17h0a1.57,1.57,0,0,1-1.18-1.87h0a1.55,1.55,0,0,1,1.87-1.17h0a1.55,1.55,0,0,1,1.17,1.86h0a1.55,1.55,0,0,1-1.52,1.21h0A2,2,0,0,1,828.14,539.61Zm15.17-2.67a1.57,1.57,0,0,1,.73-2.08h0a1.56,1.56,0,0,1,2.08.73h0a1.55,1.55,0,0,1-.72,2.08h0a1.51,1.51,0,0,1-.68.16h0A1.57,1.57,0,0,1,843.31,536.94Zm-20.73.72a1.56,1.56,0,0,1-.73-2.08h0a1.56,1.56,0,0,1,2.08-.73h0a1.56,1.56,0,0,1,.73,2.08h0a1.56,1.56,0,0,1-1.41.88h0A1.63,1.63,0,0,1,822.58,537.66Zm25.61-3.37a1.57,1.57,0,0,1,.25-2.19h0a1.55,1.55,0,0,1,2.19.25h0a1.55,1.55,0,0,1-.25,2.19h0a1.54,1.54,0,0,1-1,.33h0A1.54,1.54,0,0,1,848.19,534.29Zm-30.59.23h0a1.55,1.55,0,0,1-.25-2.19h0a1.57,1.57,0,0,1,2.19-.25h0a1.56,1.56,0,0,1,.25,2.2h0a1.57,1.57,0,0,1-1.22.58h0A1.53,1.53,0,0,1,817.6,534.52Zm34.76-3.9a1.56,1.56,0,0,1-.25-2.19h0a1.57,1.57,0,0,1,2.2-.24h0a1.56,1.56,0,0,1,.24,2.19h0a1.57,1.57,0,0,1-1.22.58h0A1.53,1.53,0,0,1,852.36,530.62Zm-38.92-.26a1.56,1.56,0,0,1,.24-2.19h0a1.56,1.56,0,0,1,2.19.24h0a1.56,1.56,0,0,1-.24,2.19h0a1.56,1.56,0,0,1-1,.35h0A1.56,1.56,0,0,1,813.44,530.36Zm42.17-4.24a1.55,1.55,0,0,1-.73-2.08h0a1.55,1.55,0,0,1,2.08-.72h0a1.56,1.56,0,0,1,.73,2.08h0a1.56,1.56,0,0,1-1.41.88h0A1.44,1.44,0,0,1,855.61,526.12Zm-45.31-.74a1.56,1.56,0,0,1,.73-2.09h0a1.56,1.56,0,0,1,2.08.73h0a1.56,1.56,0,0,1-.73,2.08h0a1.63,1.63,0,0,1-.67.15h0A1.57,1.57,0,0,1,810.3,525.38ZM857.77,521a1.56,1.56,0,0,1-1.17-1.87h0a1.57,1.57,0,0,1,1.87-1.18h0a1.57,1.57,0,0,1,1.17,1.87h0a1.58,1.58,0,0,1-1.52,1.22h0A2.09,2.09,0,0,1,857.77,521Zm-49.42-1.21a1.56,1.56,0,0,1,1.18-1.86h0a1.56,1.56,0,0,1,1.87,1.17h0a1.55,1.55,0,0,1-1.17,1.87h0a1.39,1.39,0,0,1-.35,0h0A1.58,1.58,0,0,1,808.35,519.81Zm50.39-4.26a1.56,1.56,0,0,1-1.56-1.56h0a1.56,1.56,0,0,1,1.56-1.56h0A1.56,1.56,0,0,1,860.3,514h0a1.56,1.56,0,0,1-1.56,1.56Zm-51-1.59v0h0v0h0a1.55,1.55,0,0,1,1.56-1.55h0a1.56,1.56,0,0,1,1.56,1.56h0v0h0v0h0a1.56,1.56,0,0,1-1.56,1.56h0A1.56,1.56,0,0,1,807.7,514Zm48.91-5.13a1.57,1.57,0,0,1,1.18-1.87h0a1.56,1.56,0,0,1,1.86,1.18h0a1.57,1.57,0,0,1-1.17,1.87h0a2.21,2.21,0,0,1-.35,0h0A1.58,1.58,0,0,1,856.61,508.83Zm-47.07,1.09a1.56,1.56,0,0,1-1.17-1.87h0a1.56,1.56,0,0,1,1.87-1.17h0a1.56,1.56,0,0,1,1.17,1.87h0a1.56,1.56,0,0,1-1.52,1.21h0A1.39,1.39,0,0,1,809.54,509.92Zm45.36-6a1.56,1.56,0,0,1,.73-2.08h0a1.56,1.56,0,0,1,2.08.73h0a1.55,1.55,0,0,1-.73,2.08h0a1.43,1.43,0,0,1-.67.15h0A1.56,1.56,0,0,1,854.9,503.93Zm-43.85.65a1.56,1.56,0,0,1-.73-2.08h0a1.57,1.57,0,0,1,2.09-.72h0a1.55,1.55,0,0,1,.72,2.08h0a1.56,1.56,0,0,1-1.4.88h0A1.51,1.51,0,0,1,811.05,504.58Zm41.09-5.05a1.57,1.57,0,0,1,.25-2.19h0a1.57,1.57,0,0,1,2.19.25h0a1.55,1.55,0,0,1-.25,2.19h0a1.53,1.53,0,0,1-1,.34h0A1.55,1.55,0,0,1,852.14,499.53Zm-38.43.19a1.57,1.57,0,0,1-.24-2.2h0a1.56,1.56,0,0,1,2.19-.24h0a1.57,1.57,0,0,1,.24,2.2h0a1.56,1.56,0,0,1-1.21.58h0A1.56,1.56,0,0,1,813.71,499.72Zm34.77-3.86h0a1.56,1.56,0,0,1-.24-2.19h0a1.56,1.56,0,0,1,2.19-.25h0a1.57,1.57,0,0,1,.24,2.2h0a1.57,1.57,0,0,1-1.22.58h0A1.55,1.55,0,0,1,848.48,495.86Zm-31.09-.3a1.56,1.56,0,0,1,.25-2.19h0a1.56,1.56,0,0,1,2.19.25h0a1.55,1.55,0,0,1-.25,2.19h0a1.55,1.55,0,0,1-1,.34h0A1.55,1.55,0,0,1,817.39,495.56Zm26.7-2.47a1.56,1.56,0,0,1-.72-2.09h0a1.55,1.55,0,0,1,2.08-.72h0a1.56,1.56,0,0,1,.72,2.08h0a1.56,1.56,0,0,1-1.4.89h0A1.65,1.65,0,0,1,844.09,493.09Zm-22.19-.77a1.56,1.56,0,0,1,.73-2.08h0a1.56,1.56,0,0,1,2.08.73h0a1.56,1.56,0,0,1-.73,2.08h0a1.51,1.51,0,0,1-.68.16h0A1.56,1.56,0,0,1,821.9,492.32Zm17.3-.95A1.56,1.56,0,0,1,838,489.5h0a1.54,1.54,0,0,1,1.86-1.17h0a1.56,1.56,0,0,1,1.18,1.86h0a1.57,1.57,0,0,1-1.52,1.22h0A2,2,0,0,1,839.2,491.37ZM827,490.17a1.56,1.56,0,0,1,1.17-1.86h0a1.56,1.56,0,0,1,1.87,1.17h0a1.56,1.56,0,0,1-1.18,1.87h0a2,2,0,0,1-.35,0h0A1.55,1.55,0,0,1,827,490.17Zm7,.61a1.56,1.56,0,0,1-1.56-1.56h0a1.56,1.56,0,0,1,1.57-1.56h0a1.56,1.56,0,0,1,1.55,1.56h0a1.56,1.56,0,0,1-1.56,1.56Z"/><rect class="cls-1" x="494" width="240" height="240"/><path class="cls-8" d="M655.29,200.63a9.89,9.89,0,0,1-11.12,0V171.39h11.12Z"/><path class="cls-6" d="M649.73,202.5a10.72,10.72,0,0,1-5.65-1.73l-.08-.05v-29.5h11.45v29.5l-.08.05A10.71,10.71,0,0,1,649.73,202.5Zm-5.4-2a9.76,9.76,0,0,0,10.79,0v-29H644.33Z"/><path class="cls-6" d="M647.42,200.63V171.39h-3.25v29.24a10,10,0,0,0,7.18,1.55A11.3,11.3,0,0,1,647.42,200.63Z"/><path class="cls-3" d="M572.16,196.72l-4.1-.75c-2.55-3.71-3-14.47-3-14.47l2.39-9.37C566.63,191.69,572.16,196.72,572.16,196.72Z"/><polygon class="cls-4" points="565.89 166.11 557.44 197.9 553.27 197.9 562.74 166.11 565.89 166.11"/><path class="cls-9" d="M574.12,196l-2,.75s-5.53-5-4.71-24.59l-2.39,9.37-4,15.62-3.65.78,8.45-31.79h4.51S569.31,188.48,574.12,196Z"/><path class="cls-4" d="M625.22,169.68V61.44c0-8.73,11-15.81,24.51-15.81s24.51,7.08,24.51,15.81V169.68c0,1.32-11,2.39-24.51,2.39S625.22,171,625.22,169.68Z"/><path class="cls-6" d="M649.73,172.56c-6.56,0-12.74-.25-17.38-.7-7.63-.74-7.63-1.68-7.63-2.18V61.44c0-9,11.22-16.3,25-16.3s25,7.31,25,16.3V169.68c0,.5,0,1.44-7.62,2.18C662.46,172.31,656.29,172.56,649.73,172.56Zm-24-3c.9.85,9.6,2,24,2s23.12-1.13,24-2V61.44c0-8.44-10.77-15.31-24-15.31s-24,6.87-24,15.31Z"/><path class="cls-3" d="M589.76,198.13l-4.1-.75c-2.55-3.71-3-14.47-3-14.47l2.38-9.37C584.23,193.11,589.76,198.13,589.76,198.13Z"/><polygon class="cls-4" points="583.49 167.52 575.04 199.31 570.87 199.31 580.34 167.52 583.49 167.52"/><path class="cls-9" d="M591.72,197.38l-2,.75s-5.53-5-4.72-24.59l-2.38,9.37-4,15.62-3.65.78,8.45-31.79H588S586.91,189.89,591.72,197.38Z"/><path class="cls-3" d="M607.05,198l-4.11-.81c-2.55-4-3-15.76-3-15.76l2.39-10.2C601.51,192.56,607.05,198,607.05,198Z"/><polygon class="cls-4" points="600.77 164.69 592.33 199.31 588.15 199.31 597.62 164.69 600.77 164.69"/><path class="cls-9" d="M609,197.21l-2,.81s-5.54-5.46-4.72-26.77l-2.39,10.2-4,17-3.65.85,8.45-34.62h4.51S604.19,189.06,609,197.21Z"/><path class="cls-2" d="M582.87,42s9.2,50.49,4.41,66.82-29.06,56.8-30.16,58.64,58.57,2.2,68.1-5.15V61.44s-5.91-19.73-14-21.57S582.87,42,582.87,42Z"/><path class="cls-3" d="M573.78,169.11c-8.82,0-16.11-.36-17-1.11a.6.6,0,0,1-.13-.77c2.6-4.32,25.49-42.71,30.12-58.52,4.7-16-4.34-66.09-4.43-66.59l-.08-.48.47-.09c.83-.17,20.46-4,28.56-2.16,8.28,1.88,14.12,21.1,14.36,21.91l0,.07V162.58l-.19.15c-5.42,4.18-25.55,5.6-37.07,6.08C583.63,169,578.48,169.11,573.78,169.11Zm-16-1.75c2.36.63,15.62,1.09,31,.44,18.91-.79,32-2.87,36-5.71V61.52c-.39-1.27-6.12-19.47-13.61-21.17-7.22-1.64-24.56,1.49-27.67,2.08,1,5.51,8.89,51,4.32,66.56S561.26,161.53,557.77,167.36Z"/><path class="cls-3" d="M564.12,171.65l-.85-.51c1.23-2,25.32-46.32,30-62.43s-3.65-69.38-3.74-69.92l1-.15c.35,2.2,8.47,54.1,3.71,70.35S565.35,169.59,564.12,171.65Z"/><path class="cls-3" d="M571.29,171.65l-.85-.51c.81-1.35,23.49-46.09,28.28-62.43,4.69-16-2.44-70.53-2.51-71.08l1-.13c.3,2.25,7.23,55.24,2.47,71.49C594.86,125.4,572.1,170.3,571.29,171.65Z"/><path class="cls-3" d="M579.16,171.65l-.85-.51c.83-1.38,22.08-46,26.9-62.43,4.7-16-2.14-70.53-2.21-71.08l1-.13c.28,2.25,6.93,55.24,2.17,71.49C601.32,125.52,580,170.26,579.16,171.65Z"/><path class="cls-3" d="M589.16,171.65l-.85-.51c1-1.7,17.47-45.89,22.31-62.43,4.7-16-.51-70.55-.57-71.1l1-.09c.22,2.24,5.29,55.23.53,71.47C607,124.5,590.43,169.53,589.16,171.65Z"/><path class="cls-3" d="M599,170.57l-.85-.51c.71-1.19,6.72-22.3,11.55-39.26,2.46-8.63,4.78-16.79,6.33-22.09,1.94-6.63,2.55-20.53,1.75-40.21-.61-14.9-1.81-28-1.82-28.1l1-.09c.2,2.13,4.8,52.44,0,68.68-1.55,5.3-3.87,13.45-6.33,22.08C604.29,153.44,599.72,169.36,599,170.57Z"/><path class="cls-3" d="M611.51,169.48l-.85-.51c.46-.77,2.79-10.88,5.4-24.16,1.43-7.27,4.86-25.34,5.87-36,1.6-16.93-.5-59.61-.52-60l1,0c0,.43,2.12,43.18.51,60.18S612.77,167.38,611.51,169.48Z"/><path class="cls-9" d="M634.47,89.89A47.78,47.78,0,0,1,644.36,88v10.5a55,55,0,0,0-9.89,1.59Z"/><path class="cls-3" d="M634,100.74V89.53l.35-.11a48.52,48.52,0,0,1,10-1.9l.53,0V99l-.45,0a55.92,55.92,0,0,0-9.81,1.58Zm1-10.48v9.2a57.43,57.43,0,0,1,8.9-1.41v-9.5A47,47,0,0,0,635,90.26Z"/><path class="cls-9" d="M634.47,59.29V69.48a19,19,0,0,0-7.08,4.73V64.58A18.65,18.65,0,0,1,634.47,59.29Z"/><path class="cls-3" d="M626.89,75.54V64.41l.11-.13a19.23,19.23,0,0,1,7.26-5.44l.7-.33v11.3l-.3.13a18.52,18.52,0,0,0-6.9,4.6Zm1-10.79V73A21,21,0,0,1,634,69.15V60.07A18,18,0,0,0,627.88,64.75Z"/><path class="cls-9" d="M672.07,64.58v9.63A19.07,19.07,0,0,0,665,69.48V59.29A18.73,18.73,0,0,1,672.07,64.58Z"/><path class="cls-3" d="M672.56,75.54l-.87-1a18.47,18.47,0,0,0-6.89-4.6l-.31-.13V58.51l.71.33a19.23,19.23,0,0,1,7.26,5.44l.1.13Zm-7.08-6.39A20.72,20.72,0,0,1,671.57,73V64.75a18,18,0,0,0-6.09-4.68Z"/><path class="cls-9" d="M672.07,93.51v9.64A21.63,21.63,0,0,0,665,100.1V89.89A20,20,0,0,1,672.07,93.51Z"/><path class="cls-3" d="M672.56,104.14l-.79-.59a21.08,21.08,0,0,0-6.91-3l-.37-.1V89.22l.65.2a20.38,20.38,0,0,1,7.26,3.72l.16.15Zm-7.08-4.42a24.16,24.16,0,0,1,6.09,2.5V93.74a18.76,18.76,0,0,0-6.09-3.16Z"/><path class="cls-9" d="M634.47,114.29V130a26.46,26.46,0,0,0-7.08,2.1V117.24A21.42,21.42,0,0,1,634.47,114.29Z"/><path class="cls-3" d="M626.89,132.9V117l.21-.15a21.77,21.77,0,0,1,7.24-3l.62-.15V130.4l-.41.07a27,27,0,0,0-6.94,2.05Zm1-15.4v13.8a29.84,29.84,0,0,1,6.09-1.72V114.93A20.87,20.87,0,0,0,627.88,117.5Z"/><path class="cls-9" d="M672.07,122.44v9.65a37.65,37.65,0,0,0-7.08-1.37V120.53A28.29,28.29,0,0,1,672.07,122.44Z"/><path class="cls-3" d="M672.56,132.77l-.65-.22a38.17,38.17,0,0,0-7-1.34l-.44-.05V119.94l.58.1a29.07,29.07,0,0,1,7.21,1.95l.28.14Zm-7.08-2.49a42.32,42.32,0,0,1,6.09,1.13v-8.65a28.43,28.43,0,0,0-6.09-1.65Z"/><path class="cls-9" d="M634.47,151.37v10c-3-.07-5.47-.18-7.08-.31v-9.41C629,151.52,631.45,151.44,634.47,151.37Z"/><path class="cls-3" d="M635,161.84h-.51c-3-.08-5.49-.19-7.1-.31l-.46,0V151.14l.47,0c1.73-.09,4.25-.17,7.1-.23h.5Zm-7.08-1.27c1.49.1,3.58.19,6.09.25v-8.94c-2.38.05-4.51.12-6.09.2Z"/><path class="cls-9" d="M672.07,151.37V161c-1.62.13-4.06.24-7.08.31V151.14C668,151.2,670.45,151.29,672.07,151.37Z"/><path class="cls-3" d="M664.49,161.84V150.63H665c2.85.06,5.37.15,7.09.24l.47,0v10.57l-.45,0c-1.62.13-4.08.24-7.11.32Zm1-10.2v9.18c2.51-.06,4.6-.15,6.09-.26v-8.72C670,151.77,667.87,151.7,665.48,151.64Z"/><path class="cls-9" d="M655.11,144.57v16.92c-1.73,0-3.53,0-5.38,0s-3.65,0-5.37,0v-16.9c1.73,0,3.53,0,5.37,0Z"/><path class="cls-3" d="M649.73,162c-1.9,0-3.83,0-5.38,0h-.49V144.1h.49c1.55,0,3.47,0,5.38,0h5.87V162h-.49C653.47,162,651.61,162,649.73,162Zm-4.88-1c1.46,0,3.18,0,4.88,0s3.37,0,4.88,0V145.07h-4.88c-1.71,0-3.43,0-4.88,0Z"/><path class="cls-9" d="M655.11,119.52V130c-1.73-.06-3.53-.09-5.38-.09s-3.65,0-5.37.09V119.52c1.72-.09,3.53-.13,5.37-.13S653.38,119.43,655.11,119.52Z"/><path class="cls-3" d="M643.86,130.52V119.05l.47,0c1.72-.09,3.54-.13,5.4-.13s3.67,0,5.4.13l.47,0v11.47l-.51,0c-1.83-.06-3.64-.08-5.36-.08s-3.53,0-5.36.08Zm5.87-1.09c1.57,0,3.21,0,4.88.07V120c-1.57-.07-3.21-.11-4.88-.11s-3.31,0-4.88.11v9.51C646.51,129.45,648.15,129.43,649.73,129.43Z"/><path class="cls-9" d="M649.73,66.7a46.89,46.89,0,0,1,5.38.31V88c-1.73-.15-3.53-.24-5.38-.24s-3.65.08-5.37.24V67A46.71,46.71,0,0,1,649.73,66.7Z"/><path class="cls-3" d="M643.86,88.56v-22l.44-.06a47,47,0,0,1,10.87,0l.43,0v22l-.54,0a61,61,0,0,0-10.65,0Zm5.87-1.28c1.6,0,3.24.06,4.88.19v-20a46.82,46.82,0,0,0-9.76,0v20C646.39,87.34,648,87.28,649.73,87.28Z"/><path class="cls-9" d="M649.73,98.32c1.85,0,3.65.06,5.38.19v21c-1.73-.09-3.53-.13-5.38-.13s-3.65,0-5.37.13v-21C646.08,98.38,647.89,98.32,649.73,98.32Z"/><path class="cls-3" d="M643.86,120v-22l.46,0c1.73-.13,3.55-.2,5.41-.2s3.68.07,5.41.2l.46,0v22l-.52,0c-1.71-.08-3.51-.13-5.35-.13s-3.64.05-5.35.13Zm5.87-1.14c1.67,0,3.31,0,4.88.1V99a75.68,75.68,0,0,0-9.76,0v20C646.42,118.93,648.05,118.9,649.73,118.9Z"/></svg>