<svg id="Layer_2" data-name="Layer 2" xmlns="http://www.w3.org/2000/svg" viewBox="0 0 900 680"><defs><style>.cls-1{fill:none;}.cls-2{fill:#f37a6f;}.cls-3{fill:#fbb349;}.cls-4{fill:#7273b6;}.cls-5{fill:#9fd6c0;}.cls-6{fill:#d289bb;}.cls-7{fill:#ed9ac2;}.cls-8{fill:#8ac2e5;}.cls-9{fill:#fff;}.cls-10{fill:#fbb716;}.cls-11{fill:#96adb7;}.cls-12{fill:#f69891;}.cls-13{fill:#fae603;}</style></defs><rect class="cls-1" x="702.3" y="440" width="240" height="240"/><path class="cls-2" d="M756.67,622.18c-4.8-4.69-6.57-13.47-7.83-19.66-1.41-6.9-2.12-15.69,3.24-21.18,1.89-1.94,4.45-3,6.95-4.1,8.91-3.79,17.87-7.59,27.3-9.81,15.06-3.55,29.84-.31,44.46,3.52,13.39,3.51,27,8,37.74,17.13,5.57,4.74,10.15,10.55,15.69,15.33,5.34,4.62,16.86,16.07,10.84,24.05-1.28,1.69-3.49,2.38-5.59,2.64-15.27,1.92-30.52,3.69-45.92,4.38-14.8.66-28.78-3.29-43.28-5.72a172.49,172.49,0,0,0-27.32-2.4c-5.25,0-11,0-15.12-3.17A11.19,11.19,0,0,1,756.67,622.18Z"/><path class="cls-3" d="M840.25,635c-10,0-19.68-1.91-29.13-3.76-3.57-.7-7.26-1.43-10.92-2A172.78,172.78,0,0,0,773,626.81h-.48c-5,0-10.75-.08-14.92-3.25a14.54,14.54,0,0,1-1.2-1h0c-4.86-4.76-6.63-13.44-7.93-19.78l0-.11c-2.06-10.09-1-17.15,3.36-21.58,2-2,4.7-3.19,7.09-4.2,8.8-3.74,17.89-7.6,27.37-9.83,15.21-3.59,29.81-.38,44.68,3.52,13.26,3.48,27,8,37.92,17.22a110.65,110.65,0,0,1,8,7.85c2.43,2.54,5,5.16,7.64,7.49,5.37,4.64,17.18,16.32,10.91,24.65-1.16,1.52-3.14,2.47-5.89,2.82-14.57,1.82-30.11,3.67-46,4.38C842.46,635,841.35,635,840.25,635ZM800,566.34a58.79,58.79,0,0,0-13.6,1.53c-9.41,2.22-18.47,6.06-27.23,9.78-2.32,1-4.94,2.1-6.8,4-4.1,4.19-5.12,11-3.12,20.77l0,.11c1.27,6.23,3,14.75,7.68,19.32h0a10.1,10.1,0,0,0,1.12,1c3.92,3,9.24,3,14.37,3.08H773a175.87,175.87,0,0,1,27.39,2.4c3.67.62,7.37,1.35,10.94,2.05,10.44,2,21.24,4.17,32.24,3.67,15.82-.71,31.34-2.55,45.89-4.37,2.5-.31,4.28-1.15,5.28-2.47,2.48-3.29,2.09-7.59-1.18-12.78a52.81,52.81,0,0,0-9.59-10.66c-2.73-2.35-5.26-5-7.7-7.54a111,111,0,0,0-8-7.79c-10.76-9.13-24.41-13.59-37.56-17C820.42,568.69,810.29,566.34,800,566.34Z"/><path class="cls-4" d="M804.33,559.64l-2.64,6s-5.33,13.82,4.2,16.75,46,3.37,58.38,16.65,13.28,14.86,13.28,14.86,4.5-14.92-7.45-21.73l21.43,6.26s-6.69-23-30.41-21.45c-15.77,1-26.34-1.1-28.59-1.56s6.08.44,9-6.09a28.34,28.34,0,0,0-1.74-24.74Z"/><path class="cls-5" d="M877.68,615l-.52-.91c0-.06-1.21-1.89-13.22-14.77-8.87-9.52-30.76-12.43-45.25-14.36-5.74-.76-10.28-1.36-12.93-2.18a7.82,7.82,0,0,1-5-4.12c-1.07-2.21-1.31-5.11-.72-8.62a25.3,25.3,0,0,1,1.21-4.59L804,559.3l.16-.07L840,544l.2.33a28.67,28.67,0,0,1,1.76,25.16,10.55,10.55,0,0,1-7.59,5.8,114,114,0,0,0,26.74,1.23,28.21,28.21,0,0,1,24.47,10.29A34.88,34.88,0,0,1,892,598.28l.23.78-19.5-5.7a16.86,16.86,0,0,1,6.07,12.17A25.12,25.12,0,0,1,878,614Zm-73-55-2.57,5.81c0,.06-2.88,7.6-.5,12.48a6.92,6.92,0,0,0,4.42,3.66c2.58.79,7.31,1.42,12.79,2.15C833.42,586,855.5,589,864.6,598.71c8.54,9.17,11.64,12.78,12.74,14.15a25.23,25.23,0,0,0,.52-7.29c-.49-5.91-3.17-10.3-8-13l-3.31-1.88,24.26,7.08a35.51,35.51,0,0,0-6-10.38c-6.05-7.24-14-10.59-23.7-10a111.26,111.26,0,0,1-28.71-1.58c-.35-.07-.75-.15-.74-.56s.36-.47.93-.56c1.59-.25,6.46-1,8.5-5.58a27.77,27.77,0,0,0-1.52-24Z"/><path class="cls-3" d="M831.45,513.52c-2.08-3.18-3.32-4.37-4.41-5.1l0,0h0c-1.44-1-2.6-1.14-5-4.13-.51-.63-1.09-1.39-1.73-2.31-6-8.56-13.53-5.78-13.53-5.78s-1.85-4.16,0-6.59,8.67-5.66,16.88-3.35,4.51,18.95,5.66,20.57,5.55,4.86,5.55,4.86.16.77.27,1.72C835.38,515.87,835.38,519.54,831.45,513.52Z"/><path class="cls-4" d="M834.52,517.24c-.82,0-1.88-1.08-3.45-3.48h0c-2.12-3.24-3.3-4.3-4.25-4.95l-.26-.09v-.08c-.24-.16-.49-.29-.74-.44a12.62,12.62,0,0,1-4.19-3.65c-.56-.68-1.15-1.46-1.76-2.33-5.73-8.16-12.71-5.73-13-5.62l-.4.14-.17-.38c-.08-.18-1.93-4.43.06-7,1.83-2.41,8.81-5.92,17.35-3.51,6.28,1.77,6,11.21,5.79,16.85a14.72,14.72,0,0,0,.12,3.89c1.1,1.55,5.4,4.73,5.45,4.76l.13.1,0,.17s.16.8.28,1.76c.29,2.38.08,3.56-.69,3.85A1.12,1.12,0,0,1,834.52,517.24Zm-7.06-9.08c1,.71,2.25,1.89,4.36,5.11h0c2.06,3.16,2.67,3.08,2.7,3.07s.42-.33.11-2.89c-.08-.67-.18-1.25-.24-1.52-.77-.59-4.42-3.35-5.5-4.86-.39-.54-.37-1.82-.28-4.44.17-5.38.46-14.38-5.14-16-8.13-2.29-14.69.95-16.4,3.19-1.37,1.79-.47,4.74-.09,5.77a11,11,0,0,1,4.3-.21c2.49.35,6.12,1.73,9.32,6.28.6.85,1.18,1.62,1.72,2.29a12.18,12.18,0,0,0,3.94,3.44c.32.18.65.37,1,.6h0Z"/><path class="cls-6" d="M827.59,514.41c-3.92,5.35-12.42,1.2-12,0a14.17,14.17,0,0,0,.08-4.41c2.48-.84,5.44-2.63,6.27-5.73,2.44,3,3.6,3.17,5,4.13h0Z"/><path class="cls-4" d="M822,517.22a11,11,0,0,1-5.07-1.28c-1.07-.58-1.61-1.17-1.46-1.59a14.11,14.11,0,0,0,.07-4.34v-.12l.11,0c1.55-.52,5.24-2.11,6.18-5.62l.07-.28.19.23a12.52,12.52,0,0,0,4,3.51c.32.17.65.36,1,.58l.07.05v.08l.59,6.05,0,0a6.71,6.71,0,0,1-5.53,2.72Zm-6.15-7.12a13.49,13.49,0,0,1-.1,4.36c-.06.16.24.64,1.32,1.22,2.69,1.46,7.65,2.31,10.36-1.31l-.57-5.89c-.31-.2-.6-.36-.9-.54a11.93,11.93,0,0,1-3.93-3.36C821,508,817.47,509.54,815.86,510.1Z"/><path class="cls-5" d="M836.13,553.63c-3.74,3.75-24.41,5.54-26.5,6.74s-7.19,3.44-7.94,5.24-7.63-2.7-4.79-5.84,8.53-4.79,11.38-4.94a23.61,23.61,0,0,0,2.4-10c0-5.54-3.19-15.87-3.19-15.87-1.24,1.8-6.25,10.78-7.59,15.12s-9.14,27.25-11.38,27-17.07,8.38-14.67,2.09,11.22-4.63,12.72-6.28,1.8-18,7.19-27.55,8.26-25.56,10.78-27a28.15,28.15,0,0,1,7.19-2.09c2.18-.41,3.93-.63,3.93-.63s0,.15,0,.41a14.17,14.17,0,0,1-.08,4.41c-.45,1.2,8,5.35,12,0l-.58-6,0,0c.36.24,4.14,2.7,8,5a55.49,55.49,0,0,0,6.6,3.4C846.31,518.6,839.87,549.89,836.13,553.63Z"/><path class="cls-4" d="M775.05,575.83a2.05,2.05,0,0,1-1.49-.47c-.51-.5-.55-1.31-.13-2.42,1.7-4.47,6.52-5.16,9.71-5.62,1.39-.2,2.72-.39,3.1-.81s.88-3.3,1.34-6.27c.91-6,2.3-15,5.79-21.2,2.75-4.9,4.88-11.58,6.58-16.95,1.91-6,3.06-9.45,4.37-10.17a27.2,27.2,0,0,1,7.32-2.14c2.17-.41,3.94-.63,4-.64l.45-.05.05.44s0,.16,0,.43a14.12,14.12,0,0,1-.08,4.56c.16.39,1.77,1.47,4.06,1.92,1.74.34,5,.51,7-2.16l-.63-6.53.65.23a.46.46,0,0,1,.14.07c1,.64,4.46,2.89,8,5a52.32,52.32,0,0,0,6.53,3.36c.77.3,1.29,1.15,1.6,2.6.87,4.14-.27,12.59-1.62,19.12-1.27,6.11-3.44,13.93-5.37,15.86h0c-2.56,2.56-12.34,4.18-19.47,5.37-3.33.55-6.47,1.07-7.12,1.44-.47.27-1.07.58-1.76.94-2.17,1.12-5.46,2.83-6,4.08a1.15,1.15,0,0,1-1.14.69h0c-1.45,0-4-1.65-4.84-3.61a3,3,0,0,1,.47-3.39c2.82-3.11,8.36-4.83,11.43-5.07a23.53,23.53,0,0,0,2.23-9.6c0-4.44-2.12-12.15-2.89-14.8-1.74,2.84-5.84,10.39-7,14.19-.65,2.1-2.91,8.87-5.36,15.24-4.71,12.25-5.92,12.09-6.5,12s-2.8.83-4.92,1.71C779.83,574.68,776.86,575.83,775.05,575.83Zm40.21-65.74c-.66.1-2,.29-3.45.57a26.88,26.88,0,0,0-7.06,2c-1.06.59-2.46,5-3.94,9.66-1.72,5.41-3.86,12.14-6.66,17.12-3.41,6.06-4.78,15-5.69,20.9-.62,4.08-1,6.07-1.56,6.73s-1.94.85-3.64,1.1c-3.16.45-7.48,1.07-9,5-.16.42-.39,1.17-.09,1.47,1,.93,6-1.15,9-2.4s4.57-1.87,5.38-1.76c.19,0,1.48-.83,5.67-11.79,2.4-6.26,4.59-12.82,5.22-14.85,1.37-4.41,6.37-13.38,7.65-15.24l.53-.76.27.88c.13.42,3.2,10.46,3.2,16A23.86,23.86,0,0,1,808.68,555l-.12.23h-.26c-2.85.15-8.34,1.78-11.07,4.79a2.1,2.1,0,0,0-.32,2.43,6,6,0,0,0,4,3.08h0c.27,0,.31-.1.32-.14.65-1.55,3.84-3.21,6.4-4.54.68-.35,1.27-.66,1.72-.92.76-.43,3.19-.85,7.42-1.55,6.62-1.09,16.63-2.75,19-5.11h0c1.43-1.43,3.53-7.77,5.12-15.42,1.7-8.21,2.32-15.39,1.62-18.75-.23-1.09-.59-1.77-1-1.94a54.65,54.65,0,0,1-6.65-3.43c-2.94-1.72-5.83-3.55-7.31-4.5l.52,5.25-.11.14c-2.92,4-8.27,3.1-11.16,1.54-.72-.4-1.88-1.17-1.58-2A13.48,13.48,0,0,0,815.26,510.09Zm11.53-1.3Z"/><path class="cls-4" d="M808.3,555.28l0-.89c2.74-.15,18.52-3.61,21.37-7.46,1.27-1.72,1.57-4.65,1.89-7.75.39-3.86.83-8.23,3.33-11.14l.68.58c-2.32,2.7-2.73,6.74-3.12,10.65-.33,3.23-.64,6.28-2.06,8.19-1.69,2.28-7,4.22-11.15,5.44A67.24,67.24,0,0,1,808.3,555.28Z"/><path class="cls-7" d="M814.34,523.07l-5.66,10.09s3.24,8,10.07,4C818.75,537.11,816.77,524.73,814.34,523.07Z"/><path class="cls-4" d="M815,538.71a5.41,5.41,0,0,1-1.83-.31c-3.31-1.11-4.88-4.91-5-5.07l-.08-.2,6-10.71.4.28c2.52,1.72,4.4,13,4.6,14.34l0,.3-.26.15A7.73,7.73,0,0,1,815,538.71Zm-5.86-5.52c.35.75,1.79,3.52,4.32,4.37a5.78,5.78,0,0,0,4.76-.69c-.56-3.35-2.13-11.06-3.81-13.09Z"/><path class="cls-7" d="M828.17,523.07s-5.56,11.08-6.2,13.48c0,0,4.74,3.78,10.09,1.71C832.06,538.26,828.54,527.69,828.17,523.07Z"/><path class="cls-4" d="M828.71,539.33a12.25,12.25,0,0,1-7-2.43l-.22-.18.07-.28c.64-2.42,6-13.12,6.23-13.57l.72-1.43.13,1.59c.36,4.51,3.83,15,3.86,15.09l.14.4-.4.15A9.49,9.49,0,0,1,828.71,539.33Zm-6.22-3c1,.67,4.79,3,9,1.6a111.58,111.58,0,0,1-3.59-13.39C826.49,527.46,823.21,534.17,822.49,536.38Z"/><line class="cls-7" x1="818.75" y1="537.11" x2="821.97" y2="536.55"/><rect class="cls-4" x="818.73" y="536.38" width="3.27" height="0.89" transform="translate(-79.02 146.59) rotate(-9.74)"/><line class="cls-7" x1="828.17" y1="523.07" x2="830.58" y2="510.67"/><rect class="cls-4" x="823.06" y="516.42" width="12.62" height="0.89" transform="matrix(0.19, -0.98, 0.98, 0.19, 163.81, 1232.44)"/><line class="cls-7" x1="814.34" y1="523.07" x2="813.71" y2="509.87"/><rect class="cls-4" x="813.58" y="509.87" width="0.89" height="13.21" transform="translate(-23.64 39.3) rotate(-2.73)"/><path class="cls-7" d="M822,504.27c-.83,3.1-3.79,4.89-6.27,5.73a7,7,0,0,1-3.56.51,1,1,0,0,1-.41-.29c-.35-.45.11-1.1-.34-2.22-.55-1.39-1.37-2.25-3.16-3.9.14-2.1-1.43-7.73-1.52-7.92h0s7.52-2.78,13.53,5.78C820.88,502.88,821.46,503.64,822,504.27Z"/><path class="cls-4" d="M812.72,511a2,2,0,0,1-.76-.12,1.51,1.51,0,0,1-.59-.43,1.48,1.48,0,0,1-.22-1.07,2.84,2.84,0,0,0-.17-1.25c-.54-1.33-1.34-2.17-3.05-3.74l-.16-.15v-.21c.12-1.87-1.22-6.9-1.46-7.66l-.38-.42.62-.23c.08,0,7.9-2.79,14,5.94.6.85,1.18,1.62,1.72,2.29l.14.18-.06.22c-1,3.79-4.92,5.48-6.56,6A10.42,10.42,0,0,1,812.72,511Zm-4-7.13c1.67,1.55,2.54,2.47,3.12,3.92a3.52,3.52,0,0,1,.23,1.63c0,.26,0,.41,0,.49a.73.73,0,0,0,.25.16,7.15,7.15,0,0,0,3.22-.54c1.47-.49,4.93-2,5.93-5.2-.51-.64-1.05-1.36-1.61-2.15-5-7.07-11-6.14-12.6-5.74A37.71,37.71,0,0,1,808.69,503.91Z"/><rect class="cls-1" x="-31.5" width="240" height="240"/><rect class="cls-8" x="58.81" y="97.01" width="5.25" height="63.38" transform="translate(113.93 -3.9) rotate(47.12)"/><rect class="cls-4" x="62.12" y="98.45" width="1.31" height="63.38" transform="translate(115.42 -4.42) rotate(47.12)"/><rect class="cls-8" x="26.55" y="148.25" width="5.25" height="63.38" transform="translate(75.04 3.51) rotate(23.78)"/><rect class="cls-4" x="30.33" y="149.04" width="1.31" height="63.38" transform="translate(75.52 2.85) rotate(23.78)"/><rect class="cls-8" x="54.63" y="127.7" width="5.25" height="63.38" transform="translate(221.81 199.43) rotate(123.43)"/><rect class="cls-4" x="55.51" y="129.34" width="1.31" height="63.38" transform="translate(221.5 202.89) rotate(123.43)"/><rect class="cls-8" x="127.07" y="82.59" width="5.25" height="63.38" transform="translate(302.53 117.35) rotate(139.63)"/><rect class="cls-4" x="127.54" y="83.87" width="1.31" height="63.38" transform="translate(300.71 120.57) rotate(139.63)"/><rect class="cls-8" x="155.95" y="140.9" width="5.25" height="63.38" transform="translate(364.36 284.78) rotate(161.17)"/><rect class="cls-4" x="156.06" y="141.53" width="1.31" height="63.38" transform="translate(360.94 286.61) rotate(161.17)"/><rect class="cls-8" x="111.23" y="93.63" width="5.25" height="63.38" transform="translate(271.53 63.61) rotate(110.88)"/><rect class="cls-4" x="112.5" y="95.47" width="1.31" height="63.38" transform="translate(272.3 66.77) rotate(110.88)"/><rect class="cls-8" x="113.08" y="124.63" width="5.25" height="63.38" transform="translate(36.24 333.83) rotate(-119.38)"/><rect class="cls-4" x="114.08" y="122.91" width="1.31" height="63.38" transform="translate(36.3 330.43) rotate(-119.38)"/><rect class="cls-8" x="50.47" y="69.25" width="5.25" height="63.38" transform="translate(166.46 88.4) rotate(111.43)"/><rect class="cls-4" x="51.72" y="71.09" width="1.31" height="63.38" transform="matrix(-0.37, 0.93, -0.93, -0.37, 167.19, 91.58)"/><rect class="cls-8" x="100.87" y="42.53" width="5.25" height="63.38" transform="translate(230.84 76.11) rotate(145.2)"/><rect class="cls-4" x="101.22" y="43.66" width="1.31" height="63.38" transform="translate(228.53 79.08) rotate(145.2)"/><rect class="cls-8" x="30.38" y="88.78" width="5.25" height="63.38" transform="matrix(0.95, -0.31, 0.31, 0.95, -36.09, 16.41)"/><rect class="cls-4" x="34.22" y="88.16" width="1.31" height="63.38" transform="translate(-35.8 16.97) rotate(-18.26)"/><rect class="cls-8" x="81.28" y="51.83" width="5.25" height="118.46"/><rect class="cls-4" x="85.22" y="51.83" width="1.31" height="118.46"/><rect class="cls-8" x="50.47" y="36.34" width="5.25" height="63.38" transform="translate(77.88 -14.63) rotate(54.66)"/><rect class="cls-4" x="53.58" y="37.95" width="1.31" height="63.38" transform="translate(79.67 -14.88) rotate(54.66)"/><circle class="cls-6" cx="84.36" cy="45.1" r="15.1"/><path class="cls-8" d="M84.36,47.2a49.34,49.34,0,0,1-14.73-2.36,14.74,14.74,0,0,1,29.47,0A49.43,49.43,0,0,1,84.36,47.2Z"/><path class="cls-9" d="M84.36,30.72A14.39,14.39,0,0,1,98.73,44.58a49,49,0,0,1-14.37,2.26A49.16,49.16,0,0,1,70,44.58,14.4,14.4,0,0,1,84.36,30.72m0-.72a15.1,15.1,0,0,0-15.1,15.1,49.05,49.05,0,0,0,15.1,2.46,49.05,49.05,0,0,0,15.1-2.46A15.1,15.1,0,0,0,84.36,30Z"/><path class="cls-5" d="M94.83,48.48a26.46,26.46,0,0,1-20.94,0c0,5.79,4.69,9.83,10.47,9.83S94.83,54.27,94.83,48.48Z"/><rect class="cls-4" x="87.1" y="27.3" width="0.72" height="28.74" transform="translate(-2.15 78.5) rotate(-47.82)"/><rect class="cls-4" x="81.12" y="32.12" width="0.72" height="29.43" transform="translate(-12.48 48.68) rotate(-31.02)"/><rect class="cls-4" x="68.39" y="43.63" width="30.05" height="0.72" transform="translate(-8.57 64.78) rotate(-40.54)"/><rect class="cls-4" x="68.71" y="43.61" width="30.39" height="0.72" transform="translate(-8.72 24.11) rotate(-15.56)"/><circle class="cls-6" cx="82.1" cy="111.82" r="15.1"/><path class="cls-8" d="M82.1,113.92a49.26,49.26,0,0,1-14.73-2.36,14.74,14.74,0,0,1,29.47,0A49.43,49.43,0,0,1,82.1,113.92Z"/><path class="cls-9" d="M82.1,97.44A14.39,14.39,0,0,1,96.47,111.3a46.82,46.82,0,0,1-28.74,0A14.4,14.4,0,0,1,82.1,97.44m0-.72A15.1,15.1,0,0,0,67,111.82a47.57,47.57,0,0,0,30.2,0,15.1,15.1,0,0,0-15.1-15.1Z"/><path class="cls-5" d="M92.57,115.2a26.46,26.46,0,0,1-20.94,0c0,5.79,4.69,9.83,10.47,9.83S92.57,121,92.57,115.2Z"/><rect class="cls-4" x="84.84" y="94.02" width="0.72" height="28.74" transform="translate(-52.33 98.75) rotate(-47.82)"/><rect class="cls-4" x="78.86" y="98.84" width="0.72" height="29.43" transform="translate(-47.19 57.06) rotate(-31.02)"/><rect class="cls-4" x="66.13" y="110.35" width="30.04" height="0.72" transform="translate(-52.48 79.33) rotate(-40.54)"/><rect class="cls-4" x="66.45" y="110.33" width="30.39" height="0.72" transform="translate(-26.69 25.94) rotate(-15.55)"/><circle class="cls-6" cx="83.41" cy="173.71" r="15.1"/><path class="cls-8" d="M83.41,175.82a49.61,49.61,0,0,1-14.73-2.36,14.73,14.73,0,0,1,29.46,0A49.61,49.61,0,0,1,83.41,175.82Z"/><path class="cls-9" d="M83.41,159.33A14.4,14.4,0,0,1,97.78,173.2a46.82,46.82,0,0,1-28.74,0,14.4,14.4,0,0,1,14.37-13.87m0-.72a15.1,15.1,0,0,0-15.1,15.1,47.39,47.39,0,0,0,30.2,0,15.1,15.1,0,0,0-15.1-15.1Z"/><path class="cls-5" d="M93.88,177.1a26.46,26.46,0,0,1-20.94,0c0,5.78,4.69,9.82,10.47,9.82S93.88,182.88,93.88,177.1Z"/><rect class="cls-4" x="86.15" y="155.92" width="0.72" height="28.74" transform="translate(-97.77 120.06) rotate(-47.82)"/><rect class="cls-4" x="80.17" y="160.73" width="0.72" height="29.43" transform="translate(-78.89 66.58) rotate(-31.02)"/><rect class="cls-4" x="67.44" y="172.24" width="30.04" height="0.72" transform="matrix(0.76, -0.65, 0.65, 0.76, -92.4, 95.04)"/><rect class="cls-4" x="67.76" y="172.23" width="30.39" height="0.72" transform="translate(-43.23 28.55) rotate(-15.55)"/><circle class="cls-6" cx="116.96" cy="98.62" r="15.1"/><path class="cls-8" d="M123.18,101.15a45.93,45.93,0,0,1-6.52-.45,49.62,49.62,0,0,1-14.26-4.41,14.74,14.74,0,0,1,29.18,4.15,49,49,0,0,1-8.4.71Z"/><path class="cls-9" d="M116.94,84.24a15.54,15.54,0,0,1,2,.14,14.38,14.38,0,0,1,12.27,15.75,48.64,48.64,0,0,1-8.07.66,46.74,46.74,0,0,1-6.47-.44,49.7,49.7,0,0,1-13.91-4.26,14.45,14.45,0,0,1,14.14-11.85m0-.72a15.1,15.1,0,0,0-14.93,13,48.7,48.7,0,0,0,14.6,4.57,47,47,0,0,0,6.57.45,46.28,46.28,0,0,0,8.72-.77,15.09,15.09,0,0,0-12.82-17.07,15.61,15.61,0,0,0-2.14-.15Z"/><path class="cls-5" d="M126.84,103.44a26.41,26.41,0,0,1-20.72-2.94c-.82,5.72,3.26,10.38,9,11.2S126,109.17,126.84,103.44Z"/><rect class="cls-4" x="120.15" y="81.29" width="0.72" height="28.74" transform="translate(-33.32 99.14) rotate(-39.74)"/><rect class="cls-4" x="113.5" y="85.22" width="0.72" height="29.43" transform="translate(-29.94 52.27) rotate(-22.93)"/><rect class="cls-4" x="101.15" y="97.02" width="30.05" height="0.72" transform="translate(-34.12 77.55) rotate(-32.46)"/><rect class="cls-4" x="101.47" y="97.08" width="30.39" height="0.72" transform="translate(-11.67 15.98) rotate(-7.47)"/><circle class="cls-6" cx="21.12" cy="89.32" r="15.1"/><path class="cls-8" d="M27.34,91.85a47.58,47.58,0,0,1-6.52-.44A49.39,49.39,0,0,1,6.57,87,14.79,14.79,0,0,1,21.1,74.58a14.59,14.59,0,0,1,2.09.15A14.75,14.75,0,0,1,35.74,91.14a47.86,47.86,0,0,1-8.4.71Z"/><path class="cls-9" d="M21.1,74.94a14,14,0,0,1,2,.15A14.4,14.4,0,0,1,35.42,90.84a49.06,49.06,0,0,1-8.08.65,46.85,46.85,0,0,1-6.47-.44A48.91,48.91,0,0,1,7,86.79,14.43,14.43,0,0,1,21.1,74.94m0-.72a15.1,15.1,0,0,0-14.93,13,49,49,0,0,0,14.6,4.56,47.12,47.12,0,0,0,6.57.45,47,47,0,0,0,8.73-.76A15.1,15.1,0,0,0,23.24,74.38a14.11,14.11,0,0,0-2.14-.16Z"/><path class="cls-5" d="M31,94.15a27.69,27.69,0,0,1-10.67.66,27.82,27.82,0,0,1-10.06-3.6c-.81,5.72,3.26,10.38,9,11.19S30.19,99.87,31,94.15Z"/><rect class="cls-4" x="24.31" y="72" width="0.72" height="28.74" transform="translate(-49.52 35.72) rotate(-39.74)"/><rect class="cls-4" x="17.66" y="75.92" width="0.72" height="29.43" transform="translate(-33.89 14.19) rotate(-22.93)"/><rect class="cls-4" x="5.31" y="87.73" width="30.04" height="0.72" transform="translate(-44.1 24.67) rotate(-32.46)"/><rect class="cls-4" x="5.63" y="87.79" width="30.39" height="0.72" transform="translate(-11.28 3.45) rotate(-7.47)"/><circle class="cls-6" cx="42.16" cy="146.08" r="16.7"/><path class="cls-8" d="M49,148.91a51.14,51.14,0,0,1-7.21-.49A54.54,54.54,0,0,1,26,143.53,16.36,16.36,0,0,1,44.46,129.9a16.34,16.34,0,0,1,13.91,18.22,53.23,53.23,0,0,1-9.33.79Z"/><path class="cls-9" d="M42.14,130.1a15.75,15.75,0,0,1,2.27.16,16,16,0,0,1,13.64,17.56,55,55,0,0,1-9,.73,50.42,50.42,0,0,1-7.16-.49,54.35,54.35,0,0,1-15.46-4.74A16,16,0,0,1,42.14,130.1m0-.72a16.69,16.69,0,0,0-16.51,14.35,54.23,54.23,0,0,0,16.15,5.05,52.78,52.78,0,0,0,7.26.49,52,52,0,0,0,9.65-.84,16.7,16.7,0,0,0-14.18-18.89,17.37,17.37,0,0,0-2.37-.16Z"/><path class="cls-5" d="M53.1,151.42a30.77,30.77,0,0,1-11.8.73,30.78,30.78,0,0,1-11.13-4c-.9,6.33,3.61,11.49,9.94,12.38S52.2,157.75,53.1,151.42Z"/><rect class="cls-4" x="45.73" y="126.92" width="0.72" height="31.79" transform="matrix(0.77, -0.64, 0.64, 0.77, -80.65, 62.46)"/><rect class="cls-4" x="38.37" y="131.25" width="0.72" height="32.55" transform="translate(-54.43 26.76) rotate(-22.93)"/><rect class="cls-4" x="24.68" y="144.35" width="33.23" height="0.72" transform="translate(-71.21 44.76) rotate(-32.46)"/><rect class="cls-4" x="25.03" y="144.42" width="33.61" height="0.72" transform="translate(-18.46 6.66) rotate(-7.47)"/><circle class="cls-6" cx="146.62" cy="136.52" r="13.42"/><path class="cls-8" d="M139.31,139a40.92,40.92,0,0,1-5.58-.36,13.09,13.09,0,0,1,10.52-15,13.7,13.7,0,0,1,2.39-.21,13,13,0,0,1,12.78,10.44A44.29,44.29,0,0,1,147,138.32a41.92,41.92,0,0,1-7.64.68Z"/><path class="cls-9" d="M146.64,123.82A12.69,12.69,0,0,1,159,133.71,43.42,43.42,0,0,1,146.89,138a43.29,43.29,0,0,1-12.84.35,12.7,12.7,0,0,1,12.59-14.5m0-.72a13.61,13.61,0,0,0-2.45.22A13.43,13.43,0,0,0,133.42,139a38.15,38.15,0,0,0,5.89.41,42.91,42.91,0,0,0,7.71-.68,43.51,43.51,0,0,0,12.8-4.6,13.42,13.42,0,0,0-13.18-11Z"/><path class="cls-5" d="M156.32,137.79a23.48,23.48,0,0,1-18.3,3.38c.93,5.05,5.68,7.83,10.73,6.9S157.25,142.85,156.32,137.79Z"/><rect class="cls-4" x="148.42" y="120.25" width="0.72" height="25.56" transform="translate(-42.61 189.62) rotate(-58.27)"/><rect class="cls-4" x="144.02" y="125.42" width="0.72" height="26.16" transform="translate(-55.53 130.34) rotate(-41.47)"/><rect class="cls-4" x="132.25" y="135.34" width="26.71" height="0.72" transform="translate(-51.5 163.34) rotate(-50.96)"/><rect class="cls-4" x="132.53" y="135.25" width="27.02" height="0.72" transform="translate(-44.68 77.79) rotate(-26.01)"/><rect class="cls-1" x="482.3" width="240" height="240"/><path class="cls-6" d="M607.46,177.79v18.84a24.78,24.78,0,0,1-4.83-14.49V163.3a23.69,23.69,0,0,0,2,9.42A27.45,27.45,0,0,0,607.46,177.79Z"/><path class="cls-3" d="M608,177.57l-.08-.1-.25-.36h0l0-.06-.27-.4-.3-.46-.29-.47c-.25-.43-.5-.86-.74-1.3l-.3-.6c-.22-.43-.42-.87-.61-1.31a23.07,23.07,0,0,1-1.92-9.2h-1.12v18.84a25.42,25.42,0,0,0,4.83,14.66l.11.15.25.36.76-.3v-19.4Zm-4.8-7c.12.4.26.8.41,1.2.08.2.15.41.23.6s.16.4.25.6c.2.47.42.93.65,1.39.1.2.2.4.31.6s.2.38.31.57l.36.63c.12.21.25.41.38.62l.2.3c.09.15.19.3.29.44s.21.32.32.48v16.81a24.06,24.06,0,0,1-3.71-12.64Z"/><path class="cls-2" d="M686.36,163.3v18.84c0,17.14-18.74,31.05-41.87,31.05a53.32,53.32,0,0,1-20.08-3.81l.66-18.57a53.72,53.72,0,0,0,19.42,3.54c18.7,0,34.53-9.09,39.9-21.63A23.7,23.7,0,0,0,686.36,163.3Z"/><path class="cls-3" d="M685.8,163.3a23.24,23.24,0,0,1-1.92,9.2c-5.46,12.73-21.29,21.29-39.39,21.29-1.2,0-2.41,0-3.62-.12l-.9-.07-.34,0c-.38,0-.77-.07-1.15-.12l-1.12-.13h-.09l-1.16-.17c-.29,0-.57-.08-.86-.14l-.55-.09-.29-.06-1-.18-.32-.07-.72-.16-.46-.1-.81-.2-.45-.12-.53-.14-.85-.24-.17-.05c-.33-.09-.65-.19-1-.3l-.13,0c-.28-.08-.55-.18-.83-.27l-.54-.19-.45-.16-.14,0-.08,0-.07,0-.53-.2-.11,0-.43-.17h0l-.31-.11v.24l0,.39,0,.55-.66,18.56.36.15a54.22,54.22,0,0,0,20.29,3.85c23.4,0,42.43-14.18,42.43-31.61V163.3Zm0,7.24v11.6c0,16.81-18.53,30.49-41.31,30.49A53.26,53.26,0,0,1,625,209l.63-17.4.28.1.33.12.79.27.34.12.9.28.14.05,1.11.32h0l1,.26.42.11.69.17.52.12.58.13.72.15.44.08.76.14.34.06,1,.16c.35.06.69.11,1,.15l.87.11.3,0,1,.11.25,0,1,.08.21,0,.72,0c.2,0,.41,0,.61,0,.83,0,1.65.06,2.47.06,18.54,0,34.79-8.83,40.42-22,.08-.2.17-.4.24-.6s.16-.4.24-.6.18-.5.26-.76S685.75,170.69,685.8,170.54Z"/><polygon class="cls-9" points="624.22 209.39 624.22 209.38 624.59 209.38 624.22 209.39"/><polygon class="cls-8" points="642.9 163.3 626.29 188.93 623.39 190.12 607.46 196.63 607.46 177.79 607.47 177.79 642.9 163.3"/><path class="cls-3" d="M607.66,177.1l-.3.13h-.46V196.8l.11.15.25.36.76-.3,15.58-6.37.94-.39.31-.13h0l.91-.37.9-.37,17.68-27.28Zm.36,18.7V178.17l33.44-13.68-15.54,24Z"/><path class="cls-5" d="M686.36,163.3a23.7,23.7,0,0,1-2,9.42c-5.37,12.54-21.2,21.63-39.9,21.63a53.72,53.72,0,0,1-19.42-3.54l1.22-1.88L642.9,163.3l-35.43,14.49h0a27.45,27.45,0,0,1-2.87-5.07,23.69,23.69,0,0,1-2-9.42c0-17.15,18.74-31.05,41.86-31.05S686.36,146.15,686.36,163.3Z"/><path class="cls-3" d="M644.49,131.69c-23.39,0-42.42,14.18-42.42,31.61a24,24,0,0,0,.56,5.14,21.64,21.64,0,0,0,.56,2.1c.12.4.26.8.41,1.2.08.2.15.41.23.6s.16.4.25.6c.2.47.42.93.65,1.39.1.2.2.4.31.6s.2.38.31.57l.36.63c.12.21.25.41.38.62l.2.3c.09.15.19.3.29.44s.21.32.32.47l.11.15.17.24h.4l.44-.18,33.44-13.68-15.54,24-.1.15-.44.67-.53.82h0l-.33.52,0,.55.37.14.18.07.84.31.33.12.79.27.34.12.9.28.14.05,1.11.32h0l1,.26.42.11.69.17.52.12.58.13.72.15.44.08.76.14.34.06,1,.16c.35.06.69.11,1,.15l.87.11.3,0,1,.11.25,0,1,.08.21,0,.72,0c.2,0,.41,0,.61,0,.83,0,1.65.06,2.47.06,18.54,0,34.79-8.83,40.42-22,.08-.2.17-.4.24-.6s.16-.4.24-.6.18-.5.26-.76a21,21,0,0,0,.71-2.55,23.92,23.92,0,0,0,.56-5.13C686.92,145.87,667.89,131.69,644.49,131.69Zm0,62.1c-1.2,0-2.41,0-3.62-.12l-.9-.07-.34,0c-.38,0-.77-.07-1.15-.12l-1.12-.13h-.09l-1.16-.17c-.29,0-.57-.08-.86-.14l-.55-.09-.29-.06-1-.18-.32-.07-.72-.16-.46-.1-.81-.2-.45-.12-.53-.14-.85-.24-.17-.05c-.33-.09-.65-.19-1-.3l-.13,0c-.28-.08-.55-.18-.83-.27l-.54-.19-.45-.16-.14,0-.08,0s0,0-.07,0h0l.74-1.15,17.68-27.28-36.68,15h0l0-.06-.27-.4-.3-.46-.29-.47c-.25-.43-.5-.86-.74-1.3l-.3-.6c-.22-.43-.42-.87-.61-1.31a23.07,23.07,0,0,1-1.92-9.2c0-16.81,18.53-30.49,41.3-30.49s41.31,13.68,41.31,30.49a23.24,23.24,0,0,1-1.92,9.2C678.42,185.23,662.59,193.79,644.49,193.79Z"/><path class="cls-2" d="M602.7,50.31s0,0,0,0a4.33,4.33,0,0,1-.07.8c-1.21,7.47-19.53,13.4-42,13.4s-40.74-5.93-42-13.4a4.33,4.33,0,0,1-.07-.8h0a6.43,6.43,0,0,1,2.14-4.46c5.54-5.65,21.31-9.72,39.89-9.72S595,40.2,600.56,45.85A6.43,6.43,0,0,1,602.7,50.31Z"/><path class="cls-4" d="M560.67,65.08c-10.87,0-21.21-1.4-29.1-3.93s-12.78-6.1-13.41-9.94a4.91,4.91,0,0,1-.08-.89,6.94,6.94,0,0,1,2.3-4.86c5.8-5.92,22-9.89,40.29-9.89s34.49,4,40.29,9.89a7,7,0,0,1,2.29,4.62l.23.23-.23.24a4.9,4.9,0,0,1-.07.67c-.62,3.83-5.38,7.36-13.4,9.93S571.55,65.08,560.67,65.08Zm0-28.39c-18,0-33.89,3.84-39.5,9.55a5.88,5.88,0,0,0-2,4.07,3.92,3.92,0,0,0,.06.71C520.43,58.16,539,64,560.67,64s40.25-5.8,41.41-12.93a4.08,4.08,0,0,0,.06-.71h0a5.93,5.93,0,0,0-2-4.07C594.56,40.53,578.69,36.69,560.67,36.69Z"/><path class="cls-4" d="M560.67,65.08c-10.87,0-21.21-1.4-29.1-3.93s-12.78-6.1-13.41-9.94c0-.3-.06-.57-.08-.84v0c-.27-3-.4-6.18-.4-9.32h1.12c0,3.49,4.39,7,12,9.51,8,2.66,18.56,4.13,29.83,4.13s21.87-1.47,29.83-4.13c7.65-2.56,12-6,12-9.51h1.12c0,3-.13,6.11-.38,9.1l.2.21-.24.25c0,.21,0,.41-.06.62-.62,3.87-5.38,7.4-13.4,10S571.55,65.08,560.67,65.08ZM518.85,44.51c.07,1.94.18,3.86.35,5.75v.05c0,.23,0,.49.07.75C520.43,58.16,539,64,560.67,64s40.25-5.8,41.41-12.93c0-.16,0-.33,0-.51h0l0-.26q.25-2.84.34-5.75C598,51,581.24,55.76,560.67,55.76S523.33,51,518.85,44.51Z"/><path class="cls-2" d="M602.63,51.12c-2.83,30.19-18.14,53.86-37.28,57.2a26.28,26.28,0,0,1-9.36,0c-19.14-3.34-34.45-27-37.28-57.2,1.22,7.47,19.54,13.4,42,13.4S601.42,58.59,602.63,51.12Z"/><path class="cls-4" d="M560.67,109.3a26.07,26.07,0,0,1-4.78-.43c-19.35-3.38-34.87-27.11-37.74-57.7l1.11-.14C520.43,58.16,539,64,560.67,64s40.25-5.8,41.41-12.93l1.1.14c-2.87,30.6-18.39,54.33-37.74,57.7A25.88,25.88,0,0,1,560.67,109.3Zm-41-55c3.57,28.5,18.29,50.27,36.46,53.44a26.1,26.1,0,0,0,9.16,0c18.17-3.17,32.89-24.93,36.46-53.43-2.06,2.6-6.15,5-11.93,6.81-7.9,2.53-18.23,3.93-29.11,3.93s-21.21-1.4-29.1-3.93C525.78,59.3,521.69,56.94,519.63,54.33Z"/><path class="cls-8" d="M588,158.2c0,8-12.22,14.52-27.3,14.52s-27.3-6.5-27.3-14.52c0-7.17,9.77-13.13,22.62-14.3v14.3c0-1.38,2.09-2.49,4.68-2.49s4.68,1.11,4.68,2.49V143.9C578.19,145.07,588,151,588,158.2Z"/><path class="cls-4" d="M560.67,173.28c-15.36,0-27.86-6.77-27.86-15.08,0-7.38,9.73-13.63,23.13-14.86l.61-.06v13a8,8,0,0,1,8.24,0v-13l.61.06c13.4,1.23,23.13,7.48,23.13,14.86C588.53,166.51,576,173.28,560.67,173.28Zm-5.24-28.77c-12.3,1.29-21.51,7.12-21.51,13.69,0,7.7,12,14,26.75,14s26.74-6.26,26.74-14c0-6.57-9.2-12.4-21.5-13.69V158.2h-1.12c0-.91-1.69-1.93-4.12-1.93s-4.12,1-4.12,1.93h-1.12Z"/><path class="cls-8" d="M565.35,108.32V158.2c0-1.38-2.1-2.49-4.68-2.49S556,156.82,556,158.2V108.32a26.28,26.28,0,0,0,9.36,0Z"/><path class="cls-4" d="M565.91,158.2h-1.12c0-.91-1.69-1.93-4.12-1.93s-4.12,1-4.12,1.93h-1.12V107.65l.66.12a26.1,26.1,0,0,0,9.16,0l.66-.12ZM556.55,109V156.3a8,8,0,0,1,8.24,0V109A27.1,27.1,0,0,1,556.55,109Z"/><path class="cls-5" d="M565.35,158.2c0,1.38-2.1,2.49-4.68,2.49S556,159.58,556,158.2s2.09-2.49,4.68-2.49S565.35,156.82,565.35,158.2Z"/><path class="cls-4" d="M560.67,161.25c-2.94,0-5.24-1.34-5.24-3.05s2.3-3,5.24-3,5.24,1.34,5.24,3S563.61,161.25,560.67,161.25Zm0-5c-2.43,0-4.12,1-4.12,1.93s1.69,1.93,4.12,1.93,4.12-1,4.12-1.93S563.1,156.27,560.67,156.27Z"/><path class="cls-5" d="M589.08,53.18h7.17a6.47,6.47,0,0,0-2.14-4.46C588.57,43.07,572.8,39,554.22,39c-1.21,0-2.4,0-3.58,0,17,.48,31.12,4.39,36.3,9.67A6.47,6.47,0,0,1,589.08,53.18Z"/><path class="cls-4" d="M560.67,55.76c-24.11,0-43-6.48-43-14.76s18.88-14.75,43-14.75,43,6.48,43,14.75S584.78,55.76,560.67,55.76Zm0-28.39c-11.27,0-21.87,1.46-29.83,4.13-7.65,2.56-12,6-12,9.5s4.39,7,12,9.51c8,2.66,18.56,4.13,29.83,4.13s21.87-1.47,29.83-4.13c7.65-2.56,12-6,12-9.51s-4.39-6.94-12-9.5C582.54,28.83,572,27.37,560.67,27.37Z"/><rect class="cls-1" x="188.5" y="440" width="240" height="240"/><rect class="cls-4" x="308.36" y="462.5" width="0.28" height="7"/><ellipse class="cls-4" cx="308.5" cy="464.41" rx="0.91" ry="0.68"/><path class="cls-4" d="M308.5,465.16a.78.78,0,1,1,1-.75A.89.89,0,0,1,308.5,465.16Zm0-1.36c-.46,0-.84.28-.84.61s.38.61.84.61.84-.27.84-.61S309,463.8,308.5,463.8Z"/><rect class="cls-4" x="292.04" y="523.69" width="0.28" height="7"/><ellipse class="cls-4" cx="292.18" cy="525.6" rx="0.91" ry="0.68"/><path class="cls-4" d="M292.18,526.35a.78.78,0,1,1,1-.75A.89.89,0,0,1,292.18,526.35Zm0-1.36c-.46,0-.84.27-.84.61s.38.61.84.61.84-.28.84-.61S292.65,525,292.18,525Z"/><path class="cls-7" d="M292.18,525.6a.65.65,0,0,1,.46-.57,1.15,1.15,0,0,0-.46-.11c-.5,0-.91.31-.91.68s.41.68.91.68a1.15,1.15,0,0,0,.46-.11A.67.67,0,0,1,292.18,525.6Z"/><rect class="cls-5" x="294.29" y="522.88" width="28.42" height="7.97"/><path class="cls-2" d="M308.5,522.88h0a.86.86,0,0,0-.82.58l-.65,1.79a.87.87,0,0,0-.06.32v5.28H310v-5.28a.87.87,0,0,0-.06-.32l-.65-1.79A.86.86,0,0,0,308.5,522.88Z"/><path class="cls-2" d="M311.55,522.88h0a.87.87,0,0,0-.82.58l-.65,1.79a1.13,1.13,0,0,0-.05.32v5.28h3.05v-5.28a.87.87,0,0,0-.06-.32l-.65-1.79A.86.86,0,0,0,311.55,522.88Z"/><path class="cls-2" d="M314.6,522.88h0a.88.88,0,0,0-.82.58l-.65,1.79a1.13,1.13,0,0,0-.05.32v5.28h3.05v-5.28a1.13,1.13,0,0,0-.05-.32l-.65-1.79A.88.88,0,0,0,314.6,522.88Z"/><path class="cls-2" d="M317.66,522.88h0a.86.86,0,0,0-.82.58l-.65,1.79a.87.87,0,0,0-.06.32v5.28h3.05v-5.28a1.13,1.13,0,0,0-.05-.32l-.65-1.79A.87.87,0,0,0,317.66,522.88Z"/><path class="cls-2" d="M305.45,522.88h0a.86.86,0,0,0-.82.58l-.65,1.79a.87.87,0,0,0-.06.32v5.28H307v-5.28a1.13,1.13,0,0,0-.05-.32l-.65-1.79A.87.87,0,0,0,305.45,522.88Z"/><path class="cls-2" d="M302.4,522.88h0a.88.88,0,0,0-.83.58l-.65,1.79a1.13,1.13,0,0,0-.05.32v5.28h3.05v-5.28a1.13,1.13,0,0,0-.05-.32l-.65-1.79A.88.88,0,0,0,302.4,522.88Z"/><path class="cls-2" d="M299.37,522.88h0a.86.86,0,0,0-.82.58l-.65,1.79a.87.87,0,0,0-.06.32v5.28h3.06v-5.28a.87.87,0,0,0-.06-.32l-.65-1.79A.86.86,0,0,0,299.37,522.88Z"/><path class="cls-4" d="M299.37,524.13h0a.59.59,0,0,0-.56.4l-.45,1.22a.57.57,0,0,0,0,.22v3.64h2.1V526a.57.57,0,0,0,0-.22l-.44-1.22A.61.61,0,0,0,299.37,524.13Z"/><path class="cls-4" d="M302.4,524.13h0a.6.6,0,0,0-.57.4l-.45,1.22a.83.83,0,0,0,0,.22v3.64h2.09V526a.83.83,0,0,0,0-.22l-.45-1.22A.6.6,0,0,0,302.4,524.13Z"/><path class="cls-4" d="M305.42,524.13h0a.61.61,0,0,0-.57.4l-.44,1.22a.57.57,0,0,0,0,.22v3.64h2.1V526a.57.57,0,0,0,0-.22l-.44-1.22A.61.61,0,0,0,305.42,524.13Z"/><path class="cls-4" d="M308.5,524.13h0a.61.61,0,0,0-.57.4l-.44,1.22a.57.57,0,0,0,0,.22v3.64h2.1V526a.57.57,0,0,0,0-.22l-.44-1.22A.61.61,0,0,0,308.5,524.13Z"/><path class="cls-4" d="M311.55,524.13h0a.59.59,0,0,0-.56.4l-.45,1.22a.85.85,0,0,0,0,.22v3.64h2.1V526a.57.57,0,0,0,0-.22l-.44-1.22A.6.6,0,0,0,311.55,524.13Z"/><path class="cls-4" d="M314.6,524.13h0a.6.6,0,0,0-.56.4l-.45,1.22a.83.83,0,0,0,0,.22v3.64h2.09V526a.83.83,0,0,0,0-.22l-.45-1.22A.6.6,0,0,0,314.6,524.13Z"/><path class="cls-4" d="M317.66,524.13h0a.6.6,0,0,0-.57.4l-.44,1.22a.57.57,0,0,0,0,.22v3.64h2.1V526a.85.85,0,0,0,0-.22l-.45-1.22A.59.59,0,0,0,317.66,524.13Z"/><rect class="cls-4" x="294.29" y="565.32" width="28.42" height="92.04"/><path class="cls-4" d="M322.85,657.5h-28.7V565.18h28.7Zm-28.42-.28h28.14V565.46H294.43Z"/><rect class="cls-1" x="309.08" y="565.32" width="2.36" height="92.04" rx="0.42"/><rect class="cls-1" x="311.43" y="565.32" width="2.36" height="92.04" rx="0.42"/><rect class="cls-1" x="313.79" y="565.32" width="2.36" height="92.04" rx="0.42"/><rect class="cls-1" x="316.15" y="565.32" width="2.36" height="92.04" rx="0.42"/><rect class="cls-1" x="318.45" y="565.32" width="2.36" height="92.04" rx="0.42"/><rect class="cls-1" x="306.72" y="565.32" width="2.36" height="92.04" rx="0.42"/><rect class="cls-1" x="304.36" y="565.32" width="2.36" height="92.04" rx="0.42"/><rect class="cls-1" x="302" y="565.32" width="2.36" height="92.04" rx="0.42"/><rect class="cls-1" x="299.65" y="565.32" width="2.36" height="92.04" rx="0.42"/><rect class="cls-1" x="297.29" y="565.32" width="2.36" height="92.04" rx="0.42"/><path class="cls-2" d="M298.47,565.32v92a1.18,1.18,0,0,1-1.18-1.18V566.5A1.18,1.18,0,0,1,298.47,565.32Z"/><path class="cls-2" d="M300.83,565.32v92a1.19,1.19,0,0,1-1.19-1.18V566.5A1.19,1.19,0,0,1,300.83,565.32Z"/><path class="cls-2" d="M305.53,565.32v92a1.18,1.18,0,0,1-1.18-1.18V566.5A1.18,1.18,0,0,1,305.53,565.32Z"/><path class="cls-2" d="M307.9,565.32v92a1.19,1.19,0,0,1-1.18-1.18V566.5A1.19,1.19,0,0,1,307.9,565.32Z"/><path class="cls-2" d="M310.23,565.32v92a1.19,1.19,0,0,1-1.18-1.18V566.5A1.19,1.19,0,0,1,310.23,565.32Z"/><path class="cls-2" d="M312.62,565.32v92a1.19,1.19,0,0,1-1.19-1.18V566.5A1.19,1.19,0,0,1,312.62,565.32Z"/><path class="cls-2" d="M315,565.32v92a1.19,1.19,0,0,1-1.19-1.18V566.5A1.19,1.19,0,0,1,315,565.32Z"/><path class="cls-2" d="M317.33,565.32v92a1.19,1.19,0,0,1-1.18-1.18V566.5A1.19,1.19,0,0,1,317.33,565.32Z"/><path class="cls-2" d="M319.69,565.32v92a1.19,1.19,0,0,1-1.19-1.18V566.5A1.19,1.19,0,0,1,319.69,565.32Z"/><path class="cls-2" d="M303.19,565.32v92a1.19,1.19,0,0,1-1.19-1.18V566.5A1.19,1.19,0,0,1,303.19,565.32Z"/><rect class="cls-2" x="292.18" y="530.85" width="32.64" height="34.47"/><path class="cls-4" d="M325,565.46H292V530.71H325Zm-32.64-.28h32.36V531H292.32Z"/><rect class="cls-4" x="308.22" y="530.85" width="0.56" height="34.47"/><rect class="cls-4" x="305.48" y="530.85" width="0.56" height="34.47"/><rect class="cls-4" x="302.74" y="530.85" width="0.56" height="34.47"/><rect class="cls-4" x="300" y="530.85" width="0.56" height="34.47"/><rect class="cls-4" x="297.27" y="530.85" width="0.56" height="34.47"/><rect class="cls-4" x="294.53" y="530.85" width="0.56" height="34.47"/><rect class="cls-4" x="310.96" y="530.85" width="0.56" height="34.47"/><rect class="cls-4" x="313.7" y="530.85" width="0.56" height="34.47"/><rect class="cls-4" x="316.44" y="530.85" width="0.56" height="34.47"/><rect class="cls-4" x="319.18" y="530.85" width="0.56" height="34.47"/><rect class="cls-4" x="321.92" y="530.85" width="0.56" height="34.47"/><polygon class="cls-6" points="322.71 522.88 294.29 522.88 300.68 510.35 316.32 510.35 322.71 522.88"/><polygon class="cls-7" points="300.68 510.35 301.92 510.35 296.55 522.88 294.29 522.88 300.68 510.35"/><polygon class="cls-4" points="322.71 522.88 320.45 522.88 315.08 510.35 316.32 510.35 322.71 522.88"/><rect class="cls-5" x="300.56" y="498.13" width="15.89" height="12.22"/><path class="cls-6" d="M308.5,467.77h0c1.49,11.28,3.83,21.71,7.94,30.36H300.56c4.11-8.65,6.45-19.08,7.94-30.36Z"/><path class="cls-4" d="M316.42,498.13h-2.31c-3.38-8.81-4.95-19.2-5.63-30.36C310,479.05,312.3,489.48,316.42,498.13Z"/><path class="cls-7" d="M300.56,498.13h2.31c3.37-8.81,4.94-19.2,5.63-30.36C307,479.05,304.67,489.48,300.56,498.13Z"/><rect class="cls-10" x="296.72" y="536.3" width="23.56" height="23.56"/><path class="cls-4" d="M320.42,560H296.58V536.17h23.84Zm-23.56-.28h23.28V536.44H296.86Z"/><rect class="cls-6" x="297.9" y="537.48" width="21.21" height="21.21"/><path class="cls-4" d="M319.24,558.83H297.76V537.34h21.48Zm-21.2-.28H319V537.62H298Z"/><path class="cls-9" d="M308.5,513.26h0a.46.46,0,0,0-.41.2l-.33.63a.5.5,0,0,0,0,.12v1.87h1.52v-1.87a.5.5,0,0,0,0-.12l-.33-.63A.46.46,0,0,0,308.5,513.26Z"/><path class="cls-9" d="M311.24,517.82h0a.43.43,0,0,0-.41.21l-.33.63a.36.36,0,0,0,0,.11v1.87H312v-1.87a.2.2,0,0,0,0-.11l-.32-.63A.44.44,0,0,0,311.24,517.82Z"/><path class="cls-9" d="M316.72,517.82h0a.43.43,0,0,0-.41.21l-.33.63a.2.2,0,0,0,0,.11v1.87h1.53v-1.87a.2.2,0,0,0,0-.11l-.32-.63A.44.44,0,0,0,316.72,517.82Z"/><path class="cls-9" d="M305.76,517.82h0a.44.44,0,0,0-.41.21l-.32.63a.2.2,0,0,0,0,.11v1.87h1.52v-1.87a.36.36,0,0,0,0-.11l-.33-.63A.43.43,0,0,0,305.76,517.82Z"/><path class="cls-9" d="M300.28,517.82h0a.44.44,0,0,0-.41.21l-.32.63a.2.2,0,0,0,0,.11v1.87h1.53v-1.87a.2.2,0,0,0,0-.11l-.33-.63A.43.43,0,0,0,300.28,517.82Z"/><path class="cls-9" d="M314,513.26h0a.45.45,0,0,0-.41.2l-.33.63a.27.27,0,0,0,0,.12v1.87h1.53v-1.87a.27.27,0,0,0,0-.12l-.32-.63A.46.46,0,0,0,314,513.26Z"/><path class="cls-9" d="M303,513.26h0a.46.46,0,0,0-.41.2l-.32.63a.27.27,0,0,0,0,.12v1.87h1.53v-1.87a.27.27,0,0,0,0-.12l-.33-.63A.45.45,0,0,0,303,513.26Z"/><path class="cls-2" d="M307.46,510.21v-7.13a2.71,2.71,0,0,1,0-.41l.49-2.46c.07-.4.27-.68.47-.68s.4.28.48.68l.49,2.46a2.73,2.73,0,0,1,0,.41v7.13Z"/><path class="cls-4" d="M308.46,499.67c.1,0,.27.18.34.57l.49,2.46a2.33,2.33,0,0,1,0,.38v7H307.6v-7a1.58,1.58,0,0,1,0-.38l.48-2.46c.08-.39.25-.57.34-.57m0-.27c-.27,0-.52.31-.61.79l-.48,2.45a2.12,2.12,0,0,0-.05.44v7.27h2.28v-7.27a2.12,2.12,0,0,0,0-.44l-.48-2.45c-.1-.48-.34-.79-.62-.79Z"/><path class="cls-2" d="M309.74,510.21v-7.13a2.71,2.71,0,0,1,0-.41l.49-2.46c.08-.4.27-.68.47-.68s.4.28.48.68l.49,2.46a2.73,2.73,0,0,1,0,.41v7.13Z"/><path class="cls-4" d="M310.74,499.67c.1,0,.27.18.34.57l.49,2.46a2.33,2.33,0,0,1,0,.38v7h-1.73v-7a1.58,1.58,0,0,1,0-.38l.48-2.46c.08-.39.25-.57.34-.57m0-.27c-.27,0-.52.31-.61.79l-.48,2.45a2.12,2.12,0,0,0,0,.44v7.27h2.28v-7.27a2.12,2.12,0,0,0,0-.44l-.48-2.45c-.1-.48-.34-.79-.62-.79Z"/><path class="cls-2" d="M312,510.21v-7.13a2.71,2.71,0,0,1,0-.41l.49-2.46c.08-.4.27-.68.47-.68s.4.28.48.68l.49,2.46a2.73,2.73,0,0,1,0,.41v7.13Z"/><path class="cls-4" d="M313,499.67c.1,0,.27.18.34.57l.49,2.46a2.33,2.33,0,0,1,0,.38v7h-1.73v-7a1.58,1.58,0,0,1,0-.38l.48-2.46c.08-.39.25-.57.34-.57m0-.27c-.27,0-.52.31-.61.79l-.48,2.45a2.12,2.12,0,0,0-.05.44v7.27h2.28v-7.27a2.12,2.12,0,0,0,0-.44l-.48-2.45c-.1-.48-.34-.79-.62-.79Z"/><path class="cls-2" d="M314.3,510.21v-7.13a2.71,2.71,0,0,1,0-.41l.49-2.46c.08-.4.27-.68.47-.68s.4.28.48.68l.49,2.46a2.73,2.73,0,0,1,0,.41v7.13Z"/><path class="cls-4" d="M315.3,499.67c.1,0,.27.18.34.57l.49,2.46a2.33,2.33,0,0,1,0,.38v7h-1.73v-7a1.58,1.58,0,0,1,0-.38l.48-2.46c.08-.39.25-.57.34-.57m0-.27c-.27,0-.52.31-.61.79l-.48,2.45a2.12,2.12,0,0,0,0,.44v7.27h2.28v-7.27a2.12,2.12,0,0,0,0-.44l-.48-2.45c-.1-.48-.34-.79-.62-.79Z"/><path class="cls-2" d="M305.18,510.21v-7.13a2.71,2.71,0,0,1,0-.41l.49-2.46c.07-.4.27-.68.47-.68s.4.28.48.68l.49,2.46a2.73,2.73,0,0,1,0,.41v7.13Z"/><path class="cls-4" d="M306.18,499.67c.1,0,.27.18.34.57l.49,2.46a2.33,2.33,0,0,1,0,.38v7h-1.73v-7a1.58,1.58,0,0,1,0-.38l.48-2.46c.08-.39.25-.57.34-.57m0-.27c-.27,0-.52.31-.61.79l-.48,2.45a2.12,2.12,0,0,0,0,.44v7.27h2.28v-7.27a2.12,2.12,0,0,0,0-.44l-.48-2.45c-.1-.48-.34-.79-.62-.79Z"/><path class="cls-2" d="M303,510.21v-7.13a2.73,2.73,0,0,1,0-.41l.49-2.46c.08-.4.27-.68.48-.68s.39.28.47.68l.49,2.46a2.71,2.71,0,0,1,0,.41v7.13Z"/><path class="cls-4" d="M304,499.67c.09,0,.26.18.34.57l.48,2.46a1.58,1.58,0,0,1,0,.38v7h-1.73v-7a2.33,2.33,0,0,1,0-.38l.49-2.46c.07-.39.24-.57.34-.57m0-.27c-.28,0-.52.31-.62.79l-.48,2.45a2.12,2.12,0,0,0,0,.44v7.27h2.28v-7.27a2.12,2.12,0,0,0-.05-.44l-.48-2.45c-.09-.48-.34-.79-.61-.79Z"/><path class="cls-2" d="M300.7,510.21v-7.13a2.73,2.73,0,0,1,0-.41l.49-2.46c.08-.4.27-.68.48-.68s.39.28.47.68l.49,2.46a2.71,2.71,0,0,1,0,.41v7.13Z"/><path class="cls-4" d="M301.7,499.67c.09,0,.26.18.34.57l.48,2.46a1.58,1.58,0,0,1,0,.38v7h-1.73v-7a2.33,2.33,0,0,1,0-.38l.49-2.46c.07-.39.24-.57.34-.57m0-.27c-.28,0-.52.31-.62.79l-.48,2.45a2.12,2.12,0,0,0,0,.44v7.27h2.28v-7.27a2.12,2.12,0,0,0,0-.44l-.48-2.45c-.09-.48-.34-.79-.61-.79Z"/><path class="cls-2" d="M307.46,510.21v-7.13a2.71,2.71,0,0,1,0-.41l.49-2.46c.07-.4.27-.68.47-.68s.4.28.48.68l.49,2.46a2.73,2.73,0,0,1,0,.41v7.13Z"/><path class="cls-4" d="M308.46,499.67c.1,0,.27.18.34.57l.49,2.46a2.33,2.33,0,0,1,0,.38v7H307.6v-7a1.58,1.58,0,0,1,0-.38l.48-2.46c.08-.39.25-.57.34-.57m0-.27c-.27,0-.52.31-.61.79l-.48,2.45a2.12,2.12,0,0,0-.05.44v7.27h2.28v-7.27a2.12,2.12,0,0,0,0-.44l-.48-2.45c-.1-.48-.34-.79-.62-.79Z"/><path class="cls-2" d="M309.74,510.21v-7.13a2.71,2.71,0,0,1,0-.41l.49-2.46c.08-.4.27-.68.47-.68s.4.28.48.68l.49,2.46a2.73,2.73,0,0,1,0,.41v7.13Z"/><path class="cls-4" d="M310.74,499.67c.1,0,.27.18.34.57l.49,2.46a2.33,2.33,0,0,1,0,.38v7h-1.73v-7a1.58,1.58,0,0,1,0-.38l.48-2.46c.08-.39.25-.57.34-.57m0-.27c-.27,0-.52.31-.61.79l-.48,2.45a2.12,2.12,0,0,0,0,.44v7.27h2.28v-7.27a2.12,2.12,0,0,0,0-.44l-.48-2.45c-.1-.48-.34-.79-.62-.79Z"/><path class="cls-2" d="M312,510.21v-7.13a2.71,2.71,0,0,1,0-.41l.49-2.46c.08-.4.27-.68.47-.68s.4.28.48.68l.49,2.46a2.73,2.73,0,0,1,0,.41v7.13Z"/><path class="cls-4" d="M313,499.67c.1,0,.27.18.34.57l.49,2.46a2.33,2.33,0,0,1,0,.38v7h-1.73v-7a1.58,1.58,0,0,1,0-.38l.48-2.46c.08-.39.25-.57.34-.57m0-.27c-.27,0-.52.31-.61.79l-.48,2.45a2.12,2.12,0,0,0-.05.44v7.27h2.28v-7.27a2.12,2.12,0,0,0,0-.44l-.48-2.45c-.1-.48-.34-.79-.62-.79Z"/><path class="cls-2" d="M314.3,510.21v-7.13a2.71,2.71,0,0,1,0-.41l.49-2.46c.08-.4.27-.68.47-.68s.4.28.48.68l.49,2.46a2.73,2.73,0,0,1,0,.41v7.13Z"/><path class="cls-4" d="M315.3,499.67c.1,0,.27.18.34.57l.49,2.46a2.33,2.33,0,0,1,0,.38v7h-1.73v-7a1.58,1.58,0,0,1,0-.38l.48-2.46c.08-.39.25-.57.34-.57m0-.27c-.27,0-.52.31-.61.79l-.48,2.45a2.12,2.12,0,0,0,0,.44v7.27h2.28v-7.27a2.12,2.12,0,0,0,0-.44l-.48-2.45c-.1-.48-.34-.79-.62-.79Z"/><path class="cls-2" d="M305.18,510.21v-7.13a2.71,2.71,0,0,1,0-.41l.49-2.46c.07-.4.27-.68.47-.68s.4.28.48.68l.49,2.46a2.73,2.73,0,0,1,0,.41v7.13Z"/><path class="cls-4" d="M306.18,499.67c.1,0,.27.18.34.57l.49,2.46a2.33,2.33,0,0,1,0,.38v7h-1.73v-7a1.58,1.58,0,0,1,0-.38l.48-2.46c.08-.39.25-.57.34-.57m0-.27c-.27,0-.52.31-.61.79l-.48,2.45a2.12,2.12,0,0,0,0,.44v7.27h2.28v-7.27a2.12,2.12,0,0,0,0-.44l-.48-2.45c-.1-.48-.34-.79-.62-.79Z"/><path class="cls-2" d="M303,510.21v-7.13a2.73,2.73,0,0,1,0-.41l.49-2.46c.08-.4.27-.68.48-.68s.39.28.47.68l.49,2.46a2.71,2.71,0,0,1,0,.41v7.13Z"/><path class="cls-4" d="M304,499.67c.09,0,.26.18.34.57l.48,2.46a1.58,1.58,0,0,1,0,.38v7h-1.73v-7a2.33,2.33,0,0,1,0-.38l.49-2.46c.07-.39.24-.57.34-.57m0-.27c-.28,0-.52.31-.62.79l-.48,2.45a2.12,2.12,0,0,0,0,.44v7.27h2.28v-7.27a2.12,2.12,0,0,0-.05-.44l-.48-2.45c-.09-.48-.34-.79-.61-.79Z"/><path class="cls-2" d="M300.7,510.21v-7.13a2.73,2.73,0,0,1,0-.41l.49-2.46c.08-.4.27-.68.48-.68s.39.28.47.68l.49,2.46a2.71,2.71,0,0,1,0,.41v7.13Z"/><path class="cls-4" d="M301.7,499.67c.09,0,.26.18.34.57l.48,2.46a1.58,1.58,0,0,1,0,.38v7h-1.73v-7a2.33,2.33,0,0,1,0-.38l.49-2.46c.07-.39.24-.57.34-.57m0-.27c-.28,0-.52.31-.62.79l-.48,2.45a2.12,2.12,0,0,0,0,.44v7.27h2.28v-7.27a2.12,2.12,0,0,0,0-.44l-.48-2.45c-.09-.48-.34-.79-.61-.79Z"/><circle class="cls-5" cx="308.5" cy="548.09" r="9.13"/><path class="cls-4" d="M308.5,557.36a9.27,9.27,0,1,1,9.27-9.27A9.28,9.28,0,0,1,308.5,557.36Zm0-18.26a9,9,0,1,0,9,9A9,9,0,0,0,308.5,539.1Z"/><circle class="cls-11" cx="308.5" cy="548.09" r="8.07"/><path class="cls-4" d="M308.5,556.3a8.21,8.21,0,1,1,8.21-8.21A8.22,8.22,0,0,1,308.5,556.3Zm0-16.14a7.93,7.93,0,1,0,7.93,7.93A7.94,7.94,0,0,0,308.5,540.16Z"/><circle class="cls-5" cx="308.5" cy="548.09" r="8.07"/><path class="cls-4" d="M308.5,556.3a8.21,8.21,0,1,1,8.21-8.21A8.22,8.22,0,0,1,308.5,556.3Zm0-16.14a7.93,7.93,0,1,0,7.93,7.93A7.94,7.94,0,0,0,308.5,540.16Z"/><circle class="cls-5" cx="308.5" cy="548.09" r="5.8"/><path class="cls-4" d="M308.5,554a5.95,5.95,0,1,1,5.94-5.94A5.95,5.95,0,0,1,308.5,554Zm0-11.61a5.67,5.67,0,1,0,5.66,5.67A5.67,5.67,0,0,0,308.5,542.42Z"/><rect class="cls-4" x="308.36" y="540.02" width="0.28" height="2.27"/><line class="cls-12" x1="305.6" y1="543.06" x2="304.47" y2="541.1"/><rect class="cls-4" x="304.89" y="540.95" width="0.28" height="2.27" transform="translate(-230.16 225.12) rotate(-30)"/><line class="cls-12" x1="303.47" y1="545.18" x2="301.51" y2="544.05"/><rect class="cls-4" x="302.35" y="543.49" width="0.28" height="2.27" transform="translate(-320.41 534.23) rotate(-60)"/><line class="cls-12" x1="302.7" y1="548.09" x2="300.43" y2="548.09"/><rect class="cls-4" x="300.43" y="547.95" width="2.27" height="0.28"/><line class="cls-12" x1="303.47" y1="550.99" x2="301.51" y2="552.12"/><rect class="cls-4" x="301.36" y="551.42" width="2.27" height="0.28" transform="translate(-235.38 225.35) rotate(-30.02)"/><line class="cls-12" x1="305.6" y1="553.11" x2="304.47" y2="555.08"/><rect class="cls-4" x="303.9" y="553.95" width="2.27" height="0.28" transform="translate(-327.34 541.27) rotate(-60.01)"/><line class="cls-12" x1="308.5" y1="553.89" x2="308.5" y2="556.16"/><rect class="cls-4" x="308.36" y="553.89" width="0.28" height="2.27"/><line class="cls-12" x1="311.4" y1="553.11" x2="312.53" y2="555.08"/><rect class="cls-4" x="311.83" y="552.96" width="0.28" height="2.27" transform="translate(-235.26 230.23) rotate(-30)"/><line class="cls-12" x1="313.53" y1="550.99" x2="315.49" y2="552.12"/><rect class="cls-4" x="314.37" y="550.42" width="0.28" height="2.27" transform="translate(-320.41 548.17) rotate(-60)"/><line class="cls-12" x1="314.3" y1="548.09" x2="316.57" y2="548.09"/><rect class="cls-4" x="314.3" y="547.95" width="2.27" height="0.28"/><line class="cls-12" x1="313.53" y1="545.18" x2="315.49" y2="544.05"/><rect class="cls-4" x="313.37" y="544.48" width="2.27" height="0.28" transform="translate(-230.3 230.43) rotate(-30.02)"/><line class="cls-12" x1="311.4" y1="543.06" x2="312.53" y2="541.1"/><rect class="cls-4" x="310.84" y="541.94" width="2.27" height="0.28" transform="translate(-313.47 541.27) rotate(-60.01)"/><rect class="cls-4" x="308.36" y="543.18" width="0.28" height="4.9"/><rect class="cls-4" x="310.34" y="546.78" width="0.28" height="4.9" transform="translate(-320.41 543.49) rotate(-60)"/><rect class="cls-13" x="298.71" y="538.29" width="1.37" height="1.37"/><rect class="cls-13" x="298.71" y="556.55" width="1.37" height="1.37"/><rect class="cls-13" x="316.97" y="556.55" width="1.37" height="1.37"/><rect class="cls-13" x="316.97" y="538.29" width="1.37" height="1.37"/><rect class="cls-4" x="324.68" y="523.69" width="0.28" height="7"/><ellipse class="cls-4" cx="324.82" cy="525.6" rx="0.91" ry="0.68"/><path class="cls-4" d="M324.82,526.35a.78.78,0,1,1,1-.75A.89.89,0,0,1,324.82,526.35Zm0-1.36c-.46,0-.84.27-.84.61s.38.61.84.61.84-.28.84-.61S325.28,525,324.82,525Z"/><path class="cls-7" d="M324.82,525.6a.65.65,0,0,1,.46-.57,1.15,1.15,0,0,0-.46-.11c-.5,0-.91.31-.91.68s.41.68.91.68a1.15,1.15,0,0,0,.46-.11A.67.67,0,0,1,324.82,525.6Z"/><rect class="cls-4" x="300.64" y="491.13" width="0.28" height="7"/><ellipse class="cls-4" cx="300.78" cy="493.04" rx="0.91" ry="0.68"/><path class="cls-4" d="M300.78,493.79a.89.89,0,0,1-1-.75c0-.41.44-.74,1-.74s1,.33,1,.74S301.32,493.79,300.78,493.79Zm0-1.35c-.46,0-.84.27-.84.6s.38.61.84.61.85-.27.85-.61S301.25,492.44,300.78,492.44Z"/><path class="cls-7" d="M300.78,493a.68.68,0,0,1,.46-.57,1.15,1.15,0,0,0-.46-.1c-.5,0-.91.3-.91.67s.41.68.91.68a1.15,1.15,0,0,0,.46-.1A.68.68,0,0,1,300.78,493Z"/><rect class="cls-4" x="316.08" y="491.13" width="0.28" height="7"/><ellipse class="cls-4" cx="316.22" cy="493.04" rx="0.91" ry="0.68"/><path class="cls-4" d="M316.22,493.79c-.54,0-1-.33-1-.75s.45-.74,1-.74,1,.33,1,.74A.89.89,0,0,1,316.22,493.79Zm0-1.35c-.47,0-.85.27-.85.6s.38.61.85.61.84-.27.84-.61S316.68,492.44,316.22,492.44Z"/><path class="cls-7" d="M316.22,493a.68.68,0,0,1,.45-.57,1.06,1.06,0,0,0-.45-.1c-.51,0-.92.3-.92.67s.41.68.92.68a1.06,1.06,0,0,0,.45-.1A.68.68,0,0,1,316.22,493Z"/><rect class="cls-5" x="294.29" y="587.09" width="28.42" height="0.84"/><rect class="cls-5" x="294.29" y="590.75" width="28.42" height="0.84"/><rect class="cls-5" x="294.29" y="609.01" width="28.42" height="0.84"/><rect class="cls-5" x="294.29" y="612.66" width="28.42" height="0.84"/><rect class="cls-5" x="294.29" y="630.92" width="28.42" height="0.84"/><rect class="cls-5" x="294.29" y="634.57" width="28.42" height="0.84"/><path class="cls-7" d="M308.5,464.41a.65.65,0,0,1,.46-.57,1.15,1.15,0,0,0-.46-.11c-.5,0-.91.31-.91.68s.41.68.91.68A1.15,1.15,0,0,0,309,465,.65.65,0,0,1,308.5,464.41Z"/></svg>