<?xml version="1.0" encoding="utf-8"?>
<!-- Generator: Adobe Illustrator 24.1.0, SVG Export Plug-In . SVG Version: 6.00 Build 0)  -->
<svg version="1.1" id="Layer_1" xmlns="http://www.w3.org/2000/svg" xmlns:xlink="http://www.w3.org/1999/xlink" x="0px" y="0px"
	 viewBox="0 0 582 320" style="enable-background:new 0 0 582 320;" xml:space="preserve">
<style type="text/css">
	.st0{fill:url(#SVGID_1_);}
	.st1{fill:url(#SVGID_2_);}
</style>
<g id="Layer_2_1_">
	<g id="Layer_1-2">
		
			<linearGradient id="SVGID_1_" gradientUnits="userSpaceOnUse" x1="236.7105" y1="903.7078" x2="359.5405" y2="1034.4578" gradientTransform="matrix(1 0 0 1 0 -818)">
			<stop  offset="0" style="stop-color:#9FD6C0"/>
			<stop  offset="0.44" style="stop-color:#8AC2E5"/>
			<stop  offset="1" style="stop-color:#7273B6"/>
		</linearGradient>
		<path class="st0" d="M227.6,110.7l25.3,62.7l26.6-62.7h26l25.8,62.7l26.3-62.7H389l-59.1,128.4l-39.2-87.2L252,239.1l-59-128.4
			H227.6z"/>
		
			<linearGradient id="SVGID_2_" gradientUnits="userSpaceOnUse" x1="360.834" y1="1098.9468" x2="221.1661" y2="857.0532" gradientTransform="matrix(1 0 0 1 0 -818)">
			<stop  offset="0" style="stop-color:#D289BB"/>
			<stop  offset="0.44" style="stop-color:#ED9AC2"/>
			<stop  offset="1" style="stop-color:#FBB349"/>
		</linearGradient>
		<path class="st1" d="M291,299.7c-77,0-139.7-62.7-139.7-139.7S214,20.3,291,20.3S430.7,83,430.7,160S368,299.7,291,299.7z
			 M291,27.5C217.9,27.5,158.5,87,158.5,160S217.9,292.5,291,292.5S423.5,233.1,423.5,160S364.1,27.5,291,27.5L291,27.5z"/>
	</g>
</g>
</svg>
