<svg xmlns="http://www.w3.org/2000/svg" xmlns:xlink="http://www.w3.org/1999/xlink" viewBox="0 0 800 187.69"><defs><style>.cls-1{fill:url(#linear-gradient);}.cls-2{fill:url(#linear-gradient-2);}.cls-3{fill:url(#linear-gradient-3);}.cls-4{fill:url(#linear-gradient-4);}.cls-5{fill:url(#linear-gradient-5);}.cls-6{fill:url(#linear-gradient-6);}.cls-7{fill:url(#linear-gradient-7);}.cls-8{fill:url(#linear-gradient-8);}</style><linearGradient id="linear-gradient" x1="12.33" y1="77.94" x2="586.59" y2="224.66" gradientUnits="userSpaceOnUse"><stop offset="0" stop-color="#9fd6c0"/><stop offset="0.44" stop-color="#8ac2e5"/><stop offset="1" stop-color="#7273b6"/></linearGradient><linearGradient id="linear-gradient-2" x1="48.04" y1="51.21" x2="622.29" y2="197.93" xlink:href="#linear-gradient"/><linearGradient id="linear-gradient-3" x1="54.44" y1="26.15" x2="628.7" y2="172.88" xlink:href="#linear-gradient"/><linearGradient id="linear-gradient-4" x1="65.23" y1="-16.08" x2="639.49" y2="130.65" xlink:href="#linear-gradient"/><linearGradient id="linear-gradient-5" x1="66.73" y1="-21.96" x2="640.99" y2="124.76" xlink:href="#linear-gradient"/><linearGradient id="linear-gradient-6" x1="80.49" y1="-75.82" x2="654.75" y2="70.9" xlink:href="#linear-gradient"/><linearGradient id="linear-gradient-7" x1="80.23" y1="-74.8" x2="654.49" y2="71.93" xlink:href="#linear-gradient"/><linearGradient id="linear-gradient-8" x1="140.76" y1="175.1" x2="46.93" y2="12.59" gradientUnits="userSpaceOnUse"><stop offset="0" stop-color="#d289bb"/><stop offset="0.44" stop-color="#ed9ac2"/><stop offset="1" stop-color="#fbb349"/></linearGradient></defs><g id="Layer_2" data-name="Layer 2"><g id="Layer_1-2" data-name="Layer 1"><path class="cls-1" d="M51.22,60.69l17,42.1,17.85-42.1h17.49l17.33,42.1,17.67-42.1h21.14L120,147,93.67,88.41,67.68,147,28,60.69Z"/><path class="cls-2" d="M286.11,101.41c0,1.56,0,4.68-.18,7.79H224.6c1.56,7.28,10.05,16.64,23,16.64,14.38,0,22.53-8.32,22.53-8.32l10.39,15.59a52.56,52.56,0,0,1-32.92,11.79c-24.95,0-44.18-19.06-44.18-43.15S221,58.61,244.7,58.61C267.22,58.61,286.11,76.11,286.11,101.41Zm-20.79-7.28C265,87,258.39,77.5,244.7,77.5c-13.34,0-19.41,9.35-20.1,16.63Z"/><path class="cls-3" d="M390.58,101.41c0,1.56,0,4.68-.17,7.79H329.08c1.56,7.28,10.05,16.64,23,16.64,14.38,0,22.52-8.32,22.52-8.32L385,133.11a52.6,52.6,0,0,1-32.92,11.79c-24.95,0-44.18-19.06-44.18-43.15s17.5-43.14,41.24-43.14C371.7,58.61,390.58,76.11,390.58,101.41Zm-20.79-7.28c-.34-7.1-6.93-16.63-20.61-16.63-13.35,0-19.41,9.35-20.1,16.63Z"/><path class="cls-4" d="M441.18,93.09l29.45-32.4h26.86l-36,38.81,38.46,43.32H472.54L441.18,107v35.87H420.39v-131h20.79Z"/><path class="cls-5" d="M596.94,89.63v53.19H576.15v-48c0-11.78-7.28-16.8-16.29-16.8-10.74,0-16.29,10.57-16.29,10.57v54.23H522.78V60.69h19.41v12a28.36,28.36,0,0,1,24.6-14C582.73,58.61,596.94,69.88,596.94,89.63Z"/><path class="cls-6" d="M708.34,142.82H689.11V132.07S682,144.9,664.34,144.9c-21.31,0-40-17.85-40-43.15s18.72-43.14,40-43.14a29.27,29.27,0,0,1,23.21,10.75V11.83h20.79ZM687.55,89.45S681.66,78,668,78c-14,0-22.52,10.22-22.52,23.73s8.49,23.74,22.52,23.74c13.69,0,19.58-11.43,19.58-11.43Z"/><path class="cls-7" d="M800,61.21l-7.28,18.71a23.92,23.92,0,0,0-9.87-1.9c-12.65,0-18.37,11.09-18.37,11.09v53.71H743.69V60.69h19.75v12s7.11-14,22.35-14A44.7,44.7,0,0,1,800,61.21Z"/><path class="cls-8" d="M93.84,187.69a93.85,93.85,0,1,1,93.85-93.85A94,94,0,0,1,93.84,187.69Zm0-182.88a89,89,0,1,0,89,89A89.13,89.13,0,0,0,93.84,4.81Z"/></g></g></svg>