<svg id="Layer_1" data-name="Layer 1" xmlns="http://www.w3.org/2000/svg" xmlns:xlink="http://www.w3.org/1999/xlink" viewBox="0 0 800 187.69"><defs><style>.cls-1{fill:url(#linear-gradient);}.cls-2{fill:url(#linear-gradient-2);}.cls-3{fill:url(#linear-gradient-3);}.cls-4{fill:url(#linear-gradient-4);}.cls-5{fill:url(#linear-gradient-5);}.cls-6{fill:url(#linear-gradient-6);}.cls-7{fill:url(#linear-gradient-7);}.cls-8{fill:url(#linear-gradient-8);}</style><linearGradient id="linear-gradient" x1="58.85" y1="107.75" x2="564.2" y2="-21.37" gradientTransform="matrix(1, 0, 0, -1, 0, 187.6)" gradientUnits="userSpaceOnUse"><stop offset="0" stop-color="#9fd6c0"/><stop offset="0.44" stop-color="#8ac2e5"/><stop offset="1" stop-color="#7273b6"/></linearGradient><linearGradient id="linear-gradient-2" x1="90.27" y1="131.27" x2="595.61" y2="2.16" xlink:href="#linear-gradient"/><linearGradient id="linear-gradient-3" x1="95.91" y1="153.32" x2="601.25" y2="24.2" xlink:href="#linear-gradient"/><linearGradient id="linear-gradient-4" x1="105.39" y1="190.45" x2="610.74" y2="61.33" xlink:href="#linear-gradient"/><linearGradient id="linear-gradient-5" x1="106.72" y1="195.64" x2="612.06" y2="66.53" xlink:href="#linear-gradient"/><linearGradient id="linear-gradient-6" x1="118.83" y1="243.06" x2="624.18" y2="113.94" xlink:href="#linear-gradient"/><linearGradient id="linear-gradient-7" x1="118.6" y1="242.15" x2="623.95" y2="113.03" xlink:href="#linear-gradient"/><linearGradient id="linear-gradient-8" x1="171.86" y1="22.27" x2="89.28" y2="165.29" gradientTransform="matrix(1, 0, 0, -1, 0, 187.6)" gradientUnits="userSpaceOnUse"><stop offset="0" stop-color="#d289bb"/><stop offset="0.44" stop-color="#ed9ac2"/><stop offset="1" stop-color="#fbb349"/></linearGradient></defs><g id="Layer_2" data-name="Layer 2"><g id="Layer_1-2" data-name="Layer 1-2"><path class="cls-1" d="M93.07,64.67l15,37.05,15.71-37h15.39l15.25,37.05,15.55-37h18.61l-34.94,76L130.43,89.06l-22.87,51.56L72.64,64.67Z"/><path class="cls-2" d="M299.78,100.5c0,1.37,0,4.12-.16,6.86h-54c1.37,6.4,8.84,14.64,20.24,14.64,12.65,0,19.82-7.32,19.82-7.32l9.15,13.72a46.26,46.26,0,0,1-29,10.37c-22,0-38.88-16.77-38.88-38s15.47-38,36.33-38C283.15,62.84,299.78,78.24,299.78,100.5Zm-18.3-6.4c-.28-6.28-6.1-14.64-18.14-14.64-11.74,0-17.09,8.23-17.69,14.64Z"/><path class="cls-3" d="M391.71,100.5c0,1.37,0,4.12-.15,6.86h-54c1.37,6.4,8.84,14.64,20.24,14.64,12.65,0,19.82-7.32,19.82-7.32l9.15,13.72a46.26,46.26,0,0,1-29,10.37c-22,0-38.88-16.77-38.88-38s15.4-38,36.29-38C375.1,62.84,391.71,78.24,391.71,100.5Zm-18.3-6.4c-.29-6.25-6.09-14.64-18.13-14.64-11.75,0-17.08,8.23-17.69,14.64Z"/><path class="cls-4" d="M436.24,93.18l25.91-28.51h23.64L454.11,98.82,488,136.94H463.83l-27.59-31.52V137h-18.3V21.71h18.3Z"/><path class="cls-5" d="M573.31,90.14v46.8H555V94.7c0-10.36-6.41-14.78-14.33-14.78-9.45,0-14.34,9.3-14.34,9.3v47.72H508.05V64.67h17.08V75.23a24.94,24.94,0,0,1,21.64-12.32C560.8,62.84,573.31,72.76,573.31,90.14Z"/><path class="cls-6" d="M671.34,136.94H654.42v-9.46s-6.26,11.29-21.8,11.29c-18.75,0-35.2-15.71-35.2-38s16.47-38,35.2-38A25.72,25.72,0,0,1,653,72.3V21.67h18.3ZM653,90s-5.18-10.08-17.2-10.08c-12.32,0-19.82,9-19.82,20.88s7.47,20.89,19.82,20.89c12,0,17.23-10,17.23-10Z"/><path class="cls-7" d="M752,65.13l-6.41,16.46a20.86,20.86,0,0,0-8.68-1.67c-11.13,0-16.17,9.76-16.17,9.76v47.26H702.45V64.67h17.38V75.23s6.25-12.32,19.66-12.32A39.17,39.17,0,0,1,752,65.13Z"/><path class="cls-8" d="M130.58,176.43a82.59,82.59,0,1,1,82.59-82.59A82.59,82.59,0,0,1,130.58,176.43Zm0-160.94A78.32,78.32,0,1,0,208.9,93.81,78.32,78.32,0,0,0,130.58,15.49Z"/></g></g></svg>