<svg id="Layer_1" data-name="Layer 1" xmlns="http://www.w3.org/2000/svg" xmlns:xlink="http://www.w3.org/1999/xlink" viewBox="0 0 504 504"><defs><style>.cls-1,.cls-17,.cls-8{fill:#f4ae3d;}.cls-1,.cls-10,.cls-14,.cls-16,.cls-17,.cls-18,.cls-19,.cls-2,.cls-20,.cls-21,.cls-3,.cls-4,.cls-5,.cls-6,.cls-7{stroke:#000;stroke-miterlimit:10;}.cls-12,.cls-19,.cls-2,.cls-20{fill:#be4749;}.cls-10,.cls-18,.cls-3{fill:none;}.cls-4{fill:#242d4b;}.cls-5{fill:#d7987f;}.cls-6{fill:#472d30;}.cls-16,.cls-7{fill:#354668;}.cls-9{clip-path:url(#clip-path);}.cls-10,.cls-16,.cls-17,.cls-20,.cls-21{stroke-width:0.75px;}.cls-11{clip-path:url(#clip-path-2);}.cls-13{clip-path:url(#clip-path-3);}.cls-14,.cls-21{fill:#f2e0be;}.cls-15{clip-path:url(#clip-path-4);}.cls-18,.cls-19{stroke-width:0.5px;}</style><clipPath id="clip-path"><path class="cls-1" d="M92.44,130.41c-2.62,1.76-6.84.05-9.44-3.81-2.31-3.43-2.55-7.41-.74-9.49a3.65,3.65,0,0,1,.78-.69,5,5,0,0,1,4.94-.11,10.73,10.73,0,0,1,4.5,3.91C95.08,124.08,95.06,128.64,92.44,130.41Z"/></clipPath><clipPath id="clip-path-2"><path class="cls-1" d="M115.46,130.46c-2.64-1.73-2.71-6.29-.15-10.18,2.26-3.46,5.84-5.22,8.46-4.37a3.73,3.73,0,0,1,.94.46,5.07,5.07,0,0,1,2,4.51,10.78,10.78,0,0,1-1.87,5.67C122.31,130.44,118.1,132.19,115.46,130.46Z"/></clipPath><clipPath id="clip-path-3"><path class="cls-2" d="M125.31,95.42c0,.33,0,.67,0,1v.09c0,.18,0,.38,0,.56s0,.63,0,.94,0,.59-.07.88a2.64,2.64,0,0,1,0,.28c0,.16,0,.31,0,.46s0,.05,0,.08c0,.28-.06.57-.09.85s-.09.68-.13,1l0,.15,0,.22c0,.37-.12.75-.19,1.13s-.14.75-.22,1.13c0,.07,0,.14,0,.22-.08.37-.17.74-.26,1.11s-.15.61-.24.91l-.06.27a2.41,2.41,0,0,1-.08.25s0,.07,0,.1c-.07.27-.15.55-.24.81s-.24.76-.37,1.13-.19.57-.29.85a77.66,77.66,0,0,1-37.76,0c-.1-.28-.2-.56-.29-.85s-.25-.75-.37-1.13c0-.14-.09-.27-.12-.41s-.08-.27-.12-.4,0-.07,0-.1l0-.08,0-.17-.06-.27c-.09-.3-.17-.61-.24-.91s-.17-.71-.25-1.06a.07.07,0,0,0,0,0v0a.31.31,0,0,1,0-.08.52.52,0,0,1,0-.11c-.08-.38-.15-.75-.22-1.13,0-.19-.07-.38-.1-.57s-.06-.38-.09-.56a1.92,1.92,0,0,1,0-.22l0-.15c0-.14,0-.29-.06-.43v-.07c0-.17,0-.34-.07-.51s-.07-.57-.09-.85c0,0,0-.06,0-.08s0-.3,0-.46l0-.28c0-.06,0-.13,0-.19,0-.22,0-.46,0-.69s0-.31,0-.47a2.44,2.44,0,0,1,0-.27c0-.07,0-.13,0-.2a2.81,2.81,0,0,1,0-.29,2.44,2.44,0,0,1,0-.27v-.09c0-.33,0-.67,0-1a43,43,0,0,1,1.17-10,42.86,42.86,0,0,0,40.44,0A43,43,0,0,1,125.31,95.42Z"/></clipPath><clipPath id="clip-path-4"><path class="cls-1" d="M186.17,389.89c-10,7.55-22.95,12.08-34.62,16.9-2.27.94-4.49,1.89-6.63,2.88-9.13,4.2-27.51,8.15-41.58,6.06a37.29,37.29,0,0,1-11.4-3.56l-.69-.36-.73-.4A36.11,36.11,0,0,1,72.2,380.05a36.67,36.67,0,0,1,.34-5,21.82,21.82,0,0,1,.74-3.36A22.31,22.31,0,0,1,91.61,356l.24,0c1.36-.13,4.88-.19,5-.19a61.72,61.72,0,0,1,14.55,2.09c9.28,2.25,17.28,7.24,25.54,11.4,3.24,1.64,36.59,16.48,47.43,20.05C185.06,389.58,185.67,389.76,186.17,389.89Z"/></clipPath></defs><circle class="cls-2" cx="114.31" cy="51.22" r="3.67"/><circle class="cls-2" cx="93.53" cy="51.22" r="3.67"/><path class="cls-3" d="M125.31,95.42c0,.33,0,.67,0,1v.09c0,.18,0,.38,0,.56s0,.63,0,.94,0,.59-.07.88a2.64,2.64,0,0,1,0,.28c0,.16,0,.31,0,.46s0,.05,0,.08c0,.28-.06.57-.09.85s-.09.68-.13,1l0,.15,0,.22c0,.37-.12.75-.19,1.13s-.14.75-.22,1.13c0,.07,0,.14,0,.22-.08.37-.17.74-.26,1.11s-.15.61-.24.91l-.06.27a2.41,2.41,0,0,1-.08.25s0,.07,0,.1c-.07.27-.15.55-.24.81s-.24.76-.37,1.13-.19.57-.29.85a77.66,77.66,0,0,1-37.76,0c-.1-.28-.2-.56-.29-.85s-.25-.75-.37-1.13c0-.14-.09-.27-.12-.41s-.08-.27-.12-.4,0-.07,0-.1l0-.08,0-.17-.06-.27c-.09-.3-.17-.61-.24-.91s-.17-.71-.25-1.06a.07.07,0,0,0,0,0v0a.31.31,0,0,1,0-.08.52.52,0,0,1,0-.11c-.08-.38-.15-.75-.22-1.13,0-.19-.07-.38-.1-.57s-.06-.38-.09-.56a1.92,1.92,0,0,1,0-.22l0-.15-.06-.5c0-.17,0-.34-.07-.51s-.07-.57-.09-.85c0,0,0-.06,0-.08s0-.3,0-.46l0-.28c0-.06,0-.13,0-.19,0-.22,0-.46,0-.69s0-.31,0-.47a2.44,2.44,0,0,1,0-.27c0-.07,0-.13,0-.2a2.81,2.81,0,0,1,0-.29,2.44,2.44,0,0,1,0-.27v-.09c0-.33,0-.67,0-1a43,43,0,0,1,1.17-10,42.86,42.86,0,0,0,40.44,0A43,43,0,0,1,125.31,95.42Z"/><path class="cls-3" d="M89.57,14v0l0-.29a.81.81,0,0,0,.09.29s0,0,0,0Z"/><path class="cls-3" d="M125.31,95.42c0,.33,0,.67,0,1v.09c0,.18,0,.38,0,.56s0,.63,0,.94,0,.59-.07.88a2.64,2.64,0,0,1,0,.28c0,.16,0,.31,0,.46s0,.05,0,.08c0,.28-.06.57-.09.85s-.09.68-.13,1l0,.15,0,.22c0,.37-.12.75-.19,1.13s-.14.75-.22,1.13c0,.07,0,.14,0,.22-.08.37-.17.74-.26,1.11s-.15.61-.24.91l-.06.27a2.41,2.41,0,0,1-.08.25s0,.07,0,.1c-.07.27-.15.55-.24.81s-.24.76-.37,1.13-.19.57-.29.85a77.66,77.66,0,0,1-37.76,0c-.1-.28-.2-.56-.29-.85s-.25-.75-.37-1.13c0-.14-.09-.27-.12-.41s-.08-.27-.12-.4,0-.07,0-.1l0-.08,0-.17-.06-.27c-.09-.3-.17-.61-.24-.91s-.17-.71-.25-1.06a.07.07,0,0,0,0,0v0a.31.31,0,0,1,0-.08.52.52,0,0,1,0-.11c-.08-.38-.15-.75-.22-1.13,0-.19-.07-.38-.1-.57s-.06-.38-.09-.56a1.92,1.92,0,0,1,0-.22l0-.15-.06-.5c0-.17,0-.34-.07-.51s-.07-.57-.09-.85c0,0,0-.06,0-.08s0-.3,0-.46l0-.28c0-.06,0-.13,0-.19,0-.22,0-.46,0-.69s0-.31,0-.47a2.44,2.44,0,0,1,0-.27c0-.07,0-.13,0-.2a2.81,2.81,0,0,1,0-.29,2.44,2.44,0,0,1,0-.27v-.09c0-.33,0-.67,0-1a43,43,0,0,1,1.17-10,42.86,42.86,0,0,0,40.44,0A43,43,0,0,1,125.31,95.42Z"/><path class="cls-4" d="M88,116.31a5,5,0,0,0-4.94.11,3.65,3.65,0,0,0-.78.69c-.51-.38-1-.77-1.51-1.17A36.67,36.67,0,0,1,71.18,104a36.73,36.73,0,0,1-2.76-25.67A34.25,34.25,0,0,1,70,73.74c.34.44.69.89,1.06,1.32.23.28.46.56.7.83l.08.1c.28.32.58.64.88,1l.39.43c.33.34.66.67,1,1s.69.66,1,1l1.07,1c.52.44,1,.86,1.57,1.27q1.07.83,2.19,1.59l.57.38c.46.31.93.6,1.4.89s1.2.69,1.8,1a43,43,0,0,0-1.17,10c0,.33,0,.67,0,1v.09a2.44,2.44,0,0,0,0,.27,2.81,2.81,0,0,0,0,.29c0,.07,0,.13,0,.2a2.44,2.44,0,0,0,0,.27c0,.16,0,.31,0,.47s0,.46,0,.69c0,.06,0,.13,0,.19l0,.28c0,.16,0,.31,0,.46s0,.05,0,.08c0,.28.06.57.09.85s0,.34.07.51v.07c0,.14,0,.29.06.43l0,.15a1.92,1.92,0,0,0,0,.22c0,.18,0,.37.09.56s.06.38.1.57c.07.38.14.75.22,1.13a.52.52,0,0,0,0,.11.31.31,0,0,0,0,.08v0a.07.07,0,0,1,0,0c.08.35.16.71.25,1.06s.15.61.24.91l.06.27,0,.17,0,.08s0,.07,0,.1.07.26.12.4.08.27.12.41c.12.38.24.76.37,1.13s.19.57.29.85.29.79.44,1.18l0,.14a.42.42,0,0,1,0,.1c.09.21.17.42.26.62a0,0,0,0,0,0,0h0c.06.18.14.35.22.53,0,0,0,0,0,0s.11.24.17.37.23.52.35.77.36.76.55,1.13h0C87.42,115.29,87.69,115.8,88,116.31Z"/><path class="cls-3" d="M125.31,95.42c0,.33,0,.67,0,1v.09c0,.18,0,.38,0,.56s0,.63,0,.94,0,.59-.07.88a2.64,2.64,0,0,1,0,.28c0,.16,0,.31,0,.46s0,.05,0,.08c0,.28-.06.57-.09.85s-.09.68-.13,1l0,.15,0,.22c0,.37-.12.75-.19,1.13s-.14.75-.22,1.13c0,.07,0,.14,0,.22-.08.37-.17.74-.26,1.11s-.15.61-.24.91l-.06.27a2.41,2.41,0,0,1-.08.25s0,.07,0,.1c-.07.27-.15.55-.24.81s-.24.76-.37,1.13-.19.57-.29.85a77.66,77.66,0,0,1-37.76,0c-.1-.28-.2-.56-.29-.85s-.25-.75-.37-1.13c0-.14-.09-.27-.12-.41s-.08-.27-.12-.4,0-.07,0-.1l0-.08,0-.17-.06-.27c-.09-.3-.17-.61-.24-.91s-.17-.71-.25-1.06a.07.07,0,0,0,0,0v0a.31.31,0,0,1,0-.08.52.52,0,0,1,0-.11c-.08-.38-.15-.75-.22-1.13,0-.19-.07-.38-.1-.57s-.06-.38-.09-.56a1.92,1.92,0,0,1,0-.22l0-.15-.06-.5c0-.17,0-.34-.07-.51s-.07-.57-.09-.85c0,0,0-.06,0-.08s0-.3,0-.46l0-.28c0-.06,0-.13,0-.19,0-.22,0-.46,0-.69s0-.31,0-.47a2.44,2.44,0,0,1,0-.27c0-.07,0-.13,0-.2a2.81,2.81,0,0,1,0-.29,2.44,2.44,0,0,1,0-.27v-.09c0-.33,0-.67,0-1a43,43,0,0,1,1.17-10,42.86,42.86,0,0,0,40.44,0A43,43,0,0,1,125.31,95.42Z"/><path class="cls-4" d="M140.58,87.53a36.62,36.62,0,0,1-8.2,23.11,36.81,36.81,0,0,1-5.29,5.3c-.24.2-.5.4-.75.59l-.76.58a3.65,3.65,0,0,0-.78-.69,5,5,0,0,0-4.94-.11c.29-.51.56-1,.82-1.54h0c.37-.74.74-1.5,1.07-2.27,0,0,0,0,0,0,.08-.18.16-.36.22-.53h0c.11-.24.21-.5.31-.75l0-.14c.16-.39.31-.78.44-1.18s.2-.56.29-.85.25-.75.37-1.13.17-.54.24-.81c0,0,0-.07,0-.1a2.41,2.41,0,0,0,.08-.25l.06-.27c.09-.3.17-.61.24-.91s.18-.74.26-1.11c0-.08,0-.15,0-.22.08-.38.15-.75.22-1.13s.14-.76.19-1.13l0-.22,0-.15c0-.33.09-.67.13-1s.07-.57.09-.85c0,0,0-.06,0-.08s0-.3,0-.46a2.64,2.64,0,0,0,0-.28c0-.29,0-.58.07-.88s0-.63,0-.94,0-.38,0-.56v-.09c0-.33,0-.67,0-1a43,43,0,0,0-1.17-10c.6-.33,1.21-.67,1.79-1s.95-.58,1.41-.89l.57-.38q1.13-.77,2.19-1.59c.53-.41,1.05-.83,1.57-1.27l1.07-1c.35-.32.7-.64,1-1s.67-.66,1-1l.39-.43c.3-.32.6-.64.88-1l.08-.1c.24-.27.47-.55.7-.83.37-.43.72-.88,1.06-1.32a34.25,34.25,0,0,1,1.53,4.62A36.46,36.46,0,0,1,140.58,87.53Z"/><path class="cls-3" d="M124.14,85.46a42.86,42.86,0,0,1-40.44,0,43,43,0,0,0-1.17,10c0,.33,0,.67,0,1v.09a2.44,2.44,0,0,0,0,.27,2.81,2.81,0,0,0,0,.29c0,.07,0,.13,0,.2a2.44,2.44,0,0,0,0,.27c0,.16,0,.31,0,.47s0,.47,0,.69c0,.06,0,.13,0,.19l0,.28c0,.16,0,.31,0,.46s0,.05,0,.08c0,.28.06.57.09.85s0,.34.07.51v.07c0,.14,0,.29.06.43l0,.15a1.92,1.92,0,0,0,0,.22c0,.18,0,.37.09.56s.06.38.1.57c.07.38.14.75.22,1.13a.52.52,0,0,0,0,.11.31.31,0,0,0,0,.08v0a.07.07,0,0,1,0,0c.08.35.16.7.25,1.06s.15.61.24.91l.06.27,0,.17,0,.08s0,.07,0,.1.07.26.12.4.08.27.12.41c.12.38.24.76.37,1.13s.19.57.29.85a77.66,77.66,0,0,0,37.76,0c.1-.28.2-.56.29-.85s.25-.75.37-1.13.17-.54.24-.81c0,0,0-.07,0-.1a2.41,2.41,0,0,0,.08-.25l.06-.27c.09-.3.17-.61.24-.91s.18-.74.26-1.11c0-.08,0-.15,0-.22.08-.38.15-.75.22-1.13s.14-.76.19-1.13l0-.22,0-.15c0-.33.09-.67.13-1s.07-.57.09-.85c0,0,0-.06,0-.08s0-.3,0-.46a2.64,2.64,0,0,0,0-.28c0-.29,0-.58.07-.88s0-.63,0-.94,0-.38,0-.56v-.09c0-.33,0-.67,0-1A43,43,0,0,0,124.14,85.46Z"/><path class="cls-5" d="M122.8,109.85c-.14.4-.29.79-.44,1.18l0,.14c-.1.25-.2.51-.31.75h0c-.06.17-.14.35-.22.53,0,0,0,0,0,0-.33.77-.7,1.53-1.07,2.27h0a70.2,70.2,0,0,1-33.52,0h0c-.19-.37-.37-.75-.55-1.13s-.24-.51-.35-.77-.11-.25-.17-.37,0,0,0,0c-.08-.18-.16-.35-.22-.53h0a.08.08,0,0,1,0,0c-.09-.2-.17-.41-.26-.62a.42.42,0,0,0,0-.1l0-.14c-.15-.39-.3-.78-.44-1.18a77.66,77.66,0,0,0,37.76,0Z"/><path class="cls-3" d="M103.92,65.68A18.32,18.32,0,0,1,87.21,54.89c1.08-.55,2.19-1,3.32-1.5.71-.28,1.44-.54,2.18-.78a35.46,35.46,0,0,1,5.76-1.33,12.33,12.33,0,0,0,10.9,0,35.46,35.46,0,0,1,5.76,1.33c.74.24,1.47.5,2.18.78,1.13.45,2.24,1,3.31,1.5A18.3,18.3,0,0,1,103.92,65.68Z"/><path class="cls-1" d="M137.89,73.74c-.34.44-.69.89-1.06,1.32-.23.28-.46.56-.7.83l-.08.1c-.28.32-.58.64-.88,1l-.39.43c-.33.34-.66.67-1,1s-.69.66-1,1l-1.07,1c-.52.44-1,.86-1.57,1.27q-1.07.83-2.19,1.59l-.57.38c-.46.31-.93.6-1.41.89s-1.19.69-1.79,1a42.86,42.86,0,0,1-40.44,0c-.6-.33-1.21-.67-1.8-1s-.94-.58-1.4-.89l-.57-.38q-1.12-.77-2.19-1.59c-.53-.41-1-.83-1.57-1.27l-1.07-1c-.35-.32-.7-.64-1-1s-.67-.66-1-1L72.67,77c-.3-.32-.6-.64-.88-1l-.08-.1c-.24-.27-.47-.55-.7-.83-.37-.43-.72-.88-1.06-1.32a36.25,36.25,0,0,1,3.17-6.09,36.69,36.69,0,0,0,61.6,0A36.25,36.25,0,0,1,137.89,73.74Z"/><path class="cls-3" d="M94.22,196.86l-.17-.91A5.61,5.61,0,0,1,94.22,196.86Z"/><path class="cls-2" d="M103.93,162.6V200h0v-8.91a12.2,12.2,0,0,0-10.3-5.65,11.51,11.51,0,0,0-1.57.1l-3.1-16.12-1.3-6.8Z"/><path class="cls-3" d="M94.22,196.86l-.17-.91A5.61,5.61,0,0,1,94.22,196.86Z"/><path class="cls-3" d="M94.22,196.86l-.17-.91A5.61,5.61,0,0,1,94.22,196.86Z"/><path class="cls-3" d="M103.93,191.11V200c0,.22,0,.43,0,.64,0-.21,0-.42,0-.64v-8.92s0,0,0,0S103.93,191.1,103.93,191.11Z"/><path class="cls-3" d="M94.05,196l.17.91A5.61,5.61,0,0,0,94.05,196Z"/><path class="cls-3" d="M80.61,209.28a0,0,0,0,1,0,0"/><path class="cls-3" d="M85.25,210.6l-.41,0"/><path class="cls-3" d="M113.79,196l-.17.91A5.61,5.61,0,0,1,113.79,196Z"/><path class="cls-4" d="M126.44,198.07a12.22,12.22,0,0,1-9.31,11.45,12.44,12.44,0,0,1-4.75.2l-.58-.11a12,12,0,0,1-4.61-2l-.34-.24-.25-.2-.25-.21a5.19,5.19,0,0,1-.52-.53,7,7,0,0,1-1.52-2.92,12.1,12.1,0,0,1-.38-2.67v-3.67a12.2,12.2,0,0,1,10.3-5.65h.41l-.85,4.4v0a5.61,5.61,0,0,0-.17.91h0c0,.26,0,.52,0,.78a6.32,6.32,0,0,0,.57,2.64,6.44,6.44,0,0,0,12.3-2.21Z"/><path class="cls-3" d="M103.92,200.63c0-.21,0-.42,0-.64v.86C103.93,200.78,103.92,200.71,103.92,200.63Z"/><path class="cls-1" d="M115.8,185.52l-.9,4.68-.26,1.33h-.41a12.2,12.2,0,0,0-10.3,5.65v-6.11a12.2,12.2,0,0,1,10.3-5.65A11.61,11.61,0,0,1,115.8,185.52Z"/><path class="cls-3" d="M114.64,191.53l-.85,4.4v0a5.61,5.61,0,0,0-.17.91h0c0,.26,0,.52,0,.78a6.32,6.32,0,0,0,.57,2.64"/><path class="cls-5" d="M129.51,202.18a12.1,12.1,0,0,1-2.28,7.1,4.74,4.74,0,0,1-2.75,1.13c-2.8.47-7.23.19-12.1-.69a12.44,12.44,0,0,0,4.75-.2,12.22,12.22,0,0,0,9.31-11.45v0a1.48,1.48,0,0,0,0-.21v-.4a1.41,1.41,0,0,0,0-.21h0a12,12,0,0,0-.79-3.94A12.15,12.15,0,0,1,129.51,202.18Z"/><path class="cls-2" d="M120.2,162.6l-1.3,6.8-3.1,16.12a11.61,11.61,0,0,0-1.57-.1,12.2,12.2,0,0,0-10.3,5.65V200h0V162.6Z"/><path class="cls-3" d="M113.79,196l-.17.91A5.61,5.61,0,0,1,113.79,196Z"/><path class="cls-3" d="M113.79,196l-.17.91A5.61,5.61,0,0,1,113.79,196Z"/><path class="cls-4" d="M103.91,197.18v3.67a12.1,12.1,0,0,1-.38,2.67,7,7,0,0,1-1.52,2.92,5.19,5.19,0,0,1-.52.53,2,2,0,0,1-.24.19,4.64,4.64,0,0,1-.61.46,11.94,11.94,0,0,1-4.6,2l-.58.11a12.49,12.49,0,0,1-1.85.14,11.91,11.91,0,0,1-2.89-.35,12.2,12.2,0,0,1-9.32-11.46,6.44,6.44,0,0,0,12.3,2.23,6.32,6.32,0,0,0,.57-2.64c0-.26,0-.52,0-.78h0a5.61,5.61,0,0,0-.17-.91v0l-.85-4.4h.41A12.2,12.2,0,0,1,103.91,197.18Z"/><path class="cls-1" d="M103.91,197.18a12.2,12.2,0,0,0-10.3-5.65H93.2l-.26-1.33-.9-4.68a11.51,11.51,0,0,1,1.57-.1,12.2,12.2,0,0,1,10.3,5.65Z"/><path class="cls-3" d="M103.92,200.63c0,.08,0,.15,0,.22V200C103.91,200.21,103.91,200.42,103.92,200.63Z"/><path class="cls-3" d="M94.22,196.86l-.17-.91A5.61,5.61,0,0,1,94.22,196.86Z"/><path class="cls-5" d="M95.46,209.72a46.61,46.61,0,0,1-10.21.88l-.41,0-.81-.07-.43-.06-.23,0-.29,0-.29-.07a6.12,6.12,0,0,1-.71-.18l-.32-.11-.24-.11a1.91,1.91,0,0,1-.32-.16c-.07,0-.13-.08-.19-.11a2,2,0,0,1-.4-.35,12.19,12.19,0,0,1,1.58-16,12,12,0,0,0-.79,3.95c0,.13,0,.27,0,.41s0,.27,0,.41a12.2,12.2,0,0,0,9.32,11.46,11.91,11.91,0,0,0,2.89.35A12.49,12.49,0,0,0,95.46,209.72Z"/><path class="cls-3" d="M103.93,191.07V200c0,.22,0,.43,0,.64,0-.21,0-.42,0-.64v-8.9S103.93,191.08,103.93,191.07Z"/><path class="cls-3" d="M113.79,196l-.17.91A5.61,5.61,0,0,1,113.79,196Z"/><path class="cls-6" d="M127.25,209.26a0,0,0,0,1,0,0"/><path class="cls-7" d="M118.31,13.62v.05s0,.07,0,.11,0,0,0,0a1.47,1.47,0,0,1-.06.14s0,0,0,0c-.86,1.48-6.93,2.62-14.29,2.62S90.49,15.46,89.63,14c0,0,0,0,0,0a.81.81,0,0,1-.09-.29v-.05c0-1.08,2.77-2,6.93-2.55l.6-.07a65.54,65.54,0,0,1,13.72,0l.6.07c.78.09,1.51.21,2.18.33l.54.11.48.1C116.9,12.15,118.31,12.85,118.31,13.62Z"/><path class="cls-8" d="M92.44,130.41c-2.62,1.76-6.84.05-9.44-3.81-2.31-3.43-2.55-7.41-.74-9.49a3.65,3.65,0,0,1,.78-.69,5,5,0,0,1,4.94-.11,10.73,10.73,0,0,1,4.5,3.91C95.08,124.08,95.06,128.64,92.44,130.41Z"/><g class="cls-9"><polyline class="cls-8" points="77.38 121.67 79.25 122.22 79.58 120.3 81.45 120.86 81.78 118.94 83.65 119.5 83.99 117.58 85.86 118.13 86.19 116.21 88.07 116.77 88.41 114.84 90.28 115.39"/><polyline class="cls-10" points="77.38 121.67 79.25 122.22 79.58 120.3 81.45 120.86 81.78 118.94 83.65 119.5 83.99 117.58 85.86 118.13 86.19 116.21 88.07 116.77 88.41 114.84 90.28 115.39"/><polyline class="cls-8" points="78.6 123.5 80.47 124.06 80.8 122.14 82.67 122.69 83.01 120.77 84.88 121.33 85.21 119.41 87.08 119.97 87.42 118.04 89.29 118.6 89.63 116.67 91.51 117.22"/><polyline class="cls-10" points="78.6 123.5 80.47 124.06 80.8 122.14 82.67 122.69 83.01 120.77 84.88 121.33 85.21 119.41 87.08 119.97 87.42 118.04 89.29 118.6 89.63 116.67 91.51 117.22"/><polyline class="cls-8" points="79.82 125.33 81.69 125.89 82.03 123.97 83.89 124.53 84.23 122.61 86.1 123.16 86.44 121.24 88.3 121.8 88.64 119.88 90.51 120.43 90.85 118.51 92.73 119.06"/><polyline class="cls-10" points="79.82 125.33 81.69 125.89 82.03 123.97 83.89 124.53 84.23 122.61 86.1 123.16 86.44 121.24 88.3 121.8 88.64 119.88 90.51 120.43 90.85 118.51 92.73 119.06"/><polyline class="cls-8" points="81.05 127.17 82.91 127.72 83.25 125.8 85.11 126.36 85.45 124.44 87.32 125 87.66 123.07 89.52 123.63 89.86 121.71 91.73 122.26 92.08 120.34 93.95 120.89"/><polyline class="cls-10" points="81.05 127.17 82.91 127.72 83.25 125.8 85.11 126.36 85.45 124.44 87.32 125 87.66 123.07 89.52 123.63 89.86 121.71 91.73 122.26 92.08 120.34 93.95 120.89"/><polyline class="cls-8" points="82.27 129 84.14 129.56 84.47 127.64 86.34 128.19 86.67 126.27 88.54 126.83 88.88 124.91 90.74 125.47 91.08 123.54 92.95 124.1 93.3 122.17 95.17 122.72"/><polyline class="cls-10" points="82.27 129 84.14 129.56 84.47 127.64 86.34 128.19 86.67 126.27 88.54 126.83 88.88 124.91 90.74 125.47 91.08 123.54 92.95 124.1 93.3 122.17 95.17 122.72"/><polyline class="cls-8" points="83.49 130.83 85.36 131.39 85.69 129.47 87.56 130.03 87.89 128.1 89.76 128.66 90.1 126.74 91.97 127.3 92.3 125.38 94.18 125.93 94.52 124 96.39 124.56"/><polyline class="cls-10" points="83.49 130.83 85.36 131.39 85.69 129.47 87.56 130.03 87.89 128.1 89.76 128.66 90.1 126.74 91.97 127.3 92.3 125.38 94.18 125.93 94.52 124 96.39 124.56"/><polyline class="cls-8" points="84.71 132.66 86.58 133.22 86.91 131.3 88.78 131.86 89.12 129.94 90.99 130.5 91.32 128.57 93.19 129.13 93.53 127.21 95.4 127.76 95.74 125.84 97.62 126.39"/><polyline class="cls-10" points="84.71 132.66 86.58 133.22 86.91 131.3 88.78 131.86 89.12 129.94 90.99 130.5 91.32 128.57 93.19 129.13 93.53 127.21 95.4 127.76 95.74 125.84 97.62 126.39"/></g><path class="cls-3" d="M92.44,130.41c-2.62,1.76-6.84.05-9.44-3.81-2.31-3.43-2.55-7.41-.74-9.49a3.65,3.65,0,0,1,.78-.69,5,5,0,0,1,4.94-.11,10.73,10.73,0,0,1,4.5,3.91C95.08,124.08,95.06,128.64,92.44,130.41Z"/><path class="cls-8" d="M115.46,130.46c-2.64-1.73-2.71-6.29-.15-10.18,2.26-3.46,5.84-5.22,8.46-4.37a3.73,3.73,0,0,1,.94.46,5.07,5.07,0,0,1,2,4.51,10.78,10.78,0,0,1-1.87,5.67C122.31,130.44,118.1,132.19,115.46,130.46Z"/><g class="cls-11"><polyline class="cls-8" points="117.66 113.21 117.9 115.1 119.77 114.71 120.01 116.6 121.88 116.21 122.13 118.1 123.99 117.72 124.24 119.6 126.1 119.22 126.36 121.11 128.23 120.73 128.48 122.62"/><polyline class="cls-10" points="117.66 113.21 117.9 115.1 119.77 114.71 120.01 116.6 121.88 116.21 122.13 118.1 123.99 117.72 124.24 119.6 126.1 119.22 126.36 121.11 128.23 120.73 128.48 122.62"/><polyline class="cls-8" points="116.44 115.05 116.69 116.94 118.55 116.55 118.8 118.44 120.66 118.05 120.91 119.94 122.78 119.55 123.02 121.44 124.89 121.06 125.14 122.95 127.01 122.57 127.27 124.46"/><polyline class="cls-10" points="116.44 115.05 116.69 116.94 118.55 116.55 118.8 118.44 120.66 118.05 120.91 119.94 122.78 119.55 123.02 121.44 124.89 121.06 125.14 122.95 127.01 122.57 127.27 124.46"/><polyline class="cls-8" points="115.23 116.88 115.47 118.77 117.34 118.39 117.58 120.27 119.45 119.89 119.69 121.78 121.56 121.39 121.81 123.28 123.67 122.89 123.92 124.78 125.8 124.4 126.05 126.3"/><polyline class="cls-10" points="115.23 116.88 115.47 118.77 117.34 118.39 117.58 120.27 119.45 119.89 119.69 121.78 121.56 121.39 121.81 123.28 123.67 122.89 123.92 124.78 125.8 124.4 126.05 126.3"/><polyline class="cls-8" points="114.01 118.72 114.26 120.61 116.12 120.22 116.37 122.11 118.23 121.72 118.48 123.61 120.35 123.23 120.59 125.11 122.46 124.73 122.71 126.62 124.58 126.24 124.83 128.13"/><polyline class="cls-10" points="114.01 118.72 114.26 120.61 116.12 120.22 116.37 122.11 118.23 121.72 118.48 123.61 120.35 123.23 120.59 125.11 122.46 124.73 122.71 126.62 124.58 126.24 124.83 128.13"/><polyline class="cls-8" points="112.8 120.56 113.04 122.45 114.91 122.06 115.15 123.95 117.02 123.56 117.26 125.45 119.13 125.07 119.37 126.95 121.24 126.57 121.49 128.46 123.36 128.08 123.62 129.97"/><polyline class="cls-10" points="112.8 120.56 113.04 122.45 114.91 122.06 115.15 123.95 117.02 123.56 117.26 125.45 119.13 125.07 119.37 126.95 121.24 126.57 121.49 128.46 123.36 128.08 123.62 129.97"/><polyline class="cls-8" points="111.58 122.4 111.83 124.29 113.69 123.9 113.94 125.78 115.8 125.4 116.05 127.29 117.92 126.9 118.16 128.79 120.03 128.41 120.28 130.3 122.15 129.92 122.4 131.81"/><polyline class="cls-10" points="111.58 122.4 111.83 124.29 113.69 123.9 113.94 125.78 115.8 125.4 116.05 127.29 117.92 126.9 118.16 128.79 120.03 128.41 120.28 130.3 122.15 129.92 122.4 131.81"/><polyline class="cls-8" points="110.36 124.23 110.61 126.12 112.47 125.73 112.72 127.62 114.59 127.24 114.83 129.13 116.7 128.74 116.94 130.63 118.81 130.24 119.06 132.13 120.93 131.75 121.19 133.65"/><polyline class="cls-10" points="110.36 124.23 110.61 126.12 112.47 125.73 112.72 127.62 114.59 127.24 114.83 129.13 116.7 128.74 116.94 130.63 118.81 130.24 119.06 132.13 120.93 131.75 121.19 133.65"/></g><path class="cls-3" d="M115.46,130.46c-2.64-1.73-2.71-6.29-.15-10.18,2.26-3.46,5.84-5.22,8.46-4.37a3.73,3.73,0,0,1,.94.46,5.07,5.07,0,0,1,2,4.51,10.78,10.78,0,0,1-1.87,5.67C122.31,130.44,118.1,132.19,115.46,130.46Z"/><path class="cls-3" d="M153.84,165.67a13.49,13.49,0,0,1-1.66,3.73,14.27,14.27,0,0,1-4.63-5,15.17,15.17,0,0,0,3.12-1.66C151.71,163.8,152.76,164.75,153.84,165.67Z"/><path class="cls-3" d="M103.92,65.68A18.32,18.32,0,0,1,87.21,54.89c1.08-.55,2.19-1,3.32-1.5.71-.28,1.44-.54,2.18-.78a35.46,35.46,0,0,1,5.76-1.33,12.33,12.33,0,0,0,10.9,0,35.46,35.46,0,0,1,5.76,1.33c.74.24,1.47.5,2.18.78,1.13.45,2.24,1,3.31,1.5A18.3,18.3,0,0,1,103.92,65.68Z"/><path class="cls-7" d="M134.72,67.65a36.69,36.69,0,0,1-61.6,0,37.36,37.36,0,0,1,4-5.17,36.77,36.77,0,0,0,6.78,8.37,30.54,30.54,0,0,0,40,0,30.73,30.73,0,0,0,6.78-8.37A37.36,37.36,0,0,1,134.72,67.65Z"/><path class="cls-3" d="M103.92,65.68A18.32,18.32,0,0,1,87.21,54.89c1.08-.55,2.19-1,3.32-1.5.71-.28,1.44-.54,2.18-.78a35.46,35.46,0,0,1,5.76-1.33,12.33,12.33,0,0,0,10.9,0,35.46,35.46,0,0,1,5.76,1.33c.74.24,1.47.5,2.18.78,1.13.45,2.24,1,3.31,1.5A18.3,18.3,0,0,1,103.92,65.68Z"/><path class="cls-2" d="M130.69,62.48a30.73,30.73,0,0,1-6.78,8.37,30.57,30.57,0,0,1-46.76-8.37A37.52,37.52,0,0,1,82,58.15,24.52,24.52,0,0,0,92.62,69h0a24.51,24.51,0,0,0,22.6,0h0a24.52,24.52,0,0,0,10.63-10.88A37.52,37.52,0,0,1,130.69,62.48Z"/><path class="cls-7" d="M125.85,58.15A24.52,24.52,0,0,1,115.22,69h0a24.51,24.51,0,0,1-22.6,0h0A24.52,24.52,0,0,1,82,58.15a36.49,36.49,0,0,1,5.22-3.26,18.33,18.33,0,0,0,33.41,0A36,36,0,0,1,125.85,58.15Z"/><path class="cls-3" d="M120.62,54.89a18.33,18.33,0,0,1-33.41,0c1.08-.55,2.19-1,3.32-1.5.71-.28,1.44-.54,2.18-.78a35.46,35.46,0,0,1,5.76-1.33,12.33,12.33,0,0,0,10.9,0,35.46,35.46,0,0,1,5.76,1.33c.74.24,1.47.5,2.18.78C118.44,53.84,119.55,54.34,120.62,54.89Z"/><path class="cls-2" d="M118.27,14c0,1.76-.19,4.06-.36,6.58-.15,2-.32,4.22-.51,6.38-.2,2.58-.43,5.12-.63,7.32-.37,4-.66,6.92-.66,6.92h0a8.31,8.31,0,0,0,0-.87,12.3,12.3,0,0,0-.67-4l-.2-.12a24.18,24.18,0,0,0-22.7,0l-.2.12a12.3,12.3,0,0,0-.67,4,7.94,7.94,0,0,0,0,.85l0,0s-.28-2.9-.63-6.92c-.19-2.2-.41-4.74-.62-7.33-.17-2.15-.35-4.33-.49-6.39-.17-2.48-.31-4.76-.39-6.56l.06,0c.86,1.48,6.93,2.62,14.29,2.62s13.43-1.14,14.29-2.62Z"/><path class="cls-1" d="M120.62,54.89a18.33,18.33,0,0,1-33.41,0c1.08-.55,2.19-1,3.32-1.5.71-.28,1.44-.54,2.18-.78a35.46,35.46,0,0,1,5.76-1.33,12.33,12.33,0,0,0,10.9,0,35.46,35.46,0,0,1,5.76,1.33c.74.24,1.47.5,2.18.78C118.44,53.84,119.55,54.34,120.62,54.89Z"/><path class="cls-5" d="M115.13,52.61a12.22,12.22,0,0,1-22.42,0,35.46,35.46,0,0,1,5.76-1.33,12.33,12.33,0,0,0,10.9,0A35.46,35.46,0,0,1,115.13,52.61Z"/><path class="cls-12" d="M125.31,95.42c0,.33,0,.67,0,1v.09c0,.18,0,.38,0,.56s0,.63,0,.94,0,.59-.07.88a2.64,2.64,0,0,1,0,.28c0,.16,0,.31,0,.46s0,.05,0,.08c0,.28-.06.57-.09.85s-.09.68-.13,1l0,.15,0,.22c0,.37-.12.75-.19,1.13s-.14.75-.22,1.13c0,.07,0,.14,0,.22-.08.37-.17.74-.26,1.11s-.15.61-.24.91l-.06.27a2.41,2.41,0,0,1-.08.25s0,.07,0,.1c-.07.27-.15.55-.24.81s-.24.76-.37,1.13-.19.57-.29.85a77.66,77.66,0,0,1-37.76,0c-.1-.28-.2-.56-.29-.85s-.25-.75-.37-1.13c0-.14-.09-.27-.12-.41s-.08-.27-.12-.4,0-.07,0-.1l0-.08,0-.17-.06-.27c-.09-.3-.17-.61-.24-.91s-.17-.71-.25-1.06a.07.07,0,0,0,0,0v0a.31.31,0,0,1,0-.08.52.52,0,0,1,0-.11c-.08-.38-.15-.75-.22-1.13,0-.19-.07-.38-.1-.57s-.06-.38-.09-.56a1.92,1.92,0,0,1,0-.22l0-.15c0-.14,0-.29-.06-.43v-.07c0-.17,0-.34-.07-.51s-.07-.57-.09-.85c0,0,0-.06,0-.08s0-.3,0-.46l0-.28c0-.06,0-.13,0-.19,0-.22,0-.46,0-.69s0-.31,0-.47a2.44,2.44,0,0,1,0-.27c0-.07,0-.13,0-.2a2.81,2.81,0,0,1,0-.29,2.44,2.44,0,0,1,0-.27v-.09c0-.33,0-.67,0-1a43,43,0,0,1,1.17-10,42.86,42.86,0,0,0,40.44,0A43,43,0,0,1,125.31,95.42Z"/><g class="cls-13"><polyline class="cls-12" points="105.48 88.48 102.32 90.87 105.48 93.26 102.32 95.65 105.48 98.04 102.32 100.42 105.48 102.81 102.32 105.2 105.48 107.59 102.32 109.98 105.48 112.38 102.32 114.77"/><polyline class="cls-3" points="105.48 88.48 102.32 90.87 105.48 93.26 102.32 95.65 105.48 98.04 102.32 100.42 105.48 102.81 102.32 105.2 105.48 107.59 102.32 109.98 105.48 112.38 102.32 114.77"/><polyline class="cls-12" points="111.59 88.48 108.43 90.87 111.59 93.26 108.43 95.65 111.59 98.04 108.43 100.42 111.59 102.81 108.43 105.2 111.59 107.59 108.43 109.98 111.59 112.38 108.43 114.77"/><polyline class="cls-3" points="111.59 88.48 108.43 90.87 111.59 93.26 108.43 95.65 111.59 98.04 108.43 100.42 111.59 102.81 108.43 105.2 111.59 107.59 108.43 109.98 111.59 112.38 108.43 114.77"/><polyline class="cls-12" points="117.7 88.48 114.54 90.87 117.7 93.26 114.54 95.65 117.7 98.04 114.54 100.42 117.7 102.81 114.54 105.2 117.7 107.59 114.54 109.98 117.7 112.38 114.54 114.77"/><polyline class="cls-3" points="117.7 88.48 114.54 90.87 117.7 93.26 114.54 95.65 117.7 98.04 114.54 100.42 117.7 102.81 114.54 105.2 117.7 107.59 114.54 109.98 117.7 112.38 114.54 114.77"/><polyline class="cls-12" points="123.81 84.2 120.65 86.59 123.81 88.98 120.65 91.37 123.81 93.76 120.65 96.14 123.81 98.53 120.65 100.92 123.81 103.31 120.65 105.7 123.81 108.1 120.65 110.5"/><polyline class="cls-3" points="123.81 84.2 120.65 86.59 123.81 88.98 120.65 91.37 123.81 93.76 120.65 96.14 123.81 98.53 120.65 100.92 123.81 103.31 120.65 105.7 123.81 108.1 120.65 110.5"/><polyline class="cls-12" points="99.37 88.48 96.21 90.87 99.37 93.26 96.21 95.65 99.37 98.04 96.21 100.42 99.37 102.81 96.21 105.2 99.37 107.59 96.21 109.98 99.37 112.38 96.21 114.77"/><polyline class="cls-3" points="99.37 88.48 96.21 90.87 99.37 93.26 96.21 95.65 99.37 98.04 96.21 100.42 99.37 102.81 96.21 105.2 99.37 107.59 96.21 109.98 99.37 112.38 96.21 114.77"/><polyline class="cls-12" points="93.26 88.48 90.1 90.87 93.26 93.26 90.1 95.65 93.26 98.04 90.1 100.42 93.26 102.81 90.1 105.2 93.26 107.59 90.1 109.98 93.26 112.38 90.1 114.77"/><polyline class="cls-3" points="93.26 88.48 90.1 90.87 93.26 93.26 90.1 95.65 93.26 98.04 90.1 100.42 93.26 102.81 90.1 105.2 93.26 107.59 90.1 109.98 93.26 112.38 90.1 114.77"/><polyline class="cls-12" points="87.15 83.59 83.99 85.98 87.15 88.37 83.99 90.76 87.15 93.15 83.99 95.53 87.15 97.92 83.99 100.31 87.15 102.7 83.99 105.09 87.15 107.49 83.99 109.89"/><polyline class="cls-3" points="87.15 83.59 83.99 85.98 87.15 88.37 83.99 90.76 87.15 93.15 83.99 95.53 87.15 97.92 83.99 100.31 87.15 102.7 83.99 105.09 87.15 107.49 83.99 109.89"/></g><path class="cls-3" d="M125.31,95.42c0,.33,0,.67,0,1v.09c0,.18,0,.38,0,.56s0,.63,0,.94,0,.59-.07.88a2.64,2.64,0,0,1,0,.28c0,.16,0,.31,0,.46s0,.05,0,.08c0,.28-.06.57-.09.85s-.09.68-.13,1l0,.15,0,.22c0,.37-.12.75-.19,1.13s-.14.75-.22,1.13c0,.07,0,.14,0,.22-.08.37-.17.74-.26,1.11s-.15.61-.24.91l-.06.27a2.41,2.41,0,0,1-.08.25s0,.07,0,.1c-.07.27-.15.55-.24.81s-.24.76-.37,1.13-.19.57-.29.85a77.66,77.66,0,0,1-37.76,0c-.1-.28-.2-.56-.29-.85s-.25-.75-.37-1.13c0-.14-.09-.27-.12-.41s-.08-.27-.12-.4,0-.07,0-.1l0-.08,0-.17-.06-.27c-.09-.3-.17-.61-.24-.91s-.17-.71-.25-1.06a.07.07,0,0,0,0,0v0a.31.31,0,0,1,0-.08.52.52,0,0,1,0-.11c-.08-.38-.15-.75-.22-1.13,0-.19-.07-.38-.1-.57s-.06-.38-.09-.56a1.92,1.92,0,0,1,0-.22l0-.15c0-.14,0-.29-.06-.43v-.07c0-.17,0-.34-.07-.51s-.07-.57-.09-.85c0,0,0-.06,0-.08s0-.3,0-.46l0-.28c0-.06,0-.13,0-.19,0-.22,0-.46,0-.69s0-.31,0-.47a2.44,2.44,0,0,1,0-.27c0-.07,0-.13,0-.2a2.81,2.81,0,0,1,0-.29,2.44,2.44,0,0,1,0-.27v-.09c0-.33,0-.67,0-1a43,43,0,0,1,1.17-10,42.86,42.86,0,0,0,40.44,0A43,43,0,0,1,125.31,95.42Z"/><path class="cls-14" d="M109.92,167.46a14.08,14.08,0,0,1-1.36,6,13.56,13.56,0,0,1-4.33-4.61l-.11-.19c-.07-.13-.14-.25-.2-.38s.16-.31.23-.47c.15-.33.3-.66.42-1s.18-.5.26-.76.15-.51.21-.76a9.92,9.92,0,0,0,.25-1.23,2,2,0,0,0,0-.26c0-.19,0-.37.06-.56,0,0,0-.06,0-.09a.76.76,0,0,1,0-.15h0c0-.21,0-.4,0-.6v0l.3.22.28.19.35.24a15.13,15.13,0,0,0,2.3,1.21l.44.18.54.2A15,15,0,0,1,109.92,167.46Z"/><path class="cls-3" d="M115.58,165.75a14.14,14.14,0,0,1,1.06,5.38,13.8,13.8,0,0,1-.79,4.65,13.63,13.63,0,0,1-7.29-2.27,14.08,14.08,0,0,0,1.36-6,15,15,0,0,0-.27-2.79l.8.27.58.16.72.18c.51.12,1,.21,1.57.29l.69.08.67.06h.24l.6,0Z"/><path class="cls-14" d="M129.89,162c0,.13,0,.26,0,.39v0c0,.25,0,.5,0,.75,0,0,0,.06,0,.09,0,.19,0,.37-.06.56a2,2,0,0,1,0,.26,9.92,9.92,0,0,1-.25,1.23c0,.14-.07.28-.11.42a14.17,14.17,0,0,0-2.37-3.56,3,3,0,0,0,.34-.28,5.23,5.23,0,0,0,.49-.45,5.44,5.44,0,0,0,.48-.48,9.74,9.74,0,0,0,1.29-1.75c.05.23.09.46.12.68v0c0,.23.06.45.08.68s.05.46.06.7h0C129.88,161.58,129.89,161.81,129.89,162Z"/><path class="cls-14" d="M60.36,164.52A10.22,10.22,0,0,1,57,171.16a9.61,9.61,0,0,1-.8-1,13.7,13.7,0,0,1-1.85-3.46c-.12-.34-.23-.69-.33-1,.75-.64,1.48-1.28,2.21-2l.91-.87.33.22A16.15,16.15,0,0,0,60.36,164.52Z"/><path class="cls-1" d="M153.84,165.67a13.49,13.49,0,0,1-1.66,3.73,14.27,14.27,0,0,1-4.63-5,15.17,15.17,0,0,0,3.12-1.66C151.71,163.8,152.76,164.75,153.84,165.67Z"/><path class="cls-3" d="M153.84,165.67a13.49,13.49,0,0,1-1.66,3.73,14.27,14.27,0,0,1-4.63-5,15.17,15.17,0,0,0,3.12-1.66C151.71,163.8,152.76,164.75,153.84,165.67Z"/><path class="cls-1" d="M146.1,174.63a13.71,13.71,0,0,1-10.35.28h0a14,14,0,0,1-2.21-7.58,13.25,13.25,0,0,1,.28-2.76,19,19,0,0,0,6.71,1.19h.5A14,14,0,0,0,146.1,174.63Z"/><path class="cls-14" d="M152.18,169.4a13.69,13.69,0,0,1-6.08,5.23,14,14,0,0,1-5.07-8.88,18.82,18.82,0,0,0,6.52-1.3A14.27,14.27,0,0,0,152.18,169.4Z"/><path class="cls-3" d="M153.84,165.67a13.49,13.49,0,0,1-1.66,3.73,14.27,14.27,0,0,1-4.63-5,15.17,15.17,0,0,0,3.12-1.66C151.71,163.8,152.76,164.75,153.84,165.67Z"/><path class="cls-3" d="M84.44,164.38c-.23-.09-.45-.19-.66-.29h0Z"/><path class="cls-1" d="M116.64,171.13a13.8,13.8,0,0,1-.79,4.65,13.63,13.63,0,0,1-7.29-2.27,14.08,14.08,0,0,0,1.36-6,15,15,0,0,0-.27-2.79l.8.27.58.16.72.18c.51.12,1,.21,1.57.29l.69.08.67.06h.24l.6,0h.06A14.14,14.14,0,0,1,116.64,171.13Z"/><path class="cls-3" d="M116.64,171.13a13.8,13.8,0,0,1-.79,4.65,13.63,13.63,0,0,1-7.29-2.27,14.08,14.08,0,0,0,1.36-6,15,15,0,0,0-.27-2.79l.8.27.58.16.72.18c.51.12,1,.21,1.57.29l.69.08.67.06h.24l.6,0h.06A14.14,14.14,0,0,1,116.64,171.13Z"/><path class="cls-14" d="M105.45,162c0,.13,0,.26,0,.39v0c0,.2,0,.39,0,.6h0a.76.76,0,0,0,0,.15s0,.06,0,.09c0,.19,0,.37-.06.56a2,2,0,0,1,0,.26,9.92,9.92,0,0,1-.25,1.23c-.06.25-.13.51-.21.76s-.16.51-.26.76-.27.66-.42,1a13.33,13.33,0,0,0-.4-2.11,14.27,14.27,0,0,0-1.4-3.37l.15-.11a.6.6,0,0,0,.12-.11,1.06,1.06,0,0,1,.13-.09l.11-.1c.17-.14.33-.29.49-.44s.36-.35.52-.53a9.74,9.74,0,0,0,1.29-1.75c0,.23.09.46.12.68v0c0,.23.06.45.08.68s0,.46.06.7h0C105.44,161.58,105.45,161.81,105.45,162Z"/><path class="cls-14" d="M135.75,174.91a13.62,13.62,0,0,1-5.06-3.33,13.4,13.4,0,0,1-2.33-3.25,14.72,14.72,0,0,0,.65-1.46c.1-.25.18-.5.26-.76s.07-.23.1-.34.08-.28.11-.42a9.92,9.92,0,0,0,.25-1.23,2,2,0,0,0,0-.26c0-.19,0-.37.06-.56,0,0,0-.06,0-.09,0-.25,0-.5,0-.75v0a15.32,15.32,0,0,0,3.94,2.14,13.25,13.25,0,0,0-.28,2.76A14,14,0,0,0,135.75,174.91Z"/><path class="cls-14" d="M124.58,172.35c0,.18,0,.37,0,.55a13.52,13.52,0,0,1-5.67,2.61,14,14,0,0,1-2.76.28h-.29a13.8,13.8,0,0,0,.79-4.65,14.14,14.14,0,0,0-1.06-5.38h.51q.47,0,.93,0h.09l.72,0,.49-.05a3.32,3.32,0,0,0,.44-.06,1.6,1.6,0,0,0,.23,0l.55-.08.49-.1a1.5,1.5,0,0,0,.29-.06l.5-.11.2-.06.61-.16.72-.23A13.92,13.92,0,0,1,124.58,172.35Z"/><path class="cls-3" d="M115.58,165.75a14.14,14.14,0,0,1,1.06,5.38,13.8,13.8,0,0,1-.79,4.65,13.63,13.63,0,0,1-7.29-2.27,14.08,14.08,0,0,0,1.36-6,15,15,0,0,0-.27-2.79l.8.27.58.16.72.18c.51.12,1,.21,1.57.29l.69.08.67.06h.24l.6,0Z"/><path class="cls-1" d="M129.37,165.77c0,.11-.06.23-.1.34s-.16.51-.26.76a14.72,14.72,0,0,1-.65,1.46,13.86,13.86,0,0,1-3.79,4.57c0-.18,0-.37,0-.55a13.92,13.92,0,0,0-2.23-7.61c.32-.11.64-.23,1-.37a4,4,0,0,0,.48-.2q.48-.21.93-.45c.18-.1.36-.19.54-.3l.32-.2a10,10,0,0,0,.93-.62c.17-.13.35-.25.5-.39A14.17,14.17,0,0,1,129.37,165.77Z"/><path class="cls-1" d="M66.53,169.58a10.19,10.19,0,0,1-1.9,5.95,10.23,10.23,0,0,1-1.35-.33,13.12,13.12,0,0,1-2.36-1A13.56,13.56,0,0,1,57,171.16a10.22,10.22,0,0,0,3.38-6.64,15.65,15.65,0,0,0,2.23.69l.61.14a2,2,0,0,0,.35.06,3.41,3.41,0,0,0,.54.1l.56.08c.16,0,.33,0,.49.06l.63.06A10.15,10.15,0,0,1,66.53,169.58Z"/><path class="cls-14" d="M73.86,171.41a10.34,10.34,0,0,1-.42,2.91,13.54,13.54,0,0,1-6.18,1.47,13.4,13.4,0,0,1-2.63-.26,10.25,10.25,0,0,0,1.14-9.82c.47,0,1,0,1.43,0l.8,0,.4,0,.57,0c.43,0,.85-.09,1.26-.16a9,9,0,0,0,.93-.16l.64-.14A10.32,10.32,0,0,1,73.86,171.41Z"/><path class="cls-3" d="M83.78,164.09l.66.29c-.23-.09-.45-.19-.66-.29Z"/><path class="cls-7" d="M150.67,162.79a15.17,15.17,0,0,1-3.12,1.66,18.82,18.82,0,0,1-6.52,1.3h-.5a19,19,0,0,1-6.71-1.19,15.32,15.32,0,0,1-3.94-2.14c0-.13,0-.26,0-.39s0-.46,0-.7h0c0-.24,0-.47-.06-.7s0-.45-.08-.67a0,0,0,0,0,0,0c0-.22-.07-.45-.12-.68a9.74,9.74,0,0,1-1.29,1.75,5.44,5.44,0,0,1-.48.48,5.23,5.23,0,0,1-.49.45l-.34.28c-.15.14-.33.26-.5.39a10.73,10.73,0,0,1-.93.62l-.32.2c-.18.11-.36.2-.54.3s-.61.31-.93.45a4,4,0,0,1-.48.2c-.31.14-.63.26-1,.37l-.72.23-.61.16-.2.06-.5.11a1.5,1.5,0,0,1-.29.06l-.49.1-.55.08a1.6,1.6,0,0,1-.23,0,3.32,3.32,0,0,1-.44.06l-.49.05-.72,0H117q-.47,0-.93,0h-.57l-.6,0h-.24l-.67-.06-.69-.08c-.53-.08-1.06-.17-1.57-.29l-.72-.18-.58-.16-.8-.27-.54-.2-.44-.18a15.13,15.13,0,0,1-2.3-1.21l-.35-.24-.28-.19-.3-.22c0-.13,0-.26,0-.39s0-.46,0-.7h0c0-.24,0-.47-.06-.7s0-.45-.08-.67a0,0,0,0,0,0,0c0-.22-.07-.45-.12-.68a9.74,9.74,0,0,1-1.29,1.75c-.16.18-.34.36-.52.53s-.32.3-.49.44l-.11.1a1.06,1.06,0,0,0-.13.09l-.12.11-.15.11c-.21.17-.42.32-.64.47s-.33.22-.5.32a5.51,5.51,0,0,1-.61.37l-.21.11a11.89,11.89,0,0,1-1.65.77l-.27.11a3,3,0,0,1-.35.13h0l-.46.16-.2.06-.71.21h0l-.51.13c-.22.06-.44.1-.68.15l-.51.09a5.4,5.4,0,0,1-.58.09c-.22,0-.44.06-.67.08l-.55.05a5.46,5.46,0,0,1-.58,0,.65.65,0,0,1-.14,0c-.28,0-.56,0-.85,0l-.87,0h-.08l-.8,0-.41-.05h0a1.84,1.84,0,0,1-.33,0,14.37,14.37,0,0,1-1.76-.31c-.22,0-.44-.1-.65-.15h0l-.06,0a17,17,0,0,1-2.22-.74l-.66-.29-.67-.33c-.29-.15-.57-.31-.84-.47l-.07,0a4.4,4.4,0,0,1-.39-.26c-.28-.17-.55-.37-.81-.56,0-.13,0-.26,0-.39a13.54,13.54,0,0,0-.29-2.79A9.74,9.74,0,0,1,79.43,161c-.12.13-.24.26-.37.38a4.59,4.59,0,0,1-.39.37c-.27.24-.55.48-.84.7s-.58.42-.89.62a16.5,16.5,0,0,1-5.14,2.15l-.64.14a9,9,0,0,1-.93.16c-.41.07-.83.12-1.26.16l-.57,0-.4,0-.8,0c-.48,0-1,0-1.43,0l-.63-.06c-.16,0-.33,0-.49-.06l-.56-.08a3.41,3.41,0,0,1-.54-.1,2,2,0,0,1-.35-.06l-.61-.14a15.65,15.65,0,0,1-2.23-.69,16.15,16.15,0,0,1-2.91-1.46l-.33-.22c.93-.9,1.84-1.83,2.72-2.79l.09-.1A71.31,71.31,0,0,0,65,153.76c1.28-1.73,2.48-3.53,3.63-5.4.73-1.19,1.44-2.41,2.12-3.67,1.28-2.34,2.46-4.77,3.56-7.3a98.57,98.57,0,0,0,6.45-21.45c.5.4,1,.79,1.51,1.17-1.81,2.08-1.57,6.06.74,9.49,2.6,3.86,6.82,5.57,9.44,3.81s2.64-6.33,0-10.19a10.73,10.73,0,0,0-4.5-3.91c-.29-.51-.56-1-.82-1.54a70.2,70.2,0,0,0,33.52,0c-.26.52-.53,1-.82,1.54a10.73,10.73,0,0,0-4.5,3.91c-2.6,3.86-2.58,8.42,0,10.19s6.85.05,9.45-3.81c2.31-3.43,2.55-7.41.74-9.49l.76-.58c.25-.19.51-.39.75-.59a98.57,98.57,0,0,0,6.45,21.45c1.09,2.52,2.28,5,3.55,7.29.69,1.25,1.39,2.48,2.13,3.68,1.2,2,2.46,3.83,3.79,5.63l.8,1.07c.64.83,1.29,1.64,1.95,2.44A70.93,70.93,0,0,0,150.67,162.79Z"/><path class="cls-1" d="M80.13,166.86q-.13.38-.3.75c-.11.24-.23.48-.35.72a13.91,13.91,0,0,1-3.19,4.07,13.19,13.19,0,0,1-2.85,1.92,10.32,10.32,0,0,0-1.64-9.1,16.5,16.5,0,0,0,5.14-2.15l.41.3A10.29,10.29,0,0,1,80.13,166.86Z"/><path class="cls-3" d="M83.78,164.09l.66.29c-.23-.09-.45-.19-.66-.29Z"/><path class="cls-14" d="M81,162c0,.13,0,.26,0,.39s0,.4,0,.6,0,.29,0,.43a1.43,1.43,0,0,1,0,.29c0,.11,0,.23-.05.34v.06c0,.21-.07.41-.11.61s-.09.4-.14.6-.08.3-.12.44a9.39,9.39,0,0,1-.35,1.06,10.29,10.29,0,0,0-2.78-3.49l-.41-.3c.31-.2.61-.41.89-.62s.57-.46.84-.7a4.59,4.59,0,0,0,.39-.37c.13-.12.25-.25.37-.38a9.74,9.74,0,0,0,1.29-1.75A13.54,13.54,0,0,1,81,162Z"/><path class="cls-14" d="M84.08,167a14.19,14.19,0,0,1-1.16,5.62l-.45-.39a14.14,14.14,0,0,1-3-3.9c.12-.23.24-.48.35-.72s.21-.5.3-.75a9.39,9.39,0,0,0,.35-1.06c0-.14.09-.29.12-.44s.1-.4.14-.6.08-.4.11-.61v-.06c0-.11,0-.23.05-.34a1.43,1.43,0,0,0,0-.29c0-.14,0-.29,0-.43s0-.4,0-.6c.26.19.53.39.81.56a4.4,4.4,0,0,0,.39.26l.07,0c.27.16.55.32.84.47l.67.33h0A14,14,0,0,1,84.08,167Z"/><path class="cls-1" d="M90.8,170.67a14.08,14.08,0,0,1-.91,5c-.27,0-.55-.08-.82-.13l-.13,0a13.52,13.52,0,0,1-6-2.89A14.19,14.19,0,0,0,84.08,167a14,14,0,0,0-.3-2.91c.21.1.43.2.66.29a17,17,0,0,0,2.22.74l.06,0h0c.21.06.43.11.65.15a14.37,14.37,0,0,0,1.76.31,1.84,1.84,0,0,0,.33,0h0l.41.05A14,14,0,0,1,90.8,170.67Z"/><path class="cls-3" d="M83.78,164.09l.66.29c-.23-.09-.45-.19-.66-.29Z"/><path class="cls-14" d="M98.13,171.28a13.68,13.68,0,0,1-.34,3.09,12.54,12.54,0,0,1-1.24.54,13.73,13.73,0,0,1-4.85.88,13.53,13.53,0,0,1-1.81-.12,14.16,14.16,0,0,0,0-10l.8,0h.08l.87,0c.29,0,.57,0,.85,0a.65.65,0,0,0,.14,0,5.46,5.46,0,0,0,.58,0l.55-.05c.23,0,.45,0,.67-.08a5.4,5.4,0,0,0,.58-.09l.51-.09c.24,0,.46-.09.68-.15l.51-.13h0a12.77,12.77,0,0,1,.7,1.75h0A14,14,0,0,1,98.13,171.28Z"/><path class="cls-1" d="M104.15,167.86c-.07.16-.15.32-.23.47s-.13.25-.2.38a13.74,13.74,0,0,1-1.25,1.86h0a13.58,13.58,0,0,1-4.68,3.79,13.68,13.68,0,0,0,.34-3.09,14,14,0,0,0-.71-4.42h0a12.77,12.77,0,0,0-.7-1.75l.71-.21.2-.06.46-.16h0a3,3,0,0,0,.35-.13l.27-.11a11.89,11.89,0,0,0,1.65-.77l.21-.11a5.51,5.51,0,0,0,.61-.37c.17-.1.35-.21.5-.32s.43-.3.64-.47a14.27,14.27,0,0,1,1.4,3.37A13.33,13.33,0,0,1,104.15,167.86Z"/><path class="cls-3" d="M80.72,159.25c3.39-5.9,5.17-11.36,5.35-17"/><path class="cls-3" d="M105.16,159.25c1.76-6.24-1-11.32-1.26-17"/><path class="cls-3" d="M129.6,159.25c-2.06-7.51-5-10.05-6.86-17"/><path class="cls-14" d="M116.14,40.33a8.31,8.31,0,0,1,0,.87,12.08,12.08,0,0,1-4.79,8.87h0a13.62,13.62,0,0,1-1.93,1.21,12.33,12.33,0,0,1-10.9,0,13.62,13.62,0,0,1-1.93-1.21h0a12.06,12.06,0,0,1-4.79-8.89,7.94,7.94,0,0,1,0-.85,12.3,12.3,0,0,1,.67-4l.2-.12a24.18,24.18,0,0,1,22.7,0l.2.12A12.3,12.3,0,0,1,116.14,40.33Z"/><circle class="cls-1" cx="118.89" cy="45.11" r="4.58"/><circle class="cls-1" cx="88.95" cy="45.11" r="4.58"/><circle class="cls-14" cx="121.33" cy="37.17" r="5.8"/><circle class="cls-14" cx="86.51" cy="37.17" r="5.8"/><circle class="cls-14" cx="84.06" cy="189.8" r="3.25"/><circle class="cls-14" cx="123.78" cy="189.8" r="3.25"/><path class="cls-3" d="M101.6,47.56a5.07,5.07,0,0,0,4.64,0"/><path class="cls-3" d="M110.51,39.57a5,5,0,0,0-4.63,0"/><path class="cls-3" d="M102,39.57a5,5,0,0,0-4.63,0"/><path class="cls-3" d="M102.76,44a2.5,2.5,0,0,0,2.32,0"/><path class="cls-2" d="M54,342.77a.57.57,0,0,1,.13,1.1l-8,2.65v0a20.61,20.61,0,0,0-8.54,2.59.5.5,0,0,1-.38.06,20.5,20.5,0,0,0-9.48.24.56.56,0,0,1-.57-.91,29.27,29.27,0,0,1,21.07-9.79,22.13,22.13,0,0,0-1.28,3.41Z"/><path class="cls-3" d="M62.66,338.92c-1.51.39-2.95-.13-3.23-1.18s.73-2.21,2.23-2.61,3,.14,3.23,1.18S64.16,338.52,62.66,338.92Z"/><path class="cls-7" d="M226.44,405.82l-56.72.74-3.72.05-14.45.18c11.67-4.82,24.64-9.35,34.62-16.9-.5-.13-1.11-.31-1.8-.54l32.42,8.46a.56.56,0,0,1,0,1.09l-3.12.59a.56.56,0,0,0-.07,1.09l13.05,4.15A.56.56,0,0,1,226.44,405.82Z"/><path class="cls-10" d="M62.66,338.92c-1.51.39-2.95-.13-3.23-1.18s.73-2.21,2.23-2.61,3,.14,3.23,1.18S64.16,338.52,62.66,338.92Z"/><ellipse class="cls-10" cx="62.16" cy="337.03" rx="1.8" ry="1.25" transform="translate(-83.39 26.76) rotate(-14.68)"/><circle class="cls-10" cx="62.11" cy="336.84" r="0.93"/><path class="cls-14" d="M166,406.61l-14.45.18c-2.27.94-4.49,1.89-6.63,2.88-9.13,4.2-27.51,8.15-41.58,6.06a36,36,0,0,1-11.4-3.56l-.69-.36-.73-.4A36.11,36.11,0,0,1,72.2,380.05a36.67,36.67,0,0,1,.34-5,21.82,21.82,0,0,1,.74-3.36A22.31,22.31,0,0,1,91.61,356l.24,0a20,20,0,0,1,2.8-.17c.07,0,.08-.08,0-.11a3.5,3.5,0,0,1-2.22-3.08c0-.81.35-3.08.35-4a23.39,23.39,0,0,0-44.59-9.89,21.15,21.15,0,0,0-1.28,3.41l7.1.62a.57.57,0,0,1,.13,1.1l-8,2.65v0l.91-.06h0a14.09,14.09,0,0,1,1.45-.08,12.77,12.77,0,0,1,3.22.42c.22.05.43.12.65.19a7.85,7.85,0,0,1,5,9.21h0a.9.9,0,0,1,0,.16,4.57,4.57,0,0,1-.31.83h0A47.39,47.39,0,0,0,54.92,367c-.12,1.09-.19,2.2-.23,3.3,0,.54,0,1.09,0,1.63a47.49,47.49,0,0,0,19.61,38.52q2.69,1.95,5.48,3.64h0a76.11,76.11,0,0,0,17.55,7.81c1.61.49,3.22.92,4.85,1.29a77,77,0,0,0,10.52,1.67c1.81.16,3.61.25,5.42.29a77.12,77.12,0,0,0,48.71-16.22c1-.76,2-1.56,2.91-2.38ZM62.66,338.92c-1.51.39-2.95-.13-3.23-1.18s.73-2.21,2.23-2.61,3,.14,3.23,1.18S64.16,338.52,62.66,338.92Z"/><path class="cls-8" d="M186.17,389.89c-10,7.55-22.95,12.08-34.62,16.9-2.27.94-4.49,1.89-6.63,2.88-9.13,4.2-27.51,8.15-41.58,6.06a37.29,37.29,0,0,1-11.4-3.56l-.69-.36-.73-.4A36.11,36.11,0,0,1,72.2,380.05a36.67,36.67,0,0,1,.34-5,21.82,21.82,0,0,1,.74-3.36A22.31,22.31,0,0,1,91.61,356l.24,0c1.36-.13,4.88-.19,5-.19a61.72,61.72,0,0,1,14.55,2.09c9.28,2.25,17.28,7.24,25.54,11.4,3.24,1.64,36.59,16.48,47.43,20.05C185.06,389.58,185.67,389.76,186.17,389.89Z"/><g class="cls-15"><polyline class="cls-8" points="60.37 417.6 67.52 415.43 63.99 408.84 71.14 406.68 67.61 400.09 74.77 397.92 71.24 391.33 78.39 389.16 74.86 382.57 82.01 380.4 78.48 373.82 85.64 371.65 82.11 365.06 89.26 362.9 85.73 356.31 92.88 354.14 89.35 347.55 96.51 345.38 92.98 338.79 100.13 336.62 96.6 330.02 103.76 327.85 100.23 321.25"/><polyline class="cls-3" points="60.37 417.6 67.52 415.43 63.99 408.84 71.14 406.68 67.61 400.09 74.77 397.92 71.24 391.33 78.39 389.16 74.86 382.57 82.01 380.4 78.48 373.82 85.64 371.65 82.11 365.06 89.26 362.9 85.73 356.31 92.88 354.14 89.35 347.55 96.51 345.38 92.98 338.79 100.13 336.62 96.6 330.02 103.76 327.85 100.23 321.25"/><polyline class="cls-8" points="73.26 424.04 80.41 421.87 76.88 415.29 84.03 413.12 80.5 406.53 87.65 404.36 84.12 397.77 91.28 395.61 87.75 389.02 94.9 386.85 91.37 380.26 98.52 378.1 94.99 371.51 102.14 369.34 98.61 362.75 105.77 360.58 102.24 353.99 109.39 351.82 105.86 345.23 113.02 343.06 109.49 336.47 116.65 334.29 113.12 327.7"/><polyline class="cls-3" points="73.26 424.04 80.41 421.87 76.88 415.29 84.03 413.12 80.5 406.53 87.65 404.36 84.12 397.77 91.28 395.61 87.75 389.02 94.9 386.85 91.37 380.26 98.52 378.1 94.99 371.51 102.14 369.34 98.61 362.75 105.77 360.58 102.24 353.99 109.39 351.82 105.86 345.23 113.02 343.06 109.49 336.47 116.65 334.29 113.12 327.7"/><polyline class="cls-8" points="86.14 430.48 93.3 428.32 89.77 421.73 96.92 419.56 93.39 412.98 100.54 410.81 97.01 404.22 104.17 402.05 100.64 395.46 107.79 393.29 104.26 386.7 111.41 384.54 107.88 377.95 115.03 375.79 111.5 369.2 118.66 367.03 115.13 360.44 122.28 358.26 118.75 351.68 125.91 349.51 122.38 342.91 129.53 340.74 126.01 334.14"/><polyline class="cls-3" points="86.14 430.48 93.3 428.32 89.77 421.73 96.92 419.56 93.39 412.98 100.54 410.81 97.01 404.22 104.17 402.05 100.64 395.46 107.79 393.29 104.26 386.7 111.41 384.54 107.88 377.95 115.03 375.79 111.5 369.2 118.66 367.03 115.13 360.44 122.28 358.26 118.75 351.68 125.91 349.51 122.38 342.91 129.53 340.74 126.01 334.14"/><polyline class="cls-8" points="99.03 436.93 106.18 434.76 102.65 428.17 109.81 426.01 106.28 419.42 113.43 417.25 109.9 410.66 117.05 408.49 113.52 401.9 120.68 399.74 117.14 393.15 124.3 390.98 120.77 384.39 127.92 382.23 124.39 375.64 131.54 373.47 128.01 366.88 135.17 364.71 131.64 358.12 138.79 355.95 135.26 349.36 142.42 347.18 138.89 340.58"/><polyline class="cls-3" points="99.03 436.93 106.18 434.76 102.65 428.17 109.81 426.01 106.28 419.42 113.43 417.25 109.9 410.66 117.05 408.49 113.52 401.9 120.68 399.74 117.14 393.15 124.3 390.98 120.77 384.39 127.92 382.23 124.39 375.64 131.54 373.47 128.01 366.88 135.17 364.71 131.64 358.12 138.79 355.95 135.26 349.36 142.42 347.18 138.89 340.58"/><polyline class="cls-8" points="111.92 443.37 119.07 441.2 115.54 434.62 122.69 432.45 119.16 425.86 126.32 423.69 122.79 417.11 129.94 414.94 126.41 408.35 133.56 406.18 130.03 399.59 137.19 397.43 133.66 390.84 140.81 388.67 137.28 382.08 144.43 379.91 140.9 373.32 148.06 371.15 144.53 364.56 151.68 362.39 148.15 355.8 155.31 353.62 151.78 347.03"/><polyline class="cls-3" points="111.92 443.37 119.07 441.2 115.54 434.62 122.69 432.45 119.16 425.86 126.32 423.69 122.79 417.11 129.94 414.94 126.41 408.35 133.56 406.18 130.03 399.59 137.19 397.43 133.66 390.84 140.81 388.67 137.28 382.08 144.43 379.91 140.9 373.32 148.06 371.15 144.53 364.56 151.68 362.39 148.15 355.8 155.31 353.62 151.78 347.03"/><polyline class="cls-8" points="124.81 449.81 131.96 447.65 128.43 441.06 135.58 438.89 132.05 432.31 139.2 430.14 135.67 423.55 142.83 421.38 139.3 414.79 146.45 412.62 142.92 406.04 150.07 403.87 146.54 397.28 153.69 395.12 150.16 388.53 157.32 386.36 153.79 379.77 160.94 377.6 157.41 371.01 164.57 368.84 161.04 362.24 168.2 360.07 164.67 353.47"/><polyline class="cls-3" points="124.81 449.81 131.96 447.65 128.43 441.06 135.58 438.89 132.05 432.31 139.2 430.14 135.67 423.55 142.83 421.38 139.3 414.79 146.45 412.62 142.92 406.04 150.07 403.87 146.54 397.28 153.69 395.12 150.16 388.53 157.32 386.36 153.79 379.77 160.94 377.6 157.41 371.01 164.57 368.84 161.04 362.24 168.2 360.07 164.67 353.47"/><polyline class="cls-8" points="137.69 456.26 144.85 454.09 141.32 447.5 148.47 445.34 144.94 438.75 152.09 436.58 148.56 429.99 155.72 427.83 152.19 421.24 159.34 419.07 155.81 412.48 162.96 410.31 159.43 403.73 166.58 401.56 163.05 394.97 170.21 392.8 166.68 386.21 173.83 384.04 170.3 377.45 177.46 375.28 173.93 368.69 181.08 366.51 177.56 359.91"/><polyline class="cls-3" points="137.69 456.26 144.85 454.09 141.32 447.5 148.47 445.34 144.94 438.75 152.09 436.58 148.56 429.99 155.72 427.83 152.19 421.24 159.34 419.07 155.81 412.48 162.96 410.31 159.43 403.73 166.58 401.56 163.05 394.97 170.21 392.8 166.68 386.21 173.83 384.04 170.3 377.45 177.46 375.28 173.93 368.69 181.08 366.51 177.56 359.91"/></g><path class="cls-3" d="M186.17,389.89c-10,7.55-22.95,12.08-34.62,16.9-2.27.94-4.49,1.89-6.63,2.88-9.13,4.2-27.51,8.15-41.58,6.06a37.29,37.29,0,0,1-11.4-3.56l-.69-.36-.73-.4A36.11,36.11,0,0,1,72.2,380.05a36.67,36.67,0,0,1,.34-5,21.82,21.82,0,0,1,.74-3.36A22.31,22.31,0,0,1,91.61,356l.24,0c1.36-.13,4.88-.19,5-.19a61.72,61.72,0,0,1,14.55,2.09c9.28,2.25,17.28,7.24,25.54,11.4,3.24,1.64,36.59,16.48,47.43,20.05C185.06,389.58,185.67,389.76,186.17,389.89Z"/><path class="cls-5" d="M102.47,435.64a145,145,0,0,0-.75,17.43h0c0,.61,0,1.23.08,1.87s.07,1.36.12,2.05a2.26,2.26,0,0,1-2.25,2.26H97.34l-3.72-.21-15.79-.85a.35.35,0,0,1-.13-.67l2.22-1a19.46,19.46,0,0,1,5.34-1.59,10,10,0,0,1,2.56,0l5.06.55,3.46.31c.84-.06,1.5-2.42,1.56-3.25.45-6.11.55-10.51.47-13.86-.19-8.42-1.45-10.37-1.06-16.72q2.41.73,4.85,1.29C103.25,426.11,103,430.25,102.47,435.64Z"/><path class="cls-5" d="M117.12,453.63a2.25,2.25,0,0,1-2.25,2.25h-2l-.37,0L101.8,455c0-.64-.06-1.26-.08-1.87h0a8.61,8.61,0,0,1,1.12-.64,10.53,10.53,0,0,1,5.48-.88l3.29.32c.8-.09,1.43-1.87,1.49-2.68,1.11-15.22.08-19.8-.42-24.32,1.81.16,3.62.25,5.42.29C118.1,431.63,116.22,441.1,117.12,453.63Z"/><path class="cls-16" d="M349.66,309.49h0a2.75,2.75,0,0,1,2.75,2.75v26a1.83,1.83,0,0,1-1.83,1.83h-1.83a1.83,1.83,0,0,1-1.83-1.83v-26A2.75,2.75,0,0,1,349.66,309.49Z" transform="translate(-115.54 218.34) rotate(-30)"/><path class="cls-16" d="M430.55,309.49h1.83a1.83,1.83,0,0,1,1.83,1.83v26a2.75,2.75,0,0,1-2.75,2.75h0a2.75,2.75,0,0,1-2.75-2.75v-26A1.83,1.83,0,0,1,430.55,309.49Z" transform="translate(642.74 821.74) rotate(-150)"/><path class="cls-17" d="M387.51,309.27v183H369.18v-183a1.88,1.88,0,0,1,.09-.57,47.44,47.44,0,0,1,9.07-16.45,48.07,48.07,0,0,1,9.08,16.45A1.88,1.88,0,0,1,387.51,309.27Z"/><path class="cls-17" d="M411.94,309.27v183H393.61v-183a1.88,1.88,0,0,1,.09-.57,47.46,47.46,0,0,1,9.08-16.45,48.23,48.23,0,0,1,9.08,16.45A2.24,2.24,0,0,1,411.94,309.27Z"/><line class="cls-10" x1="434.11" y1="471.04" x2="439.3" y2="480.04"/><path class="cls-10" d="M343.51,313.46c-1.42,2,3.83,2.44,8.16,5.23,3.77,2.42,4.38,6.81,7,5.68,4.79-2.08.1-7.63-4.77-9.78-3.24-1.43-6.16-2.37-8.24-2.18"/><circle class="cls-18" cx="343.13" cy="313.46" r="0.92"/><ellipse class="cls-19" cx="433.65" cy="470.25" rx="8.25" ry="0.92" transform="translate(-177.03 279.83) rotate(-30)"/><ellipse class="cls-19" cx="347.47" cy="470.25" rx="0.92" ry="8.25" transform="translate(-233.51 536.04) rotate(-60)"/><line class="cls-10" x1="347.01" y1="471.04" x2="341.82" y2="480.04"/><path class="cls-10" d="M437.61,313.46c1.42,2-3.83,2.44-8.16,5.23-3.77,2.42-4.38,6.81-7,5.68-4.79-2.08-.11-7.63,4.77-9.78,3.24-1.43,6.16-2.37,8.24-2.18"/><circle class="cls-18" cx="437.99" cy="313.46" r="0.92"/><polygon class="cls-20" points="387.5 329.02 387.5 335.13 384.45 340.02 381.39 335.13 378.34 340.02 375.29 335.13 372.23 340.02 369.18 335.13 369.18 329.02 372.23 333.91 375.29 329.02 378.34 333.91 381.39 329.02 384.45 333.91 387.5 329.02"/><polygon class="cls-20" points="411.94 329.02 411.94 335.13 408.89 340.02 405.83 335.13 402.77 340.02 399.72 335.13 396.67 340.02 393.61 335.13 393.61 329.02 396.67 333.91 399.72 329.02 402.77 333.91 405.83 329.02 408.89 333.91 411.94 329.02"/><polygon class="cls-21" points="387.5 335.13 387.5 341.24 384.45 346.13 381.39 341.24 378.34 346.13 375.29 341.24 372.23 346.13 369.18 341.24 369.18 335.13 372.23 340.02 375.29 335.13 378.34 340.02 381.39 335.13 384.45 340.02 387.5 335.13"/><polygon class="cls-21" points="411.94 335.13 411.94 341.24 408.89 346.13 405.83 341.24 402.77 346.13 399.72 341.24 396.67 346.13 393.61 341.24 393.61 335.13 396.67 340.02 399.72 335.13 402.77 340.02 405.83 335.13 408.89 340.02 411.94 335.13"/><path class="cls-21" d="M385.65,327.76h0a.92.92,0,0,1,.92.92V480.48a0,0,0,0,1,0,0h-1.83a0,0,0,0,1,0,0V328.67A.92.92,0,0,1,385.65,327.76Z" transform="translate(517.57 946.92) rotate(-150)"/><path class="cls-21" d="M394.56,327.76h1.83a0,0,0,0,1,0,0V479.56a.92.92,0,0,1-.92.92h0a.92.92,0,0,1-.92-.92V327.76A0,0,0,0,1,394.56,327.76Z" transform="translate(-149.08 251.88) rotate(-30)"/><path class="cls-3" d="M371.28,144.52a2.07,2.07,0,0,1-.34.15c-18.62,6.37-30.43,16.84-43.87,27.22l-.23.09a19.62,19.62,0,0,1-2.24.67c13.66-11.88,24.72-24.06,43.33-32.36l2.66,3.57A2.69,2.69,0,0,0,371.28,144.52Z"/><path class="cls-2" d="M406.36,91.35l-1.23.77h0L391,101.06s0,0-.05,0h0l-5,3.18a6.7,6.7,0,0,0-2.83,3.66s0,0,0,0l-.06.18h0c0,.07,0,.13,0,.19a0,0,0,0,0,0,0,40.43,40.43,0,0,0-1.32,9,.16.16,0,0,1,0,.07c0,1.21,0,2.41.05,3.61,0,.16,0,.32,0,.47.05.77.13,1.53.22,2.3,0,.42.11.84.19,1.27s.14.84.22,1.26.17.83.26,1.25h0c.09.4.19.79.29,1.18.19.73.39,1.45.63,2.16.08.26.17.52.26.77s.23.68.35,1,.27.7.41,1a1.21,1.21,0,0,1,.05.14c.31.76.65,1.51,1,2.26l.14.28c.16.32.32.64.49,1a.59.59,0,0,1,0,.08c.2.38.41.76.62,1.13a9.13,9.13,0,0,1-4.8,13.05l-55.07,20.24c13.44-10.38,25.25-20.85,43.87-27.22a2.07,2.07,0,0,0,.34-.15,3.06,3.06,0,0,0,3.57,0l.44-.33a3.06,3.06,0,0,0,.62-4.26l-28.84-38.79a3.06,3.06,0,0,0-4.26-.63l-.44.33a3.07,3.07,0,0,0-.63,4.26l.26.34c-13.05,6.08-35.59,20.8-48.24,33.63a21.85,21.85,0,0,1,6.13-12.61l32.16-30.78A16.45,16.45,0,0,1,353,94.15c.32.27.66.53,1,.79a40.42,40.42,0,0,0,24.11,8.16,1.22,1.22,0,0,0,.27,0,1.8,1.8,0,0,0,.4,0,6.48,6.48,0,0,0,3.35-1h0l4.51-2.85,2.52-1.59,6.61-4.19h0l7.29-4.6,1.21-.76a1.94,1.94,0,0,1,2.68.6,1.58,1.58,0,0,1,.13.26A1.94,1.94,0,0,1,406.36,91.35Z"/><path class="cls-3" d="M417.11,73.79a38.81,38.81,0,0,1-1.82,5.07,39.74,39.74,0,0,1-5.13,8.68h0c-.23.3-.45.58-.69.86-.07-.14-.15-.28-.24-.43h0L409,87.5c-1.75-2.76-4.25-4.3-5.62-3.48,0,0,0,0,0,0h0l-.24.19s0,0,0,0h0a1.27,1.27,0,0,1,.28-.23l0,0q1.71-1.35,3.58-2.79h0C410,78.86,413.44,76.36,417.11,73.79Z"/><path class="cls-3" d="M391,101.06l0,0h0S391,101.08,391,101.06Z"/><path class="cls-3" d="M427.78,78.74c-6.3,3.37-12.26,6.34-17.62,8.8h0c-.23.3-.45.58-.69.86-.07-.14-.15-.28-.24-.43h0L409,87.5c-1.75-2.76-4.25-4.3-5.62-3.48,0,0,0,0,0,0h0l-.24.19s0,0,0,0h0a1.27,1.27,0,0,1,.28-.23l0,0q1.71-1.35,3.58-2.79h0a40.52,40.52,0,0,1,8.37-2.36A40,40,0,0,1,427.78,78.74Z"/><path class="cls-7" d="M441.09,76.22c-2.22,1.41-4.43,2.77-6.6,4.09h0c-9.11,5.54-17.65,10.25-24.84,13.77,1.22-.77,1.1-3.19-.18-5.67h0c.24-.28.46-.56.69-.86h0c5.36-2.46,11.32-5.43,17.62-8.8,3.49-1.87,7.09-3.85,10.74-5.95,25.69-14.7,45.34-29.4,46.1-34.26a1.37,1.37,0,0,1,.85.56C487.73,42.66,467.86,59.29,441.09,76.22Z"/><path class="cls-3" d="M391,101.06l0,0h0S391,101.08,391,101.06Z"/><path class="cls-3" d="M403,84.26l0,0s0,0,0,0h0Z"/><path class="cls-3" d="M484.62,38.53c-.76,4.86-20.41,19.56-46.1,34.26-3.65,2.1-7.25,4.08-10.74,5.95-6.3,3.37-12.26,6.34-17.62,8.8h0c-.23.3-.45.58-.69.86-.07-.14-.15-.28-.24-.43h0L409,87.5c-1.75-2.76-4.25-4.3-5.62-3.48h0q1.71-1.35,3.58-2.79h0c3.1-2.36,6.52-4.86,10.19-7.43,4.87-3.41,10.18-6.94,15.8-10.5C457.69,47.62,479.7,37.17,484.62,38.53Z"/><path class="cls-5" d="M484.62,38.53c-.76,4.86-20.41,19.56-46.1,34.26-3.65,2.1-7.25,4.08-10.74,5.95-6.3,3.37-12.26,6.34-17.62,8.8h0l-.93.42h0L409,87.5c-1.75-2.76-4.25-4.3-5.62-3.48,0,0,0,0,0,0h0l-.24.19s0,0,0,0h0a1.27,1.27,0,0,1,.28-.23l0,0q1.71-1.35,3.58-2.79h0c3.1-2.36,6.52-4.86,10.19-7.43,4.87-3.41,10.18-6.94,15.8-10.5C457.69,47.62,479.7,37.17,484.62,38.53Z"/><path class="cls-14" d="M409.65,94.08a1.39,1.39,0,0,1-.21.11c-1,.43-2.52-.24-3.91-1.64h0l-.39-.41h0l1.23-.77a1.94,1.94,0,0,0,.73-2.43,1.58,1.58,0,0,0-.13-.26,1.94,1.94,0,0,0-2.68-.6l-1.21.76c-.8-1.95-.84-3.72-.05-4.55h0s0,0,0,0l.24-.19h0s0,0,0,0c1.37-.82,3.87.72,5.62,3.48l.28.46h0c.09.15.17.29.24.43h0C410.75,90.89,410.87,93.31,409.65,94.08Z"/><path class="cls-3" d="M391,101.06l0,0h0S391,101.08,391,101.06Z"/><path class="cls-3" d="M383,108.21a2.68,2.68,0,0,0-.07.27l0-.14a0,0,0,0,1,0,0A.24.24,0,0,1,383,108.21Z"/><path class="cls-3" d="M313.11,181.88l-1.31.83"/><path class="cls-1" d="M370.66,138.66a2.45,2.45,0,0,1-1.09.91c-.55.24-1.1.47-1.64.72-18.61,8.3-29.67,20.48-43.33,32.36-3.59,3.12-7.36,6.23-11.49,9.23l-1.31.83a2.44,2.44,0,0,1-2.79-.81l-13.68-18.1-9.19-12.16a2.44,2.44,0,0,1-.21-2.61,44.36,44.36,0,0,1,7.83-10C306.41,126.21,329,111.49,342,105.41c.86-.4,1.67-.76,2.45-1.08a2.43,2.43,0,0,1,2.88.78l1.88,2.49,9.11,12.05,12.26,16.2A2.44,2.44,0,0,1,370.66,138.66Z"/><path class="cls-3" d="M375.29,144.16l-.44.33a3.06,3.06,0,0,1-3.57,0,2.69,2.69,0,0,1-.69-.66l-2.66-3.57c.54-.25,1.09-.48,1.64-.72a2.45,2.45,0,0,0,1-3.72l-12.26-16.2-9.11-12.05-1.88-2.49a2.43,2.43,0,0,0-2.88-.78c-.78.32-1.59.68-2.45,1.08l-.26-.34a3.07,3.07,0,0,1,.63-4.26l.44-.33a3.06,3.06,0,0,1,4.26.63l28.84,38.79A3.06,3.06,0,0,1,375.29,144.16Z"/><path class="cls-4" d="M371.28,144.52a2.07,2.07,0,0,1-.34.15c-18.62,6.37-30.43,16.84-43.87,27.22l-.23.09a19.62,19.62,0,0,1-2.24.67c13.66-11.88,24.72-24.06,43.33-32.36l2.66,3.57A2.69,2.69,0,0,0,371.28,144.52Z"/></svg>