<svg id="Layer_1" data-name="Layer 1" xmlns="http://www.w3.org/2000/svg" xmlns:xlink="http://www.w3.org/1999/xlink" viewBox="0 0 504 504"><defs><style>.cls-1,.cls-7{fill:#be4749;}.cls-1,.cls-13,.cls-14,.cls-2,.cls-20,.cls-21,.cls-22,.cls-23,.cls-24,.cls-25,.cls-26,.cls-27,.cls-28,.cls-3,.cls-30,.cls-31,.cls-32,.cls-4,.cls-5,.cls-8,.cls-9{stroke:#000;stroke-miterlimit:10;}.cls-11,.cls-2{fill:#f4ae3d;}.cls-15,.cls-26,.cls-3{fill:#242d4b;}.cls-30,.cls-4,.cls-6{fill:#354668;}.cls-17,.cls-27,.cls-5{fill:#f2e0be;}.cls-20,.cls-21,.cls-22,.cls-23,.cls-24,.cls-25,.cls-28,.cls-8{fill:none;}.cls-9{fill:#d7987f;}.cls-10{clip-path:url(#clip-path);}.cls-12{clip-path:url(#clip-path-2);}.cls-13,.cls-32{fill:#f7e6d5;}.cls-14{fill:#c9cba3;}.cls-16{clip-path:url(#clip-path-3);}.cls-18{fill:#941b0c;}.cls-19{fill:#eef5db;}.cls-20{stroke-dasharray:3.12 3.12;}.cls-21{stroke-dasharray:1.8 1.8;}.cls-22{stroke-dasharray:2.86 2.86;}.cls-23{stroke-dasharray:1.85 1.85;}.cls-24{stroke-dasharray:2.92 2.92;}.cls-25{stroke-dasharray:1;}.cls-26,.cls-27,.cls-28,.cls-30,.cls-31,.cls-32{stroke-width:0.5px;}.cls-29{clip-path:url(#clip-path-4);}.cls-31{fill:#f9e7ca;}</style><clipPath id="clip-path"><path class="cls-1" d="M411.75,94.27a168.59,168.59,0,0,0-39.24-4.61c-2.52,0-5,.06-7.52.16a35.3,35.3,0,0,1,24.19-19.11A35.27,35.27,0,0,0,411.75,94.27Z"/></clipPath><clipPath id="clip-path-2"><path class="cls-2" d="M483.09,136.38a35,35,0,0,1-7.29-1.18c-.46-.12-.9-.25-1.35-.4a34.91,34.91,0,0,1-11-5.79c-.28-.21-.56-.43-.83-.66a35.13,35.13,0,0,1-6.38-6.9c1.43-.81,2.84-1.63,4.24-2.48h0l.16-.1,1.89-1.16a1.13,1.13,0,0,0,.51-1.15h0a1.11,1.11,0,0,0-.49-.75q-2.32-1.47-4.7-2.88c-.87-.52-1.74-1-2.63-1.52.26-.44.52-.86.79-1.29a36,36,0,0,1,4.24-5.37,35.65,35.65,0,0,1,3.83-3.43,34.61,34.61,0,0,1,6.78-4.13h0a34.7,34.7,0,0,1,9.88-2.9h0c.52-.08,1.06-.14,1.59-.19q-.16,1.53-.3,3.06-.66,7.43-.66,15,0,5.83.39,11.6h0c0,.5.07,1,.11,1.49C482.15,129,482.57,132.73,483.09,136.38Z"/></clipPath><clipPath id="clip-path-3"><path class="cls-3" d="M463,116.56c-1.33-.52-2.67-1-4-1.5-1.6-.57-3.23-1.13-4.87-1.66l-2.38-.76q-8.12-2.53-16.73-4.43l-3.16-.67c-5.64-1.17-11.44-2.14-17.36-2.93-3.07-.41-6.19-.77-9.33-1.08-10.56-1.06-21.48-1.57-32.66-1.57q-5.49,0-10.89.35a166.86,166.86,0,0,0-25.29,3.56c-2.19.48-4.35,1-6.5,1.57q-7,1.84-13.84,4.27a33.85,33.85,0,0,0,.21-3.79,34.92,34.92,0,0,0-1-8.23q4.68-1.71,9.49-3.13c3.83-1.13,7.72-2.14,11.66-3A168.22,168.22,0,0,1,365,89.82c2.5-.1,5-.16,7.52-.16a168.59,168.59,0,0,1,39.24,4.61h0c1.67.41,3.35.83,5,1.29h0l.37.1h0l2.6.73c4,1.18,8,2.5,11.85,4q4.15,1.56,8.19,3.34,5.56,2.43,10.89,5.24c1.52.8,3,1.62,4.51,2.47.89.49,1.76,1,2.63,1.52q2.37,1.41,4.7,2.88A1.11,1.11,0,0,1,463,116.56Z"/></clipPath><clipPath id="clip-path-4"><path class="cls-2" d="M94.86,427l-15.94,18.7a16.82,16.82,0,0,1-2.59-.3A16.59,16.59,0,0,1,63,429.18a16.87,16.87,0,0,1,.48-4s0,0,0-.06c1.19-5,2.75-12.54,2.75-12.54l28.09,12.13A1.47,1.47,0,0,1,94.86,427Z"/></clipPath></defs><path class="cls-4" d="M302.35,421a4.21,4.21,0,0,1-.55.3h0c-2.47,1.12-5.89-.31-7.94-3.42-2.21-3.35-2-7.4.5-9a3.9,3.9,0,0,1,.76-.39h0l.53-.16c2.37-.58,5.35.85,7.2,3.66C305.06,415.27,304.83,419.31,302.35,421Z"/><path class="cls-2" d="M376.35,396.38a3.46,3.46,0,0,1-.72.36l-.26.09L301.8,421.25a4.21,4.21,0,0,0,.55-.3c2.48-1.64,2.71-5.68.5-9-1.85-2.81-4.83-4.24-7.2-3.66l74.49-22.75.14-.05c2.1-.68,4.82.56,6.5,3.1C378.69,391.46,378.5,395,376.35,396.38Z"/><polyline class="cls-5" points="295.65 408.25 295.12 408.41 295.11 408.41"/><line class="cls-5" x1="375.72" y1="396.71" x2="375.63" y2="396.74"/><polyline class="cls-5" points="301.8 421.25 301.79 421.26 301.06 421.5"/><path class="cls-4" d="M315.45,432.62a4.56,4.56,0,0,1-.56.33h0c-2.49,1.23-6-.18-8.21-3.39-2.36-3.46-2.25-7.7.25-9.48a4.6,4.6,0,0,1,.77-.44h0l.54-.18c2.4-.66,5.49.76,7.46,3.66C318.05,426.6,317.93,430.83,315.45,432.62Z"/><path class="cls-2" d="M390.39,405a3.46,3.46,0,0,1-.73.4l-.26.09L314.89,433a4.56,4.56,0,0,0,.56-.33c2.48-1.79,2.6-6,.25-9.49-2-2.9-5.06-4.32-7.46-3.66l75.5-25.71.13-.05c2.13-.77,4.95.46,6.74,3.08C392.65,399.79,392.56,403.48,390.39,405Z"/><polyline class="cls-5" points="308.24 419.47 307.7 419.65 307.69 419.65"/><line class="cls-5" x1="389.76" y1="405.37" x2="389.66" y2="405.41"/><polyline class="cls-5" points="314.89 432.95 314.88 432.95 314.15 433.22"/><path class="cls-4" d="M328.55,444.28a4.92,4.92,0,0,1-.56.37h0c-2.52,1.35-6.18,0-8.49-3.35-2.5-3.56-2.5-8,0-9.93a4.49,4.49,0,0,1,.78-.47h0l.54-.2c2.45-.75,5.64.66,7.73,3.65C331.05,437.92,331,442.36,328.55,444.28Z"/><path class="cls-2" d="M404.44,413.64a3.47,3.47,0,0,1-.74.43l-.26.11L328,444.65a4.92,4.92,0,0,0,.56-.37c2.49-1.92,2.5-6.36,0-9.93-2.09-3-5.28-4.4-7.73-3.65L397.33,402l.14-.06c2.15-.85,5.07.38,7,3.08C406.6,408.13,406.61,412,404.44,413.64Z"/><polyline class="cls-5" points="320.82 430.7 320.28 430.9 320.27 430.9"/><line class="cls-5" x1="403.8" y1="414.03" x2="403.7" y2="414.07"/><polyline class="cls-5" points="327.99 444.64 327.98 444.65 327.23 444.95"/><path class="cls-4" d="M341.64,456a3.12,3.12,0,0,1-.56.39h0c-2.54,1.47-6.31.09-8.76-3.31-2.64-3.68-2.76-8.32-.24-10.39a4.12,4.12,0,0,1,.78-.5h0l.55-.22c2.48-.84,5.78.57,8,3.65C344,449.25,344.14,453.89,341.64,456Z"/><path class="cls-2" d="M418.48,422.27a3.68,3.68,0,0,1-.74.47l-.27.12-76.39,33.48a3.12,3.12,0,0,0,.56-.39c2.5-2.06,2.4-6.7-.24-10.38-2.21-3.08-5.51-4.49-8-3.65l77.52-31.64.14-.06c2.18-.94,5.19.28,7.2,3.06C420.56,416.46,420.67,420.5,418.48,422.27Z"/><polyline class="cls-5" points="333.41 441.92 332.86 442.14 332.85 442.14"/><line class="cls-5" x1="417.84" y1="422.7" x2="417.74" y2="422.74"/><polyline class="cls-5" points="341.08 456.34 341.07 456.35 340.32 456.68"/><path class="cls-4" d="M354.74,467.62a4.3,4.3,0,0,1-.56.42h0c-2.56,1.58-6.45.22-9-3.28-2.79-3.78-3-8.63-.49-10.83a4.5,4.5,0,0,1,.79-.55h0l.56-.25c2.51-.92,5.92.49,8.25,3.65C357,460.58,357.25,465.42,354.74,467.62Z"/><path class="cls-2" d="M432.52,430.9a3.62,3.62,0,0,1-.74.51l-.28.12L354.18,468a4.3,4.3,0,0,0,.56-.42c2.51-2.2,2.3-7-.49-10.83-2.33-3.16-5.74-4.57-8.25-3.65l78.52-34.6.14-.07c2.21-1,5.32.19,7.44,3C434.51,424.8,434.72,429,432.52,430.9Z"/><polyline class="cls-5" points="346 453.14 345.44 453.39 345.43 453.39"/><line class="cls-5" x1="431.88" y1="431.36" x2="431.78" y2="431.41"/><polyline class="cls-5" points="354.18 468.04 354.16 468.05 353.4 468.41"/><path class="cls-4" d="M367.84,479.29a4,4,0,0,1-.57.45h0c-2.58,1.69-6.59.35-9.31-3.25-2.93-3.88-3.26-8.93-.73-11.28a4,4,0,0,1,.79-.58h0l.57-.27c2.55-1,6.06.39,8.51,3.64C370,471.91,370.36,476.94,367.84,479.29Z"/><path class="cls-2" d="M446.57,439.53a3.52,3.52,0,0,1-.76.54l-.27.14-78.27,39.53a4,4,0,0,0,.57-.45c2.52-2.35,2.2-7.38-.74-11.28-2.45-3.25-6-4.65-8.51-3.64l79.53-37.57.14-.07c2.24-1.1,5.44.09,7.67,3C448.47,433.13,448.77,437.52,446.57,439.53Z"/><polyline class="cls-5" points="358.59 464.37 358.02 464.63 358.01 464.64"/><line class="cls-5" x1="445.92" y1="440.02" x2="445.81" y2="440.07"/><polyline class="cls-5" points="367.27 479.74 367.26 479.75 366.49 480.13"/><path class="cls-4" d="M380.94,491a4.05,4.05,0,0,1-.57.47h0c-2.6,1.82-6.73.49-9.58-3.21-3.08-4-3.52-9.24-1-11.72a4.26,4.26,0,0,1,.8-.63h0l.57-.29c2.59-1.09,6.21.3,8.79,3.64C383,483.23,383.47,488.48,380.94,491Z"/><path class="cls-2" d="M460.61,448.17a4.08,4.08,0,0,1-.76.57l-.28.15-79.2,42.54a4.05,4.05,0,0,0,.57-.47c2.53-2.48,2.09-7.73-1-11.73-2.58-3.34-6.2-4.73-8.79-3.64l80.54-40.53.15-.07c2.26-1.19,5.56,0,7.9,3C462.43,441.47,462.8,446,460.61,448.17Z"/><polyline class="cls-5" points="371.17 475.59 370.6 475.88 370.59 475.88"/><line class="cls-5" x1="459.96" y1="448.68" x2="459.85" y2="448.74"/><polyline class="cls-5" points="380.37 491.43 380.35 491.44 379.57 491.86"/><polygon class="cls-6" points="388.31 434.03 383.31 436.18 383.31 292.25 388.31 292.25 388.31 434.03"/><path class="cls-7" d="M453.27,402.29c-37.83,12.32-77.7,27.75-120.92,45.44,18.58-35.14,16.7-85.19-11.2-132.15a389,389,0,0,1,94.56-6.41C446,339.7,456.73,375.16,453.27,402.29Z"/><path class="cls-8" d="M453.27,402.29c-37.83,12.32-77.7,27.75-120.92,45.44,18.58-35.14,16.7-85.19-11.2-132.15a389,389,0,0,1,94.56-6.41C446,339.7,456.73,375.16,453.27,402.29Z"/><path class="cls-5" d="M389.74,334.82c.38,1.58.72,3.18,1,4.79l5.1,1c.93-.65,1.85-1.28,2.77-1.9l4.22.83,2.76-1.8,4.24.85,1.58-1A116.92,116.92,0,0,1,417.71,350c.58,1.35,1.1,2.68,1.56,4-3.37-4.28-10.16-6.93-16.21-5.83a11.26,11.26,0,0,0-9,7.67,16,16,0,0,0-13.13-3c-6.21,1.41-10,7-10.15,13.19q-.66-2.5-1.38-5.12a127.93,127.93,0,0,0-5.17-15l2.35.43,2.84-2.31,4.16.77c.94-.75,1.88-1.49,2.82-2.21l4.17.78q1.71-1.3,3.39-2.55-1.9-2.24-3.93-4.48c-.7.53-1.41,1.06-2.12,1.61l-4.23-.86-2.7,2.13-4.21-.84L364,340.58l-2.39-.47q-.64-1.37-1.32-2.73c-2.15-4.35-1.64-8.28,1.55-8.76,11.72-1.84,23.48-3.16,35.35-4,2.9-.18,7.24,2.23,9.41,5.38.65,1,1.28,1.91,1.9,2.87l-1.52.93-4.3-.91c-.88.55-1.77,1.13-2.67,1.71l-4.27-.91c-.89.6-1.78,1.2-2.67,1.82Z"/><path class="cls-5" d="M388,367.6c-.42-1.87-2.83-2.88-5.32-2.2s-4.15,2.84-3.78,4.79,2.67,2.88,5.21,2.14S388.42,369.48,388,367.6Zm-4.2,3c-1.3.38-2.48-.11-2.68-1.1a2.38,2.38,0,0,1,1.95-2.45c1.28-.35,2.5.16,2.71,1.13S385.1,370.27,383.8,370.64Z"/><path class="cls-5" d="M414.47,361c-.52-1.7-3-2.67-5.46-2.12s-4,2.45-3.53,4.22,2.85,2.69,5.35,2.08S415,362.68,414.47,361Zm-4,2.64c-1.27.31-2.5-.16-2.75-1.07s.55-1.86,1.82-2.15,2.52.2,2.78,1.08S411.71,363.31,410.43,363.61Zm4-2.64c-.52-1.7-3-2.67-5.46-2.12s-4,2.45-3.53,4.22,2.85,2.69,5.35,2.08S415,362.68,414.47,361Zm-4,2.64c-1.27.31-2.5-.16-2.75-1.07s.55-1.86,1.82-2.15,2.52.2,2.78,1.08S411.71,363.31,410.43,363.61ZM422,367.66a45.44,45.44,0,0,0-.82-6.51c-.18-.94-.39-1.88-.64-2.83-3.28-3.86-9.58-6.11-15.39-4.94a12.58,12.58,0,0,0-7.72,4.78,100.93,100.93,0,0,1,5,30.32c0,1.15-1.26,2.47-2.78,3a2.72,2.72,0,0,1-1.93,0,1.27,1.27,0,0,1-.79-1.23,101.53,101.53,0,0,0-4.62-31,15.23,15.23,0,0,0-9.54-.77c-6,1.47-9.92,6.67-10.77,12.46.23.89.45,1.77.67,2.62.64,2.54,1.25,5,1.84,7.27,2,8,3.84,14.49,6,19.13a21.75,21.75,0,0,0,3.54,5.55,28,28,0,0,1,15.25-12.68c6.82-2.22,12.53-.54,13.78,3.29A42.07,42.07,0,0,0,422,367.66Zm-37.65,6.43c-3.87,1.16-7.3-.24-7.85-3.22s1.94-6.27,5.69-7.27,7.46.55,8.1,3.37S388.26,372.94,384.39,374.09Zm26.84-7.33c-3.81,1-7.36-.4-8.07-3.12s1.59-5.63,5.32-6.43,7.5.7,8.3,3.25S415.05,365.8,411.23,366.76ZM409,358.85c-2.46.54-4,2.45-3.53,4.22s2.85,2.69,5.35,2.08,4.16-2.47,3.64-4.18S411.48,358.3,409,358.85Zm1.42,4.76c-1.27.31-2.5-.16-2.75-1.07s.55-1.86,1.82-2.15,2.52.2,2.78,1.08S411.71,363.31,410.43,363.61Z"/><path class="cls-5" d="M412.49,397.13c-4.41,5.28-9.73,9.12-14.8,10.9q-7.87,2.7-12.74-1.91a29.88,29.88,0,0,1,14.44-10.85C405.47,393.27,410.57,394.29,412.49,397.13Z"/><path class="cls-5" d="M388,367.6c-.42-1.87-2.83-2.88-5.32-2.2s-4.15,2.84-3.78,4.79,2.67,2.88,5.21,2.14S388.42,369.48,388,367.6Zm-4.2,3c-1.3.38-2.48-.11-2.68-1.1a2.38,2.38,0,0,1,1.95-2.45c1.28-.35,2.5.16,2.71,1.13S385.1,370.27,383.8,370.64Z"/><path class="cls-5" d="M388,367.6c-.42-1.87-2.83-2.88-5.32-2.2s-4.15,2.84-3.78,4.79,2.67,2.88,5.21,2.14S388.42,369.48,388,367.6Zm-4.2,3c-1.3.38-2.48-.11-2.68-1.1a2.38,2.38,0,0,1,1.95-2.45c1.28-.35,2.5.16,2.71,1.13S385.1,370.27,383.8,370.64Z"/><path class="cls-5" d="M414.47,361c-.52-1.7-3-2.67-5.46-2.12s-4,2.45-3.53,4.22,2.85,2.69,5.35,2.08S415,362.68,414.47,361Zm-4,2.64c-1.27.31-2.5-.16-2.75-1.07s.55-1.86,1.82-2.15,2.52.2,2.78,1.08S411.71,363.31,410.43,363.61Z"/><path class="cls-5" d="M414.47,361c-.52-1.7-3-2.67-5.46-2.12s-4,2.45-3.53,4.22,2.85,2.69,5.35,2.08S415,362.68,414.47,361Zm-4,2.64c-1.27.31-2.5-.16-2.75-1.07s.55-1.86,1.82-2.15,2.52.2,2.78,1.08S411.71,363.31,410.43,363.61Z"/><path class="cls-8" d="M329.91,109a17.61,17.61,0,0,1-17.62,17.61q-.72,0-1.44-.06A34.78,34.78,0,0,0,316,111.71q6.79-2.43,13.84-4.27C329.88,108,329.91,108.5,329.91,109Z"/><path class="cls-8" d="M346.94,133.78a39.65,39.65,0,0,1-6.2,1.29,17.66,17.66,0,0,0-11.21-8c2.35-2.89,7.23-5.78,13.25-7.54,9.24-2.71,17.66-1.7,18.81,2.23S356.19,131.08,346.94,133.78Z"/><path class="cls-8" d="M329.91,109a17.61,17.61,0,0,1-17.62,17.61q-.72,0-1.44-.06A34.78,34.78,0,0,0,316,111.71q6.79-2.43,13.84-4.27C329.88,108,329.91,108.5,329.91,109Z"/><path class="cls-8" d="M346.94,133.78a39.65,39.65,0,0,1-6.2,1.29,17.66,17.66,0,0,0-11.21-8c2.35-2.89,7.23-5.78,13.25-7.54,9.24-2.71,17.66-1.7,18.81,2.23S356.19,131.08,346.94,133.78Z"/><path class="cls-9" d="M316.2,107.92a33.85,33.85,0,0,1-.21,3.79,169,169,0,0,0-18,7.64l-.59.3a34.89,34.89,0,0,0-13.53-4.72c3.51-2.19,7.12-4.25,10.79-6.18a166.14,166.14,0,0,1,20.55-9.06A34.92,34.92,0,0,1,316.2,107.92Z"/><path class="cls-2" d="M316,111.71a34.78,34.78,0,0,1-5.14,14.88,36.35,36.35,0,0,1-2.43,3.42h0a34.73,34.73,0,0,0-4.78-5.63,34.1,34.1,0,0,0-4.49-3.63c-.55-.38-1.12-.74-1.7-1.09l.59-.3A169,169,0,0,1,316,111.71Z"/><path class="cls-3" d="M308.39,130a168.94,168.94,0,0,1-15.95-7.76q-4.5-2.49-8.83-5.25a1.12,1.12,0,0,1,0-1.89l.27-.17a34.89,34.89,0,0,1,13.53,4.72c.59.35,1.15.71,1.7,1.09a34.1,34.1,0,0,1,4.49,3.63A34.73,34.73,0,0,1,308.39,130Z"/><path class="cls-8" d="M329.91,109a17.61,17.61,0,0,1-17.62,17.61q-.72,0-1.44-.06A34.78,34.78,0,0,0,316,111.71q6.79-2.43,13.84-4.27C329.88,108,329.91,108.5,329.91,109Z"/><path class="cls-7" d="M411.75,94.27a168.59,168.59,0,0,0-39.24-4.61c-2.52,0-5,.06-7.52.16a35.3,35.3,0,0,1,24.19-19.11A35.27,35.27,0,0,0,411.75,94.27Z"/><g class="cls-10"><path class="cls-1" d="M365,89.82a35.3,35.3,0,0,1,24.19-19.11"/><path class="cls-1" d="M393.69,75.42a44.78,44.78,0,0,0-25.16,10.85A40.88,40.88,0,0,0,365,89.82"/><path class="cls-1" d="M398.21,80.13a61.25,61.25,0,0,0-28.69,7,52,52,0,0,0-4.53,2.7"/><path class="cls-1" d="M402.72,84.85A86.84,86.84,0,0,0,370.52,88c-1.89.56-3.73,1.19-5.53,1.86"/><path class="cls-1" d="M407.24,89.56a122.65,122.65,0,0,0-35.72-.75c-2.21.28-4.38.62-6.53,1"/><path class="cls-1" d="M411.75,94.27a168.59,168.59,0,0,0-39.24-4.61c-2.52,0-5,.06-7.52.16"/></g><path class="cls-8" d="M411.75,94.27a168.59,168.59,0,0,0-39.24-4.61c-2.52,0-5,.06-7.52.16a35.3,35.3,0,0,1,24.19-19.11A35.27,35.27,0,0,0,411.75,94.27Z"/><path class="cls-9" d="M336.33,105.87a35.26,35.26,0,0,1-21.95,26.52l-1.23-.47q-2.38-.91-4.73-1.91a34.61,34.61,0,0,0,2.43-3.42q.72.06,1.44.06A17.61,17.61,0,0,0,329.91,109c0-.54,0-1.08-.08-1.6C332,106.87,334.14,106.35,336.33,105.87Z"/><path class="cls-5" d="M329.91,109a17.61,17.61,0,0,1-17.62,17.61q-.72,0-1.44-.06A34.78,34.78,0,0,0,316,111.71q6.79-2.43,13.84-4.27C329.88,108,329.91,108.5,329.91,109Z"/><path class="cls-9" d="M446.52,101.15a17.43,17.43,0,0,0-6.23,2.25q-.24.13-.48.3-4-1.78-8.19-3.34c-3.88-1.46-7.84-2.78-11.85-4,.56-.12,1.12-.23,1.69-.33h0a36.46,36.46,0,0,1,4.34-.47c.56,0,1.11,0,1.67,0s1,0,1.54,0h0c.55,0,1.09.07,1.64.12A34.85,34.85,0,0,1,446.52,101.15Z"/><path class="cls-2" d="M442.71,144.77a35.14,35.14,0,0,1-18.12-9.5q6.18-2,12.13-4.38,3-1.2,5.84-2.5a17.52,17.52,0,0,0-1.77,5.58,18.3,18.3,0,0,0-.17,2.47A17.47,17.47,0,0,0,442.71,144.77Z"/><path class="cls-4" d="M398.65,141.29a18.12,18.12,0,0,0-4,2.23,17.86,17.86,0,0,0-5.63,7,17.62,17.62,0,0,1-12.35-7.44,166.26,166.26,0,0,0,17.4-1.21C395.59,141.73,397.13,141.52,398.65,141.29Z"/><path class="cls-11" d="M483.09,136.38a35,35,0,0,1-7.29-1.18c-.46-.12-.9-.25-1.35-.4a34.91,34.91,0,0,1-11-5.79c-.28-.21-.56-.43-.83-.66a35.13,35.13,0,0,1-6.38-6.9c1.43-.81,2.84-1.63,4.24-2.48h0l.16-.1,1.89-1.16a1.13,1.13,0,0,0,.51-1.15h0a1.11,1.11,0,0,0-.49-.75q-2.32-1.47-4.7-2.88c-.87-.52-1.74-1-2.63-1.52.26-.44.52-.86.79-1.29a36,36,0,0,1,4.24-5.37,35.65,35.65,0,0,1,3.83-3.43,34.61,34.61,0,0,1,6.78-4.13h0a34.7,34.7,0,0,1,9.88-2.9h0c.52-.08,1.06-.14,1.59-.19q-.16,1.53-.3,3.06-.66,7.43-.66,15,0,5.83.39,11.6h0c0,.5.07,1,.11,1.49C482.15,129,482.57,132.73,483.09,136.38Z"/><g class="cls-12"><path class="cls-8" d="M483.43,136.14a35.21,35.21,0,0,1-7.3-1.18c-.45-.12-.9-.25-1.34-.4a34.65,34.65,0,0,1-9.06-4.37l-.47-.32a35.31,35.31,0,0,1-8.68-8.65"/><path class="cls-8" d="M456.32,120.08c.37.37.77.74,1.18,1.1.59.52,1.21,1,1.87,1.5A33.87,33.87,0,0,0,465,126l.46.22,1.16.5q1.16.48,2.37.9l.06,0,.94.31a46.38,46.38,0,0,0,4.61,1.21c.45.1.9.18,1.36.26a50.39,50.39,0,0,0,6.16.72l1.23,0"/><path class="cls-8" d="M456.05,118.94q.56.3,1.17.6c.58.28,1.2.54,1.85.8a42.94,42.94,0,0,0,5.59,1.75l.46.12,1.16.26c.78.16,1.57.32,2.39.46h.06l.95.16c1.49.24,3.05.44,4.65.61l1.37.14c2,.17,4.1.29,6.25.33l1.25,0"/><path class="cls-8" d="M455.79,117.8l1.14.09,1.85.11c1.65.09,3.52.16,5.57.2h.47l1.17,0,2.41,0h1c1.5,0,3.07,0,4.7,0h1.38c2,0,4.15,0,6.33-.05h1.26"/><path class="cls-8" d="M455.52,116.66l1.13-.41c.57-.2,1.18-.39,1.83-.59,1.64-.48,3.51-.93,5.57-1.35l.47-.09,1.17-.22c.79-.14,1.59-.28,2.43-.41h.05l1-.14c1.52-.22,3.1-.41,4.74-.58l1.4-.13q3.09-.27,6.41-.42c.42,0,.85,0,1.28-.06"/><path class="cls-8" d="M455.26,115.53c.35-.32.72-.62,1.11-.92.57-.44,1.17-.87,1.81-1.28a34.89,34.89,0,0,1,5.56-2.91l.48-.19c.38-.16.78-.31,1.17-.46.8-.3,1.61-.58,2.45-.85l.05,0,1-.29c1.53-.46,3.12-.84,4.78-1.17l1.41-.26c2.09-.37,4.26-.63,6.49-.81.43,0,.86-.07,1.3-.09"/><path class="cls-8" d="M455,114.39c.34-.49.71-1,1.09-1.43.56-.67,1.16-1.33,1.79-2a32.35,32.35,0,0,1,5.56-4.46l.48-.3c.38-.24.78-.47,1.18-.7.79-.45,1.61-.88,2.46-1.28l.06,0,1-.44a38.82,38.82,0,0,1,4.82-1.77c.48-.13.95-.27,1.43-.39a47.67,47.67,0,0,1,6.57-1.19c.44-.05.87-.09,1.31-.12"/><path class="cls-8" d="M454.73,113.25c.34-.66.7-1.3,1.08-1.93a31.75,31.75,0,0,1,1.78-2.67,35.13,35.13,0,0,1,7.21-7.35c.8-.61,1.63-1.18,2.48-1.72l.06,0,1-.59a34.8,34.8,0,0,1,13-4.46c.44-.06.88-.11,1.33-.15"/></g><path class="cls-8" d="M483.09,136.38a35,35,0,0,1-7.29-1.18c-.46-.12-.9-.25-1.35-.4a34.91,34.91,0,0,1-11-5.79c-.28-.21-.56-.43-.83-.66a35.13,35.13,0,0,1-6.38-6.9c1.43-.81,2.84-1.63,4.24-2.48h0l.16-.1,1.89-1.16a1.13,1.13,0,0,0,.51-1.15h0a1.11,1.11,0,0,0-.49-.75q-2.32-1.47-4.7-2.88c-.87-.52-1.74-1-2.63-1.52.26-.44.52-.86.79-1.29a36,36,0,0,1,4.24-5.37,35.65,35.65,0,0,1,3.83-3.43,34.61,34.61,0,0,1,6.78-4.13h0a34.7,34.7,0,0,1,9.88-2.9h0c.52-.08,1.06-.14,1.59-.19q-.16,1.53-.3,3.06-.66,7.43-.66,15,0,5.83.39,11.6h0c0,.5.07,1,.11,1.49C482.15,129,482.57,132.73,483.09,136.38Z"/><path class="cls-2" d="M346.94,133.78a39.65,39.65,0,0,1-6.2,1.29,17.66,17.66,0,0,0-11.21-8c2.35-2.89,7.23-5.78,13.25-7.54,9.24-2.71,17.66-1.7,18.81,2.23S356.19,131.08,346.94,133.78Z"/><path class="cls-8" d="M340.74,135.07a17.66,17.66,0,0,0-11.21-8"/><path class="cls-8" d="M329.53,127.07a24,24,0,0,1,5.3-.63c3-.08,5.73.81,6.91,2.36s.56,3.42-.4,5.06c-.25.41-.41.84-.6,1.21"/><path class="cls-8" d="M329.53,127.07a20.16,20.16,0,0,1,7.29-2.36c4.55-.67,8.71.18,9.88,2.33s-.89,4.84-4,6.8c-.71.45-1.37.89-2,1.23"/><path class="cls-8" d="M329.53,127.07a22.1,22.1,0,0,1,9.28-4.09c6.11-1.34,11.69-.44,12.86,2.3s-2.39,6.33-7.53,8.54a28.55,28.55,0,0,1-3.4,1.25"/><path class="cls-8" d="M329.53,127.07c2.11-2.26,6.24-4.5,11.26-5.82,7.68-2,14.68-1.07,15.84,2.27s-3.89,7.82-11.09,10.28a32.34,32.34,0,0,1-4.8,1.27"/><path class="cls-8" d="M329.53,127.07c2.35-2.89,7.23-5.78,13.25-7.54,9.24-2.71,17.66-1.7,18.81,2.23s-5.4,9.32-14.65,12a39.65,39.65,0,0,1-6.2,1.29"/><circle class="cls-1" cx="304.52" cy="110.33" r="4.02"/><circle class="cls-13" cx="303.4" cy="110.89" r="2.01"/><path class="cls-14" d="M463,116.55h0c-1.33-.51-2.67-1-4-1.49-1.6-.57-3.23-1.13-4.87-1.66l-2.38-.77q-8.12-2.52-16.73-4.42l-3.16-.67c-5.64-1.17-11.44-2.14-17.36-2.93-3.07-.41-6.19-.78-9.33-1.08-10.56-1.06-21.48-1.57-32.66-1.57q-5.49,0-10.89.35a166.68,166.68,0,0,0-25.29,3.56,35.26,35.26,0,0,1-21.95,26.52,167,167,0,0,0,28.5,7.94,168.45,168.45,0,0,0,30.75,2.81c1,0,2,0,3,0a166.26,166.26,0,0,0,17.4-1.2c1.54-.18,3.08-.39,4.6-.62,2.37-.35,4.72-.76,7.06-1.21l1.73-.34a165.27,165.27,0,0,0,17.15-4.47q6.18-2,12.13-4.38c2-.8,3.92-1.63,5.84-2.5,2.76-1.25,5.49-2.56,8.17-4,1.86-1,3.69-2,5.51-3q2.14-1.22,4.24-2.49h0l.16-.09,1.89-1.16A1.15,1.15,0,0,0,463,116.55Zm-116.1,17.23a39.65,39.65,0,0,1-6.2,1.29,17.62,17.62,0,0,0-11.21-8c2.35-2.89,7.23-5.79,13.25-7.55,9.24-2.7,17.66-1.7,18.81,2.24S356.19,131.08,346.94,133.78Z"/><path class="cls-1" d="M463,116.55h0c-1.33-.51-2.67-1-4-1.49-1.6-.57-3.23-1.13-4.87-1.66l-2.38-.77q-8.12-2.52-16.73-4.42l-3.16-.67c-5.64-1.17-11.44-2.14-17.36-2.93-3.07-.41-6.19-.78-9.33-1.08-10.56-1.06-21.48-1.57-32.66-1.57q-5.49,0-10.89.35a166.68,166.68,0,0,0-25.29,3.56,35.26,35.26,0,0,1-21.95,26.52,167,167,0,0,0,28.5,7.94,168.45,168.45,0,0,0,30.75,2.81c1,0,2,0,3,0a166.26,166.26,0,0,0,17.4-1.2c1.54-.18,3.08-.39,4.6-.62,2.37-.35,4.72-.76,7.06-1.21l1.73-.34a165.27,165.27,0,0,0,17.15-4.47q6.18-2,12.13-4.38c2-.8,3.92-1.63,5.84-2.5,2.76-1.25,5.49-2.56,8.17-4,1.86-1,3.69-2,5.51-3q2.14-1.22,4.24-2.49h0l.16-.09,1.89-1.16A1.15,1.15,0,0,0,463,116.55Zm-116.1,17.23a39.65,39.65,0,0,1-6.2,1.29,17.62,17.62,0,0,0-11.21-8c2.35-2.89,7.23-5.79,13.25-7.55,9.24-2.7,17.66-1.7,18.81,2.24S356.19,131.08,346.94,133.78Z"/><path class="cls-15" d="M463,116.56c-1.33-.52-2.67-1-4-1.5-1.6-.57-3.23-1.13-4.87-1.66l-2.38-.76q-8.12-2.53-16.73-4.43l-3.16-.67c-5.64-1.17-11.44-2.14-17.36-2.93-3.07-.41-6.19-.77-9.33-1.08-10.56-1.06-21.48-1.57-32.66-1.57q-5.49,0-10.89.35a166.86,166.86,0,0,0-25.29,3.56c-2.19.48-4.35,1-6.5,1.57q-7,1.84-13.84,4.27a33.85,33.85,0,0,0,.21-3.79,34.92,34.92,0,0,0-1-8.23q4.68-1.71,9.49-3.13c3.83-1.13,7.72-2.14,11.66-3A168.22,168.22,0,0,1,365,89.82c2.5-.1,5-.16,7.52-.16a168.59,168.59,0,0,1,39.24,4.61h0c1.67.41,3.35.83,5,1.29h0l.37.1h0l2.6.73c4,1.18,8,2.5,11.85,4q4.15,1.56,8.19,3.34,5.56,2.43,10.89,5.24c1.52.8,3,1.62,4.51,2.47.89.49,1.76,1,2.63,1.52q2.37,1.41,4.7,2.88A1.11,1.11,0,0,1,463,116.56Z"/><g class="cls-16"><circle class="cls-17" cx="318.06" cy="93.62" r="2.24"/><circle class="cls-17" cx="322.67" cy="100.05" r="2.24"/><circle class="cls-17" cx="461.49" cy="117.35" r="2.24"/><circle class="cls-17" cx="450.46" cy="115.52" r="2.24"/><circle class="cls-17" cx="335.53" cy="90.84" r="2.24"/><circle class="cls-17" cx="346.56" cy="92.67" r="2.24"/><circle class="cls-17" cx="357.59" cy="94.49" r="2.24"/><circle class="cls-17" cx="368.63" cy="96.32" r="2.24"/><circle class="cls-17" cx="379.66" cy="98.14" r="2.24"/><circle class="cls-17" cx="390.69" cy="99.97" r="2.24"/><circle class="cls-17" cx="329.1" cy="95.44" r="2.24"/><circle class="cls-17" cx="333.7" cy="101.87" r="2.24"/><circle class="cls-17" cx="344.73" cy="103.7" r="2.24"/><circle class="cls-17" cx="355.77" cy="105.52" r="2.24"/><circle class="cls-17" cx="366.8" cy="107.35" r="2.24"/><circle class="cls-17" cx="377.83" cy="109.18" r="2.24"/><circle class="cls-17" cx="388.87" cy="111" r="2.24"/><circle class="cls-17" cx="399.9" cy="112.83" r="2.24"/><circle class="cls-17" cx="410.93" cy="114.65" r="2.24"/><circle class="cls-17" cx="421.97" cy="116.48" r="2.24"/><circle class="cls-17" cx="433" cy="118.3" r="2.24"/><circle class="cls-18" cx="437.6" cy="124.73" r="2.24"/><circle class="cls-17" cx="439.43" cy="113.7" r="2.24"/><circle class="cls-17" cx="444.03" cy="120.13" r="2.24"/><circle class="cls-17" cx="426.57" cy="122.91" r="2.24"/><circle class="cls-17" cx="428.4" cy="111.87" r="2.24"/><circle class="cls-17" cx="340.13" cy="97.27" r="2.24"/><circle class="cls-17" cx="351.16" cy="99.1" r="2.24"/><circle class="cls-17" cx="362.2" cy="100.92" r="2.24"/><circle class="cls-17" cx="373.23" cy="102.75" r="2.24"/><circle class="cls-17" cx="384.26" cy="104.57" r="2.24"/><circle class="cls-17" cx="395.3" cy="106.4" r="2.24"/><circle class="cls-17" cx="406.33" cy="108.22" r="2.24"/><circle class="cls-17" cx="417.36" cy="110.05" r="2.24"/><circle class="cls-17" cx="316.24" cy="104.65" r="2.24"/><circle class="cls-17" cx="397.12" cy="95.36" r="2.24"/><circle class="cls-17" cx="401.73" cy="101.79" r="2.24"/><circle class="cls-17" cx="414.58" cy="92.59" r="2.24"/><circle class="cls-17" cx="425.62" cy="94.41" r="2.24"/><circle class="cls-17" cx="436.65" cy="96.24" r="2.24"/><circle class="cls-17" cx="447.68" cy="98.06" r="2.24"/><circle class="cls-17" cx="458.72" cy="99.89" r="2.24"/><circle class="cls-19" cx="394.34" cy="77.9" r="2.24"/><circle class="cls-17" cx="408.15" cy="97.19" r="2.24"/><circle class="cls-17" cx="412.76" cy="103.62" r="2.24"/><circle class="cls-17" cx="423.79" cy="105.44" r="2.24"/><circle class="cls-17" cx="434.82" cy="107.27" r="2.24"/><circle class="cls-17" cx="445.86" cy="109.1" r="2.24"/><circle class="cls-17" cx="456.89" cy="110.92" r="2.24"/><circle class="cls-17" cx="392.52" cy="88.93" r="2.24"/><circle class="cls-17" cx="403.55" cy="90.76" r="2.24"/><circle class="cls-17" cx="414.58" cy="92.59" r="2.24"/><circle class="cls-17" cx="425.62" cy="94.41" r="2.24"/><circle class="cls-17" cx="436.65" cy="96.24" r="2.24"/><circle class="cls-17" cx="441.25" cy="102.67" r="2.24"/><circle class="cls-17" cx="430.22" cy="100.84" r="2.24"/><circle class="cls-17" cx="419.19" cy="99.02" r="2.24"/><circle class="cls-17" cx="430.22" cy="100.84" r="2.24"/><circle class="cls-17" cx="441.25" cy="102.67" r="2.24"/><circle class="cls-17" cx="452.29" cy="104.49" r="2.24"/><circle class="cls-17" cx="463.32" cy="106.32" r="2.24"/><circle class="cls-17" cx="398.95" cy="84.33" r="2.24"/><circle class="cls-17" cx="409.98" cy="86.16" r="2.24"/><circle class="cls-17" cx="421.01" cy="87.98" r="2.24"/><circle class="cls-17" cx="395.3" cy="106.4" r="2.24"/><circle class="cls-19" cx="326.32" cy="77.98" r="2.24"/><circle class="cls-17" cx="330.92" cy="84.41" r="2.24"/><circle class="cls-19" cx="343.78" cy="75.2" r="2.24"/><circle class="cls-19" cx="354.81" cy="77.03" r="2.24"/><circle class="cls-19" cx="365.85" cy="78.85" r="2.24"/><circle class="cls-19" cx="376.88" cy="80.68" r="2.24"/><circle class="cls-17" cx="387.91" cy="82.51" r="2.24"/><circle class="cls-19" cx="337.35" cy="79.81" r="2.24"/><circle class="cls-17" cx="341.96" cy="86.24" r="2.24"/><circle class="cls-17" cx="352.99" cy="88.06" r="2.24"/><circle class="cls-17" cx="364.02" cy="89.89" r="2.24"/><circle class="cls-17" cx="375.05" cy="91.71" r="2.24"/><circle class="cls-17" cx="386.09" cy="93.54" r="2.24"/><circle class="cls-19" cx="348.38" cy="81.63" r="2.24"/><circle class="cls-17" cx="359.42" cy="83.46" r="2.24"/><circle class="cls-17" cx="370.45" cy="85.28" r="2.24"/><circle class="cls-17" cx="381.48" cy="87.11" r="2.24"/><circle class="cls-17" cx="324.49" cy="89.02" r="2.24"/><circle class="cls-17" cx="309.81" cy="109.26" r="2.24"/><circle class="cls-17" cx="314.41" cy="115.69" r="2.24"/><circle class="cls-17" cx="327.27" cy="106.48" r="2.24"/><circle class="cls-17" cx="338.3" cy="108.3" r="2.24"/><circle class="cls-17" cx="349.34" cy="110.13" r="2.24"/><circle class="cls-17" cx="360.37" cy="111.95" r="2.24"/><circle class="cls-17" cx="371.4" cy="113.78" r="2.24"/><circle class="cls-17" cx="320.84" cy="111.08" r="2.24"/><circle class="cls-17" cx="325.45" cy="117.51" r="2.24"/><circle class="cls-17" cx="336.48" cy="119.34" r="2.24"/><circle class="cls-17" cx="347.51" cy="121.16" r="2.24"/><circle class="cls-17" cx="358.55" cy="122.99" r="2.24"/><circle class="cls-17" cx="443.08" cy="91.63" r="2.24"/><circle class="cls-17" cx="331.88" cy="112.91" r="2.24"/><circle class="cls-17" cx="342.91" cy="114.73" r="2.24"/><circle class="cls-17" cx="353.94" cy="116.56" r="2.24"/><circle class="cls-17" cx="364.97" cy="118.38" r="2.24"/><circle class="cls-17" cx="432.05" cy="89.81" r="2.24"/></g><path class="cls-8" d="M463,116.56c-1.33-.52-2.67-1-4-1.5-1.6-.57-3.23-1.13-4.87-1.66l-2.38-.76q-8.12-2.53-16.73-4.43l-3.16-.67c-5.64-1.17-11.44-2.14-17.36-2.93-3.07-.41-6.19-.77-9.33-1.08-10.56-1.06-21.48-1.57-32.66-1.57q-5.49,0-10.89.35a166.86,166.86,0,0,0-25.29,3.56c-2.19.48-4.35,1-6.5,1.57q-7,1.84-13.84,4.27a33.85,33.85,0,0,0,.21-3.79,34.92,34.92,0,0,0-1-8.23q4.68-1.71,9.49-3.13c3.83-1.13,7.72-2.14,11.66-3A168.22,168.22,0,0,1,365,89.82c2.5-.1,5-.16,7.52-.16a168.59,168.59,0,0,1,39.24,4.61h0c1.67.41,3.35.83,5,1.29h0l.37.1h0l2.6.73c4,1.18,8,2.5,11.85,4q4.15,1.56,8.19,3.34,5.56,2.43,10.89,5.24c1.52.8,3,1.62,4.51,2.47.89.49,1.76,1,2.63,1.52q2.37,1.41,4.7,2.88A1.11,1.11,0,0,1,463,116.56Z"/><path class="cls-5" d="M464.07,101.32a35.65,35.65,0,0,0-3.83,3.43,36,36,0,0,0-4.24,5.37c-.27.43-.53.85-.79,1.29-1.48-.85-3-1.67-4.51-2.47q-5.32-2.81-10.89-5.24.24-.17.48-.3a35.13,35.13,0,0,0,9,1.16H450c.32,0,.63,0,.94,0a34.68,34.68,0,0,0,7.33-1.11A36.58,36.58,0,0,0,464.07,101.32Z"/><path class="cls-8" d="M84.47,50.23h0Z"/><path class="cls-2" d="M152.2,210.64H37.57a1.24,1.24,0,0,1-1.21-1.49l16.91-83.54v0l0-.11,5.06-25a.51.51,0,0,0,0-.13A103.09,103.09,0,0,0,60.7,78.2a107.11,107.11,0,0,0-1.39-17.39,50.32,50.32,0,0,1,20-9.56c1.67-.41,3.4-.75,5.16-1h0v0l.2,0a12.3,12.3,0,0,0,20.46,0l.19,0v0h0c1.76.28,3.49.62,5.16,1a50.32,50.32,0,0,1,20,9.56,107.08,107.08,0,0,0-1.39,17.38,103.82,103.82,0,0,0,2.32,22.2.19.19,0,0,0,0,.08l5.07,25.09,0,.06,16.91,83.53A1.24,1.24,0,0,1,152.2,210.64Z"/><path class="cls-8" d="M105.31,50.22h0v0Z"/><path class="cls-1" d="M108.53,41.45a18.53,18.53,0,0,1-1.77,6l-.53,1a18.41,18.41,0,0,1-1.11,1.7,12.3,12.3,0,0,1-20.46,0,16.8,16.8,0,0,1-1.14-1.74l-.51-1a18.53,18.53,0,0,1-1.77-6Z"/><path class="cls-8" d="M84.47,50.23h0Z"/><path class="cls-8" d="M105.31,50.22h0v0Z"/><path class="cls-1" d="M84.66,50.19l-.2,0h0c-5.27-5.5-14.49-4.06-15.24-8.77h12a18.53,18.53,0,0,0,1.77,6c.15.32.32.65.51,1A16.8,16.8,0,0,0,84.66,50.19Z"/><path class="cls-1" d="M120.55,41.45c-.75,4.71-10,3.27-15.24,8.77h0l-.19,0a18.41,18.41,0,0,0,1.11-1.7l.53-1a18.53,18.53,0,0,0,1.77-6Z"/><path class="cls-2" d="M120.55,41.45H69.22L80.85,15.7a8.07,8.07,0,0,1,7.49-5.06h13.09a8.07,8.07,0,0,1,7.49,5.06Z"/><path class="cls-2" d="M60.7,78.2a103.09,103.09,0,0,1-2.32,22.19.51.51,0,0,1,0,.13l-5.06,25,0,.11v0L36.21,172.08a1.85,1.85,0,0,1-2.35,1.12l-14.6-5a1.85,1.85,0,0,1-1.16-2.36L30.22,130.7l19.6-56.82A27.81,27.81,0,0,1,56.5,63.37h0a36.27,36.27,0,0,1,2.8-2.55A107.11,107.11,0,0,1,60.7,78.2Z"/><path class="cls-2" d="M170.52,168.19l-14.6,5a1.86,1.86,0,0,1-2.36-1.12l-17-46.45h0l0-.06-5.07-25.09a.19.19,0,0,1,0-.08,103.82,103.82,0,0,1-2.32-22.2,107.08,107.08,0,0,1,1.39-17.38,36.27,36.27,0,0,1,2.8,2.55,28,28,0,0,1,6.49,10c.07.19.14.38.2.57l19.61,56.82,12.11,35.13A1.85,1.85,0,0,1,170.52,168.19Z"/><line class="cls-8" x1="131.39" y1="100.39" x2="131.4" y2="100.4"/><line class="cls-8" x1="79.3" y1="51.25" x2="79.58" y2="52.72"/><path class="cls-20" d="M80.17,55.79l1.16,6a9.32,9.32,0,0,0,9.15,7.57h8.81a9.32,9.32,0,0,0,9.15-7.57l1.46-7.58"/><line class="cls-8" x1="110.19" y1="52.72" x2="110.47" y2="51.25"/><polyline class="cls-8" points="136.14 159.9 136.45 161.37 135.09 162"/><line class="cls-21" x1="133.46" y1="162.75" x2="131.02" y2="163.88"/><polyline class="cls-8" points="130.2 164.26 128.84 164.89 128.53 163.42"/><line class="cls-22" x1="127.93" y1="160.62" x2="122.29" y2="134"/><polyline class="cls-8" points="122 132.6 121.69 131.13 123 130.41"/><line class="cls-23" x1="124.62" y1="129.51" x2="127.05" y2="128.17"/><polyline class="cls-8" points="127.86 127.72 129.17 127 129.48 128.47"/><line class="cls-24" x1="130.09" y1="131.32" x2="135.84" y2="158.47"/><polyline class="cls-8" points="66.77 130.41 68.08 131.13 67.77 132.6"/><line class="cls-22" x1="67.18" y1="135.4" x2="61.54" y2="162.02"/><polyline class="cls-8" points="61.24 163.42 60.93 164.89 59.57 164.26"/><line class="cls-21" x1="57.94" y1="163.51" x2="55.49" y2="162.38"/><polyline class="cls-8" points="54.68 162 53.32 161.37 53.63 159.9"/><line class="cls-24" x1="54.23" y1="157.04" x2="59.99" y2="129.9"/><polyline class="cls-8" points="60.29 128.47 60.6 127 61.91 127.72"/><line class="cls-23" x1="63.53" y1="128.62" x2="65.96" y2="129.96"/><path class="cls-3" d="M129.28,128.16a.93.93,0,1,1-.42-1.81.93.93,0,1,1,.42,1.81Z"/><path class="cls-3" d="M60.91,128.16a.93.93,0,1,1,.7-1.11A.93.93,0,0,1,60.91,128.16Z"/><path class="cls-3" d="M136.11,162.35a.93.93,0,1,1,.71-1.12A1,1,0,0,1,136.11,162.35Z"/><path class="cls-3" d="M54.07,162.35a.94.94,0,0,1-1.12-.71.94.94,0,0,1,1.83-.41A1,1,0,0,1,54.07,162.35Z"/><path class="cls-8" d="M88.67,58.89c2.17,3-3.87,8.57.47,18.92a8.71,8.71,0,0,1-.47,7"/><path class="cls-8" d="M101.1,58.89c-2.34,7.23,8.78,8.55,4.61,21.61"/><path class="cls-8" d="M88.88,59.79a.93.93,0,1,1,.7-1.11A.92.92,0,0,1,88.88,59.79Z"/><path class="cls-8" d="M101.31,59.79a.93.93,0,1,1,.7-1.11A.92.92,0,0,1,101.31,59.79Z"/><line class="cls-8" x1="98.1" y1="55.2" x2="97.78" y2="210.64"/><path class="cls-25" d="M82.36,50.58a14.85,14.85,0,0,0,25,.11"/><path class="cls-26" d="M93.42,53.26a2.47,2.47,0,0,1-1.27-1.35L92,51.48l-.46-1.17h1.88v2.95Z"/><path class="cls-26" d="M98.25,50.31l-.46,1.17-.17.43a2.42,2.42,0,0,1-1.26,1.35V50.31Z"/><path class="cls-27" d="M97.79,51.48l-.54,1.61a2.17,2.17,0,0,1-2,1.58h-.72a2.17,2.17,0,0,1-2-1.58L92,51.48l.16.43a2.47,2.47,0,0,0,1.27,1.35,2.35,2.35,0,0,0,1,.24h.84a2.35,2.35,0,0,0,1-.24,2.42,2.42,0,0,0,1.26-1.35Z"/><line class="cls-28" x1="84.47" y1="50.23" x2="105.01" y2="50.23"/><path class="cls-4" d="M96.35,59.11a1.56,1.56,0,1,1-.93-2A1.56,1.56,0,0,1,96.35,59.11Z"/><path class="cls-4" d="M96.35,65.33a1.56,1.56,0,1,1-.93-2A1.57,1.57,0,0,1,96.35,65.33Z"/><path class="cls-4" d="M96.35,74.65a1.56,1.56,0,0,1-2.93-1.07,1.56,1.56,0,0,1,2.93,1.07Z"/><path class="cls-4" d="M96.35,93.29a1.56,1.56,0,1,1-.93-2A1.56,1.56,0,0,1,96.35,93.29Z"/><path class="cls-4" d="M96.35,111.94a1.59,1.59,0,0,1-.44.63h0a1.57,1.57,0,0,1-1.55.3,1.5,1.5,0,0,1-.48-.3h0a1.54,1.54,0,0,1-.45-1.7,1.56,1.56,0,1,1,2.93,1.07Z"/><path class="cls-4" d="M96.35,130.59a1.56,1.56,0,1,1-.93-2A1.57,1.57,0,0,1,96.35,130.59Z"/><circle class="cls-4" cx="94.89" cy="148.7" r="1.55"/><circle class="cls-4" cx="94.89" cy="167.34" r="1.55"/><circle class="cls-4" cx="94.89" cy="185.99" r="1.55"/><path class="cls-1" d="M78.92,445.74,94.86,427a1.47,1.47,0,0,0-.53-2.31L66.24,412.6V296.66a4.41,4.41,0,0,1,4.42-4.41h53a4.41,4.41,0,0,1,4.42,4.41V407.78a22.43,22.43,0,0,0,2,9.23l20.72,46.22a21.27,21.27,0,0,1,1.34,3.76l-18,2.23a5.18,5.18,0,0,0-4.05,3l-7.92,17.3C95.13,478,92.86,453.68,78.92,445.74Z"/><path class="cls-11" d="M94.86,427l-15.94,18.7a16.82,16.82,0,0,1-2.59-.3A16.59,16.59,0,0,1,63,429.18a16.87,16.87,0,0,1,.48-4s0,0,0-.06c1.19-5,2.75-12.54,2.75-12.54l28.09,12.13A1.47,1.47,0,0,1,94.86,427Z"/><g class="cls-29"><path class="cls-8" d="M95.54,427.77l-2.82-.64a.73.73,0,0,1-.47-1.08l1.46-2.55"/><path class="cls-8" d="M93.58,430.65c-.15,0-.62-.08-.76-.1-.83-.11-3.57-1.07-4-1.76a2.48,2.48,0,0,1-.79-2.18c0-.23.31-1,.35-1.19h0a38.93,38.93,0,0,1,1.26-3.71"/><path class="cls-8" d="M91.61,433.54c-.29,0-.84-.08-1.12-.11a10.88,10.88,0,0,1-5.57-3,5.33,5.33,0,0,1-1.1-3.27,14.23,14.23,0,0,1,.33-1.75v0c.3-1.69,1.42-5.51,1.42-5.51"/><path class="cls-8" d="M89.65,436.42a10.45,10.45,0,0,1-1.49-.12A11.79,11.79,0,0,1,81,432.1a7.86,7.86,0,0,1-1.42-4.38,13.66,13.66,0,0,1,.31-2.31v0c.46-2.53,1.59-7.29,1.59-7.29"/><path class="cls-8" d="M87.68,439.31a14.13,14.13,0,0,1-1.85-.14,13.23,13.23,0,0,1-8.7-5.41,10.77,10.77,0,0,1-1.74-5.48,14.33,14.33,0,0,1,.3-2.87v0c.61-3.37,1.75-9.09,1.75-9.09"/><path class="cls-8" d="M85.72,442.19a14.66,14.66,0,0,1-12.49-6.77,13.5,13.5,0,0,1-2-6.58,15.54,15.54,0,0,1,.28-3.43.43.43,0,0,1,0-.05c.76-4.22,1.9-10.88,1.9-10.88"/><path class="cls-8" d="M83.76,445.08a18.53,18.53,0,0,1-2.6-.16A16.62,16.62,0,0,1,67.23,425.4s0,0,0-.06c.91-5.06,2.06-12.67,2.06-12.67"/></g><path class="cls-8" d="M94.86,427l-15.94,18.7a16.82,16.82,0,0,1-2.59-.3A16.59,16.59,0,0,1,63,429.18a16.87,16.87,0,0,1,.48-4s0,0,0-.06c1.19-5,2.75-12.54,2.75-12.54l28.09,12.13A1.47,1.47,0,0,1,94.86,427Z"/><path class="cls-2" d="M152.72,472.49a20.35,20.35,0,0,1-30.58,17l7.92-17.3a5.18,5.18,0,0,1,4.05-3l18-2.23A20.36,20.36,0,0,1,152.72,472.49Z"/><path class="cls-8" d="M136,469l-.59,1.29a5.14,5.14,0,0,1-4,3l-2,.24"/><path class="cls-8" d="M140.05,468.46a12.79,12.79,0,0,1-.29,2.34c-.37,3.81-3.79,6.78-7.67,7.14a10.79,10.79,0,0,1-4.47-.48"/><path class="cls-8" d="M144.07,468a13.81,13.81,0,0,1,0,3.4,12.38,12.38,0,0,1-11.28,11.32,13.41,13.41,0,0,1-7-1.22"/><path class="cls-8" d="M148.09,467.46a17.22,17.22,0,0,1,.3,4.45,16.42,16.42,0,0,1-14.9,15.5,16.8,16.8,0,0,1-9.54-2"/><path class="cls-8" d="M152.11,467a20,20,0,0,1,.59,5.51,20.37,20.37,0,0,1-30.59,17"/><rect class="cls-27" x="69.99" y="306.05" width="2.94" height="2.94"/><rect class="cls-27" x="72.94" y="306.05" width="2.94" height="2.94"/><rect class="cls-27" x="75.88" y="306.05" width="2.94" height="2.94"/><rect class="cls-27" x="72.94" y="308.99" width="2.94" height="2.94"/><rect class="cls-27" x="75.88" y="308.99" width="2.94" height="2.94"/><rect class="cls-27" x="78.82" y="308.99" width="2.94" height="2.94"/><rect class="cls-27" x="81.77" y="311.94" width="2.94" height="2.94"/><rect class="cls-27" x="72.94" y="314.88" width="2.94" height="2.94"/><rect class="cls-27" x="75.88" y="314.88" width="2.94" height="2.94"/><rect class="cls-27" x="78.82" y="314.88" width="2.94" height="2.94"/><rect class="cls-27" x="69.99" y="317.82" width="2.94" height="2.94"/><rect class="cls-27" x="72.94" y="317.82" width="2.94" height="2.94"/><rect class="cls-27" x="75.88" y="317.82" width="2.94" height="2.94"/><rect class="cls-27" x="89.86" y="306.05" width="2.94" height="2.94"/><rect class="cls-27" x="92.8" y="306.05" width="2.94" height="2.94"/><rect class="cls-27" x="95.75" y="306.05" width="2.94" height="2.94"/><rect class="cls-27" x="92.8" y="308.99" width="2.94" height="2.94"/><rect class="cls-27" x="95.75" y="308.99" width="2.94" height="2.94"/><rect class="cls-27" x="98.69" y="308.99" width="2.94" height="2.94"/><rect class="cls-27" x="101.63" y="311.94" width="2.94" height="2.94"/><rect class="cls-27" x="92.8" y="314.88" width="2.94" height="2.94"/><rect class="cls-27" x="95.75" y="314.88" width="2.94" height="2.94"/><rect class="cls-27" x="98.69" y="314.88" width="2.94" height="2.94"/><rect class="cls-27" x="89.86" y="317.82" width="2.94" height="2.94"/><rect class="cls-27" x="92.8" y="317.82" width="2.94" height="2.94"/><rect class="cls-27" x="95.75" y="317.82" width="2.94" height="2.94"/><rect class="cls-27" x="109.73" y="306.05" width="2.94" height="2.94"/><rect class="cls-27" x="112.67" y="306.05" width="2.94" height="2.94"/><rect class="cls-27" x="115.61" y="306.05" width="2.94" height="2.94"/><rect class="cls-27" x="112.67" y="308.99" width="2.94" height="2.94"/><rect class="cls-27" x="115.61" y="308.99" width="2.94" height="2.94"/><rect class="cls-27" x="118.56" y="308.99" width="2.94" height="2.94"/><rect class="cls-27" x="121.5" y="311.94" width="2.94" height="2.94"/><rect class="cls-27" x="112.67" y="314.88" width="2.94" height="2.94"/><rect class="cls-27" x="115.61" y="314.88" width="2.94" height="2.94"/><rect class="cls-27" x="118.56" y="314.88" width="2.94" height="2.94"/><rect class="cls-27" x="109.73" y="317.82" width="2.94" height="2.94"/><rect class="cls-27" x="112.67" y="317.82" width="2.94" height="2.94"/><rect class="cls-27" x="115.61" y="317.82" width="2.94" height="2.94"/><rect class="cls-30" x="71.08" y="396.92" width="2.94" height="2.94"/><rect class="cls-30" x="76.97" y="396.92" width="2.94" height="2.94"/><rect class="cls-30" x="74.03" y="399.86" width="2.94" height="2.94"/><rect class="cls-30" x="76.97" y="402.81" width="2.94" height="2.94"/><rect class="cls-30" x="71.08" y="402.81" width="2.94" height="2.94"/><rect class="cls-30" x="93.16" y="396.92" width="2.94" height="2.94"/><rect class="cls-30" x="99.04" y="396.92" width="2.94" height="2.94"/><rect class="cls-30" x="96.1" y="399.86" width="2.94" height="2.94"/><rect class="cls-30" x="99.04" y="402.81" width="2.94" height="2.94"/><rect class="cls-30" x="93.16" y="402.81" width="2.94" height="2.94"/><rect class="cls-30" x="115.23" y="396.92" width="2.94" height="2.94"/><rect class="cls-30" x="121.12" y="396.92" width="2.94" height="2.94"/><rect class="cls-30" x="118.17" y="399.86" width="2.94" height="2.94"/><rect class="cls-30" x="121.12" y="402.81" width="2.94" height="2.94"/><rect class="cls-30" x="115.23" y="402.81" width="2.94" height="2.94"/><rect class="cls-30" x="95.98" y="356.03" width="2.94" height="2.94" transform="translate(-1.01 0.28) rotate(-0.16)"/><rect class="cls-30" x="107.77" y="361.88" width="2.94" height="2.94" transform="translate(219.5 726.4) rotate(179.84)"/><rect class="cls-30" x="104.82" y="358.95" width="2.94" height="2.94" transform="translate(213.59 720.54) rotate(179.84)"/><rect class="cls-30" x="101.86" y="356.01" width="2.94" height="2.94" transform="translate(207.68 714.68) rotate(179.84)"/><rect class="cls-30" x="104.8" y="353.06" width="2.94" height="2.94" transform="translate(213.54 708.77) rotate(179.84)"/><rect class="cls-30" x="107.73" y="350.11" width="2.94" height="2.94" transform="translate(219.4 702.85) rotate(179.84)"/><rect class="cls-30" x="101.83" y="344.24" width="2.94" height="2.94" transform="translate(448.72 241.44) rotate(89.84)"/><rect class="cls-30" x="98.9" y="347.19" width="2.94" height="2.94" transform="translate(448.75 247.31) rotate(89.84)"/><rect class="cls-30" x="95.96" y="350.14" width="2.94" height="2.94" transform="translate(448.77 253.19) rotate(89.84)"/><rect class="cls-30" x="93.01" y="347.21" width="2.94" height="2.94" transform="translate(442.89 253.22) rotate(89.84)"/><rect class="cls-30" x="90.06" y="344.27" width="2.94" height="2.94" transform="translate(437.01 253.24) rotate(89.84)"/><rect class="cls-30" x="84.19" y="350.18" width="2.94" height="2.94" transform="translate(-0.99 0.24) rotate(-0.16)"/><rect class="cls-30" x="87.14" y="353.11" width="2.94" height="2.94" transform="translate(-1 0.25) rotate(-0.16)"/><rect class="cls-30" x="90.09" y="356.05" width="2.94" height="2.94" transform="translate(-1.01 0.26) rotate(-0.16)"/><rect class="cls-30" x="87.16" y="359" width="2.94" height="2.94" transform="translate(-1.02 0.25) rotate(-0.16)"/><rect class="cls-30" x="84.22" y="361.95" width="2.94" height="2.94" transform="translate(-1.02 0.24) rotate(-0.16)"/><rect class="cls-30" x="90.12" y="367.93" width="2.94" height="2.94" transform="translate(-277.54 462.04) rotate(-90.16)"/><rect class="cls-30" x="93.06" y="364.98" width="2.94" height="2.94" transform="matrix(0, -1, 1, 0, -271.65, 462.01)"/><rect class="cls-30" x="95.99" y="362.02" width="2.94" height="2.94" transform="translate(-265.75 461.99) rotate(-90.16)"/><rect class="cls-30" x="98.95" y="364.96" width="2.94" height="2.94" transform="translate(-265.73 467.88) rotate(-90.16)"/><rect class="cls-30" x="101.9" y="367.89" width="2.94" height="2.94" transform="translate(-265.71 473.78) rotate(-90.16)"/><rect class="cls-31" x="104.55" y="418.29" width="2.94" height="2.94" transform="translate(-66.06 22.49) rotate(-9.24)"/><rect class="cls-31" x="107.93" y="420.72" width="2.94" height="2.94" transform="translate(-66.41 23.06) rotate(-9.24)"/><rect class="cls-31" x="102.12" y="421.67" width="2.94" height="2.94" transform="translate(-66.63 22.14) rotate(-9.24)"/><rect class="cls-31" x="126.11" y="425.66" width="2.94" height="2.94" transform="translate(-78.73 31.97) rotate(-10.94)"/><rect class="cls-31" x="129.56" y="427.99" width="2.94" height="2.94" transform="translate(-79.11 32.66) rotate(-10.94)"/><rect class="cls-31" x="123.78" y="429.11" width="2.94" height="2.94" transform="translate(-79.43 31.59) rotate(-10.94)"/><rect class="cls-31" x="97.55" y="442.8" width="2.94" height="2.94" transform="translate(-241.19 141.88) rotate(-35.8)"/><rect class="cls-31" x="101.66" y="443.47" width="2.94" height="2.94" transform="translate(-240.8 144.41) rotate(-35.8)"/><rect class="cls-31" x="96.88" y="446.91" width="2.94" height="2.94" transform="translate(-243.72 142.27) rotate(-35.8)"/><rect class="cls-31" x="120" y="448.83" width="2.94" height="2.94" transform="translate(-184.19 98.03) rotate(-25.85)"/><rect class="cls-31" x="123.93" y="450.2" width="2.94" height="2.94" transform="translate(-184.39 99.88) rotate(-25.85)"/><rect class="cls-31" x="118.63" y="452.76" width="2.94" height="2.94" transform="translate(-186.04 97.82) rotate(-25.85)"/><rect class="cls-31" x="109" y="472.84" width="2.94" height="2.94" transform="translate(-311.28 230.79) rotate(-46.89)"/><rect class="cls-31" x="113.16" y="472.7" width="2.94" height="2.94" transform="translate(-309.86 233.78) rotate(-46.89)"/><rect class="cls-31" x="109.14" y="477" width="2.94" height="2.94" transform="translate(-314.27 232.2) rotate(-46.89)"/><rect class="cls-31" x="140.63" y="457.25" width="2.94" height="2.94" transform="translate(-87.67 37.03) rotate(-11.37)"/><rect class="cls-31" x="144.09" y="459.56" width="2.94" height="2.94" transform="translate(-88.05 37.76) rotate(-11.37)"/><rect class="cls-31" x="138.32" y="460.72" width="2.94" height="2.94" transform="translate(-88.4 36.64) rotate(-11.37)"/><rect class="cls-27" x="71.45" y="381.8" width="2.94" height="2.94" transform="translate(-311.15 451.87) rotate(-89.35)"/><rect class="cls-27" x="74.42" y="378.89" width="2.94" height="2.94" transform="translate(-305.3 451.96) rotate(-89.35)"/><rect class="cls-27" x="74.36" y="384.78" width="2.94" height="2.94" transform="matrix(0.01, -1, 1, 0.01, -311.25, 457.72)"/><rect class="cls-27" x="86.16" y="381.8" width="2.94" height="2.94" transform="matrix(0.01, -1, 1, 0.01, -296.6, 466.58)"/><rect class="cls-27" x="89.14" y="378.89" width="2.94" height="2.94" transform="translate(-290.75 466.68) rotate(-89.35)"/><rect class="cls-27" x="89.07" y="384.78" width="2.94" height="2.94" transform="matrix(0.01, -1, 1, 0.01, -296.7, 472.43)"/><rect class="cls-27" x="100.88" y="381.8" width="2.94" height="2.94" transform="translate(-282.05 481.3) rotate(-89.35)"/><rect class="cls-27" x="103.86" y="378.89" width="2.94" height="2.94" transform="translate(-276.2 481.39) rotate(-89.35)"/><rect class="cls-27" x="103.79" y="384.78" width="2.94" height="2.94" transform="matrix(0.01, -1, 1, 0.01, -282.15, 487.15)"/><rect class="cls-27" x="115.6" y="381.8" width="2.94" height="2.94" transform="matrix(0.01, -1, 1, 0.01, -267.5, 496.01)"/><rect class="cls-27" x="118.57" y="378.89" width="2.94" height="2.94" transform="translate(-261.65 496.11) rotate(-89.35)"/><rect class="cls-27" x="118.51" y="384.78" width="2.94" height="2.94" transform="translate(-267.6 501.86) rotate(-89.35)"/><rect class="cls-32" x="73.79" y="342.83" width="2.94" height="2.94" transform="translate(-2.72 0.61) rotate(-0.45)"/><rect class="cls-32" x="76.76" y="345.75" width="2.94" height="2.94" transform="translate(-2.74 0.63) rotate(-0.45)"/><rect class="cls-32" x="70.87" y="345.79" width="2.94" height="2.94" transform="translate(-2.74 0.58) rotate(-0.45)"/><rect class="cls-32" x="117.94" y="342.83" width="2.94" height="2.94" transform="translate(-2.72 0.95) rotate(-0.45)"/><rect class="cls-32" x="120.91" y="345.75" width="2.94" height="2.94" transform="translate(-2.74 0.98) rotate(-0.45)"/><rect class="cls-32" x="115.02" y="345.79" width="2.94" height="2.94" transform="translate(-2.74 0.93) rotate(-0.45)"/><rect class="cls-32" x="73.79" y="364.9" width="2.94" height="2.94" transform="translate(-2.89 0.61) rotate(-0.45)"/><rect class="cls-32" x="76.76" y="367.82" width="2.94" height="2.94" transform="translate(-2.91 0.63) rotate(-0.45)"/><rect class="cls-32" x="70.87" y="367.87" width="2.94" height="2.94" transform="translate(-2.91 0.58) rotate(-0.45)"/><rect class="cls-32" x="117.94" y="364.9" width="2.94" height="2.94" transform="translate(-2.89 0.95) rotate(-0.45)"/><rect class="cls-32" x="120.91" y="367.82" width="2.94" height="2.94" transform="translate(-2.91 0.98) rotate(-0.45)"/><rect class="cls-32" x="115.02" y="367.87" width="2.94" height="2.94" transform="translate(-2.91 0.93) rotate(-0.45)"/><polyline class="cls-8" points="66.25 300.37 71 304.37 75.75 300.37 80.51 304.37 85.26 300.37 90.02 304.37 94.78 300.37 99.53 304.37 104.29 300.37 109.05 304.37 113.81 300.37 118.57 304.37 123.33 300.37 128.1 304.37"/><polyline class="cls-8" points="66.25 294.48 71 298.48 75.75 294.48 80.51 298.48 85.26 294.48 90.02 298.48 94.78 294.48 99.53 298.48 104.29 294.48 109.05 298.48 113.81 294.48 118.57 298.48 123.33 294.48 128.1 298.48"/><polyline class="cls-8" points="66.25 322.44 71 326.44 75.75 322.44 80.51 326.44 85.26 322.44 90.02 326.44 94.78 322.44 99.53 326.44 104.29 322.44 109.05 326.44 113.81 322.44 118.57 326.44 123.33 322.44 128.1 326.44"/><polyline class="cls-8" points="66.25 337.16 71 341.16 75.75 337.16 80.51 341.16 85.26 337.16 90.02 341.16 94.78 337.16 99.53 341.16 104.29 337.16 109.05 341.16 113.81 337.16 118.57 341.16 123.33 337.16 128.1 341.16"/><polyline class="cls-8" points="66.25 373.95 71 377.95 75.75 373.95 80.51 377.95 85.26 373.95 90.02 377.95 94.78 373.95 99.53 377.95 104.29 373.95 109.05 377.95 113.81 373.95 118.57 377.95 123.33 373.95 128.1 377.95"/><polyline class="cls-8" points="66.25 388.67 71 392.67 75.75 388.67 80.51 392.67 85.26 388.67 90.02 392.67 94.78 388.67 99.53 392.67 104.29 388.67 109.05 392.67 113.81 388.67 118.57 392.67 123.33 388.67 128.1 392.67"/><polyline class="cls-8" points="66.41 410.01 71.21 414.01 76 410.01 80.8 414.01 85.6 410.01 90.4 414.01 95.2 410.01 100 414.01 104.8 410.01 109.6 414.01 114.4 410.01 119.2 414.01 124.01 410.01 128.82 414.01"/></svg>