<svg width="40" height="40" viewBox="0 0 40 40" fill="none" xmlns="http://www.w3.org/2000/svg">
<path fill-rule="evenodd" clip-rule="evenodd" d="M25 6H15L15 10H25V6ZM15 4C13.8954 4 13 4.89543 13 6V10C13 11.1046 13.8954 12 15 12H25C26.1046 12 27 11.1046 27 10V6C27 4.89543 26.1046 4 25 4H15Z" fill="#302256"/>
<path fill-rule="evenodd" clip-rule="evenodd" d="M3.11033 11.3432L18.1833 22.8697C19.255 23.6892 20.7419 23.6925 21.8172 22.8779L36.9196 11.4367C36.9719 11.6154 37 11.8044 37 12V34C37 35.1046 36.1046 36 35 36H5C3.89543 36 3 35.1046 3 34V12C3 11.7699 3.03884 11.549 3.11033 11.3432ZM4.67961 10.0255C4.78392 10.0087 4.89094 10 5 10H35C35.1511 10 35.2984 10.0168 35.4399 10.0485L20.6095 21.2837C20.2511 21.5552 19.7554 21.5541 19.3982 21.2809L4.67961 10.0255Z" fill="#302256"/>
<path fill-rule="evenodd" clip-rule="evenodd" d="M4.67961 10.0255L19.3982 21.2809C19.7554 21.5541 20.2511 21.5552 20.6095 21.2837L35.4399 10.0485C35.2984 10.0168 35.1511 10 35 10H5C4.89094 10 4.78392 10.0087 4.67961 10.0255ZM10.5541 12L20.0085 19.2299L29.5519 12H10.5541ZM37 12C37 11.8044 36.9719 11.6154 36.9196 11.4367L21.8172 22.8779C21.6828 22.9797 21.542 23.0687 21.3963 23.145C20.3767 23.6789 19.121 23.5867 18.1833 22.8697L3.11033 11.3432C3.03884 11.549 3 11.7699 3 12V34C3 35.1046 3.89543 36 5 36H35C36.1046 36 37 35.1046 37 34V12ZM35 15.4L23.025 24.472C21.2327 25.8298 18.7545 25.8242 16.9684 24.4584L5 15.306L5 34H35V15.4Z" fill="#302256"/>
</svg>
