<svg width="40" height="40" viewBox="0 0 40 40" fill="none" xmlns="http://www.w3.org/2000/svg">
<path fill-rule="evenodd" clip-rule="evenodd" d="M35 12H5L5 34H35V12ZM5 10C3.89543 10 3 10.8954 3 12V34C3 35.1046 3.89543 36 5 36H35C36.1046 36 37 35.1046 37 34V12C37 10.8954 36.1046 10 35 10H5Z" fill="white"/>
<path fill-rule="evenodd" clip-rule="evenodd" d="M25 6H15L15 10H25V6ZM15 4C13.8954 4 13 4.89543 13 6V10C13 11.1046 13.8954 12 15 12H25C26.1046 12 27 11.1046 27 10V6C27 4.89543 26.1046 4 25 4H15Z" fill="white"/>
<path fill-rule="evenodd" clip-rule="evenodd" d="M18.2 22.9L3.40002 11.8L4.60002 10.2L19.4 21.3C19.7556 21.5667 20.2445 21.5667 20.6 21.3L35.4 10.2L36.6 11.8L21.8 22.9C20.7334 23.7 19.2667 23.7 18.2 22.9Z" fill="white"/>
</svg>
