<svg width="40" height="40" viewBox="0 0 40 40" fill="none" xmlns="http://www.w3.org/2000/svg">
<path fill-rule="evenodd" clip-rule="evenodd" d="M31.8766 5H7.87659V23H31.8766V5ZM7.87659 3C6.77202 3 5.87659 3.89543 5.87659 5V23C5.87659 24.1046 6.77202 25 7.87659 25H31.8766C32.9812 25 33.8766 24.1046 33.8766 23V5C33.8766 3.89543 32.9812 3 31.8766 3H7.87659Z" fill="white"/>
<path fill-rule="evenodd" clip-rule="evenodd" d="M13.3766 28C12.5482 28 11.8766 28.6716 11.8766 29.5C11.8766 30.3284 12.5482 31 13.3766 31H26.3766C27.205 31 27.8766 30.3284 27.8766 29.5C27.8766 28.6716 27.205 28 26.3766 28H13.3766Z" fill="white"/>
<path fill-rule="evenodd" clip-rule="evenodd" d="M32.5969 25L7.1562 25L3.00236 34H36.7507L32.5969 25ZM7.1562 23C6.3761 23 5.66719 23.4536 5.34028 24.1619L1.18644 33.1619C0.574788 34.4871 1.54278 36 3.00236 36H36.7507C38.2103 36 39.1783 34.4871 38.5666 33.1619L34.4128 24.1619C34.0859 23.4536 33.377 23 32.5969 23H7.1562Z" fill="white"/>
</svg>
