<svg width="40" height="40" viewBox="0 0 40 40" fill="none" xmlns="http://www.w3.org/2000/svg">
<path fill-rule="evenodd" clip-rule="evenodd" d="M31.875 5H7.875V23H31.875V5ZM7.875 3C6.77043 3 5.875 3.89543 5.875 5V23C5.875 24.1046 6.77043 25 7.875 25H31.875C32.9796 25 33.875 24.1046 33.875 23V5C33.875 3.89543 32.9796 3 31.875 3H7.875Z" fill="#302256"/>
<path d="M10.875 10C10.875 8.89543 11.7704 8 12.875 8H26.875C27.9796 8 28.875 8.89543 28.875 10V18C28.875 19.1046 27.9796 20 26.875 20H12.875C11.7704 20 10.875 19.1046 10.875 18V10Z" fill="#302256"/>
<path fill-rule="evenodd" clip-rule="evenodd" d="M26.875 10H12.875L12.875 18H26.875V10ZM12.875 8C11.7704 8 10.875 8.89543 10.875 10V18C10.875 19.1046 11.7704 20 12.875 20H26.875C27.9796 20 28.875 19.1046 28.875 18V10C28.875 8.89543 27.9796 8 26.875 8H12.875Z" fill="#302256"/>
<path fill-rule="evenodd" clip-rule="evenodd" d="M7.1562 23C6.3761 23 5.66719 23.4536 5.34028 24.1619L1.18644 33.1619C0.574788 34.4871 1.54278 36 3.00236 36H36.7507C38.2103 36 39.1783 34.4871 38.5666 33.1619L34.4128 24.1619C34.0859 23.4536 33.377 23 32.5969 23H7.1562ZM11.8765 29.5C11.8765 28.6716 12.5481 28 13.3765 28H26.3765C27.205 28 27.8765 28.6716 27.8765 29.5C27.8765 30.3284 27.205 31 26.3765 31H13.3765C12.5481 31 11.8765 30.3284 11.8765 29.5Z" fill="#302256"/>
<path fill-rule="evenodd" clip-rule="evenodd" d="M34.4128 24.1619C34.0859 23.4536 33.377 23 32.5969 23H7.1562C6.3761 23 5.66719 23.4536 5.34028 24.1619L1.18644 33.1619C0.574788 34.4871 1.54278 36 3.00236 36H36.7507C38.2103 36 39.1783 34.4871 38.5666 33.1619L34.4128 24.1619ZM7.1562 25L3.00236 34H36.7507L32.5969 25L7.1562 25ZM9.87654 29.5C9.87654 27.567 11.4435 26 13.3765 26H26.3765C28.3095 26 29.8765 27.567 29.8765 29.5C29.8765 31.433 28.3095 33 26.3765 33H13.3765C11.4435 33 9.87654 31.433 9.87654 29.5ZM13.3765 28C12.5481 28 11.8765 28.6716 11.8765 29.5C11.8765 30.3284 12.5481 31 13.3765 31H26.3765C27.205 31 27.8765 30.3284 27.8765 29.5C27.8765 28.6716 27.205 28 26.3765 28H13.3765Z" fill="#302256"/>
</svg>
