<svg width="40" height="40" viewBox="0 0 40 40" fill="none" xmlns="http://www.w3.org/2000/svg">
<path fill-rule="evenodd" clip-rule="evenodd" d="M9 22C10.1046 22 11 21.1046 11 20C11 18.8954 10.1046 18 9 18C7.89543 18 7 18.8954 7 20C7 21.1046 7.89543 22 9 22ZM9 24C11.2091 24 13 22.2091 13 20C13 17.7909 11.2091 16 9 16C6.79086 16 5 17.7909 5 20C5 22.2091 6.79086 24 9 24Z" fill="white"/>
<path fill-rule="evenodd" clip-rule="evenodd" d="M20 15C21.1046 15 22 14.1046 22 13C22 11.8954 21.1046 11 20 11C18.8954 11 18 11.8954 18 13C18 14.1046 18.8954 15 20 15ZM20 17C22.2091 17 24 15.2091 24 13C24 10.7909 22.2091 9 20 9C17.7909 9 16 10.7909 16 13C16 15.2091 17.7909 17 20 17Z" fill="white"/>
<path fill-rule="evenodd" clip-rule="evenodd" d="M31 22C32.1046 22 33 21.1046 33 20C33 18.8954 32.1046 18 31 18C29.8954 18 29 18.8954 29 20C29 21.1046 29.8954 22 31 22ZM31 24C33.2091 24 35 22.2091 35 20C35 17.7909 33.2091 16 31 16C28.7909 16 27 17.7909 27 20C27 22.2091 28.7909 24 31 24Z" fill="white"/>
<path fill-rule="evenodd" clip-rule="evenodd" d="M9 28C6.79086 28 5 29.7909 5 32H3C3 28.6863 5.68629 26 9 26C12.3137 26 15 28.6863 15 32H13C13 29.7909 11.2091 28 9 28Z" fill="white"/>
<path fill-rule="evenodd" clip-rule="evenodd" d="M20 21C17.7909 21 16 22.7909 16 25H14C14 21.6863 16.6863 19 20 19C23.3137 19 26 21.6863 26 25H24C24 22.7909 22.2091 21 20 21Z" fill="white"/>
<path fill-rule="evenodd" clip-rule="evenodd" d="M31 28C28.7909 28 27 29.7909 27 32H25C25 28.6863 27.6863 26 31 26C34.3137 26 37 28.6863 37 32H35C35 29.7909 33.2091 28 31 28Z" fill="white"/>
</svg>
