<svg width="40" height="40" viewBox="0 0 40 40" fill="none" xmlns="http://www.w3.org/2000/svg">
<path d="M13 20C13 22.2091 11.2091 24 9 24C6.79086 24 5 22.2091 5 20C5 17.7909 6.79086 16 9 16C11.2091 16 13 17.7909 13 20Z" fill="#302256"/>
<path fill-rule="evenodd" clip-rule="evenodd" d="M9 22C10.1046 22 11 21.1046 11 20C11 18.8954 10.1046 18 9 18C7.89543 18 7 18.8954 7 20C7 21.1046 7.89543 22 9 22ZM9 24C11.2091 24 13 22.2091 13 20C13 17.7909 11.2091 16 9 16C6.79086 16 5 17.7909 5 20C5 22.2091 6.79086 24 9 24Z" fill="#302256"/>
<path d="M24 13C24 15.2091 22.2091 17 20 17C17.7909 17 16 15.2091 16 13C16 10.7909 17.7909 9 20 9C22.2091 9 24 10.7909 24 13Z" fill="#302256"/>
<path fill-rule="evenodd" clip-rule="evenodd" d="M20 15C21.1046 15 22 14.1046 22 13C22 11.8954 21.1046 11 20 11C18.8954 11 18 11.8954 18 13C18 14.1046 18.8954 15 20 15ZM20 17C22.2091 17 24 15.2091 24 13C24 10.7909 22.2091 9 20 9C17.7909 9 16 10.7909 16 13C16 15.2091 17.7909 17 20 17Z" fill="#302256"/>
<path d="M35 20C35 22.2091 33.2091 24 31 24C28.7909 24 27 22.2091 27 20C27 17.7909 28.7909 16 31 16C33.2091 16 35 17.7909 35 20Z" fill="#302256"/>
<path fill-rule="evenodd" clip-rule="evenodd" d="M31 22C32.1046 22 33 21.1046 33 20C33 18.8954 32.1046 18 31 18C29.8954 18 29 18.8954 29 20C29 21.1046 29.8954 22 31 22ZM31 24C33.2091 24 35 22.2091 35 20C35 17.7909 33.2091 16 31 16C28.7909 16 27 17.7909 27 20C27 22.2091 28.7909 24 31 24Z" fill="#302256"/>
<path d="M9 26C5.68629 26 3 28.6863 3 32H15C15 28.6863 12.3137 26 9 26Z" fill="#302256"/>
<path fill-rule="evenodd" clip-rule="evenodd" d="M9 28C7.51943 28 6.22675 28.8044 5.53513 30H12.4649C11.7733 28.8044 10.4806 28 9 28ZM14.6586 30C13.8349 27.6696 11.6124 26 9 26C6.38756 26 4.16508 27.6696 3.34141 30C3.12031 30.6256 3 31.2987 3 32H15C15 31.2987 14.8797 30.6256 14.6586 30Z" fill="#302256"/>
<path d="M31 26C27.6863 26 25 28.6863 25 32H37C37 28.6863 34.3137 26 31 26Z" fill="#302256"/>
<path fill-rule="evenodd" clip-rule="evenodd" d="M31 28C29.5194 28 28.2267 28.8044 27.5351 30H34.4649C33.7733 28.8044 32.4806 28 31 28ZM36.6586 30C35.8349 27.6696 33.6124 26 31 26C28.3876 26 26.1651 27.6696 25.3414 30C25.1203 30.6256 25 31.2987 25 32H37C37 31.2987 36.8797 30.6256 36.6586 30Z" fill="#302256"/>
<path d="M20 19C16.6863 19 14 21.6863 14 25H26C26 21.6863 23.3137 19 20 19Z" fill="#302256"/>
<path fill-rule="evenodd" clip-rule="evenodd" d="M20 21C18.5194 21 17.2267 21.8044 16.5351 23H23.4649C22.7733 21.8044 21.4806 21 20 21ZM25.6586 23C24.8349 20.6696 22.6124 19 20 19C17.3876 19 15.1651 20.6696 14.3414 23C14.1203 23.6256 14 24.2987 14 25H26C26 24.2987 25.8797 23.6256 25.6586 23Z" fill="#302256"/>
</svg>
