<svg width="40" height="40" viewBox="0 0 40 40" fill="none" xmlns="http://www.w3.org/2000/svg">
<path fill-rule="evenodd" clip-rule="evenodd" d="M23 6H5L5 34H23V6ZM5 4C3.89543 4 3 4.89543 3 6V34C3 35.1046 3.89543 36 5 36H23C24.1046 36 25 35.1046 25 34V6C25 4.89543 24.1046 4 23 4H5Z" fill="white"/>
<path fill-rule="evenodd" clip-rule="evenodd" d="M9.5 11C8.67157 11 8 11.6716 8 12.5C8 13.3284 8.67157 14 9.5 14H18.5C19.3284 14 20 13.3284 20 12.5C20 11.6716 19.3284 11 18.5 11H9.5Z" fill="white"/>
<path fill-rule="evenodd" clip-rule="evenodd" d="M9.5 18C8.67157 18 8 18.6716 8 19.5C8 20.3284 8.67157 21 9.5 21H18.5C19.3284 21 20 20.3284 20 19.5C20 18.6716 19.3284 18 18.5 18H9.5Z" fill="white"/>
<path fill-rule="evenodd" clip-rule="evenodd" d="M9.5 25C8.67157 25 8 25.6716 8 26.5C8 27.3284 8.67157 28 9.5 28H18.5C19.3284 28 20 27.3284 20 26.5C20 25.6716 19.3284 25 18.5 25H9.5Z" fill="white"/>
<path fill-rule="evenodd" clip-rule="evenodd" d="M35 26.4689L35 11L31 11L31 26.4689L33 29.9689L35 26.4689ZM37 11L37 26.4689C37 26.8169 36.9092 27.159 36.7365 27.4611L34.7365 30.9611C33.9687 32.3048 32.0313 32.3048 31.2635 30.9611L29.2635 27.4611C29.0908 27.159 29 26.8169 29 26.4689L29 11C29 9.89543 29.8954 9 31 9L35 9C36.1046 9 37 9.89543 37 11Z" fill="white"/>
</svg>
