<svg width="40" height="40" viewBox="0 0 40 40" fill="none" xmlns="http://www.w3.org/2000/svg">
<path fill-rule="evenodd" clip-rule="evenodd" d="M5 4C3.89543 4 3 4.89543 3 6V34C3 35.1046 3.89543 36 5 36H23C24.1046 36 25 35.1046 25 34V6C25 4.89543 24.1046 4 23 4H5ZM8 12.9412C8 12.1615 8.63207 11.5294 9.41177 11.5294H18.5882C19.3679 11.5294 20 12.1615 20 12.9412C20 13.7209 19.3679 14.3529 18.5882 14.3529H9.41177C8.63207 14.3529 8 13.7209 8 12.9412ZM9.41177 18.1176C8.63207 18.1176 8 18.7497 8 19.5294C8 20.3091 8.63207 20.9412 9.41177 20.9412H18.5882C19.3679 20.9412 20 20.3091 20 19.5294C20 18.7497 19.3679 18.1176 18.5882 18.1176H9.41177ZM8 26.1176C8 25.338 8.63207 24.7059 9.41177 24.7059H18.5882C19.3679 24.7059 20 25.338 20 26.1176C20 26.8973 19.3679 27.5294 18.5882 27.5294H9.41177C8.63207 27.5294 8 26.8973 8 26.1176Z" fill="#302256"/>
<path fill-rule="evenodd" clip-rule="evenodd" d="M5 6V34H23V6H5ZM6 12.9412C6 11.0569 7.5275 9.52941 9.41177 9.52941H18.5882C20.4725 9.52941 22 11.0569 22 12.9412C22 14.517 20.9316 15.8433 19.4797 16.2353C20.9316 16.6273 22 17.9536 22 19.5294C22 21.1052 20.9316 22.4316 19.4797 22.8235C20.9316 23.2155 22 24.5418 22 26.1176C22 28.0019 20.4725 29.5294 18.5882 29.5294H9.41177C7.5275 29.5294 6 28.0019 6 26.1176C6 24.5418 7.06836 23.2155 8.52029 22.8235C7.06836 22.4316 6 21.1052 6 19.5294C6 17.9536 7.06836 16.6273 8.52029 16.2353C7.06836 15.8433 6 14.517 6 12.9412ZM3 6C3 4.89543 3.89543 4 5 4H23C24.1046 4 25 4.89543 25 6V34C25 35.1046 24.1046 36 23 36H5C3.89543 36 3 35.1046 3 34V6ZM9.41177 11.5294C8.63207 11.5294 8 12.1615 8 12.9412C8 13.7209 8.63207 14.3529 9.41177 14.3529H18.5882C19.3679 14.3529 20 13.7209 20 12.9412C20 12.1615 19.3679 11.5294 18.5882 11.5294H9.41177ZM8 19.5294C8 18.7497 8.63207 18.1176 9.41177 18.1176H18.5882C19.3679 18.1176 20 18.7497 20 19.5294C20 20.3091 19.3679 20.9412 18.5882 20.9412H9.41177C8.63207 20.9412 8 20.3091 8 19.5294ZM9.41177 24.7059C8.63207 24.7059 8 25.338 8 26.1176C8 26.8973 8.63207 27.5294 9.41177 27.5294H18.5882C19.3679 27.5294 20 26.8973 20 26.1176C20 25.338 19.3679 24.7059 18.5882 24.7059H9.41177Z" fill="#302256"/>
<path d="M37 26.4689L37 11C37 9.89543 36.1046 9 35 9L31 9C29.8954 9 29 9.89543 29 11L29 26.4689C29 26.8169 29.0908 27.159 29.2635 27.4611L31.2635 30.9611C32.0313 32.3048 33.9687 32.3048 34.7365 30.9611L36.7365 27.4611C36.9092 27.159 37 26.8169 37 26.4689Z" fill="#302256"/>
<path fill-rule="evenodd" clip-rule="evenodd" d="M35 26.4689L35 11L31 11L31 26.4689L33 29.9689L35 26.4689ZM37 11L37 26.4689C37 26.8169 36.9092 27.159 36.7365 27.4611L34.7365 30.9611C33.9687 32.3048 32.0313 32.3048 31.2635 30.9611L29.2635 27.4611C29.0908 27.159 29 26.8169 29 26.4689L29 11C29 9.89543 29.8954 9 31 9L35 9C36.1046 9 37 9.89543 37 11Z" fill="#302256"/>
</svg>
