<svg width="40" height="40" viewBox="0 0 40 40" fill="none" xmlns="http://www.w3.org/2000/svg">
<path fill-rule="evenodd" clip-rule="evenodd" d="M13 20H10L10 29H13V20ZM10 18C8.89543 18 8 18.8954 8 20V29C8 30.1046 8.89543 31 10 31H13C14.1046 31 15 30.1046 15 29V20C15 18.8954 14.1046 18 13 18H10Z" fill="white"/>
<path fill-rule="evenodd" clip-rule="evenodd" d="M24 4H21L21 29H24V4ZM21 2C19.8954 2 19 2.89543 19 4V29C19 30.1046 19.8954 31 21 31H24C25.1046 31 26 30.1046 26 29V4C26 2.89543 25.1046 2 24 2H21Z" fill="white"/>
<path fill-rule="evenodd" clip-rule="evenodd" d="M35 10H32L32 29H35V10ZM32 8C30.8954 8 30 8.89543 30 10V29C30 30.1046 30.8954 31 32 31H35C36.1046 31 37 30.1046 37 29V10C37 8.89543 36.1046 8 35 8H32Z" fill="white"/>
<path fill-rule="evenodd" clip-rule="evenodd" d="M4 2V34C4 34.5523 4.44772 35 5 35H37V37H5C3.34315 37 2 35.6569 2 34V2H4Z" fill="white"/>
</svg>
