<svg width="40" height="40" viewBox="0 0 40 40" fill="none" xmlns="http://www.w3.org/2000/svg">
<path d="M8 21C8 19.8954 8.89543 19 10 19H13C14.1046 19 15 19.8954 15 21V30C15 31.1046 14.1046 32 13 32H10C8.89543 32 8 31.1046 8 30V21Z" fill="#302256"/>
<path fill-rule="evenodd" clip-rule="evenodd" d="M13 21H10L10 30H13V21ZM10 19C8.89543 19 8 19.8954 8 21V30C8 31.1046 8.89543 32 10 32H13C14.1046 32 15 31.1046 15 30V21C15 19.8954 14.1046 19 13 19H10Z" fill="#302256"/>
<path d="M19 5C19 3.89543 19.8954 3 21 3H24C25.1046 3 26 3.89543 26 5V30C26 31.1046 25.1046 32 24 32H21C19.8954 32 19 31.1046 19 30V5Z" fill="#302256"/>
<path fill-rule="evenodd" clip-rule="evenodd" d="M24 5H21L21 30H24V5ZM21 3C19.8954 3 19 3.89543 19 5V30C19 31.1046 19.8954 32 21 32H24C25.1046 32 26 31.1046 26 30V5C26 3.89543 25.1046 3 24 3H21Z" fill="#302256"/>
<path d="M30 11C30 9.89543 30.8954 9 32 9H35C36.1046 9 37 9.89543 37 11V30C37 31.1046 36.1046 32 35 32H32C30.8954 32 30 31.1046 30 30V11Z" fill="#302256"/>
<path fill-rule="evenodd" clip-rule="evenodd" d="M35 11H32L32 30H35V11ZM32 9C30.8954 9 30 9.89543 30 11V30C30 31.1046 30.8954 32 32 32H35C36.1046 32 37 31.1046 37 30V11C37 9.89543 36.1046 9 35 9H32Z" fill="#302256"/>
<path fill-rule="evenodd" clip-rule="evenodd" d="M4 3V35C4 35.5523 4.44772 36 5 36H37V38H5C3.34315 38 2 36.6569 2 35V3H4Z" fill="#302256"/>
</svg>
