<?xml version="1.0" encoding="utf-8"?>
<!-- Generator: Adobe Illustrator 24.1.0, SVG Export Plug-In . SVG Version: 6.00 Build 0)  -->
<svg version="1.1" id="Layer_1" xmlns="http://www.w3.org/2000/svg" xmlns:xlink="http://www.w3.org/1999/xlink" x="0px" y="0px"
	 viewBox="0 0 245 245" style="enable-background:new 0 0 245 245;" xml:space="preserve">
<style type="text/css">
	.st0{fill:none;stroke:#5D1DFF;stroke-width:3.3333;stroke-miterlimit:10;}
</style>
<g id="Layer_2_1_">
	<g id="Layer_1-2">
		<path class="st0" d="M177.1,206.3c-33.2,21.6-75.9,21.6-109.1,0c13.1-23.3,32.7-38.2,54.5-38.2S164,183,177.1,206.3z"/>
		<path class="st0" d="M222.5,122.5c0,55.2-44.8,100-100,100s-100-44.8-100-100s44.8-100,100-100c55.1-0.1,99.9,44.4,100,99.5
			C222.5,122.2,222.5,122.3,222.5,122.5z"/>
		<path class="st0" d="M156.8,122.8c0,19.7-14.6,40.3-34.3,40.3s-34.3-20.6-34.3-40.3c0-3.3,0.4-6.5,1.3-9.7h66
			C156.4,116.3,156.8,119.6,156.8,122.8z"/>
		<path class="st0" d="M113.3,148.3c2.1,5.1,8,7.5,13.1,5.3c2.3-1,4.3-2.9,5.3-5.2"/>
		<path class="st0" d="M142.9,128.8c-3.9-3.9-10.3-3.9-14.1,0l0,0"/>
		<path class="st0" d="M116.2,128.8c-3.9-3.9-10.3-3.9-14.1,0l0,0"/>
		<path class="st0" d="M85.8,103.8c0-18.7,0-33.9,36.7-33.9s36.7,15.2,36.7,33.9"/>
		<path class="st0" d="M77,103.9h91.1c1.9,0,3.3,1.5,3.3,3.3v2.6c0,1.9-1.5,3.3-3.3,3.3H77c-1.9,0-3.3-1.5-3.3-3.3v-2.6
			C73.6,105.4,75.1,103.9,77,103.9z"/>
		<path class="st0" d="M122.9,141.6c-2.5,4.4,6.5,7.6,11.1,6.7c4.7-0.9,7.7-5.5,6.8-10.2c0,0,0,0,0-0.1c0,0-5.3,9.2-9.3,5.6
			C128.2,140.6,123.9,139.9,122.9,141.6z"/>
		<path class="st0" d="M122.1,141.6c2.5,4.4-6.5,7.6-11.1,6.7c-4.7-0.9-7.7-5.5-6.8-10.2c0,0,0,0,0-0.1c0,0,5.3,9.2,9.3,5.6
			C116.8,140.6,121.1,139.9,122.1,141.6z"/>
		<circle class="st0" cx="123" cy="174.9" r="1.7"/>
		<circle class="st0" cx="123" cy="188.2" r="1.7"/>
		<circle class="st0" cx="123" cy="201.6" r="1.7"/>
		<circle class="st0" cx="123" cy="214.9" r="1.7"/>
		<path class="st0" d="M113.3,222.1c-16.2-1.5-31.7-6.9-45.3-15.8c9.4-16.7,22.1-29.1,36.7-34.8L113.3,222.1z"/>
		<path class="st0" d="M177.1,206.3c-13.6,8.9-29.1,14.3-45.3,15.8l8.7-50.6C155,177.2,167.7,189.6,177.1,206.3z"/>
	</g>
</g>
</svg>
