<svg xmlns="http://www.w3.org/2000/svg" viewBox="0 0 203.33 203.33"><defs><style>.cls-1{fill:none;stroke:#5d1dff;stroke-miterlimit:10;stroke-width:3.33px;}</style></defs><g id="Layer_2" data-name="Layer 2"><g id="Layer_1-2" data-name="Layer 1"><g id="Layer_2-2" data-name="Layer 2"><g id="Layer_1-2-2" data-name="Layer 1-2"><path class="cls-1" d="M156.27,185.47a99.94,99.94,0,0,1-109.1,0c13.1-23.3,32.7-38.2,54.5-38.2S143.17,162.17,156.27,185.47Z"/><path class="cls-1" d="M201.67,101.67a99.75,99.75,0,1,1,0-.5Z"/><path class="cls-1" d="M136,102c0,19.7-14.6,40.3-34.3,40.3s-34.3-20.6-34.3-40.3a35.44,35.44,0,0,1,1.3-9.7h66A36,36,0,0,1,136,102Z"/><path class="cls-1" d="M92.47,127.47a9.91,9.91,0,0,0,13.1,5.3,10.34,10.34,0,0,0,5.3-5.2"/><path class="cls-1" d="M122.07,108a10,10,0,0,0-14.1,0h0"/><path class="cls-1" d="M95.37,108a10,10,0,0,0-14.1,0h0"/><path class="cls-1" d="M65,83c0-18.7,0-33.9,36.7-33.9s36.7,15.2,36.7,33.9"/><path class="cls-1" d="M56.17,83.07h91.1a3.27,3.27,0,0,1,3.3,3.3V89a3.27,3.27,0,0,1-3.3,3.3H56.17a3.27,3.27,0,0,1-3.3-3.3v-2.6A3.2,3.2,0,0,1,56.17,83.07Z"/><path class="cls-1" d="M102.07,120.77c-2.5,4.4,6.5,7.6,11.1,6.7a8.67,8.67,0,0,0,6.8-10.2v-.1s-5.3,9.2-9.3,5.6C107.37,119.77,103.07,119.07,102.07,120.77Z"/><path class="cls-1" d="M101.27,120.77c2.5,4.4-6.5,7.6-11.1,6.7a8.67,8.67,0,0,1-6.8-10.2v-.1s5.3,9.2,9.3,5.6C96,119.77,100.27,119.07,101.27,120.77Z"/><circle class="cls-1" cx="102.17" cy="154.07" r="1.7"/><circle class="cls-1" cx="102.17" cy="167.37" r="1.7"/><circle class="cls-1" cx="102.17" cy="180.77" r="1.7"/><circle class="cls-1" cx="102.17" cy="194.07" r="1.7"/><path class="cls-1" d="M92.47,201.27a99.29,99.29,0,0,1-45.3-15.8c9.4-16.7,22.1-29.1,36.7-34.8Z"/><path class="cls-1" d="M156.27,185.47a99.29,99.29,0,0,1-45.3,15.8l8.7-50.6C134.17,156.37,146.87,168.77,156.27,185.47Z"/></g></g></g></g></svg>