<?xml version="1.0" encoding="utf-8"?>
<!-- Generator: Adobe Illustrator 24.1.0, SVG Export Plug-In . SVG Version: 6.00 Build 0)  -->
<svg version="1.1" id="Layer_1" xmlns="http://www.w3.org/2000/svg" xmlns:xlink="http://www.w3.org/1999/xlink" x="0px" y="0px"
	 viewBox="0 0 305 305" style="enable-background:new 0 0 305 305;" xml:space="preserve">
<style type="text/css">
	.st0{fill:none;stroke:#5D1DFF;stroke-width:5;stroke-miterlimit:10;}
</style>
<g id="Layer_2_1_">
	<g id="Layer_1-2">
		<path class="st0" d="M234.4,278.2c-49.8,32.4-113.9,32.4-163.7,0c19.6-35,49-57.3,81.8-57.3S214.8,243.2,234.4,278.2z"/>
		<path class="st0" d="M302.5,152.5c0,82.8-67.2,150-150,150s-150-67.2-150-150s67.2-150,150-150c82.6-0.2,149.8,66.6,150,149.2
			C302.5,152,302.5,152.2,302.5,152.5z"/>
		<path class="st0" d="M203.9,153c0,29.5-21.9,60.4-51.4,60.4s-51.4-30.9-51.4-60.4c0-4.9,0.6-9.8,1.9-14.5h99
			C203.3,143.2,203.9,148.1,203.9,153z"/>
		<path class="st0" d="M138.7,191.2c3.2,7.6,12,11.2,19.6,8c3.5-1.5,6.4-4.3,7.9-7.8"/>
		<path class="st0" d="M183.1,161.9c-5.9-5.9-15.4-5.9-21.2,0c0,0,0,0,0,0"/>
		<path class="st0" d="M143.1,161.9c-5.9-5.9-15.4-5.9-21.2,0c0,0,0,0,0,0"/>
		<path class="st0" d="M97.5,124.4c0-28.1,0-50.9,55-50.9s55,22.8,55,50.9"/>
		<path class="st0" d="M84.2,124.6h136.7c2.8,0,5,2.2,5,5v3.9c0,2.8-2.2,5-5,5H84.2c-2.8,0-5-2.2-5-5v-3.9
			C79.2,126.8,81.4,124.6,84.2,124.6z"/>
		<path class="st0" d="M153.1,181.2c-3.7,6.6,9.7,11.4,16.7,10c7-1.4,11.6-8.3,10.2-15.3c0,0,0,0,0-0.1c0,0-8,13.8-13.9,8.4
			C161.1,179.6,154.6,178.6,153.1,181.2z"/>
		<path class="st0" d="M151.9,181.2c3.7,6.6-9.7,11.4-16.7,10c-7-1.4-11.6-8.3-10.2-15.3c0,0,0,0,0-0.1c0,0,8,13.8,13.9,8.4
			C143.9,179.6,150.4,178.6,151.9,181.2z"/>
		<circle class="st0" cx="153.3" cy="231.1" r="2.5"/>
		<circle class="st0" cx="153.3" cy="251.1" r="2.5"/>
		<circle class="st0" cx="153.3" cy="271.1" r="2.5"/>
		<circle class="st0" cx="153.3" cy="291.1" r="2.5"/>
		<path class="st0" d="M138.7,301.9c-24.3-2.2-47.6-10.3-68-23.7c14.1-25.1,33.2-43.7,55-52.2L138.7,301.9z"/>
		<path class="st0" d="M234.4,278.2c-20.4,13.3-43.7,21.5-68,23.7l13-75.9C201.2,234.5,220.3,253.1,234.4,278.2z"/>
	</g>
</g>
</svg>
