<?xml version="1.0" encoding="utf-8"?>
<!-- Generator: Adobe Illustrator 24.1.0, SVG Export Plug-In . SVG Version: 6.00 Build 0)  -->
<svg version="1.1" id="Layer_1" xmlns="http://www.w3.org/2000/svg" xmlns:xlink="http://www.w3.org/1999/xlink" x="0px" y="0px"
	 viewBox="0 0 245 245" style="enable-background:new 0 0 245 245;" xml:space="preserve">
<style type="text/css">
	.st0{fill:none;stroke:#F15622;stroke-width:3.3333;stroke-miterlimit:10;}
	.st1{fill:none;stroke:#F15622;stroke-width:3.3333;stroke-linecap:round;stroke-linejoin:round;}
	.st2{fill:none;stroke:#F15622;stroke-width:3.3333;stroke-linejoin:round;}
</style>
<g id="Layer_2_1_">
	<g id="Layer_1-2">
		<path class="st0" d="M177.1,206.3c-33.2,21.6-76,21.6-109.1,0c13.1-23.3,32.7-38.2,54.6-38.2S164,182.9,177.1,206.3z"/>
		<path class="st0" d="M222.5,122.5c0,55.2-44.8,100-100,100s-100-44.8-100-100s44.8-100,100-100c55.1-0.1,99.9,44.4,100,99.5
			C222.5,122.2,222.5,122.3,222.5,122.5z"/>
		<path class="st0" d="M156.8,122.8c-0.1,7-1.8,13.9-5,20.1c-5.9,11.5-16.5,20.2-29.3,20.2s-23.4-8.7-29.3-20.2
			c-3.2-6.2-4.9-13.1-5-20.1c0-4.6,0.8-9.2,2.5-13.5h63.5C155.9,113.6,156.8,118.2,156.8,122.8z"/>
		<path class="st1" d="M151.8,142.9c3.2-6.2,4.9-13.1,5-20.1c0-4.6-0.8-9.2-2.5-13.5H90.8c-1.7,4.3-2.6,8.9-2.5,13.5
			c0.1,7,1.8,13.9,5,20.1H63.1c0-43.9,26.6-79.6,59.4-79.6s59.4,35.6,59.4,79.6H151.8z"/>
		<line class="st2" x1="122.8" y1="109.3" x2="122.2" y2="109.3"/>
		<path class="st0" d="M112.5,144.4c0,5.5,4.5,10,10,10s10-4.5,10-10"/>
		<path class="st0" d="M142.9,128.8c-3.9-3.9-10.2-3.9-14.1,0l0,0"/>
		<path class="st0" d="M116.2,128.8c-3.9-3.9-10.2-3.9-14.1,0l0,0"/>
		<circle class="st0" cx="122.5" cy="181.4" r="3.3"/>
		<circle class="st0" cx="122.5" cy="198.1" r="3.3"/>
		<circle class="st0" cx="122.5" cy="214.8" r="3.3"/>
	</g>
</g>
</svg>
