<svg xmlns="http://www.w3.org/2000/svg" viewBox="0 0 305 305"><defs><style>.cls-1{fill:none;stroke:#5d1dff;stroke-miterlimit:10;stroke-width:5px;}</style></defs><g id="Layer_2" data-name="Layer 2"><g id="Layer_1-2" data-name="Layer 1"><path class="cls-1" d="M234.35,278.21a150,150,0,0,1-163.7,0c19.59-35,49-57.32,81.85-57.32S214.77,243.17,234.35,278.21Z"/><path class="cls-1" d="M302.5,152.5a150,150,0,1,1-150-150A149.61,149.61,0,0,1,302.5,152.5Z"/><path class="cls-1" d="M203.89,153a63.82,63.82,0,0,1-2,15.8,64.65,64.65,0,0,1-2.16,6.89c-.22.61-.46,1.22-.7,1.83l-.06.15q-.37.92-.78,1.83c-.27.63-.56,1.25-.85,1.86s-.58,1.18-.88,1.77a.25.25,0,0,1,0,.07c-.22.44-.45.88-.7,1.32s-.39.73-.6,1.09l-.27.47c-.25.44-.5.88-.77,1.31l-.75,1.2-.31.48q-.42.66-.87,1.29a6.18,6.18,0,0,1-.36.53q-.52.77-1.08,1.5a.39.39,0,0,1-.08.1c-.41.55-.83,1.1-1.26,1.63a.18.18,0,0,1-.05.07c-.4.51-.82,1-1.23,1.49l-.27.31c-.42.49-.84,1-1.27,1.42s-.94,1-1.42,1.49L185,199c-8.71,8.78-19.93,14.43-32.54,14.43S128.68,207.74,120,199l-.06-.06c-.48-.48-1-1-1.41-1.48s-1-1-1.42-1.6-.74-.87-1.1-1.31c-.18-.21-.35-.43-.52-.65s-.55-.7-.82-1.06l-.51-.68c-.24-.32-.47-.65-.7-1s-.49-.69-.72-1-.32-.47-.47-.71-.45-.68-.66-1-.42-.65-.61-1-.41-.67-.6-1-.32-.55-.47-.83-.39-.68-.57-1-.39-.71-.58-1.08c-.12-.21-.23-.43-.33-.65-.24-.47-.48-.94-.7-1.42a2.72,2.72,0,0,1-.16-.35c-.28-.58-.54-1.16-.8-1.74s-.52-1.21-.76-1.82-.4-1-.58-1.51a65.17,65.17,0,0,1-2.24-7.07,63.94,63.94,0,0,1-2-15.88c0-.23,0-.46,0-.69a60.6,60.6,0,0,0,11.37,1.08c27.33,0,52.2-18.44,64.16-46.22l.07,0c.46.23.91.46,1.36.71l.19.1c.46.25.91.51,1.36.78l.05,0c.49.29,1,.59,1.46.9s.92.6,1.37.92.81.56,1.2.85c.22.16.45.33.66.5l1,.74c.35.28.69.56,1,.86.6.5,1.18,1,1.75,1.56.27.25.55.51.81.78.9.88,1.76,1.79,2.58,2.74.34.38.67.77,1,1.17,0,0,0,0,0,0,.32.4.64.8,1,1.21s.46.6.67.91.38.51.55.76c.33.47.65.94,1,1.42s.48.75.71,1.14c.33.54.65,1.08,1,1.63s.49.88.72,1.33c.08.15.16.31.23.46q.33.65.63,1.29c.21.45.41.89.61,1.34l.18.41c.2.49.4,1,.59,1.47s.33.88.49,1.32c.08.21.15.42.22.64.14.4.27.79.4,1.19.22.7.43,1.41.62,2.13.13.5.26,1,.38,1.52s.26,1.12.37,1.68a.51.51,0,0,1,0,.17c.12.57.23,1.14.32,1.71s.16,1,.22,1.46q.06.33.09.66c.07.52.13,1,.18,1.57s.1,1.06.14,1.6c0,.2,0,.4,0,.61,0,.41,0,.82.05,1.23,0,.25,0,.51,0,.76C203.88,152,203.89,152.5,203.89,153Z"/><path class="cls-1" d="M223.89,143a83.84,83.84,0,0,1-2.66,20.76,87.6,87.6,0,0,1-12.48,27.83A148.25,148.25,0,0,1,185,199l.06-.06c.49-.48,1-1,1.42-1.49s.87-.94,1.27-1.42l.27-.31c.43-.49.84-1,1.23-1.49a.18.18,0,0,0,.05-.07c.44-.54.86-1.08,1.26-1.63a.39.39,0,0,0,.08-.1q.57-.73,1.08-1.5a6.18,6.18,0,0,0,.36-.53c.31-.43.59-.86.87-1.29l.31-.48c.26-.39.51-.8.75-1.2s.52-.87.77-1.31l.27-.47c.21-.36.41-.72.6-1.09s.48-.88.7-1.32a.25.25,0,0,0,0-.07c.3-.58.6-1.17.88-1.77s.58-1.23.85-1.86.53-1.21.78-1.83l.06-.15c.24-.61.48-1.22.7-1.83a64.65,64.65,0,0,0,2.16-6.89,63.82,63.82,0,0,0,2-15.8c0-.5,0-1,0-1.49,0-.26,0-.51,0-.76,0-.41,0-.82-.05-1.23,0-.21,0-.41,0-.61,0-.54-.09-1.07-.14-1.6s-.11-1.05-.18-1.57q0-.33-.09-.66c-.06-.49-.14-1-.22-1.46s-.2-1.15-.32-1.71a.51.51,0,0,0,0-.17c-.11-.57-.23-1.13-.37-1.68s-.24-1-.38-1.52c-.19-.72-.4-1.43-.62-2.13-.13-.4-.26-.8-.4-1.19-.07-.22-.14-.43-.22-.64-.15-.44-.32-.88-.49-1.32s-.39-1-.59-1.47l-.18-.41c-.2-.45-.4-.9-.61-1.34s-.41-.87-.63-1.29c-.07-.15-.15-.31-.23-.46-.23-.45-.47-.89-.72-1.33s-.62-1.09-1-1.63c-.23-.38-.47-.76-.71-1.14s-.63-1-1-1.42c-.18-.26-.36-.51-.55-.76s-.44-.61-.67-.91-.63-.81-1-1.21c0,0,0,0,0,0l-1-1.17c-.82-1-1.68-1.86-2.58-2.74q-.39-.41-.81-.78c-.57-.54-1.15-1.06-1.75-1.56-.34-.29-.68-.58-1-.86l-1-.74c-.21-.17-.44-.34-.66-.5-.39-.29-.79-.58-1.2-.85s-.91-.63-1.37-.92-1-.61-1.46-.9l-.05,0c-.45-.27-.9-.53-1.36-.78l-.19-.1c-.45-.25-.9-.49-1.36-.71l-.07,0c-12,27.78-36.83,46.22-64.16,46.22a60.6,60.6,0,0,1-11.37-1.08c0,.23,0,.46,0,.69a63.94,63.94,0,0,0,2,15.88,65.17,65.17,0,0,0,2.24,7.07c.18.51.38,1,.58,1.51s.5,1.22.76,1.82.52,1.16.8,1.74a2.72,2.72,0,0,0,.16.35c.22.48.45.95.7,1.42.1.22.21.44.33.65.18.36.37.72.58,1.08s.37.7.57,1,.3.56.47.83.39.68.6,1,.4.66.61,1,.43.68.66,1,.31.48.47.71.47.7.72,1,.46.66.7,1l.51.68c.27.36.54.71.82,1.06l.52.65c.35.44.71.88,1.1,1.31s.93,1.08,1.42,1.6.93,1,1.41,1.48l.06.06a148.45,148.45,0,0,1-23.7-7.37,87.86,87.86,0,0,1-12.47-27.74,84.52,84.52,0,0,1-2.65-19c0-.63,0-1.25,0-1.88,0-40.7,30.68-71.39,71.38-71.39a74.12,74.12,0,0,1,31.21,6.69C207.9,89.47,223.89,113.63,223.89,143Z"/><circle class="cls-1" cx="152.5" cy="245.6" r="5"/><circle class="cls-1" cx="166.85" cy="243.07" r="5"/><circle class="cls-1" cx="179.48" cy="235.78" r="5"/><circle class="cls-1" cx="188.85" cy="224.61" r="5"/><circle class="cls-1" cx="116.15" cy="224.61" r="5"/><circle class="cls-1" cx="125.52" cy="235.78" r="5"/><circle class="cls-1" cx="138.15" cy="243.07" r="5"/><path class="cls-1" d="M137.5,184.14a15,15,0,0,0,30,0"/><path class="cls-1" d="M183.11,160.64a15,15,0,0,0-21.22,0"/><path class="cls-1" d="M143.11,160.64a15,15,0,0,0-21.22,0"/></g></g></svg>