<svg xmlns="http://www.w3.org/2000/svg" viewBox="0 0 203.33 203.33"><defs><style>.cls-1,.cls-2{fill:none;stroke:#ffaf00;stroke-width:3.33px;}.cls-1{stroke-miterlimit:10;}.cls-2{stroke-linecap:round;stroke-linejoin:round;}</style></defs><g id="Layer_2" data-name="Layer 2"><g id="Layer_1-2" data-name="Layer 1"><g id="Layer_2-2" data-name="Layer 2"><g id="Layer_1-2-2" data-name="Layer 1-2"><path class="cls-1" d="M156.27,185.47a99.94,99.94,0,0,1-109.1,0c13.1-23.3,32.7-38.2,54.6-38.2S143.17,162.07,156.27,185.47Z"/><path class="cls-1" d="M201.67,101.67a99.75,99.75,0,1,1,0-.5Z"/><path class="cls-1" d="M67.37,102c0,19.7,14.6,40.3,34.3,40.3S136,121.67,136,102s-14.6-34.3-34.3-34.3S67.37,82.37,67.37,102Z"/><path class="cls-2" d="M163.37,75a3,3,0,0,0,1.4-4,3.16,3.16,0,0,0-1.4-1.4,3.05,3.05,0,0,0,1-4.1,2.29,2.29,0,0,0-1.5-1.2,2.94,2.94,0,0,0,.7-4.2,3,3,0,0,0-1.7-1.2,3,3,0,0,0,.3-4.2,2.7,2.7,0,0,0-1.7-1,3,3,0,0,0-1.8-5,3,3,0,0,0-2.2-4.9,3,3,0,0,0-.8-4.2,2.9,2.9,0,0,0-1.8-.5,3.06,3.06,0,0,0-1.1-4.1,2.82,2.82,0,0,0-2-.4,3,3,0,0,0-1.5-4,3.13,3.13,0,0,0-1.9-.2,3,3,0,0,0-1.9-3.8,3.4,3.4,0,0,0-2,0,3,3,0,0,0-2.3-3.6,2.75,2.75,0,0,0-1.8.2,3,3,0,0,0-2.5-3.4,3.08,3.08,0,0,0-1.9.3,3,3,0,0,0-2.8-3.2,2.73,2.73,0,0,0-1.8.5,2.86,2.86,0,0,0-3-2.9,2.41,2.41,0,0,0-1.8.7,3.1,3.1,0,0,0-3.3-2.7,3.7,3.7,0,0,0-1.8.8,3,3,0,0,0-3.5-2.4,2.7,2.7,0,0,0-1.7,1,3,3,0,0,0-3.7-2.1,3.09,3.09,0,0,0-1.6,1.1,3,3,0,0,0-3.9-1.7,3.49,3.49,0,0,0-1.5,1.2,3,3,0,0,0-4-1.4,3.16,3.16,0,0,0-1.4,1.4,3.05,3.05,0,0,0-4.1-1,2.29,2.29,0,0,0-1.2,1.5,2.94,2.94,0,0,0-4.2-.7,3,3,0,0,0-1.2,1.7,3,3,0,0,0-4.2-.3,2.7,2.7,0,0,0-1,1.7,3,3,0,0,0-4.2.1,2.5,2.5,0,0,0-.8,1.8,3,3,0,0,0-4.9,2.2,3,3,0,0,0-4.2.8,2.9,2.9,0,0,0-.5,1.8,3.06,3.06,0,0,0-4.1,1.1,2.58,2.58,0,0,0-.3,2.1,3,3,0,0,0-3.9,1.6,3.72,3.72,0,0,0-.2,1.8,3,3,0,0,0-3.8,1.9,3.4,3.4,0,0,0,0,2,3,3,0,0,0-3.6,2.2,2.54,2.54,0,0,0,.2,1.9,3,3,0,0,0-3.4,2.5,3.08,3.08,0,0,0,.3,1.9,3,3,0,0,0-3.2,2.8,2.73,2.73,0,0,0,.5,1.8,3,3,0,0,0-3,3,3.16,3.16,0,0,0,.7,1.9,3.1,3.1,0,0,0-2.7,3.3,3.7,3.7,0,0,0,.8,1.8,3,3,0,0,0-2.4,3.5,2.7,2.7,0,0,0,1,1.7,3,3,0,0,0-2.1,3.7,3,3,0,0,0,1.2,1.7,3,3,0,0,0-1.7,3.9,3.49,3.49,0,0,0,1.2,1.5,3,3,0,0,0-1.4,4,3.16,3.16,0,0,0,1.4,1.4,3.05,3.05,0,0,0-1,4.1,2.29,2.29,0,0,0,1.5,1.2,3.12,3.12,0,0,0-.7,4.2,3.55,3.55,0,0,0,1.6,1.1,3,3,0,0,0-.3,4.2,2.7,2.7,0,0,0,1.7,1,2.9,2.9,0,0,0,.1,4.2,2.5,2.5,0,0,0,1.8.8,3,3,0,0,0,2.2,4.9,3,3,0,0,0,.8,4.2,2.9,2.9,0,0,0,1.8.5,3,3,0,0,0,1.2,4.1,3.19,3.19,0,0,0,1.9.3,3,3,0,0,0,1.5,4,3.13,3.13,0,0,0,1.9.2,3,3,0,0,0,1.9,3.8,3.41,3.41,0,0,0,2,0,3,3,0,0,0,2.2,3.6,2.54,2.54,0,0,0,1.9-.2,3,3,0,0,0,2.5,3.4,3.08,3.08,0,0,0,1.9-.3,3,3,0,0,0,2.8,3.2,2.73,2.73,0,0,0,1.8-.5,2.92,2.92,0,0,0,3,2.9,3.59,3.59,0,0,0,1.1-.2,45.57,45.57,0,0,1-10-27.7c0-19.7,14.6-34.3,34.3-34.3s34.3,14.6,34.3,34.3a45.08,45.08,0,0,1-9.9,27.7,3,3,0,0,0,3.9-1.6,2.15,2.15,0,0,0,.2-1.1,3,3,0,0,0,4.2-.8,2.9,2.9,0,0,0,.5-1.8,3,3,0,0,0,4.1-1.2,3.19,3.19,0,0,0,.3-1.9,3,3,0,0,0,4-1.5,3.13,3.13,0,0,0,.2-1.9,3,3,0,0,0,3.8-1.9,3.08,3.08,0,0,0,0-1.9,3,3,0,0,0,3.6-2.2,2.54,2.54,0,0,0-.2-1.9,3,3,0,0,0,3.4-2.5,3.08,3.08,0,0,0-.3-1.9,3,3,0,0,0,3.2-2.8,2.73,2.73,0,0,0-.5-1.8,2.86,2.86,0,0,0,2.9-3,2.41,2.41,0,0,0-.7-1.8,3.1,3.1,0,0,0,2.7-3.3,3.7,3.7,0,0,0-.8-1.8,3,3,0,0,0,2.4-3.5,2.7,2.7,0,0,0-1-1.7,3,3,0,0,0,2.1-3.7,3.09,3.09,0,0,0-1.1-1.6,3,3,0,0,0,1.7-3.9,3.72,3.72,0,0,0-1.2-1.7Z"/><polygon class="cls-1" points="116.37 92.47 119.47 98.77 126.37 99.77 121.37 104.67 122.47 111.47 116.37 108.27 110.17 111.47 111.37 104.67 106.37 99.77 113.27 98.77 116.37 92.47"/><polygon class="cls-1" points="86.97 92.47 90.07 98.77 96.97 99.77 91.97 104.67 93.17 111.47 86.97 108.27 80.87 111.47 81.97 104.67 76.97 99.77 83.87 98.77 86.97 92.47"/><path class="cls-1" d="M91.67,125a10,10,0,0,0,20,0Z"/></g></g></g></g></svg>