<svg xmlns="http://www.w3.org/2000/svg" viewBox="0 0 305 305"><defs><style>.cls-1,.cls-2,.cls-3{fill:none;stroke:#f15622;stroke-width:5px;}.cls-1{stroke-miterlimit:10;}.cls-2{stroke-linecap:round;}.cls-2,.cls-3{stroke-linejoin:round;}</style></defs><g id="Layer_2" data-name="Layer 2"><g id="Layer_1-2" data-name="Layer 1"><path class="cls-1" d="M234.35,278.21a150,150,0,0,1-163.7,0c19.59-35,49-57.32,81.85-57.32S214.77,243.17,234.35,278.21Z"/><path class="cls-1" d="M302.5,152.5a150,150,0,1,1-150-150A149.61,149.61,0,0,1,302.5,152.5Z"/><path class="cls-1" d="M203.89,153a66.83,66.83,0,0,1-7.47,30.16c-8.83,17.21-24.78,30.23-43.92,30.23s-35.09-13-43.92-30.23A66.83,66.83,0,0,1,101.11,153a54.4,54.4,0,0,1,3.79-20.23h95.2A54.4,54.4,0,0,1,203.89,153Z"/><path class="cls-2" d="M196.43,183.16A66.83,66.83,0,0,0,203.9,153a54.6,54.6,0,0,0-3.79-20.23h-95.2A54.2,54.2,0,0,0,101.12,153a66.81,66.81,0,0,0,7.46,30.16H63.41c0-65.91,39.88-119.34,89.1-119.34s89.09,53.43,89.09,119.34Z"/><line class="cls-3" x1="152.93" y1="132.77" x2="152.07" y2="132.77"/><path class="cls-1" d="M137.5,185.39a15,15,0,0,0,30,0"/><path class="cls-1" d="M183.11,161.89a15,15,0,0,0-21.22,0"/><path class="cls-1" d="M143.11,161.89a15,15,0,0,0-21.22,0"/><circle class="cls-1" cx="152.5" cy="240.89" r="5"/><circle class="cls-1" cx="152.5" cy="265.89" r="5"/><circle class="cls-1" cx="152.5" cy="290.89" r="5"/></g></g></svg>