<svg xmlns="http://www.w3.org/2000/svg" viewBox="0 0 203.33 203.33"><defs><style>.cls-1,.cls-2,.cls-3{fill:none;stroke:#f15622;stroke-width:3.33px;}.cls-1{stroke-miterlimit:10;}.cls-2{stroke-linecap:round;}.cls-2,.cls-3{stroke-linejoin:round;}</style></defs><g id="Layer_2" data-name="Layer 2"><g id="Layer_1-2" data-name="Layer 1"><g id="Layer_2-2" data-name="Layer 2"><g id="Layer_1-2-2" data-name="Layer 1-2"><path class="cls-1" d="M156.27,185.47a99.94,99.94,0,0,1-109.1,0c13.1-23.3,32.7-38.2,54.6-38.2S143.17,162.07,156.27,185.47Z"/><path class="cls-1" d="M201.67,101.67a99.75,99.75,0,1,1,0-.5Z"/><path class="cls-1" d="M136,102a45.27,45.27,0,0,1-5,20.1c-5.9,11.5-16.5,20.2-29.3,20.2s-23.4-8.7-29.3-20.2a45.27,45.27,0,0,1-5-20.1,36.72,36.72,0,0,1,2.5-13.5h63.5A36.82,36.82,0,0,1,136,102Z"/><path class="cls-2" d="M131,122.07a45.27,45.27,0,0,0,5-20.1,36.72,36.72,0,0,0-2.5-13.5H70a34.78,34.78,0,0,0-2.5,13.5,45.27,45.27,0,0,0,5,20.1H42.27c0-43.9,26.6-79.6,59.4-79.6s59.4,35.6,59.4,79.6Z"/><line class="cls-3" x1="101.97" y1="88.47" x2="101.37" y2="88.47"/><path class="cls-1" d="M91.67,123.57a10,10,0,0,0,20,0"/><path class="cls-1" d="M122.07,108a10,10,0,0,0-14.1,0h0"/><path class="cls-1" d="M95.37,108a10,10,0,0,0-14.1,0h0"/><circle class="cls-1" cx="101.67" cy="160.57" r="3.3"/><circle class="cls-1" cx="101.67" cy="177.27" r="3.3"/><circle class="cls-1" cx="101.67" cy="193.97" r="3.3"/></g></g></g></g></svg>