<svg xmlns="http://www.w3.org/2000/svg" viewBox="0 0 305 305"><defs><style>.cls-1,.cls-2{fill:none;stroke:#ffaf00;stroke-width:5px;}.cls-1{stroke-miterlimit:10;}.cls-2{stroke-linecap:round;stroke-linejoin:round;}</style></defs><g id="Layer_2" data-name="Layer 2"><g id="Layer_1-2" data-name="Layer 1"><path class="cls-1" d="M234.35,278.21a150,150,0,0,1-163.7,0c19.59-35,49-57.32,81.85-57.32S214.77,243.17,234.35,278.21Z"/><path class="cls-1" d="M302.5,152.5a150,150,0,1,1-150-150A149.61,149.61,0,0,1,302.5,152.5Z"/><path class="cls-1" d="M101.11,153c0,29.49,21.9,60.39,51.39,60.39s51.39-30.9,51.39-60.39S182,101.61,152.5,101.61,101.11,123.52,101.11,153Z"/><path class="cls-2" d="M245,112.43a4.5,4.5,0,0,0,0-8.08,4.49,4.49,0,0,0-.71-8,4.49,4.49,0,0,0-1.4-8,4.49,4.49,0,0,0-2.09-7.8A4.49,4.49,0,0,0,238,73a4.49,4.49,0,0,0-3.41-7.32,4.5,4.5,0,0,0-4-7A4.49,4.49,0,0,0,225.94,52a4.5,4.5,0,0,0-5.19-6.19A4.49,4.49,0,0,0,215,40.14,4.5,4.5,0,0,0,208.85,35a4.49,4.49,0,0,0-6.61-4.63,4.5,4.5,0,0,0-7-4,4.49,4.49,0,0,0-7.32-3.41,4.49,4.49,0,0,0-7.58-2.76A4.5,4.5,0,0,0,172.53,18a4.48,4.48,0,0,0-7.95-1.4,4.49,4.49,0,0,0-8-.71,4.5,4.5,0,0,0-8.08,0,4.49,4.49,0,0,0-8,.71,4.49,4.49,0,0,0-8,1.4,4.49,4.49,0,0,0-7.8,2.09,4.49,4.49,0,0,0-7.58,2.76,4.49,4.49,0,0,0-7.32,3.41,4.5,4.5,0,0,0-7,4A4.49,4.49,0,0,0,96.15,35,4.5,4.5,0,0,0,90,40.14a4.49,4.49,0,0,0-5.71,5.71A4.5,4.5,0,0,0,79.06,52a4.49,4.49,0,0,0-4.63,6.61,4.5,4.5,0,0,0-4,7A4.49,4.49,0,0,0,67,73a4.49,4.49,0,0,0-2.76,7.58,4.49,4.49,0,0,0-2.09,7.8,4.49,4.49,0,0,0-1.4,8,4.49,4.49,0,0,0-.71,8,4.5,4.5,0,0,0,0,8.08,4.49,4.49,0,0,0,.71,8,4.48,4.48,0,0,0,1.4,7.95,4.49,4.49,0,0,0,2.09,7.8A4.49,4.49,0,0,0,67,143.81a4.49,4.49,0,0,0,3.41,7.32,4.5,4.5,0,0,0,4,7,4.49,4.49,0,0,0,4.63,6.61,4.5,4.5,0,0,0,5.19,6.19A4.5,4.5,0,0,0,90,176.64a4.5,4.5,0,0,0,6.19,5.19,4.49,4.49,0,0,0,6.61,4.63,4.5,4.5,0,0,0,7,4,4.48,4.48,0,0,0,6.24,4.05A67.33,67.33,0,0,1,101.11,153c0-29.48,21.9-51.39,51.39-51.39s51.39,21.91,51.39,51.39A67.33,67.33,0,0,1,189,194.55a4.48,4.48,0,0,0,6.24-4.05,4.5,4.5,0,0,0,7-4,4.49,4.49,0,0,0,6.61-4.63,4.5,4.5,0,0,0,6.19-5.19,4.5,4.5,0,0,0,5.71-5.71,4.5,4.5,0,0,0,5.19-6.19,4.49,4.49,0,0,0,4.63-6.61,4.5,4.5,0,0,0,4-7,4.49,4.49,0,0,0,3.41-7.32,4.49,4.49,0,0,0,2.76-7.59,4.49,4.49,0,0,0,2.09-7.8,4.48,4.48,0,0,0,1.4-7.95,4.49,4.49,0,0,0,.71-8Z"/><polygon class="cls-1" points="174.5 138.73 179.13 148.13 189.5 149.63 182 156.94 183.77 167.27 174.5 162.39 165.23 167.27 167 156.94 159.5 149.63 169.87 148.13 174.5 138.73"/><polygon class="cls-1" points="130.5 138.73 135.13 148.13 145.5 149.63 138 156.94 139.77 167.27 130.5 162.39 121.23 167.27 123 156.94 115.5 149.63 125.86 148.13 130.5 138.73"/><path class="cls-1" d="M137.5,187.4a15,15,0,0,0,30,0Z"/></g></g></svg>