<?xml version="1.0" encoding="utf-8"?>
<!-- Generator: Adobe Illustrator 24.1.0, SVG Export Plug-In . SVG Version: 6.00 Build 0)  -->
<svg version="1.1" id="Layer_1" xmlns="http://www.w3.org/2000/svg" xmlns:xlink="http://www.w3.org/1999/xlink" x="0px" y="0px"
	 viewBox="0 0 245 245" style="enable-background:new 0 0 245 245;" xml:space="preserve">
<style type="text/css">
	.st0{fill:none;stroke:#FFAF00;stroke-width:3.3333;stroke-miterlimit:10;}
	.st1{fill:none;stroke:#FFAF00;stroke-width:3.3333;stroke-linecap:round;stroke-linejoin:round;}
</style>
<g id="Layer_2_1_">
	<g id="Layer_1-2">
		<path class="st0" d="M177.1,206.3c-33.2,21.6-76,21.6-109.1,0c13.1-23.3,32.7-38.2,54.6-38.2S164,182.9,177.1,206.3z"/>
		<path class="st0" d="M222.5,122.5c0,55.2-44.8,100-100,100s-100-44.8-100-100s44.8-100,100-100c55.1-0.1,99.9,44.4,100,99.5
			C222.5,122.2,222.5,122.3,222.5,122.5z"/>
		<path class="st0" d="M88.2,122.8c0,19.7,14.6,40.3,34.3,40.3s34.3-20.6,34.3-40.3s-14.6-34.3-34.3-34.3S88.2,103.2,88.2,122.8z"/>
		<path class="st1" d="M184.2,95.8c1.5-0.7,2.1-2.5,1.4-4c-0.3-0.6-0.8-1.1-1.4-1.4c1.4-0.9,1.8-2.7,1-4.1c-0.3-0.6-0.8-1-1.5-1.2
			c1.4-1,1.7-2.8,0.7-4.2c-0.4-0.6-1-1-1.7-1.2c1.2-1.1,1.4-3,0.3-4.2c-0.4-0.5-1-0.9-1.7-1c1.1-1.2,1.1-3.1-0.1-4.2
			c-0.5-0.5-1.1-0.7-1.7-0.8c1-1.3,0.8-3.2-0.4-4.2c-0.5-0.4-1.2-0.7-1.8-0.7c0.9-1.4,0.6-3.2-0.8-4.2c-0.5-0.4-1.2-0.5-1.8-0.5
			c0.8-1.4,0.3-3.3-1.1-4.1c-0.6-0.4-1.3-0.5-2-0.4c0.7-1.5,0-3.3-1.5-4c-0.6-0.3-1.3-0.3-1.9-0.2c0.5-1.6-0.3-3.3-1.9-3.8
			c-0.6-0.2-1.3-0.2-2,0c0.4-1.6-0.6-3.2-2.3-3.6c-0.6-0.1-1.3-0.1-1.8,0.2c0.3-1.6-0.9-3.2-2.5-3.4c-0.7-0.1-1.3,0-1.9,0.3
			c0.1-1.7-1.2-3.1-2.8-3.2c-0.7,0-1.3,0.1-1.8,0.5c0-1.7-1.4-3-3-2.9c-0.7,0-1.3,0.2-1.8,0.7c-0.2-1.6-1.6-2.8-3.3-2.7
			c-0.7,0.1-1.3,0.4-1.8,0.8c-0.3-1.6-1.8-2.7-3.5-2.4c-0.7,0.1-1.3,0.5-1.7,1c-0.4-1.6-2.1-2.5-3.7-2.1c-0.7,0.2-1.2,0.6-1.6,1.1
			c-0.6-1.5-2.3-2.3-3.9-1.7c-0.6,0.2-1.1,0.7-1.5,1.2c-0.7-1.5-2.5-2.1-4-1.4c-0.6,0.3-1.1,0.8-1.4,1.4c-0.9-1.4-2.7-1.8-4.1-1
			c-0.6,0.3-1,0.8-1.2,1.5c-1-1.4-2.8-1.7-4.2-0.7c-0.6,0.4-1,1-1.2,1.7c-1.1-1.2-3-1.4-4.2-0.3c-0.5,0.4-0.9,1-1,1.7
			c-1.2-1.1-3.1-1.1-4.2,0.1c-0.5,0.5-0.8,1.1-0.8,1.8c-1.3-1-3.2-0.8-4.2,0.4c-0.4,0.5-0.7,1.2-0.7,1.8C92.8,37.3,91,37.6,90,39
			c-0.4,0.5-0.5,1.2-0.5,1.8c-1.4-0.8-3.3-0.3-4.1,1.1c-0.4,0.6-0.5,1.4-0.3,2.1c-1.5-0.6-3.3,0.1-3.9,1.6c-0.2,0.6-0.3,1.2-0.2,1.8
			c-1.6-0.5-3.3,0.3-3.8,1.9c-0.2,0.6-0.2,1.3,0,2c-1.6-0.4-3.2,0.6-3.6,2.2c-0.2,0.6-0.1,1.3,0.2,1.9c-1.6-0.3-3.2,0.9-3.4,2.5
			c-0.1,0.7,0,1.3,0.3,1.9c-1.7-0.1-3.1,1.2-3.2,2.8c0,0.7,0.1,1.3,0.5,1.8c-1.7,0-3,1.3-3,3c0,0.7,0.3,1.4,0.7,1.9
			c-1.6,0.2-2.8,1.6-2.7,3.3c0.1,0.7,0.4,1.3,0.8,1.8c-1.6,0.3-2.7,1.9-2.4,3.5c0.1,0.7,0.5,1.3,1,1.7c-1.6,0.4-2.5,2.1-2.1,3.7
			c0.2,0.7,0.6,1.3,1.2,1.7c-1.5,0.6-2.3,2.3-1.7,3.9c0.2,0.6,0.7,1.1,1.2,1.5c-1.5,0.7-2.1,2.5-1.4,4c0.3,0.6,0.8,1.1,1.4,1.4
			c-1.4,0.9-1.8,2.7-1,4.1c0.3,0.6,0.8,1,1.5,1.2c-1.3,1-1.6,2.8-0.7,4.2c0.4,0.5,1,0.9,1.6,1.1c-1.2,1.1-1.4,3-0.3,4.2
			c0.4,0.5,1,0.9,1.7,1c-1.2,1.2-1.1,3.1,0.1,4.2c0.5,0.5,1.1,0.8,1.8,0.8c-1,1.3-0.8,3.2,0.4,4.2c0.5,0.4,1.2,0.7,1.8,0.7
			c-0.9,1.4-0.6,3.2,0.8,4.2c0.5,0.4,1.2,0.5,1.8,0.5c-0.8,1.4-0.3,3.3,1.2,4.1c0.6,0.3,1.3,0.4,1.9,0.3c-0.7,1.5,0,3.3,1.5,4
			c0.6,0.3,1.3,0.3,1.9,0.2c-0.5,1.6,0.3,3.3,1.9,3.8c0.6,0.2,1.4,0.2,2,0c-0.4,1.6,0.6,3.2,2.2,3.6c0.6,0.2,1.3,0.1,1.9-0.2
			c-0.3,1.6,0.9,3.2,2.5,3.4c0.7,0.1,1.3,0,1.9-0.3c-0.1,1.7,1.2,3.1,2.8,3.2c0.7,0,1.3-0.1,1.8-0.5c0,1.6,1.4,3,3,2.9
			c0.4,0,0.8-0.1,1.1-0.2c-6.3-7.8-9.8-17.6-10-27.7c0-19.7,14.6-34.3,34.3-34.3s34.3,14.6,34.3,34.3c-0.1,10.1-3.6,19.8-9.9,27.7
			c1.5,0.6,3.3-0.1,3.9-1.6c0.2-0.4,0.2-0.7,0.2-1.1c1.4,0.9,3.2,0.6,4.2-0.8c0.4-0.5,0.5-1.2,0.5-1.8c1.4,0.8,3.3,0.3,4.1-1.2
			c0.3-0.6,0.4-1.3,0.3-1.9c1.5,0.7,3.3,0,4-1.5c0.3-0.6,0.3-1.3,0.2-1.9c1.6,0.5,3.3-0.3,3.8-1.9c0.2-0.6,0.2-1.3,0-1.9
			c1.6,0.4,3.2-0.6,3.6-2.2c0.2-0.6,0.1-1.3-0.2-1.9c1.6,0.3,3.2-0.9,3.4-2.5c0.1-0.7,0-1.3-0.3-1.9c1.7,0.1,3.1-1.2,3.2-2.8
			c0-0.7-0.1-1.3-0.5-1.8c1.7,0,3-1.4,2.9-3c0-0.7-0.2-1.3-0.7-1.8c1.6-0.2,2.8-1.6,2.7-3.3c-0.1-0.7-0.4-1.3-0.8-1.8
			c1.6-0.3,2.7-1.9,2.4-3.5c-0.1-0.7-0.5-1.3-1-1.7c1.6-0.4,2.5-2.1,2.1-3.7c-0.2-0.7-0.6-1.2-1.1-1.6c1.5-0.6,2.3-2.3,1.7-3.9
			C185.1,96.7,184.7,96.2,184.2,95.8L184.2,95.8z"/>
		<polygon class="st0" points="137.2,113.3 140.3,119.6 147.2,120.6 142.2,125.5 143.3,132.3 137.2,129.1 131,132.3 132.2,125.5 
			127.2,120.6 134.1,119.6 		"/>
		<polygon class="st0" points="107.8,113.3 110.9,119.6 117.8,120.6 112.8,125.5 114,132.3 107.8,129.1 101.7,132.3 102.8,125.5 
			97.8,120.6 104.7,119.6 		"/>
		<path class="st0" d="M112.5,145.8c0,5.5,4.5,10,10,10s10-4.5,10-10H112.5z"/>
	</g>
</g>
</svg>
