<svg width="486" height="114" viewBox="0 0 486 114" fill="none" xmlns="http://www.w3.org/2000/svg">
<g filter="url(#filter0_d)">
<rect x="4" y="4" width="100" height="100" fill="#FFAF00"/>
</g>
<path d="M20.7939 28.2959C19.3467 27.8799 18.292 27.3701 17.6299 26.7666C16.9736 26.1572 16.6455 25.4072 16.6455 24.5166C16.6455 23.5088 17.0469 22.6768 17.8496 22.0205C18.6582 21.3584 19.707 21.0273 20.9961 21.0273C21.875 21.0273 22.6572 21.1973 23.3428 21.5371C24.0342 21.877 24.5674 22.3457 24.9424 22.9434C25.3232 23.541 25.5137 24.1943 25.5137 24.9033H23.8174C23.8174 24.1299 23.5713 23.5234 23.0791 23.084C22.5869 22.6387 21.8926 22.416 20.9961 22.416C20.1641 22.416 19.5137 22.6006 19.0449 22.9697C18.582 23.333 18.3506 23.8398 18.3506 24.4902C18.3506 25.0117 18.5703 25.4541 19.0098 25.8174C19.4551 26.1748 20.208 26.5029 21.2686 26.8018C22.335 27.1006 23.167 27.4316 23.7646 27.7949C24.3682 28.1523 24.8135 28.5713 25.1006 29.0518C25.3936 29.5322 25.54 30.0977 25.54 30.748C25.54 31.7852 25.1357 32.6172 24.3271 33.2441C23.5186 33.8652 22.4375 34.1758 21.084 34.1758C20.2051 34.1758 19.3848 34.0088 18.623 33.6748C17.8613 33.335 17.2725 32.8721 16.8564 32.2861C16.4463 31.7002 16.2412 31.0352 16.2412 30.291H17.9375C17.9375 31.0645 18.2217 31.6768 18.79 32.1279C19.3643 32.5732 20.1289 32.7959 21.084 32.7959C21.9746 32.7959 22.6572 32.6143 23.1318 32.251C23.6064 31.8877 23.8438 31.3926 23.8438 30.7656C23.8438 30.1387 23.624 29.6553 23.1846 29.3154C22.7451 28.9697 21.9482 28.6299 20.7939 28.2959ZM29.2227 34H27.5967V24.4902H29.2227V34ZM27.4648 21.9678C27.4648 21.7041 27.5439 21.4814 27.7021 21.2998C27.8662 21.1182 28.1064 21.0273 28.4229 21.0273C28.7393 21.0273 28.9795 21.1182 29.1436 21.2998C29.3076 21.4814 29.3896 21.7041 29.3896 21.9678C29.3896 22.2314 29.3076 22.4512 29.1436 22.627C28.9795 22.8027 28.7393 22.8906 28.4229 22.8906C28.1064 22.8906 27.8662 22.8027 27.7021 22.627C27.5439 22.4512 27.4648 22.2314 27.4648 21.9678ZM33.3623 24.4902L33.4062 25.5449C34.1035 24.7246 35.0439 24.3145 36.2275 24.3145C37.5576 24.3145 38.4629 24.8242 38.9434 25.8438C39.2598 25.3867 39.6699 25.0176 40.1738 24.7363C40.6836 24.4551 41.2842 24.3145 41.9756 24.3145C44.0615 24.3145 45.1221 25.4189 45.1572 27.6279V34H43.5312V27.7246C43.5312 27.0449 43.376 26.5381 43.0654 26.2041C42.7549 25.8643 42.2334 25.6943 41.501 25.6943C40.8975 25.6943 40.3965 25.876 39.998 26.2393C39.5996 26.5967 39.3682 27.0801 39.3037 27.6895V34H37.6689V27.7686C37.6689 26.3857 36.9922 25.6943 35.6387 25.6943C34.5723 25.6943 33.8428 26.1484 33.4502 27.0566V34H31.8242V24.4902H33.3623ZM55.6514 29.3506C55.6514 30.7979 55.3203 31.9639 54.6582 32.8486C53.9961 33.7334 53.0996 34.1758 51.9688 34.1758C50.8145 34.1758 49.9062 33.8096 49.2441 33.0771V37.6562H47.6182V24.4902H49.1035L49.1826 25.5449C49.8447 24.7246 50.7646 24.3145 51.9424 24.3145C53.085 24.3145 53.9873 24.7451 54.6494 25.6064C55.3174 26.4678 55.6514 27.666 55.6514 29.2012V29.3506ZM54.0254 29.166C54.0254 28.0938 53.7969 27.2471 53.3398 26.626C52.8828 26.0049 52.2559 25.6943 51.459 25.6943C50.4746 25.6943 49.7363 26.1309 49.2441 27.0039V31.5479C49.7305 32.415 50.4746 32.8486 51.4766 32.8486C52.2559 32.8486 52.874 32.541 53.3311 31.9258C53.7939 31.3047 54.0254 30.3848 54.0254 29.166ZM59.4922 34H57.8662V20.5H59.4922V34ZM63.8691 34H62.2432V24.4902H63.8691V34ZM62.1113 21.9678C62.1113 21.7041 62.1904 21.4814 62.3486 21.2998C62.5127 21.1182 62.7529 21.0273 63.0693 21.0273C63.3857 21.0273 63.626 21.1182 63.79 21.2998C63.9541 21.4814 64.0361 21.7041 64.0361 21.9678C64.0361 22.2314 63.9541 22.4512 63.79 22.627C63.626 22.8027 63.3857 22.8906 63.0693 22.8906C62.7529 22.8906 62.5127 22.8027 62.3486 22.627C62.1904 22.4512 62.1113 22.2314 62.1113 21.9678ZM70.2939 32.8486C70.874 32.8486 71.3809 32.6729 71.8145 32.3213C72.248 31.9697 72.4883 31.5303 72.5352 31.0029H74.0732C74.0439 31.5479 73.8564 32.0664 73.5107 32.5586C73.165 33.0508 72.7021 33.4434 72.1221 33.7363C71.5479 34.0293 70.9385 34.1758 70.2939 34.1758C68.999 34.1758 67.9678 33.7451 67.2002 32.8838C66.4385 32.0166 66.0576 30.833 66.0576 29.333V29.0605C66.0576 28.1348 66.2275 27.3115 66.5674 26.5908C66.9072 25.8701 67.3936 25.3105 68.0264 24.9121C68.665 24.5137 69.418 24.3145 70.2852 24.3145C71.3516 24.3145 72.2363 24.6338 72.9395 25.2725C73.6484 25.9111 74.0264 26.7402 74.0732 27.7598H72.5352C72.4883 27.1445 72.2539 26.6406 71.832 26.248C71.416 25.8496 70.9004 25.6504 70.2852 25.6504C69.459 25.6504 68.8174 25.9492 68.3604 26.5469C67.9092 27.1387 67.6836 27.9971 67.6836 29.1221V29.4297C67.6836 30.5254 67.9092 31.3691 68.3604 31.9609C68.8115 32.5527 69.4561 32.8486 70.2939 32.8486ZM77.668 34H76.042V24.4902H77.668V34ZM75.9102 21.9678C75.9102 21.7041 75.9893 21.4814 76.1475 21.2998C76.3115 21.1182 76.5518 21.0273 76.8682 21.0273C77.1846 21.0273 77.4248 21.1182 77.5889 21.2998C77.7529 21.4814 77.835 21.7041 77.835 21.9678C77.835 22.2314 77.7529 22.4512 77.5889 22.627C77.4248 22.8027 77.1846 22.8906 76.8682 22.8906C76.5518 22.8906 76.3115 22.8027 76.1475 22.627C75.9893 22.4512 75.9102 22.2314 75.9102 21.9678ZM82.4844 22.1875V24.4902H84.2598V25.7471H82.4844V31.6445C82.4844 32.0254 82.5635 32.3125 82.7217 32.5059C82.8799 32.6934 83.1494 32.7871 83.5303 32.7871C83.7178 32.7871 83.9756 32.752 84.3037 32.6816V34C83.876 34.1172 83.46 34.1758 83.0557 34.1758C82.3291 34.1758 81.7812 33.9561 81.4121 33.5166C81.043 33.0771 80.8584 32.4531 80.8584 31.6445V25.7471H79.127V24.4902H80.8584V22.1875H82.4844ZM89.2783 31.6182L91.4932 24.4902H93.2334L89.4102 35.4678C88.8184 37.0498 87.8779 37.8408 86.5889 37.8408L86.2812 37.8145L85.6748 37.7002V36.3818L86.1143 36.417C86.665 36.417 87.0928 36.3057 87.3975 36.083C87.708 35.8604 87.9629 35.4531 88.1621 34.8613L88.5225 33.8945L85.1299 24.4902H86.9053L89.2783 31.6182ZM32.1318 56.1572C32.1318 55.2256 32.3135 54.3877 32.6768 53.6436C33.0459 52.8994 33.5557 52.3252 34.2061 51.9209C34.8623 51.5166 35.6094 51.3145 36.4473 51.3145C37.7422 51.3145 38.7881 51.7627 39.585 52.6592C40.3877 53.5557 40.7891 54.748 40.7891 56.2363V56.3506C40.7891 57.2764 40.6104 58.1084 40.2529 58.8467C39.9014 59.5791 39.3945 60.1504 38.7324 60.5605C38.0762 60.9707 37.3203 61.1758 36.4648 61.1758C35.1758 61.1758 34.1299 60.7275 33.3271 59.8311C32.5303 58.9346 32.1318 57.748 32.1318 56.2715V56.1572ZM33.7666 56.3506C33.7666 57.4053 34.0098 58.252 34.4961 58.8906C34.9883 59.5293 35.6445 59.8486 36.4648 59.8486C37.291 59.8486 37.9473 59.5264 38.4336 58.8818C38.9199 58.2314 39.1631 57.3232 39.1631 56.1572C39.1631 55.1143 38.9141 54.2705 38.416 53.626C37.9238 52.9756 37.2676 52.6504 36.4473 52.6504C35.6445 52.6504 34.9971 52.9697 34.5049 53.6084C34.0127 54.2471 33.7666 55.1611 33.7666 56.3506ZM43.6279 61V52.7471H42.125V51.4902H43.6279V50.5146C43.6279 49.4951 43.9004 48.707 44.4453 48.1504C44.9902 47.5938 45.7607 47.3154 46.7568 47.3154C47.1318 47.3154 47.5039 47.3652 47.873 47.4648L47.7852 48.7832C47.5098 48.7305 47.2168 48.7041 46.9062 48.7041C46.3789 48.7041 45.9717 48.8594 45.6846 49.1699C45.3975 49.4746 45.2539 49.9141 45.2539 50.4883V51.4902H47.2842V52.7471H45.2539V61H43.6279ZM55.7568 49.1875V51.4902H57.5322V52.7471H55.7568V58.6445C55.7568 59.0254 55.8359 59.3125 55.9941 59.5059C56.1523 59.6934 56.4219 59.7871 56.8027 59.7871C56.9902 59.7871 57.248 59.752 57.5762 59.6816V61C57.1484 61.1172 56.7324 61.1758 56.3281 61.1758C55.6016 61.1758 55.0537 60.9561 54.6846 60.5166C54.3154 60.0771 54.1309 59.4531 54.1309 58.6445V52.7471H52.3994V51.4902H54.1309V49.1875H55.7568ZM61.0654 52.6416C61.7861 51.7568 62.7236 51.3145 63.8779 51.3145C65.8877 51.3145 66.9014 52.4482 66.9189 54.7158V61H65.293V54.707C65.2871 54.0215 65.1289 53.5146 64.8184 53.1865C64.5137 52.8584 64.0361 52.6943 63.3857 52.6943C62.8584 52.6943 62.3955 52.835 61.9971 53.1162C61.5986 53.3975 61.2881 53.7666 61.0654 54.2236V61H59.4395V47.5H61.0654V52.6416ZM73.2998 61.1758C72.0107 61.1758 70.9619 60.7539 70.1533 59.9102C69.3447 59.0605 68.9404 57.9268 68.9404 56.5088V56.21C68.9404 55.2666 69.1191 54.4258 69.4766 53.6875C69.8398 52.9434 70.3438 52.3633 70.9883 51.9473C71.6387 51.5254 72.3418 51.3145 73.0977 51.3145C74.334 51.3145 75.2949 51.7217 75.9805 52.5361C76.666 53.3506 77.0088 54.5166 77.0088 56.0342V56.7109H70.5664C70.5898 57.6484 70.8623 58.4072 71.3838 58.9873C71.9111 59.5615 72.5791 59.8486 73.3877 59.8486C73.9619 59.8486 74.4482 59.7314 74.8467 59.4971C75.2451 59.2627 75.5938 58.9521 75.8926 58.5654L76.8857 59.3389C76.0889 60.5635 74.8936 61.1758 73.2998 61.1758ZM73.0977 52.6504C72.4414 52.6504 71.8906 52.8906 71.4453 53.3711C71 53.8457 70.7246 54.5137 70.6191 55.375H75.3828V55.252C75.3359 54.4258 75.1133 53.7871 74.7148 53.3359C74.3164 52.8789 73.7773 52.6504 73.0977 52.6504ZM33.0107 85.7588L34.8389 78.4902H36.4648L33.6963 88H32.3779L30.0664 80.793L27.8164 88H26.498L23.7383 78.4902H25.3555L27.2275 85.6094L29.4424 78.4902H30.752L33.0107 85.7588ZM42.0723 88.1758C40.7832 88.1758 39.7344 87.7539 38.9258 86.9102C38.1172 86.0605 37.7129 84.9268 37.7129 83.5088V83.21C37.7129 82.2666 37.8916 81.4258 38.249 80.6875C38.6123 79.9434 39.1162 79.3633 39.7607 78.9473C40.4111 78.5254 41.1143 78.3145 41.8701 78.3145C43.1064 78.3145 44.0674 78.7217 44.7529 79.5361C45.4385 80.3506 45.7812 81.5166 45.7812 83.0342V83.7109H39.3389C39.3623 84.6484 39.6348 85.4072 40.1562 85.9873C40.6836 86.5615 41.3516 86.8486 42.1602 86.8486C42.7344 86.8486 43.2207 86.7314 43.6191 86.4971C44.0176 86.2627 44.3662 85.9521 44.665 85.5654L45.6582 86.3389C44.8613 87.5635 43.666 88.1758 42.0723 88.1758ZM41.8701 79.6504C41.2139 79.6504 40.6631 79.8906 40.2178 80.3711C39.7725 80.8457 39.4971 81.5137 39.3916 82.375H44.1553V82.252C44.1084 81.4258 43.8857 80.7871 43.4873 80.3359C43.0889 79.8789 42.5498 79.6504 41.8701 79.6504ZM55.7217 83.3506C55.7217 84.8037 55.3877 85.9727 54.7197 86.8574C54.0518 87.7363 53.1553 88.1758 52.0303 88.1758C50.8291 88.1758 49.9004 87.751 49.2441 86.9014L49.165 88H47.6709V74.5H49.2969V79.5361C49.9531 78.7217 50.8584 78.3145 52.0127 78.3145C53.167 78.3145 54.0723 78.751 54.7285 79.624C55.3906 80.4971 55.7217 81.6924 55.7217 83.21V83.3506ZM54.0957 83.166C54.0957 82.0586 53.8818 81.2031 53.4541 80.5996C53.0264 79.9961 52.4111 79.6943 51.6084 79.6943C50.5361 79.6943 49.7656 80.1924 49.2969 81.1885V85.3018C49.7949 86.2979 50.5713 86.7959 51.626 86.7959C52.4053 86.7959 53.0117 86.4941 53.4453 85.8906C53.8789 85.2871 54.0957 84.3789 54.0957 83.166ZM63.3154 85.4775C63.3154 85.0381 63.1484 84.6982 62.8145 84.458C62.4863 84.2119 61.9092 84.001 61.083 83.8252C60.2627 83.6494 59.6094 83.4385 59.123 83.1924C58.6426 82.9463 58.2852 82.6533 58.0508 82.3135C57.8223 81.9736 57.708 81.5693 57.708 81.1006C57.708 80.3213 58.0361 79.6621 58.6924 79.123C59.3545 78.584 60.1982 78.3145 61.2236 78.3145C62.3018 78.3145 63.1748 78.5928 63.8428 79.1494C64.5166 79.7061 64.8535 80.418 64.8535 81.2852H63.2188C63.2188 80.8398 63.0283 80.4561 62.6475 80.1338C62.2725 79.8115 61.7979 79.6504 61.2236 79.6504C60.6318 79.6504 60.1689 79.7793 59.835 80.0371C59.501 80.2949 59.334 80.6318 59.334 81.0479C59.334 81.4404 59.4893 81.7363 59.7998 81.9355C60.1104 82.1348 60.6699 82.3252 61.4785 82.5068C62.293 82.6885 62.9521 82.9053 63.4561 83.1572C63.96 83.4092 64.332 83.7139 64.5723 84.0713C64.8184 84.4229 64.9414 84.8535 64.9414 85.3633C64.9414 86.2129 64.6016 86.8955 63.9219 87.4111C63.2422 87.9209 62.3604 88.1758 61.2764 88.1758C60.5146 88.1758 59.8408 88.041 59.2549 87.7715C58.6689 87.502 58.209 87.127 57.875 86.6465C57.5469 86.1602 57.3828 85.6357 57.3828 85.0732H59.0088C59.0381 85.6182 59.2549 86.0518 59.6592 86.374C60.0693 86.6904 60.6084 86.8486 61.2764 86.8486C61.8916 86.8486 62.3838 86.7256 62.7529 86.4795C63.1279 86.2275 63.3154 85.8936 63.3154 85.4775ZM68.8262 88H67.2002V78.4902H68.8262V88ZM67.0684 75.9678C67.0684 75.7041 67.1475 75.4814 67.3057 75.2998C67.4697 75.1182 67.71 75.0273 68.0264 75.0273C68.3428 75.0273 68.583 75.1182 68.7471 75.2998C68.9111 75.4814 68.9932 75.7041 68.9932 75.9678C68.9932 76.2314 68.9111 76.4512 68.7471 76.627C68.583 76.8027 68.3428 76.8906 68.0264 76.8906C67.71 76.8906 67.4697 76.8027 67.3057 76.627C67.1475 76.4512 67.0684 76.2314 67.0684 75.9678ZM73.6426 76.1875V78.4902H75.418V79.7471H73.6426V85.6445C73.6426 86.0254 73.7217 86.3125 73.8799 86.5059C74.0381 86.6934 74.3076 86.7871 74.6885 86.7871C74.876 86.7871 75.1338 86.752 75.4619 86.6816V88C75.0342 88.1172 74.6182 88.1758 74.2139 88.1758C73.4873 88.1758 72.9395 87.9561 72.5703 87.5166C72.2012 87.0771 72.0166 86.4531 72.0166 85.6445V79.7471H70.2852V78.4902H72.0166V76.1875H73.6426ZM81.2715 88.1758C79.9824 88.1758 78.9336 87.7539 78.125 86.9102C77.3164 86.0605 76.9121 84.9268 76.9121 83.5088V83.21C76.9121 82.2666 77.0908 81.4258 77.4482 80.6875C77.8115 79.9434 78.3154 79.3633 78.96 78.9473C79.6104 78.5254 80.3135 78.3145 81.0693 78.3145C82.3057 78.3145 83.2666 78.7217 83.9521 79.5361C84.6377 80.3506 84.9805 81.5166 84.9805 83.0342V83.7109H78.5381C78.5615 84.6484 78.834 85.4072 79.3555 85.9873C79.8828 86.5615 80.5508 86.8486 81.3594 86.8486C81.9336 86.8486 82.4199 86.7314 82.8184 86.4971C83.2168 86.2627 83.5654 85.9521 83.8643 85.5654L84.8574 86.3389C84.0605 87.5635 82.8652 88.1758 81.2715 88.1758ZM81.0693 79.6504C80.4131 79.6504 79.8623 79.8906 79.417 80.3711C78.9717 80.8457 78.6963 81.5137 78.5908 82.375H83.3545V82.252C83.3076 81.4258 83.085 80.7871 82.6865 80.3359C82.2881 79.8789 81.749 79.6504 81.0693 79.6504Z" fill="black"/>
<g filter="url(#filter1_d)">
<rect x="128" y="4" width="100" height="100" fill="#FFAF00"/>
</g>
<path d="M141.729 37.3359L145.215 46.0371L148.701 37.3359H150.525V48H149.119V43.8472L149.25 39.3647L145.75 48H144.673L141.179 39.3867L141.318 43.8472V48H139.912V37.3359H141.729ZM157.688 47.2163C157.161 47.8364 156.387 48.1465 155.366 48.1465C154.521 48.1465 153.877 47.9023 153.433 47.4141C152.993 46.9209 152.771 46.1934 152.766 45.2314V40.0752H154.121V45.1948C154.121 46.396 154.609 46.9966 155.586 46.9966C156.621 46.9966 157.31 46.6108 157.651 45.8394V40.0752H159.006V48H157.717L157.688 47.2163ZM162.544 48H161.189V36.75H162.544V48ZM166.558 38.1562V40.0752H168.037V41.1226H166.558V46.0371C166.558 46.3545 166.624 46.5938 166.755 46.7549C166.887 46.9111 167.112 46.9893 167.429 46.9893C167.585 46.9893 167.8 46.96 168.074 46.9014V48C167.717 48.0977 167.371 48.1465 167.034 48.1465C166.428 48.1465 165.972 47.9634 165.664 47.5972C165.356 47.231 165.203 46.7109 165.203 46.0371V41.1226H163.76V40.0752H165.203V38.1562H166.558ZM171.099 48H169.744V40.0752H171.099V48ZM169.634 37.9731C169.634 37.7534 169.7 37.5679 169.832 37.4165C169.968 37.2651 170.168 37.1895 170.432 37.1895C170.696 37.1895 170.896 37.2651 171.033 37.4165C171.169 37.5679 171.238 37.7534 171.238 37.9731C171.238 38.1929 171.169 38.376 171.033 38.5225C170.896 38.6689 170.696 38.7422 170.432 38.7422C170.168 38.7422 169.968 38.6689 169.832 38.5225C169.7 38.376 169.634 38.1929 169.634 37.9731ZM174.746 48H173.391V36.75H174.746V48ZM178.394 48H177.039V40.0752H178.394V48ZM176.929 37.9731C176.929 37.7534 176.995 37.5679 177.126 37.4165C177.263 37.2651 177.463 37.1895 177.727 37.1895C177.991 37.1895 178.191 37.2651 178.328 37.4165C178.464 37.5679 178.533 37.7534 178.533 37.9731C178.533 38.1929 178.464 38.376 178.328 38.5225C178.191 38.6689 177.991 38.7422 177.727 38.7422C177.463 38.7422 177.263 38.6689 177.126 38.5225C176.995 38.376 176.929 38.1929 176.929 37.9731ZM181.851 40.0752L181.895 41.0713C182.5 40.3096 183.291 39.9287 184.268 39.9287C185.942 39.9287 186.787 40.8735 186.802 42.7632V48H185.447V42.7559C185.442 42.1846 185.31 41.7622 185.051 41.4888C184.797 41.2153 184.399 41.0786 183.857 41.0786C183.418 41.0786 183.032 41.1958 182.7 41.4302C182.368 41.6646 182.109 41.9722 181.924 42.353V48H180.569V40.0752H181.851ZM188.523 43.9717C188.523 42.7363 188.809 41.7549 189.38 41.0273C189.951 40.2949 190.708 39.9287 191.65 39.9287C192.617 39.9287 193.372 40.2705 193.914 40.9541L193.979 40.0752H195.217V47.8096C195.217 48.835 194.912 49.6431 194.302 50.2339C193.696 50.8247 192.881 51.1201 191.855 51.1201C191.284 51.1201 190.725 50.998 190.178 50.7539C189.631 50.5098 189.214 50.1753 188.926 49.7505L189.629 48.9375C190.21 49.6553 190.92 50.0142 191.76 50.0142C192.419 50.0142 192.932 49.8286 193.298 49.4575C193.669 49.0864 193.855 48.564 193.855 47.8901V47.209C193.313 47.834 192.573 48.1465 191.636 48.1465C190.708 48.1465 189.956 47.7729 189.38 47.0259C188.809 46.2788 188.523 45.2607 188.523 43.9717ZM189.885 44.1255C189.885 45.019 190.068 45.7222 190.435 46.2349C190.801 46.7427 191.313 46.9966 191.973 46.9966C192.827 46.9966 193.455 46.6084 193.855 45.832V42.2139C193.44 41.457 192.817 41.0786 191.987 41.0786C191.328 41.0786 190.813 41.335 190.442 41.8477C190.071 42.3604 189.885 43.1196 189.885 44.1255ZM202.161 47.2163C201.633 47.8364 200.859 48.1465 199.839 48.1465C198.994 48.1465 198.35 47.9023 197.905 47.4141C197.466 46.9209 197.244 46.1934 197.239 45.2314V40.0752H198.594V45.1948C198.594 46.396 199.082 46.9966 200.059 46.9966C201.094 46.9966 201.782 46.6108 202.124 45.8394V40.0752H203.479V48H202.19L202.161 47.2163ZM210.437 48C210.359 47.8438 210.295 47.5654 210.247 47.165C209.617 47.8193 208.865 48.1465 207.991 48.1465C207.209 48.1465 206.567 47.9268 206.064 47.4873C205.566 47.043 205.317 46.4814 205.317 45.8027C205.317 44.9775 205.63 44.3379 206.255 43.8838C206.885 43.4248 207.769 43.1953 208.906 43.1953H210.225V42.5728C210.225 42.0991 210.083 41.7231 209.8 41.4448C209.517 41.1616 209.099 41.02 208.547 41.02C208.064 41.02 207.659 41.1421 207.332 41.3862C207.004 41.6304 206.841 41.9258 206.841 42.2725H205.479C205.479 41.877 205.618 41.4961 205.896 41.1299C206.179 40.7588 206.56 40.4658 207.039 40.251C207.522 40.0361 208.052 39.9287 208.628 39.9287C209.541 39.9287 210.256 40.1582 210.774 40.6172C211.292 41.0713 211.56 41.6987 211.58 42.4995V46.147C211.58 46.8745 211.672 47.4531 211.858 47.8828V48H210.437ZM208.188 46.9673C208.613 46.9673 209.016 46.8574 209.397 46.6377C209.778 46.418 210.054 46.1323 210.225 45.7808V44.1548H209.163C207.502 44.1548 206.672 44.6406 206.672 45.6123C206.672 46.0371 206.814 46.3691 207.097 46.6084C207.38 46.8477 207.744 46.9673 208.188 46.9673ZM215.176 48H213.821V36.75H215.176V48ZM157.256 68.8979C157.256 68.5317 157.117 68.2485 156.838 68.0483C156.565 67.8433 156.084 67.6675 155.396 67.521C154.712 67.3745 154.167 67.1987 153.762 66.9937C153.362 66.7886 153.064 66.5444 152.869 66.2612C152.678 65.978 152.583 65.6411 152.583 65.2505C152.583 64.6011 152.856 64.0518 153.403 63.6025C153.955 63.1533 154.658 62.9287 155.513 62.9287C156.411 62.9287 157.139 63.1606 157.695 63.6245C158.257 64.0884 158.538 64.6816 158.538 65.4043H157.175C157.175 65.0332 157.017 64.7134 156.699 64.4448C156.387 64.1763 155.991 64.042 155.513 64.042C155.02 64.042 154.634 64.1494 154.355 64.3643C154.077 64.5791 153.938 64.8599 153.938 65.2065C153.938 65.5337 154.067 65.7803 154.326 65.9463C154.585 66.1123 155.051 66.271 155.725 66.4224C156.404 66.5737 156.953 66.7544 157.373 66.9644C157.793 67.1743 158.103 67.4282 158.303 67.7261C158.508 68.019 158.611 68.3779 158.611 68.8027C158.611 69.5107 158.328 70.0796 157.761 70.5093C157.195 70.9341 156.46 71.1465 155.557 71.1465C154.922 71.1465 154.36 71.0342 153.872 70.8096C153.384 70.585 153 70.2725 152.722 69.8721C152.449 69.4668 152.312 69.0298 152.312 68.561H153.667C153.691 69.0151 153.872 69.3765 154.209 69.645C154.551 69.9087 155 70.0405 155.557 70.0405C156.069 70.0405 156.479 69.938 156.787 69.7329C157.1 69.5229 157.256 69.2446 157.256 68.8979ZM165.269 70.2163C164.741 70.8364 163.967 71.1465 162.947 71.1465C162.102 71.1465 161.458 70.9023 161.013 70.4141C160.574 69.9209 160.352 69.1934 160.347 68.2314V63.0752H161.702V68.1948C161.702 69.396 162.19 69.9966 163.167 69.9966C164.202 69.9966 164.89 69.6108 165.232 68.8394V63.0752H166.587V71H165.298L165.269 70.2163ZM175.347 67.1255C175.347 68.3315 175.071 69.3032 174.519 70.0405C173.967 70.7778 173.22 71.1465 172.278 71.1465C171.316 71.1465 170.559 70.8413 170.007 70.231V74.0469H168.652V63.0752H169.89L169.956 63.9541C170.508 63.2705 171.274 62.9287 172.256 62.9287C173.208 62.9287 173.96 63.2876 174.512 64.0054C175.068 64.7231 175.347 65.7217 175.347 67.001V67.1255ZM173.992 66.9717C173.992 66.0781 173.801 65.3726 173.42 64.855C173.04 64.3374 172.517 64.0786 171.853 64.0786C171.033 64.0786 170.417 64.4424 170.007 65.1699V68.9565C170.413 69.6792 171.033 70.0405 171.868 70.0405C172.517 70.0405 173.032 69.7842 173.413 69.2715C173.799 68.7539 173.992 67.9873 173.992 66.9717ZM183.77 67.1255C183.77 68.3315 183.494 69.3032 182.942 70.0405C182.39 70.7778 181.643 71.1465 180.701 71.1465C179.739 71.1465 178.982 70.8413 178.43 70.231V74.0469H177.075V63.0752H178.313L178.379 63.9541C178.931 63.2705 179.697 62.9287 180.679 62.9287C181.631 62.9287 182.383 63.2876 182.935 64.0054C183.491 64.7231 183.77 65.7217 183.77 67.001V67.1255ZM182.415 66.9717C182.415 66.0781 182.224 65.3726 181.843 64.855C181.462 64.3374 180.94 64.0786 180.276 64.0786C179.456 64.0786 178.84 64.4424 178.43 65.1699V68.9565C178.835 69.6792 179.456 70.0405 180.291 70.0405C180.94 70.0405 181.455 69.7842 181.836 69.2715C182.222 68.7539 182.415 67.9873 182.415 66.9717ZM185.139 66.9644C185.139 66.188 185.291 65.4897 185.593 64.8696C185.901 64.2495 186.326 63.771 186.868 63.4341C187.415 63.0972 188.037 62.9287 188.735 62.9287C189.814 62.9287 190.686 63.3022 191.35 64.0493C192.019 64.7964 192.354 65.79 192.354 67.0303V67.1255C192.354 67.897 192.205 68.5903 191.907 69.2056C191.614 69.8159 191.191 70.292 190.64 70.6338C190.093 70.9756 189.463 71.1465 188.75 71.1465C187.676 71.1465 186.804 70.7729 186.135 70.0259C185.471 69.2788 185.139 68.29 185.139 67.0596V66.9644ZM186.501 67.1255C186.501 68.0044 186.704 68.71 187.109 69.2422C187.52 69.7744 188.066 70.0405 188.75 70.0405C189.438 70.0405 189.985 69.772 190.391 69.2349C190.796 68.6929 190.999 67.936 190.999 66.9644C190.999 66.0952 190.791 65.3921 190.376 64.855C189.966 64.313 189.419 64.042 188.735 64.042C188.066 64.042 187.527 64.3081 187.117 64.8403C186.707 65.3726 186.501 66.1343 186.501 67.1255ZM197.883 64.291C197.678 64.2568 197.456 64.2397 197.217 64.2397C196.328 64.2397 195.725 64.6182 195.408 65.375V71H194.053V63.0752H195.371L195.393 63.9907C195.837 63.2827 196.467 62.9287 197.283 62.9287C197.546 62.9287 197.747 62.9629 197.883 63.0312V64.291ZM201.34 61.1562V63.0752H202.82V64.1226H201.34V69.0371C201.34 69.3545 201.406 69.5938 201.538 69.7549C201.67 69.9111 201.895 69.9893 202.212 69.9893C202.368 69.9893 202.583 69.96 202.856 69.9014V71C202.5 71.0977 202.153 71.1465 201.816 71.1465C201.211 71.1465 200.754 70.9634 200.447 70.5972C200.139 70.231 199.985 69.7109 199.985 69.0371V64.1226H198.542V63.0752H199.985V61.1562H201.34Z" fill="black"/>
<g filter="url(#filter2_d)">
<rect x="252" y="4" width="100" height="100" fill="#FFAF00"/>
</g>
<path d="M264.515 54.2466C263.309 53.8999 262.43 53.4751 261.878 52.9722C261.331 52.4644 261.058 51.8394 261.058 51.0972C261.058 50.2573 261.392 49.564 262.061 49.0171C262.735 48.4653 263.609 48.1895 264.683 48.1895C265.416 48.1895 266.067 48.3311 266.639 48.6143C267.215 48.8975 267.659 49.2881 267.972 49.7861C268.289 50.2842 268.448 50.8286 268.448 51.4194H267.034C267.034 50.7749 266.829 50.2695 266.419 49.9033C266.009 49.5322 265.43 49.3467 264.683 49.3467C263.99 49.3467 263.448 49.5005 263.057 49.8081C262.671 50.1108 262.479 50.5332 262.479 51.0752C262.479 51.5098 262.662 51.8784 263.028 52.1812C263.399 52.479 264.026 52.7524 264.91 53.0015C265.799 53.2505 266.492 53.5264 266.99 53.8291C267.493 54.127 267.864 54.4761 268.104 54.8765C268.348 55.2769 268.47 55.748 268.47 56.29C268.47 57.1543 268.133 57.8477 267.459 58.3701C266.785 58.8877 265.884 59.1465 264.756 59.1465C264.024 59.1465 263.34 59.0073 262.706 58.729C262.071 58.4458 261.58 58.0601 261.233 57.5718C260.892 57.0835 260.721 56.5293 260.721 55.9092H262.134C262.134 56.5537 262.371 57.064 262.845 57.4399C263.323 57.811 263.96 57.9966 264.756 57.9966C265.499 57.9966 266.067 57.8452 266.463 57.5425C266.858 57.2397 267.056 56.8271 267.056 56.3047C267.056 55.7822 266.873 55.3794 266.507 55.0962C266.141 54.8081 265.477 54.5249 264.515 54.2466ZM274.959 58.2163C274.432 58.8364 273.658 59.1465 272.637 59.1465C271.792 59.1465 271.148 58.9023 270.704 58.4141C270.264 57.9209 270.042 57.1934 270.037 56.2314V51.0752H271.392V56.1948C271.392 57.396 271.88 57.9966 272.857 57.9966C273.892 57.9966 274.581 57.6108 274.922 56.8394V51.0752H276.277V59H274.988L274.959 58.2163ZM285.052 55.1255C285.052 56.3364 284.773 57.3105 284.217 58.0479C283.66 58.7803 282.913 59.1465 281.976 59.1465C280.975 59.1465 280.201 58.7925 279.654 58.0845L279.588 59H278.343V47.75H279.698V51.9468C280.245 51.2681 280.999 50.9287 281.961 50.9287C282.923 50.9287 283.677 51.2925 284.224 52.02C284.776 52.7476 285.052 53.7437 285.052 55.0083V55.1255ZM283.697 54.9717C283.697 54.0488 283.519 53.3359 283.162 52.833C282.806 52.3301 282.293 52.0786 281.624 52.0786C280.73 52.0786 280.088 52.4937 279.698 53.3237V56.7515C280.113 57.5815 280.76 57.9966 281.639 57.9966C282.288 57.9966 282.793 57.7451 283.155 57.2422C283.516 56.7393 283.697 55.9824 283.697 54.9717ZM291.38 56.8979C291.38 56.5317 291.241 56.2485 290.962 56.0483C290.689 55.8433 290.208 55.6675 289.52 55.521C288.836 55.3745 288.292 55.1987 287.886 54.9937C287.486 54.7886 287.188 54.5444 286.993 54.2612C286.802 53.978 286.707 53.6411 286.707 53.2505C286.707 52.6011 286.98 52.0518 287.527 51.6025C288.079 51.1533 288.782 50.9287 289.637 50.9287C290.535 50.9287 291.263 51.1606 291.819 51.6245C292.381 52.0884 292.662 52.6816 292.662 53.4043H291.299C291.299 53.0332 291.141 52.7134 290.823 52.4448C290.511 52.1763 290.115 52.042 289.637 52.042C289.144 52.042 288.758 52.1494 288.479 52.3643C288.201 52.5791 288.062 52.8599 288.062 53.2065C288.062 53.5337 288.191 53.7803 288.45 53.9463C288.709 54.1123 289.175 54.271 289.849 54.4224C290.528 54.5737 291.077 54.7544 291.497 54.9644C291.917 55.1743 292.227 55.4282 292.427 55.7261C292.632 56.019 292.735 56.3779 292.735 56.8027C292.735 57.5107 292.452 58.0796 291.885 58.5093C291.319 58.9341 290.584 59.1465 289.681 59.1465C289.046 59.1465 288.484 59.0342 287.996 58.8096C287.508 58.585 287.125 58.2725 286.846 57.8721C286.573 57.4668 286.436 57.0298 286.436 56.561H287.791C287.815 57.0151 287.996 57.3765 288.333 57.645C288.675 57.9087 289.124 58.0405 289.681 58.0405C290.193 58.0405 290.604 57.938 290.911 57.7329C291.224 57.5229 291.38 57.2446 291.38 56.8979ZM297.679 58.0405C298.162 58.0405 298.584 57.894 298.946 57.6011C299.307 57.3081 299.507 56.9419 299.546 56.5024H300.828C300.804 56.9565 300.647 57.3887 300.359 57.7988C300.071 58.209 299.686 58.5361 299.202 58.7803C298.724 59.0244 298.216 59.1465 297.679 59.1465C296.6 59.1465 295.74 58.7876 295.101 58.0698C294.466 57.3472 294.148 56.3608 294.148 55.1108V54.8838C294.148 54.1123 294.29 53.4263 294.573 52.8257C294.856 52.2251 295.262 51.7588 295.789 51.4268C296.321 51.0947 296.949 50.9287 297.671 50.9287C298.56 50.9287 299.297 51.1948 299.883 51.7271C300.474 52.2593 300.789 52.9502 300.828 53.7998H299.546C299.507 53.2871 299.312 52.8672 298.96 52.54C298.614 52.208 298.184 52.042 297.671 52.042C296.983 52.042 296.448 52.291 296.067 52.7891C295.691 53.2822 295.503 53.9976 295.503 54.9351V55.1914C295.503 56.1045 295.691 56.8076 296.067 57.3008C296.443 57.7939 296.98 58.0405 297.679 58.0405ZM306.182 52.291C305.977 52.2568 305.755 52.2397 305.516 52.2397C304.627 52.2397 304.024 52.6182 303.707 53.375V59H302.352V51.0752H303.67L303.692 51.9907C304.136 51.2827 304.766 50.9287 305.582 50.9287C305.845 50.9287 306.045 50.9629 306.182 51.0312V52.291ZM308.907 59H307.552V51.0752H308.907V59ZM307.442 48.9731C307.442 48.7534 307.508 48.5679 307.64 48.4165C307.776 48.2651 307.977 48.1895 308.24 48.1895C308.504 48.1895 308.704 48.2651 308.841 48.4165C308.978 48.5679 309.046 48.7534 309.046 48.9731C309.046 49.1929 308.978 49.376 308.841 49.5225C308.704 49.6689 308.504 49.7422 308.24 49.7422C307.977 49.7422 307.776 49.6689 307.64 49.5225C307.508 49.376 307.442 49.1929 307.442 48.9731ZM317.776 55.1255C317.776 56.3315 317.5 57.3032 316.949 58.0405C316.397 58.7778 315.65 59.1465 314.708 59.1465C313.746 59.1465 312.989 58.8413 312.437 58.231V62.0469H311.082V51.0752H312.32L312.386 51.9541C312.938 51.2705 313.704 50.9287 314.686 50.9287C315.638 50.9287 316.39 51.2876 316.941 52.0054C317.498 52.7231 317.776 53.7217 317.776 55.001V55.1255ZM316.421 54.9717C316.421 54.0781 316.231 53.3726 315.85 52.855C315.469 52.3374 314.947 52.0786 314.283 52.0786C313.462 52.0786 312.847 52.4424 312.437 53.1699V56.9565C312.842 57.6792 313.462 58.0405 314.297 58.0405C314.947 58.0405 315.462 57.7842 315.843 57.2715C316.229 56.7539 316.421 55.9873 316.421 54.9717ZM321.343 49.1562V51.0752H322.823V52.1226H321.343V57.0371C321.343 57.3545 321.409 57.5938 321.541 57.7549C321.673 57.9111 321.897 57.9893 322.215 57.9893C322.371 57.9893 322.586 57.96 322.859 57.9014V59C322.503 59.0977 322.156 59.1465 321.819 59.1465C321.214 59.1465 320.757 58.9634 320.45 58.5972C320.142 58.231 319.988 57.7109 319.988 57.0371V52.1226H318.545V51.0752H319.988V49.1562H321.343ZM325.884 59H324.529V51.0752H325.884V59ZM324.419 48.9731C324.419 48.7534 324.485 48.5679 324.617 48.4165C324.754 48.2651 324.954 48.1895 325.218 48.1895C325.481 48.1895 325.682 48.2651 325.818 48.4165C325.955 48.5679 326.023 48.7534 326.023 48.9731C326.023 49.1929 325.955 49.376 325.818 49.5225C325.682 49.6689 325.481 49.7422 325.218 49.7422C324.954 49.7422 324.754 49.6689 324.617 49.5225C324.485 49.376 324.419 49.1929 324.419 48.9731ZM327.701 54.9644C327.701 54.188 327.852 53.4897 328.155 52.8696C328.462 52.2495 328.887 51.771 329.429 51.4341C329.976 51.0972 330.599 50.9287 331.297 50.9287C332.376 50.9287 333.248 51.3022 333.912 52.0493C334.581 52.7964 334.915 53.79 334.915 55.0303V55.1255C334.915 55.897 334.766 56.5903 334.468 57.2056C334.175 57.8159 333.753 58.292 333.201 58.6338C332.654 58.9756 332.024 59.1465 331.312 59.1465C330.237 59.1465 329.366 58.7729 328.697 58.0259C328.033 57.2788 327.701 56.29 327.701 55.0596V54.9644ZM329.063 55.1255C329.063 56.0044 329.266 56.71 329.671 57.2422C330.081 57.7744 330.628 58.0405 331.312 58.0405C332 58.0405 332.547 57.772 332.952 57.2349C333.357 56.6929 333.56 55.936 333.56 54.9644C333.56 54.0952 333.353 53.3921 332.938 52.855C332.527 52.313 331.98 52.042 331.297 52.042C330.628 52.042 330.088 52.3081 329.678 52.8403C329.268 53.3726 329.063 54.1343 329.063 55.1255ZM337.896 51.0752L337.94 52.0713C338.545 51.3096 339.336 50.9287 340.313 50.9287C341.988 50.9287 342.833 51.8735 342.847 53.7632V59H341.492V53.7559C341.487 53.1846 341.355 52.7622 341.097 52.4888C340.843 52.2153 340.445 52.0786 339.903 52.0786C339.463 52.0786 339.078 52.1958 338.746 52.4302C338.414 52.6646 338.155 52.9722 337.969 53.353V59H336.614V51.0752H337.896Z" fill="black"/>
<g filter="url(#filter3_d)">
<rect x="376" y="4" width="100" height="100" fill="#FFAF00"/>
</g>
<path d="M389.18 47V34.9141H392.591C393.643 34.9141 394.572 35.1465 395.38 35.6113C396.188 36.0762 396.811 36.7375 397.248 37.5952C397.691 38.453 397.915 39.438 397.92 40.5503V41.3223C397.92 42.4622 397.699 43.4611 397.256 44.3188C396.819 45.1766 396.191 45.8351 395.372 46.2944C394.559 46.7537 393.61 46.9889 392.525 47H389.18ZM390.773 36.2256V45.6968H392.45C393.679 45.6968 394.633 45.3149 395.314 44.5513C396 43.7876 396.343 42.7002 396.343 41.2891V40.5835C396.343 39.2111 396.02 38.1458 395.372 37.3877C394.73 36.624 393.817 36.2367 392.633 36.2256H390.773ZM404.437 39.3965C404.204 39.3577 403.952 39.3384 403.681 39.3384C402.674 39.3384 401.991 39.7673 401.631 40.625V47H400.095V38.0186H401.589L401.614 39.0562C402.118 38.2537 402.832 37.8525 403.756 37.8525C404.055 37.8525 404.282 37.8913 404.437 37.9688V39.3965ZM405.283 42.4263C405.283 41.5464 405.455 40.755 405.798 40.0522C406.146 39.3494 406.628 38.8071 407.242 38.4253C407.862 38.0435 408.568 37.8525 409.359 37.8525C410.582 37.8525 411.57 38.2759 412.322 39.1226C413.08 39.9692 413.459 41.0954 413.459 42.501V42.6089C413.459 43.4832 413.291 44.269 412.953 44.9663C412.621 45.658 412.142 46.1976 411.517 46.585C410.897 46.9723 410.183 47.166 409.375 47.166C408.158 47.166 407.17 46.7427 406.412 45.896C405.66 45.0493 405.283 43.9287 405.283 42.5342V42.4263ZM406.827 42.6089C406.827 43.605 407.057 44.4046 407.516 45.0078C407.981 45.611 408.601 45.9126 409.375 45.9126C410.156 45.9126 410.776 45.6082 411.235 44.9995C411.694 44.3853 411.924 43.5275 411.924 42.4263C411.924 41.4412 411.689 40.6444 411.218 40.0356C410.753 39.4214 410.134 39.1143 409.359 39.1143C408.601 39.1143 407.989 39.4159 407.524 40.019C407.06 40.6222 406.827 41.4855 406.827 42.6089ZM422.972 42.6089C422.972 43.9757 422.66 45.077 422.034 45.9126C421.409 46.7482 420.562 47.166 419.494 47.166C418.404 47.166 417.546 46.8201 416.921 46.1284V50.4531H415.385V38.0186H416.788L416.863 39.0146C417.488 38.2399 418.357 37.8525 419.469 37.8525C420.548 37.8525 421.401 38.2593 422.026 39.0728C422.657 39.8862 422.972 41.0179 422.972 42.4678V42.6089ZM421.437 42.4346C421.437 41.4219 421.221 40.6222 420.789 40.0356C420.357 39.4491 419.765 39.1558 419.013 39.1558C418.083 39.1558 417.386 39.568 416.921 40.3926V44.6841C417.38 45.5031 418.083 45.9126 419.029 45.9126C419.765 45.9126 420.349 45.6221 420.781 45.041C421.218 44.4544 421.437 43.5856 421.437 42.4346ZM424.558 42.4346C424.558 41.0566 424.884 39.9499 425.537 39.1143C426.19 38.2731 427.045 37.8525 428.102 37.8525C429.153 37.8525 429.986 38.2122 430.601 38.9316V34.25H432.136V47H430.725L430.65 46.0371C430.036 46.7897 429.181 47.166 428.085 47.166C427.045 47.166 426.196 46.7399 425.537 45.8877C424.884 45.0355 424.558 43.9232 424.558 42.5508V42.4346ZM426.093 42.6089C426.093 43.6271 426.304 44.424 426.724 44.9995C427.145 45.575 427.726 45.8628 428.467 45.8628C429.441 45.8628 430.152 45.4256 430.601 44.5513V40.4258C430.141 39.5791 429.436 39.1558 428.484 39.1558C427.731 39.1558 427.145 39.4463 426.724 40.0273C426.304 40.6084 426.093 41.4689 426.093 42.6089ZM434.12 42.4263C434.12 41.5464 434.292 40.755 434.635 40.0522C434.983 39.3494 435.465 38.8071 436.079 38.4253C436.699 38.0435 437.404 37.8525 438.196 37.8525C439.419 37.8525 440.407 38.2759 441.159 39.1226C441.917 39.9692 442.296 41.0954 442.296 42.501V42.6089C442.296 43.4832 442.128 44.269 441.79 44.9663C441.458 45.658 440.979 46.1976 440.354 46.585C439.734 46.9723 439.02 47.166 438.212 47.166C436.995 47.166 436.007 46.7427 435.249 45.896C434.496 45.0493 434.12 43.9287 434.12 42.5342V42.4263ZM435.664 42.6089C435.664 43.605 435.894 44.4046 436.353 45.0078C436.818 45.611 437.438 45.9126 438.212 45.9126C438.993 45.9126 439.612 45.6082 440.072 44.9995C440.531 44.3853 440.761 43.5275 440.761 42.4263C440.761 41.4412 440.526 40.6444 440.055 40.0356C439.59 39.4214 438.971 39.1143 438.196 39.1143C437.438 39.1143 436.826 39.4159 436.361 40.019C435.896 40.6222 435.664 41.4855 435.664 42.6089ZM452.174 44.8833L453.901 38.0186H455.437L452.822 47H451.577L449.394 40.1934L447.269 47H446.023L443.417 38.0186H444.944L446.712 44.7422L448.804 38.0186H450.041L452.174 44.8833ZM458.458 38.0186L458.508 39.1475C459.194 38.2842 460.09 37.8525 461.197 37.8525C463.095 37.8525 464.053 38.9233 464.069 41.0649V47H462.534V41.0566C462.528 40.4092 462.379 39.9305 462.085 39.6206C461.798 39.3107 461.347 39.1558 460.732 39.1558C460.234 39.1558 459.797 39.2886 459.421 39.5542C459.045 39.8198 458.751 40.1685 458.541 40.6001V47H457.005V38.0186H458.458ZM389.902 64.0186L389.952 65.1475C390.638 64.2842 391.534 63.8525 392.641 63.8525C394.539 63.8525 395.497 64.9233 395.513 67.0649V73H393.978V67.0566C393.972 66.4092 393.823 65.9305 393.529 65.6206C393.242 65.3107 392.791 65.1558 392.176 65.1558C391.678 65.1558 391.241 65.2886 390.865 65.5542C390.488 65.8198 390.195 66.1685 389.985 66.6001V73H388.449V64.0186H389.902ZM403.374 73C403.285 72.8229 403.214 72.5075 403.158 72.0537C402.444 72.7952 401.592 73.166 400.602 73.166C399.716 73.166 398.988 72.917 398.418 72.4189C397.854 71.9154 397.572 71.279 397.572 70.5098C397.572 69.5745 397.926 68.8496 398.634 68.335C399.348 67.8148 400.35 67.5547 401.639 67.5547H403.133V66.8491C403.133 66.3123 402.973 65.8862 402.652 65.5708C402.331 65.2498 401.858 65.0894 401.232 65.0894C400.685 65.0894 400.225 65.2277 399.854 65.5044C399.484 65.7811 399.298 66.1159 399.298 66.5088H397.754C397.754 66.0605 397.912 65.6289 398.228 65.2139C398.549 64.7933 398.98 64.4613 399.522 64.2178C400.07 63.9743 400.671 63.8525 401.324 63.8525C402.359 63.8525 403.169 64.1126 403.756 64.6328C404.342 65.1475 404.647 65.8586 404.669 66.7661V70.8999C404.669 71.7244 404.774 72.3802 404.984 72.8672V73H403.374ZM400.826 71.8296C401.307 71.8296 401.764 71.7051 402.195 71.4561C402.627 71.207 402.94 70.8833 403.133 70.4849V68.6421H401.93C400.048 68.6421 399.107 69.1927 399.107 70.2939C399.107 70.7754 399.268 71.1517 399.589 71.4229C399.91 71.694 400.322 71.8296 400.826 71.8296ZM409.907 70.9165L412.131 64.0186H413.7L410.479 73H409.309L406.055 64.0186H407.624L409.907 70.9165ZM416.846 73H415.311V64.0186H416.846V73ZM415.186 61.6362C415.186 61.3872 415.261 61.1769 415.41 61.0054C415.565 60.8338 415.792 60.748 416.091 60.748C416.39 60.748 416.617 60.8338 416.771 61.0054C416.926 61.1769 417.004 61.3872 417.004 61.6362C417.004 61.8853 416.926 62.0928 416.771 62.2588C416.617 62.4248 416.39 62.5078 416.091 62.5078C415.792 62.5078 415.565 62.4248 415.41 62.2588C415.261 62.0928 415.186 61.8853 415.186 61.6362ZM418.946 68.4346C418.946 67.0345 419.27 65.9222 419.917 65.0977C420.565 64.2676 421.423 63.8525 422.491 63.8525C423.586 63.8525 424.441 64.2399 425.056 65.0146L425.13 64.0186H426.533V72.7842C426.533 73.9463 426.187 74.8621 425.496 75.5317C424.809 76.2013 423.885 76.5361 422.723 76.5361C422.076 76.5361 421.442 76.3978 420.822 76.1211C420.202 75.8444 419.729 75.4653 419.403 74.9839L420.2 74.0625C420.858 74.876 421.663 75.2827 422.615 75.2827C423.362 75.2827 423.943 75.0724 424.358 74.6519C424.779 74.2313 424.989 73.6392 424.989 72.8755V72.1035C424.375 72.8118 423.537 73.166 422.474 73.166C421.423 73.166 420.57 72.7427 419.917 71.896C419.27 71.0493 418.946 69.8955 418.946 68.4346ZM420.49 68.6089C420.49 69.6216 420.698 70.4185 421.113 70.9995C421.528 71.575 422.109 71.8628 422.856 71.8628C423.824 71.8628 424.535 71.4229 424.989 70.543V66.4424C424.519 65.5846 423.813 65.1558 422.873 65.1558C422.125 65.1558 421.542 65.4463 421.121 66.0273C420.701 66.6084 420.49 67.4689 420.49 68.6089ZM434.402 73C434.314 72.8229 434.242 72.5075 434.187 72.0537C433.473 72.7952 432.62 73.166 431.63 73.166C430.744 73.166 430.017 72.917 429.447 72.4189C428.882 71.9154 428.6 71.279 428.6 70.5098C428.6 69.5745 428.954 68.8496 429.663 68.335C430.376 67.8148 431.378 67.5547 432.667 67.5547H434.162V66.8491C434.162 66.3123 434.001 65.8862 433.68 65.5708C433.359 65.2498 432.886 65.0894 432.261 65.0894C431.713 65.0894 431.254 65.2277 430.883 65.5044C430.512 65.7811 430.327 66.1159 430.327 66.5088H428.783C428.783 66.0605 428.94 65.6289 429.256 65.2139C429.577 64.7933 430.008 64.4613 430.551 64.2178C431.099 63.9743 431.699 63.8525 432.352 63.8525C433.387 63.8525 434.198 64.1126 434.784 64.6328C435.371 65.1475 435.675 65.8586 435.697 66.7661V70.8999C435.697 71.7244 435.802 72.3802 436.013 72.8672V73H434.402ZM431.854 71.8296C432.335 71.8296 432.792 71.7051 433.224 71.4561C433.655 71.207 433.968 70.8833 434.162 70.4849V68.6421H432.958C431.076 68.6421 430.136 69.1927 430.136 70.2939C430.136 70.7754 430.296 71.1517 430.617 71.4229C430.938 71.694 431.35 71.8296 431.854 71.8296ZM440.188 61.8438V64.0186H441.865V65.2056H440.188V70.7754C440.188 71.1351 440.263 71.4062 440.412 71.5889C440.562 71.766 440.816 71.8545 441.176 71.8545C441.353 71.8545 441.596 71.8213 441.906 71.7549V73C441.502 73.1107 441.109 73.166 440.728 73.166C440.041 73.166 439.524 72.9585 439.175 72.5435C438.827 72.1284 438.652 71.5391 438.652 70.7754V65.2056H437.017V64.0186H438.652V61.8438H440.188ZM445.334 73H443.799V64.0186H445.334V73ZM443.674 61.6362C443.674 61.3872 443.749 61.1769 443.898 61.0054C444.053 60.8338 444.28 60.748 444.579 60.748C444.878 60.748 445.105 60.8338 445.26 61.0054C445.415 61.1769 445.492 61.3872 445.492 61.6362C445.492 61.8853 445.415 62.0928 445.26 62.2588C445.105 62.4248 444.878 62.5078 444.579 62.5078C444.28 62.5078 444.053 62.4248 443.898 62.2588C443.749 62.0928 443.674 61.8853 443.674 61.6362ZM447.393 68.4263C447.393 67.5464 447.565 66.755 447.908 66.0522C448.256 65.3494 448.738 64.8071 449.352 64.4253C449.972 64.0435 450.677 63.8525 451.469 63.8525C452.692 63.8525 453.68 64.2759 454.432 65.1226C455.19 65.9692 455.569 67.0954 455.569 68.501V68.6089C455.569 69.4832 455.401 70.269 455.063 70.9663C454.731 71.658 454.252 72.1976 453.627 72.585C453.007 72.9723 452.293 73.166 451.485 73.166C450.268 73.166 449.28 72.7427 448.522 71.896C447.769 71.0493 447.393 69.9287 447.393 68.5342V68.4263ZM448.937 68.6089C448.937 69.605 449.167 70.4046 449.626 71.0078C450.091 71.611 450.711 71.9126 451.485 71.9126C452.266 71.9126 452.885 71.6082 453.345 70.9995C453.804 70.3853 454.034 69.5275 454.034 68.4263C454.034 67.4412 453.799 66.6444 453.328 66.0356C452.863 65.4214 452.243 65.1143 451.469 65.1143C450.711 65.1143 450.099 65.4159 449.634 66.019C449.169 66.6222 448.937 67.4855 448.937 68.6089ZM458.948 64.0186L458.998 65.1475C459.684 64.2842 460.58 63.8525 461.687 63.8525C463.585 63.8525 464.542 64.9233 464.559 67.0649V73H463.023V67.0566C463.018 66.4092 462.868 65.9305 462.575 65.6206C462.287 65.3107 461.836 65.1558 461.222 65.1558C460.724 65.1558 460.287 65.2886 459.911 65.5542C459.534 65.8198 459.241 66.1685 459.031 66.6001V73H457.495V64.0186H458.948Z" fill="black"/>
<defs>
<filter id="filter0_d" x="0" y="0" width="114" height="114" filterUnits="userSpaceOnUse" color-interpolation-filters="sRGB">
<feFlood flood-opacity="0" result="BackgroundImageFix"/>
<feColorMatrix in="SourceAlpha" type="matrix" values="0 0 0 0 0 0 0 0 0 0 0 0 0 0 0 0 0 0 127 0"/>
<feOffset dx="3" dy="3"/>
<feGaussianBlur stdDeviation="3.5"/>
<feColorMatrix type="matrix" values="0 0 0 0 0 0 0 0 0 0 0 0 0 0 0 0 0 0 0.1 0"/>
<feBlend mode="normal" in2="BackgroundImageFix" result="effect1_dropShadow"/>
<feBlend mode="normal" in="SourceGraphic" in2="effect1_dropShadow" result="shape"/>
</filter>
<filter id="filter1_d" x="124" y="0" width="114" height="114" filterUnits="userSpaceOnUse" color-interpolation-filters="sRGB">
<feFlood flood-opacity="0" result="BackgroundImageFix"/>
<feColorMatrix in="SourceAlpha" type="matrix" values="0 0 0 0 0 0 0 0 0 0 0 0 0 0 0 0 0 0 127 0"/>
<feOffset dx="3" dy="3"/>
<feGaussianBlur stdDeviation="3.5"/>
<feColorMatrix type="matrix" values="0 0 0 0 0 0 0 0 0 0 0 0 0 0 0 0 0 0 0.1 0"/>
<feBlend mode="normal" in2="BackgroundImageFix" result="effect1_dropShadow"/>
<feBlend mode="normal" in="SourceGraphic" in2="effect1_dropShadow" result="shape"/>
</filter>
<filter id="filter2_d" x="248" y="0" width="114" height="114" filterUnits="userSpaceOnUse" color-interpolation-filters="sRGB">
<feFlood flood-opacity="0" result="BackgroundImageFix"/>
<feColorMatrix in="SourceAlpha" type="matrix" values="0 0 0 0 0 0 0 0 0 0 0 0 0 0 0 0 0 0 127 0"/>
<feOffset dx="3" dy="3"/>
<feGaussianBlur stdDeviation="3.5"/>
<feColorMatrix type="matrix" values="0 0 0 0 0 0 0 0 0 0 0 0 0 0 0 0 0 0 0.1 0"/>
<feBlend mode="normal" in2="BackgroundImageFix" result="effect1_dropShadow"/>
<feBlend mode="normal" in="SourceGraphic" in2="effect1_dropShadow" result="shape"/>
</filter>
<filter id="filter3_d" x="372" y="0" width="114" height="114" filterUnits="userSpaceOnUse" color-interpolation-filters="sRGB">
<feFlood flood-opacity="0" result="BackgroundImageFix"/>
<feColorMatrix in="SourceAlpha" type="matrix" values="0 0 0 0 0 0 0 0 0 0 0 0 0 0 0 0 0 0 127 0"/>
<feOffset dx="3" dy="3"/>
<feGaussianBlur stdDeviation="3.5"/>
<feColorMatrix type="matrix" values="0 0 0 0 0 0 0 0 0 0 0 0 0 0 0 0 0 0 0.1 0"/>
<feBlend mode="normal" in2="BackgroundImageFix" result="effect1_dropShadow"/>
<feBlend mode="normal" in="SourceGraphic" in2="effect1_dropShadow" result="shape"/>
</filter>
</defs>
</svg>
