<svg width="200" height="200" viewBox="0 0 200 200" fill="none" xmlns="http://www.w3.org/2000/svg">
<path d="M100 200C155.228 200 200 155.228 200 100C200 44.7715 155.228 0 100 0C44.7715 0 0 44.7715 0 100C0 155.228 44.7715 200 100 200Z" fill="#6D91EA" fill-opacity="0.3"/>
<mask id="mask0" mask-type="alpha" maskUnits="userSpaceOnUse" x="0" y="0" width="200" height="200">
<path d="M100 200C155.228 200 200 155.228 200 100C200 44.7715 155.228 0 100 0C44.7715 0 0 44.7715 0 100C0 155.228 44.7715 200 100 200Z" fill="#6D91EA"/>
</mask>
<g mask="url(#mask0)">
<path d="M98.2459 106.961C198.142 106.961 213.499 207.764 150.813 266.477L98.2459 242.099H63.2009L58.6507 263.74L24.9033 212.3C18.7615 167.861 25.9864 106.961 98.2459 106.961Z" fill="#28BF89"/>
<path d="M105.827 105.338C105.827 109.428 106.336 115.373 105 117.861C103.135 121.321 94.2979 121.715 92.3879 117.739C91.3498 115.608 91.0557 112.027 91.0557 105.338V94.4626C86.772 90.3934 87.5955 81.5214 87.5955 73.4488L100.312 67.8848L105.893 75.345L109.194 77.6979L105.824 93.7671L105.827 105.338Z" fill="#AB5531"/>
<path d="M95.793 97.2162C95.7818 97.3184 95.7332 97.4128 95.6565 97.4812C95.5798 97.5496 95.4805 97.5871 95.3777 97.5865H95.3293C93.7528 97.3995 92.2694 96.741 91.0732 95.6972V94.4619C92.3881 96.0155 93.9521 96.4619 95.4539 96.718C95.5637 96.7414 95.6602 96.8063 95.7234 96.8991C95.7866 96.9919 95.8115 97.1055 95.793 97.2162V97.2162Z" fill="#572B19"/>
<path d="M101.935 79.3238C102.364 81.4899 103.447 81.7702 104.229 80.6698C105.845 78.3999 108.101 80.1439 107.745 82.1958C107.212 85.2581 106.215 86.1058 105.257 86.4173C103.579 86.9674 105.447 92.5833 105.828 93.7667C106.209 94.9501 108.053 95.8775 110.191 95.7944C112.658 95.701 115.281 92.0089 113.651 89.1024C112.558 87.1335 115.648 85.9259 116.624 84.7667C117.6 83.6076 117.821 81.919 117.821 80.4657C117.821 79.3757 118.478 78.3411 118.807 77.3238C119.205 76.0989 119.714 74.8429 119.603 73.5522C119.364 70.8221 117.741 70.3999 116.952 68.9951C116.164 67.5903 116.824 65.5591 115.309 63.7702C113.731 61.9086 112.226 62.7321 110.669 61.8463C109.804 61.3619 109.738 59.4865 107.454 58.7529C105.724 58.1923 104.42 59.5557 102.721 58.8809C102.165 58.6178 101.641 58.2916 101.16 57.9086C99.9386 57.0608 98.6237 56.8117 97.2535 57.4622C96.3642 57.8844 95.6237 58.8256 94.6722 59.0781C93.25 59.4519 92.4127 57.9916 89.4473 59.0366C88.4992 59.3826 87.9282 60.2442 87.5199 61.1128C87.2085 61.7702 86.9455 62.4726 86.4265 62.9813C85.6791 63.7148 84.603 63.8948 83.686 64.3238C83.1845 64.5521 82.7389 64.8872 82.3804 65.3055C82.0218 65.7239 81.7588 66.2155 81.6099 66.746C81.3824 67.7394 81.405 68.7738 81.6756 69.7563C81.8033 70.1668 81.8834 70.5906 81.9144 71.0193C81.9144 71.7114 81.475 72.1093 81.039 72.566C80.577 73.0542 80.2699 73.6682 80.1566 74.3307C79.9732 75.4726 80.4058 76.611 81.0286 77.5522C81.3988 78.1093 82.0182 78.4968 82.1912 79.1716C82.4196 80.0747 81.9767 81.0262 81.8867 81.919C81.8517 82.6285 82.0175 83.3334 82.3652 83.9528C82.7129 84.5723 83.2283 85.0811 83.8521 85.4207C84.4465 85.7249 85.1141 85.8568 85.7795 85.8013C86.0251 85.8013 87.6999 85.656 87.6791 85.3653C87.5273 83.13 87.5783 80.8856 87.8314 78.6595C88.0286 77.3134 89.7414 74.8532 91.7275 74.5349C93.7137 74.2166 97.5303 74.1681 99.0667 74.9778C100.226 75.6214 101.51 77.175 101.935 79.3238Z" fill="#070707"/>
</g>
</svg>
