<svg width="201" height="200" viewBox="0 0 201 200" fill="none" xmlns="http://www.w3.org/2000/svg">
<path d="M100.312 200C155.54 200 200.312 155.228 200.312 100C200.312 44.7715 155.54 0 100.312 0C45.083 0 0.311523 44.7715 0.311523 100C0.311523 155.228 45.083 200 100.312 200Z" fill="#28BF89" fill-opacity="0.3"/>
<mask id="mask0" mask-type="alpha" maskUnits="userSpaceOnUse" x="0" y="0" width="200" height="200">
<path d="M100.139 200C155.272 200 199.966 155.228 199.966 100C199.966 44.7715 155.272 0 100.139 0C45.0057 0 0.311523 44.7715 0.311523 100C0.311523 155.228 45.0057 200 100.139 200Z" fill="#FFE5BA"/>
</mask>
<g mask="url(#mask0)">
<path d="M183.354 221.32H16.8976V159.585C16.8976 132.296 62.0409 96.0176 99.1946 96.0176C128.656 96.0176 183.353 119.17 183.354 156.13V221.32Z" fill="#FCBD0E"/>
<path d="M106.984 58.1904C106.984 58.1904 109.609 59.8174 109.609 64.2733C109.609 68.5359 106.984 75.5065 106.984 80.9953V101.261C106.984 107.949 92.1649 107.517 92.1649 101.261V82.9296C92.12 82.8993 92.0773 82.8658 92.0371 82.8295C86.2029 78.6222 87.6813 67.4305 87.6813 58.7707L106.984 58.1904Z" fill="#FFC599"/>
<path d="M97.5403 84.6815C97.5417 84.7487 97.5298 84.8154 97.5054 84.878C97.4809 84.9405 97.4444 84.9977 97.3979 85.0461C97.3514 85.0945 97.2958 85.1333 97.2343 85.1603C97.1728 85.1872 97.1066 85.2018 97.0394 85.2031H96.8702C96.2346 85.2031 93.9375 85.1202 92.1655 84.1392V82.9302C92.1206 82.8999 92.0779 82.8664 92.0377 82.8301L92.0895 82.8577C93.8166 84.2809 96.9565 84.2014 96.998 84.2014C97.133 84.1956 97.2649 84.2424 97.3661 84.332C97.4672 84.4215 97.5297 84.5469 97.5403 84.6815V84.6815Z" fill="#BD634A"/>
<path d="M100.791 59.3755C97.7165 60.7572 88.3555 62.0905 87.5161 61.448C87.4459 60.8347 87.4205 60.2171 87.4401 59.6C87.8719 55.0093 92.3693 51.7555 96.6422 50.6536C100.787 49.5862 105.92 49.9627 109.609 52.3081C112.29 53.9973 113.409 57.1717 113.848 59.2684C115.302 66.2529 111.392 75.5378 106.97 81.5102V74.6017C106.97 74.6017 109.229 68.9817 108.352 67.2028C107.982 66.4498 107.209 66.0249 106.404 66.4429C105.368 66.9817 105.333 67.9454 104.815 68.8366C104.338 69.6587 103.433 68.9437 102.908 68.5672C102.313 68.1654 101.775 67.683 101.312 67.1337C100.362 65.9385 100.618 61.6967 100.791 59.3755Z" fill="black"/>
</g>
</svg>
