<svg width="200" height="200" viewBox="0 0 200 200" fill="none" xmlns="http://www.w3.org/2000/svg">
<circle cx="99.6555" cy="100.344" r="99.6555" fill="#FCBD0E" fill-opacity="0.3"/>
<mask id="mask0" mask-type="alpha" maskUnits="userSpaceOnUse" x="0" y="0" width="200" height="200">
<circle cx="99.6555" cy="99.6555" r="99.6555" fill="#FCBD0E"/>
</mask>
<g mask="url(#mask0)">
<path d="M154.507 187.864L209.566 240.736C209.387 239.185 209.2 237.526 208.99 235.781C208.645 232.922 208.28 229.819 207.825 226.526C203.718 196.388 193.766 150.222 157.873 125.836C157.214 125.381 156.542 124.939 155.859 124.505C151.62 121.798 147.158 119.459 142.521 117.512C139.362 143.488 143.155 166.267 154.507 187.864Z" fill="#F0253D"/>
<path d="M49.6087 117.737C66.2433 112.761 83.1985 109.437 98.8951 109.437C116.016 109.437 130.399 112.423 142.523 117.523C139.364 143.492 143.154 166.268 154.506 187.868L139.626 245.916H62.5088L47.8225 186.261C55.0984 164.164 56.195 144.137 49.6087 117.737Z" fill="#F0253D"/>
<path d="M75.137 111.629C82.98 110.226 90.9282 109.492 98.8957 109.436C106.475 109.408 114.042 110.054 121.506 111.367C121.672 104.567 120.623 97.7361 117.085 95.6947C120.265 90.5395 117.151 78.6153 112.582 76.0394C120.858 73.3774 119.447 61.3773 110.282 61.7739C108.558 53.2462 98.8371 51.9566 94.3784 59.1945C88.1267 58.4014 82.7749 63.067 83.4646 74.0739C75.3335 75.8601 75.137 88.3533 78.2059 93.7085C73.5439 98.0499 74.1266 106.309 75.137 111.629Z" fill="black"/>
<path d="M92.8101 79.4876V113.55C92.8101 120.353 106.314 120.353 106.314 113.55V93.1187C110.3 90.8429 110.3 86.0635 110.3 73.5704C110.3 73.5704 104.393 74.0325 102.803 69.9531C102.341 72.4428 98.9308 78.1187 92.8101 79.4876Z" fill="#FFC599"/>
<path d="M101.04 94.76C101.035 94.8248 101.043 94.8899 101.064 94.9515C101.084 95.0131 101.117 95.0701 101.16 95.1191C101.202 95.1681 101.254 95.2083 101.312 95.2372C101.37 95.2661 101.434 95.2832 101.498 95.2876H101.798C103.351 95.2803 104.883 94.9269 106.281 94.2531V93.1221C106.25 93.1221 106.219 93.1531 106.188 93.1634C104.766 93.9327 103.17 94.3223 101.554 94.2945C101.426 94.2955 101.303 94.3434 101.208 94.4293C101.113 94.5152 101.053 94.6329 101.04 94.76Z" fill="#BD634A"/>
<path d="M15.9125 193.702L47.8195 186.243C55.0954 164.174 56.1919 144.136 49.6057 117.736C28.0401 124.188 6.78142 133.019 -10.3428 141.23L15.9125 193.702Z" fill="#F0253D"/>
</g>
</svg>
