<svg width="375" height="375" viewBox="0 0 375 375" fill="none" xmlns="http://www.w3.org/2000/svg">
<path d="M362.532 254.731C379.129 211.522 379.157 163.701 362.61 120.473C346.064 77.2451 314.113 41.6649 272.907 20.5812C231.701 -0.502591 184.153 -5.59972 139.414 6.27088C94.6755 18.1415 55.9087 46.1408 30.5756 84.8795C5.24245 123.618 -4.86648 170.358 2.19455 216.103C9.25557 261.848 32.9875 303.365 68.8224 332.662C104.657 361.959 150.062 376.965 196.298 374.793C242.534 372.622 286.332 353.424 319.263 320.897L227.013 227.503C217.137 237.257 204.003 243.014 190.138 243.665C176.273 244.316 162.657 239.816 151.911 231.031C141.165 222.245 134.049 209.795 131.931 196.077C129.814 182.36 132.845 168.343 140.442 156.726C148.039 145.11 159.664 136.713 173.08 133.153C186.496 129.594 200.755 131.122 213.112 137.445C225.468 143.767 235.05 154.437 240.012 167.4C244.974 180.363 244.965 194.704 239.988 207.661L362.532 254.731Z" fill="#FCBD0E"/>
<path d="M375 187.5C375 158.901 368.458 130.68 355.874 104.998C343.29 79.3164 324.998 56.8533 302.397 39.3281C279.797 21.8029 253.486 9.67996 225.48 3.88689C197.473 -1.90618 168.513 -1.21583 140.814 5.90512C113.116 13.0261 87.4131 26.3889 65.6733 44.9711C43.9334 63.5533 26.7324 86.8624 15.3864 113.115C4.04045 139.367 -1.14974 167.867 0.212967 196.434C1.57568 225.001 9.45517 252.877 23.2485 277.931L138.254 214.613C134.118 207.102 131.756 198.744 131.347 190.179C130.938 181.614 132.495 173.069 135.896 165.198C139.298 157.327 144.455 150.338 150.974 144.767C157.492 139.195 165.198 135.189 173.503 133.054C181.807 130.919 190.49 130.712 198.887 132.449C207.284 134.185 215.173 137.82 221.949 143.075C228.725 148.329 234.209 155.064 237.982 162.764C241.755 170.464 243.717 178.925 243.717 187.5H375Z" fill="#28BF89"/>
<path d="M375 187.5C375 222.063 365.447 255.954 347.395 285.428C329.343 314.903 303.496 338.814 272.708 354.521C241.92 370.228 207.389 377.119 172.931 374.433C138.472 371.747 105.426 359.589 77.4436 339.302L154.288 233.31C162.732 239.433 172.704 243.102 183.103 243.912C193.502 244.723 203.923 242.643 213.214 237.903C222.505 233.163 230.305 225.947 235.753 217.052C241.2 208.158 244.083 197.93 244.083 187.5H375Z" fill="#6D91EA"/>
<path d="M143.423 77.3801H134.713V82.5541C135.077 82.0688 135.614 81.6615 136.325 81.3321C137.053 81.0028 137.824 80.8381 138.639 80.8381C140.095 80.8381 141.273 81.1501 142.175 81.7741C143.093 82.3981 143.743 83.1868 144.125 84.1401C144.523 85.0935 144.723 86.0988 144.723 87.1561C144.723 88.4388 144.471 89.5828 143.969 90.5881C143.483 91.5761 142.747 92.3561 141.759 92.9281C140.788 93.5001 139.592 93.7861 138.171 93.7861C136.281 93.7861 134.765 93.3181 133.621 92.3821C132.477 91.4461 131.792 90.2068 131.567 88.6641H134.453C134.643 89.4788 135.068 90.1288 135.727 90.6141C136.385 91.0821 137.209 91.3161 138.197 91.3161C139.427 91.3161 140.346 90.9435 140.953 90.1981C141.577 89.4528 141.889 88.4648 141.889 87.2341C141.889 85.9861 141.577 85.0328 140.953 84.3741C140.329 83.6981 139.41 83.3601 138.197 83.3601C137.347 83.3601 136.628 83.5768 136.039 84.0101C135.467 84.4261 135.051 84.9981 134.791 85.7261H131.983V74.7801H143.423V77.3801ZM151.006 83.8801C149.204 82.9788 148.302 81.5575 148.302 79.6161C148.302 78.6801 148.536 77.8221 149.004 77.0421C149.472 76.2621 150.174 75.6468 151.11 75.1961C152.046 74.7281 153.19 74.4941 154.542 74.4941C155.877 74.4941 157.012 74.7281 157.948 75.1961C158.902 75.6468 159.612 76.2621 160.08 77.0421C160.548 77.8221 160.782 78.6801 160.782 79.6161C160.782 80.5868 160.531 81.4448 160.028 82.1901C159.543 82.9181 158.893 83.4815 158.078 83.8801C159.066 84.2441 159.846 84.8421 160.418 85.6741C160.99 86.4888 161.276 87.4508 161.276 88.5601C161.276 89.6868 160.99 90.6835 160.418 91.5501C159.846 92.4168 159.049 93.0841 158.026 93.5521C157.004 94.0201 155.842 94.2541 154.542 94.2541C153.242 94.2541 152.081 94.0201 151.058 93.5521C150.053 93.0841 149.264 92.4168 148.692 91.5501C148.12 90.6835 147.834 89.6868 147.834 88.5601C147.834 87.4335 148.12 86.4628 148.692 85.6481C149.264 84.8335 150.036 84.2441 151.006 83.8801ZM157.948 79.9801C157.948 79.0095 157.645 78.2641 157.038 77.7441C156.432 77.2241 155.6 76.9641 154.542 76.9641C153.502 76.9641 152.679 77.2241 152.072 77.7441C151.466 78.2641 151.162 79.0181 151.162 80.0061C151.162 80.8728 151.474 81.5835 152.098 82.1381C152.74 82.6755 153.554 82.9441 154.542 82.9441C155.53 82.9441 156.345 82.6668 156.986 82.1121C157.628 81.5575 157.948 80.8468 157.948 79.9801ZM154.542 85.1801C153.398 85.1801 152.462 85.4661 151.734 86.0381C151.024 86.5928 150.668 87.3988 150.668 88.4561C150.668 89.4441 151.015 90.2501 151.708 90.8741C152.402 91.4808 153.346 91.7841 154.542 91.7841C155.721 91.7841 156.648 91.4721 157.324 90.8481C158.018 90.2241 158.364 89.4268 158.364 88.4561C158.364 87.4161 158.009 86.6101 157.298 86.0381C156.605 85.4661 155.686 85.1801 154.542 85.1801ZM163.92 79.4081C163.92 78.1428 164.284 77.1548 165.012 76.4441C165.758 75.7161 166.711 75.3521 167.872 75.3521C169.034 75.3521 169.978 75.7161 170.706 76.4441C171.452 77.1548 171.824 78.1428 171.824 79.4081C171.824 80.6735 171.452 81.6701 170.706 82.3981C169.978 83.1261 169.034 83.4901 167.872 83.4901C166.711 83.4901 165.758 83.1261 165.012 82.3981C164.284 81.6701 163.92 80.6735 163.92 79.4081ZM179.78 75.6901L169.406 93.7861H166.494L176.868 75.6901H179.78ZM167.872 77.1461C166.78 77.1461 166.234 77.9001 166.234 79.4081C166.234 80.9335 166.78 81.6961 167.872 81.6961C168.392 81.6961 168.791 81.5141 169.068 81.1501C169.363 80.7688 169.51 80.1881 169.51 79.4081C169.51 77.9001 168.964 77.1461 167.872 77.1461ZM174.502 90.0421C174.502 88.7768 174.866 87.7888 175.594 87.0781C176.34 86.3501 177.293 85.9861 178.454 85.9861C179.598 85.9861 180.534 86.3501 181.262 87.0781C182.008 87.7888 182.38 88.7768 182.38 90.0421C182.38 91.3075 182.008 92.3041 181.262 93.0321C180.534 93.7601 179.598 94.1241 178.454 94.1241C177.293 94.1241 176.34 93.7601 175.594 93.0321C174.866 92.3041 174.502 91.3075 174.502 90.0421ZM178.428 87.7801C177.336 87.7801 176.79 88.5341 176.79 90.0421C176.79 91.5501 177.336 92.3041 178.428 92.3041C179.52 92.3041 180.066 91.5501 180.066 90.0421C180.066 88.5341 179.52 87.7801 178.428 87.7801Z" fill="white"/>
<path d="M229.722 291.655C229.826 290.043 230.442 288.786 231.568 287.885C232.712 286.983 234.168 286.533 235.936 286.533C237.15 286.533 238.198 286.749 239.082 287.183C239.966 287.616 240.634 288.205 241.084 288.951C241.535 289.696 241.76 290.537 241.76 291.473C241.76 292.547 241.474 293.466 240.902 294.229C240.33 294.991 239.646 295.503 238.848 295.763V295.867C239.871 296.179 240.668 296.751 241.24 297.583C241.812 298.397 242.098 299.446 242.098 300.729C242.098 301.751 241.864 302.661 241.396 303.459C240.928 304.256 240.235 304.889 239.316 305.357C238.398 305.807 237.297 306.033 236.014 306.033C234.142 306.033 232.6 305.556 231.386 304.603C230.19 303.632 229.549 302.245 229.462 300.443H232.322C232.392 301.361 232.747 302.115 233.388 302.705C234.03 303.277 234.896 303.563 235.988 303.563C237.046 303.563 237.86 303.277 238.432 302.705C239.004 302.115 239.29 301.361 239.29 300.443C239.29 299.229 238.9 298.371 238.12 297.869C237.358 297.349 236.179 297.089 234.584 297.089H233.908V294.645H234.61C236.014 294.627 237.08 294.393 237.808 293.943C238.554 293.492 238.926 292.781 238.926 291.811C238.926 290.979 238.658 290.32 238.12 289.835C237.583 289.332 236.82 289.081 235.832 289.081C234.862 289.081 234.108 289.332 233.57 289.835C233.033 290.32 232.712 290.927 232.608 291.655H229.722ZM257.432 289.523H248.722V294.697C249.086 294.211 249.623 293.804 250.334 293.475C251.062 293.145 251.833 292.981 252.648 292.981C254.104 292.981 255.282 293.293 256.184 293.917C257.102 294.541 257.752 295.329 258.134 296.283C258.532 297.236 258.732 298.241 258.732 299.299C258.732 300.581 258.48 301.725 257.978 302.731C257.492 303.719 256.756 304.499 255.768 305.071C254.797 305.643 253.601 305.929 252.18 305.929C250.29 305.929 248.774 305.461 247.63 304.525C246.486 303.589 245.801 302.349 245.576 300.807H248.462C248.652 301.621 249.077 302.271 249.736 302.757C250.394 303.225 251.218 303.459 252.206 303.459C253.436 303.459 254.355 303.086 254.962 302.341C255.586 301.595 255.898 300.607 255.898 299.377C255.898 298.129 255.586 297.175 254.962 296.517C254.338 295.841 253.419 295.503 252.206 295.503C251.356 295.503 250.637 295.719 250.048 296.153C249.476 296.569 249.06 297.141 248.8 297.869H245.992V286.923H257.432V289.523ZM261.349 291.551C261.349 290.285 261.713 289.297 262.441 288.587C263.187 287.859 264.14 287.495 265.301 287.495C266.463 287.495 267.407 287.859 268.135 288.587C268.881 289.297 269.253 290.285 269.253 291.551C269.253 292.816 268.881 293.813 268.135 294.541C267.407 295.269 266.463 295.633 265.301 295.633C264.14 295.633 263.187 295.269 262.441 294.541C261.713 293.813 261.349 292.816 261.349 291.551ZM277.209 287.833L266.835 305.929H263.923L274.297 287.833H277.209ZM265.301 289.289C264.209 289.289 263.663 290.043 263.663 291.551C263.663 293.076 264.209 293.839 265.301 293.839C265.821 293.839 266.22 293.657 266.497 293.293C266.792 292.911 266.939 292.331 266.939 291.551C266.939 290.043 266.393 289.289 265.301 289.289ZM271.931 302.185C271.931 300.919 272.295 299.931 273.023 299.221C273.769 298.493 274.722 298.129 275.883 298.129C277.027 298.129 277.963 298.493 278.691 299.221C279.437 299.931 279.809 300.919 279.809 302.185C279.809 303.45 279.437 304.447 278.691 305.175C277.963 305.903 277.027 306.267 275.883 306.267C274.722 306.267 273.769 305.903 273.023 305.175C272.295 304.447 271.931 303.45 271.931 302.185ZM275.857 299.923C274.765 299.923 274.219 300.677 274.219 302.185C274.219 303.693 274.765 304.447 275.857 304.447C276.949 304.447 277.495 303.693 277.495 302.185C277.495 300.677 276.949 299.923 275.857 299.923Z" fill="white"/>
<path d="M65.0006 275.334L57.7726 292H54.7826L62.0886 275.646H52.4686V273.124H65.0006V275.334ZM67.0694 277.622C67.0694 276.357 67.4334 275.369 68.1614 274.658C68.9068 273.93 69.8601 273.566 71.0214 273.566C72.1828 273.566 73.1274 273.93 73.8554 274.658C74.6008 275.369 74.9734 276.357 74.9734 277.622C74.9734 278.887 74.6008 279.884 73.8554 280.612C73.1274 281.34 72.1828 281.704 71.0214 281.704C69.8601 281.704 68.9068 281.34 68.1614 280.612C67.4334 279.884 67.0694 278.887 67.0694 277.622ZM82.9294 273.904L72.5554 292H69.6434L80.0174 273.904H82.9294ZM71.0214 275.36C69.9294 275.36 69.3834 276.114 69.3834 277.622C69.3834 279.147 69.9294 279.91 71.0214 279.91C71.5414 279.91 71.9401 279.728 72.2174 279.364C72.5121 278.983 72.6594 278.402 72.6594 277.622C72.6594 276.114 72.1134 275.36 71.0214 275.36ZM77.6514 288.256C77.6514 286.991 78.0154 286.003 78.7434 285.292C79.4888 284.564 80.4421 284.2 81.6034 284.2C82.7474 284.2 83.6834 284.564 84.4114 285.292C85.1568 286.003 85.5294 286.991 85.5294 288.256C85.5294 289.521 85.1568 290.518 84.4114 291.246C83.6834 291.974 82.7474 292.338 81.6034 292.338C80.4421 292.338 79.4888 291.974 78.7434 291.246C78.0154 290.518 77.6514 289.521 77.6514 288.256ZM81.5774 285.994C80.4854 285.994 79.9394 286.748 79.9394 288.256C79.9394 289.764 80.4854 290.518 81.5774 290.518C82.6694 290.518 83.2154 289.764 83.2154 288.256C83.2154 286.748 82.6694 285.994 81.5774 285.994Z" fill="white"/>
</svg>
