<svg width="240" height="80" viewBox="0 0 240 80" fill="none" xmlns="http://www.w3.org/2000/svg">
<rect width="240" height="80" rx="40" fill="#F5F3FA"/>
<circle cx="40" cy="40" r="35" fill="#616161"/>
<path d="M104.292 36.84C104.833 36.1307 105.571 35.5333 106.504 35.048C107.437 34.5627 108.492 34.32 109.668 34.32C111.012 34.32 112.235 34.656 113.336 35.328C114.456 35.9813 115.333 36.9053 115.968 38.1C116.603 39.2947 116.92 40.6667 116.92 42.216C116.92 43.7653 116.603 45.156 115.968 46.388C115.333 47.6013 114.456 48.5533 113.336 49.244C112.235 49.916 111.012 50.252 109.668 50.252C108.492 50.252 107.447 50.0187 106.532 49.552C105.617 49.0667 104.871 48.4693 104.292 47.76V57.336H101.1V34.572H104.292V36.84ZM113.672 42.216C113.672 41.152 113.448 40.2373 113 39.472C112.571 38.688 111.992 38.1 111.264 37.708C110.555 37.2973 109.789 37.092 108.968 37.092C108.165 37.092 107.4 37.2973 106.672 37.708C105.963 38.1187 105.384 38.716 104.936 39.5C104.507 40.284 104.292 41.208 104.292 42.272C104.292 43.336 104.507 44.2693 104.936 45.072C105.384 45.856 105.963 46.4533 106.672 46.864C107.4 47.2747 108.165 47.48 108.968 47.48C109.789 47.48 110.555 47.2747 111.264 46.864C111.992 46.4347 112.571 45.8187 113 45.016C113.448 44.2133 113.672 43.28 113.672 42.216ZM123.269 36.812C123.735 36.028 124.351 35.4213 125.117 34.992C125.901 34.544 126.825 34.32 127.889 34.32V37.624H127.077C125.826 37.624 124.874 37.9413 124.221 38.576C123.586 39.2107 123.269 40.312 123.269 41.88V50H120.077V34.572H123.269V36.812ZM137.515 50.252C136.059 50.252 134.743 49.9253 133.567 49.272C132.391 48.6 131.467 47.6667 130.795 46.472C130.123 45.2587 129.787 43.8587 129.787 42.272C129.787 40.704 130.132 39.3133 130.823 38.1C131.513 36.8867 132.456 35.9533 133.651 35.3C134.845 34.6467 136.18 34.32 137.655 34.32C139.129 34.32 140.464 34.6467 141.659 35.3C142.853 35.9533 143.796 36.8867 144.487 38.1C145.177 39.3133 145.523 40.704 145.523 42.272C145.523 43.84 145.168 45.2307 144.459 46.444C143.749 47.6573 142.779 48.6 141.547 49.272C140.333 49.9253 138.989 50.252 137.515 50.252ZM137.515 47.48C138.336 47.48 139.101 47.284 139.811 46.892C140.539 46.5 141.127 45.912 141.575 45.128C142.023 44.344 142.247 43.392 142.247 42.272C142.247 41.152 142.032 40.2093 141.603 39.444C141.173 38.66 140.604 38.072 139.895 37.68C139.185 37.288 138.42 37.092 137.599 37.092C136.777 37.092 136.012 37.288 135.303 37.68C134.612 38.072 134.061 38.66 133.651 39.444C133.24 40.2093 133.035 41.152 133.035 42.272C133.035 43.9333 133.455 45.2213 134.295 46.136C135.153 47.032 136.227 47.48 137.515 47.48ZM151.87 36.868C152.411 36.1213 153.149 35.5147 154.082 35.048C155.034 34.5627 156.089 34.32 157.246 34.32C158.609 34.32 159.841 34.6467 160.942 35.3C162.043 35.9533 162.911 36.8867 163.546 38.1C164.181 39.2947 164.498 40.6667 164.498 42.216C164.498 43.7653 164.181 45.156 163.546 46.388C162.911 47.6013 162.034 48.5533 160.914 49.244C159.813 49.916 158.59 50.252 157.246 50.252C156.051 50.252 154.987 50.0187 154.054 49.552C153.139 49.0853 152.411 48.488 151.87 47.76V50H148.678V29.28H151.87V36.868ZM161.25 42.216C161.25 41.152 161.026 40.2373 160.578 39.472C160.149 38.688 159.57 38.1 158.842 37.708C158.133 37.2973 157.367 37.092 156.546 37.092C155.743 37.092 154.978 37.2973 154.25 37.708C153.541 38.1187 152.962 38.716 152.514 39.5C152.085 40.284 151.87 41.208 151.87 42.272C151.87 43.336 152.085 44.2693 152.514 45.072C152.962 45.856 153.541 46.4533 154.25 46.864C154.978 47.2747 155.743 47.48 156.546 47.48C157.367 47.48 158.133 47.2747 158.842 46.864C159.57 46.4347 160.149 45.8187 160.578 45.016C161.026 44.2133 161.25 43.28 161.25 42.216ZM170.847 29.28V50H167.655V29.28H170.847ZM189.178 41.908C189.178 42.4867 189.14 43.0093 189.066 43.476H177.278C177.371 44.708 177.828 45.6973 178.65 46.444C179.471 47.1907 180.479 47.564 181.674 47.564C183.391 47.564 184.604 46.8453 185.314 45.408H188.757C188.291 46.8267 187.442 47.9933 186.21 48.908C184.996 49.804 183.484 50.252 181.674 50.252C180.199 50.252 178.874 49.9253 177.698 49.272C176.54 48.6 175.626 47.6667 174.954 46.472C174.3 45.2587 173.974 43.8587 173.974 42.272C173.974 40.6853 174.291 39.2947 174.926 38.1C175.579 36.8867 176.484 35.9533 177.642 35.3C178.818 34.6467 180.162 34.32 181.674 34.32C183.13 34.32 184.427 34.6373 185.566 35.272C186.704 35.9067 187.591 36.8027 188.226 37.96C188.86 39.0987 189.178 40.4147 189.178 41.908ZM185.846 40.9C185.827 39.724 185.407 38.7813 184.586 38.072C183.764 37.3627 182.747 37.008 181.534 37.008C180.432 37.008 179.49 37.3627 178.706 38.072C177.922 38.7627 177.455 39.7053 177.306 40.9H185.846ZM210.995 34.32C212.208 34.32 213.291 34.572 214.243 35.076C215.213 35.58 215.969 36.3267 216.511 37.316C217.071 38.3053 217.351 39.5 217.351 40.9V50H214.187V41.376C214.187 39.9947 213.841 38.94 213.151 38.212C212.46 37.4653 211.517 37.092 210.323 37.092C209.128 37.092 208.176 37.4653 207.467 38.212C206.776 38.94 206.431 39.9947 206.431 41.376V50H203.267V41.376C203.267 39.9947 202.921 38.94 202.231 38.212C201.54 37.4653 200.597 37.092 199.403 37.092C198.208 37.092 197.256 37.4653 196.547 38.212C195.856 38.94 195.511 39.9947 195.511 41.376V50H192.319V34.572H195.511V36.336C196.033 35.7013 196.696 35.2067 197.499 34.852C198.301 34.4973 199.16 34.32 200.075 34.32C201.307 34.32 202.408 34.5813 203.379 35.104C204.349 35.6267 205.096 36.3827 205.619 37.372C206.085 36.4387 206.813 35.7013 207.803 35.16C208.792 34.6 209.856 34.32 210.995 34.32Z" fill="#616161"/>
</svg>
