<svg width="240" height="80" viewBox="0 0 240 80" fill="none" xmlns="http://www.w3.org/2000/svg">
<rect x="240" y="80" width="240" height="80" rx="40" transform="rotate(180 240 80)" fill="#F5F3FA"/>
<circle cx="200" cy="40" r="35" transform="rotate(180 200 40)" fill="#28BF89"/>
<path d="M27.7 50.252C26.4867 50.252 25.3947 50.0373 24.424 49.608C23.472 49.16 22.716 48.5627 22.156 47.816C21.596 47.0507 21.2973 46.2013 21.26 45.268H24.564C24.62 45.9213 24.928 46.472 25.488 46.92C26.0667 47.3493 26.7853 47.564 27.644 47.564C28.54 47.564 29.2307 47.396 29.716 47.06C30.22 46.7053 30.472 46.2573 30.472 45.716C30.472 45.1373 30.192 44.708 29.632 44.428C29.0907 44.148 28.2227 43.84 27.028 43.504C25.8707 43.1867 24.928 42.8787 24.2 42.58C23.472 42.2813 22.8373 41.824 22.296 41.208C21.7733 40.592 21.512 39.78 21.512 38.772C21.512 37.9507 21.7547 37.204 22.24 36.532C22.7253 35.8413 23.416 35.3 24.312 34.908C25.2267 34.516 26.272 34.32 27.448 34.32C29.2027 34.32 30.612 34.768 31.676 35.664C32.7587 36.5413 33.3373 37.7453 33.412 39.276H30.22C30.164 38.5853 29.884 38.0347 29.38 37.624C28.876 37.2133 28.1947 37.008 27.336 37.008C26.496 37.008 25.852 37.1667 25.404 37.484C24.956 37.8013 24.732 38.2213 24.732 38.744C24.732 39.1547 24.8813 39.5 25.18 39.78C25.4787 40.06 25.8427 40.284 26.272 40.452C26.7013 40.6013 27.336 40.7973 28.176 41.04C29.296 41.3387 30.2107 41.6467 30.92 41.964C31.648 42.2627 32.2733 42.7107 32.796 43.308C33.3187 43.9053 33.5893 44.6987 33.608 45.688C33.608 46.5653 33.3653 47.3493 32.88 48.04C32.3947 48.7307 31.704 49.272 30.808 49.664C29.9307 50.056 28.8947 50.252 27.7 50.252ZM43.749 50.252C42.293 50.252 40.977 49.9253 39.801 49.272C38.625 48.6 37.701 47.6667 37.029 46.472C36.357 45.2587 36.021 43.8587 36.021 42.272C36.021 40.704 36.3664 39.3133 37.057 38.1C37.7477 36.8867 38.6904 35.9533 39.885 35.3C41.0797 34.6467 42.4144 34.32 43.889 34.32C45.3637 34.32 46.6984 34.6467 47.893 35.3C49.0877 35.9533 50.0304 36.8867 50.721 38.1C51.4117 39.3133 51.757 40.704 51.757 42.272C51.757 43.84 51.4024 45.2307 50.693 46.444C49.9837 47.6573 49.013 48.6 47.781 49.272C46.5677 49.9253 45.2237 50.252 43.749 50.252ZM43.749 47.48C44.5704 47.48 45.3357 47.284 46.045 46.892C46.773 46.5 47.361 45.912 47.809 45.128C48.257 44.344 48.481 43.392 48.481 42.272C48.481 41.152 48.2664 40.2093 47.837 39.444C47.4077 38.66 46.8384 38.072 46.129 37.68C45.4197 37.288 44.6544 37.092 43.833 37.092C43.0117 37.092 42.2464 37.288 41.537 37.68C40.8464 38.072 40.2957 38.66 39.885 39.444C39.4744 40.2093 39.269 41.152 39.269 42.272C39.269 43.9333 39.689 45.2213 40.529 46.136C41.3877 47.032 42.461 47.48 43.749 47.48ZM58.1045 29.28V50H54.9125V29.28H58.1045ZM76.2673 34.572V50H73.0753V48.18C72.5713 48.8147 71.9086 49.3187 71.0873 49.692C70.2846 50.0467 69.426 50.224 68.5113 50.224C67.298 50.224 66.206 49.972 65.2353 49.468C64.2833 48.964 63.5273 48.2173 62.9673 47.228C62.426 46.2387 62.1553 45.044 62.1553 43.644V34.572H65.3193V43.168C65.3193 44.5493 65.6646 45.6133 66.3553 46.36C67.046 47.088 67.9886 47.452 69.1833 47.452C70.378 47.452 71.3206 47.088 72.0113 46.36C72.7206 45.6133 73.0753 44.5493 73.0753 43.168V34.572H76.2673ZM84.2029 37.176V45.716C84.2029 46.2947 84.3336 46.7147 84.5949 46.976C84.8749 47.2187 85.3416 47.34 85.9949 47.34H87.9549V50H85.4349C83.9976 50 82.8962 49.664 82.1309 48.992C81.3656 48.32 80.9829 47.228 80.9829 45.716V37.176H79.1629V34.572H80.9829V30.736H84.2029V34.572H87.9549V37.176H84.2029ZM92.5209 32.528C91.9422 32.528 91.4569 32.332 91.0649 31.94C90.6729 31.548 90.4769 31.0627 90.4769 30.484C90.4769 29.9053 90.6729 29.42 91.0649 29.028C91.4569 28.636 91.9422 28.44 92.5209 28.44C93.0809 28.44 93.5569 28.636 93.9489 29.028C94.3409 29.42 94.5369 29.9053 94.5369 30.484C94.5369 31.0627 94.3409 31.548 93.9489 31.94C93.5569 32.332 93.0809 32.528 92.5209 32.528ZM94.0889 34.572V50H90.8969V34.572H94.0889ZM104.972 50.252C103.516 50.252 102.2 49.9253 101.024 49.272C99.8477 48.6 98.9237 47.6667 98.2517 46.472C97.5797 45.2587 97.2437 43.8587 97.2437 42.272C97.2437 40.704 97.589 39.3133 98.2797 38.1C98.9704 36.8867 99.913 35.9533 101.108 35.3C102.302 34.6467 103.637 34.32 105.112 34.32C106.586 34.32 107.921 34.6467 109.116 35.3C110.31 35.9533 111.253 36.8867 111.944 38.1C112.634 39.3133 112.98 40.704 112.98 42.272C112.98 43.84 112.625 45.2307 111.916 46.444C111.206 47.6573 110.236 48.6 109.004 49.272C107.79 49.9253 106.446 50.252 104.972 50.252ZM104.972 47.48C105.793 47.48 106.558 47.284 107.268 46.892C107.996 46.5 108.584 45.912 109.032 45.128C109.48 44.344 109.704 43.392 109.704 42.272C109.704 41.152 109.489 40.2093 109.06 39.444C108.63 38.66 108.061 38.072 107.352 37.68C106.642 37.288 105.877 37.092 105.056 37.092C104.234 37.092 103.469 37.288 102.76 37.68C102.069 38.072 101.518 38.66 101.108 39.444C100.697 40.2093 100.492 41.152 100.492 42.272C100.492 43.9333 100.912 45.2213 101.752 46.136C102.61 47.032 103.684 47.48 104.972 47.48ZM123.919 34.32C125.132 34.32 126.215 34.572 127.167 35.076C128.138 35.58 128.894 36.3267 129.435 37.316C129.976 38.3053 130.247 39.5 130.247 40.9V50H127.083V41.376C127.083 39.9947 126.738 38.94 126.047 38.212C125.356 37.4653 124.414 37.092 123.219 37.092C122.024 37.092 121.072 37.4653 120.363 38.212C119.672 38.94 119.327 39.9947 119.327 41.376V50H116.135V34.572H119.327V36.336C119.85 35.7013 120.512 35.2067 121.315 34.852C122.136 34.4973 123.004 34.32 123.919 34.32Z" fill="#28BF89"/>
</svg>
