<?xml version="1.0" encoding="utf-8"?>
<!-- Generator: Adobe Illustrator 24.1.0, SVG Export Plug-In . SVG Version: 6.00 Build 0)  -->
<svg version="1.1" id="Layer_1" xmlns="http://www.w3.org/2000/svg" xmlns:xlink="http://www.w3.org/1999/xlink" x="0px" y="0px"
	 viewBox="0 0 412 304.2" style="enable-background:new 0 0 412 304.2;" xml:space="preserve">
<style type="text/css">
	.st0{fill:#212222;}
	.st1{fill:#6D91EA;}
</style>
<path class="st0" d="M364.2,38.7v-2.1h4.2v14.6H366V38.7H364.2z M371.4,43.7c0-2.3,0.4-4.1,1.2-5.4c0.8-1.3,2.1-2,4-2s3.2,0.7,4,2
	s1.2,3.1,1.2,5.4s-0.4,4.2-1.2,5.5c-0.8,1.3-2.1,2-4,2s-3.3-0.7-4-2C371.8,47.9,371.4,46.1,371.4,43.7z M379.6,43.7
	c0-1.1-0.1-2-0.2-2.7s-0.4-1.4-0.8-1.8c-0.4-0.5-1.1-0.7-1.9-0.7s-1.5,0.2-1.9,0.7s-0.7,1.1-0.9,1.8c-0.1,0.7-0.2,1.7-0.2,2.7
	c0,1.1,0.1,2.1,0.2,2.8c0.1,0.8,0.4,1.4,0.8,1.8c0.4,0.5,1.1,0.7,1.9,0.7s1.5-0.2,1.9-0.7s0.7-1.1,0.9-1.8
	C379.5,45.8,379.6,44.8,379.6,43.7z M384.3,43.7c0-2.3,0.4-4.1,1.2-5.4c0.8-1.3,2.1-2,4-2s3.2,0.7,4,2s1.2,3.1,1.2,5.4
	s-0.4,4.2-1.2,5.5c-0.8,1.3-2.1,2-4,2s-3.3-0.7-4-2C384.6,47.9,384.3,46.1,384.3,43.7z M392.4,43.7c0-1.1-0.1-2-0.2-2.7
	s-0.4-1.4-0.8-1.8c-0.4-0.5-1.1-0.7-1.9-0.7s-1.5,0.2-1.9,0.7s-0.7,1.1-0.9,1.8c-0.1,0.7-0.2,1.7-0.2,2.7c0,1.1,0.1,2.1,0.2,2.8
	c0.1,0.8,0.4,1.4,0.8,1.8c0.4,0.5,1.1,0.7,1.9,0.7s1.5-0.2,1.9-0.7s0.7-1.1,0.9-1.8C392.4,45.8,392.4,44.8,392.4,43.7z M396.7,40.1
	c0-1,0.3-1.7,0.8-2.3c0.6-0.6,1.3-0.8,2.2-0.8s1.6,0.3,2.2,0.8s0.9,1.3,0.9,2.3s-0.3,1.7-0.9,2.3c-0.6,0.6-1.3,0.8-2.2,0.8
	s-1.6-0.3-2.2-0.8C397,41.9,396.7,41.1,396.7,40.1z M408.9,37.3l-8,13.9h-2.2l8-13.9C406.7,37.3,408.9,37.3,408.9,37.3z M399.7,38.4
	c-0.8,0-1.3,0.6-1.3,1.7c0,1.2,0.4,1.8,1.3,1.8c0.4,0,0.7-0.1,0.9-0.4c0.2-0.3,0.3-0.7,0.3-1.3C401,39,400.6,38.4,399.7,38.4z
	 M404.8,48.3c0-1,0.3-1.7,0.8-2.3c0.6-0.6,1.3-0.8,2.2-0.8c0.9,0,1.6,0.3,2.2,0.8s0.9,1.3,0.9,2.3s-0.3,1.7-0.9,2.3
	c-0.6,0.6-1.3,0.8-2.2,0.8c-0.9,0-1.6-0.3-2.2-0.8C405.1,50.1,404.8,49.3,404.8,48.3z M407.9,46.6c-0.8,0-1.3,0.6-1.3,1.7
	c0,1.2,0.4,1.7,1.3,1.7c0.8,0,1.3-0.6,1.3-1.7C409.1,47.2,408.7,46.6,407.9,46.6z"/>
<path class="st0" d="M373.9,102.6c-1.4-0.7-2.1-1.8-2.1-3.3c0-0.7,0.2-1.4,0.5-2c0.4-0.6,0.9-1.1,1.6-1.4c0.7-0.4,1.6-0.5,2.6-0.5
	s1.9,0.2,2.6,0.5s1.3,0.8,1.6,1.4c0.4,0.6,0.5,1.3,0.5,2s-0.2,1.4-0.6,2s-0.9,1-1.5,1.3c0.8,0.3,1.4,0.7,1.8,1.4
	c0.4,0.6,0.7,1.4,0.7,2.2c0,0.9-0.2,1.6-0.7,2.3s-1.1,1.2-1.8,1.5c-0.8,0.4-1.7,0.5-2.7,0.5s-1.9-0.2-2.7-0.5
	c-0.8-0.4-1.4-0.9-1.8-1.5c-0.4-0.7-0.7-1.4-0.7-2.3c0-0.9,0.2-1.6,0.7-2.2C372.6,103.3,373.2,102.9,373.9,102.6z M379.3,99.6
	c0-0.7-0.2-1.3-0.7-1.7c-0.5-0.4-1.1-0.6-1.9-0.6s-1.4,0.2-1.9,0.6s-0.7,1-0.7,1.7s0.2,1.2,0.7,1.6s1.1,0.6,1.9,0.6s1.4-0.2,1.9-0.6
	C379,100.8,379.3,100.2,379.3,99.6z M376.7,103.6c-0.9,0-1.6,0.2-2.2,0.7c-0.5,0.4-0.8,1-0.8,1.9c0,0.8,0.3,1.4,0.8,1.9
	s1.3,0.7,2.2,0.7c0.9,0,1.6-0.2,2.1-0.7s0.8-1.1,0.8-1.8c0-0.8-0.3-1.4-0.8-1.9C378.2,103.8,377.5,103.6,376.7,103.6z M384.2,102.7
	c0-2.3,0.4-4.1,1.2-5.4c0.8-1.3,2.1-2,4-2s3.2,0.7,4,2s1.2,3.1,1.2,5.4s-0.4,4.2-1.2,5.5c-0.8,1.3-2.1,2-4,2s-3.3-0.7-4-2
	C384.6,106.9,384.2,105.1,384.2,102.7z M392.4,102.7c0-1.1-0.1-2-0.2-2.7s-0.4-1.4-0.8-1.8c-0.4-0.5-1.1-0.7-1.9-0.7
	s-1.5,0.2-1.9,0.7s-0.7,1.1-0.9,1.8c-0.1,0.7-0.2,1.7-0.2,2.7c0,1.1,0.1,2.1,0.2,2.8c0.1,0.8,0.4,1.4,0.8,1.8
	c0.4,0.5,1.1,0.7,1.9,0.7s1.5-0.2,1.9-0.7s0.7-1.1,0.9-1.8C392.3,104.8,392.4,103.8,392.4,102.7z M396.7,99.1c0-1,0.3-1.7,0.8-2.3
	c0.6-0.6,1.3-0.8,2.2-0.8c0.9,0,1.6,0.3,2.2,0.8s0.9,1.3,0.9,2.3s-0.3,1.7-0.9,2.3c-0.6,0.6-1.3,0.8-2.2,0.8c-0.9,0-1.6-0.3-2.2-0.8
	C397,100.9,396.7,100.1,396.7,99.1z M408.9,96.3l-8,13.9h-2.2l8-13.9C406.7,96.3,408.9,96.3,408.9,96.3z M399.7,97.4
	c-0.8,0-1.3,0.6-1.3,1.7c0,1.2,0.4,1.8,1.3,1.8c0.4,0,0.7-0.1,0.9-0.4c0.2-0.3,0.3-0.7,0.3-1.3C401,98,400.6,97.4,399.7,97.4z
	 M404.8,107.3c0-1,0.3-1.7,0.8-2.3c0.6-0.6,1.3-0.8,2.2-0.8c0.9,0,1.6,0.3,2.2,0.8s0.9,1.3,0.9,2.3s-0.3,1.7-0.9,2.3
	s-1.3,0.8-2.2,0.8c-0.9,0-1.6-0.3-2.2-0.8C405.1,109.1,404.8,108.3,404.8,107.3z M407.8,105.6c-0.8,0-1.3,0.6-1.3,1.7
	c0,1.2,0.4,1.7,1.3,1.7s1.3-0.6,1.3-1.7C409.1,106.2,408.7,105.6,407.8,105.6z"/>
<path class="st0" d="M379.3,159c-0.1-0.6-0.4-1.1-0.8-1.4c-0.4-0.3-0.9-0.5-1.6-0.5c-1.1,0-1.8,0.4-2.4,1.2c-0.5,0.8-0.8,2.1-0.8,4
	c0.3-0.6,0.9-1,1.5-1.4c0.7-0.3,1.4-0.5,2.2-0.5c0.9,0,1.7,0.2,2.3,0.6c0.7,0.4,1.2,0.9,1.6,1.6c0.4,0.7,0.6,1.6,0.6,2.6
	c0,0.9-0.2,1.8-0.6,2.5s-0.9,1.3-1.6,1.7s-1.6,0.6-2.6,0.6c-1.4,0-2.5-0.3-3.2-0.9c-0.8-0.6-1.3-1.5-1.6-2.6
	c-0.3-1.1-0.5-2.5-0.5-4.1c0-4.9,1.7-7.3,5.2-7.3c1.3,0,2.4,0.4,3.1,1.1c0.8,0.7,1.2,1.6,1.4,2.7L379.3,159L379.3,159z M376.9,162.5
	c-0.8,0-1.5,0.2-2.1,0.7s-0.8,1.2-0.8,2.1c0,0.9,0.3,1.7,0.8,2.2s1.3,0.8,2.2,0.8c0.8,0,1.5-0.3,2-0.8s0.7-1.2,0.7-2.1
	c0-0.9-0.2-1.6-0.7-2.2C378.5,162.7,377.8,162.5,376.9,162.5z M387.2,166.2c0.1,0.7,0.4,1.2,0.9,1.5s1,0.5,1.8,0.5
	c0.9,0,1.6-0.4,2.1-1.1c0.4-0.7,0.7-2,0.7-3.8c-0.3,0.5-0.8,0.8-1.4,1.1c-0.6,0.2-1.2,0.4-1.9,0.4c-0.9,0-1.7-0.2-2.4-0.5
	c-0.7-0.4-1.3-0.9-1.7-1.6c-0.4-0.7-0.6-1.6-0.6-2.6c0-1.5,0.4-2.6,1.3-3.5s2.1-1.3,3.6-1.3c1.8,0,3.1,0.6,3.9,1.8s1.2,3,1.2,5.5
	c0,1.7-0.1,3.1-0.4,4.2c-0.3,1.1-0.8,1.9-1.5,2.5s-1.7,0.8-2.9,0.8c-1.4,0-2.5-0.4-3.3-1.1c-0.8-0.7-1.2-1.7-1.3-2.8L387.2,166.2
	L387.2,166.2z M389.7,162.8c0.8,0,1.4-0.2,1.9-0.7s0.7-1.2,0.7-2c0-0.9-0.2-1.6-0.7-2.1s-1.1-0.8-2-0.8s-1.5,0.3-2,0.8
	s-0.7,1.2-0.7,2.1c0,0.8,0.2,1.5,0.7,2C388,162.6,388.7,162.8,389.7,162.8z M396.7,159.1c0-1,0.3-1.7,0.8-2.3
	c0.6-0.6,1.3-0.8,2.2-0.8c0.9,0,1.6,0.3,2.2,0.8s0.9,1.3,0.9,2.3s-0.3,1.7-0.9,2.3s-1.3,0.8-2.2,0.8c-0.9,0-1.6-0.3-2.2-0.8
	S396.7,160.1,396.7,159.1z M408.9,156.3l-8,13.9h-2.2l8-13.9H408.9z M399.7,157.4c-0.8,0-1.3,0.6-1.3,1.7c0,1.2,0.4,1.8,1.3,1.8
	c0.4,0,0.7-0.1,0.9-0.4c0.2-0.3,0.3-0.7,0.3-1.3C401,158,400.5,157.4,399.7,157.4z M404.8,167.3c0-1,0.3-1.7,0.8-2.3
	c0.6-0.6,1.3-0.8,2.2-0.8c0.9,0,1.6,0.3,2.2,0.8s0.9,1.3,0.9,2.3s-0.3,1.7-0.9,2.3s-1.3,0.8-2.2,0.8c-0.9,0-1.6-0.3-2.2-0.8
	C405.1,169.1,404.8,168.3,404.8,167.3z M407.8,165.6c-0.8,0-1.3,0.6-1.3,1.7c0,1.2,0.4,1.7,1.3,1.7s1.3-0.6,1.3-1.7
	C409.1,166.2,408.7,165.6,407.8,165.6z"/>
<path class="st0" d="M372.4,218.2c0.1-1.2,0.6-2.2,1.4-2.9c0.9-0.7,2-1,3.4-1c0.9,0,1.7,0.2,2.4,0.5c0.7,0.3,1.2,0.8,1.5,1.4
	c0.3,0.6,0.5,1.2,0.5,1.9c0,0.8-0.2,1.5-0.7,2.1s-1,1-1.6,1.2v0.1c0.8,0.2,1.4,0.7,1.8,1.3s0.7,1.4,0.7,2.4c0,0.8-0.2,1.5-0.5,2.1
	c-0.4,0.6-0.9,1.1-1.6,1.5c-0.7,0.3-1.6,0.5-2.5,0.5c-1.4,0-2.6-0.4-3.6-1.1c-0.9-0.7-1.4-1.8-1.5-3.2h2.2c0.1,0.7,0.3,1.3,0.8,1.7
	s1.2,0.7,2,0.7s1.4-0.2,1.9-0.7c0.4-0.5,0.7-1,0.7-1.7c0-0.9-0.3-1.6-0.9-2s-1.5-0.6-2.7-0.6h-0.5v-1.9h0.5c1.1,0,1.9-0.2,2.5-0.5
	s0.9-0.9,0.9-1.6c0-0.6-0.2-1.1-0.6-1.5s-1-0.6-1.8-0.6c-0.7,0-1.3,0.2-1.7,0.6c-0.4,0.4-0.7,0.8-0.7,1.4L372.4,218.2L372.4,218.2z
	 M393.7,216.6H387v4c0.3-0.4,0.7-0.7,1.2-0.9c0.6-0.3,1.2-0.4,1.8-0.4c1.1,0,2,0.2,2.7,0.7s1.2,1.1,1.5,1.8s0.5,1.5,0.5,2.3
	c0,1-0.2,1.9-0.6,2.6c-0.4,0.8-0.9,1.4-1.7,1.8c-0.7,0.4-1.7,0.7-2.8,0.7c-1.5,0-2.6-0.4-3.5-1.1s-1.4-1.7-1.6-2.9h2.2
	c0.1,0.6,0.5,1.1,1,1.5s1.1,0.5,1.9,0.5c0.9,0,1.7-0.3,2.1-0.9c0.5-0.6,0.7-1.3,0.7-2.3s-0.2-1.7-0.7-2.2s-1.2-0.8-2.1-0.8
	c-0.7,0-1.2,0.2-1.7,0.5c-0.4,0.3-0.8,0.8-1,1.3h-2.2v-8.2h8.8v2H393.7z M396.7,218.1c0-1,0.3-1.7,0.8-2.3c0.6-0.6,1.3-0.8,2.2-0.8
	c0.9,0,1.6,0.3,2.2,0.8s0.9,1.3,0.9,2.3s-0.3,1.7-0.9,2.3s-1.3,0.8-2.2,0.8c-0.9,0-1.6-0.3-2.2-0.8
	C397,219.9,396.7,219.1,396.7,218.1z M408.9,215.3l-8,13.9h-2.2l8-13.9H408.9z M399.8,216.4c-0.8,0-1.3,0.6-1.3,1.7
	c0,1.2,0.4,1.8,1.3,1.8c0.4,0,0.7-0.1,0.9-0.4c0.2-0.3,0.3-0.7,0.3-1.3C401,217,400.6,216.4,399.8,216.4z M404.9,226.3
	c0-1,0.3-1.7,0.8-2.3c0.6-0.6,1.3-0.8,2.2-0.8c0.9,0,1.6,0.3,2.2,0.8s0.9,1.3,0.9,2.3s-0.3,1.7-0.9,2.3s-1.3,0.8-2.2,0.8
	c-0.9,0-1.6-0.3-2.2-0.8C405.1,228.1,404.9,227.3,404.9,226.3z M407.9,224.6c-0.8,0-1.3,0.6-1.3,1.7c0,1.2,0.4,1.7,1.3,1.7
	s1.3-0.6,1.3-1.7C409.1,225.2,408.7,224.6,407.9,224.6z"/>
<path class="st0" d="M384,285.2v-1.7l6.7-9.6h2.8v9.4h1.9v2h-1.9v3h-2.2v-3L384,285.2L384,285.2z M391.3,276.1l-4.7,7.1h4.7V276.1z
	 M396.9,277.1c0-1,0.3-1.7,0.8-2.3c0.6-0.6,1.3-0.8,2.2-0.8s1.6,0.3,2.2,0.8s0.9,1.3,0.9,2.3s-0.3,1.7-0.9,2.3
	c-0.6,0.6-1.3,0.8-2.2,0.8s-1.6-0.3-2.2-0.8C397.2,278.9,396.9,278.1,396.9,277.1z M409.1,274.3l-8,13.9h-2.2l8-13.9H409.1z
	 M399.9,275.4c-0.8,0-1.3,0.6-1.3,1.7c0,1.2,0.4,1.8,1.3,1.8c0.4,0,0.7-0.1,0.9-0.4c0.2-0.3,0.3-0.7,0.3-1.3
	C401.2,276,400.8,275.4,399.9,275.4z M405,285.3c0-1,0.3-1.7,0.8-2.3c0.6-0.6,1.3-0.8,2.2-0.8c0.9,0,1.6,0.3,2.2,0.8
	s0.9,1.3,0.9,2.3s-0.3,1.7-0.9,2.3c-0.6,0.6-1.3,0.8-2.2,0.8c-0.9,0-1.6-0.3-2.2-0.8C405.3,287.1,405,286.3,405,285.3z M408,283.6
	c-0.8,0-1.3,0.6-1.3,1.7s0.4,1.7,1.3,1.7s1.3-0.6,1.3-1.7S408.9,283.6,408,283.6z"/>
<path class="st1" d="M338,27.2v38c0,1.1-0.9,2-2,2H140c-1.1,0-2-0.9-2-2v-38c0-1.1,0.9-2,2-2h196C337.1,25.2,338,26.1,338,27.2z"/>
<path class="st1" d="M298,86.2v38c0,1.1-0.9,2-2,2H140c-1.1,0-2-0.9-2-2v-38c0-1.1,0.9-2,2-2h156C297.1,84.2,298,85.1,298,86.2z"/>
<path class="st1" d="M276,146.2v37c0,1.1-0.9,2-2,2H140c-1.1,0-2-0.9-2-2v-37c0-1.1,0.9-2,2-2h134C275.1,144.2,276,145.1,276,146.2z
	"/>
<path class="st1" d="M208,205.2v38c0,1.1-0.9,2-2,2h-66c-1.1,0-2-0.9-2-2v-38c0-1.1,0.9-2,2-2h66C207.1,203.2,208,204.1,208,205.2z"
	/>
<path class="st1" d="M146,264.2v38c0,1.1-0.9,2-2,2h-4c-1.1,0-2-0.9-2-2v-38c0-1.1,0.9-2,2-2h4C145.1,262.2,146,263.1,146,264.2z"/>
<path d="M58.3,45.3c0-1,0.2-1.8,0.6-2.6c0.4-0.8,1-1.4,1.8-1.8c0.7-0.4,1.6-0.6,2.5-0.6c1.1,0,2,0.3,2.8,0.8s1.4,1.2,1.7,2.2h-1.5
	c-0.3-0.6-0.7-1-1.2-1.4c-0.5-0.3-1.1-0.5-1.8-0.5s-1.3,0.2-1.8,0.5c-0.5,0.3-1,0.8-1.3,1.4s-0.5,1.3-0.5,2c0,0.8,0.2,1.5,0.5,2
	c0.3,0.6,0.7,1,1.3,1.3c0.5,0.3,1.2,0.5,1.8,0.5c0.7,0,1.3-0.2,1.8-0.5s0.9-0.8,1.2-1.4h1.5c-0.4,0.9-0.9,1.7-1.7,2.2
	c-0.8,0.5-1.7,0.8-2.8,0.8c-0.9,0-1.7-0.2-2.5-0.6c-0.7-0.4-1.3-1-1.8-1.8C58.5,47.1,58.3,46.3,58.3,45.3z M73.4,42.4
	c0.6,0,1.1,0.1,1.6,0.4c0.5,0.2,0.8,0.6,1.1,1.1c0.3,0.5,0.4,1.1,0.4,1.8v4.5h-1.3v-4.3c0-0.8-0.2-1.3-0.6-1.8
	c-0.4-0.4-0.9-0.6-1.6-0.6s-1.2,0.2-1.6,0.6s-0.6,1-0.6,1.8v4.2h-1.3V39.8h1.3v3.8c0.3-0.4,0.6-0.7,1-0.9
	C72.4,42.5,72.9,42.4,73.4,42.4z M85.6,46.1c0,0.2,0,0.5,0,0.8h-6.1c0,0.8,0.3,1.3,0.8,1.8c0.5,0.4,1.1,0.6,1.7,0.6s1-0.1,1.4-0.4
	s0.6-0.6,0.8-1h1.4c-0.2,0.7-0.6,1.3-1.2,1.8s-1.4,0.7-2.3,0.7c-0.7,0-1.4-0.2-2-0.5s-1-0.8-1.3-1.4s-0.5-1.3-0.5-2.1
	c0-0.8,0.2-1.5,0.5-2.1s0.8-1.1,1.3-1.4c0.6-0.3,1.2-0.5,2-0.5c0.7,0,1.4,0.2,1.9,0.5c0.6,0.3,1,0.8,1.3,1.3
	C85.4,44.7,85.6,45.4,85.6,46.1z M84.2,45.8c0-0.5-0.1-0.9-0.3-1.2c-0.2-0.4-0.5-0.6-0.9-0.8c-0.4-0.2-0.8-0.3-1.2-0.3
	c-0.6,0-1.2,0.2-1.7,0.6c-0.4,0.4-0.7,1-0.8,1.7C79.3,45.8,84.2,45.8,84.2,45.8z M86.8,46.4c0-0.8,0.2-1.5,0.5-2.1s0.8-1.1,1.3-1.4
	c0.6-0.3,1.2-0.5,1.9-0.5c0.9,0,1.7,0.2,2.3,0.7c0.6,0.5,1,1.1,1.2,1.9h-1.4c-0.1-0.5-0.4-0.8-0.8-1.1c-0.4-0.3-0.8-0.4-1.4-0.4
	c-0.7,0-1.3,0.3-1.8,0.8c-0.4,0.5-0.7,1.2-0.7,2.1s0.2,1.6,0.7,2.1s1,0.8,1.8,0.8c0.6,0,1-0.1,1.4-0.4s0.6-0.6,0.8-1.1H94
	c-0.2,0.8-0.6,1.4-1.2,1.9s-1.4,0.7-2.3,0.7c-0.7,0-1.4-0.2-1.9-0.5c-0.6-0.3-1-0.8-1.3-1.4S86.8,47.2,86.8,46.4z M100,50.2l-3-3.4
	v3.4h-1.3V39.8H97v6.1l3-3.4h1.8l-3.6,3.8l3.6,3.8L100,50.2L100,50.2z M107.3,41.3c-0.2,0-0.4-0.1-0.6-0.3s-0.3-0.4-0.3-0.6
	c0-0.2,0.1-0.4,0.3-0.6s0.4-0.3,0.6-0.3s0.4,0.1,0.6,0.3s0.3,0.4,0.3,0.6c0,0.2-0.1,0.4-0.3,0.6C107.8,41.2,107.6,41.3,107.3,41.3z
	 M108,42.5v7.7h-1.3v-7.7H108z M113.9,42.4c0.9,0,1.7,0.3,2.3,0.9c0.6,0.6,0.9,1.4,0.9,2.4v4.5h-1.3v-4.3c0-0.8-0.2-1.3-0.6-1.8
	c-0.4-0.4-0.9-0.6-1.6-0.6s-1.2,0.2-1.6,0.6s-0.6,1-0.6,1.8v4.2h-1.3v-7.7h1.3v1.2c0.3-0.4,0.6-0.7,1-0.9
	C112.9,42.5,113.3,42.4,113.9,42.4z"/>
<path d="M72.6,101.3c-0.6,0-1.2-0.1-1.7-0.3c-0.5-0.2-0.9-0.6-1.2-1c-0.3-0.4-0.4-0.9-0.4-1.4h1.4c0,0.5,0.2,0.8,0.6,1.2
	c0.3,0.3,0.8,0.5,1.5,0.5c0.6,0,1.1-0.1,1.4-0.4c0.4-0.3,0.5-0.7,0.5-1.2c0-0.4-0.1-0.7-0.3-0.9c-0.2-0.2-0.5-0.4-0.8-0.5
	s-0.7-0.3-1.2-0.4c-0.6-0.2-1.2-0.3-1.6-0.5s-0.7-0.4-1-0.8s-0.4-0.8-0.4-1.5c0-0.5,0.1-1,0.4-1.4s0.6-0.7,1.1-1
	c0.5-0.2,1.1-0.3,1.7-0.3c0.9,0,1.7,0.2,2.2,0.7c0.6,0.5,0.9,1.1,1,1.8h-1.4c0-0.4-0.2-0.7-0.6-1c-0.3-0.3-0.8-0.4-1.4-0.4
	c-0.5,0-1,0.1-1.3,0.4s-0.5,0.7-0.5,1.1s0.1,0.6,0.3,0.9c0.2,0.2,0.5,0.4,0.7,0.5c0.3,0.1,0.7,0.2,1.2,0.4c0.6,0.2,1.2,0.4,1.6,0.5
	c0.4,0.2,0.7,0.4,1,0.8s0.4,0.8,0.4,1.5c0,0.5-0.1,0.9-0.4,1.3s-0.6,0.8-1.1,1C73.8,101.2,73.2,101.3,72.6,101.3z M84.5,93.5v7.7
	h-1.3v-1.1c-0.2,0.4-0.6,0.7-1,0.9c-0.4,0.2-0.9,0.3-1.4,0.3c-0.6,0-1.1-0.1-1.6-0.4s-0.9-0.6-1.1-1.1c-0.3-0.5-0.4-1.1-0.4-1.8
	v-4.5H79v4.3c0,0.8,0.2,1.3,0.6,1.8c0.4,0.4,0.9,0.6,1.6,0.6s1.2-0.2,1.6-0.6s0.6-1,0.6-1.8v-4.2h1.1V93.5z M87.9,95
	c0.3-0.5,0.6-0.8,1.1-1.1c0.5-0.3,1.1-0.4,1.7-0.4c0.7,0,1.3,0.2,1.9,0.5s1,0.8,1.3,1.4s0.5,1.3,0.5,2.1c0,0.8-0.2,1.5-0.5,2.1
	s-0.8,1.1-1.3,1.4c-0.6,0.3-1.2,0.5-1.8,0.5c-0.7,0-1.2-0.1-1.8-0.4c-0.5-0.3-0.9-0.7-1.1-1.1v1.4h-1.3V91h1.3
	C87.9,91,87.9,95,87.9,95z M93.1,97.3c0-0.6-0.1-1.1-0.4-1.5c-0.2-0.4-0.6-0.8-1-1s-0.8-0.3-1.3-0.3s-0.9,0.1-1.3,0.3
	c-0.4,0.2-0.7,0.6-1,1c-0.2,0.4-0.3,0.9-0.3,1.5s0.1,1.1,0.3,1.5c0.2,0.4,0.6,0.8,1,1s0.8,0.3,1.3,0.3s0.9-0.1,1.3-0.3
	c0.4-0.2,0.7-0.6,1-1C93,98.4,93.1,97.9,93.1,97.3z M105.3,93.4c0.6,0,1.1,0.1,1.6,0.4c0.5,0.2,0.8,0.6,1.1,1.1
	c0.3,0.5,0.4,1.1,0.4,1.8v4.5h-1.3v-4.3c0-0.8-0.2-1.3-0.6-1.8c-0.4-0.4-0.9-0.6-1.5-0.6c-0.7,0-1.2,0.2-1.6,0.6s-0.6,1-0.6,1.8v4.2
	h-1.3v-4.3c0-0.8-0.2-1.3-0.6-1.8c-0.4-0.4-0.9-0.6-1.5-0.6c-0.7,0-1.2,0.2-1.6,0.6s-0.6,1-0.6,1.8v4.2h-1.3v-7.7h1.3v1.1
	c0.3-0.4,0.6-0.7,1-0.9c0.4-0.2,0.9-0.3,1.4-0.3c0.6,0,1.2,0.1,1.7,0.4s0.9,0.7,1.1,1.3c0.2-0.5,0.6-1,1.1-1.3
	C104.2,93.5,104.7,93.4,105.3,93.4z M111.2,92.3c-0.2,0-0.4-0.1-0.6-0.3s-0.3-0.4-0.3-0.6s0.1-0.4,0.3-0.6s0.4-0.3,0.6-0.3
	s0.4,0.1,0.6,0.3c0.2,0.2,0.3,0.4,0.3,0.6s-0.1,0.4-0.3,0.6C111.6,92.2,111.4,92.3,111.2,92.3z M111.8,93.5v7.7h-1.3v-7.7H111.8z
	 M115.5,94.6v4.5c0,0.4,0.1,0.6,0.2,0.8c0.2,0.1,0.4,0.2,0.8,0.2h0.9v1.1h-1.1c-0.7,0-1.2-0.2-1.6-0.5s-0.5-0.9-0.5-1.6v-4.5h-1v-1
	h1v-2h1.3v1.9h2v1L115.5,94.6L115.5,94.6z M35.5,115.3c0-0.8,0.2-1.5,0.5-2.1s0.8-1.1,1.3-1.4c0.6-0.3,1.2-0.5,1.9-0.5
	s1.3,0.1,1.8,0.4c0.5,0.3,0.9,0.7,1.1,1.1v-1.4h1.3v7.7H42v-1.4c-0.3,0.4-0.6,0.8-1.1,1.1s-1.1,0.4-1.7,0.4c-0.7,0-1.3-0.2-1.8-0.5
	c-0.6-0.3-1-0.8-1.3-1.4C35.6,116.8,35.5,116.1,35.5,115.3z M42,115.4c0-0.6-0.1-1.1-0.3-1.5s-0.6-0.8-1-1s-0.8-0.4-1.3-0.4
	s-0.9,0.1-1.3,0.3s-0.7,0.6-0.9,1s-0.3,0.9-0.3,1.5s0.1,1.1,0.3,1.5s0.5,0.8,0.9,1s0.8,0.3,1.3,0.3s0.9-0.1,1.3-0.3
	c0.4-0.2,0.7-0.6,1-1C41.9,116.4,42,115.9,42,115.4z M48.1,119.3c-0.6,0-1.1-0.1-1.6-0.3s-0.8-0.5-1.1-0.8c-0.3-0.4-0.4-0.8-0.4-1.2
	h1.3c0,0.4,0.2,0.7,0.5,0.9s0.8,0.4,1.3,0.4s0.9-0.1,1.1-0.3c0.3-0.2,0.4-0.5,0.4-0.8s-0.1-0.6-0.4-0.7c-0.3-0.2-0.8-0.3-1.4-0.5
	c-0.6-0.1-1-0.3-1.4-0.4c-0.4-0.2-0.7-0.4-0.9-0.7c-0.3-0.3-0.4-0.7-0.4-1.2c0-0.4,0.1-0.8,0.4-1.1c0.2-0.3,0.6-0.6,1-0.8
	s0.9-0.3,1.5-0.3c0.8,0,1.5,0.2,2.1,0.6c0.5,0.4,0.8,1,0.8,1.8h-1.3c0-0.4-0.2-0.7-0.5-1c-0.3-0.2-0.7-0.4-1.2-0.4s-0.8,0.1-1.1,0.3
	s-0.4,0.5-0.4,0.8s0.1,0.5,0.2,0.6c0.2,0.2,0.4,0.3,0.6,0.4c0.3,0.1,0.6,0.2,1,0.3c0.6,0.1,1,0.3,1.3,0.4c0.3,0.1,0.6,0.4,0.9,0.6
	c0.3,0.3,0.4,0.7,0.4,1.1c0,0.4-0.1,0.8-0.3,1.1s-0.6,0.6-1,0.8C49.2,119.2,48.7,119.3,48.1,119.3z M55.5,119.3
	c-0.6,0-1.1-0.1-1.6-0.3s-0.8-0.5-1.1-0.8c-0.3-0.4-0.4-0.8-0.4-1.2h1.3c0,0.4,0.2,0.7,0.5,0.9s0.8,0.4,1.3,0.4s0.9-0.1,1.1-0.3
	c0.3-0.2,0.4-0.5,0.4-0.8s-0.1-0.6-0.4-0.7c-0.3-0.2-0.8-0.3-1.4-0.5c-0.6-0.1-1-0.3-1.4-0.4c-0.4-0.2-0.7-0.4-0.9-0.7
	c-0.3-0.3-0.4-0.7-0.4-1.2c0-0.4,0.1-0.8,0.3-1.1s0.6-0.6,1-0.8s0.9-0.3,1.5-0.3c0.8,0,1.5,0.2,2.1,0.6c0.5,0.4,0.8,1,0.8,1.8h-1.3
	c0-0.4-0.2-0.7-0.5-1c-0.3-0.2-0.7-0.4-1.2-0.4s-0.8,0.1-1.1,0.3s-0.4,0.5-0.4,0.8s0.1,0.5,0.2,0.6c0.2,0.2,0.4,0.3,0.6,0.4
	c0.3,0.1,0.6,0.2,1,0.3c0.6,0.1,1,0.3,1.3,0.4c0.3,0.1,0.6,0.4,0.9,0.6c0.3,0.3,0.4,0.7,0.4,1.1c0,0.4-0.1,0.8-0.3,1.1
	s-0.6,0.6-1,0.8C56.5,119.2,56,119.3,55.5,119.3z M60.7,110.3c-0.2,0-0.4-0.1-0.6-0.3s-0.3-0.4-0.3-0.6s0.1-0.4,0.3-0.6
	s0.4-0.3,0.6-0.3c0.2,0,0.4,0.1,0.6,0.3c0.2,0.2,0.3,0.4,0.3,0.6s-0.1,0.4-0.3,0.6S60.9,110.3,60.7,110.3z M61.3,111.5v7.7H60v-7.7
	H61.3z M66.7,111.4c0.7,0,1.2,0.1,1.7,0.4c0.5,0.3,0.9,0.7,1.1,1.1v-1.4h1.3v7.8c0,0.7-0.1,1.3-0.4,1.9c-0.3,0.6-0.7,1-1.3,1.3
	c-0.6,0.3-1.2,0.5-1.9,0.5c-1,0-1.8-0.2-2.5-0.7c-0.7-0.5-1.1-1.1-1.2-1.9h1.3c0.1,0.5,0.4,0.8,0.9,1.1c0.4,0.3,1,0.4,1.6,0.4
	c0.7,0,1.3-0.2,1.7-0.7c0.4-0.4,0.7-1.1,0.7-1.8v-1.6c-0.3,0.4-0.6,0.8-1.1,1.1s-1.1,0.4-1.7,0.4c-0.7,0-1.3-0.2-1.9-0.5
	s-1-0.8-1.3-1.4c-0.3-0.6-0.5-1.3-0.5-2.1s0.2-1.5,0.5-2.1s0.8-1.1,1.3-1.4C65.4,111.6,66,111.4,66.7,111.4z M69.5,115.4
	c0-0.6-0.1-1.1-0.3-1.5c-0.2-0.4-0.6-0.8-1-1s-0.8-0.4-1.3-0.4s-0.9,0.1-1.3,0.3s-0.7,0.6-0.9,1c-0.2,0.4-0.4,0.9-0.4,1.5
	s0.1,1.1,0.4,1.5c0.2,0.4,0.5,0.8,0.9,1s0.8,0.3,1.3,0.3s0.9-0.1,1.3-0.3s0.7-0.6,1-1C69.4,116.4,69.5,115.9,69.5,115.4z
	 M76.7,111.4c0.9,0,1.7,0.3,2.3,0.9c0.6,0.6,0.9,1.4,0.9,2.4v4.5h-1.3v-4.3c0-0.8-0.2-1.3-0.6-1.8c-0.4-0.4-0.9-0.6-1.6-0.6
	s-1.2,0.2-1.6,0.6c-0.4,0.4-0.6,1-0.6,1.8v4.2H73v-7.7h1.3v1.1c0.3-0.4,0.6-0.7,1-0.9C75.7,111.5,76.2,111.4,76.7,111.4z
	 M91.1,111.4c0.6,0,1.1,0.1,1.6,0.4c0.5,0.2,0.8,0.6,1.1,1.1c0.3,0.5,0.4,1.1,0.4,1.8v4.5H93v-4.3c0-0.8-0.2-1.3-0.6-1.8
	c-0.4-0.4-0.9-0.6-1.5-0.6c-0.7,0-1.2,0.2-1.6,0.6c-0.4,0.4-0.6,1-0.6,1.8v4.2h-1.3v-4.3c0-0.8-0.2-1.3-0.6-1.8
	c-0.4-0.4-0.9-0.6-1.5-0.6c-0.7,0-1.2,0.2-1.6,0.6c-0.4,0.4-0.6,1-0.6,1.8v4.2h-1.3v-7.7h1.3v1.1c0.3-0.4,0.6-0.7,1-0.9
	s0.9-0.3,1.4-0.3c0.6,0,1.2,0.1,1.7,0.4c0.5,0.3,0.9,0.7,1.1,1.3c0.2-0.5,0.6-1,1.1-1.3C90,111.5,90.5,111.4,91.1,111.4z
	 M103.3,115.1c0,0.2,0,0.5,0,0.8h-6.1c0,0.8,0.3,1.3,0.8,1.8c0.5,0.4,1.1,0.6,1.7,0.6s1-0.1,1.4-0.4c0.4-0.3,0.6-0.6,0.8-1h1.4
	c-0.2,0.7-0.6,1.3-1.2,1.8s-1.4,0.7-2.3,0.7c-0.7,0-1.4-0.2-2-0.5s-1-0.8-1.3-1.4c-0.3-0.6-0.5-1.3-0.5-2.1s0.2-1.5,0.5-2.1
	s0.8-1.1,1.3-1.4c0.6-0.3,1.2-0.5,2-0.5c0.7,0,1.4,0.2,1.9,0.5c0.6,0.3,1,0.8,1.3,1.3C103.2,113.7,103.3,114.4,103.3,115.1z
	 M102,114.8c0-0.5-0.1-0.9-0.3-1.2c-0.2-0.4-0.5-0.6-0.9-0.8s-0.8-0.3-1.2-0.3c-0.6,0-1.2,0.2-1.7,0.6c-0.4,0.4-0.7,1-0.8,1.7H102z
	 M108.8,111.4c0.9,0,1.7,0.3,2.3,0.9c0.6,0.6,0.9,1.4,0.9,2.4v4.5h-1.3v-4.3c0-0.8-0.2-1.3-0.6-1.8c-0.4-0.4-0.9-0.6-1.6-0.6
	s-1.2,0.2-1.6,0.6c-0.4,0.4-0.6,1-0.6,1.8v4.2H105v-7.7h1.3v1.1c0.3-0.4,0.6-0.7,1-0.9C107.8,111.5,108.2,111.4,108.8,111.4z
	 M115.5,112.6v4.5c0,0.4,0.1,0.6,0.2,0.8c0.2,0.1,0.4,0.2,0.8,0.2h0.9v1.1h-1.1c-0.7,0-1.2-0.2-1.6-0.5s-0.5-0.9-0.5-1.6v-4.5h-1
	v-1.1h1v-1.9h1.3v1.9h2v1.1H115.5z"/>
<path d="M28.4,164.3c0-1,0.2-1.8,0.6-2.6s1-1.4,1.8-1.8c0.7-0.4,1.6-0.6,2.5-0.6c1.1,0,2,0.3,2.8,0.8s1.4,1.2,1.7,2.2h-1.5
	c-0.3-0.6-0.7-1-1.2-1.4c-0.5-0.3-1.1-0.5-1.8-0.5s-1.3,0.2-1.8,0.5s-1,0.8-1.3,1.4c-0.3,0.6-0.5,1.3-0.5,2c0,0.8,0.2,1.5,0.5,2
	c0.3,0.6,0.7,1,1.3,1.3c0.5,0.3,1.2,0.5,1.8,0.5c0.7,0,1.3-0.2,1.8-0.5s0.9-0.8,1.2-1.4h1.5c-0.4,0.9-0.9,1.7-1.7,2.2
	s-1.7,0.8-2.8,0.8c-0.9,0-1.7-0.2-2.5-0.6c-0.7-0.4-1.3-1-1.8-1.8C28.6,166.1,28.4,165.3,28.4,164.3z M43.5,161.4
	c0.6,0,1.1,0.1,1.6,0.4c0.5,0.2,0.8,0.6,1.1,1.1s0.4,1.1,0.4,1.8v4.5h-1.3v-4.3c0-0.8-0.2-1.3-0.6-1.8c-0.4-0.4-0.9-0.6-1.6-0.6
	c-0.7,0-1.2,0.2-1.6,0.6c-0.4,0.4-0.6,1-0.6,1.8v4.2h-1.3v-10.4H41v3.8c0.3-0.4,0.6-0.7,1-0.9C42.5,161.5,43,161.4,43.5,161.4z
	 M55.7,165.1c0,0.2,0,0.5,0,0.8h-6.1c0,0.8,0.3,1.3,0.8,1.8c0.5,0.4,1,0.6,1.7,0.6c0.6,0,1-0.1,1.4-0.4c0.4-0.3,0.6-0.6,0.8-1h1.4
	c-0.2,0.7-0.6,1.3-1.2,1.8c-0.6,0.5-1.4,0.7-2.3,0.7c-0.7,0-1.4-0.2-2-0.5s-1-0.8-1.3-1.4c-0.3-0.6-0.5-1.3-0.5-2.1s0.2-1.5,0.5-2.1
	s0.8-1.1,1.3-1.4c0.6-0.3,1.2-0.5,2-0.5c0.7,0,1.4,0.2,1.9,0.5c0.6,0.3,1,0.8,1.3,1.3C55.5,163.7,55.7,164.4,55.7,165.1z
	 M54.4,164.8c0-0.5-0.1-0.9-0.3-1.2c-0.2-0.4-0.5-0.6-0.9-0.8s-0.8-0.3-1.2-0.3c-0.6,0-1.2,0.2-1.7,0.6c-0.4,0.4-0.7,1-0.8,1.7H54.4
	z M56.9,165.4c0-0.8,0.2-1.5,0.5-2.1s0.8-1.1,1.3-1.4c0.6-0.3,1.2-0.5,1.9-0.5c0.9,0,1.7,0.2,2.3,0.7s1,1.1,1.2,1.9h-1.4
	c-0.1-0.5-0.4-0.8-0.8-1.1c-0.4-0.3-0.8-0.4-1.4-0.4c-0.7,0-1.3,0.3-1.8,0.8c-0.4,0.5-0.7,1.2-0.7,2.1c0,0.9,0.2,1.6,0.7,2.1
	c0.4,0.5,1,0.8,1.8,0.8c0.6,0,1-0.1,1.4-0.4c0.4-0.3,0.6-0.6,0.8-1.1h1.4c-0.2,0.8-0.6,1.4-1.2,1.9c-0.6,0.5-1.4,0.7-2.3,0.7
	c-0.7,0-1.4-0.2-1.9-0.5c-0.6-0.3-1-0.8-1.3-1.4C57,166.9,56.9,166.2,56.9,165.4z M70.1,169.2l-3-3.4v3.4h-1.3v-10.4h1.3v6.1l3-3.4
	h1.8l-3.6,3.8l3.6,3.9L70.1,169.2L70.1,169.2z M80,161.4c0.7,0,1.2,0.1,1.7,0.4c0.5,0.3,0.9,0.7,1.1,1.1v-1.4h1.3v7.8
	c0,0.7-0.1,1.3-0.4,1.9c-0.3,0.6-0.7,1-1.3,1.3c-0.6,0.3-1.2,0.5-1.9,0.5c-1,0-1.8-0.2-2.5-0.7s-1.1-1.1-1.2-1.9H78
	c0.1,0.5,0.4,0.8,0.9,1.1c0.4,0.3,1,0.4,1.6,0.4c0.7,0,1.3-0.2,1.7-0.7c0.4-0.4,0.7-1.1,0.7-1.8v-1.6c-0.3,0.4-0.6,0.8-1.1,1.1
	s-1.1,0.4-1.7,0.4c-0.7,0-1.3-0.2-1.9-0.5s-1-0.8-1.3-1.4c-0.3-0.6-0.5-1.3-0.5-2.1s0.2-1.5,0.5-2.1s0.8-1.1,1.3-1.4
	C78.7,161.6,79.3,161.4,80,161.4z M82.8,165.4c0-0.6-0.1-1.1-0.3-1.5s-0.6-0.8-1-1s-0.8-0.4-1.3-0.4s-0.9,0.1-1.3,0.3
	s-0.7,0.6-0.9,1c-0.2,0.4-0.4,0.9-0.4,1.5s0.1,1.1,0.4,1.5c0.2,0.4,0.5,0.8,0.9,1s0.8,0.3,1.3,0.3s0.9-0.1,1.3-0.3s0.7-0.6,1-1
	C82.7,166.4,82.8,165.9,82.8,165.4z M87.5,162.8c0.2-0.4,0.5-0.8,1-1c0.4-0.2,0.9-0.4,1.5-0.4v1.3h-0.3c-1.4,0-2.1,0.8-2.1,2.3v4.2
	h-1.3v-7.7h1.3L87.5,162.8L87.5,162.8z M91,165.3c0-0.8,0.2-1.5,0.5-2.1s0.8-1.1,1.3-1.4c0.6-0.3,1.2-0.5,1.9-0.5
	c0.7,0,1.3,0.1,1.8,0.4c0.5,0.3,0.9,0.7,1.1,1.1v-1.4h1.3v7.7h-1.3v-1.4c-0.3,0.4-0.6,0.8-1.1,1.1s-1.1,0.4-1.7,0.4
	c-0.7,0-1.3-0.2-1.8-0.5c-0.6-0.3-1-0.8-1.3-1.4C91.2,166.8,91,166.1,91,165.3z M97.5,165.4c0-0.6-0.1-1.1-0.3-1.5s-0.6-0.8-1-1
	s-0.8-0.4-1.3-0.4s-0.9,0.1-1.3,0.3s-0.7,0.6-0.9,1c-0.2,0.4-0.3,0.9-0.3,1.5s0.1,1.1,0.3,1.5c0.2,0.4,0.5,0.8,0.9,1
	s0.8,0.3,1.3,0.3s0.9-0.1,1.3-0.3s0.7-0.6,1-1C97.4,166.4,97.5,165.9,97.5,165.4z M100.5,165.3c0-0.8,0.2-1.5,0.5-2.1
	s0.8-1.1,1.3-1.4c0.6-0.3,1.2-0.5,1.9-0.5c0.6,0,1.2,0.1,1.7,0.4c0.5,0.3,0.9,0.6,1.2,1.1v-4.1h1.3v10.4H107v-1.4
	c-0.3,0.5-0.6,0.8-1.1,1.1s-1.1,0.4-1.7,0.4c-0.7,0-1.3-0.2-1.9-0.5s-1-0.8-1.3-1.4C100.6,166.8,100.5,166.1,100.5,165.3z
	 M107,165.4c0-0.6-0.1-1.1-0.3-1.5c-0.2-0.4-0.6-0.8-1-1s-0.8-0.4-1.3-0.4s-0.9,0.1-1.3,0.3s-0.7,0.6-0.9,1
	c-0.2,0.4-0.3,0.9-0.3,1.5s0.1,1.1,0.3,1.5c0.2,0.4,0.5,0.8,0.9,1s0.8,0.3,1.3,0.3s0.9-0.1,1.3-0.3s0.7-0.6,1-1
	C106.8,166.4,107,165.9,107,165.4z M117.4,165.1c0,0.2,0,0.5,0,0.8h-6.1c0,0.8,0.3,1.3,0.8,1.8c0.5,0.4,1.1,0.6,1.7,0.6
	s1-0.1,1.4-0.4c0.4-0.3,0.6-0.6,0.8-1h1.4c-0.2,0.7-0.6,1.3-1.2,1.8s-1.4,0.7-2.3,0.7c-0.7,0-1.4-0.2-2-0.5s-1-0.8-1.3-1.4
	c-0.3-0.6-0.5-1.3-0.5-2.1s0.2-1.5,0.5-2.1s0.8-1.1,1.3-1.4c0.6-0.3,1.2-0.5,2-0.5c0.7,0,1.4,0.2,1.9,0.5c0.6,0.3,1,0.8,1.3,1.3
	C117.2,163.7,117.4,164.4,117.4,165.1z M116.1,164.8c0-0.5-0.1-0.9-0.3-1.2c-0.2-0.4-0.5-0.6-0.9-0.8s-0.8-0.3-1.2-0.3
	c-0.6,0-1.2,0.2-1.7,0.6c-0.4,0.4-0.7,1-0.8,1.7H116.1z"/>
<path d="M9.8,283.3c0-1,0.2-1.8,0.6-2.6c0.4-0.8,1-1.4,1.8-1.8c0.7-0.4,1.6-0.6,2.5-0.6c1.1,0,2,0.3,2.8,0.8s1.4,1.2,1.7,2.2h-1.5
	c-0.3-0.6-0.7-1-1.2-1.4c-0.5-0.3-1.1-0.5-1.8-0.5s-1.3,0.2-1.8,0.5s-1,0.8-1.3,1.4s-0.5,1.3-0.5,2c0,0.8,0.2,1.5,0.5,2
	c0.3,0.6,0.7,1,1.3,1.3c0.5,0.3,1.2,0.5,1.8,0.5c0.7,0,1.3-0.2,1.8-0.5s0.9-0.8,1.2-1.4h1.5c-0.4,0.9-0.9,1.7-1.7,2.2
	c-0.8,0.5-1.7,0.8-2.8,0.8c-0.9,0-1.7-0.2-2.5-0.6c-0.7-0.4-1.3-1-1.8-1.8C10,285.1,9.8,284.3,9.8,283.3z M20.6,284.3
	c0-0.8,0.2-1.5,0.5-2.1s0.8-1.1,1.3-1.4c0.6-0.3,1.2-0.5,1.9-0.5c0.7,0,1.3,0.1,1.8,0.4s0.9,0.7,1.1,1.1v-1.4h1.3v7.7h-1.3v-1.4
	c-0.3,0.4-0.6,0.8-1.1,1.1c-0.5,0.3-1.1,0.4-1.7,0.4c-0.7,0-1.3-0.2-1.8-0.5c-0.6-0.3-1-0.8-1.3-1.4
	C20.7,285.8,20.6,285.1,20.6,284.3z M27.1,284.4c0-0.6-0.1-1.1-0.3-1.5c-0.2-0.4-0.6-0.8-1-1s-0.8-0.3-1.3-0.3s-0.9,0.1-1.3,0.3
	c-0.4,0.2-0.7,0.6-0.9,1c-0.2,0.4-0.3,0.9-0.3,1.5s0.1,1.1,0.3,1.5c0.2,0.4,0.5,0.8,0.9,1s0.8,0.3,1.3,0.3s0.9-0.1,1.3-0.3
	c0.4-0.2,0.7-0.6,1-1C27,285.4,27.1,284.9,27.1,284.4z M31.8,281.8c0.2-0.4,0.5-0.8,1-1c0.4-0.2,0.9-0.4,1.5-0.4v1.3H34
	c-1.4,0-2.1,0.8-2.1,2.3v4.2h-1.3v-7.7h1.3v1.3H31.8z M42.7,284.1c0,0.2,0,0.5,0,0.8h-6.1c0,0.8,0.3,1.3,0.8,1.8
	c0.5,0.4,1.1,0.6,1.7,0.6c0.6,0,1-0.1,1.4-0.4s0.6-0.6,0.8-1h1.4c-0.2,0.7-0.6,1.3-1.2,1.8c-0.6,0.5-1.4,0.7-2.3,0.7
	c-0.7,0-1.4-0.2-2-0.5s-1-0.8-1.3-1.4s-0.5-1.3-0.5-2.1s0.2-1.5,0.5-2.1s0.8-1.1,1.3-1.4c0.6-0.3,1.2-0.5,2-0.5
	c0.7,0,1.4,0.2,1.9,0.5c0.6,0.3,1,0.8,1.3,1.3C42.6,282.7,42.7,283.4,42.7,284.1z M41.4,283.8c0-0.5-0.1-0.9-0.3-1.2
	c-0.2-0.4-0.5-0.6-0.9-0.8c-0.4-0.2-0.8-0.3-1.2-0.3c-0.6,0-1.2,0.2-1.7,0.6c-0.4,0.4-0.7,1-0.8,1.7L41.4,283.8L41.4,283.8z
	 M51.4,284.1c0,0.2,0,0.5,0,0.8h-6.1c0,0.8,0.3,1.3,0.8,1.8c0.5,0.4,1,0.6,1.7,0.6c0.6,0,1-0.1,1.4-0.4s0.6-0.6,0.8-1h1.4
	c-0.2,0.7-0.6,1.3-1.2,1.8c-0.6,0.5-1.4,0.7-2.3,0.7c-0.7,0-1.4-0.2-2-0.5s-1-0.8-1.3-1.4s-0.5-1.3-0.5-2.1s0.2-1.5,0.5-2.1
	s0.8-1.1,1.3-1.4c0.6-0.3,1.2-0.5,2-0.5c0.7,0,1.4,0.2,1.9,0.5c0.6,0.3,1,0.8,1.3,1.3C51.3,282.7,51.4,283.4,51.4,284.1z
	 M50.1,283.8c0-0.5-0.1-0.9-0.3-1.2c-0.2-0.4-0.5-0.6-0.9-0.8c-0.4-0.2-0.8-0.3-1.2-0.3c-0.6,0-1.2,0.2-1.7,0.6
	c-0.4,0.4-0.7,1-0.8,1.7L50.1,283.8L50.1,283.8z M54.4,281.8c0.2-0.4,0.5-0.8,1-1c0.4-0.2,0.9-0.4,1.5-0.4v1.3h-0.3
	c-1.4,0-2.1,0.8-2.1,2.3v4.2h-1.3v-7.7h1.3v1.3H54.4z M64.8,288.3c-0.6,0-1.1-0.1-1.6-0.3c-0.5-0.2-0.8-0.5-1.1-0.8
	c-0.3-0.4-0.4-0.8-0.4-1.2H63c0,0.4,0.2,0.7,0.5,0.9c0.3,0.2,0.8,0.4,1.3,0.4s0.9-0.1,1.1-0.3c0.3-0.2,0.4-0.5,0.4-0.8
	s-0.1-0.6-0.4-0.7c-0.3-0.2-0.8-0.3-1.4-0.5c-0.6-0.1-1-0.3-1.4-0.4c-0.4-0.2-0.7-0.4-0.9-0.7c-0.3-0.3-0.4-0.7-0.4-1.2
	c0-0.4,0.1-0.8,0.3-1.1c0.2-0.3,0.6-0.6,1-0.8c0.4-0.2,0.9-0.3,1.5-0.3c0.8,0,1.5,0.2,2.1,0.6c0.5,0.4,0.8,1,0.8,1.8h-1.3
	c0-0.4-0.2-0.7-0.5-1c-0.3-0.2-0.7-0.4-1.2-0.4s-0.8,0.1-1.1,0.3c-0.3,0.2-0.4,0.5-0.4,0.8s0.1,0.5,0.2,0.6c0.2,0.2,0.4,0.3,0.6,0.4
	c0.3,0.1,0.6,0.2,1,0.3c0.6,0.1,1,0.3,1.3,0.4s0.6,0.4,0.9,0.6c0.3,0.3,0.4,0.7,0.4,1.1s-0.1,0.8-0.3,1.1c-0.2,0.3-0.6,0.6-1,0.8
	C65.8,288.2,65.3,288.3,64.8,288.3z M76.4,284.1c0,0.2,0,0.5,0,0.8h-6.1c0,0.8,0.3,1.3,0.8,1.8c0.5,0.4,1.1,0.6,1.7,0.6
	s1-0.1,1.4-0.4s0.6-0.6,0.8-1h1.4c-0.2,0.7-0.6,1.3-1.2,1.8s-1.4,0.7-2.3,0.7c-0.7,0-1.4-0.2-2-0.5s-1-0.8-1.3-1.4s-0.5-1.3-0.5-2.1
	s0.2-1.5,0.5-2.1s0.8-1.1,1.3-1.4c0.6-0.3,1.2-0.5,2-0.5c0.7,0,1.4,0.2,1.9,0.5c0.6,0.3,1,0.8,1.3,1.3
	C76.2,282.7,76.4,283.4,76.4,284.1z M75.1,283.8c0-0.5-0.1-0.9-0.3-1.2c-0.2-0.4-0.5-0.6-0.9-0.8c-0.4-0.2-0.8-0.3-1.2-0.3
	c-0.6,0-1.2,0.2-1.7,0.6c-0.4,0.4-0.7,1-0.8,1.7L75.1,283.8L75.1,283.8z M79.3,281.8c0.2-0.4,0.5-0.8,1-1c0.4-0.2,0.9-0.4,1.5-0.4
	v1.3h-0.3c-1.4,0-2.1,0.8-2.1,2.3v4.2h-1.3v-7.7h1.3L79.3,281.8L79.3,281.8z M86.1,287l2.4-6.5h1.4l-3,7.7h-1.5l-3-7.7h1.4L86.1,287
	z M91.8,279.3c-0.2,0-0.4-0.1-0.6-0.3s-0.3-0.4-0.3-0.6s0.1-0.4,0.3-0.6c0.2-0.2,0.4-0.3,0.6-0.3s0.4,0.1,0.6,0.3
	c0.2,0.2,0.3,0.4,0.3,0.6s-0.1,0.4-0.3,0.6C92.2,279.2,92,279.3,91.8,279.3z M92.4,280.5v7.7h-1.3v-7.7H92.4z M94.1,284.4
	c0-0.8,0.2-1.5,0.5-2.1s0.8-1.1,1.3-1.4c0.6-0.3,1.2-0.5,1.9-0.5c0.9,0,1.7,0.2,2.3,0.7c0.6,0.5,1,1.1,1.2,1.9H100
	c-0.1-0.5-0.4-0.8-0.8-1.1c-0.4-0.3-0.8-0.4-1.4-0.4c-0.7,0-1.3,0.3-1.8,0.8c-0.4,0.5-0.7,1.2-0.7,2.1s0.2,1.6,0.7,2.1
	c0.4,0.5,1,0.8,1.8,0.8c0.6,0,1-0.1,1.4-0.4s0.6-0.6,0.8-1.1h1.4c-0.2,0.8-0.6,1.4-1.2,1.9s-1.4,0.7-2.3,0.7c-0.7,0-1.4-0.2-1.9-0.5
	c-0.6-0.3-1-0.8-1.3-1.4C94.3,285.9,94.1,285.2,94.1,284.4z M110.1,284.1c0,0.2,0,0.5,0,0.8H104c0,0.8,0.3,1.3,0.8,1.8
	c0.5,0.4,1,0.6,1.7,0.6c0.6,0,1-0.1,1.4-0.4s0.6-0.6,0.8-1h1.4c-0.2,0.7-0.6,1.3-1.2,1.8s-1.4,0.7-2.3,0.7c-0.7,0-1.4-0.2-2-0.5
	s-1-0.8-1.3-1.4s-0.5-1.3-0.5-2.1s0.2-1.5,0.5-2.1s0.8-1.1,1.3-1.4c0.6-0.3,1.2-0.5,2-0.5c0.7,0,1.4,0.2,1.9,0.5
	c0.6,0.3,1,0.8,1.3,1.3C109.9,282.7,110.1,283.4,110.1,284.1z M108.8,283.8c0-0.5-0.1-0.9-0.3-1.2c-0.2-0.4-0.5-0.6-0.9-0.8
	c-0.4-0.2-0.8-0.3-1.2-0.3c-0.6,0-1.2,0.2-1.7,0.6c-0.4,0.4-0.7,1-0.8,1.7L108.8,283.8L108.8,283.8z M114.5,288.3
	c-0.6,0-1.1-0.1-1.6-0.3c-0.5-0.2-0.8-0.5-1.1-0.8c-0.3-0.4-0.4-0.8-0.4-1.2h1.3c0,0.4,0.2,0.7,0.5,0.9c0.3,0.2,0.8,0.4,1.3,0.4
	s0.9-0.1,1.1-0.3c0.3-0.2,0.4-0.5,0.4-0.8s-0.1-0.6-0.4-0.7c-0.3-0.2-0.8-0.3-1.4-0.5c-0.6-0.1-1-0.3-1.4-0.4
	c-0.4-0.2-0.7-0.4-0.9-0.7c-0.3-0.3-0.4-0.7-0.4-1.2c0-0.4,0.1-0.8,0.3-1.1c0.2-0.3,0.6-0.6,1-0.8c0.4-0.2,0.9-0.3,1.5-0.3
	c0.8,0,1.5,0.2,2.1,0.6c0.5,0.4,0.8,1,0.8,1.8h-1.3c0-0.4-0.2-0.7-0.5-1c-0.3-0.2-0.7-0.4-1.2-0.4s-0.8,0.1-1.1,0.3
	c-0.3,0.2-0.4,0.5-0.4,0.8s0.1,0.5,0.2,0.6c0.2,0.2,0.4,0.3,0.6,0.4c0.3,0.1,0.6,0.2,1,0.3c0.5,0.1,1,0.3,1.3,0.4s0.6,0.4,0.9,0.6
	c0.3,0.3,0.4,0.7,0.4,1.1s-0.1,0.8-0.3,1.1c-0.2,0.3-0.6,0.6-1,0.8C115.5,288.2,115,288.3,114.5,288.3z"/>
<path d="M0.9,215.3c0-1,0.2-1.8,0.6-2.6s1-1.4,1.7-1.8c0.7-0.4,1.6-0.6,2.5-0.6c1.1,0,2,0.3,2.8,0.8s1.4,1.2,1.7,2.2H8.7
	c-0.3-0.6-0.7-1-1.2-1.4c-0.5-0.3-1.1-0.5-1.8-0.5s-1.3,0.2-1.8,0.5s-1,0.8-1.3,1.4c-0.3,0.6-0.5,1.3-0.5,2c0,0.8,0.2,1.5,0.5,2
	c0.3,0.6,0.7,1,1.3,1.3c0.5,0.3,1.2,0.5,1.8,0.5c0.7,0,1.3-0.2,1.8-0.5s0.9-0.8,1.2-1.4h1.5c-0.4,0.9-0.9,1.7-1.7,2.2
	s-1.7,0.8-2.8,0.8c-0.9,0-1.7-0.2-2.5-0.6c-0.7-0.4-1.3-1-1.7-1.8C1.1,217.1,0.9,216.3,0.9,215.3z M16,212.4c0.6,0,1.1,0.1,1.6,0.4
	c0.5,0.2,0.8,0.6,1.1,1.1c0.3,0.5,0.4,1.1,0.4,1.8v4.5h-1.3v-4.3c0-0.8-0.2-1.3-0.6-1.8c-0.4-0.4-0.9-0.6-1.6-0.6
	c-0.7,0-1.2,0.2-1.6,0.6c-0.4,0.4-0.6,1-0.6,1.8v4.2h-1.3v-10.4h1.3v3.8c0.3-0.4,0.6-0.7,1-0.9C14.9,212.5,15.4,212.4,16,212.4z
	 M28.1,216.1c0,0.2,0,0.5,0,0.8H22c0,0.8,0.3,1.3,0.8,1.8c0.5,0.4,1.1,0.6,1.7,0.6s1-0.1,1.4-0.4c0.4-0.3,0.6-0.6,0.8-1H28
	c-0.2,0.7-0.6,1.3-1.2,1.8s-1.4,0.7-2.3,0.7c-0.7,0-1.4-0.2-2-0.5s-1-0.8-1.3-1.4c-0.3-0.6-0.5-1.3-0.5-2.1s0.2-1.5,0.5-2.1
	s0.8-1.1,1.3-1.4c0.6-0.3,1.2-0.5,2-0.5c0.7,0,1.4,0.2,1.9,0.5c0.6,0.3,1,0.8,1.3,1.3C28,214.7,28.1,215.4,28.1,216.1z M26.8,215.8
	c0-0.5-0.1-0.9-0.3-1.2c-0.2-0.4-0.5-0.6-0.9-0.8s-0.8-0.3-1.2-0.3c-0.6,0-1.2,0.2-1.7,0.6c-0.4,0.4-0.7,1-0.8,1.7H26.8z
	 M29.3,216.4c0-0.8,0.2-1.5,0.5-2.1s0.8-1.1,1.3-1.4c0.6-0.3,1.2-0.5,1.9-0.5c0.9,0,1.7,0.2,2.3,0.7s1,1.1,1.2,1.9h-1.4
	c-0.1-0.5-0.4-0.8-0.8-1.1c-0.4-0.3-0.8-0.4-1.4-0.4c-0.7,0-1.3,0.3-1.8,0.8c-0.4,0.5-0.7,1.2-0.7,2.1c0,0.9,0.2,1.6,0.7,2.1
	c0.4,0.5,1,0.8,1.8,0.8c0.6,0,1-0.1,1.4-0.4c0.4-0.3,0.6-0.6,0.8-1.1h1.4c-0.2,0.8-0.6,1.4-1.2,1.9c-0.6,0.5-1.4,0.7-2.3,0.7
	c-0.7,0-1.4-0.2-1.9-0.5c-0.6-0.3-1-0.8-1.3-1.4C29.5,217.9,29.3,217.2,29.3,216.4z M42.6,220.2l-3-3.4v3.4h-1.3v-10.4h1.3v6.1
	l3-3.4h1.8l-3.6,3.8l3.6,3.9L42.6,220.2L42.6,220.2z M48.8,216.4c0-0.8,0.2-1.5,0.5-2.1s0.8-1.1,1.3-1.4c0.6-0.3,1.2-0.5,1.9-0.5
	c0.9,0,1.7,0.2,2.3,0.7s1,1.1,1.2,1.9h-1.4c-0.1-0.5-0.4-0.8-0.8-1.1c-0.4-0.3-0.8-0.4-1.4-0.4c-0.7,0-1.3,0.3-1.8,0.8
	c-0.4,0.5-0.7,1.2-0.7,2.1c0,0.9,0.2,1.6,0.7,2.1c0.4,0.5,1,0.8,1.8,0.8c0.6,0,1-0.1,1.4-0.4s0.6-0.6,0.8-1.1H56
	c-0.2,0.8-0.6,1.4-1.2,1.9c-0.6,0.5-1.4,0.7-2.3,0.7c-0.7,0-1.4-0.2-1.9-0.5c-0.6-0.3-1-0.8-1.3-1.4
	C48.9,217.9,48.8,217.2,48.8,216.4z M57.3,216.3c0-0.8,0.2-1.5,0.5-2.1s0.8-1.1,1.3-1.4c0.6-0.3,1.2-0.5,1.9-0.5s1.3,0.1,1.8,0.4
	c0.5,0.3,0.9,0.7,1.1,1.1v-1.4H65v7.7h-1.3v-1.4c-0.3,0.4-0.6,0.8-1.1,1.1s-1.1,0.4-1.7,0.4c-0.7,0-1.3-0.2-1.8-0.5
	c-0.6-0.3-1-0.8-1.3-1.4C57.4,217.8,57.3,217.1,57.3,216.3z M63.8,216.4c0-0.6-0.1-1.1-0.3-1.5s-0.6-0.8-1-1s-0.8-0.4-1.3-0.4
	s-0.9,0.1-1.3,0.3c-0.4,0.2-0.7,0.6-0.9,1s-0.3,0.9-0.3,1.5s0.1,1.1,0.3,1.5s0.5,0.8,0.9,1s0.8,0.3,1.3,0.3s0.9-0.1,1.3-0.3
	c0.4-0.2,0.7-0.6,1-1C63.6,217.4,63.8,216.9,63.8,216.4z M68.5,209.8v10.4h-1.3v-10.4H68.5z M77.6,216.1c0,0.2,0,0.5,0,0.8h-6.1
	c0,0.8,0.3,1.3,0.8,1.8c0.5,0.4,1.1,0.6,1.7,0.6s1-0.1,1.4-0.4c0.4-0.3,0.6-0.6,0.8-1h1.4c-0.2,0.7-0.6,1.3-1.2,1.8
	s-1.4,0.7-2.3,0.7c-0.7,0-1.4-0.2-2-0.5s-1-0.8-1.3-1.4c-0.3-0.6-0.5-1.3-0.5-2.1s0.2-1.5,0.5-2.1s0.8-1.1,1.3-1.4
	c0.6-0.3,1.2-0.5,2-0.5c0.7,0,1.4,0.2,1.9,0.5c0.6,0.3,1,0.8,1.3,1.3C77.5,214.7,77.6,215.4,77.6,216.1z M76.3,215.8
	c0-0.5-0.1-0.9-0.3-1.2c-0.2-0.4-0.5-0.6-0.9-0.8s-0.8-0.3-1.2-0.3c-0.6,0-1.2,0.2-1.7,0.6c-0.4,0.4-0.7,1-0.8,1.7H76.3z
	 M83.1,212.4c0.9,0,1.7,0.3,2.3,0.9c0.6,0.6,0.9,1.4,0.9,2.4v4.5H85v-4.3c0-0.8-0.2-1.3-0.6-1.8c-0.4-0.4-0.9-0.6-1.6-0.6
	s-1.2,0.2-1.6,0.6c-0.4,0.4-0.6,1-0.6,1.8v4.2h-1.3v-7.7h1.3v1.1c0.3-0.4,0.6-0.7,1-0.9C82.1,212.5,82.5,212.4,83.1,212.4z
	 M87.8,216.3c0-0.8,0.2-1.5,0.5-2.1s0.8-1.1,1.3-1.4c0.6-0.3,1.2-0.5,1.9-0.5c0.6,0,1.2,0.1,1.7,0.4c0.5,0.3,0.9,0.6,1.2,1.1v-4.1
	h1.3v10.4h-1.3v-1.4c-0.3,0.5-0.6,0.8-1.1,1.1s-1.1,0.4-1.7,0.4c-0.7,0-1.3-0.2-1.9-0.5s-1-0.8-1.3-1.4
	C88,217.8,87.8,217.1,87.8,216.3z M94.3,216.4c0-0.6-0.1-1.1-0.4-1.5c-0.2-0.4-0.6-0.8-1-1s-0.8-0.4-1.3-0.4s-0.9,0.1-1.3,0.3
	s-0.7,0.6-0.9,1c-0.2,0.4-0.3,0.9-0.3,1.5s0.1,1.1,0.3,1.5c0.2,0.4,0.5,0.8,0.9,1s0.8,0.3,1.3,0.3s0.9-0.1,1.3-0.3s0.7-0.6,1-1
	C94.2,217.4,94.3,216.9,94.3,216.4z M97.3,216.3c0-0.8,0.2-1.5,0.5-2.1s0.8-1.1,1.3-1.4c0.6-0.3,1.2-0.5,1.9-0.5
	c0.7,0,1.3,0.1,1.8,0.4c0.5,0.3,0.9,0.7,1.1,1.1v-1.4h1.3v7.7h-1.3v-1.4c-0.3,0.4-0.6,0.8-1.1,1.1s-1.1,0.4-1.7,0.4
	c-0.7,0-1.3-0.2-1.8-0.5s-1-0.8-1.3-1.4C97.4,217.8,97.3,217.1,97.3,216.3z M103.8,216.4c0-0.6-0.1-1.1-0.3-1.5
	c-0.2-0.4-0.5-0.8-1-1c-0.4-0.2-0.8-0.4-1.3-0.4s-0.9,0.1-1.3,0.3s-0.7,0.6-0.9,1c-0.2,0.4-0.3,0.9-0.3,1.5s0.1,1.1,0.3,1.5
	c0.2,0.4,0.5,0.8,0.9,1s0.8,0.3,1.3,0.3s0.9-0.1,1.3-0.3s0.7-0.6,1-1C103.6,217.4,103.8,216.9,103.8,216.4z M108.5,213.8
	c0.2-0.4,0.5-0.8,1-1c0.4-0.2,0.9-0.4,1.5-0.4v1.3h-0.3c-1.4,0-2.1,0.8-2.1,2.3v4.2h-1.3v-7.7h1.3L108.5,213.8L108.5,213.8z
	 M117.2,207l-3.8,15.6h-1.3l3.8-15.6H117.2z M89,231.9c0.3-0.4,0.6-0.8,1.1-1.1s1.1-0.4,1.8-0.4c0.7,0,1.3,0.2,1.8,0.5
	c0.6,0.3,1,0.8,1.3,1.4c0.3,0.6,0.5,1.3,0.5,2.1s-0.2,1.5-0.5,2.1s-0.8,1.1-1.3,1.4c-0.6,0.3-1.2,0.5-1.8,0.5
	c-0.7,0-1.2-0.1-1.7-0.4s-0.9-0.7-1.1-1.1v5.1h-1.3v-11.3H89V231.9z M94.2,234.3c0-0.6-0.1-1.1-0.3-1.5c-0.2-0.4-0.6-0.8-1-1
	s-0.8-0.3-1.3-0.3s-0.9,0.1-1.3,0.4c-0.4,0.2-0.7,0.6-1,1c-0.2,0.4-0.3,0.9-0.3,1.5c0,0.6,0.1,1.1,0.3,1.5c0.2,0.4,0.6,0.8,1,1
	s0.8,0.3,1.3,0.3s0.9-0.1,1.3-0.3c0.4-0.2,0.7-0.6,1-1C94.1,235.4,94.2,234.9,94.2,234.3z M98.5,227.8v10.4h-1.3v-10.4L98.5,227.8
	L98.5,227.8z M100.2,234.3c0-0.8,0.2-1.5,0.5-2.1s0.8-1.1,1.3-1.4c0.6-0.3,1.2-0.5,1.9-0.5c0.7,0,1.3,0.1,1.8,0.4
	c0.5,0.3,0.9,0.7,1.1,1.1v-1.4h1.3v7.7h-1.3v-1.4c-0.3,0.4-0.6,0.8-1.1,1.1c-0.5,0.3-1.1,0.4-1.7,0.4c-0.7,0-1.3-0.2-1.8-0.5
	c-0.6-0.3-1-0.8-1.3-1.4C100.3,235.8,100.2,235.1,100.2,234.3z M106.7,234.4c0-0.6-0.1-1.1-0.3-1.5s-0.6-0.8-1-1s-0.8-0.4-1.3-0.4
	s-0.9,0.1-1.3,0.3s-0.7,0.6-0.9,1c-0.2,0.4-0.3,0.9-0.3,1.5s0.1,1.1,0.3,1.5c0.2,0.4,0.5,0.8,0.9,1s0.8,0.3,1.3,0.3s0.9-0.1,1.3-0.3
	c0.4-0.2,0.7-0.6,1-1C106.6,235.4,106.7,234.9,106.7,234.4z M113.9,230.4c0.9,0,1.7,0.3,2.3,0.9c0.6,0.6,0.9,1.4,0.9,2.4v4.5h-1.3
	v-4.3c0-0.8-0.2-1.3-0.6-1.8c-0.4-0.4-0.9-0.6-1.6-0.6s-1.2,0.2-1.6,0.6c-0.4,0.4-0.6,1-0.6,1.8v4.2h-1.3v-7.7h1.3v1.1
	c0.3-0.4,0.6-0.7,1-0.9C112.9,230.5,113.3,230.4,113.9,230.4z"/>
</svg>
