<svg width="412" height="279" viewBox="0 0 412 279" fill="none" xmlns="http://www.w3.org/2000/svg">
<path d="M364.152 13.5V11.42H368.312V26H366.012V13.5H364.152ZM371.444 18.52C371.444 16.2133 371.831 14.4133 372.604 13.12C373.391 11.8133 374.737 11.16 376.644 11.16C378.551 11.16 379.891 11.8133 380.664 13.12C381.451 14.4133 381.844 16.2133 381.844 18.52C381.844 20.8533 381.451 22.68 380.664 24C379.891 25.3067 378.551 25.96 376.644 25.96C374.737 25.96 373.391 25.3067 372.604 24C371.831 22.68 371.444 20.8533 371.444 18.52ZM379.604 18.52C379.604 17.44 379.531 16.5267 379.384 15.78C379.251 15.0333 378.971 14.4267 378.544 13.96C378.117 13.48 377.484 13.24 376.644 13.24C375.804 13.24 375.171 13.48 374.744 13.96C374.317 14.4267 374.031 15.0333 373.884 15.78C373.751 16.5267 373.684 17.44 373.684 18.52C373.684 19.64 373.751 20.58 373.884 21.34C374.017 22.1 374.297 22.7133 374.724 23.18C375.164 23.6467 375.804 23.88 376.644 23.88C377.484 23.88 378.117 23.6467 378.544 23.18C378.984 22.7133 379.271 22.1 379.404 21.34C379.537 20.58 379.604 19.64 379.604 18.52ZM384.257 18.52C384.257 16.2133 384.643 14.4133 385.417 13.12C386.203 11.8133 387.55 11.16 389.457 11.16C391.363 11.16 392.703 11.8133 393.477 13.12C394.263 14.4133 394.657 16.2133 394.657 18.52C394.657 20.8533 394.263 22.68 393.477 24C392.703 25.3067 391.363 25.96 389.457 25.96C387.55 25.96 386.203 25.3067 385.417 24C384.643 22.68 384.257 20.8533 384.257 18.52ZM392.417 18.52C392.417 17.44 392.343 16.5267 392.197 15.78C392.063 15.0333 391.783 14.4267 391.357 13.96C390.93 13.48 390.297 13.24 389.457 13.24C388.617 13.24 387.983 13.48 387.557 13.96C387.13 14.4267 386.843 15.0333 386.697 15.78C386.563 16.5267 386.497 17.44 386.497 18.52C386.497 19.64 386.563 20.58 386.697 21.34C386.83 22.1 387.11 22.7133 387.537 23.18C387.977 23.6467 388.617 23.88 389.457 23.88C390.297 23.88 390.93 23.6467 391.357 23.18C391.797 22.7133 392.083 22.1 392.217 21.34C392.35 20.58 392.417 19.64 392.417 18.52ZM396.709 14.94C396.709 13.9667 396.989 13.2067 397.549 12.66C398.122 12.1 398.856 11.82 399.749 11.82C400.642 11.82 401.369 12.1 401.929 12.66C402.502 13.2067 402.789 13.9667 402.789 14.94C402.789 15.9133 402.502 16.68 401.929 17.24C401.369 17.8 400.642 18.08 399.749 18.08C398.856 18.08 398.122 17.8 397.549 17.24C396.989 16.68 396.709 15.9133 396.709 14.94ZM408.909 12.08L400.929 26H398.689L406.669 12.08H408.909ZM399.749 13.2C398.909 13.2 398.489 13.78 398.489 14.94C398.489 16.1133 398.909 16.7 399.749 16.7C400.149 16.7 400.456 16.56 400.669 16.28C400.896 15.9867 401.009 15.54 401.009 14.94C401.009 13.78 400.589 13.2 399.749 13.2ZM404.849 23.12C404.849 22.1467 405.129 21.3867 405.689 20.84C406.262 20.28 406.996 20 407.889 20C408.769 20 409.489 20.28 410.049 20.84C410.622 21.3867 410.909 22.1467 410.909 23.12C410.909 24.0933 410.622 24.86 410.049 25.42C409.489 25.98 408.769 26.26 407.889 26.26C406.996 26.26 406.262 25.98 405.689 25.42C405.129 24.86 404.849 24.0933 404.849 23.12ZM407.869 21.38C407.029 21.38 406.609 21.96 406.609 23.12C406.609 24.28 407.029 24.86 407.869 24.86C408.709 24.86 409.129 24.28 409.129 23.12C409.129 21.96 408.709 21.38 407.869 21.38Z" fill="#212222"/>
<path d="M373.937 77.38C372.551 76.6867 371.857 75.5933 371.857 74.1C371.857 73.38 372.037 72.72 372.397 72.12C372.757 71.52 373.297 71.0467 374.017 70.7C374.737 70.34 375.617 70.16 376.657 70.16C377.684 70.16 378.557 70.34 379.277 70.7C380.011 71.0467 380.557 71.52 380.917 72.12C381.277 72.72 381.457 73.38 381.457 74.1C381.457 74.8467 381.264 75.5067 380.877 76.08C380.504 76.64 380.004 77.0733 379.377 77.38C380.137 77.66 380.737 78.12 381.177 78.76C381.617 79.3867 381.837 80.1267 381.837 80.98C381.837 81.8467 381.617 82.6133 381.177 83.28C380.737 83.9467 380.124 84.46 379.337 84.82C378.551 85.18 377.657 85.36 376.657 85.36C375.657 85.36 374.764 85.18 373.977 84.82C373.204 84.46 372.597 83.9467 372.157 83.28C371.717 82.6133 371.497 81.8467 371.497 80.98C371.497 80.1133 371.717 79.3667 372.157 78.74C372.597 78.1133 373.191 77.66 373.937 77.38ZM379.277 74.38C379.277 73.6333 379.044 73.06 378.577 72.66C378.111 72.26 377.471 72.06 376.657 72.06C375.857 72.06 375.224 72.26 374.757 72.66C374.291 73.06 374.057 73.64 374.057 74.4C374.057 75.0667 374.297 75.6133 374.777 76.04C375.271 76.4533 375.897 76.66 376.657 76.66C377.417 76.66 378.044 76.4467 378.537 76.02C379.031 75.5933 379.277 75.0467 379.277 74.38ZM376.657 78.38C375.777 78.38 375.057 78.6 374.497 79.04C373.951 79.4667 373.677 80.0867 373.677 80.9C373.677 81.66 373.944 82.28 374.477 82.76C375.011 83.2267 375.737 83.46 376.657 83.46C377.564 83.46 378.277 83.22 378.797 82.74C379.331 82.26 379.597 81.6467 379.597 80.9C379.597 80.1 379.324 79.48 378.777 79.04C378.244 78.6 377.537 78.38 376.657 78.38ZM384.231 77.52C384.231 75.2133 384.618 73.4133 385.391 72.12C386.178 70.8133 387.525 70.16 389.431 70.16C391.338 70.16 392.678 70.8133 393.451 72.12C394.238 73.4133 394.631 75.2133 394.631 77.52C394.631 79.8533 394.238 81.68 393.451 83C392.678 84.3067 391.338 84.96 389.431 84.96C387.525 84.96 386.178 84.3067 385.391 83C384.618 81.68 384.231 79.8533 384.231 77.52ZM392.391 77.52C392.391 76.44 392.318 75.5267 392.171 74.78C392.038 74.0333 391.758 73.4267 391.331 72.96C390.905 72.48 390.271 72.24 389.431 72.24C388.591 72.24 387.958 72.48 387.531 72.96C387.105 73.4267 386.818 74.0333 386.671 74.78C386.538 75.5267 386.471 76.44 386.471 77.52C386.471 78.64 386.538 79.58 386.671 80.34C386.805 81.1 387.085 81.7133 387.511 82.18C387.951 82.6467 388.591 82.88 389.431 82.88C390.271 82.88 390.905 82.6467 391.331 82.18C391.771 81.7133 392.058 81.1 392.191 80.34C392.325 79.58 392.391 78.64 392.391 77.52ZM396.684 73.94C396.684 72.9667 396.964 72.2067 397.524 71.66C398.097 71.1 398.83 70.82 399.724 70.82C400.617 70.82 401.344 71.1 401.904 71.66C402.477 72.2067 402.764 72.9667 402.764 73.94C402.764 74.9133 402.477 75.68 401.904 76.24C401.344 76.8 400.617 77.08 399.724 77.08C398.83 77.08 398.097 76.8 397.524 76.24C396.964 75.68 396.684 74.9133 396.684 73.94ZM408.884 71.08L400.904 85H398.664L406.644 71.08H408.884ZM399.724 72.2C398.884 72.2 398.464 72.78 398.464 73.94C398.464 75.1133 398.884 75.7 399.724 75.7C400.124 75.7 400.43 75.56 400.644 75.28C400.87 74.9867 400.984 74.54 400.984 73.94C400.984 72.78 400.564 72.2 399.724 72.2ZM404.824 82.12C404.824 81.1467 405.104 80.3867 405.664 79.84C406.237 79.28 406.97 79 407.864 79C408.744 79 409.464 79.28 410.024 79.84C410.597 80.3867 410.884 81.1467 410.884 82.12C410.884 83.0933 410.597 83.86 410.024 84.42C409.464 84.98 408.744 85.26 407.864 85.26C406.97 85.26 406.237 84.98 405.664 84.42C405.104 83.86 404.824 83.0933 404.824 82.12ZM407.844 80.38C407.004 80.38 406.584 80.96 406.584 82.12C406.584 83.28 407.004 83.86 407.844 83.86C408.684 83.86 409.104 83.28 409.104 82.12C409.104 80.96 408.684 80.38 407.844 80.38Z" fill="#212222"/>
<path d="M379.337 133.8C379.19 133.187 378.924 132.727 378.537 132.42C378.15 132.113 377.61 131.96 376.917 131.96C375.864 131.96 375.077 132.367 374.557 133.18C374.037 133.98 373.764 135.313 373.737 137.18C374.084 136.593 374.59 136.14 375.257 135.82C375.924 135.5 376.644 135.34 377.417 135.34C378.297 135.34 379.07 135.533 379.737 135.92C380.417 136.293 380.944 136.84 381.317 137.56C381.704 138.28 381.897 139.14 381.897 140.14C381.897 141.073 381.71 141.907 381.337 142.64C380.977 143.373 380.437 143.953 379.717 144.38C378.997 144.793 378.13 145 377.117 145C375.744 145 374.664 144.7 373.877 144.1C373.104 143.487 372.557 142.627 372.237 141.52C371.93 140.413 371.777 139.033 371.777 137.38C371.777 132.5 373.497 130.06 376.937 130.06C378.27 130.06 379.317 130.42 380.077 131.14C380.85 131.86 381.304 132.747 381.437 133.8H379.337ZM376.917 137.26C376.104 137.26 375.41 137.507 374.837 138C374.277 138.48 373.997 139.18 373.997 140.1C373.997 141.02 374.257 141.753 374.777 142.3C375.31 142.833 376.05 143.1 376.997 143.1C377.837 143.1 378.497 142.84 378.977 142.32C379.47 141.8 379.717 141.107 379.717 140.24C379.717 139.333 379.477 138.613 378.997 138.08C378.53 137.533 377.837 137.26 376.917 137.26ZM387.169 141.04C387.302 141.707 387.589 142.213 388.029 142.56C388.469 142.907 389.062 143.08 389.809 143.08C390.756 143.08 391.449 142.707 391.889 141.96C392.329 141.213 392.549 139.94 392.549 138.14C392.229 138.593 391.776 138.947 391.189 139.2C390.616 139.44 389.989 139.56 389.309 139.56C388.442 139.56 387.656 139.387 386.949 139.04C386.242 138.68 385.682 138.153 385.269 137.46C384.869 136.753 384.669 135.9 384.669 134.9C384.669 133.433 385.096 132.267 385.949 131.4C386.816 130.52 388.002 130.08 389.509 130.08C391.322 130.08 392.609 130.687 393.369 131.9C394.142 133.1 394.529 134.947 394.529 137.44C394.529 139.16 394.382 140.567 394.089 141.66C393.809 142.753 393.316 143.58 392.609 144.14C391.902 144.7 390.922 144.98 389.669 144.98C388.242 144.98 387.142 144.607 386.369 143.86C385.596 143.113 385.162 142.173 385.069 141.04H387.169ZM389.709 137.64C390.509 137.64 391.136 137.393 391.589 136.9C392.056 136.393 392.289 135.727 392.289 134.9C392.289 133.98 392.042 133.267 391.549 132.76C391.069 132.24 390.409 131.98 389.569 131.98C388.729 131.98 388.062 132.247 387.569 132.78C387.089 133.3 386.849 133.987 386.849 134.84C386.849 135.653 387.082 136.327 387.549 136.86C388.029 137.38 388.749 137.64 389.709 137.64ZM396.664 133.94C396.664 132.967 396.944 132.207 397.504 131.66C398.078 131.1 398.811 130.82 399.704 130.82C400.598 130.82 401.324 131.1 401.884 131.66C402.458 132.207 402.744 132.967 402.744 133.94C402.744 134.913 402.458 135.68 401.884 136.24C401.324 136.8 400.598 137.08 399.704 137.08C398.811 137.08 398.078 136.8 397.504 136.24C396.944 135.68 396.664 134.913 396.664 133.94ZM408.864 131.08L400.884 145H398.644L406.624 131.08H408.864ZM399.704 132.2C398.864 132.2 398.444 132.78 398.444 133.94C398.444 135.113 398.864 135.7 399.704 135.7C400.104 135.7 400.411 135.56 400.624 135.28C400.851 134.987 400.964 134.54 400.964 133.94C400.964 132.78 400.544 132.2 399.704 132.2ZM404.804 142.12C404.804 141.147 405.084 140.387 405.644 139.84C406.218 139.28 406.951 139 407.844 139C408.724 139 409.444 139.28 410.004 139.84C410.578 140.387 410.864 141.147 410.864 142.12C410.864 143.093 410.578 143.86 410.004 144.42C409.444 144.98 408.724 145.26 407.844 145.26C406.951 145.26 406.218 144.98 405.644 144.42C405.084 143.86 404.804 143.093 404.804 142.12ZM407.824 140.38C406.984 140.38 406.564 140.96 406.564 142.12C406.564 143.28 406.984 143.86 407.824 143.86C408.664 143.86 409.084 143.28 409.084 142.12C409.084 140.96 408.664 140.38 407.824 140.38Z" fill="#212222"/>
<path d="M372.396 193.02C372.476 191.78 372.95 190.813 373.816 190.12C374.696 189.427 375.816 189.08 377.176 189.08C378.11 189.08 378.916 189.247 379.596 189.58C380.276 189.913 380.79 190.367 381.136 190.94C381.483 191.513 381.656 192.16 381.656 192.88C381.656 193.707 381.436 194.413 380.996 195C380.556 195.587 380.03 195.98 379.416 196.18V196.26C380.203 196.5 380.816 196.94 381.256 197.58C381.696 198.207 381.916 199.013 381.916 200C381.916 200.787 381.736 201.487 381.376 202.1C381.016 202.713 380.483 203.2 379.776 203.56C379.07 203.907 378.223 204.08 377.236 204.08C375.796 204.08 374.61 203.713 373.676 202.98C372.756 202.233 372.263 201.167 372.196 199.78H374.396C374.45 200.487 374.723 201.067 375.216 201.52C375.71 201.96 376.376 202.18 377.216 202.18C378.03 202.18 378.656 201.96 379.096 201.52C379.536 201.067 379.756 200.487 379.756 199.78C379.756 198.847 379.456 198.187 378.856 197.8C378.27 197.4 377.363 197.2 376.136 197.2H375.616V195.32H376.156C377.236 195.307 378.056 195.127 378.616 194.78C379.19 194.433 379.476 193.887 379.476 193.14C379.476 192.5 379.27 191.993 378.856 191.62C378.443 191.233 377.856 191.04 377.096 191.04C376.35 191.04 375.77 191.233 375.356 191.62C374.943 191.993 374.696 192.46 374.616 193.02H372.396ZM393.711 191.38H387.011V195.36C387.291 194.987 387.705 194.673 388.251 194.42C388.811 194.167 389.405 194.04 390.031 194.04C391.151 194.04 392.058 194.28 392.751 194.76C393.458 195.24 393.958 195.847 394.251 196.58C394.558 197.313 394.711 198.087 394.711 198.9C394.711 199.887 394.518 200.767 394.131 201.54C393.758 202.3 393.191 202.9 392.431 203.34C391.685 203.78 390.765 204 389.671 204C388.218 204 387.051 203.64 386.171 202.92C385.291 202.2 384.765 201.247 384.591 200.06H386.811C386.958 200.687 387.285 201.187 387.791 201.56C388.298 201.92 388.931 202.1 389.691 202.1C390.638 202.1 391.345 201.813 391.811 201.24C392.291 200.667 392.531 199.907 392.531 198.96C392.531 198 392.291 197.267 391.811 196.76C391.331 196.24 390.625 195.98 389.691 195.98C389.038 195.98 388.485 196.147 388.031 196.48C387.591 196.8 387.271 197.24 387.071 197.8H384.911V189.38H393.711V191.38ZM396.725 192.94C396.725 191.967 397.005 191.207 397.565 190.66C398.138 190.1 398.871 189.82 399.765 189.82C400.658 189.82 401.385 190.1 401.945 190.66C402.518 191.207 402.805 191.967 402.805 192.94C402.805 193.913 402.518 194.68 401.945 195.24C401.385 195.8 400.658 196.08 399.765 196.08C398.871 196.08 398.138 195.8 397.565 195.24C397.005 194.68 396.725 193.913 396.725 192.94ZM408.925 190.08L400.945 204H398.705L406.685 190.08H408.925ZM399.765 191.2C398.925 191.2 398.505 191.78 398.505 192.94C398.505 194.113 398.925 194.7 399.765 194.7C400.165 194.7 400.471 194.56 400.685 194.28C400.911 193.987 401.025 193.54 401.025 192.94C401.025 191.78 400.605 191.2 399.765 191.2ZM404.865 201.12C404.865 200.147 405.145 199.387 405.705 198.84C406.278 198.28 407.011 198 407.905 198C408.785 198 409.505 198.28 410.065 198.84C410.638 199.387 410.925 200.147 410.925 201.12C410.925 202.093 410.638 202.86 410.065 203.42C409.505 203.98 408.785 204.26 407.905 204.26C407.011 204.26 406.278 203.98 405.705 203.42C405.145 202.86 404.865 202.093 404.865 201.12ZM407.885 199.38C407.045 199.38 406.625 199.96 406.625 201.12C406.625 202.28 407.045 202.86 407.885 202.86C408.725 202.86 409.145 202.28 409.145 201.12C409.145 199.96 408.725 199.38 407.885 199.38Z" fill="#212222"/>
<path d="M384.006 259.96V258.24L390.726 248.6H393.486V257.98H395.346V259.96H393.486V263H391.246V259.96H384.006ZM391.346 250.92L386.626 257.98H391.346V250.92ZM396.875 251.94C396.875 250.967 397.155 250.207 397.715 249.66C398.288 249.1 399.022 248.82 399.915 248.82C400.808 248.82 401.535 249.1 402.095 249.66C402.668 250.207 402.955 250.967 402.955 251.94C402.955 252.913 402.668 253.68 402.095 254.24C401.535 254.8 400.808 255.08 399.915 255.08C399.022 255.08 398.288 254.8 397.715 254.24C397.155 253.68 396.875 252.913 396.875 251.94ZM409.075 249.08L401.095 263H398.855L406.835 249.08H409.075ZM399.915 250.2C399.075 250.2 398.655 250.78 398.655 251.94C398.655 253.113 399.075 253.7 399.915 253.7C400.315 253.7 400.622 253.56 400.835 253.28C401.062 252.987 401.175 252.54 401.175 251.94C401.175 250.78 400.755 250.2 399.915 250.2ZM405.015 260.12C405.015 259.147 405.295 258.387 405.855 257.84C406.428 257.28 407.162 257 408.055 257C408.935 257 409.655 257.28 410.215 257.84C410.788 258.387 411.075 259.147 411.075 260.12C411.075 261.093 410.788 261.86 410.215 262.42C409.655 262.98 408.935 263.26 408.055 263.26C407.162 263.26 406.428 262.98 405.855 262.42C405.295 261.86 405.015 261.093 405.015 260.12ZM408.035 258.38C407.195 258.38 406.775 258.96 406.775 260.12C406.775 261.28 407.195 261.86 408.035 261.86C408.875 261.86 409.295 261.28 409.295 260.12C409.295 258.96 408.875 258.38 408.035 258.38Z" fill="#212222"/>
<rect x="338" width="42" height="200" rx="2" transform="rotate(90 338 0)" fill="#6D91EA"/>
<rect x="298" y="59" width="42" height="160" rx="2" transform="rotate(90 298 59)" fill="#6D91EA"/>
<rect x="276" y="119" width="41" height="138" rx="2" transform="rotate(90 276 119)" fill="#6D91EA"/>
<rect x="208" y="178" width="42" height="70" rx="2" transform="rotate(90 208 178)" fill="#6D91EA"/>
<rect x="146" y="237" width="42" height="8" rx="2" transform="rotate(90 146 237)" fill="#6D91EA"/>
<path d="M58.309 20.114C58.309 19.162 58.5237 18.308 58.953 17.552C59.3824 16.7867 59.9657 16.1893 60.703 15.76C61.4497 15.3307 62.2757 15.116 63.181 15.116C64.245 15.116 65.1737 15.3727 65.967 15.886C66.7604 16.3993 67.339 17.1273 67.703 18.07H66.177C65.9064 17.482 65.5144 17.0293 65.001 16.712C64.497 16.3947 63.8904 16.236 63.181 16.236C62.4997 16.236 61.8884 16.3947 61.347 16.712C60.8057 17.0293 60.381 17.482 60.073 18.07C59.765 18.6487 59.611 19.33 59.611 20.114C59.611 20.8887 59.765 21.57 60.073 22.158C60.381 22.7367 60.8057 23.1847 61.347 23.502C61.8884 23.8193 62.4997 23.978 63.181 23.978C63.8904 23.978 64.497 23.824 65.001 23.516C65.5144 23.1987 65.9064 22.746 66.177 22.158H67.703C67.339 23.0913 66.7604 23.8147 65.967 24.328C65.1737 24.832 64.245 25.084 63.181 25.084C62.2757 25.084 61.4497 24.874 60.703 24.454C59.9657 24.0247 59.3824 23.432 58.953 22.676C58.5237 21.92 58.309 21.066 58.309 20.114ZM73.4075 17.188C73.9862 17.188 74.5088 17.314 74.9755 17.566C75.4422 17.8087 75.8062 18.1773 76.0675 18.672C76.3382 19.1667 76.4735 19.7687 76.4735 20.478V25H75.2135V20.66C75.2135 19.8947 75.0222 19.3113 74.6395 18.91C74.2568 18.4993 73.7342 18.294 73.0715 18.294C72.3995 18.294 71.8628 18.504 71.4615 18.924C71.0695 19.344 70.8735 19.9553 70.8735 20.758V25H69.5995V14.64H70.8735V18.42C71.1255 18.028 71.4708 17.7247 71.9095 17.51C72.3575 17.2953 72.8568 17.188 73.4075 17.188ZM85.5546 20.87C85.5546 21.1127 85.5406 21.3693 85.5126 21.64H79.3806C79.4272 22.396 79.6839 22.9887 80.1506 23.418C80.6266 23.838 81.2006 24.048 81.8726 24.048C82.4232 24.048 82.8806 23.922 83.2446 23.67C83.6179 23.4087 83.8792 23.0633 84.0286 22.634H85.4006C85.1952 23.3713 84.7846 23.9733 84.1686 24.44C83.5526 24.8973 82.7872 25.126 81.8726 25.126C81.1446 25.126 80.4912 24.9627 79.9126 24.636C79.3432 24.3093 78.8952 23.8473 78.5686 23.25C78.2419 22.6433 78.0786 21.9433 78.0786 21.15C78.0786 20.3567 78.2372 19.6613 78.5546 19.064C78.8719 18.4667 79.3152 18.0093 79.8846 17.692C80.4632 17.3653 81.1259 17.202 81.8726 17.202C82.6006 17.202 83.2446 17.3607 83.8046 17.678C84.3646 17.9953 84.7939 18.434 85.0926 18.994C85.4006 19.5447 85.5546 20.17 85.5546 20.87ZM84.2386 20.604C84.2386 20.1187 84.1312 19.7033 83.9166 19.358C83.7019 19.0033 83.4079 18.7373 83.0346 18.56C82.6706 18.3733 82.2646 18.28 81.8166 18.28C81.1726 18.28 80.6219 18.4853 80.1646 18.896C79.7166 19.3067 79.4599 19.876 79.3946 20.604H84.2386ZM86.7602 21.15C86.7602 20.3567 86.9189 19.666 87.2362 19.078C87.5535 18.4807 87.9922 18.0187 88.5522 17.692C89.1215 17.3653 89.7702 17.202 90.4982 17.202C91.4409 17.202 92.2155 17.4307 92.8222 17.888C93.4382 18.3453 93.8442 18.98 94.0402 19.792H92.6682C92.5375 19.3253 92.2809 18.9567 91.8982 18.686C91.5249 18.4153 91.0582 18.28 90.4982 18.28C89.7702 18.28 89.1822 18.532 88.7342 19.036C88.2862 19.5307 88.0622 20.2353 88.0622 21.15C88.0622 22.074 88.2862 22.788 88.7342 23.292C89.1822 23.796 89.7702 24.048 90.4982 24.048C91.0582 24.048 91.5249 23.9173 91.8982 23.656C92.2715 23.3947 92.5282 23.0213 92.6682 22.536H94.0402C93.8349 23.32 93.4242 23.95 92.8082 24.426C92.1922 24.8927 91.4222 25.126 90.4982 25.126C89.7702 25.126 89.1215 24.9627 88.5522 24.636C87.9922 24.3093 87.5535 23.8473 87.2362 23.25C86.9189 22.6527 86.7602 21.9527 86.7602 21.15ZM100.024 25L97.0141 21.612V25H95.7401V14.64H97.0141V20.73L99.9681 17.328H101.746L98.1341 21.15L101.76 25H100.024ZM107.336 16.082C107.093 16.082 106.888 15.998 106.72 15.83C106.552 15.662 106.468 15.4567 106.468 15.214C106.468 14.9713 106.552 14.766 106.72 14.598C106.888 14.43 107.093 14.346 107.336 14.346C107.569 14.346 107.765 14.43 107.924 14.598C108.092 14.766 108.176 14.9713 108.176 15.214C108.176 15.4567 108.092 15.662 107.924 15.83C107.765 15.998 107.569 16.082 107.336 16.082ZM107.952 17.328V25H106.678V17.328H107.952ZM113.861 17.188C114.794 17.188 115.55 17.4727 116.129 18.042C116.708 18.602 116.997 19.414 116.997 20.478V25H115.737V20.66C115.737 19.8947 115.546 19.3113 115.163 18.91C114.78 18.4993 114.258 18.294 113.595 18.294C112.923 18.294 112.386 18.504 111.985 18.924C111.593 19.344 111.397 19.9553 111.397 20.758V25H110.123V17.328H111.397V18.42C111.649 18.028 111.99 17.7247 112.419 17.51C112.858 17.2953 113.338 17.188 113.861 17.188Z" fill="black"/>
<path d="M72.5704 76.098C71.9264 76.098 71.3478 75.986 70.8344 75.762C70.3304 75.5287 69.9338 75.2113 69.6444 74.81C69.3551 74.3993 69.2058 73.928 69.1964 73.396H70.5544C70.6011 73.8533 70.7878 74.2407 71.1144 74.558C71.4504 74.866 71.9358 75.02 72.5704 75.02C73.1771 75.02 73.6531 74.8707 73.9984 74.572C74.3531 74.264 74.5304 73.872 74.5304 73.396C74.5304 73.0227 74.4278 72.7193 74.2224 72.486C74.0171 72.2527 73.7604 72.0753 73.4524 71.954C73.1444 71.8327 72.7291 71.702 72.2064 71.562C71.5624 71.394 71.0444 71.226 70.6524 71.058C70.2698 70.89 69.9384 70.6287 69.6584 70.274C69.3878 69.91 69.2524 69.4247 69.2524 68.818C69.2524 68.286 69.3878 67.8147 69.6584 67.404C69.9291 66.9933 70.3071 66.676 70.7924 66.452C71.2871 66.228 71.8518 66.116 72.4864 66.116C73.4011 66.116 74.1478 66.3447 74.7264 66.802C75.3144 67.2593 75.6458 67.866 75.7204 68.622H74.3204C74.2738 68.2487 74.0778 67.922 73.7324 67.642C73.3871 67.3527 72.9298 67.208 72.3604 67.208C71.8284 67.208 71.3944 67.348 71.0584 67.628C70.7224 67.8987 70.5544 68.2813 70.5544 68.776C70.5544 69.1307 70.6524 69.42 70.8484 69.644C71.0538 69.868 71.3011 70.0407 71.5904 70.162C71.8891 70.274 72.3044 70.4047 72.8364 70.554C73.4804 70.7313 73.9984 70.9087 74.3904 71.086C74.7824 71.254 75.1184 71.52 75.3984 71.884C75.6784 72.2387 75.8184 72.724 75.8184 73.34C75.8184 73.816 75.6924 74.264 75.4404 74.684C75.1884 75.104 74.8151 75.4447 74.3204 75.706C73.8258 75.9673 73.2424 76.098 72.5704 76.098ZM84.4972 68.328V76H83.2232V74.866C82.9806 75.258 82.6399 75.566 82.2012 75.79C81.7719 76.0047 81.2959 76.112 80.7732 76.112C80.1759 76.112 79.6392 75.9907 79.1632 75.748C78.6872 75.496 78.3092 75.1227 78.0292 74.628C77.7586 74.1333 77.6232 73.5313 77.6232 72.822V68.328H78.8832V72.654C78.8832 73.41 79.0746 73.9933 79.4572 74.404C79.8399 74.8053 80.3626 75.006 81.0252 75.006C81.7066 75.006 82.2432 74.796 82.6352 74.376C83.0272 73.956 83.2232 73.3447 83.2232 72.542V68.328H84.4972ZM87.9223 69.756C88.1836 69.2987 88.5663 68.9253 89.0703 68.636C89.5743 68.3467 90.1483 68.202 90.7923 68.202C91.483 68.202 92.1036 68.3653 92.6543 68.692C93.205 69.0187 93.639 69.4807 93.9563 70.078C94.2736 70.666 94.4323 71.352 94.4323 72.136C94.4323 72.9107 94.2736 73.6013 93.9563 74.208C93.639 74.8147 93.2003 75.286 92.6403 75.622C92.0896 75.958 91.4736 76.126 90.7923 76.126C90.1296 76.126 89.5463 75.9813 89.0423 75.692C88.5476 75.4027 88.1743 75.034 87.9223 74.586V76H86.6483V65.64H87.9223V69.756ZM93.1303 72.136C93.1303 71.5573 93.0136 71.0533 92.7803 70.624C92.547 70.1947 92.2296 69.868 91.8283 69.644C91.4363 69.42 91.0023 69.308 90.5263 69.308C90.0596 69.308 89.6256 69.4247 89.2243 69.658C88.8323 69.882 88.515 70.2133 88.2723 70.652C88.039 71.0813 87.9223 71.5807 87.9223 72.15C87.9223 72.7287 88.039 73.2373 88.2723 73.676C88.515 74.1053 88.8323 74.4367 89.2243 74.67C89.6256 74.894 90.0596 75.006 90.5263 75.006C91.0023 75.006 91.4363 74.894 91.8283 74.67C92.2296 74.4367 92.547 74.1053 92.7803 73.676C93.0136 73.2373 93.1303 72.724 93.1303 72.136ZM105.335 68.188C105.933 68.188 106.465 68.314 106.931 68.566C107.398 68.8087 107.767 69.1773 108.037 69.672C108.308 70.1667 108.443 70.7687 108.443 71.478V76H107.183V71.66C107.183 70.8947 106.992 70.3113 106.609 69.91C106.236 69.4993 105.727 69.294 105.083 69.294C104.421 69.294 103.893 69.5087 103.501 69.938C103.109 70.358 102.913 70.9693 102.913 71.772V76H101.653V71.66C101.653 70.8947 101.462 70.3113 101.079 69.91C100.706 69.4993 100.197 69.294 99.5533 69.294C98.8906 69.294 98.3633 69.5087 97.9713 69.938C97.5793 70.358 97.3833 70.9693 97.3833 71.772V76H96.1093V68.328H97.3833V69.434C97.6353 69.0327 97.9713 68.7247 98.3913 68.51C98.8206 68.2953 99.2919 68.188 99.8053 68.188C100.449 68.188 101.019 68.3327 101.513 68.622C102.008 68.9113 102.377 69.336 102.619 69.896C102.834 69.3547 103.189 68.9347 103.683 68.636C104.178 68.3373 104.729 68.188 105.335 68.188ZM111.191 67.082C110.948 67.082 110.743 66.998 110.575 66.83C110.407 66.662 110.323 66.4567 110.323 66.214C110.323 65.9713 110.407 65.766 110.575 65.598C110.743 65.43 110.948 65.346 111.191 65.346C111.424 65.346 111.62 65.43 111.779 65.598C111.947 65.766 112.031 65.9713 112.031 66.214C112.031 66.4567 111.947 66.662 111.779 66.83C111.62 66.998 111.424 67.082 111.191 67.082ZM111.807 68.328V76H110.533V68.328H111.807ZM115.532 69.378V73.9C115.532 74.2733 115.612 74.5393 115.77 74.698C115.929 74.8473 116.204 74.922 116.596 74.922H117.534V76H116.386C115.677 76 115.145 75.8367 114.79 75.51C114.436 75.1833 114.258 74.6467 114.258 73.9V69.378H113.264V68.328H114.258V66.396H115.532V68.328H117.534V69.378H115.532ZM35.4907 90.136C35.4907 89.352 35.6493 88.666 35.9667 88.078C36.284 87.4807 36.718 87.0187 37.2687 86.692C37.8287 86.3653 38.4493 86.202 39.1307 86.202C39.8027 86.202 40.386 86.3467 40.8807 86.636C41.3753 86.9253 41.744 87.2893 41.9867 87.728V86.328H43.2747V94H41.9867V92.572C41.7347 93.02 41.3567 93.3933 40.8527 93.692C40.358 93.9813 39.7793 94.126 39.1167 94.126C38.4353 94.126 37.8193 93.958 37.2687 93.622C36.718 93.286 36.284 92.8147 35.9667 92.208C35.6493 91.6013 35.4907 90.9107 35.4907 90.136ZM41.9867 90.15C41.9867 89.5713 41.87 89.0673 41.6367 88.638C41.4033 88.2087 41.086 87.882 40.6847 87.658C40.2927 87.4247 39.8587 87.308 39.3827 87.308C38.9067 87.308 38.4727 87.42 38.0807 87.644C37.6887 87.868 37.376 88.1947 37.1427 88.624C36.9093 89.0533 36.7927 89.5573 36.7927 90.136C36.7927 90.724 36.9093 91.2373 37.1427 91.676C37.376 92.1053 37.6887 92.4367 38.0807 92.67C38.4727 92.894 38.9067 93.006 39.3827 93.006C39.8587 93.006 40.2927 92.894 40.6847 92.67C41.086 92.4367 41.4033 92.1053 41.6367 91.676C41.87 91.2373 41.9867 90.7287 41.9867 90.15ZM48.1436 94.126C47.5556 94.126 47.0283 94.028 46.5616 93.832C46.0949 93.6267 45.7263 93.3467 45.4556 92.992C45.1849 92.628 45.0356 92.2127 45.0076 91.746H46.3236C46.3609 92.1287 46.5383 92.4413 46.8556 92.684C47.1823 92.9267 47.6069 93.048 48.1296 93.048C48.6149 93.048 48.9976 92.9407 49.2776 92.726C49.5576 92.5113 49.6976 92.2407 49.6976 91.914C49.6976 91.578 49.5483 91.3307 49.2496 91.172C48.9509 91.004 48.4889 90.8407 47.8636 90.682C47.2943 90.5327 46.8276 90.3833 46.4636 90.234C46.1089 90.0753 45.8009 89.8467 45.5396 89.548C45.2876 89.24 45.1616 88.8387 45.1616 88.344C45.1616 87.952 45.2783 87.5927 45.5116 87.266C45.7449 86.9393 46.0763 86.6827 46.5056 86.496C46.9349 86.3 47.4249 86.202 47.9756 86.202C48.8249 86.202 49.5109 86.4167 50.0336 86.846C50.5563 87.2753 50.8363 87.8633 50.8736 88.61H49.5996C49.5716 88.2087 49.4083 87.8867 49.1096 87.644C48.8203 87.4013 48.4283 87.28 47.9336 87.28C47.4763 87.28 47.1123 87.378 46.8416 87.574C46.5709 87.77 46.4356 88.0267 46.4356 88.344C46.4356 88.596 46.5149 88.806 46.6736 88.974C46.8416 89.1327 47.0469 89.2633 47.2896 89.366C47.5416 89.4593 47.8869 89.5667 48.3256 89.688C48.8763 89.8373 49.3243 89.9867 49.6696 90.136C50.0149 90.276 50.3089 90.4907 50.5516 90.78C50.8036 91.0693 50.9343 91.4473 50.9436 91.914C50.9436 92.334 50.8269 92.712 50.5936 93.048C50.3603 93.384 50.0289 93.65 49.5996 93.846C49.1796 94.0327 48.6943 94.126 48.1436 94.126ZM55.4581 94.126C54.8701 94.126 54.3427 94.028 53.8761 93.832C53.4094 93.6267 53.0407 93.3467 52.7701 92.992C52.4994 92.628 52.3501 92.2127 52.3221 91.746H53.6381C53.6754 92.1287 53.8527 92.4413 54.1701 92.684C54.4967 92.9267 54.9214 93.048 55.4441 93.048C55.9294 93.048 56.3121 92.9407 56.5921 92.726C56.8721 92.5113 57.0121 92.2407 57.0121 91.914C57.0121 91.578 56.8627 91.3307 56.5641 91.172C56.2654 91.004 55.8034 90.8407 55.1781 90.682C54.6087 90.5327 54.1421 90.3833 53.7781 90.234C53.4234 90.0753 53.1154 89.8467 52.8541 89.548C52.6021 89.24 52.4761 88.8387 52.4761 88.344C52.4761 87.952 52.5927 87.5927 52.8261 87.266C53.0594 86.9393 53.3907 86.6827 53.8201 86.496C54.2494 86.3 54.7394 86.202 55.2901 86.202C56.1394 86.202 56.8254 86.4167 57.3481 86.846C57.8707 87.2753 58.1507 87.8633 58.1881 88.61H56.9141C56.8861 88.2087 56.7227 87.8867 56.4241 87.644C56.1347 87.4013 55.7427 87.28 55.2481 87.28C54.7907 87.28 54.4267 87.378 54.1561 87.574C53.8854 87.77 53.7501 88.0267 53.7501 88.344C53.7501 88.596 53.8294 88.806 53.9881 88.974C54.1561 89.1327 54.3614 89.2633 54.6041 89.366C54.8561 89.4593 55.2014 89.5667 55.6401 89.688C56.1907 89.8373 56.6387 89.9867 56.9841 90.136C57.3294 90.276 57.6234 90.4907 57.8661 90.78C58.1181 91.0693 58.2487 91.4473 58.2581 91.914C58.2581 92.334 58.1414 92.712 57.9081 93.048C57.6747 93.384 57.3434 93.65 56.9141 93.846C56.4941 94.0327 56.0087 94.126 55.4581 94.126ZM60.7145 85.082C60.4718 85.082 60.2665 84.998 60.0985 84.83C59.9305 84.662 59.8465 84.4567 59.8465 84.214C59.8465 83.9713 59.9305 83.766 60.0985 83.598C60.2665 83.43 60.4718 83.346 60.7145 83.346C60.9478 83.346 61.1438 83.43 61.3025 83.598C61.4705 83.766 61.5545 83.9713 61.5545 84.214C61.5545 84.4567 61.4705 84.662 61.3025 84.83C61.1438 84.998 60.9478 85.082 60.7145 85.082ZM61.3305 86.328V94H60.0565V86.328H61.3305ZM66.6658 86.202C67.3285 86.202 67.9072 86.3467 68.4018 86.636C68.9058 86.9253 69.2792 87.2893 69.5218 87.728V86.328H70.8098V94.168C70.8098 94.868 70.6605 95.4887 70.3618 96.03C70.0632 96.5807 69.6338 97.01 69.0738 97.318C68.5232 97.626 67.8792 97.78 67.1418 97.78C66.1338 97.78 65.2938 97.542 64.6218 97.066C63.9498 96.59 63.5532 95.9413 63.4318 95.12H64.6918C64.8318 95.5867 65.1212 95.96 65.5598 96.24C65.9985 96.5293 66.5258 96.674 67.1418 96.674C67.8418 96.674 68.4112 96.4547 68.8498 96.016C69.2978 95.5773 69.5218 94.9613 69.5218 94.168V92.558C69.2698 93.006 68.8965 93.3793 68.4018 93.678C67.9072 93.9767 67.3285 94.126 66.6658 94.126C65.9845 94.126 65.3638 93.958 64.8038 93.622C64.2532 93.286 63.8192 92.8147 63.5018 92.208C63.1845 91.6013 63.0258 90.9107 63.0258 90.136C63.0258 89.352 63.1845 88.666 63.5018 88.078C63.8192 87.4807 64.2532 87.0187 64.8038 86.692C65.3638 86.3653 65.9845 86.202 66.6658 86.202ZM69.5218 90.15C69.5218 89.5713 69.4052 89.0673 69.1718 88.638C68.9385 88.2087 68.6212 87.882 68.2198 87.658C67.8278 87.4247 67.3938 87.308 66.9178 87.308C66.4418 87.308 66.0078 87.42 65.6158 87.644C65.2238 87.868 64.9112 88.1947 64.6778 88.624C64.4445 89.0533 64.3278 89.5573 64.3278 90.136C64.3278 90.724 64.4445 91.2373 64.6778 91.676C64.9112 92.1053 65.2238 92.4367 65.6158 92.67C66.0078 92.894 66.4418 93.006 66.9178 93.006C67.3938 93.006 67.8278 92.894 68.2198 92.67C68.6212 92.4367 68.9385 92.1053 69.1718 91.676C69.4052 91.2373 69.5218 90.7287 69.5218 90.15ZM76.7008 86.188C77.6341 86.188 78.3901 86.4727 78.9688 87.042C79.5474 87.602 79.8368 88.414 79.8368 89.478V94H78.5768V89.66C78.5768 88.8947 78.3854 88.3113 78.0028 87.91C77.6201 87.4993 77.0974 87.294 76.4348 87.294C75.7628 87.294 75.2261 87.504 74.8248 87.924C74.4328 88.344 74.2368 88.9553 74.2368 89.758V94H72.9628V86.328H74.2368V87.42C74.4888 87.028 74.8294 86.7247 75.2588 86.51C75.6974 86.2953 76.1781 86.188 76.7008 86.188ZM91.1438 86.188C91.7412 86.188 92.2732 86.314 92.7398 86.566C93.2065 86.8087 93.5752 87.1773 93.8458 87.672C94.1165 88.1667 94.2518 88.7687 94.2518 89.478V94H92.9918V89.66C92.9918 88.8947 92.8005 88.3113 92.4178 87.91C92.0445 87.4993 91.5358 87.294 90.8918 87.294C90.2292 87.294 89.7018 87.5087 89.3098 87.938C88.9178 88.358 88.7218 88.9693 88.7218 89.772V94H87.4618V89.66C87.4618 88.8947 87.2705 88.3113 86.8878 87.91C86.5145 87.4993 86.0058 87.294 85.3618 87.294C84.6992 87.294 84.1718 87.5087 83.7798 87.938C83.3878 88.358 83.1918 88.9693 83.1918 89.772V94H81.9178V86.328H83.1918V87.434C83.4438 87.0327 83.7798 86.7247 84.1998 86.51C84.6292 86.2953 85.1005 86.188 85.6138 86.188C86.2578 86.188 86.8272 86.3327 87.3218 86.622C87.8165 86.9113 88.1852 87.336 88.4278 87.896C88.6425 87.3547 88.9972 86.9347 89.4918 86.636C89.9865 86.3373 90.5372 86.188 91.1438 86.188ZM103.342 89.87C103.342 90.1127 103.328 90.3693 103.3 90.64H97.1677C97.2143 91.396 97.471 91.9887 97.9377 92.418C98.4137 92.838 98.9877 93.048 99.6597 93.048C100.21 93.048 100.668 92.922 101.032 92.67C101.405 92.4087 101.666 92.0633 101.816 91.634H103.188C102.982 92.3713 102.572 92.9733 101.956 93.44C101.34 93.8973 100.574 94.126 99.6597 94.126C98.9317 94.126 98.2783 93.9627 97.6997 93.636C97.1303 93.3093 96.6823 92.8473 96.3557 92.25C96.029 91.6433 95.8657 90.9433 95.8657 90.15C95.8657 89.3567 96.0243 88.6613 96.3417 88.064C96.659 87.4667 97.1023 87.0093 97.6717 86.692C98.2503 86.3653 98.913 86.202 99.6597 86.202C100.388 86.202 101.032 86.3607 101.592 86.678C102.152 86.9953 102.581 87.434 102.88 87.994C103.188 88.5447 103.342 89.17 103.342 89.87ZM102.026 89.604C102.026 89.1187 101.918 88.7033 101.704 88.358C101.489 88.0033 101.195 87.7373 100.822 87.56C100.458 87.3733 100.052 87.28 99.6037 87.28C98.9597 87.28 98.409 87.4853 97.9517 87.896C97.5037 88.3067 97.247 88.876 97.1817 89.604H102.026ZM108.761 86.188C109.695 86.188 110.451 86.4727 111.029 87.042C111.608 87.602 111.897 88.414 111.897 89.478V94H110.637V89.66C110.637 88.8947 110.446 88.3113 110.063 87.91C109.681 87.4993 109.158 87.294 108.495 87.294C107.823 87.294 107.287 87.504 106.885 87.924C106.493 88.344 106.297 88.9553 106.297 89.758V94H105.023V86.328H106.297V87.42C106.549 87.028 106.89 86.7247 107.319 86.51C107.758 86.2953 108.239 86.188 108.761 86.188ZM115.532 87.378V91.9C115.532 92.2733 115.612 92.5393 115.77 92.698C115.929 92.8473 116.204 92.922 116.596 92.922H117.534V94H116.386C115.677 94 115.145 93.8367 114.79 93.51C114.436 93.1833 114.258 92.6467 114.258 91.9V87.378H113.264V86.328H114.258V84.396H115.532V86.328H117.534V87.378H115.532Z" fill="black"/>
<path d="M28.4223 139.114C28.4223 138.162 28.637 137.308 29.0663 136.552C29.4956 135.787 30.079 135.189 30.8163 134.76C31.563 134.331 32.389 134.116 33.2943 134.116C34.3583 134.116 35.287 134.373 36.0803 134.886C36.8736 135.399 37.4523 136.127 37.8163 137.07H36.2903C36.0196 136.482 35.6276 136.029 35.1143 135.712C34.6103 135.395 34.0036 135.236 33.2943 135.236C32.613 135.236 32.0016 135.395 31.4603 135.712C30.919 136.029 30.4943 136.482 30.1863 137.07C29.8783 137.649 29.7243 138.33 29.7243 139.114C29.7243 139.889 29.8783 140.57 30.1863 141.158C30.4943 141.737 30.919 142.185 31.4603 142.502C32.0016 142.819 32.613 142.978 33.2943 142.978C34.0036 142.978 34.6103 142.824 35.1143 142.516C35.6276 142.199 36.0196 141.746 36.2903 141.158H37.8163C37.4523 142.091 36.8736 142.815 36.0803 143.328C35.287 143.832 34.3583 144.084 33.2943 144.084C32.389 144.084 31.563 143.874 30.8163 143.454C30.079 143.025 29.4956 142.432 29.0663 141.676C28.637 140.92 28.4223 140.066 28.4223 139.114ZM43.5208 136.188C44.0994 136.188 44.6221 136.314 45.0888 136.566C45.5554 136.809 45.9194 137.177 46.1808 137.672C46.4514 138.167 46.5868 138.769 46.5868 139.478V144H45.3268V139.66C45.3268 138.895 45.1354 138.311 44.7528 137.91C44.3701 137.499 43.8474 137.294 43.1848 137.294C42.5128 137.294 41.9761 137.504 41.5748 137.924C41.1828 138.344 40.9868 138.955 40.9868 139.758V144H39.7128V133.64H40.9868V137.42C41.2388 137.028 41.5841 136.725 42.0228 136.51C42.4708 136.295 42.9701 136.188 43.5208 136.188ZM55.6678 139.87C55.6678 140.113 55.6538 140.369 55.6258 140.64H49.4938C49.5405 141.396 49.7972 141.989 50.2638 142.418C50.7398 142.838 51.3138 143.048 51.9858 143.048C52.5365 143.048 52.9938 142.922 53.3578 142.67C53.7312 142.409 53.9925 142.063 54.1418 141.634H55.5138C55.3085 142.371 54.8978 142.973 54.2818 143.44C53.6658 143.897 52.9005 144.126 51.9858 144.126C51.2578 144.126 50.6045 143.963 50.0258 143.636C49.4565 143.309 49.0085 142.847 48.6818 142.25C48.3552 141.643 48.1918 140.943 48.1918 140.15C48.1918 139.357 48.3505 138.661 48.6678 138.064C48.9852 137.467 49.4285 137.009 49.9978 136.692C50.5765 136.365 51.2392 136.202 51.9858 136.202C52.7138 136.202 53.3578 136.361 53.9178 136.678C54.4778 136.995 54.9072 137.434 55.2058 137.994C55.5138 138.545 55.6678 139.17 55.6678 139.87ZM54.3518 139.604C54.3518 139.119 54.2445 138.703 54.0298 138.358C53.8152 138.003 53.5212 137.737 53.1478 137.56C52.7838 137.373 52.3778 137.28 51.9298 137.28C51.2858 137.28 50.7352 137.485 50.2778 137.896C49.8298 138.307 49.5732 138.876 49.5078 139.604H54.3518ZM56.8735 140.15C56.8735 139.357 57.0322 138.666 57.3495 138.078C57.6668 137.481 58.1055 137.019 58.6655 136.692C59.2348 136.365 59.8835 136.202 60.6115 136.202C61.5542 136.202 62.3288 136.431 62.9355 136.888C63.5515 137.345 63.9575 137.98 64.1535 138.792H62.7815C62.6508 138.325 62.3942 137.957 62.0115 137.686C61.6382 137.415 61.1715 137.28 60.6115 137.28C59.8835 137.28 59.2955 137.532 58.8475 138.036C58.3995 138.531 58.1755 139.235 58.1755 140.15C58.1755 141.074 58.3995 141.788 58.8475 142.292C59.2955 142.796 59.8835 143.048 60.6115 143.048C61.1715 143.048 61.6382 142.917 62.0115 142.656C62.3848 142.395 62.6415 142.021 62.7815 141.536H64.1535C63.9482 142.32 63.5375 142.95 62.9215 143.426C62.3055 143.893 61.5355 144.126 60.6115 144.126C59.8835 144.126 59.2348 143.963 58.6655 143.636C58.1055 143.309 57.6668 142.847 57.3495 142.25C57.0322 141.653 56.8735 140.953 56.8735 140.15ZM70.1374 144L67.1274 140.612V144H65.8534V133.64H67.1274V139.73L70.0814 136.328H71.8594L68.2474 140.15L71.8734 144H70.1374ZM79.9549 136.202C80.6176 136.202 81.1962 136.347 81.6909 136.636C82.1949 136.925 82.5682 137.289 82.8109 137.728V136.328H84.0989V144.168C84.0989 144.868 83.9496 145.489 83.6509 146.03C83.3522 146.581 82.9229 147.01 82.3629 147.318C81.8122 147.626 81.1682 147.78 80.4309 147.78C79.4229 147.78 78.5829 147.542 77.9109 147.066C77.2389 146.59 76.8422 145.941 76.7209 145.12H77.9809C78.1209 145.587 78.4102 145.96 78.8489 146.24C79.2876 146.529 79.8149 146.674 80.4309 146.674C81.1309 146.674 81.7002 146.455 82.1389 146.016C82.5869 145.577 82.8109 144.961 82.8109 144.168V142.558C82.5589 143.006 82.1856 143.379 81.6909 143.678C81.1962 143.977 80.6176 144.126 79.9549 144.126C79.2736 144.126 78.6529 143.958 78.0929 143.622C77.5422 143.286 77.1082 142.815 76.7909 142.208C76.4736 141.601 76.3149 140.911 76.3149 140.136C76.3149 139.352 76.4736 138.666 76.7909 138.078C77.1082 137.481 77.5422 137.019 78.0929 136.692C78.6529 136.365 79.2736 136.202 79.9549 136.202ZM82.8109 140.15C82.8109 139.571 82.6942 139.067 82.4609 138.638C82.2276 138.209 81.9102 137.882 81.5089 137.658C81.1169 137.425 80.6829 137.308 80.2069 137.308C79.7309 137.308 79.2969 137.42 78.9049 137.644C78.5129 137.868 78.2002 138.195 77.9669 138.624C77.7336 139.053 77.6169 139.557 77.6169 140.136C77.6169 140.724 77.7336 141.237 77.9669 141.676C78.2002 142.105 78.5129 142.437 78.9049 142.67C79.2969 142.894 79.7309 143.006 80.2069 143.006C80.6829 143.006 81.1169 142.894 81.5089 142.67C81.9102 142.437 82.2276 142.105 82.4609 141.676C82.6942 141.237 82.8109 140.729 82.8109 140.15ZM87.5258 137.574C87.7498 137.135 88.0672 136.795 88.4778 136.552C88.8978 136.309 89.4065 136.188 90.0038 136.188V137.504H89.6678C88.2398 137.504 87.5258 138.279 87.5258 139.828V144H86.2518V136.328H87.5258V137.574ZM90.9985 140.136C90.9985 139.352 91.1572 138.666 91.4745 138.078C91.7918 137.481 92.2258 137.019 92.7765 136.692C93.3365 136.365 93.9572 136.202 94.6385 136.202C95.3105 136.202 95.8938 136.347 96.3885 136.636C96.8832 136.925 97.2518 137.289 97.4945 137.728V136.328H98.7825V144H97.4945V142.572C97.2425 143.02 96.8645 143.393 96.3605 143.692C95.8658 143.981 95.2872 144.126 94.6245 144.126C93.9432 144.126 93.3272 143.958 92.7765 143.622C92.2258 143.286 91.7918 142.815 91.4745 142.208C91.1572 141.601 90.9985 140.911 90.9985 140.136ZM97.4945 140.15C97.4945 139.571 97.3778 139.067 97.1445 138.638C96.9112 138.209 96.5938 137.882 96.1925 137.658C95.8005 137.425 95.3665 137.308 94.8905 137.308C94.4145 137.308 93.9805 137.42 93.5885 137.644C93.1965 137.868 92.8838 138.195 92.6505 138.624C92.4172 139.053 92.3005 139.557 92.3005 140.136C92.3005 140.724 92.4172 141.237 92.6505 141.676C92.8838 142.105 93.1965 142.437 93.5885 142.67C93.9805 142.894 94.4145 143.006 94.8905 143.006C95.3665 143.006 95.8005 142.894 96.1925 142.67C96.5938 142.437 96.9112 142.105 97.1445 141.676C97.3778 141.237 97.4945 140.729 97.4945 140.15ZM100.459 140.136C100.459 139.352 100.618 138.666 100.935 138.078C101.253 137.481 101.687 137.019 102.237 136.692C102.797 136.365 103.423 136.202 104.113 136.202C104.711 136.202 105.266 136.342 105.779 136.622C106.293 136.893 106.685 137.252 106.955 137.7V133.64H108.243V144H106.955V142.558C106.703 143.015 106.33 143.393 105.835 143.692C105.341 143.981 104.762 144.126 104.099 144.126C103.418 144.126 102.797 143.958 102.237 143.622C101.687 143.286 101.253 142.815 100.935 142.208C100.618 141.601 100.459 140.911 100.459 140.136ZM106.955 140.15C106.955 139.571 106.839 139.067 106.605 138.638C106.372 138.209 106.055 137.882 105.653 137.658C105.261 137.425 104.827 137.308 104.351 137.308C103.875 137.308 103.441 137.42 103.049 137.644C102.657 137.868 102.345 138.195 102.111 138.624C101.878 139.053 101.761 139.557 101.761 140.136C101.761 140.724 101.878 141.237 102.111 141.676C102.345 142.105 102.657 142.437 103.049 142.67C103.441 142.894 103.875 143.006 104.351 143.006C104.827 143.006 105.261 142.894 105.653 142.67C106.055 142.437 106.372 142.105 106.605 141.676C106.839 141.237 106.955 140.729 106.955 140.15ZM117.396 139.87C117.396 140.113 117.382 140.369 117.354 140.64H111.222C111.269 141.396 111.526 141.989 111.992 142.418C112.468 142.838 113.042 143.048 113.714 143.048C114.265 143.048 114.722 142.922 115.086 142.67C115.46 142.409 115.721 142.063 115.87 141.634H117.242C117.037 142.371 116.626 142.973 116.01 143.44C115.394 143.897 114.629 144.126 113.714 144.126C112.986 144.126 112.333 143.963 111.754 143.636C111.185 143.309 110.737 142.847 110.41 142.25C110.084 141.643 109.92 140.943 109.92 140.15C109.92 139.357 110.079 138.661 110.396 138.064C110.714 137.467 111.157 137.009 111.726 136.692C112.305 136.365 112.968 136.202 113.714 136.202C114.442 136.202 115.086 136.361 115.646 136.678C116.206 136.995 116.636 137.434 116.934 137.994C117.242 138.545 117.396 139.17 117.396 139.87ZM116.08 139.604C116.08 139.119 115.973 138.703 115.758 138.358C115.544 138.003 115.25 137.737 114.876 137.56C114.512 137.373 114.106 137.28 113.658 137.28C113.014 137.28 112.464 137.485 112.006 137.896C111.558 138.307 111.302 138.876 111.236 139.604H116.08Z" fill="black"/>
<path d="M9.77388 258.114C9.77388 257.162 9.98854 256.308 10.4179 255.552C10.8472 254.787 11.4305 254.189 12.1679 253.76C12.9145 253.331 13.7405 253.116 14.6459 253.116C15.7099 253.116 16.6385 253.373 17.4319 253.886C18.2252 254.399 18.8039 255.127 19.1679 256.07H17.6419C17.3712 255.482 16.9792 255.029 16.4659 254.712C15.9619 254.395 15.3552 254.236 14.6459 254.236C13.9645 254.236 13.3532 254.395 12.8119 254.712C12.2705 255.029 11.8459 255.482 11.5379 256.07C11.2299 256.649 11.0759 257.33 11.0759 258.114C11.0759 258.889 11.2299 259.57 11.5379 260.158C11.8459 260.737 12.2705 261.185 12.8119 261.502C13.3532 261.819 13.9645 261.978 14.6459 261.978C15.3552 261.978 15.9619 261.824 16.4659 261.516C16.9792 261.199 17.3712 260.746 17.6419 260.158H19.1679C18.8039 261.091 18.2252 261.815 17.4319 262.328C16.6385 262.832 15.7099 263.084 14.6459 263.084C13.7405 263.084 12.9145 262.874 12.1679 262.454C11.4305 262.025 10.8472 261.432 10.4179 260.676C9.98854 259.92 9.77388 259.066 9.77388 258.114ZM20.5883 259.136C20.5883 258.352 20.747 257.666 21.0643 257.078C21.3817 256.481 21.8157 256.019 22.3663 255.692C22.9263 255.365 23.547 255.202 24.2283 255.202C24.9003 255.202 25.4837 255.347 25.9783 255.636C26.473 255.925 26.8417 256.289 27.0843 256.728V255.328H28.3723V263H27.0843V261.572C26.8323 262.02 26.4543 262.393 25.9503 262.692C25.4557 262.981 24.877 263.126 24.2143 263.126C23.533 263.126 22.917 262.958 22.3663 262.622C21.8157 262.286 21.3817 261.815 21.0643 261.208C20.747 260.601 20.5883 259.911 20.5883 259.136ZM27.0843 259.15C27.0843 258.571 26.9677 258.067 26.7343 257.638C26.501 257.209 26.1837 256.882 25.7823 256.658C25.3903 256.425 24.9563 256.308 24.4803 256.308C24.0043 256.308 23.5703 256.42 23.1783 256.644C22.7863 256.868 22.4737 257.195 22.2403 257.624C22.007 258.053 21.8903 258.557 21.8903 259.136C21.8903 259.724 22.007 260.237 22.2403 260.676C22.4737 261.105 22.7863 261.437 23.1783 261.67C23.5703 261.894 24.0043 262.006 24.4803 262.006C24.9563 262.006 25.3903 261.894 25.7823 261.67C26.1837 261.437 26.501 261.105 26.7343 260.676C26.9677 260.237 27.0843 259.729 27.0843 259.15ZM31.7993 256.574C32.0233 256.135 32.3406 255.795 32.7513 255.552C33.1713 255.309 33.6799 255.188 34.2773 255.188V256.504H33.9413C32.5133 256.504 31.7993 257.279 31.7993 258.828V263H30.5253V255.328H31.7993V256.574ZM42.7479 258.87C42.7479 259.113 42.7339 259.369 42.7059 259.64H36.5739C36.6206 260.396 36.8773 260.989 37.3439 261.418C37.8199 261.838 38.3939 262.048 39.0659 262.048C39.6166 262.048 40.0739 261.922 40.4379 261.67C40.8113 261.409 41.0726 261.063 41.2219 260.634H42.5939C42.3886 261.371 41.9779 261.973 41.3619 262.44C40.7459 262.897 39.9806 263.126 39.0659 263.126C38.3379 263.126 37.6846 262.963 37.1059 262.636C36.5366 262.309 36.0886 261.847 35.7619 261.25C35.4353 260.643 35.2719 259.943 35.2719 259.15C35.2719 258.357 35.4306 257.661 35.7479 257.064C36.0653 256.467 36.5086 256.009 37.0779 255.692C37.6566 255.365 38.3193 255.202 39.0659 255.202C39.7939 255.202 40.4379 255.361 40.9979 255.678C41.5579 255.995 41.9873 256.434 42.2859 256.994C42.5939 257.545 42.7479 258.17 42.7479 258.87ZM41.4319 258.604C41.4319 258.119 41.3246 257.703 41.1099 257.358C40.8953 257.003 40.6013 256.737 40.2279 256.56C39.8639 256.373 39.4579 256.28 39.0099 256.28C38.3659 256.28 37.8153 256.485 37.3579 256.896C36.9099 257.307 36.6533 257.876 36.5879 258.604H41.4319ZM51.4296 258.87C51.4296 259.113 51.4156 259.369 51.3876 259.64H45.2556C45.3022 260.396 45.5589 260.989 46.0256 261.418C46.5016 261.838 47.0756 262.048 47.7476 262.048C48.2982 262.048 48.7556 261.922 49.1196 261.67C49.4929 261.409 49.7542 261.063 49.9036 260.634H51.2756C51.0702 261.371 50.6596 261.973 50.0436 262.44C49.4276 262.897 48.6622 263.126 47.7476 263.126C47.0196 263.126 46.3662 262.963 45.7876 262.636C45.2182 262.309 44.7702 261.847 44.4436 261.25C44.1169 260.643 43.9536 259.943 43.9536 259.15C43.9536 258.357 44.1122 257.661 44.4296 257.064C44.7469 256.467 45.1902 256.009 45.7596 255.692C46.3382 255.365 47.0009 255.202 47.7476 255.202C48.4756 255.202 49.1196 255.361 49.6796 255.678C50.2396 255.995 50.6689 256.434 50.9676 256.994C51.2756 257.545 51.4296 258.17 51.4296 258.87ZM50.1136 258.604C50.1136 258.119 50.0062 257.703 49.7916 257.358C49.5769 257.003 49.2829 256.737 48.9096 256.56C48.5456 256.373 48.1396 256.28 47.6916 256.28C47.0476 256.28 46.4969 256.485 46.0396 256.896C45.5916 257.307 45.3349 257.876 45.2696 258.604H50.1136ZM54.3852 256.574C54.6092 256.135 54.9265 255.795 55.3372 255.552C55.7572 255.309 56.2659 255.188 56.8632 255.188V256.504H56.5272C55.0992 256.504 54.3852 257.279 54.3852 258.828V263H53.1112V255.328H54.3852V256.574ZM64.7823 263.126C64.1943 263.126 63.6669 263.028 63.2003 262.832C62.7336 262.627 62.3649 262.347 62.0943 261.992C61.8236 261.628 61.6743 261.213 61.6463 260.746H62.9623C62.9996 261.129 63.1769 261.441 63.4943 261.684C63.8209 261.927 64.2456 262.048 64.7683 262.048C65.2536 262.048 65.6363 261.941 65.9163 261.726C66.1963 261.511 66.3363 261.241 66.3363 260.914C66.3363 260.578 66.1869 260.331 65.8883 260.172C65.5896 260.004 65.1276 259.841 64.5023 259.682C63.9329 259.533 63.4663 259.383 63.1023 259.234C62.7476 259.075 62.4396 258.847 62.1783 258.548C61.9263 258.24 61.8003 257.839 61.8003 257.344C61.8003 256.952 61.9169 256.593 62.1503 256.266C62.3836 255.939 62.7149 255.683 63.1443 255.496C63.5736 255.3 64.0636 255.202 64.6143 255.202C65.4636 255.202 66.1496 255.417 66.6723 255.846C67.1949 256.275 67.4749 256.863 67.5123 257.61H66.2383C66.2103 257.209 66.0469 256.887 65.7483 256.644C65.4589 256.401 65.0669 256.28 64.5723 256.28C64.1149 256.28 63.7509 256.378 63.4803 256.574C63.2096 256.77 63.0743 257.027 63.0743 257.344C63.0743 257.596 63.1536 257.806 63.3123 257.974C63.4803 258.133 63.6856 258.263 63.9283 258.366C64.1803 258.459 64.5256 258.567 64.9643 258.688C65.5149 258.837 65.9629 258.987 66.3083 259.136C66.6536 259.276 66.9476 259.491 67.1903 259.78C67.4423 260.069 67.5729 260.447 67.5823 260.914C67.5823 261.334 67.4656 261.712 67.2323 262.048C66.9989 262.384 66.6676 262.65 66.2383 262.846C65.8183 263.033 65.3329 263.126 64.7823 263.126ZM76.3807 258.87C76.3807 259.113 76.3667 259.369 76.3387 259.64H70.2067C70.2534 260.396 70.5101 260.989 70.9767 261.418C71.4527 261.838 72.0267 262.048 72.6987 262.048C73.2494 262.048 73.7067 261.922 74.0707 261.67C74.4441 261.409 74.7054 261.063 74.8547 260.634H76.2267C76.0214 261.371 75.6107 261.973 74.9947 262.44C74.3787 262.897 73.6134 263.126 72.6987 263.126C71.9707 263.126 71.3174 262.963 70.7387 262.636C70.1694 262.309 69.7214 261.847 69.3947 261.25C69.0681 260.643 68.9047 259.943 68.9047 259.15C68.9047 258.357 69.0634 257.661 69.3807 257.064C69.6981 256.467 70.1414 256.009 70.7107 255.692C71.2894 255.365 71.9521 255.202 72.6987 255.202C73.4267 255.202 74.0707 255.361 74.6307 255.678C75.1907 255.995 75.6201 256.434 75.9187 256.994C76.2267 257.545 76.3807 258.17 76.3807 258.87ZM75.0647 258.604C75.0647 258.119 74.9574 257.703 74.7427 257.358C74.5281 257.003 74.2341 256.737 73.8607 256.56C73.4967 256.373 73.0907 256.28 72.6427 256.28C71.9987 256.28 71.4481 256.485 70.9907 256.896C70.5427 257.307 70.2861 257.876 70.2207 258.604H75.0647ZM79.3364 256.574C79.5604 256.135 79.8777 255.795 80.2884 255.552C80.7084 255.309 81.217 255.188 81.8144 255.188V256.504H81.4784C80.0504 256.504 79.3364 257.279 79.3364 258.828V263H78.0624V255.328H79.3364V256.574ZM86.141 261.824L88.521 255.328H89.879L86.869 263H85.385L82.375 255.328H83.747L86.141 261.824ZM91.7907 254.082C91.548 254.082 91.3427 253.998 91.1747 253.83C91.0067 253.662 90.9227 253.457 90.9227 253.214C90.9227 252.971 91.0067 252.766 91.1747 252.598C91.3427 252.43 91.548 252.346 91.7907 252.346C92.024 252.346 92.22 252.43 92.3787 252.598C92.5467 252.766 92.6307 252.971 92.6307 253.214C92.6307 253.457 92.5467 253.662 92.3787 253.83C92.22 253.998 92.024 254.082 91.7907 254.082ZM92.4067 255.328V263H91.1327V255.328H92.4067ZM94.102 259.15C94.102 258.357 94.2607 257.666 94.578 257.078C94.8953 256.481 95.334 256.019 95.894 255.692C96.4633 255.365 97.112 255.202 97.84 255.202C98.7827 255.202 99.5573 255.431 100.164 255.888C100.78 256.345 101.186 256.98 101.382 257.792H100.01C99.8793 257.325 99.6227 256.957 99.24 256.686C98.8667 256.415 98.4 256.28 97.84 256.28C97.112 256.28 96.524 256.532 96.076 257.036C95.628 257.531 95.404 258.235 95.404 259.15C95.404 260.074 95.628 260.788 96.076 261.292C96.524 261.796 97.112 262.048 97.84 262.048C98.4 262.048 98.8667 261.917 99.24 261.656C99.6133 261.395 99.87 261.021 100.01 260.536H101.382C101.177 261.32 100.766 261.95 100.15 262.426C99.534 262.893 98.764 263.126 97.84 263.126C97.112 263.126 96.4633 262.963 95.894 262.636C95.334 262.309 94.8953 261.847 94.578 261.25C94.2607 260.653 94.102 259.953 94.102 259.15ZM110.082 258.87C110.082 259.113 110.068 259.369 110.04 259.64H103.908C103.955 260.396 104.211 260.989 104.678 261.418C105.154 261.838 105.728 262.048 106.4 262.048C106.951 262.048 107.408 261.922 107.772 261.67C108.145 261.409 108.407 261.063 108.556 260.634H109.928C109.723 261.371 109.312 261.973 108.696 262.44C108.08 262.897 107.315 263.126 106.4 263.126C105.672 263.126 105.019 262.963 104.44 262.636C103.871 262.309 103.423 261.847 103.096 261.25C102.769 260.643 102.606 259.943 102.606 259.15C102.606 258.357 102.765 257.661 103.082 257.064C103.399 256.467 103.843 256.009 104.412 255.692C104.991 255.365 105.653 255.202 106.4 255.202C107.128 255.202 107.772 255.361 108.332 255.678C108.892 255.995 109.321 256.434 109.62 256.994C109.928 257.545 110.082 258.17 110.082 258.87ZM108.766 258.604C108.766 258.119 108.659 257.703 108.444 257.358C108.229 257.003 107.935 256.737 107.562 256.56C107.198 256.373 106.792 256.28 106.344 256.28C105.7 256.28 105.149 256.485 104.692 256.896C104.244 257.307 103.987 257.876 103.922 258.604H108.766ZM114.48 263.126C113.892 263.126 113.364 263.028 112.898 262.832C112.431 262.627 112.062 262.347 111.792 261.992C111.521 261.628 111.372 261.213 111.344 260.746H112.66C112.697 261.129 112.874 261.441 113.192 261.684C113.518 261.927 113.943 262.048 114.466 262.048C114.951 262.048 115.334 261.941 115.614 261.726C115.894 261.511 116.034 261.241 116.034 260.914C116.034 260.578 115.884 260.331 115.586 260.172C115.287 260.004 114.825 259.841 114.2 259.682C113.63 259.533 113.164 259.383 112.8 259.234C112.445 259.075 112.137 258.847 111.876 258.548C111.624 258.24 111.498 257.839 111.498 257.344C111.498 256.952 111.614 256.593 111.848 256.266C112.081 255.939 112.412 255.683 112.842 255.496C113.271 255.3 113.761 255.202 114.312 255.202C115.161 255.202 115.847 255.417 116.37 255.846C116.892 256.275 117.172 256.863 117.21 257.61H115.936C115.908 257.209 115.744 256.887 115.446 256.644C115.156 256.401 114.764 256.28 114.27 256.28C113.812 256.28 113.448 256.378 113.178 256.574C112.907 256.77 112.772 257.027 112.772 257.344C112.772 257.596 112.851 257.806 113.01 257.974C113.178 258.133 113.383 258.263 113.626 258.366C113.878 258.459 114.223 258.567 114.662 258.688C115.212 258.837 115.66 258.987 116.006 259.136C116.351 259.276 116.645 259.491 116.888 259.78C117.14 260.069 117.27 260.447 117.28 260.914C117.28 261.334 117.163 261.712 116.93 262.048C116.696 262.384 116.365 262.65 115.936 262.846C115.516 263.033 115.03 263.126 114.48 263.126Z" fill="black"/>
<path d="M0.859813 190.114C0.859813 189.162 1.07448 188.308 1.50381 187.552C1.93315 186.787 2.51648 186.189 3.25381 185.76C4.00048 185.331 4.82648 185.116 5.73181 185.116C6.79581 185.116 7.72448 185.373 8.51781 185.886C9.31115 186.399 9.88981 187.127 10.2538 188.07H8.72781C8.45715 187.482 8.06515 187.029 7.55181 186.712C7.04781 186.395 6.44115 186.236 5.73181 186.236C5.05048 186.236 4.43915 186.395 3.89781 186.712C3.35648 187.029 2.93181 187.482 2.62381 188.07C2.31581 188.649 2.16181 189.33 2.16181 190.114C2.16181 190.889 2.31581 191.57 2.62381 192.158C2.93181 192.737 3.35648 193.185 3.89781 193.502C4.43915 193.819 5.05048 193.978 5.73181 193.978C6.44115 193.978 7.04781 193.824 7.55181 193.516C8.06515 193.199 8.45715 192.746 8.72781 192.158H10.2538C9.88981 193.091 9.31115 193.815 8.51781 194.328C7.72448 194.832 6.79581 195.084 5.73181 195.084C4.82648 195.084 4.00048 194.874 3.25381 194.454C2.51648 194.025 1.93315 193.432 1.50381 192.676C1.07448 191.92 0.859813 191.066 0.859813 190.114ZM15.9583 187.188C16.5369 187.188 17.0596 187.314 17.5263 187.566C17.9929 187.809 18.3569 188.177 18.6183 188.672C18.8889 189.167 19.0243 189.769 19.0243 190.478V195H17.7643V190.66C17.7643 189.895 17.5729 189.311 17.1903 188.91C16.8076 188.499 16.2849 188.294 15.6223 188.294C14.9503 188.294 14.4136 188.504 14.0123 188.924C13.6203 189.344 13.4243 189.955 13.4243 190.758V195H12.1503V184.64H13.4243V188.42C13.6763 188.028 14.0216 187.725 14.4603 187.51C14.9083 187.295 15.4076 187.188 15.9583 187.188ZM28.1053 190.87C28.1053 191.113 28.0913 191.369 28.0633 191.64H21.9313C21.978 192.396 22.2347 192.989 22.7013 193.418C23.1773 193.838 23.7513 194.048 24.4233 194.048C24.974 194.048 25.4313 193.922 25.7953 193.67C26.1687 193.409 26.43 193.063 26.5793 192.634H27.9513C27.746 193.371 27.3353 193.973 26.7193 194.44C26.1033 194.897 25.338 195.126 24.4233 195.126C23.6953 195.126 23.042 194.963 22.4633 194.636C21.894 194.309 21.446 193.847 21.1193 193.25C20.7927 192.643 20.6293 191.943 20.6293 191.15C20.6293 190.357 20.788 189.661 21.1053 189.064C21.4227 188.467 21.866 188.009 22.4353 187.692C23.014 187.365 23.6767 187.202 24.4233 187.202C25.1513 187.202 25.7953 187.361 26.3553 187.678C26.9153 187.995 27.3447 188.434 27.6433 188.994C27.9513 189.545 28.1053 190.17 28.1053 190.87ZM26.7893 190.604C26.7893 190.119 26.682 189.703 26.4673 189.358C26.2527 189.003 25.9587 188.737 25.5853 188.56C25.2213 188.373 24.8153 188.28 24.3673 188.28C23.7233 188.28 23.1727 188.485 22.7153 188.896C22.2673 189.307 22.0107 189.876 21.9453 190.604H26.7893ZM29.311 191.15C29.311 190.357 29.4697 189.666 29.787 189.078C30.1043 188.481 30.543 188.019 31.103 187.692C31.6723 187.365 32.321 187.202 33.049 187.202C33.9917 187.202 34.7663 187.431 35.373 187.888C35.989 188.345 36.395 188.98 36.591 189.792H35.219C35.0883 189.325 34.8317 188.957 34.449 188.686C34.0757 188.415 33.609 188.28 33.049 188.28C32.321 188.28 31.733 188.532 31.285 189.036C30.837 189.531 30.613 190.235 30.613 191.15C30.613 192.074 30.837 192.788 31.285 193.292C31.733 193.796 32.321 194.048 33.049 194.048C33.609 194.048 34.0757 193.917 34.449 193.656C34.8223 193.395 35.079 193.021 35.219 192.536H36.591C36.3857 193.32 35.975 193.95 35.359 194.426C34.743 194.893 33.973 195.126 33.049 195.126C32.321 195.126 31.6723 194.963 31.103 194.636C30.543 194.309 30.1043 193.847 29.787 193.25C29.4697 192.653 29.311 191.953 29.311 191.15ZM42.5749 195L39.5649 191.612V195H38.2909V184.64H39.5649V190.73L42.5189 187.328H44.2969L40.6849 191.15L44.3109 195H42.5749ZM48.7524 191.15C48.7524 190.357 48.9111 189.666 49.2284 189.078C49.5457 188.481 49.9844 188.019 50.5444 187.692C51.1137 187.365 51.7624 187.202 52.4904 187.202C53.4331 187.202 54.2077 187.431 54.8144 187.888C55.4304 188.345 55.8364 188.98 56.0324 189.792H54.6604C54.5297 189.325 54.2731 188.957 53.8904 188.686C53.5171 188.415 53.0504 188.28 52.4904 188.28C51.7624 188.28 51.1744 188.532 50.7264 189.036C50.2784 189.531 50.0544 190.235 50.0544 191.15C50.0544 192.074 50.2784 192.788 50.7264 193.292C51.1744 193.796 51.7624 194.048 52.4904 194.048C53.0504 194.048 53.5171 193.917 53.8904 193.656C54.2637 193.395 54.5204 193.021 54.6604 192.536H56.0324C55.8271 193.32 55.4164 193.95 54.8004 194.426C54.1844 194.893 53.4144 195.126 52.4904 195.126C51.7624 195.126 51.1137 194.963 50.5444 194.636C49.9844 194.309 49.5457 193.847 49.2284 193.25C48.9111 192.653 48.7524 191.953 48.7524 191.15ZM57.2563 191.136C57.2563 190.352 57.415 189.666 57.7323 189.078C58.0496 188.481 58.4836 188.019 59.0343 187.692C59.5943 187.365 60.215 187.202 60.8963 187.202C61.5683 187.202 62.1516 187.347 62.6463 187.636C63.141 187.925 63.5096 188.289 63.7523 188.728V187.328H65.0403V195H63.7523V193.572C63.5003 194.02 63.1223 194.393 62.6183 194.692C62.1236 194.981 61.545 195.126 60.8823 195.126C60.201 195.126 59.585 194.958 59.0343 194.622C58.4836 194.286 58.0496 193.815 57.7323 193.208C57.415 192.601 57.2563 191.911 57.2563 191.136ZM63.7523 191.15C63.7523 190.571 63.6356 190.067 63.4023 189.638C63.169 189.209 62.8516 188.882 62.4503 188.658C62.0583 188.425 61.6243 188.308 61.1483 188.308C60.6723 188.308 60.2383 188.42 59.8463 188.644C59.4543 188.868 59.1416 189.195 58.9083 189.624C58.675 190.053 58.5583 190.557 58.5583 191.136C58.5583 191.724 58.675 192.237 58.9083 192.676C59.1416 193.105 59.4543 193.437 59.8463 193.67C60.2383 193.894 60.6723 194.006 61.1483 194.006C61.6243 194.006 62.0583 193.894 62.4503 193.67C62.8516 193.437 63.169 193.105 63.4023 192.676C63.6356 192.237 63.7523 191.729 63.7523 191.15ZM68.4672 184.64V195H67.1932V184.64H68.4672ZM77.6385 190.87C77.6385 191.113 77.6245 191.369 77.5965 191.64H71.4645C71.5112 192.396 71.7679 192.989 72.2345 193.418C72.7105 193.838 73.2845 194.048 73.9565 194.048C74.5072 194.048 74.9645 193.922 75.3285 193.67C75.7019 193.409 75.9632 193.063 76.1125 192.634H77.4845C77.2792 193.371 76.8685 193.973 76.2525 194.44C75.6365 194.897 74.8712 195.126 73.9565 195.126C73.2285 195.126 72.5752 194.963 71.9965 194.636C71.4272 194.309 70.9792 193.847 70.6525 193.25C70.3259 192.643 70.1625 191.943 70.1625 191.15C70.1625 190.357 70.3212 189.661 70.6385 189.064C70.9559 188.467 71.3992 188.009 71.9685 187.692C72.5472 187.365 73.2099 187.202 73.9565 187.202C74.6845 187.202 75.3285 187.361 75.8885 187.678C76.4485 187.995 76.8779 188.434 77.1765 188.994C77.4845 189.545 77.6385 190.17 77.6385 190.87ZM76.3225 190.604C76.3225 190.119 76.2152 189.703 76.0005 189.358C75.7859 189.003 75.4919 188.737 75.1185 188.56C74.7545 188.373 74.3485 188.28 73.9005 188.28C73.2565 188.28 72.7059 188.485 72.2485 188.896C71.8005 189.307 71.5439 189.876 71.4785 190.604H76.3225ZM83.0582 187.188C83.9915 187.188 84.7475 187.473 85.3262 188.042C85.9049 188.602 86.1942 189.414 86.1942 190.478V195H84.9342V190.66C84.9342 189.895 84.7429 189.311 84.3602 188.91C83.9775 188.499 83.4549 188.294 82.7922 188.294C82.1202 188.294 81.5835 188.504 81.1822 188.924C80.7902 189.344 80.5942 189.955 80.5942 190.758V195H79.3202V187.328H80.5942V188.42C80.8462 188.028 81.1869 187.725 81.6162 187.51C82.0549 187.295 82.5355 187.188 83.0582 187.188ZM87.7993 191.136C87.7993 190.352 87.9579 189.666 88.2753 189.078C88.5926 188.481 89.0266 188.019 89.5773 187.692C90.1373 187.365 90.7626 187.202 91.4533 187.202C92.0506 187.202 92.6059 187.342 93.1193 187.622C93.6326 187.893 94.0246 188.252 94.2953 188.7V184.64H95.5833V195H94.2953V193.558C94.0433 194.015 93.6699 194.393 93.1753 194.692C92.6806 194.981 92.1019 195.126 91.4393 195.126C90.7579 195.126 90.1373 194.958 89.5773 194.622C89.0266 194.286 88.5926 193.815 88.2753 193.208C87.9579 192.601 87.7993 191.911 87.7993 191.136ZM94.2953 191.15C94.2953 190.571 94.1786 190.067 93.9453 189.638C93.7119 189.209 93.3946 188.882 92.9933 188.658C92.6013 188.425 92.1673 188.308 91.6913 188.308C91.2153 188.308 90.7813 188.42 90.3893 188.644C89.9973 188.868 89.6846 189.195 89.4513 189.624C89.2179 190.053 89.1013 190.557 89.1013 191.136C89.1013 191.724 89.2179 192.237 89.4513 192.676C89.6846 193.105 89.9973 193.437 90.3893 193.67C90.7813 193.894 91.2153 194.006 91.6913 194.006C92.1673 194.006 92.6013 193.894 92.9933 193.67C93.3946 193.437 93.7119 193.105 93.9453 192.676C94.1786 192.237 94.2953 191.729 94.2953 191.15ZM97.2602 191.136C97.2602 190.352 97.4189 189.666 97.7362 189.078C98.0535 188.481 98.4875 188.019 99.0382 187.692C99.5982 187.365 100.219 187.202 100.9 187.202C101.572 187.202 102.156 187.347 102.65 187.636C103.145 187.925 103.514 188.289 103.756 188.728V187.328H105.044V195H103.756V193.572C103.504 194.02 103.126 194.393 102.622 194.692C102.128 194.981 101.549 195.126 100.886 195.126C100.205 195.126 99.5889 194.958 99.0382 194.622C98.4875 194.286 98.0535 193.815 97.7362 193.208C97.4189 192.601 97.2602 191.911 97.2602 191.136ZM103.756 191.15C103.756 190.571 103.64 190.067 103.406 189.638C103.173 189.209 102.856 188.882 102.454 188.658C102.062 188.425 101.628 188.308 101.152 188.308C100.676 188.308 100.242 188.42 99.8502 188.644C99.4582 188.868 99.1455 189.195 98.9122 189.624C98.6789 190.053 98.5622 190.557 98.5622 191.136C98.5622 191.724 98.6789 192.237 98.9122 192.676C99.1455 193.105 99.4582 193.437 99.8502 193.67C100.242 193.894 100.676 194.006 101.152 194.006C101.628 194.006 102.062 193.894 102.454 193.67C102.856 193.437 103.173 193.105 103.406 192.676C103.64 192.237 103.756 191.729 103.756 191.15ZM108.471 188.574C108.695 188.135 109.012 187.795 109.423 187.552C109.843 187.309 110.352 187.188 110.949 187.188V188.504H110.613C109.185 188.504 108.471 189.279 108.471 190.828V195H107.197V187.328H108.471V188.574ZM117.18 181.812L113.344 197.38H112.084L115.906 181.812H117.18ZM89.0297 206.742C89.2817 206.303 89.6551 205.939 90.1497 205.65C90.6537 205.351 91.2371 205.202 91.8997 205.202C92.5811 205.202 93.1971 205.365 93.7477 205.692C94.3077 206.019 94.7464 206.481 95.0637 207.078C95.3811 207.666 95.5397 208.352 95.5397 209.136C95.5397 209.911 95.3811 210.601 95.0637 211.208C94.7464 211.815 94.3077 212.286 93.7477 212.622C93.1971 212.958 92.5811 213.126 91.8997 213.126C91.2464 213.126 90.6677 212.981 90.1637 212.692C89.6691 212.393 89.2911 212.025 89.0297 211.586V216.64H87.7557V205.328H89.0297V206.742ZM94.2377 209.136C94.2377 208.557 94.1211 208.053 93.8877 207.624C93.6544 207.195 93.3371 206.868 92.9357 206.644C92.5437 206.42 92.1097 206.308 91.6337 206.308C91.1671 206.308 90.7331 206.425 90.3317 206.658C89.9397 206.882 89.6224 207.213 89.3797 207.652C89.1464 208.081 89.0297 208.581 89.0297 209.15C89.0297 209.729 89.1464 210.237 89.3797 210.676C89.6224 211.105 89.9397 211.437 90.3317 211.67C90.7331 211.894 91.1671 212.006 91.6337 212.006C92.1097 212.006 92.5437 211.894 92.9357 211.67C93.3371 211.437 93.6544 211.105 93.8877 210.676C94.1211 210.237 94.2377 209.724 94.2377 209.136ZM98.4907 202.64V213H97.2167V202.64H98.4907ZM100.186 209.136C100.186 208.352 100.345 207.666 100.662 207.078C100.979 206.481 101.413 206.019 101.964 205.692C102.524 205.365 103.145 205.202 103.826 205.202C104.498 205.202 105.081 205.347 105.576 205.636C106.071 205.925 106.439 206.289 106.682 206.728V205.328H107.97V213H106.682V211.572C106.43 212.02 106.052 212.393 105.548 212.692C105.053 212.981 104.475 213.126 103.812 213.126C103.131 213.126 102.515 212.958 101.964 212.622C101.413 212.286 100.979 211.815 100.662 211.208C100.345 210.601 100.186 209.911 100.186 209.136ZM106.682 209.15C106.682 208.571 106.565 208.067 106.332 207.638C106.099 207.209 105.781 206.882 105.38 206.658C104.988 206.425 104.554 206.308 104.078 206.308C103.602 206.308 103.168 206.42 102.776 206.644C102.384 206.868 102.071 207.195 101.838 207.624C101.605 208.053 101.488 208.557 101.488 209.136C101.488 209.724 101.605 210.237 101.838 210.676C102.071 211.105 102.384 211.437 102.776 211.67C103.168 211.894 103.602 212.006 104.078 212.006C104.554 212.006 104.988 211.894 105.38 211.67C105.781 211.437 106.099 211.105 106.332 210.676C106.565 210.237 106.682 209.729 106.682 209.15ZM113.861 205.188C114.794 205.188 115.55 205.473 116.129 206.042C116.708 206.602 116.997 207.414 116.997 208.478V213H115.737V208.66C115.737 207.895 115.546 207.311 115.163 206.91C114.78 206.499 114.258 206.294 113.595 206.294C112.923 206.294 112.386 206.504 111.985 206.924C111.593 207.344 111.397 207.955 111.397 208.758V213H110.123V205.328H111.397V206.42C111.649 206.028 111.99 205.725 112.419 205.51C112.858 205.295 113.338 205.188 113.861 205.188Z" fill="black"/>
</svg>
