<svg width="1800" height="469" viewBox="0 0 1800 469" fill="none" xmlns="http://www.w3.org/2000/svg">
<g filter="url(#filter0_d)">
<rect x="550" y="211" width="200" height="80" rx="5" fill="white"/>
<rect x="552" y="213" width="196" height="76" rx="3" stroke="#FCBD0E" stroke-width="4"/>
</g>
<g filter="url(#filter1_d)">
<rect x="1051" y="211" width="200" height="80" rx="5" fill="white"/>
<rect x="1053" y="213" width="196" height="76" rx="3" stroke="#28BF89" stroke-width="4"/>
</g>
<path d="M616.368 258.076H622.712V260H614.002V241.878H616.368V258.076ZM631.439 260.234C630.104 260.234 628.891 259.931 627.799 259.324C626.724 258.717 625.875 257.859 625.251 256.75C624.644 255.623 624.341 254.323 624.341 252.85C624.341 251.394 624.653 250.111 625.277 249.002C625.918 247.875 626.785 247.017 627.877 246.428C628.969 245.821 630.191 245.518 631.543 245.518C632.895 245.518 634.117 245.821 635.209 246.428C636.301 247.017 637.159 247.867 637.783 248.976C638.424 250.085 638.745 251.377 638.745 252.85C638.745 254.323 638.415 255.623 637.757 256.75C637.115 257.859 636.24 258.717 635.131 259.324C634.021 259.931 632.791 260.234 631.439 260.234ZM631.439 258.154C632.288 258.154 633.085 257.955 633.831 257.556C634.576 257.157 635.174 256.559 635.625 255.762C636.093 254.965 636.327 253.994 636.327 252.85C636.327 251.706 636.101 250.735 635.651 249.938C635.2 249.141 634.611 248.551 633.883 248.17C633.155 247.771 632.366 247.572 631.517 247.572C630.65 247.572 629.853 247.771 629.125 248.17C628.414 248.551 627.842 249.141 627.409 249.938C626.975 250.735 626.759 251.706 626.759 252.85C626.759 254.011 626.967 254.991 627.383 255.788C627.816 256.585 628.388 257.183 629.099 257.582C629.809 257.963 630.589 258.154 631.439 258.154ZM647.732 245.518C648.962 245.518 650.037 245.787 650.956 246.324C651.892 246.861 652.585 247.537 653.036 248.352V245.752H655.428V260.312C655.428 261.612 655.15 262.765 654.596 263.77C654.041 264.793 653.244 265.59 652.204 266.162C651.181 266.734 649.985 267.02 648.616 267.02C646.744 267.02 645.184 266.578 643.936 265.694C642.688 264.81 641.951 263.605 641.726 262.08H644.066C644.326 262.947 644.863 263.64 645.678 264.16C646.492 264.697 647.472 264.966 648.616 264.966C649.916 264.966 650.973 264.559 651.788 263.744C652.62 262.929 653.036 261.785 653.036 260.312V257.322C652.568 258.154 651.874 258.847 650.956 259.402C650.037 259.957 648.962 260.234 647.732 260.234C646.466 260.234 645.314 259.922 644.274 259.298C643.251 258.674 642.445 257.799 641.856 256.672C641.266 255.545 640.972 254.263 640.972 252.824C640.972 251.368 641.266 250.094 641.856 249.002C642.445 247.893 643.251 247.035 644.274 246.428C645.314 245.821 646.466 245.518 647.732 245.518ZM653.036 252.85C653.036 251.775 652.819 250.839 652.386 250.042C651.952 249.245 651.363 248.638 650.618 248.222C649.89 247.789 649.084 247.572 648.2 247.572C647.316 247.572 646.51 247.78 645.782 248.196C645.054 248.612 644.473 249.219 644.04 250.016C643.606 250.813 643.39 251.749 643.39 252.824C643.39 253.916 643.606 254.869 644.04 255.684C644.473 256.481 645.054 257.097 645.782 257.53C646.51 257.946 647.316 258.154 648.2 258.154C649.084 258.154 649.89 257.946 650.618 257.53C651.363 257.097 651.952 256.481 652.386 255.684C652.819 254.869 653.036 253.925 653.036 252.85ZM667.579 243.438C667.129 243.438 666.747 243.282 666.435 242.97C666.123 242.658 665.967 242.277 665.967 241.826C665.967 241.375 666.123 240.994 666.435 240.682C666.747 240.37 667.129 240.214 667.579 240.214C668.013 240.214 668.377 240.37 668.671 240.682C668.983 240.994 669.139 241.375 669.139 241.826C669.139 242.277 668.983 242.658 668.671 242.97C668.377 243.282 668.013 243.438 667.579 243.438ZM668.723 245.752V260H666.357V245.752H668.723ZM679.698 245.492C681.431 245.492 682.835 246.021 683.91 247.078C684.985 248.118 685.522 249.626 685.522 251.602V260H683.182V251.94C683.182 250.519 682.827 249.435 682.116 248.69C681.405 247.927 680.435 247.546 679.204 247.546C677.956 247.546 676.959 247.936 676.214 248.716C675.486 249.496 675.122 250.631 675.122 252.122V260H672.756V245.752H675.122V247.78C675.59 247.052 676.223 246.489 677.02 246.09C677.835 245.691 678.727 245.492 679.698 245.492Z" fill="black"/>
<path d="M1096.13 250.926C1096.13 249.158 1096.53 247.572 1097.33 246.168C1098.13 244.747 1099.21 243.637 1100.58 242.84C1101.96 242.043 1103.5 241.644 1105.18 241.644C1107.16 241.644 1108.88 242.121 1110.35 243.074C1111.83 244.027 1112.9 245.379 1113.58 247.13H1110.74C1110.24 246.038 1109.51 245.197 1108.56 244.608C1107.62 244.019 1106.5 243.724 1105.18 243.724C1103.91 243.724 1102.78 244.019 1101.77 244.608C1100.77 245.197 1099.98 246.038 1099.41 247.13C1098.84 248.205 1098.55 249.47 1098.55 250.926C1098.55 252.365 1098.84 253.63 1099.41 254.722C1099.98 255.797 1100.77 256.629 1101.77 257.218C1102.78 257.807 1103.91 258.102 1105.18 258.102C1106.5 258.102 1107.62 257.816 1108.56 257.244C1109.51 256.655 1110.24 255.814 1110.74 254.722H1113.58C1112.9 256.455 1111.83 257.799 1110.35 258.752C1108.88 259.688 1107.16 260.156 1105.18 260.156C1103.5 260.156 1101.96 259.766 1100.58 258.986C1099.21 258.189 1098.13 257.088 1097.33 255.684C1096.53 254.28 1096.13 252.694 1096.13 250.926ZM1124.17 245.492C1125.25 245.492 1126.22 245.726 1127.08 246.194C1127.95 246.645 1128.63 247.329 1129.11 248.248C1129.61 249.167 1129.87 250.285 1129.87 251.602V260H1127.53V251.94C1127.53 250.519 1127.17 249.435 1126.46 248.69C1125.75 247.927 1124.78 247.546 1123.55 247.546C1122.3 247.546 1121.3 247.936 1120.56 248.716C1119.83 249.496 1119.47 250.631 1119.47 252.122V260H1117.1V240.76H1119.47V247.78C1119.93 247.052 1120.57 246.489 1121.39 246.09C1122.22 245.691 1123.15 245.492 1124.17 245.492ZM1146.73 252.33C1146.73 252.781 1146.7 253.257 1146.65 253.76H1135.26C1135.35 255.164 1135.83 256.265 1136.69 257.062C1137.58 257.842 1138.64 258.232 1139.89 258.232C1140.92 258.232 1141.76 257.998 1142.44 257.53C1143.13 257.045 1143.62 256.403 1143.9 255.606H1146.44C1146.06 256.975 1145.3 258.093 1144.16 258.96C1143.01 259.809 1141.59 260.234 1139.89 260.234C1138.54 260.234 1137.33 259.931 1136.25 259.324C1135.2 258.717 1134.36 257.859 1133.76 256.75C1133.15 255.623 1132.85 254.323 1132.85 252.85C1132.85 251.377 1133.14 250.085 1133.73 248.976C1134.32 247.867 1135.14 247.017 1136.2 246.428C1137.28 245.821 1138.51 245.518 1139.89 245.518C1141.24 245.518 1142.44 245.813 1143.48 246.402C1144.52 246.991 1145.32 247.806 1145.87 248.846C1146.44 249.869 1146.73 251.03 1146.73 252.33ZM1144.29 251.836C1144.29 250.935 1144.09 250.163 1143.69 249.522C1143.29 248.863 1142.74 248.369 1142.05 248.04C1141.37 247.693 1140.62 247.52 1139.79 247.52C1138.59 247.52 1137.57 247.901 1136.72 248.664C1135.89 249.427 1135.41 250.484 1135.29 251.836H1144.29ZM1148.97 252.85C1148.97 251.377 1149.26 250.094 1149.85 249.002C1150.44 247.893 1151.26 247.035 1152.3 246.428C1153.35 245.821 1154.56 245.518 1155.91 245.518C1157.66 245.518 1159.1 245.943 1160.23 246.792C1161.37 247.641 1162.13 248.82 1162.49 250.328H1159.94C1159.7 249.461 1159.22 248.777 1158.51 248.274C1157.82 247.771 1156.95 247.52 1155.91 247.52C1154.56 247.52 1153.47 247.988 1152.64 248.924C1151.8 249.843 1151.39 251.151 1151.39 252.85C1151.39 254.566 1151.8 255.892 1152.64 256.828C1153.47 257.764 1154.56 258.232 1155.91 258.232C1156.95 258.232 1157.82 257.989 1158.51 257.504C1159.2 257.019 1159.68 256.325 1159.94 255.424H1162.49C1162.11 256.88 1161.35 258.05 1160.2 258.934C1159.06 259.801 1157.63 260.234 1155.91 260.234C1154.56 260.234 1153.35 259.931 1152.3 259.324C1151.26 258.717 1150.44 257.859 1149.85 256.75C1149.26 255.641 1148.97 254.341 1148.97 252.85ZM1173.6 260L1168.01 253.708V260H1165.65V240.76H1168.01V252.07L1173.5 245.752H1176.8L1170.09 252.85L1176.83 260H1173.6ZM1187.18 243.438C1186.73 243.438 1186.35 243.282 1186.04 242.97C1185.73 242.658 1185.57 242.277 1185.57 241.826C1185.57 241.375 1185.73 240.994 1186.04 240.682C1186.35 240.37 1186.73 240.214 1187.18 240.214C1187.61 240.214 1187.98 240.37 1188.27 240.682C1188.59 240.994 1188.74 241.375 1188.74 241.826C1188.74 242.277 1188.59 242.658 1188.27 242.97C1187.98 243.282 1187.61 243.438 1187.18 243.438ZM1188.33 245.752V260H1185.96V245.752H1188.33ZM1199.3 245.492C1201.03 245.492 1202.44 246.021 1203.51 247.078C1204.59 248.118 1205.12 249.626 1205.12 251.602V260H1202.78V251.94C1202.78 250.519 1202.43 249.435 1201.72 248.69C1201.01 247.927 1200.04 247.546 1198.81 247.546C1197.56 247.546 1196.56 247.936 1195.82 248.716C1195.09 249.496 1194.72 250.631 1194.72 252.122V260H1192.36V245.752H1194.72V247.78C1195.19 247.052 1195.82 246.489 1196.62 246.09C1197.44 245.691 1198.33 245.492 1199.3 245.492Z" fill="black"/>
<path d="M671.12 79.06V80.54H667.32V93H665.5V80.54H661.68V79.06H671.12ZM674.3 80.26C673.954 80.26 673.66 80.14 673.42 79.9C673.18 79.66 673.06 79.3667 673.06 79.02C673.06 78.6733 673.18 78.38 673.42 78.14C673.66 77.9 673.954 77.78 674.3 77.78C674.634 77.78 674.914 77.9 675.14 78.14C675.38 78.38 675.5 78.6733 675.5 79.02C675.5 79.3667 675.38 79.66 675.14 79.9C674.914 80.14 674.634 80.26 674.3 80.26ZM675.18 82.04V93H673.36V82.04H675.18ZM691.462 81.84C692.316 81.84 693.076 82.02 693.742 82.38C694.409 82.7267 694.936 83.2533 695.322 83.96C695.709 84.6667 695.902 85.5267 695.902 86.54V93H694.102V86.8C694.102 85.7067 693.829 84.8733 693.282 84.3C692.749 83.7133 692.022 83.42 691.102 83.42C690.156 83.42 689.402 83.7267 688.842 84.34C688.282 84.94 688.002 85.8133 688.002 86.96V93H686.202V86.8C686.202 85.7067 685.929 84.8733 685.382 84.3C684.849 83.7133 684.122 83.42 683.202 83.42C682.256 83.42 681.502 83.7267 680.942 84.34C680.382 84.94 680.102 85.8133 680.102 86.96V93H678.282V82.04H680.102V83.62C680.462 83.0467 680.942 82.6067 681.542 82.3C682.156 81.9933 682.829 81.84 683.562 81.84C684.482 81.84 685.296 82.0467 686.002 82.46C686.709 82.8733 687.236 83.48 687.582 84.28C687.889 83.5067 688.396 82.9067 689.102 82.48C689.809 82.0533 690.596 81.84 691.462 81.84ZM708.888 87.1C708.888 87.4467 708.868 87.8133 708.828 88.2H700.068C700.134 89.28 700.501 90.1267 701.168 90.74C701.848 91.34 702.668 91.64 703.628 91.64C704.414 91.64 705.068 91.46 705.588 91.1C706.121 90.7267 706.494 90.2333 706.708 89.62H708.668C708.374 90.6733 707.788 91.5333 706.908 92.2C706.028 92.8533 704.934 93.18 703.628 93.18C702.588 93.18 701.654 92.9467 700.828 92.48C700.014 92.0133 699.374 91.3533 698.908 90.5C698.441 89.6333 698.208 88.6333 698.208 87.5C698.208 86.3667 698.434 85.3733 698.888 84.52C699.341 83.6667 699.974 83.0133 700.788 82.56C701.614 82.0933 702.561 81.86 703.628 81.86C704.668 81.86 705.588 82.0867 706.388 82.54C707.188 82.9933 707.801 83.62 708.228 84.42C708.668 85.2067 708.888 86.1 708.888 87.1ZM707.008 86.72C707.008 86.0267 706.854 85.4333 706.548 84.94C706.241 84.4333 705.821 84.0533 705.288 83.8C704.768 83.5333 704.188 83.4 703.548 83.4C702.628 83.4 701.841 83.6933 701.188 84.28C700.548 84.8667 700.181 85.68 700.088 86.72H707.008ZM721.082 83.54H718.782V93H716.962V83.54H715.542V82.04H716.962V81.26C716.962 80.0333 717.275 79.14 717.902 78.58C718.542 78.0067 719.562 77.72 720.962 77.72V79.24C720.162 79.24 719.595 79.4 719.262 79.72C718.942 80.0267 718.782 80.54 718.782 81.26V82.04H721.082V83.54ZM727.984 93.18C726.957 93.18 726.024 92.9467 725.184 92.48C724.357 92.0133 723.704 91.3533 723.224 90.5C722.757 89.6333 722.524 88.6333 722.524 87.5C722.524 86.38 722.764 85.3933 723.244 84.54C723.737 83.6733 724.404 83.0133 725.244 82.56C726.084 82.0933 727.024 81.86 728.064 81.86C729.104 81.86 730.044 82.0933 730.884 82.56C731.724 83.0133 732.384 83.6667 732.864 84.52C733.357 85.3733 733.604 86.3667 733.604 87.5C733.604 88.6333 733.351 89.6333 732.844 90.5C732.351 91.3533 731.677 92.0133 730.824 92.48C729.971 92.9467 729.024 93.18 727.984 93.18ZM727.984 91.58C728.637 91.58 729.251 91.4267 729.824 91.12C730.397 90.8133 730.857 90.3533 731.204 89.74C731.564 89.1267 731.744 88.38 731.744 87.5C731.744 86.62 731.571 85.8733 731.224 85.26C730.877 84.6467 730.424 84.1933 729.864 83.9C729.304 83.5933 728.697 83.44 728.044 83.44C727.377 83.44 726.764 83.5933 726.204 83.9C725.657 84.1933 725.217 84.6467 724.884 85.26C724.551 85.8733 724.384 86.62 724.384 87.5C724.384 88.3933 724.544 89.1467 724.864 89.76C725.197 90.3733 725.637 90.8333 726.184 91.14C726.731 91.4333 727.331 91.58 727.984 91.58ZM737.817 83.82C738.137 83.1933 738.59 82.7067 739.177 82.36C739.777 82.0133 740.504 81.84 741.357 81.84V83.72H740.877C738.837 83.72 737.817 84.8267 737.817 87.04V93H735.997V82.04H737.817V83.82ZM762.93 79.16V93H761.11V82.68L756.51 93H755.23L750.61 82.66V93H748.79V79.16H750.75L755.87 90.6L760.99 79.16H762.93ZM770.797 93.18C769.77 93.18 768.837 92.9467 767.997 92.48C767.17 92.0133 766.517 91.3533 766.037 90.5C765.57 89.6333 765.337 88.6333 765.337 87.5C765.337 86.38 765.577 85.3933 766.057 84.54C766.55 83.6733 767.217 83.0133 768.057 82.56C768.897 82.0933 769.837 81.86 770.877 81.86C771.917 81.86 772.857 82.0933 773.697 82.56C774.537 83.0133 775.197 83.6667 775.677 84.52C776.17 85.3733 776.417 86.3667 776.417 87.5C776.417 88.6333 776.163 89.6333 775.657 90.5C775.163 91.3533 774.49 92.0133 773.637 92.48C772.783 92.9467 771.837 93.18 770.797 93.18ZM770.797 91.58C771.45 91.58 772.063 91.4267 772.637 91.12C773.21 90.8133 773.67 90.3533 774.017 89.74C774.377 89.1267 774.557 88.38 774.557 87.5C774.557 86.62 774.383 85.8733 774.037 85.26C773.69 84.6467 773.237 84.1933 772.677 83.9C772.117 83.5933 771.51 83.44 770.857 83.44C770.19 83.44 769.577 83.5933 769.017 83.9C768.47 84.1933 768.03 84.6467 767.697 85.26C767.363 85.8733 767.197 86.62 767.197 87.5C767.197 88.3933 767.357 89.1467 767.677 89.76C768.01 90.3733 768.45 90.8333 768.997 91.14C769.543 91.4333 770.143 91.58 770.797 91.58ZM784.15 81.84C785.483 81.84 786.563 82.2467 787.39 83.06C788.216 83.86 788.63 85.02 788.63 86.54V93H786.83V86.8C786.83 85.7067 786.556 84.8733 786.01 84.3C785.463 83.7133 784.716 83.42 783.77 83.42C782.81 83.42 782.043 83.72 781.47 84.32C780.91 84.92 780.63 85.7933 780.63 86.94V93H778.81V82.04H780.63V83.6C780.99 83.04 781.476 82.6067 782.09 82.3C782.716 81.9933 783.403 81.84 784.15 81.84ZM790.923 87.48C790.923 86.36 791.149 85.38 791.603 84.54C792.056 83.6867 792.676 83.0267 793.463 82.56C794.263 82.0933 795.156 81.86 796.143 81.86C796.996 81.86 797.789 82.06 798.523 82.46C799.256 82.8467 799.816 83.36 800.203 84V78.2H802.043V93H800.203V90.94C799.843 91.5933 799.309 92.1333 798.603 92.56C797.896 92.9733 797.069 93.18 796.123 93.18C795.149 93.18 794.263 92.94 793.463 92.46C792.676 91.98 792.056 91.3067 791.603 90.44C791.149 89.5733 790.923 88.5867 790.923 87.48ZM800.203 87.5C800.203 86.6733 800.036 85.9533 799.703 85.34C799.369 84.7267 798.916 84.26 798.343 83.94C797.783 83.6067 797.163 83.44 796.483 83.44C795.803 83.44 795.183 83.6 794.623 83.92C794.063 84.24 793.616 84.7067 793.283 85.32C792.949 85.9333 792.783 86.6533 792.783 87.48C792.783 88.32 792.949 89.0533 793.283 89.68C793.616 90.2933 794.063 90.7667 794.623 91.1C795.183 91.42 795.803 91.58 796.483 91.58C797.163 91.58 797.783 91.42 798.343 91.1C798.916 90.7667 799.369 90.2933 799.703 89.68C800.036 89.0533 800.203 88.3267 800.203 87.5ZM804.438 87.48C804.438 86.36 804.665 85.38 805.118 84.54C805.571 83.6867 806.191 83.0267 806.978 82.56C807.778 82.0933 808.665 81.86 809.638 81.86C810.598 81.86 811.431 82.0667 812.138 82.48C812.845 82.8933 813.371 83.4133 813.718 84.04V82.04H815.558V93H813.718V90.96C813.358 91.6 812.818 92.1333 812.098 92.56C811.391 92.9733 810.565 93.18 809.618 93.18C808.645 93.18 807.765 92.94 806.978 92.46C806.191 91.98 805.571 91.3067 805.118 90.44C804.665 89.5733 804.438 88.5867 804.438 87.48ZM813.718 87.5C813.718 86.6733 813.551 85.9533 813.218 85.34C812.885 84.7267 812.431 84.26 811.858 83.94C811.298 83.6067 810.678 83.44 809.998 83.44C809.318 83.44 808.698 83.6 808.138 83.92C807.578 84.24 807.131 84.7067 806.798 85.32C806.465 85.9333 806.298 86.6533 806.298 87.48C806.298 88.32 806.465 89.0533 806.798 89.68C807.131 90.2933 807.578 90.7667 808.138 91.1C808.698 91.42 809.318 91.58 809.998 91.58C810.678 91.58 811.298 91.42 811.858 91.1C812.431 90.7667 812.885 90.2933 813.218 89.68C813.551 89.0533 813.718 88.3267 813.718 87.5ZM828.074 82.04L821.474 98.16H819.594L821.754 92.88L817.334 82.04H819.354L822.794 90.92L826.194 82.04H828.074ZM839.655 93.14C838.735 93.14 837.909 92.98 837.175 92.66C836.455 92.3267 835.889 91.8733 835.475 91.3C835.062 90.7133 834.849 90.04 834.835 89.28H836.775C836.842 89.9333 837.109 90.4867 837.575 90.94C838.055 91.38 838.749 91.6 839.655 91.6C840.522 91.6 841.202 91.3867 841.695 90.96C842.202 90.52 842.455 89.96 842.455 89.28C842.455 88.7467 842.309 88.3133 842.015 87.98C841.722 87.6467 841.355 87.3933 840.915 87.22C840.475 87.0467 839.882 86.86 839.135 86.66C838.215 86.42 837.475 86.18 836.915 85.94C836.369 85.7 835.895 85.3267 835.495 84.82C835.109 84.3 834.915 83.6067 834.915 82.74C834.915 81.98 835.109 81.3067 835.495 80.72C835.882 80.1333 836.422 79.68 837.115 79.36C837.822 79.04 838.629 78.88 839.535 78.88C840.842 78.88 841.909 79.2067 842.735 79.86C843.575 80.5133 844.049 81.38 844.155 82.46H842.155C842.089 81.9267 841.809 81.46 841.315 81.06C840.822 80.6467 840.169 80.44 839.355 80.44C838.595 80.44 837.975 80.64 837.495 81.04C837.015 81.4267 836.775 81.9733 836.775 82.68C836.775 83.1867 836.915 83.6 837.195 83.92C837.489 84.24 837.842 84.4867 838.255 84.66C838.682 84.82 839.275 85.0067 840.035 85.22C840.955 85.4733 841.695 85.7267 842.255 85.98C842.815 86.22 843.295 86.6 843.695 87.12C844.095 87.6267 844.295 88.32 844.295 89.2C844.295 89.88 844.115 90.52 843.755 91.12C843.395 91.72 842.862 92.2067 842.155 92.58C841.449 92.9533 840.615 93.14 839.655 93.14ZM856.694 82.04V93H854.874V91.38C854.527 91.94 854.04 92.38 853.414 92.7C852.8 93.0067 852.12 93.16 851.374 93.16C850.52 93.16 849.754 92.9867 849.074 92.64C848.394 92.28 847.854 91.7467 847.454 91.04C847.067 90.3333 846.874 89.4733 846.874 88.46V82.04H848.674V88.22C848.674 89.3 848.947 90.1333 849.494 90.72C850.04 91.2933 850.787 91.58 851.734 91.58C852.707 91.58 853.474 91.28 854.034 90.68C854.594 90.08 854.874 89.2067 854.874 88.06V82.04H856.694ZM861.587 83.82C861.907 83.1933 862.36 82.7067 862.947 82.36C863.547 82.0133 864.273 81.84 865.127 81.84V83.72H864.647C862.607 83.72 861.587 84.8267 861.587 87.04V93H859.767V82.04H861.587V83.82ZM871.308 91.32L874.708 82.04H876.648L872.348 93H870.228L865.928 82.04H867.888L871.308 91.32ZM888.438 87.1C888.438 87.4467 888.418 87.8133 888.378 88.2H879.618C879.685 89.28 880.052 90.1267 880.718 90.74C881.398 91.34 882.218 91.64 883.178 91.64C883.965 91.64 884.618 91.46 885.138 91.1C885.672 90.7267 886.045 90.2333 886.258 89.62H888.218C887.925 90.6733 887.338 91.5333 886.458 92.2C885.578 92.8533 884.485 93.18 883.178 93.18C882.138 93.18 881.205 92.9467 880.378 92.48C879.565 92.0133 878.925 91.3533 878.458 90.5C877.992 89.6333 877.758 88.6333 877.758 87.5C877.758 86.3667 877.985 85.3733 878.438 84.52C878.892 83.6667 879.525 83.0133 880.338 82.56C881.165 82.0933 882.112 81.86 883.178 81.86C884.218 81.86 885.138 82.0867 885.938 82.54C886.738 82.9933 887.352 83.62 887.778 84.42C888.218 85.2067 888.438 86.1 888.438 87.1ZM886.558 86.72C886.558 86.0267 886.405 85.4333 886.098 84.94C885.792 84.4333 885.372 84.0533 884.838 83.8C884.318 83.5333 883.738 83.4 883.098 83.4C882.178 83.4 881.392 83.6933 880.738 84.28C880.098 84.8667 879.732 85.68 879.638 86.72H886.558ZM900.281 82.04L893.681 98.16H891.801L893.961 92.88L889.541 82.04H891.561L895.001 90.92L898.401 82.04H900.281ZM902.69 93.12C902.344 93.12 902.05 93 901.81 92.76C901.57 92.52 901.45 92.2267 901.45 91.88C901.45 91.5333 901.57 91.24 901.81 91C902.05 90.76 902.344 90.64 902.69 90.64C903.024 90.64 903.304 90.76 903.53 91C903.77 91.24 903.89 91.5333 903.89 91.88C903.89 92.2267 903.77 92.52 903.53 92.76C903.304 93 903.024 93.12 902.69 93.12ZM918.622 85.82C919.128 85.9 919.588 86.1067 920.002 86.44C920.428 86.7733 920.762 87.1867 921.002 87.68C921.255 88.1733 921.382 88.7 921.382 89.26C921.382 89.9667 921.202 90.6067 920.842 91.18C920.482 91.74 919.955 92.1867 919.262 92.52C918.582 92.84 917.775 93 916.842 93H911.642V79.06H916.642C917.588 79.06 918.395 79.22 919.062 79.54C919.728 79.8467 920.228 80.2667 920.562 80.8C920.895 81.3333 921.062 81.9333 921.062 82.6C921.062 83.4267 920.835 84.1133 920.382 84.66C919.942 85.1933 919.355 85.58 918.622 85.82ZM913.462 85.08H916.522C917.375 85.08 918.035 84.88 918.502 84.48C918.968 84.08 919.202 83.5267 919.202 82.82C919.202 82.1133 918.968 81.56 918.502 81.16C918.035 80.76 917.362 80.56 916.482 80.56H913.462V85.08ZM916.682 91.5C917.588 91.5 918.295 91.2867 918.802 90.86C919.308 90.4333 919.562 89.84 919.562 89.08C919.562 88.3067 919.295 87.7 918.762 87.26C918.228 86.8067 917.515 86.58 916.622 86.58H913.462V91.5H916.682ZM933.627 82.04V93H931.807V91.38C931.461 91.94 930.974 92.38 930.347 92.7C929.734 93.0067 929.054 93.16 928.307 93.16C927.454 93.16 926.687 92.9867 926.007 92.64C925.327 92.28 924.787 91.7467 924.387 91.04C924.001 90.3333 923.807 89.4733 923.807 88.46V82.04H925.607V88.22C925.607 89.3 925.881 90.1333 926.427 90.72C926.974 91.2933 927.721 91.58 928.667 91.58C929.641 91.58 930.407 91.28 930.967 90.68C931.527 90.08 931.807 89.2067 931.807 88.06V82.04H933.627ZM938.92 83.54V90C938.92 90.5333 939.033 90.9133 939.26 91.14C939.487 91.3533 939.88 91.46 940.44 91.46H941.78V93H940.14C939.127 93 938.367 92.7667 937.86 92.3C937.353 91.8333 937.1 91.0667 937.1 90V83.54H935.68V82.04H937.1V79.28H938.92V82.04H941.78V83.54H938.92ZM958.757 82.04L952.157 98.16H950.277L952.437 92.88L948.017 82.04H950.037L953.477 90.92L956.877 82.04H958.757ZM965.367 93.18C964.34 93.18 963.407 92.9467 962.567 92.48C961.74 92.0133 961.087 91.3533 960.607 90.5C960.14 89.6333 959.907 88.6333 959.907 87.5C959.907 86.38 960.147 85.3933 960.627 84.54C961.12 83.6733 961.787 83.0133 962.627 82.56C963.467 82.0933 964.407 81.86 965.447 81.86C966.487 81.86 967.427 82.0933 968.267 82.56C969.107 83.0133 969.767 83.6667 970.247 84.52C970.74 85.3733 970.987 86.3667 970.987 87.5C970.987 88.6333 970.734 89.6333 970.227 90.5C969.734 91.3533 969.06 92.0133 968.207 92.48C967.354 92.9467 966.407 93.18 965.367 93.18ZM965.367 91.58C966.02 91.58 966.634 91.4267 967.207 91.12C967.78 90.8133 968.24 90.3533 968.587 89.74C968.947 89.1267 969.127 88.38 969.127 87.5C969.127 86.62 968.954 85.8733 968.607 85.26C968.26 84.6467 967.807 84.1933 967.247 83.9C966.687 83.5933 966.08 83.44 965.427 83.44C964.76 83.44 964.147 83.5933 963.587 83.9C963.04 84.1933 962.6 84.6467 962.267 85.26C961.934 85.8733 961.767 86.62 961.767 87.5C961.767 88.3933 961.927 89.1467 962.247 89.76C962.58 90.3733 963.02 90.8333 963.567 91.14C964.114 91.4333 964.714 91.58 965.367 91.58ZM983.1 82.04V93H981.28V91.38C980.933 91.94 980.447 92.38 979.82 92.7C979.207 93.0067 978.527 93.16 977.78 93.16C976.927 93.16 976.16 92.9867 975.48 92.64C974.8 92.28 974.26 91.7467 973.86 91.04C973.473 90.3333 973.28 89.4733 973.28 88.46V82.04H975.08V88.22C975.08 89.3 975.353 90.1333 975.9 90.72C976.447 91.2933 977.193 91.58 978.14 91.58C979.113 91.58 979.88 91.28 980.44 90.68C981 90.08 981.28 89.2067 981.28 88.06V82.04H983.1ZM987.993 83.82C988.313 83.1933 988.766 82.7067 989.353 82.36C989.953 82.0133 990.679 81.84 991.533 81.84V83.72H991.053C989.013 83.72 987.993 84.8267 987.993 87.04V93H986.173V82.04H987.993V83.82ZM998.286 87.5C998.286 86.3667 998.512 85.38 998.966 84.54C999.419 83.6867 1000.05 83.0267 1000.85 82.56C1001.66 82.0933 1002.59 81.86 1003.63 81.86C1004.97 81.86 1006.08 82.1867 1006.95 82.84C1007.83 83.4933 1008.41 84.4 1008.69 85.56H1006.73C1006.54 84.8933 1006.17 84.3667 1005.63 83.98C1005.09 83.5933 1004.43 83.4 1003.63 83.4C1002.59 83.4 1001.75 83.76 1001.11 84.48C1000.47 85.1867 1000.15 86.1933 1000.15 87.5C1000.15 88.82 1000.47 89.84 1001.11 90.56C1001.75 91.28 1002.59 91.64 1003.63 91.64C1004.43 91.64 1005.09 91.4533 1005.63 91.08C1006.16 90.7067 1006.53 90.1733 1006.73 89.48H1008.69C1008.39 90.6 1007.81 91.5 1006.93 92.18C1006.05 92.8467 1004.95 93.18 1003.63 93.18C1002.59 93.18 1001.66 92.9467 1000.85 92.48C1000.05 92.0133 999.419 91.3533 998.966 90.5C998.512 89.6467 998.286 88.6467 998.286 87.5ZM1012.93 78.2V93H1011.11V78.2H1012.93ZM1015.36 87.48C1015.36 86.36 1015.58 85.38 1016.04 84.54C1016.49 83.6867 1017.11 83.0267 1017.9 82.56C1018.7 82.0933 1019.58 81.86 1020.56 81.86C1021.52 81.86 1022.35 82.0667 1023.06 82.48C1023.76 82.8933 1024.29 83.4133 1024.64 84.04V82.04H1026.48V93H1024.64V90.96C1024.28 91.6 1023.74 92.1333 1023.02 92.56C1022.31 92.9733 1021.48 93.18 1020.54 93.18C1019.56 93.18 1018.68 92.94 1017.9 92.46C1017.11 91.98 1016.49 91.3067 1016.04 90.44C1015.58 89.5733 1015.36 88.5867 1015.36 87.48ZM1024.64 87.5C1024.64 86.6733 1024.47 85.9533 1024.14 85.34C1023.8 84.7267 1023.35 84.26 1022.78 83.94C1022.22 83.6067 1021.6 83.44 1020.92 83.44C1020.24 83.44 1019.62 83.6 1019.06 83.92C1018.5 84.24 1018.05 84.7067 1017.72 85.32C1017.38 85.9333 1017.22 86.6533 1017.22 87.48C1017.22 88.32 1017.38 89.0533 1017.72 89.68C1018.05 90.2933 1018.5 90.7667 1019.06 91.1C1019.62 91.42 1020.24 91.58 1020.92 91.58C1021.6 91.58 1022.22 91.42 1022.78 91.1C1023.35 90.7667 1023.8 90.2933 1024.14 89.68C1024.47 89.0533 1024.64 88.3267 1024.64 87.5ZM1033.43 93.18C1032.59 93.18 1031.84 93.04 1031.17 92.76C1030.51 92.4667 1029.98 92.0667 1029.59 91.56C1029.21 91.04 1028.99 90.4467 1028.95 89.78H1030.83C1030.89 90.3267 1031.14 90.7733 1031.59 91.12C1032.06 91.4667 1032.67 91.64 1033.41 91.64C1034.11 91.64 1034.65 91.4867 1035.05 91.18C1035.45 90.8733 1035.65 90.4867 1035.65 90.02C1035.65 89.54 1035.44 89.1867 1035.01 88.96C1034.59 88.72 1033.93 88.4867 1033.03 88.26C1032.22 88.0467 1031.55 87.8333 1031.03 87.62C1030.53 87.3933 1030.09 87.0667 1029.71 86.64C1029.35 86.2 1029.17 85.6267 1029.17 84.92C1029.17 84.36 1029.34 83.8467 1029.67 83.38C1030.01 82.9133 1030.48 82.5467 1031.09 82.28C1031.71 82 1032.41 81.86 1033.19 81.86C1034.41 81.86 1035.39 82.1667 1036.13 82.78C1036.88 83.3933 1037.28 84.2333 1037.33 85.3H1035.51C1035.47 84.7267 1035.24 84.2667 1034.81 83.92C1034.4 83.5733 1033.84 83.4 1033.13 83.4C1032.48 83.4 1031.96 83.54 1031.57 83.82C1031.19 84.1 1030.99 84.4667 1030.99 84.92C1030.99 85.28 1031.11 85.58 1031.33 85.82C1031.57 86.0467 1031.87 86.2333 1032.21 86.38C1032.57 86.5133 1033.07 86.6667 1033.69 86.84C1034.48 87.0533 1035.12 87.2667 1035.61 87.48C1036.11 87.68 1036.53 87.9867 1036.87 88.4C1037.23 88.8133 1037.42 89.3533 1037.43 90.02C1037.43 90.62 1037.27 91.16 1036.93 91.64C1036.6 92.12 1036.13 92.5 1035.51 92.78C1034.91 93.0467 1034.22 93.18 1033.43 93.18ZM1043.88 93.18C1043.04 93.18 1042.29 93.04 1041.62 92.76C1040.95 92.4667 1040.43 92.0667 1040.04 91.56C1039.65 91.04 1039.44 90.4467 1039.4 89.78H1041.28C1041.33 90.3267 1041.59 90.7733 1042.04 91.12C1042.51 91.4667 1043.11 91.64 1043.86 91.64C1044.55 91.64 1045.1 91.4867 1045.5 91.18C1045.9 90.8733 1046.1 90.4867 1046.1 90.02C1046.1 89.54 1045.89 89.1867 1045.46 88.96C1045.03 88.72 1044.37 88.4867 1043.48 88.26C1042.67 88.0467 1042 87.8333 1041.48 87.62C1040.97 87.3933 1040.53 87.0667 1040.16 86.64C1039.8 86.2 1039.62 85.6267 1039.62 84.92C1039.62 84.36 1039.79 83.8467 1040.12 83.38C1040.45 82.9133 1040.93 82.5467 1041.54 82.28C1042.15 82 1042.85 81.86 1043.64 81.86C1044.85 81.86 1045.83 82.1667 1046.58 82.78C1047.33 83.3933 1047.73 84.2333 1047.78 85.3H1045.96C1045.92 84.7267 1045.69 84.2667 1045.26 83.92C1044.85 83.5733 1044.29 83.4 1043.58 83.4C1042.93 83.4 1042.41 83.54 1042.02 83.82C1041.63 84.1 1041.44 84.4667 1041.44 84.92C1041.44 85.28 1041.55 85.58 1041.78 85.82C1042.02 86.0467 1042.31 86.2333 1042.66 86.38C1043.02 86.5133 1043.51 86.6667 1044.14 86.84C1044.93 87.0533 1045.57 87.2667 1046.06 87.48C1046.55 87.68 1046.97 87.9867 1047.32 88.4C1047.68 88.8133 1047.87 89.3533 1047.88 90.02C1047.88 90.62 1047.71 91.16 1047.38 91.64C1047.05 92.12 1046.57 92.5 1045.96 92.78C1045.36 93.0467 1044.67 93.18 1043.88 93.18ZM1056.72 80.26C1056.38 80.26 1056.08 80.14 1055.84 79.9C1055.6 79.66 1055.48 79.3667 1055.48 79.02C1055.48 78.6733 1055.6 78.38 1055.84 78.14C1056.08 77.9 1056.38 77.78 1056.72 77.78C1057.06 77.78 1057.34 77.9 1057.56 78.14C1057.8 78.38 1057.92 78.6733 1057.92 79.02C1057.92 79.3667 1057.8 79.66 1057.56 79.9C1057.34 80.14 1057.06 80.26 1056.72 80.26ZM1057.6 82.04V93H1055.78V82.04H1057.6ZM1064.58 93.18C1063.74 93.18 1062.99 93.04 1062.32 92.76C1061.66 92.4667 1061.13 92.0667 1060.74 91.56C1060.36 91.04 1060.14 90.4467 1060.1 89.78H1061.98C1062.04 90.3267 1062.29 90.7733 1062.74 91.12C1063.21 91.4667 1063.82 91.64 1064.56 91.64C1065.26 91.64 1065.8 91.4867 1066.2 91.18C1066.6 90.8733 1066.8 90.4867 1066.8 90.02C1066.8 89.54 1066.59 89.1867 1066.16 88.96C1065.74 88.72 1065.08 88.4867 1064.18 88.26C1063.37 88.0467 1062.7 87.8333 1062.18 87.62C1061.68 87.3933 1061.24 87.0667 1060.86 86.64C1060.5 86.2 1060.32 85.6267 1060.32 84.92C1060.32 84.36 1060.49 83.8467 1060.82 83.38C1061.16 82.9133 1061.63 82.5467 1062.24 82.28C1062.86 82 1063.56 81.86 1064.34 81.86C1065.56 81.86 1066.54 82.1667 1067.28 82.78C1068.03 83.3933 1068.43 84.2333 1068.48 85.3H1066.66C1066.62 84.7267 1066.39 84.2667 1065.96 83.92C1065.55 83.5733 1064.99 83.4 1064.28 83.4C1063.63 83.4 1063.11 83.54 1062.72 83.82C1062.34 84.1 1062.14 84.4667 1062.14 84.92C1062.14 85.28 1062.26 85.58 1062.48 85.82C1062.72 86.0467 1063.02 86.2333 1063.36 86.38C1063.72 86.5133 1064.22 86.6667 1064.84 86.84C1065.63 87.0533 1066.27 87.2667 1066.76 87.48C1067.26 87.68 1067.68 87.9867 1068.02 88.4C1068.38 88.8133 1068.57 89.3533 1068.58 90.02C1068.58 90.62 1068.42 91.16 1068.08 91.64C1067.75 92.12 1067.28 92.5 1066.66 92.78C1066.06 93.0467 1065.37 93.18 1064.58 93.18ZM1075.81 87.48C1075.81 86.36 1076.03 85.38 1076.49 84.54C1076.94 83.6867 1077.56 83.0267 1078.35 82.56C1079.15 82.0933 1080.03 81.86 1081.01 81.86C1081.97 81.86 1082.8 82.0667 1083.51 82.48C1084.21 82.8933 1084.74 83.4133 1085.09 84.04V82.04H1086.93V93H1085.09V90.96C1084.73 91.6 1084.19 92.1333 1083.47 92.56C1082.76 92.9733 1081.93 93.18 1080.99 93.18C1080.01 93.18 1079.13 92.94 1078.35 92.46C1077.56 91.98 1076.94 91.3067 1076.49 90.44C1076.03 89.5733 1075.81 88.5867 1075.81 87.48ZM1085.09 87.5C1085.09 86.6733 1084.92 85.9533 1084.59 85.34C1084.25 84.7267 1083.8 84.26 1083.23 83.94C1082.67 83.6067 1082.05 83.44 1081.37 83.44C1080.69 83.44 1080.07 83.6 1079.51 83.92C1078.95 84.24 1078.5 84.7067 1078.17 85.32C1077.83 85.9333 1077.67 86.6533 1077.67 87.48C1077.67 88.32 1077.83 89.0533 1078.17 89.68C1078.5 90.2933 1078.95 90.7667 1079.51 91.1C1080.07 91.42 1080.69 91.58 1081.37 91.58C1082.05 91.58 1082.67 91.42 1083.23 91.1C1083.8 90.7667 1084.25 90.2933 1084.59 89.68C1084.92 89.0533 1085.09 88.3267 1085.09 87.5ZM1091.82 84.08C1092.19 83.4267 1092.74 82.8933 1093.46 82.48C1094.18 82.0667 1095 81.86 1095.92 81.86C1096.91 81.86 1097.79 82.0933 1098.58 82.56C1099.37 83.0267 1099.99 83.6867 1100.44 84.54C1100.89 85.38 1101.12 86.36 1101.12 87.48C1101.12 88.5867 1100.89 89.5733 1100.44 90.44C1099.99 91.3067 1099.36 91.98 1098.56 92.46C1097.77 92.94 1096.89 93.18 1095.92 93.18C1094.97 93.18 1094.14 92.9733 1093.42 92.56C1092.71 92.1467 1092.18 91.62 1091.82 90.98V93H1090V78.2H1091.82V84.08ZM1099.26 87.48C1099.26 86.6533 1099.09 85.9333 1098.76 85.32C1098.43 84.7067 1097.97 84.24 1097.4 83.92C1096.84 83.6 1096.22 83.44 1095.54 83.44C1094.87 83.44 1094.25 83.6067 1093.68 83.94C1093.12 84.26 1092.67 84.7333 1092.32 85.36C1091.99 85.9733 1091.82 86.6867 1091.82 87.5C1091.82 88.3267 1091.99 89.0533 1092.32 89.68C1092.67 90.2933 1093.12 90.7667 1093.68 91.1C1094.25 91.42 1094.87 91.58 1095.54 91.58C1096.22 91.58 1096.84 91.42 1097.4 91.1C1097.97 90.7667 1098.43 90.2933 1098.76 89.68C1099.09 89.0533 1099.26 88.32 1099.26 87.48ZM1108.3 93.18C1107.27 93.18 1106.34 92.9467 1105.5 92.48C1104.67 92.0133 1104.02 91.3533 1103.54 90.5C1103.07 89.6333 1102.84 88.6333 1102.84 87.5C1102.84 86.38 1103.08 85.3933 1103.56 84.54C1104.05 83.6733 1104.72 83.0133 1105.56 82.56C1106.4 82.0933 1107.34 81.86 1108.38 81.86C1109.42 81.86 1110.36 82.0933 1111.2 82.56C1112.04 83.0133 1112.7 83.6667 1113.18 84.52C1113.67 85.3733 1113.92 86.3667 1113.92 87.5C1113.92 88.6333 1113.66 89.6333 1113.16 90.5C1112.66 91.3533 1111.99 92.0133 1111.14 92.48C1110.28 92.9467 1109.34 93.18 1108.3 93.18ZM1108.3 91.58C1108.95 91.58 1109.56 91.4267 1110.14 91.12C1110.71 90.8133 1111.17 90.3533 1111.52 89.74C1111.88 89.1267 1112.06 88.38 1112.06 87.5C1112.06 86.62 1111.88 85.8733 1111.54 85.26C1111.19 84.6467 1110.74 84.1933 1110.18 83.9C1109.62 83.5933 1109.01 83.44 1108.36 83.44C1107.69 83.44 1107.08 83.5933 1106.52 83.9C1105.97 84.1933 1105.53 84.6467 1105.2 85.26C1104.86 85.8733 1104.7 86.62 1104.7 87.5C1104.7 88.3933 1104.86 89.1467 1105.18 89.76C1105.51 90.3733 1105.95 90.8333 1106.5 91.14C1107.04 91.4333 1107.64 91.58 1108.3 91.58ZM1126.03 82.04V93H1124.21V91.38C1123.86 91.94 1123.38 92.38 1122.75 92.7C1122.14 93.0067 1121.46 93.16 1120.71 93.16C1119.86 93.16 1119.09 92.9867 1118.41 92.64C1117.73 92.28 1117.19 91.7467 1116.79 91.04C1116.4 90.3333 1116.21 89.4733 1116.21 88.46V82.04H1118.01V88.22C1118.01 89.3 1118.28 90.1333 1118.83 90.72C1119.38 91.2933 1120.12 91.58 1121.07 91.58C1122.04 91.58 1122.81 91.28 1123.37 90.68C1123.93 90.08 1124.21 89.2067 1124.21 88.06V82.04H1126.03ZM1131.32 83.54V90C1131.32 90.5333 1131.44 90.9133 1131.66 91.14C1131.89 91.3533 1132.28 91.46 1132.84 91.46H1134.18V93H1132.54C1131.53 93 1130.77 92.7667 1130.26 92.3C1129.76 91.8333 1129.5 91.0667 1129.5 90V83.54H1128.08V82.04H1129.5V79.28H1131.32V82.04H1134.18V83.54H1131.32ZM664.76 113.54V120C664.76 120.533 664.873 120.913 665.1 121.14C665.327 121.353 665.72 121.46 666.28 121.46H667.62V123H665.98C664.967 123 664.207 122.767 663.7 122.3C663.193 121.833 662.94 121.067 662.94 120V113.54H661.52V112.04H662.94V109.28H664.76V112.04H667.62V113.54H664.76ZM674.605 123.18C673.578 123.18 672.645 122.947 671.805 122.48C670.978 122.013 670.325 121.353 669.845 120.5C669.378 119.633 669.145 118.633 669.145 117.5C669.145 116.38 669.385 115.393 669.865 114.54C670.358 113.673 671.025 113.013 671.865 112.56C672.705 112.093 673.645 111.86 674.685 111.86C675.725 111.86 676.665 112.093 677.505 112.56C678.345 113.013 679.005 113.667 679.485 114.52C679.978 115.373 680.225 116.367 680.225 117.5C680.225 118.633 679.972 119.633 679.465 120.5C678.972 121.353 678.298 122.013 677.445 122.48C676.592 122.947 675.645 123.18 674.605 123.18ZM674.605 121.58C675.258 121.58 675.872 121.427 676.445 121.12C677.018 120.813 677.478 120.353 677.825 119.74C678.185 119.127 678.365 118.38 678.365 117.5C678.365 116.62 678.192 115.873 677.845 115.26C677.498 114.647 677.045 114.193 676.485 113.9C675.925 113.593 675.318 113.44 674.665 113.44C673.998 113.44 673.385 113.593 672.825 113.9C672.278 114.193 671.838 114.647 671.505 115.26C671.172 115.873 671.005 116.62 671.005 117.5C671.005 118.393 671.165 119.147 671.485 119.76C671.818 120.373 672.258 120.833 672.805 121.14C673.352 121.433 673.952 121.58 674.605 121.58ZM691.83 123.18C690.99 123.18 690.237 123.04 689.57 122.76C688.903 122.467 688.377 122.067 687.99 121.56C687.603 121.04 687.39 120.447 687.35 119.78H689.23C689.283 120.327 689.537 120.773 689.99 121.12C690.457 121.467 691.063 121.64 691.81 121.64C692.503 121.64 693.05 121.487 693.45 121.18C693.85 120.873 694.05 120.487 694.05 120.02C694.05 119.54 693.837 119.187 693.41 118.96C692.983 118.72 692.323 118.487 691.43 118.26C690.617 118.047 689.95 117.833 689.43 117.62C688.923 117.393 688.483 117.067 688.11 116.64C687.75 116.2 687.57 115.627 687.57 114.92C687.57 114.36 687.737 113.847 688.07 113.38C688.403 112.913 688.877 112.547 689.49 112.28C690.103 112 690.803 111.86 691.59 111.86C692.803 111.86 693.783 112.167 694.53 112.78C695.277 113.393 695.677 114.233 695.73 115.3H693.91C693.87 114.727 693.637 114.267 693.21 113.92C692.797 113.573 692.237 113.4 691.53 113.4C690.877 113.4 690.357 113.54 689.97 113.82C689.583 114.1 689.39 114.467 689.39 114.92C689.39 115.28 689.503 115.58 689.73 115.82C689.97 116.047 690.263 116.233 690.61 116.38C690.97 116.513 691.463 116.667 692.09 116.84C692.877 117.053 693.517 117.267 694.01 117.48C694.503 117.68 694.923 117.987 695.27 118.4C695.63 118.813 695.817 119.353 695.83 120.02C695.83 120.62 695.663 121.16 695.33 121.64C694.997 122.12 694.523 122.5 693.91 122.78C693.31 123.047 692.617 123.18 691.83 123.18ZM700.619 113.54V120C700.619 120.533 700.733 120.913 700.959 121.14C701.186 121.353 701.579 121.46 702.139 121.46H703.479V123H701.839C700.826 123 700.066 122.767 699.559 122.3C699.053 121.833 698.799 121.067 698.799 120V113.54H697.379V112.04H698.799V109.28H700.619V112.04H703.479V113.54H700.619ZM705.005 117.48C705.005 116.36 705.231 115.38 705.685 114.54C706.138 113.687 706.758 113.027 707.545 112.56C708.345 112.093 709.231 111.86 710.205 111.86C711.165 111.86 711.998 112.067 712.705 112.48C713.411 112.893 713.938 113.413 714.285 114.04V112.04H716.125V123H714.285V120.96C713.925 121.6 713.385 122.133 712.665 122.56C711.958 122.973 711.131 123.18 710.185 123.18C709.211 123.18 708.331 122.94 707.545 122.46C706.758 121.98 706.138 121.307 705.685 120.44C705.231 119.573 705.005 118.587 705.005 117.48ZM714.285 117.5C714.285 116.673 714.118 115.953 713.785 115.34C713.451 114.727 712.998 114.26 712.425 113.94C711.865 113.607 711.245 113.44 710.565 113.44C709.885 113.44 709.265 113.6 708.705 113.92C708.145 114.24 707.698 114.707 707.365 115.32C707.031 115.933 706.865 116.653 706.865 117.48C706.865 118.32 707.031 119.053 707.365 119.68C707.698 120.293 708.145 120.767 708.705 121.1C709.265 121.42 709.885 121.58 710.565 121.58C711.245 121.58 711.865 121.42 712.425 121.1C712.998 120.767 713.451 120.293 713.785 119.68C714.118 119.053 714.285 118.327 714.285 117.5ZM721.02 113.82C721.34 113.193 721.793 112.707 722.38 112.36C722.98 112.013 723.707 111.84 724.56 111.84V113.72H724.08C722.04 113.72 721.02 114.827 721.02 117.04V123H719.2V112.04H721.02V113.82ZM728.881 113.54V120C728.881 120.533 728.994 120.913 729.221 121.14C729.448 121.353 729.841 121.46 730.401 121.46H731.741V123H730.101C729.088 123 728.328 122.767 727.821 122.3C727.314 121.833 727.061 121.067 727.061 120V113.54H725.641V112.04H727.061V109.28H728.881V112.04H731.741V113.54H728.881ZM735.826 120.48L733.586 125.86H732.366L733.826 120.48H735.826ZM745.063 108.2V123H743.243V108.2H745.063ZM758.165 117.1C758.165 117.447 758.145 117.813 758.105 118.2H749.345C749.412 119.28 749.778 120.127 750.445 120.74C751.125 121.34 751.945 121.64 752.905 121.64C753.692 121.64 754.345 121.46 754.865 121.1C755.398 120.727 755.772 120.233 755.985 119.62H757.945C757.652 120.673 757.065 121.533 756.185 122.2C755.305 122.853 754.212 123.18 752.905 123.18C751.865 123.18 750.932 122.947 750.105 122.48C749.292 122.013 748.652 121.353 748.185 120.5C747.718 119.633 747.485 118.633 747.485 117.5C747.485 116.367 747.712 115.373 748.165 114.52C748.618 113.667 749.252 113.013 750.065 112.56C750.892 112.093 751.838 111.86 752.905 111.86C753.945 111.86 754.865 112.087 755.665 112.54C756.465 112.993 757.078 113.62 757.505 114.42C757.945 115.207 758.165 116.1 758.165 117.1ZM756.285 116.72C756.285 116.027 756.132 115.433 755.825 114.94C755.518 114.433 755.098 114.053 754.565 113.8C754.045 113.533 753.465 113.4 752.825 113.4C751.905 113.4 751.118 113.693 750.465 114.28C749.825 114.867 749.458 115.68 749.365 116.72H756.285ZM762.787 113.54V120C762.787 120.533 762.901 120.913 763.127 121.14C763.354 121.353 763.747 121.46 764.307 121.46H765.647V123H764.007C762.994 123 762.234 122.767 761.727 122.3C761.221 121.833 760.967 121.067 760.967 120V113.54H759.547V112.04H760.967V109.28H762.787V112.04H765.647V113.54H762.787ZM768.133 109.06H770.153L768.233 113.6H766.953L768.133 109.06ZM776.108 123.18C775.268 123.18 774.514 123.04 773.848 122.76C773.181 122.467 772.654 122.067 772.268 121.56C771.881 121.04 771.668 120.447 771.628 119.78H773.508C773.561 120.327 773.814 120.773 774.268 121.12C774.734 121.467 775.341 121.64 776.088 121.64C776.781 121.64 777.328 121.487 777.728 121.18C778.128 120.873 778.328 120.487 778.328 120.02C778.328 119.54 778.114 119.187 777.688 118.96C777.261 118.72 776.601 118.487 775.708 118.26C774.894 118.047 774.228 117.833 773.708 117.62C773.201 117.393 772.761 117.067 772.388 116.64C772.028 116.2 771.848 115.627 771.848 114.92C771.848 114.36 772.014 113.847 772.348 113.38C772.681 112.913 773.154 112.547 773.768 112.28C774.381 112 775.081 111.86 775.868 111.86C777.081 111.86 778.061 112.167 778.808 112.78C779.554 113.393 779.954 114.233 780.008 115.3H778.188C778.148 114.727 777.914 114.267 777.488 113.92C777.074 113.573 776.514 113.4 775.808 113.4C775.154 113.4 774.634 113.54 774.248 113.82C773.861 114.1 773.668 114.467 773.668 114.92C773.668 115.28 773.781 115.58 774.008 115.82C774.248 116.047 774.541 116.233 774.888 116.38C775.248 116.513 775.741 116.667 776.368 116.84C777.154 117.053 777.794 117.267 778.288 117.48C778.781 117.68 779.201 117.987 779.548 118.4C779.908 118.813 780.094 119.353 780.108 120.02C780.108 120.62 779.941 121.16 779.608 121.64C779.274 122.12 778.801 122.5 778.188 122.78C777.588 123.047 776.894 123.18 776.108 123.18ZM787.329 117.5C787.329 116.367 787.555 115.38 788.009 114.54C788.462 113.687 789.089 113.027 789.889 112.56C790.702 112.093 791.629 111.86 792.669 111.86C794.015 111.86 795.122 112.187 795.989 112.84C796.869 113.493 797.449 114.4 797.729 115.56H795.769C795.582 114.893 795.215 114.367 794.669 113.98C794.135 113.593 793.469 113.4 792.669 113.4C791.629 113.4 790.789 113.76 790.149 114.48C789.509 115.187 789.189 116.193 789.189 117.5C789.189 118.82 789.509 119.84 790.149 120.56C790.789 121.28 791.629 121.64 792.669 121.64C793.469 121.64 794.135 121.453 794.669 121.08C795.202 120.707 795.569 120.173 795.769 119.48H797.729C797.435 120.6 796.849 121.5 795.969 122.18C795.089 122.847 793.989 123.18 792.669 123.18C791.629 123.18 790.702 122.947 789.889 122.48C789.089 122.013 788.462 121.353 788.009 120.5C787.555 119.647 787.329 118.647 787.329 117.5ZM805.597 111.84C806.424 111.84 807.171 112.02 807.837 112.38C808.504 112.727 809.024 113.253 809.397 113.96C809.784 114.667 809.977 115.527 809.977 116.54V123H808.177V116.8C808.177 115.707 807.904 114.873 807.357 114.3C806.811 113.713 806.064 113.42 805.117 113.42C804.157 113.42 803.391 113.72 802.817 114.32C802.257 114.92 801.977 115.793 801.977 116.94V123H800.157V108.2H801.977V113.6C802.337 113.04 802.831 112.607 803.457 112.3C804.097 111.993 804.811 111.84 805.597 111.84ZM822.95 117.1C822.95 117.447 822.93 117.813 822.89 118.2H814.13C814.197 119.28 814.563 120.127 815.23 120.74C815.91 121.34 816.73 121.64 817.69 121.64C818.477 121.64 819.13 121.46 819.65 121.1C820.183 120.727 820.557 120.233 820.77 119.62H822.73C822.437 120.673 821.85 121.533 820.97 122.2C820.09 122.853 818.997 123.18 817.69 123.18C816.65 123.18 815.717 122.947 814.89 122.48C814.077 122.013 813.437 121.353 812.97 120.5C812.503 119.633 812.27 118.633 812.27 117.5C812.27 116.367 812.497 115.373 812.95 114.52C813.403 113.667 814.037 113.013 814.85 112.56C815.677 112.093 816.623 111.86 817.69 111.86C818.73 111.86 819.65 112.087 820.45 112.54C821.25 112.993 821.863 113.62 822.29 114.42C822.73 115.207 822.95 116.1 822.95 117.1ZM821.07 116.72C821.07 116.027 820.917 115.433 820.61 114.94C820.303 114.433 819.883 114.053 819.35 113.8C818.83 113.533 818.25 113.4 817.61 113.4C816.69 113.4 815.903 113.693 815.25 114.28C814.61 114.867 814.243 115.68 814.15 116.72H821.07ZM824.673 117.5C824.673 116.367 824.899 115.38 825.353 114.54C825.806 113.687 826.433 113.027 827.233 112.56C828.046 112.093 828.973 111.86 830.013 111.86C831.359 111.86 832.466 112.187 833.333 112.84C834.213 113.493 834.793 114.4 835.073 115.56H833.113C832.926 114.893 832.559 114.367 832.013 113.98C831.479 113.593 830.813 113.4 830.013 113.4C828.973 113.4 828.133 113.76 827.493 114.48C826.853 115.187 826.533 116.193 826.533 117.5C826.533 118.82 826.853 119.84 827.493 120.56C828.133 121.28 828.973 121.64 830.013 121.64C830.813 121.64 831.479 121.453 832.013 121.08C832.546 120.707 832.913 120.173 833.113 119.48H835.073C834.779 120.6 834.193 121.5 833.313 122.18C832.433 122.847 831.333 123.18 830.013 123.18C828.973 123.18 828.046 122.947 827.233 122.48C826.433 122.013 825.806 121.353 825.353 120.5C824.899 119.647 824.673 118.647 824.673 117.5ZM843.621 123L839.321 118.16V123H837.501V108.2H839.321V116.9L843.541 112.04H846.081L840.921 117.5L846.101 123H843.621ZM854.066 110.26C853.719 110.26 853.426 110.14 853.186 109.9C852.946 109.66 852.826 109.367 852.826 109.02C852.826 108.673 852.946 108.38 853.186 108.14C853.426 107.9 853.719 107.78 854.066 107.78C854.399 107.78 854.679 107.9 854.906 108.14C855.146 108.38 855.266 108.673 855.266 109.02C855.266 109.367 855.146 109.66 854.906 109.9C854.679 110.14 854.399 110.26 854.066 110.26ZM854.946 112.04V123H853.126V112.04H854.946ZM863.388 111.84C864.721 111.84 865.801 112.247 866.628 113.06C867.454 113.86 867.868 115.02 867.868 116.54V123H866.068V116.8C866.068 115.707 865.794 114.873 865.248 114.3C864.701 113.713 863.954 113.42 863.008 113.42C862.048 113.42 861.281 113.72 860.708 114.32C860.148 114.92 859.868 115.793 859.868 116.94V123H858.048V112.04H859.868V113.6C860.228 113.04 860.714 112.607 861.328 112.3C861.954 111.993 862.641 111.84 863.388 111.84ZM880.633 113.54H878.333V123H876.513V113.54H875.093V112.04H876.513V111.26C876.513 110.033 876.826 109.14 877.453 108.58C878.093 108.007 879.113 107.72 880.513 107.72V109.24C879.713 109.24 879.146 109.4 878.813 109.72C878.493 110.027 878.333 110.54 878.333 111.26V112.04H880.633V113.54ZM884.575 113.82C884.895 113.193 885.348 112.707 885.935 112.36C886.535 112.013 887.262 111.84 888.115 111.84V113.72H887.635C885.595 113.72 884.575 114.827 884.575 117.04V123H882.755V112.04H884.575V113.82ZM894.996 123.18C893.969 123.18 893.036 122.947 892.196 122.48C891.369 122.013 890.716 121.353 890.236 120.5C889.769 119.633 889.536 118.633 889.536 117.5C889.536 116.38 889.776 115.393 890.256 114.54C890.749 113.673 891.416 113.013 892.256 112.56C893.096 112.093 894.036 111.86 895.076 111.86C896.116 111.86 897.056 112.093 897.896 112.56C898.736 113.013 899.396 113.667 899.876 114.52C900.369 115.373 900.616 116.367 900.616 117.5C900.616 118.633 900.362 119.633 899.856 120.5C899.362 121.353 898.689 122.013 897.836 122.48C896.982 122.947 896.036 123.18 894.996 123.18ZM894.996 121.58C895.649 121.58 896.262 121.427 896.836 121.12C897.409 120.813 897.869 120.353 898.216 119.74C898.576 119.127 898.756 118.38 898.756 117.5C898.756 116.62 898.582 115.873 898.236 115.26C897.889 114.647 897.436 114.193 896.876 113.9C896.316 113.593 895.709 113.44 895.056 113.44C894.389 113.44 893.776 113.593 893.216 113.9C892.669 114.193 892.229 114.647 891.896 115.26C891.562 115.873 891.396 116.62 891.396 117.5C891.396 118.393 891.556 119.147 891.876 119.76C892.209 120.373 892.649 120.833 893.196 121.14C893.742 121.433 894.342 121.58 894.996 121.58ZM916.189 111.84C917.042 111.84 917.802 112.02 918.469 112.38C919.135 112.727 919.662 113.253 920.049 113.96C920.435 114.667 920.629 115.527 920.629 116.54V123H918.829V116.8C918.829 115.707 918.555 114.873 918.009 114.3C917.475 113.713 916.749 113.42 915.829 113.42C914.882 113.42 914.129 113.727 913.569 114.34C913.009 114.94 912.729 115.813 912.729 116.96V123H910.929V116.8C910.929 115.707 910.655 114.873 910.109 114.3C909.575 113.713 908.849 113.42 907.929 113.42C906.982 113.42 906.229 113.727 905.669 114.34C905.109 114.94 904.829 115.813 904.829 116.96V123H903.009V112.04H904.829V113.62C905.189 113.047 905.669 112.607 906.269 112.3C906.882 111.993 907.555 111.84 908.289 111.84C909.209 111.84 910.022 112.047 910.729 112.46C911.435 112.873 911.962 113.48 912.309 114.28C912.615 113.507 913.122 112.907 913.829 112.48C914.535 112.053 915.322 111.84 916.189 111.84ZM931.166 113.54V120C931.166 120.533 931.28 120.913 931.506 121.14C931.733 121.353 932.126 121.46 932.686 121.46H934.026V123H932.386C931.373 123 930.613 122.767 930.106 122.3C929.6 121.833 929.346 121.067 929.346 120V113.54H927.926V112.04H929.346V109.28H931.166V112.04H934.026V113.54H931.166ZM941.671 111.84C942.498 111.84 943.245 112.02 943.911 112.38C944.578 112.727 945.098 113.253 945.471 113.96C945.858 114.667 946.051 115.527 946.051 116.54V123H944.251V116.8C944.251 115.707 943.978 114.873 943.431 114.3C942.885 113.713 942.138 113.42 941.191 113.42C940.231 113.42 939.465 113.72 938.891 114.32C938.331 114.92 938.051 115.793 938.051 116.94V123H936.231V108.2H938.051V113.6C938.411 113.04 938.905 112.607 939.531 112.3C940.171 111.993 940.885 111.84 941.671 111.84ZM959.024 117.1C959.024 117.447 959.004 117.813 958.964 118.2H950.204C950.271 119.28 950.638 120.127 951.304 120.74C951.984 121.34 952.804 121.64 953.764 121.64C954.551 121.64 955.204 121.46 955.724 121.1C956.258 120.727 956.631 120.233 956.844 119.62H958.804C958.511 120.673 957.924 121.533 957.044 122.2C956.164 122.853 955.071 123.18 953.764 123.18C952.724 123.18 951.791 122.947 950.964 122.48C950.151 122.013 949.511 121.353 949.044 120.5C948.578 119.633 948.344 118.633 948.344 117.5C948.344 116.367 948.571 115.373 949.024 114.52C949.478 113.667 950.111 113.013 950.924 112.56C951.751 112.093 952.698 111.86 953.764 111.86C954.804 111.86 955.724 112.087 956.524 112.54C957.324 112.993 957.938 113.62 958.364 114.42C958.804 115.207 959.024 116.1 959.024 117.1ZM957.144 116.72C957.144 116.027 956.991 115.433 956.684 114.94C956.378 114.433 955.958 114.053 955.424 113.8C954.904 113.533 954.324 113.4 953.684 113.4C952.764 113.4 951.978 113.693 951.324 114.28C950.684 114.867 950.318 115.68 950.224 116.72H957.144ZM968.579 114.06C968.939 113.433 969.472 112.913 970.179 112.5C970.899 112.073 971.732 111.86 972.679 111.86C973.652 111.86 974.532 112.093 975.319 112.56C976.119 113.027 976.745 113.687 977.199 114.54C977.652 115.38 977.879 116.36 977.879 117.48C977.879 118.587 977.652 119.573 977.199 120.44C976.745 121.307 976.119 121.98 975.319 122.46C974.532 122.94 973.652 123.18 972.679 123.18C971.745 123.18 970.919 122.973 970.199 122.56C969.492 122.133 968.952 121.607 968.579 120.98V128.2H966.759V112.04H968.579V114.06ZM976.019 117.48C976.019 116.653 975.852 115.933 975.519 115.32C975.185 114.707 974.732 114.24 974.159 113.92C973.599 113.6 972.979 113.44 972.299 113.44C971.632 113.44 971.012 113.607 970.439 113.94C969.879 114.26 969.425 114.733 969.079 115.36C968.745 115.973 968.579 116.687 968.579 117.5C968.579 118.327 968.745 119.053 969.079 119.68C969.425 120.293 969.879 120.767 970.439 121.1C971.012 121.42 971.632 121.58 972.299 121.58C972.979 121.58 973.599 121.42 974.159 121.1C974.732 120.767 975.185 120.293 975.519 119.68C975.852 119.053 976.019 118.32 976.019 117.48ZM985.054 123.18C984.028 123.18 983.094 122.947 982.254 122.48C981.428 122.013 980.774 121.353 980.294 120.5C979.828 119.633 979.594 118.633 979.594 117.5C979.594 116.38 979.834 115.393 980.314 114.54C980.808 113.673 981.474 113.013 982.314 112.56C983.154 112.093 984.094 111.86 985.134 111.86C986.174 111.86 987.114 112.093 987.954 112.56C988.794 113.013 989.454 113.667 989.934 114.52C990.428 115.373 990.674 116.367 990.674 117.5C990.674 118.633 990.421 119.633 989.914 120.5C989.421 121.353 988.748 122.013 987.894 122.48C987.041 122.947 986.094 123.18 985.054 123.18ZM985.054 121.58C985.708 121.58 986.321 121.427 986.894 121.12C987.468 120.813 987.928 120.353 988.274 119.74C988.634 119.127 988.814 118.38 988.814 117.5C988.814 116.62 988.641 115.873 988.294 115.26C987.948 114.647 987.494 114.193 986.934 113.9C986.374 113.593 985.768 113.44 985.114 113.44C984.448 113.44 983.834 113.593 983.274 113.9C982.728 114.193 982.288 114.647 981.954 115.26C981.621 115.873 981.454 116.62 981.454 117.5C981.454 118.393 981.614 119.147 981.934 119.76C982.268 120.373 982.708 120.833 983.254 121.14C983.801 121.433 984.401 121.58 985.054 121.58ZM994.887 114.06C995.247 113.433 995.781 112.913 996.487 112.5C997.207 112.073 998.041 111.86 998.987 111.86C999.961 111.86 1000.84 112.093 1001.63 112.56C1002.43 113.027 1003.05 113.687 1003.51 114.54C1003.96 115.38 1004.19 116.36 1004.19 117.48C1004.19 118.587 1003.96 119.573 1003.51 120.44C1003.05 121.307 1002.43 121.98 1001.63 122.46C1000.84 122.94 999.961 123.18 998.987 123.18C998.054 123.18 997.227 122.973 996.507 122.56C995.801 122.133 995.261 121.607 994.887 120.98V128.2H993.067V112.04H994.887V114.06ZM1002.33 117.48C1002.33 116.653 1002.16 115.933 1001.83 115.32C1001.49 114.707 1001.04 114.24 1000.47 113.92C999.907 113.6 999.287 113.44 998.607 113.44C997.941 113.44 997.321 113.607 996.747 113.94C996.187 114.26 995.734 114.733 995.387 115.36C995.054 115.973 994.887 116.687 994.887 117.5C994.887 118.327 995.054 119.053 995.387 119.68C995.734 120.293 996.187 120.767 996.747 121.1C997.321 121.42 997.941 121.58 998.607 121.58C999.287 121.58 999.907 121.42 1000.47 121.1C1001.04 120.767 1001.49 120.293 1001.83 119.68C1002.16 119.053 1002.33 118.32 1002.33 117.48ZM1021.64 112.04V123H1019.82V121.38C1019.47 121.94 1018.98 122.38 1018.36 122.7C1017.74 123.007 1017.06 123.16 1016.32 123.16C1015.46 123.16 1014.7 122.987 1014.02 122.64C1013.34 122.28 1012.8 121.747 1012.4 121.04C1012.01 120.333 1011.82 119.473 1011.82 118.46V112.04H1013.62V118.22C1013.62 119.3 1013.89 120.133 1014.44 120.72C1014.98 121.293 1015.73 121.58 1016.68 121.58C1017.65 121.58 1018.42 121.28 1018.98 120.68C1019.54 120.08 1019.82 119.207 1019.82 118.06V112.04H1021.64ZM1026.53 114.06C1026.89 113.433 1027.42 112.913 1028.13 112.5C1028.85 112.073 1029.68 111.86 1030.63 111.86C1031.6 111.86 1032.48 112.093 1033.27 112.56C1034.07 113.027 1034.69 113.687 1035.15 114.54C1035.6 115.38 1035.83 116.36 1035.83 117.48C1035.83 118.587 1035.6 119.573 1035.15 120.44C1034.69 121.307 1034.07 121.98 1033.27 122.46C1032.48 122.94 1031.6 123.18 1030.63 123.18C1029.69 123.18 1028.87 122.973 1028.15 122.56C1027.44 122.133 1026.9 121.607 1026.53 120.98V128.2H1024.71V112.04H1026.53V114.06ZM1033.97 117.48C1033.97 116.653 1033.8 115.933 1033.47 115.32C1033.13 114.707 1032.68 114.24 1032.11 113.92C1031.55 113.6 1030.93 113.44 1030.25 113.44C1029.58 113.44 1028.96 113.607 1028.39 113.94C1027.83 114.26 1027.37 114.733 1027.03 115.36C1026.69 115.973 1026.53 116.687 1026.53 117.5C1026.53 118.327 1026.69 119.053 1027.03 119.68C1027.37 120.293 1027.83 120.767 1028.39 121.1C1028.96 121.42 1029.58 121.58 1030.25 121.58C1030.93 121.58 1031.55 121.42 1032.11 121.1C1032.68 120.767 1033.13 120.293 1033.47 119.68C1033.8 119.053 1033.97 118.32 1033.97 117.48ZM1058.16 112.04L1054.74 123H1052.86L1050.22 114.3L1047.58 123H1045.7L1042.26 112.04H1044.12L1046.64 121.24L1049.36 112.04H1051.22L1053.88 121.26L1056.36 112.04H1058.16ZM1060.9 110.26C1060.56 110.26 1060.26 110.14 1060.02 109.9C1059.78 109.66 1059.66 109.367 1059.66 109.02C1059.66 108.673 1059.78 108.38 1060.02 108.14C1060.26 107.9 1060.56 107.78 1060.9 107.78C1061.24 107.78 1061.52 107.9 1061.74 108.14C1061.98 108.38 1062.1 108.673 1062.1 109.02C1062.1 109.367 1061.98 109.66 1061.74 109.9C1061.52 110.14 1061.24 110.26 1060.9 110.26ZM1061.78 112.04V123H1059.96V112.04H1061.78ZM1070.22 111.84C1071.56 111.84 1072.64 112.247 1073.46 113.06C1074.29 113.86 1074.7 115.02 1074.7 116.54V123H1072.9V116.8C1072.9 115.707 1072.63 114.873 1072.08 114.3C1071.54 113.713 1070.79 113.42 1069.84 113.42C1068.88 113.42 1068.12 113.72 1067.54 114.32C1066.98 114.92 1066.7 115.793 1066.7 116.94V123H1064.88V112.04H1066.7V113.6C1067.06 113.04 1067.55 112.607 1068.16 112.3C1068.79 111.993 1069.48 111.84 1070.22 111.84ZM1077 117.48C1077 116.36 1077.22 115.38 1077.68 114.54C1078.13 113.687 1078.75 113.027 1079.54 112.56C1080.34 112.093 1081.23 111.86 1082.22 111.86C1083.07 111.86 1083.86 112.06 1084.6 112.46C1085.33 112.847 1085.89 113.36 1086.28 114V108.2H1088.12V123H1086.28V120.94C1085.92 121.593 1085.38 122.133 1084.68 122.56C1083.97 122.973 1083.14 123.18 1082.2 123.18C1081.22 123.18 1080.34 122.94 1079.54 122.46C1078.75 121.98 1078.13 121.307 1077.68 120.44C1077.22 119.573 1077 118.587 1077 117.48ZM1086.28 117.5C1086.28 116.673 1086.11 115.953 1085.78 115.34C1085.44 114.727 1084.99 114.26 1084.42 113.94C1083.86 113.607 1083.24 113.44 1082.56 113.44C1081.88 113.44 1081.26 113.6 1080.7 113.92C1080.14 114.24 1079.69 114.707 1079.36 115.32C1079.02 115.933 1078.86 116.653 1078.86 117.48C1078.86 118.32 1079.02 119.053 1079.36 119.68C1079.69 120.293 1080.14 120.767 1080.7 121.1C1081.26 121.42 1081.88 121.58 1082.56 121.58C1083.24 121.58 1083.86 121.42 1084.42 121.1C1084.99 120.767 1085.44 120.293 1085.78 119.68C1086.11 119.053 1086.28 118.327 1086.28 117.5ZM1095.97 123.18C1094.95 123.18 1094.01 122.947 1093.17 122.48C1092.35 122.013 1091.69 121.353 1091.21 120.5C1090.75 119.633 1090.51 118.633 1090.51 117.5C1090.51 116.38 1090.75 115.393 1091.23 114.54C1091.73 113.673 1092.39 113.013 1093.23 112.56C1094.07 112.093 1095.01 111.86 1096.05 111.86C1097.09 111.86 1098.03 112.093 1098.87 112.56C1099.71 113.013 1100.37 113.667 1100.85 114.52C1101.35 115.373 1101.59 116.367 1101.59 117.5C1101.59 118.633 1101.34 119.633 1100.83 120.5C1100.34 121.353 1099.67 122.013 1098.81 122.48C1097.96 122.947 1097.01 123.18 1095.97 123.18ZM1095.97 121.58C1096.63 121.58 1097.24 121.427 1097.81 121.12C1098.39 120.813 1098.85 120.353 1099.19 119.74C1099.55 119.127 1099.73 118.38 1099.73 117.5C1099.73 116.62 1099.56 115.873 1099.21 115.26C1098.87 114.647 1098.41 114.193 1097.85 113.9C1097.29 113.593 1096.69 113.44 1096.03 113.44C1095.37 113.44 1094.75 113.593 1094.19 113.9C1093.65 114.193 1093.21 114.647 1092.87 115.26C1092.54 115.873 1092.37 116.62 1092.37 117.5C1092.37 118.393 1092.53 119.147 1092.85 119.76C1093.19 120.373 1093.63 120.833 1094.17 121.14C1094.72 121.433 1095.32 121.58 1095.97 121.58ZM1118.59 112.04L1115.17 123H1113.29L1110.65 114.3L1108.01 123H1106.13L1102.69 112.04H1104.55L1107.07 121.24L1109.79 112.04H1111.65L1114.31 121.26L1116.79 112.04H1118.59Z" fill="black"/>
<path d="M662.78 385.9H656.7L655.58 389H653.66L658.7 375.14H660.8L665.82 389H663.9L662.78 385.9ZM662.26 384.42L659.74 377.38L657.22 384.42H662.26ZM669.837 379.82C670.157 379.193 670.61 378.707 671.197 378.36C671.797 378.013 672.523 377.84 673.377 377.84V379.72H672.897C670.857 379.72 669.837 380.827 669.837 383.04V389H668.017V378.04H669.837V379.82ZM677.298 379.82C677.618 379.193 678.071 378.707 678.658 378.36C679.258 378.013 679.984 377.84 680.838 377.84V379.72H680.358C678.318 379.72 677.298 380.827 677.298 383.04V389H675.478V378.04H677.298V379.82ZM683.878 376.26C683.532 376.26 683.238 376.14 682.998 375.9C682.758 375.66 682.638 375.367 682.638 375.02C682.638 374.673 682.758 374.38 682.998 374.14C683.238 373.9 683.532 373.78 683.878 373.78C684.212 373.78 684.492 373.9 684.718 374.14C684.958 374.38 685.078 374.673 685.078 375.02C685.078 375.367 684.958 375.66 684.718 375.9C684.492 376.14 684.212 376.26 683.878 376.26ZM684.758 378.04V389H682.938V378.04H684.758ZM691.94 387.32L695.34 378.04H697.28L692.98 389H690.86L686.56 378.04H688.52L691.94 387.32ZM709.071 383.1C709.071 383.447 709.051 383.813 709.011 384.2H700.251C700.318 385.28 700.685 386.127 701.351 386.74C702.031 387.34 702.851 387.64 703.811 387.64C704.598 387.64 705.251 387.46 705.771 387.1C706.305 386.727 706.678 386.233 706.891 385.62H708.851C708.558 386.673 707.971 387.533 707.091 388.2C706.211 388.853 705.118 389.18 703.811 389.18C702.771 389.18 701.838 388.947 701.011 388.48C700.198 388.013 699.558 387.353 699.091 386.5C698.625 385.633 698.391 384.633 698.391 383.5C698.391 382.367 698.618 381.373 699.071 380.52C699.525 379.667 700.158 379.013 700.971 378.56C701.798 378.093 702.745 377.86 703.811 377.86C704.851 377.86 705.771 378.087 706.571 378.54C707.371 378.993 707.985 379.62 708.411 380.42C708.851 381.207 709.071 382.1 709.071 383.1ZM707.191 382.72C707.191 382.027 707.038 381.433 706.731 380.94C706.425 380.433 706.005 380.053 705.471 379.8C704.951 379.533 704.371 379.4 703.731 379.4C702.811 379.4 702.025 379.693 701.371 380.28C700.731 380.867 700.365 381.68 700.271 382.72H707.191ZM716.126 383.48C716.126 382.36 716.352 381.38 716.806 380.54C717.259 379.687 717.879 379.027 718.666 378.56C719.466 378.093 720.352 377.86 721.326 377.86C722.286 377.86 723.119 378.067 723.826 378.48C724.532 378.893 725.059 379.413 725.406 380.04V378.04H727.246V389H725.406V386.96C725.046 387.6 724.506 388.133 723.786 388.56C723.079 388.973 722.252 389.18 721.306 389.18C720.332 389.18 719.452 388.94 718.666 388.46C717.879 387.98 717.259 387.307 716.806 386.44C716.352 385.573 716.126 384.587 716.126 383.48ZM725.406 383.5C725.406 382.673 725.239 381.953 724.906 381.34C724.572 380.727 724.119 380.26 723.546 379.94C722.986 379.607 722.366 379.44 721.686 379.44C721.006 379.44 720.386 379.6 719.826 379.92C719.266 380.24 718.819 380.707 718.486 381.32C718.152 381.933 717.986 382.653 717.986 383.48C717.986 384.32 718.152 385.053 718.486 385.68C718.819 386.293 719.266 386.767 719.826 387.1C720.386 387.42 721.006 387.58 721.686 387.58C722.366 387.58 722.986 387.42 723.546 387.1C724.119 386.767 724.572 386.293 724.906 385.68C725.239 385.053 725.406 384.327 725.406 383.5ZM732.541 379.54V386C732.541 386.533 732.655 386.913 732.881 387.14C733.108 387.353 733.501 387.46 734.061 387.46H735.401V389H733.761C732.748 389 731.988 388.767 731.481 388.3C730.975 387.833 730.721 387.067 730.721 386V379.54H729.301V378.04H730.721V375.28H732.541V378.04H735.401V379.54H732.541ZM742.258 383.48C742.258 382.36 742.485 381.38 742.938 380.54C743.392 379.687 744.012 379.027 744.798 378.56C745.598 378.093 746.492 377.86 747.478 377.86C748.332 377.86 749.125 378.06 749.858 378.46C750.592 378.847 751.152 379.36 751.538 380V374.2H753.378V389H751.538V386.94C751.178 387.593 750.645 388.133 749.938 388.56C749.232 388.973 748.405 389.18 747.458 389.18C746.485 389.18 745.598 388.94 744.798 388.46C744.012 387.98 743.392 387.307 742.938 386.44C742.485 385.573 742.258 384.587 742.258 383.48ZM751.538 383.5C751.538 382.673 751.372 381.953 751.038 381.34C750.705 380.727 750.252 380.26 749.678 379.94C749.118 379.607 748.498 379.44 747.818 379.44C747.138 379.44 746.518 379.6 745.958 379.92C745.398 380.24 744.952 380.707 744.618 381.32C744.285 381.933 744.118 382.653 744.118 383.48C744.118 384.32 744.285 385.053 744.618 385.68C744.952 386.293 745.398 386.767 745.958 387.1C746.518 387.42 747.138 387.58 747.818 387.58C748.498 387.58 749.118 387.42 749.678 387.1C750.252 386.767 750.705 386.293 751.038 385.68C751.372 385.053 751.538 384.327 751.538 383.5ZM755.774 383.48C755.774 382.36 756.001 381.38 756.454 380.54C756.907 379.687 757.527 379.027 758.314 378.56C759.114 378.093 760.001 377.86 760.974 377.86C761.934 377.86 762.767 378.067 763.474 378.48C764.181 378.893 764.707 379.413 765.054 380.04V378.04H766.894V389H765.054V386.96C764.694 387.6 764.154 388.133 763.434 388.56C762.727 388.973 761.901 389.18 760.954 389.18C759.981 389.18 759.101 388.94 758.314 388.46C757.527 387.98 756.907 387.307 756.454 386.44C756.001 385.573 755.774 384.587 755.774 383.48ZM765.054 383.5C765.054 382.673 764.887 381.953 764.554 381.34C764.221 380.727 763.767 380.26 763.194 379.94C762.634 379.607 762.014 379.44 761.334 379.44C760.654 379.44 760.034 379.6 759.474 379.92C758.914 380.24 758.467 380.707 758.134 381.32C757.801 381.933 757.634 382.653 757.634 383.48C757.634 384.32 757.801 385.053 758.134 385.68C758.467 386.293 758.914 386.767 759.474 387.1C760.034 387.42 760.654 387.58 761.334 387.58C762.014 387.58 762.634 387.42 763.194 387.1C763.767 386.767 764.221 386.293 764.554 385.68C764.887 385.053 765.054 384.327 765.054 383.5ZM773.85 389.18C773.01 389.18 772.256 389.04 771.59 388.76C770.923 388.467 770.396 388.067 770.01 387.56C769.623 387.04 769.41 386.447 769.37 385.78H771.25C771.303 386.327 771.556 386.773 772.01 387.12C772.476 387.467 773.083 387.64 773.83 387.64C774.523 387.64 775.07 387.487 775.47 387.18C775.87 386.873 776.07 386.487 776.07 386.02C776.07 385.54 775.856 385.187 775.43 384.96C775.003 384.72 774.343 384.487 773.45 384.26C772.636 384.047 771.97 383.833 771.45 383.62C770.943 383.393 770.503 383.067 770.13 382.64C769.77 382.2 769.59 381.627 769.59 380.92C769.59 380.36 769.756 379.847 770.09 379.38C770.423 378.913 770.896 378.547 771.51 378.28C772.123 378 772.823 377.86 773.61 377.86C774.823 377.86 775.803 378.167 776.55 378.78C777.296 379.393 777.696 380.233 777.75 381.3H775.93C775.89 380.727 775.656 380.267 775.23 379.92C774.816 379.573 774.256 379.4 773.55 379.4C772.896 379.4 772.376 379.54 771.99 379.82C771.603 380.1 771.41 380.467 771.41 380.92C771.41 381.28 771.523 381.58 771.75 381.82C771.99 382.047 772.283 382.233 772.63 382.38C772.99 382.513 773.483 382.667 774.11 382.84C774.896 383.053 775.536 383.267 776.03 383.48C776.523 383.68 776.943 383.987 777.29 384.4C777.65 384.813 777.836 385.353 777.85 386.02C777.85 386.62 777.683 387.16 777.35 387.64C777.016 388.12 776.543 388.5 775.93 388.78C775.33 389.047 774.636 389.18 773.85 389.18ZM785.859 377.84C786.686 377.84 787.432 378.02 788.099 378.38C788.766 378.727 789.286 379.253 789.659 379.96C790.046 380.667 790.239 381.527 790.239 382.54V389H788.439V382.8C788.439 381.707 788.166 380.873 787.619 380.3C787.072 379.713 786.326 379.42 785.379 379.42C784.419 379.42 783.652 379.72 783.079 380.32C782.519 380.92 782.239 381.793 782.239 382.94V389H780.419V374.2H782.239V379.6C782.599 379.04 783.092 378.607 783.719 378.3C784.359 377.993 785.072 377.84 785.859 377.84ZM795.032 380.08C795.405 379.427 795.952 378.893 796.672 378.48C797.392 378.067 798.212 377.86 799.132 377.86C800.119 377.86 801.005 378.093 801.792 378.56C802.579 379.027 803.199 379.687 803.652 380.54C804.105 381.38 804.332 382.36 804.332 383.48C804.332 384.587 804.105 385.573 803.652 386.44C803.199 387.307 802.572 387.98 801.772 388.46C800.985 388.94 800.105 389.18 799.132 389.18C798.185 389.18 797.352 388.973 796.632 388.56C795.925 388.147 795.392 387.62 795.032 386.98V389H793.212V374.2H795.032V380.08ZM802.472 383.48C802.472 382.653 802.305 381.933 801.972 381.32C801.639 380.707 801.185 380.24 800.612 379.92C800.052 379.6 799.432 379.44 798.752 379.44C798.085 379.44 797.465 379.607 796.892 379.94C796.332 380.26 795.879 380.733 795.532 381.36C795.199 381.973 795.032 382.687 795.032 383.5C795.032 384.327 795.199 385.053 795.532 385.68C795.879 386.293 796.332 386.767 796.892 387.1C797.465 387.42 798.085 387.58 798.752 387.58C799.432 387.58 800.052 387.42 800.612 387.1C801.185 386.767 801.639 386.293 801.972 385.68C802.305 385.053 802.472 384.32 802.472 383.48ZM811.508 389.18C810.481 389.18 809.548 388.947 808.708 388.48C807.881 388.013 807.228 387.353 806.748 386.5C806.281 385.633 806.048 384.633 806.048 383.5C806.048 382.38 806.288 381.393 806.768 380.54C807.261 379.673 807.928 379.013 808.768 378.56C809.608 378.093 810.548 377.86 811.588 377.86C812.628 377.86 813.568 378.093 814.408 378.56C815.248 379.013 815.908 379.667 816.388 380.52C816.881 381.373 817.128 382.367 817.128 383.5C817.128 384.633 816.874 385.633 816.368 386.5C815.874 387.353 815.201 388.013 814.348 388.48C813.494 388.947 812.548 389.18 811.508 389.18ZM811.508 387.58C812.161 387.58 812.774 387.427 813.348 387.12C813.921 386.813 814.381 386.353 814.728 385.74C815.088 385.127 815.268 384.38 815.268 383.5C815.268 382.62 815.094 381.873 814.748 381.26C814.401 380.647 813.948 380.193 813.388 379.9C812.828 379.593 812.221 379.44 811.568 379.44C810.901 379.44 810.288 379.593 809.728 379.9C809.181 380.193 808.741 380.647 808.408 381.26C808.074 381.873 807.908 382.62 807.908 383.5C807.908 384.393 808.068 385.147 808.388 385.76C808.721 386.373 809.161 386.833 809.708 387.14C810.254 387.433 810.854 387.58 811.508 387.58ZM818.84 383.48C818.84 382.36 819.067 381.38 819.52 380.54C819.974 379.687 820.594 379.027 821.38 378.56C822.18 378.093 823.067 377.86 824.04 377.86C825 377.86 825.834 378.067 826.54 378.48C827.247 378.893 827.774 379.413 828.12 380.04V378.04H829.96V389H828.12V386.96C827.76 387.6 827.22 388.133 826.5 388.56C825.794 388.973 824.967 389.18 824.02 389.18C823.047 389.18 822.167 388.94 821.38 388.46C820.594 387.98 819.974 387.307 819.52 386.44C819.067 385.573 818.84 384.587 818.84 383.48ZM828.12 383.5C828.12 382.673 827.954 381.953 827.62 381.34C827.287 380.727 826.834 380.26 826.26 379.94C825.7 379.607 825.08 379.44 824.4 379.44C823.72 379.44 823.1 379.6 822.54 379.92C821.98 380.24 821.534 380.707 821.2 381.32C820.867 381.933 820.7 382.653 820.7 383.48C820.7 384.32 820.867 385.053 821.2 385.68C821.534 386.293 821.98 386.767 822.54 387.1C823.1 387.42 823.72 387.58 824.4 387.58C825.08 387.58 825.7 387.42 826.26 387.1C826.834 386.767 827.287 386.293 827.62 385.68C827.954 385.053 828.12 384.327 828.12 383.5ZM834.856 379.82C835.176 379.193 835.629 378.707 836.216 378.36C836.816 378.013 837.543 377.84 838.396 377.84V379.72H837.916C835.876 379.72 834.856 380.827 834.856 383.04V389H833.036V378.04H834.856V379.82ZM839.817 383.48C839.817 382.36 840.044 381.38 840.497 380.54C840.95 379.687 841.57 379.027 842.357 378.56C843.157 378.093 844.05 377.86 845.037 377.86C845.89 377.86 846.684 378.06 847.417 378.46C848.15 378.847 848.71 379.36 849.097 380V374.2H850.937V389H849.097V386.94C848.737 387.593 848.204 388.133 847.497 388.56C846.79 388.973 845.964 389.18 845.017 389.18C844.044 389.18 843.157 388.94 842.357 388.46C841.57 387.98 840.95 387.307 840.497 386.44C840.044 385.573 839.817 384.587 839.817 383.48ZM849.097 383.5C849.097 382.673 848.93 381.953 848.597 381.34C848.264 380.727 847.81 380.26 847.237 379.94C846.677 379.607 846.057 379.44 845.377 379.44C844.697 379.44 844.077 379.6 843.517 379.92C842.957 380.24 842.51 380.707 842.177 381.32C841.844 381.933 841.677 382.653 841.677 383.48C841.677 384.32 841.844 385.053 842.177 385.68C842.51 386.293 842.957 386.767 843.517 387.1C844.077 387.42 844.697 387.58 845.377 387.58C846.057 387.58 846.677 387.42 847.237 387.1C847.81 386.767 848.264 386.293 848.597 385.68C848.93 385.053 849.097 384.327 849.097 383.5ZM854.593 389.12C854.246 389.12 853.953 389 853.713 388.76C853.473 388.52 853.353 388.227 853.353 387.88C853.353 387.533 853.473 387.24 853.713 387C853.953 386.76 854.246 386.64 854.593 386.64C854.926 386.64 855.206 386.76 855.433 387C855.673 387.24 855.793 387.533 855.793 387.88C855.793 388.227 855.673 388.52 855.433 388.76C855.206 389 854.926 389.12 854.593 389.12ZM867.964 389.14C867.044 389.14 866.217 388.98 865.484 388.66C864.764 388.327 864.197 387.873 863.784 387.3C863.371 386.713 863.157 386.04 863.144 385.28H865.084C865.151 385.933 865.417 386.487 865.884 386.94C866.364 387.38 867.057 387.6 867.964 387.6C868.831 387.6 869.511 387.387 870.004 386.96C870.511 386.52 870.764 385.96 870.764 385.28C870.764 384.747 870.617 384.313 870.324 383.98C870.031 383.647 869.664 383.393 869.224 383.22C868.784 383.047 868.191 382.86 867.444 382.66C866.524 382.42 865.784 382.18 865.224 381.94C864.677 381.7 864.204 381.327 863.804 380.82C863.417 380.3 863.224 379.607 863.224 378.74C863.224 377.98 863.417 377.307 863.804 376.72C864.191 376.133 864.731 375.68 865.424 375.36C866.131 375.04 866.937 374.88 867.844 374.88C869.151 374.88 870.217 375.207 871.044 375.86C871.884 376.513 872.357 377.38 872.464 378.46H870.464C870.397 377.927 870.117 377.46 869.624 377.06C869.131 376.647 868.477 376.44 867.664 376.44C866.904 376.44 866.284 376.64 865.804 377.04C865.324 377.427 865.084 377.973 865.084 378.68C865.084 379.187 865.224 379.6 865.504 379.92C865.797 380.24 866.151 380.487 866.564 380.66C866.991 380.82 867.584 381.007 868.344 381.22C869.264 381.473 870.004 381.727 870.564 381.98C871.124 382.22 871.604 382.6 872.004 383.12C872.404 383.627 872.604 384.32 872.604 385.2C872.604 385.88 872.424 386.52 872.064 387.12C871.704 387.72 871.171 388.207 870.464 388.58C869.757 388.953 868.924 389.14 867.964 389.14ZM885.282 383.1C885.282 383.447 885.262 383.813 885.222 384.2H876.462C876.529 385.28 876.896 386.127 877.562 386.74C878.242 387.34 879.062 387.64 880.022 387.64C880.809 387.64 881.462 387.46 881.982 387.1C882.516 386.727 882.889 386.233 883.102 385.62H885.062C884.769 386.673 884.182 387.533 883.302 388.2C882.422 388.853 881.329 389.18 880.022 389.18C878.982 389.18 878.049 388.947 877.222 388.48C876.409 388.013 875.769 387.353 875.302 386.5C874.836 385.633 874.602 384.633 874.602 383.5C874.602 382.367 874.829 381.373 875.282 380.52C875.736 379.667 876.369 379.013 877.182 378.56C878.009 378.093 878.956 377.86 880.022 377.86C881.062 377.86 881.982 378.087 882.782 378.54C883.582 378.993 884.196 379.62 884.622 380.42C885.062 381.207 885.282 382.1 885.282 383.1ZM883.402 382.72C883.402 382.027 883.249 381.433 882.942 380.94C882.636 380.433 882.216 380.053 881.682 379.8C881.162 379.533 880.582 379.4 879.942 379.4C879.022 379.4 878.236 379.693 877.582 380.28C876.942 380.867 876.576 381.68 876.482 382.72H883.402ZM897.685 383.1C897.685 383.447 897.665 383.813 897.625 384.2H888.865C888.931 385.28 889.298 386.127 889.965 386.74C890.645 387.34 891.465 387.64 892.425 387.64C893.211 387.64 893.865 387.46 894.385 387.1C894.918 386.727 895.291 386.233 895.505 385.62H897.465C897.171 386.673 896.585 387.533 895.705 388.2C894.825 388.853 893.731 389.18 892.425 389.18C891.385 389.18 890.451 388.947 889.625 388.48C888.811 388.013 888.171 387.353 887.705 386.5C887.238 385.633 887.005 384.633 887.005 383.5C887.005 382.367 887.231 381.373 887.685 380.52C888.138 379.667 888.771 379.013 889.585 378.56C890.411 378.093 891.358 377.86 892.425 377.86C893.465 377.86 894.385 378.087 895.185 378.54C895.985 378.993 896.598 379.62 897.025 380.42C897.465 381.207 897.685 382.1 897.685 383.1ZM895.805 382.72C895.805 382.027 895.651 381.433 895.345 380.94C895.038 380.433 894.618 380.053 894.085 379.8C893.565 379.533 892.985 379.4 892.345 379.4C891.425 379.4 890.638 379.693 889.985 380.28C889.345 380.867 888.978 381.68 888.885 382.72H895.805ZM907.239 380.08C907.612 379.427 908.159 378.893 908.879 378.48C909.599 378.067 910.419 377.86 911.339 377.86C912.326 377.86 913.212 378.093 913.999 378.56C914.786 379.027 915.406 379.687 915.859 380.54C916.312 381.38 916.539 382.36 916.539 383.48C916.539 384.587 916.312 385.573 915.859 386.44C915.406 387.307 914.779 387.98 913.979 388.46C913.192 388.94 912.312 389.18 911.339 389.18C910.392 389.18 909.559 388.973 908.839 388.56C908.132 388.147 907.599 387.62 907.239 386.98V389H905.419V374.2H907.239V380.08ZM914.679 383.48C914.679 382.653 914.512 381.933 914.179 381.32C913.846 380.707 913.392 380.24 912.819 379.92C912.259 379.6 911.639 379.44 910.959 379.44C910.292 379.44 909.672 379.607 909.099 379.94C908.539 380.26 908.086 380.733 907.739 381.36C907.406 381.973 907.239 382.687 907.239 383.5C907.239 384.327 907.406 385.053 907.739 385.68C908.086 386.293 908.539 386.767 909.099 387.1C909.672 387.42 910.292 387.58 910.959 387.58C911.639 387.58 912.259 387.42 912.819 387.1C913.392 386.767 913.846 386.293 914.179 385.68C914.512 385.053 914.679 384.32 914.679 383.48ZM919.875 376.26C919.528 376.26 919.235 376.14 918.995 375.9C918.755 375.66 918.635 375.367 918.635 375.02C918.635 374.673 918.755 374.38 918.995 374.14C919.235 373.9 919.528 373.78 919.875 373.78C920.208 373.78 920.488 373.9 920.715 374.14C920.955 374.38 921.075 374.673 921.075 375.02C921.075 375.367 920.955 375.66 920.715 375.9C920.488 376.14 920.208 376.26 919.875 376.26ZM920.755 378.04V389H918.935V378.04H920.755ZM928.376 377.86C929.323 377.86 930.15 378.067 930.856 378.48C931.576 378.893 932.11 379.413 932.456 380.04V378.04H934.296V389.24C934.296 390.24 934.083 391.127 933.656 391.9C933.23 392.687 932.616 393.3 931.816 393.74C931.03 394.18 930.11 394.4 929.056 394.4C927.616 394.4 926.416 394.06 925.456 393.38C924.496 392.7 923.93 391.773 923.756 390.6H925.556C925.756 391.267 926.17 391.8 926.796 392.2C927.423 392.613 928.176 392.82 929.056 392.82C930.056 392.82 930.87 392.507 931.496 391.88C932.136 391.253 932.456 390.373 932.456 389.24V386.94C932.096 387.58 931.563 388.113 930.856 388.54C930.15 388.967 929.323 389.18 928.376 389.18C927.403 389.18 926.516 388.94 925.716 388.46C924.93 387.98 924.31 387.307 923.856 386.44C923.403 385.573 923.176 384.587 923.176 383.48C923.176 382.36 923.403 381.38 923.856 380.54C924.31 379.687 924.93 379.027 925.716 378.56C926.516 378.093 927.403 377.86 928.376 377.86ZM932.456 383.5C932.456 382.673 932.29 381.953 931.956 381.34C931.623 380.727 931.17 380.26 930.596 379.94C930.036 379.607 929.416 379.44 928.736 379.44C928.056 379.44 927.436 379.6 926.876 379.92C926.316 380.24 925.87 380.707 925.536 381.32C925.203 381.933 925.036 382.653 925.036 383.48C925.036 384.32 925.203 385.053 925.536 385.68C925.87 386.293 926.316 386.767 926.876 387.1C927.436 387.42 928.056 387.58 928.736 387.58C929.416 387.58 930.036 387.42 930.596 387.1C931.17 386.767 931.623 386.293 931.956 385.68C932.29 385.053 932.456 384.327 932.456 383.5ZM947.224 377.86C948.171 377.86 948.997 378.067 949.704 378.48C950.424 378.893 950.957 379.413 951.304 380.04V378.04H953.144V389.24C953.144 390.24 952.931 391.127 952.504 391.9C952.077 392.687 951.464 393.3 950.664 393.74C949.877 394.18 948.957 394.4 947.904 394.4C946.464 394.4 945.264 394.06 944.304 393.38C943.344 392.7 942.777 391.773 942.604 390.6H944.404C944.604 391.267 945.017 391.8 945.644 392.2C946.271 392.613 947.024 392.82 947.904 392.82C948.904 392.82 949.717 392.507 950.344 391.88C950.984 391.253 951.304 390.373 951.304 389.24V386.94C950.944 387.58 950.411 388.113 949.704 388.54C948.997 388.967 948.171 389.18 947.224 389.18C946.251 389.18 945.364 388.94 944.564 388.46C943.777 387.98 943.157 387.307 942.704 386.44C942.251 385.573 942.024 384.587 942.024 383.48C942.024 382.36 942.251 381.38 942.704 380.54C943.157 379.687 943.777 379.027 944.564 378.56C945.364 378.093 946.251 377.86 947.224 377.86ZM951.304 383.5C951.304 382.673 951.137 381.953 950.804 381.34C950.471 380.727 950.017 380.26 949.444 379.94C948.884 379.607 948.264 379.44 947.584 379.44C946.904 379.44 946.284 379.6 945.724 379.92C945.164 380.24 944.717 380.707 944.384 381.32C944.051 381.933 943.884 382.653 943.884 383.48C943.884 384.32 944.051 385.053 944.384 385.68C944.717 386.293 945.164 386.767 945.724 387.1C946.284 387.42 946.904 387.58 947.584 387.58C948.264 387.58 948.884 387.42 949.444 387.1C950.017 386.767 950.471 386.293 950.804 385.68C951.137 385.053 951.304 384.327 951.304 383.5ZM958.04 379.82C958.36 379.193 958.813 378.707 959.4 378.36C960 378.013 960.726 377.84 961.58 377.84V379.72H961.1C959.06 379.72 958.04 380.827 958.04 383.04V389H956.22V378.04H958.04V379.82ZM973.681 383.1C973.681 383.447 973.661 383.813 973.621 384.2H964.861C964.927 385.28 965.294 386.127 965.961 386.74C966.641 387.34 967.461 387.64 968.421 387.64C969.207 387.64 969.861 387.46 970.381 387.1C970.914 386.727 971.287 386.233 971.501 385.62H973.461C973.167 386.673 972.581 387.533 971.701 388.2C970.821 388.853 969.727 389.18 968.421 389.18C967.381 389.18 966.447 388.947 965.621 388.48C964.807 388.013 964.167 387.353 963.701 386.5C963.234 385.633 963.001 384.633 963.001 383.5C963.001 382.367 963.227 381.373 963.681 380.52C964.134 379.667 964.767 379.013 965.581 378.56C966.407 378.093 967.354 377.86 968.421 377.86C969.461 377.86 970.381 378.087 971.181 378.54C971.981 378.993 972.594 379.62 973.021 380.42C973.461 381.207 973.681 382.1 973.681 383.1ZM971.801 382.72C971.801 382.027 971.647 381.433 971.341 380.94C971.034 380.433 970.614 380.053 970.081 379.8C969.561 379.533 968.981 379.4 968.341 379.4C967.421 379.4 966.634 379.693 965.981 380.28C965.341 380.867 964.974 381.68 964.881 382.72H971.801ZM986.083 383.1C986.083 383.447 986.063 383.813 986.023 384.2H977.263C977.33 385.28 977.696 386.127 978.363 386.74C979.043 387.34 979.863 387.64 980.823 387.64C981.61 387.64 982.263 387.46 982.783 387.1C983.316 386.727 983.69 386.233 983.903 385.62H985.863C985.57 386.673 984.983 387.533 984.103 388.2C983.223 388.853 982.13 389.18 980.823 389.18C979.783 389.18 978.85 388.947 978.023 388.48C977.21 388.013 976.57 387.353 976.103 386.5C975.636 385.633 975.403 384.633 975.403 383.5C975.403 382.367 975.63 381.373 976.083 380.52C976.536 379.667 977.17 379.013 977.983 378.56C978.81 378.093 979.756 377.86 980.823 377.86C981.863 377.86 982.783 378.087 983.583 378.54C984.383 378.993 984.996 379.62 985.423 380.42C985.863 381.207 986.083 382.1 986.083 383.1ZM984.203 382.72C984.203 382.027 984.05 381.433 983.743 380.94C983.436 380.433 983.016 380.053 982.483 379.8C981.963 379.533 981.383 379.4 980.743 379.4C979.823 379.4 979.036 379.693 978.383 380.28C977.743 380.867 977.376 381.68 977.283 382.72H984.203ZM993.825 377.84C995.159 377.84 996.239 378.247 997.065 379.06C997.892 379.86 998.305 381.02 998.305 382.54V389H996.505V382.8C996.505 381.707 996.232 380.873 995.685 380.3C995.139 379.713 994.392 379.42 993.445 379.42C992.485 379.42 991.719 379.72 991.145 380.32C990.585 380.92 990.305 381.793 990.305 382.94V389H988.485V378.04H990.305V379.6C990.665 379.04 991.152 378.607 991.765 378.3C992.392 377.993 993.079 377.84 993.825 377.84ZM1008.43 380.08C1008.8 379.427 1009.35 378.893 1010.07 378.48C1010.79 378.067 1011.61 377.86 1012.53 377.86C1013.52 377.86 1014.4 378.093 1015.19 378.56C1015.98 379.027 1016.6 379.687 1017.05 380.54C1017.5 381.38 1017.73 382.36 1017.73 383.48C1017.73 384.587 1017.5 385.573 1017.05 386.44C1016.6 387.307 1015.97 387.98 1015.17 388.46C1014.38 388.94 1013.5 389.18 1012.53 389.18C1011.58 389.18 1010.75 388.973 1010.03 388.56C1009.32 388.147 1008.79 387.62 1008.43 386.98V389H1006.61V374.2H1008.43V380.08ZM1015.87 383.48C1015.87 382.653 1015.7 381.933 1015.37 381.32C1015.04 380.707 1014.58 380.24 1014.01 379.92C1013.45 379.6 1012.83 379.44 1012.15 379.44C1011.48 379.44 1010.86 379.607 1010.29 379.94C1009.73 380.26 1009.28 380.733 1008.93 381.36C1008.6 381.973 1008.43 382.687 1008.43 383.5C1008.43 384.327 1008.6 385.053 1008.93 385.68C1009.28 386.293 1009.73 386.767 1010.29 387.1C1010.86 387.42 1011.48 387.58 1012.15 387.58C1012.83 387.58 1013.45 387.42 1014.01 387.1C1014.58 386.767 1015.04 386.293 1015.37 385.68C1015.7 385.053 1015.87 384.32 1015.87 383.48ZM1029.85 378.04V389H1028.03V387.38C1027.68 387.94 1027.19 388.38 1026.57 388.7C1025.95 389.007 1025.27 389.16 1024.53 389.16C1023.67 389.16 1022.91 388.987 1022.23 388.64C1021.55 388.28 1021.01 387.747 1020.61 387.04C1020.22 386.333 1020.03 385.473 1020.03 384.46V378.04H1021.83V384.22C1021.83 385.3 1022.1 386.133 1022.65 386.72C1023.19 387.293 1023.94 387.58 1024.89 387.58C1025.86 387.58 1026.63 387.28 1027.19 386.68C1027.75 386.08 1028.03 385.207 1028.03 384.06V378.04H1029.85ZM1035.14 379.54V386C1035.14 386.533 1035.25 386.913 1035.48 387.14C1035.71 387.353 1036.1 387.46 1036.66 387.46H1038V389H1036.36C1035.35 389 1034.59 388.767 1034.08 388.3C1033.57 387.833 1033.32 387.067 1033.32 386V379.54H1031.9V378.04H1033.32V375.28H1035.14V378.04H1038V379.54H1035.14ZM1042.42 379.54V386C1042.42 386.533 1042.54 386.913 1042.76 387.14C1042.99 387.353 1043.38 387.46 1043.94 387.46H1045.28V389H1043.64C1042.63 389 1041.87 388.767 1041.36 388.3C1040.86 387.833 1040.6 387.067 1040.6 386V379.54H1039.18V378.04H1040.6V375.28H1042.42V378.04H1045.28V379.54H1042.42ZM1052.27 389.18C1051.24 389.18 1050.31 388.947 1049.47 388.48C1048.64 388.013 1047.99 387.353 1047.51 386.5C1047.04 385.633 1046.81 384.633 1046.81 383.5C1046.81 382.38 1047.05 381.393 1047.53 380.54C1048.02 379.673 1048.69 379.013 1049.53 378.56C1050.37 378.093 1051.31 377.86 1052.35 377.86C1053.39 377.86 1054.33 378.093 1055.17 378.56C1056.01 379.013 1056.67 379.667 1057.15 380.52C1057.64 381.373 1057.89 382.367 1057.89 383.5C1057.89 384.633 1057.64 385.633 1057.13 386.5C1056.64 387.353 1055.96 388.013 1055.11 388.48C1054.26 388.947 1053.31 389.18 1052.27 389.18ZM1052.27 387.58C1052.92 387.58 1053.54 387.427 1054.11 387.12C1054.68 386.813 1055.14 386.353 1055.49 385.74C1055.85 385.127 1056.03 384.38 1056.03 383.5C1056.03 382.62 1055.86 381.873 1055.51 381.26C1055.16 380.647 1054.71 380.193 1054.15 379.9C1053.59 379.593 1052.98 379.44 1052.33 379.44C1051.66 379.44 1051.05 379.593 1050.49 379.9C1049.94 380.193 1049.5 380.647 1049.17 381.26C1048.84 381.873 1048.67 382.62 1048.67 383.5C1048.67 384.393 1048.83 385.147 1049.15 385.76C1049.48 386.373 1049.92 386.833 1050.47 387.14C1051.02 387.433 1051.62 387.58 1052.27 387.58ZM1065.62 377.84C1066.96 377.84 1068.04 378.247 1068.86 379.06C1069.69 379.86 1070.1 381.02 1070.1 382.54V389H1068.3V382.8C1068.3 381.707 1068.03 380.873 1067.48 380.3C1066.94 379.713 1066.19 379.42 1065.24 379.42C1064.28 379.42 1063.52 379.72 1062.94 380.32C1062.38 380.92 1062.1 381.793 1062.1 382.94V389H1060.28V378.04H1062.1V379.6C1062.46 379.04 1062.95 378.607 1063.56 378.3C1064.19 377.993 1064.88 377.84 1065.62 377.84ZM1083.19 389.18C1082.16 389.18 1081.23 388.947 1080.39 388.48C1079.56 388.013 1078.91 387.353 1078.43 386.5C1077.96 385.633 1077.73 384.633 1077.73 383.5C1077.73 382.38 1077.97 381.393 1078.45 380.54C1078.94 379.673 1079.61 379.013 1080.45 378.56C1081.29 378.093 1082.23 377.86 1083.27 377.86C1084.31 377.86 1085.25 378.093 1086.09 378.56C1086.93 379.013 1087.59 379.667 1088.07 380.52C1088.56 381.373 1088.81 382.367 1088.81 383.5C1088.81 384.633 1088.55 385.633 1088.05 386.5C1087.55 387.353 1086.88 388.013 1086.03 388.48C1085.17 388.947 1084.23 389.18 1083.19 389.18ZM1083.19 387.58C1083.84 387.58 1084.45 387.427 1085.03 387.12C1085.6 386.813 1086.06 386.353 1086.41 385.74C1086.77 385.127 1086.95 384.38 1086.95 383.5C1086.95 382.62 1086.77 381.873 1086.43 381.26C1086.08 380.647 1085.63 380.193 1085.07 379.9C1084.51 379.593 1083.9 379.44 1083.25 379.44C1082.58 379.44 1081.97 379.593 1081.41 379.9C1080.86 380.193 1080.42 380.647 1080.09 381.26C1079.75 381.873 1079.59 382.62 1079.59 383.5C1079.59 384.393 1079.75 385.147 1080.07 385.76C1080.4 386.373 1080.84 386.833 1081.39 387.14C1081.93 387.433 1082.53 387.58 1083.19 387.58ZM1096.54 377.84C1097.87 377.84 1098.95 378.247 1099.78 379.06C1100.61 379.86 1101.02 381.02 1101.02 382.54V389H1099.22V382.8C1099.22 381.707 1098.95 380.873 1098.4 380.3C1097.85 379.713 1097.11 379.42 1096.16 379.42C1095.2 379.42 1094.43 379.72 1093.86 380.32C1093.3 380.92 1093.02 381.793 1093.02 382.94V389H1091.2V378.04H1093.02V379.6C1093.38 379.04 1093.87 378.607 1094.48 378.3C1095.11 377.993 1095.79 377.84 1096.54 377.84ZM1111.55 379.54V386C1111.55 386.533 1111.66 386.913 1111.89 387.14C1112.11 387.353 1112.51 387.46 1113.07 387.46H1114.41V389H1112.77C1111.75 389 1110.99 388.767 1110.49 388.3C1109.98 387.833 1109.73 387.067 1109.73 386V379.54H1108.31V378.04H1109.73V375.28H1111.55V378.04H1114.41V379.54H1111.55ZM1121.39 389.18C1120.36 389.18 1119.43 388.947 1118.59 388.48C1117.76 388.013 1117.11 387.353 1116.63 386.5C1116.16 385.633 1115.93 384.633 1115.93 383.5C1115.93 382.38 1116.17 381.393 1116.65 380.54C1117.14 379.673 1117.81 379.013 1118.65 378.56C1119.49 378.093 1120.43 377.86 1121.47 377.86C1122.51 377.86 1123.45 378.093 1124.29 378.56C1125.13 379.013 1125.79 379.667 1126.27 380.52C1126.76 381.373 1127.01 382.367 1127.01 383.5C1127.01 384.633 1126.76 385.633 1126.25 386.5C1125.76 387.353 1125.08 388.013 1124.23 388.48C1123.38 388.947 1122.43 389.18 1121.39 389.18ZM1121.39 387.58C1122.04 387.58 1122.66 387.427 1123.23 387.12C1123.8 386.813 1124.26 386.353 1124.61 385.74C1124.97 385.127 1125.15 384.38 1125.15 383.5C1125.15 382.62 1124.98 381.873 1124.63 381.26C1124.28 380.647 1123.83 380.193 1123.27 379.9C1122.71 379.593 1122.1 379.44 1121.45 379.44C1120.78 379.44 1120.17 379.593 1119.61 379.9C1119.06 380.193 1118.62 380.647 1118.29 381.26C1117.96 381.873 1117.79 382.62 1117.79 383.5C1117.79 384.393 1117.95 385.147 1118.27 385.76C1118.6 386.373 1119.04 386.833 1119.59 387.14C1120.14 387.433 1120.74 387.58 1121.39 387.58ZM1131.22 380.06C1131.58 379.433 1132.12 378.913 1132.82 378.5C1133.54 378.073 1134.38 377.86 1135.32 377.86C1136.3 377.86 1137.18 378.093 1137.96 378.56C1138.76 379.027 1139.39 379.687 1139.84 380.54C1140.3 381.38 1140.52 382.36 1140.52 383.48C1140.52 384.587 1140.3 385.573 1139.84 386.44C1139.39 387.307 1138.76 387.98 1137.96 388.46C1137.18 388.94 1136.3 389.18 1135.32 389.18C1134.39 389.18 1133.56 388.973 1132.84 388.56C1132.14 388.133 1131.6 387.607 1131.22 386.98V394.2H1129.4V378.04H1131.22V380.06ZM1138.66 383.48C1138.66 382.653 1138.5 381.933 1138.16 381.32C1137.83 380.707 1137.38 380.24 1136.8 379.92C1136.24 379.6 1135.62 379.44 1134.94 379.44C1134.28 379.44 1133.66 379.607 1133.08 379.94C1132.52 380.26 1132.07 380.733 1131.72 381.36C1131.39 381.973 1131.22 382.687 1131.22 383.5C1131.22 384.327 1131.39 385.053 1131.72 385.68C1132.07 386.293 1132.52 386.767 1133.08 387.1C1133.66 387.42 1134.28 387.58 1134.94 387.58C1135.62 387.58 1136.24 387.42 1136.8 387.1C1137.38 386.767 1137.83 386.293 1138.16 385.68C1138.5 385.053 1138.66 384.32 1138.66 383.48ZM1146.48 374.88C1147.8 374.88 1148.87 375.253 1149.68 376C1150.49 376.747 1150.9 377.747 1150.9 379C1150.9 380.4 1150.47 381.44 1149.6 382.12C1148.73 382.787 1147.56 383.12 1146.08 383.12L1146.02 385.02H1144.44L1144.36 381.86H1144.94C1146.26 381.86 1147.29 381.66 1148.04 381.26C1148.79 380.86 1149.16 380.107 1149.16 379C1149.16 378.2 1148.92 377.567 1148.44 377.1C1147.96 376.633 1147.31 376.4 1146.5 376.4C1145.67 376.4 1145.02 376.627 1144.54 377.08C1144.07 377.52 1143.84 378.127 1143.84 378.9H1142.12C1142.12 378.1 1142.3 377.4 1142.66 376.8C1143.02 376.187 1143.53 375.713 1144.18 375.38C1144.85 375.047 1145.61 374.88 1146.48 374.88ZM1145.22 389.12C1144.87 389.12 1144.58 389 1144.34 388.76C1144.1 388.52 1143.98 388.227 1143.98 387.88C1143.98 387.533 1144.1 387.24 1144.34 387C1144.58 386.76 1144.87 386.64 1145.22 386.64C1145.55 386.64 1145.83 386.76 1146.06 387C1146.3 387.24 1146.42 387.533 1146.42 387.88C1146.42 388.227 1146.3 388.52 1146.06 388.76C1145.83 389 1145.55 389.12 1145.22 389.12Z" fill="black"/>
<path d="M676.426 174.364V187H673.348V179.422L670.522 187H668.038L665.194 179.404V187H662.116V174.364H665.752L669.298 183.112L672.808 174.364H676.426ZM683.211 187.144C682.227 187.144 681.339 186.934 680.547 186.514C679.767 186.094 679.149 185.494 678.693 184.714C678.249 183.934 678.027 183.022 678.027 181.978C678.027 180.946 678.255 180.04 678.711 179.26C679.167 178.468 679.791 177.862 680.583 177.442C681.375 177.022 682.263 176.812 683.247 176.812C684.231 176.812 685.119 177.022 685.911 177.442C686.703 177.862 687.327 178.468 687.783 179.26C688.239 180.04 688.467 180.946 688.467 181.978C688.467 183.01 688.233 183.922 687.765 184.714C687.309 185.494 686.679 186.094 685.875 186.514C685.083 186.934 684.195 187.144 683.211 187.144ZM683.211 184.48C683.799 184.48 684.297 184.264 684.705 183.832C685.125 183.4 685.335 182.782 685.335 181.978C685.335 181.174 685.131 180.556 684.723 180.124C684.327 179.692 683.835 179.476 683.247 179.476C682.647 179.476 682.149 179.692 681.753 180.124C681.357 180.544 681.159 181.162 681.159 181.978C681.159 182.782 681.351 183.4 681.735 183.832C682.131 184.264 682.623 184.48 683.211 184.48ZM696.22 176.848C697.396 176.848 698.332 177.232 699.028 178C699.736 178.756 700.09 179.8 700.09 181.132V187H697.03V181.546C697.03 180.874 696.856 180.352 696.508 179.98C696.16 179.608 695.692 179.422 695.104 179.422C694.516 179.422 694.048 179.608 693.7 179.98C693.352 180.352 693.178 180.874 693.178 181.546V187H690.1V176.956H693.178V178.288C693.49 177.844 693.91 177.496 694.438 177.244C694.966 176.98 695.56 176.848 696.22 176.848ZM701.617 181.96C701.617 180.928 701.809 180.022 702.193 179.242C702.589 178.462 703.123 177.862 703.795 177.442C704.467 177.022 705.217 176.812 706.045 176.812C706.705 176.812 707.305 176.95 707.845 177.226C708.397 177.502 708.829 177.874 709.141 178.342V173.68H712.219V187H709.141V185.56C708.853 186.04 708.439 186.424 707.899 186.712C707.371 187 706.753 187.144 706.045 187.144C705.217 187.144 704.467 186.934 703.795 186.514C703.123 186.082 702.589 185.476 702.193 184.696C701.809 183.904 701.617 182.992 701.617 181.96ZM709.141 181.978C709.141 181.21 708.925 180.604 708.493 180.16C708.073 179.716 707.557 179.494 706.945 179.494C706.333 179.494 705.811 179.716 705.379 180.16C704.959 180.592 704.749 181.192 704.749 181.96C704.749 182.728 704.959 183.34 705.379 183.796C705.811 184.24 706.333 184.462 706.945 184.462C707.557 184.462 708.073 184.24 708.493 183.796C708.925 183.352 709.141 182.746 709.141 181.978ZM713.834 181.96C713.834 180.928 714.026 180.022 714.41 179.242C714.806 178.462 715.34 177.862 716.012 177.442C716.684 177.022 717.434 176.812 718.262 176.812C718.97 176.812 719.588 176.956 720.116 177.244C720.656 177.532 721.07 177.91 721.358 178.378V176.956H724.436V187H721.358V185.578C721.058 186.046 720.638 186.424 720.098 186.712C719.57 187 718.952 187.144 718.244 187.144C717.428 187.144 716.684 186.934 716.012 186.514C715.34 186.082 714.806 185.476 714.41 184.696C714.026 183.904 713.834 182.992 713.834 181.96ZM721.358 181.978C721.358 181.21 721.142 180.604 720.71 180.16C720.29 179.716 719.774 179.494 719.162 179.494C718.55 179.494 718.028 179.716 717.596 180.16C717.176 180.592 716.966 181.192 716.966 181.96C716.966 182.728 717.176 183.34 717.596 183.796C718.028 184.24 718.55 184.462 719.162 184.462C719.774 184.462 720.29 184.24 720.71 183.796C721.142 183.352 721.358 182.746 721.358 181.978ZM736.923 176.956L730.623 191.77H727.311L729.615 186.658L725.529 176.956H728.967L731.289 183.238L733.593 176.956H736.923Z" fill="black"/>
<path d="M673.42 327H670.342L665.194 319.206V327H662.116V314.364H665.194L670.342 322.194V314.364H673.42V327ZM680.223 327.144C679.239 327.144 678.351 326.934 677.559 326.514C676.779 326.094 676.161 325.494 675.705 324.714C675.261 323.934 675.039 323.022 675.039 321.978C675.039 320.946 675.267 320.04 675.723 319.26C676.179 318.468 676.803 317.862 677.595 317.442C678.387 317.022 679.275 316.812 680.259 316.812C681.243 316.812 682.131 317.022 682.923 317.442C683.715 317.862 684.339 318.468 684.795 319.26C685.251 320.04 685.479 320.946 685.479 321.978C685.479 323.01 685.245 323.922 684.777 324.714C684.321 325.494 683.691 326.094 682.887 326.514C682.095 326.934 681.207 327.144 680.223 327.144ZM680.223 324.48C680.811 324.48 681.309 324.264 681.717 323.832C682.137 323.4 682.347 322.782 682.347 321.978C682.347 321.174 682.143 320.556 681.735 320.124C681.339 319.692 680.847 319.476 680.259 319.476C679.659 319.476 679.161 319.692 678.765 320.124C678.369 320.544 678.171 321.162 678.171 321.978C678.171 322.782 678.363 323.4 678.747 323.832C679.143 324.264 679.635 324.48 680.223 324.48ZM692.71 324.39V327H691.144C690.028 327 689.158 326.73 688.534 326.19C687.91 325.638 687.598 324.744 687.598 323.508V319.512H686.374V316.956H687.598V314.508H690.676V316.956H692.692V319.512H690.676V323.544C690.676 323.844 690.748 324.06 690.892 324.192C691.036 324.324 691.276 324.39 691.612 324.39H692.71ZM712.549 314.364V327H709.471V319.422L706.645 327H704.161L701.317 319.404V327H698.239V314.364H701.875L705.421 323.112L708.931 314.364H712.549ZM719.334 327.144C718.35 327.144 717.462 326.934 716.67 326.514C715.89 326.094 715.272 325.494 714.816 324.714C714.372 323.934 714.15 323.022 714.15 321.978C714.15 320.946 714.378 320.04 714.834 319.26C715.29 318.468 715.914 317.862 716.706 317.442C717.498 317.022 718.386 316.812 719.37 316.812C720.354 316.812 721.242 317.022 722.034 317.442C722.826 317.862 723.45 318.468 723.906 319.26C724.362 320.04 724.59 320.946 724.59 321.978C724.59 323.01 724.356 323.922 723.888 324.714C723.432 325.494 722.802 326.094 721.998 326.514C721.206 326.934 720.318 327.144 719.334 327.144ZM719.334 324.48C719.922 324.48 720.42 324.264 720.828 323.832C721.248 323.4 721.458 322.782 721.458 321.978C721.458 321.174 721.254 320.556 720.846 320.124C720.45 319.692 719.958 319.476 719.37 319.476C718.77 319.476 718.272 319.692 717.876 320.124C717.48 320.544 717.282 321.162 717.282 321.978C717.282 322.782 717.474 323.4 717.858 323.832C718.254 324.264 718.746 324.48 719.334 324.48ZM732.343 316.848C733.519 316.848 734.455 317.232 735.151 318C735.859 318.756 736.213 319.8 736.213 321.132V327H733.153V321.546C733.153 320.874 732.979 320.352 732.631 319.98C732.283 319.608 731.815 319.422 731.227 319.422C730.639 319.422 730.171 319.608 729.823 319.98C729.475 320.352 729.301 320.874 729.301 321.546V327H726.223V316.956H729.301V318.288C729.613 317.844 730.033 317.496 730.561 317.244C731.089 316.98 731.683 316.848 732.343 316.848ZM737.74 321.96C737.74 320.928 737.932 320.022 738.316 319.242C738.712 318.462 739.246 317.862 739.918 317.442C740.59 317.022 741.34 316.812 742.168 316.812C742.828 316.812 743.428 316.95 743.968 317.226C744.52 317.502 744.952 317.874 745.264 318.342V313.68H748.342V327H745.264V325.56C744.976 326.04 744.562 326.424 744.022 326.712C743.494 327 742.876 327.144 742.168 327.144C741.34 327.144 740.59 326.934 739.918 326.514C739.246 326.082 738.712 325.476 738.316 324.696C737.932 323.904 737.74 322.992 737.74 321.96ZM745.264 321.978C745.264 321.21 745.048 320.604 744.616 320.16C744.196 319.716 743.68 319.494 743.068 319.494C742.456 319.494 741.934 319.716 741.502 320.16C741.082 320.592 740.872 321.192 740.872 321.96C740.872 322.728 741.082 323.34 741.502 323.796C741.934 324.24 742.456 324.462 743.068 324.462C743.68 324.462 744.196 324.24 744.616 323.796C745.048 323.352 745.264 322.746 745.264 321.978ZM749.957 321.96C749.957 320.928 750.149 320.022 750.533 319.242C750.929 318.462 751.463 317.862 752.135 317.442C752.807 317.022 753.557 316.812 754.385 316.812C755.093 316.812 755.711 316.956 756.239 317.244C756.779 317.532 757.193 317.91 757.481 318.378V316.956H760.559V327H757.481V325.578C757.181 326.046 756.761 326.424 756.221 326.712C755.693 327 755.075 327.144 754.367 327.144C753.551 327.144 752.807 326.934 752.135 326.514C751.463 326.082 750.929 325.476 750.533 324.696C750.149 323.904 749.957 322.992 749.957 321.96ZM757.481 321.978C757.481 321.21 757.265 320.604 756.833 320.16C756.413 319.716 755.897 319.494 755.285 319.494C754.673 319.494 754.151 319.716 753.719 320.16C753.299 320.592 753.089 321.192 753.089 321.96C753.089 322.728 753.299 323.34 753.719 323.796C754.151 324.24 754.673 324.462 755.285 324.462C755.897 324.462 756.413 324.24 756.833 323.796C757.265 323.352 757.481 322.746 757.481 321.978ZM773.046 316.956L766.746 331.77H763.434L765.738 326.658L761.652 316.956H765.09L767.412 323.238L769.716 316.956H773.046Z" fill="black"/>
<path d="M1152.08 206.055C1151.69 206.445 1151.06 206.445 1150.67 206.055L1144.31 199.691C1143.92 199.3 1143.92 198.667 1144.31 198.277C1144.7 197.886 1145.33 197.886 1145.72 198.277L1151.38 203.934L1157.03 198.277C1157.42 197.886 1158.06 197.886 1158.45 198.277C1158.84 198.667 1158.84 199.3 1158.45 199.691L1152.08 206.055ZM1152.38 146L1152.38 205.348L1150.38 205.348L1150.38 146L1152.38 146Z" fill="black"/>
<path d="M1153 146H650V211" stroke="black" stroke-width="2"/>
<path d="M1152.08 295.945C1151.69 295.555 1151.06 295.555 1150.67 295.945L1144.31 302.309C1143.92 302.7 1143.92 303.333 1144.31 303.723C1144.7 304.114 1145.33 304.114 1145.72 303.723L1151.38 298.066L1157.03 303.723C1157.42 304.114 1158.06 304.114 1158.45 303.723C1158.84 303.333 1158.84 302.7 1158.45 302.309L1152.08 295.945ZM1152.38 356L1152.38 296.652L1150.38 296.652L1150.38 356L1152.38 356Z" fill="black"/>
<path d="M1153 356H650V291" stroke="black" stroke-width="2"/>
<defs>
<filter id="filter0_d" x="538" y="202" width="224" height="104" filterUnits="userSpaceOnUse" color-interpolation-filters="sRGB">
<feFlood flood-opacity="0" result="BackgroundImageFix"/>
<feColorMatrix in="SourceAlpha" type="matrix" values="0 0 0 0 0 0 0 0 0 0 0 0 0 0 0 0 0 0 127 0"/>
<feOffset dy="3"/>
<feGaussianBlur stdDeviation="6"/>
<feColorMatrix type="matrix" values="0 0 0 0 0.0823529 0 0 0 0 0.0823529 0 0 0 0 0.286275 0 0 0 0.1 0"/>
<feBlend mode="normal" in2="BackgroundImageFix" result="effect1_dropShadow"/>
<feBlend mode="normal" in="SourceGraphic" in2="effect1_dropShadow" result="shape"/>
</filter>
<filter id="filter1_d" x="1039" y="202" width="224" height="104" filterUnits="userSpaceOnUse" color-interpolation-filters="sRGB">
<feFlood flood-opacity="0" result="BackgroundImageFix"/>
<feColorMatrix in="SourceAlpha" type="matrix" values="0 0 0 0 0 0 0 0 0 0 0 0 0 0 0 0 0 0 127 0"/>
<feOffset dy="3"/>
<feGaussianBlur stdDeviation="6"/>
<feColorMatrix type="matrix" values="0 0 0 0 0.0823529 0 0 0 0 0.0823529 0 0 0 0 0.286275 0 0 0 0.1 0"/>
<feBlend mode="normal" in2="BackgroundImageFix" result="effect1_dropShadow"/>
<feBlend mode="normal" in="SourceGraphic" in2="effect1_dropShadow" result="shape"/>
</filter>
</defs>
</svg>
