<svg width="19" height="19" viewBox="0 0 19 19" fill="none" xmlns="http://www.w3.org/2000/svg">
<path d="M9.5 1.22581C14.044 1.22581 17.7742 4.9061 17.7742 9.5C17.7742 14.0696 14.0734 17.7742 9.5 17.7742C4.93219 17.7742 1.22581 14.0752 1.22581 9.5C1.22581 4.93376 4.92629 1.22581 9.5 1.22581ZM9.5 0C4.25366 0 0 4.2552 0 9.5C0 14.7479 4.25366 19 9.5 19C14.7463 19 19 14.7479 19 9.5C19 4.2552 14.7463 0 9.5 0ZM9.05986 4.59677H9.9401C10.2015 4.59677 10.4103 4.81443 10.3994 5.0756L10.1313 11.5111C10.121 11.7573 9.91842 11.9516 9.67196 11.9516H9.328C9.08158 11.9516 8.87898 11.7573 8.86871 11.5111L8.60056 5.0756C8.58972 4.81443 8.79849 4.59677 9.05986 4.59677ZM9.5 12.7177C8.90763 12.7177 8.42742 13.198 8.42742 13.7903C8.42742 14.3827 8.90763 14.8629 9.5 14.8629C10.0924 14.8629 10.5726 14.3827 10.5726 13.7903C10.5726 13.198 10.0924 12.7177 9.5 12.7177Z" fill="#F0253D"/>
</svg>
