<svg width="116" height="100" viewBox="0 0 116 100" fill="none" xmlns="http://www.w3.org/2000/svg">
<path d="M0 0H116V100H0V0Z" fill="#FAFBFD"/>
<path d="M17.5621 76.688C17.5621 76.016 17.6981 75.428 17.9701 74.924C18.2421 74.412 18.6141 74.016 19.0861 73.736C19.5661 73.456 20.0981 73.316 20.6821 73.316C21.2581 73.316 21.7581 73.44 22.1821 73.688C22.6061 73.936 22.9221 74.248 23.1301 74.624V73.424H24.2341V80H23.1301V78.776C22.9141 79.16 22.5901 79.48 22.1581 79.736C21.7341 79.984 21.2381 80.108 20.6701 80.108C20.0861 80.108 19.5581 79.964 19.0861 79.676C18.6141 79.388 18.2421 78.984 17.9701 78.464C17.6981 77.944 17.5621 77.352 17.5621 76.688ZM23.1301 76.7C23.1301 76.204 23.0301 75.772 22.8301 75.404C22.6301 75.036 22.3581 74.756 22.0141 74.564C21.6781 74.364 21.3061 74.264 20.8981 74.264C20.4901 74.264 20.1181 74.36 19.7821 74.552C19.4461 74.744 19.1781 75.024 18.9781 75.392C18.7781 75.76 18.6781 76.192 18.6781 76.688C18.6781 77.192 18.7781 77.632 18.9781 78.008C19.1781 78.376 19.4461 78.66 19.7821 78.86C20.1181 79.052 20.4901 79.148 20.8981 79.148C21.3061 79.148 21.6781 79.052 22.0141 78.86C22.3581 78.66 22.6301 78.376 22.8301 78.008C23.0301 77.632 23.1301 77.196 23.1301 76.7ZM28.6475 80.108C28.1435 80.108 27.6915 80.024 27.2915 79.856C26.8915 79.68 26.5755 79.44 26.3435 79.136C26.1115 78.824 25.9835 78.468 25.9595 78.068H27.0875C27.1195 78.396 27.2715 78.664 27.5435 78.872C27.8235 79.08 28.1875 79.184 28.6355 79.184C29.0515 79.184 29.3795 79.092 29.6195 78.908C29.8595 78.724 29.9795 78.492 29.9795 78.212C29.9795 77.924 29.8515 77.712 29.5955 77.576C29.3395 77.432 28.9435 77.292 28.4075 77.156C27.9195 77.028 27.5195 76.9 27.2075 76.772C26.9035 76.636 26.6395 76.44 26.4155 76.184C26.1995 75.92 26.0915 75.576 26.0915 75.152C26.0915 74.816 26.1915 74.508 26.3915 74.228C26.5915 73.948 26.8755 73.728 27.2435 73.568C27.6115 73.4 28.0315 73.316 28.5035 73.316C29.2315 73.316 29.8195 73.5 30.2675 73.868C30.7155 74.236 30.9555 74.74 30.9875 75.38H29.8955C29.8715 75.036 29.7315 74.76 29.4755 74.552C29.2275 74.344 28.8915 74.24 28.4675 74.24C28.0755 74.24 27.7635 74.324 27.5315 74.492C27.2995 74.66 27.1835 74.88 27.1835 75.152C27.1835 75.368 27.2515 75.548 27.3875 75.692C27.5315 75.828 27.7075 75.94 27.9155 76.028C28.1315 76.108 28.4275 76.2 28.8035 76.304C29.2755 76.432 29.6595 76.56 29.9555 76.688C30.2515 76.808 30.5035 76.992 30.7115 77.24C30.9275 77.488 31.0395 77.812 31.0475 78.212C31.0475 78.572 30.9475 78.896 30.7475 79.184C30.5475 79.472 30.2635 79.7 29.8955 79.868C29.5355 80.028 29.1195 80.108 28.6475 80.108ZM35.157 80.108C34.653 80.108 34.201 80.024 33.801 79.856C33.401 79.68 33.085 79.44 32.853 79.136C32.621 78.824 32.493 78.468 32.469 78.068H33.597C33.629 78.396 33.781 78.664 34.053 78.872C34.333 79.08 34.697 79.184 35.145 79.184C35.561 79.184 35.889 79.092 36.129 78.908C36.369 78.724 36.489 78.492 36.489 78.212C36.489 77.924 36.361 77.712 36.105 77.576C35.849 77.432 35.453 77.292 34.917 77.156C34.429 77.028 34.029 76.9 33.717 76.772C33.413 76.636 33.149 76.44 32.925 76.184C32.709 75.92 32.601 75.576 32.601 75.152C32.601 74.816 32.701 74.508 32.901 74.228C33.101 73.948 33.385 73.728 33.753 73.568C34.121 73.4 34.541 73.316 35.013 73.316C35.741 73.316 36.329 73.5 36.777 73.868C37.225 74.236 37.465 74.74 37.497 75.38H36.405C36.381 75.036 36.241 74.76 35.985 74.552C35.737 74.344 35.401 74.24 34.977 74.24C34.585 74.24 34.273 74.324 34.041 74.492C33.809 74.66 33.693 74.88 33.693 75.152C33.693 75.368 33.761 75.548 33.897 75.692C34.041 75.828 34.217 75.94 34.425 76.028C34.641 76.108 34.937 76.2 35.313 76.304C35.785 76.432 36.169 76.56 36.465 76.688C36.761 76.808 37.013 76.992 37.221 77.24C37.437 77.488 37.549 77.812 37.557 78.212C37.557 78.572 37.457 78.896 37.257 79.184C37.057 79.472 36.773 79.7 36.405 79.868C36.045 80.028 35.629 80.108 35.157 80.108ZM39.9025 72.356C39.6945 72.356 39.5185 72.284 39.3745 72.14C39.2305 71.996 39.1585 71.82 39.1585 71.612C39.1585 71.404 39.2305 71.228 39.3745 71.084C39.5185 70.94 39.6945 70.868 39.9025 70.868C40.1025 70.868 40.2705 70.94 40.4065 71.084C40.5505 71.228 40.6225 71.404 40.6225 71.612C40.6225 71.82 40.5505 71.996 40.4065 72.14C40.2705 72.284 40.1025 72.356 39.9025 72.356ZM40.4305 73.424V80H39.3385V73.424H40.4305ZM45.2437 73.316C45.8117 73.316 46.3077 73.44 46.7317 73.688C47.1637 73.936 47.4837 74.248 47.6917 74.624V73.424H48.7957V80.144C48.7957 80.744 48.6677 81.276 48.4117 81.74C48.1557 82.212 47.7877 82.58 47.3077 82.844C46.8357 83.108 46.2837 83.24 45.6517 83.24C44.7877 83.24 44.0677 83.036 43.4917 82.628C42.9157 82.22 42.5757 81.664 42.4717 80.96H43.5517C43.6717 81.36 43.9197 81.68 44.2957 81.92C44.6717 82.168 45.1237 82.292 45.6517 82.292C46.2517 82.292 46.7397 82.104 47.1157 81.728C47.4997 81.352 47.6917 80.824 47.6917 80.144V78.764C47.4757 79.148 47.1557 79.468 46.7317 79.724C46.3077 79.98 45.8117 80.108 45.2437 80.108C44.6597 80.108 44.1277 79.964 43.6477 79.676C43.1757 79.388 42.8037 78.984 42.5317 78.464C42.2597 77.944 42.1237 77.352 42.1237 76.688C42.1237 76.016 42.2597 75.428 42.5317 74.924C42.8037 74.412 43.1757 74.016 43.6477 73.736C44.1277 73.456 44.6597 73.316 45.2437 73.316ZM47.6917 76.7C47.6917 76.204 47.5917 75.772 47.3917 75.404C47.1917 75.036 46.9197 74.756 46.5757 74.564C46.2397 74.364 45.8677 74.264 45.4597 74.264C45.0517 74.264 44.6797 74.36 44.3437 74.552C44.0077 74.744 43.7397 75.024 43.5397 75.392C43.3397 75.76 43.2397 76.192 43.2397 76.688C43.2397 77.192 43.3397 77.632 43.5397 78.008C43.7397 78.376 44.0077 78.66 44.3437 78.86C44.6797 79.052 45.0517 79.148 45.4597 79.148C45.8677 79.148 46.2397 79.052 46.5757 78.86C46.9197 78.66 47.1917 78.376 47.3917 78.008C47.5917 77.632 47.6917 77.196 47.6917 76.7ZM54.085 73.304C54.885 73.304 55.533 73.548 56.029 74.036C56.525 74.516 56.773 75.212 56.773 76.124V80H55.693V76.28C55.693 75.624 55.529 75.124 55.201 74.78C54.873 74.428 54.425 74.252 53.857 74.252C53.281 74.252 52.821 74.432 52.477 74.792C52.141 75.152 51.973 75.676 51.973 76.364V80H50.881V73.424H51.973V74.36C52.189 74.024 52.481 73.764 52.849 73.58C53.225 73.396 53.637 73.304 54.085 73.304ZM66.7048 73.304C67.2168 73.304 67.6728 73.412 68.0728 73.628C68.4728 73.836 68.7888 74.152 69.0208 74.576C69.2528 75 69.3688 75.516 69.3688 76.124V80H68.2888V76.28C68.2888 75.624 68.1248 75.124 67.7968 74.78C67.4768 74.428 67.0408 74.252 66.4888 74.252C65.9208 74.252 65.4688 74.436 65.1328 74.804C64.7968 75.164 64.6288 75.688 64.6288 76.376V80H63.5488V76.28C63.5488 75.624 63.3848 75.124 63.0568 74.78C62.7368 74.428 62.3008 74.252 61.7488 74.252C61.1808 74.252 60.7288 74.436 60.3928 74.804C60.0568 75.164 59.8888 75.688 59.8888 76.376V80H58.7968V73.424H59.8888V74.372C60.1048 74.028 60.3928 73.764 60.7528 73.58C61.1208 73.396 61.5248 73.304 61.9648 73.304C62.5168 73.304 63.0048 73.428 63.4288 73.676C63.8528 73.924 64.1688 74.288 64.3768 74.768C64.5608 74.304 64.8648 73.944 65.2888 73.688C65.7128 73.432 66.1848 73.304 66.7048 73.304ZM77.4001 76.46C77.4001 76.668 77.3881 76.888 77.3641 77.12H72.1081C72.1481 77.768 72.3681 78.276 72.7681 78.644C73.1761 79.004 73.6681 79.184 74.2441 79.184C74.7161 79.184 75.1081 79.076 75.4201 78.86C75.7401 78.636 75.9641 78.34 76.0921 77.972H77.2681C77.0921 78.604 76.7401 79.12 76.2121 79.52C75.6841 79.912 75.0281 80.108 74.2441 80.108C73.6201 80.108 73.0601 79.968 72.5641 79.688C72.0761 79.408 71.6921 79.012 71.4121 78.5C71.1321 77.98 70.9921 77.38 70.9921 76.7C70.9921 76.02 71.1281 75.424 71.4001 74.912C71.6721 74.4 72.0521 74.008 72.5401 73.736C73.0361 73.456 73.6041 73.316 74.2441 73.316C74.8681 73.316 75.4201 73.452 75.9001 73.724C76.3801 73.996 76.7481 74.372 77.0041 74.852C77.2681 75.324 77.4001 75.86 77.4001 76.46ZM76.2721 76.232C76.2721 75.816 76.1801 75.46 75.9961 75.164C75.8121 74.86 75.5601 74.632 75.2401 74.48C74.9281 74.32 74.5801 74.24 74.1961 74.24C73.6441 74.24 73.1721 74.416 72.7801 74.768C72.3961 75.12 72.1761 75.608 72.1201 76.232H76.2721ZM82.2855 73.304C83.0855 73.304 83.7335 73.548 84.2295 74.036C84.7255 74.516 84.9735 75.212 84.9735 76.124V80H83.8935V76.28C83.8935 75.624 83.7295 75.124 83.4015 74.78C83.0735 74.428 82.6255 74.252 82.0575 74.252C81.4815 74.252 81.0215 74.432 80.6775 74.792C80.3415 75.152 80.1735 75.676 80.1735 76.364V80H79.0815V73.424H80.1735V74.36C80.3895 74.024 80.6815 73.764 81.0495 73.58C81.4255 73.396 81.8375 73.304 82.2855 73.304ZM88.3293 74.324V78.2C88.3293 78.52 88.3973 78.748 88.5333 78.884C88.6693 79.012 88.9053 79.076 89.2413 79.076H90.0453V80H89.0613C88.4533 80 87.9973 79.86 87.6933 79.58C87.3893 79.3 87.2373 78.84 87.2373 78.2V74.324H86.3853V73.424H87.2373V71.768H88.3293V73.424H90.0453V74.324H88.3293ZM93.9364 80.108C93.4324 80.108 92.9804 80.024 92.5804 79.856C92.1804 79.68 91.8644 79.44 91.6324 79.136C91.4004 78.824 91.2724 78.468 91.2484 78.068H92.3764C92.4084 78.396 92.5604 78.664 92.8324 78.872C93.1124 79.08 93.4764 79.184 93.9244 79.184C94.3404 79.184 94.6684 79.092 94.9084 78.908C95.1484 78.724 95.2684 78.492 95.2684 78.212C95.2684 77.924 95.1404 77.712 94.8844 77.576C94.6284 77.432 94.2324 77.292 93.6964 77.156C93.2084 77.028 92.8084 76.9 92.4964 76.772C92.1924 76.636 91.9284 76.44 91.7044 76.184C91.4884 75.92 91.3804 75.576 91.3804 75.152C91.3804 74.816 91.4804 74.508 91.6804 74.228C91.8804 73.948 92.1644 73.728 92.5324 73.568C92.9004 73.4 93.3204 73.316 93.7924 73.316C94.5204 73.316 95.1084 73.5 95.5564 73.868C96.0044 74.236 96.2444 74.74 96.2764 75.38H95.1844C95.1604 75.036 95.0204 74.76 94.7644 74.552C94.5164 74.344 94.1804 74.24 93.7564 74.24C93.3644 74.24 93.0524 74.324 92.8204 74.492C92.5884 74.66 92.4724 74.88 92.4724 75.152C92.4724 75.368 92.5404 75.548 92.6764 75.692C92.8204 75.828 92.9964 75.94 93.2044 76.028C93.4204 76.108 93.7164 76.2 94.0924 76.304C94.5644 76.432 94.9484 76.56 95.2444 76.688C95.5404 76.808 95.7924 76.992 96.0004 77.24C96.2164 77.488 96.3284 77.812 96.3364 78.212C96.3364 78.572 96.2364 78.896 96.0364 79.184C95.8364 79.472 95.5524 79.7 95.1844 79.868C94.8244 80.028 94.4084 80.108 93.9364 80.108Z" fill="#302256"/>
<path fill-rule="evenodd" clip-rule="evenodd" d="M43 29C41.8954 29 41 29.8954 41 31V59C41 60.1046 41.8954 61 43 61H61C62.1046 61 63 60.1046 63 59V31C63 29.8954 62.1046 29 61 29H43ZM46 37.9412C46 37.1615 46.6321 36.5294 47.4118 36.5294H56.5882C57.3679 36.5294 58 37.1615 58 37.9412C58 38.7209 57.3679 39.3529 56.5882 39.3529H47.4118C46.6321 39.3529 46 38.7209 46 37.9412ZM47.4118 43.1176C46.6321 43.1176 46 43.7497 46 44.5294C46 45.3091 46.6321 45.9412 47.4118 45.9412H56.5882C57.3679 45.9412 58 45.3091 58 44.5294C58 43.7497 57.3679 43.1176 56.5882 43.1176H47.4118ZM46 51.1176C46 50.338 46.6321 49.7059 47.4118 49.7059H56.5882C57.3679 49.7059 58 50.338 58 51.1176C58 51.8973 57.3679 52.5294 56.5882 52.5294H47.4118C46.6321 52.5294 46 51.8973 46 51.1176Z" fill="#302256"/>
<path fill-rule="evenodd" clip-rule="evenodd" d="M43 31V59H61V31H43ZM44 37.9412C44 36.0569 45.5275 34.5294 47.4118 34.5294H56.5882C58.4725 34.5294 60 36.0569 60 37.9412C60 39.517 58.9316 40.8433 57.4797 41.2353C58.9316 41.6273 60 42.9536 60 44.5294C60 46.1052 58.9316 47.4316 57.4797 47.8235C58.9316 48.2155 60 49.5418 60 51.1176C60 53.0019 58.4725 54.5294 56.5882 54.5294H47.4118C45.5275 54.5294 44 53.0019 44 51.1176C44 49.5418 45.0684 48.2155 46.5203 47.8235C45.0684 47.4316 44 46.1052 44 44.5294C44 42.9536 45.0684 41.6273 46.5203 41.2353C45.0684 40.8433 44 39.517 44 37.9412ZM41 31C41 29.8954 41.8954 29 43 29H61C62.1046 29 63 29.8954 63 31V59C63 60.1046 62.1046 61 61 61H43C41.8954 61 41 60.1046 41 59V31ZM47.4118 36.5294C46.6321 36.5294 46 37.1615 46 37.9412C46 38.7209 46.6321 39.3529 47.4118 39.3529H56.5882C57.3679 39.3529 58 38.7209 58 37.9412C58 37.1615 57.3679 36.5294 56.5882 36.5294H47.4118ZM46 44.5294C46 43.7497 46.6321 43.1176 47.4118 43.1176H56.5882C57.3679 43.1176 58 43.7497 58 44.5294C58 45.3091 57.3679 45.9412 56.5882 45.9412H47.4118C46.6321 45.9412 46 45.3091 46 44.5294ZM47.4118 49.7059C46.6321 49.7059 46 50.338 46 51.1176C46 51.8973 46.6321 52.5294 47.4118 52.5294H56.5882C57.3679 52.5294 58 51.8973 58 51.1176C58 50.338 57.3679 49.7059 56.5882 49.7059H47.4118Z" fill="#302256"/>
<path d="M75 51.4689L75 36C75 34.8954 74.1046 34 73 34L69 34C67.8954 34 67 34.8954 67 36L67 51.4689C67 51.8169 67.0908 52.159 67.2635 52.4611L69.2635 55.9611C70.0313 57.3048 71.9687 57.3048 72.7365 55.9611L74.7365 52.4611C74.9092 52.159 75 51.8169 75 51.4689Z" fill="#302256"/>
<path fill-rule="evenodd" clip-rule="evenodd" d="M73 51.4689L73 36L69 36L69 51.4689L71 54.9689L73 51.4689ZM75 36L75 51.4689C75 51.8169 74.9092 52.159 74.7365 52.4611L72.7365 55.9611C71.9687 57.3048 70.0313 57.3048 69.2635 55.9611L67.2635 52.4611C67.0908 52.159 67 51.8169 67 51.4689L67 36C67 34.8954 67.8954 34 69 34L73 34C74.1046 34 75 34.8954 75 36Z" fill="#302256"/>
</svg>
