<svg width="116" height="100" viewBox="0 0 116 100" fill="none" xmlns="http://www.w3.org/2000/svg">
<path d="M0 0H116V100H0V0Z" fill="#302256"/>
<path d="M10.6856 76.7C10.6856 76.02 10.8216 75.428 11.0936 74.924C11.3656 74.412 11.7416 74.016 12.2216 73.736C12.7096 73.456 13.2656 73.316 13.8896 73.316C14.6976 73.316 15.3616 73.512 15.8816 73.904C16.4096 74.296 16.7576 74.84 16.9256 75.536H15.7496C15.6376 75.136 15.4176 74.82 15.0896 74.588C14.7696 74.356 14.3696 74.24 13.8896 74.24C13.2656 74.24 12.7616 74.456 12.3776 74.888C11.9936 75.312 11.8016 75.916 11.8016 76.7C11.8016 77.492 11.9936 78.104 12.3776 78.536C12.7616 78.968 13.2656 79.184 13.8896 79.184C14.3696 79.184 14.7696 79.072 15.0896 78.848C15.4096 78.624 15.6296 78.304 15.7496 77.888H16.9256C16.7496 78.56 16.3976 79.1 15.8696 79.508C15.3416 79.908 14.6816 80.108 13.8896 80.108C13.2656 80.108 12.7096 79.968 12.2216 79.688C11.7416 79.408 11.3656 79.012 11.0936 78.5C10.8216 77.988 10.6856 77.388 10.6856 76.7ZM18.2147 76.688C18.2147 76.016 18.3507 75.428 18.6227 74.924C18.8947 74.412 19.2667 74.016 19.7387 73.736C20.2187 73.456 20.7507 73.316 21.3347 73.316C21.9107 73.316 22.4107 73.44 22.8347 73.688C23.2587 73.936 23.5747 74.248 23.7827 74.624V73.424H24.8867V80H23.7827V78.776C23.5667 79.16 23.2427 79.48 22.8107 79.736C22.3867 79.984 21.8907 80.108 21.3227 80.108C20.7387 80.108 20.2107 79.964 19.7387 79.676C19.2667 79.388 18.8947 78.984 18.6227 78.464C18.3507 77.944 18.2147 77.352 18.2147 76.688ZM23.7827 76.7C23.7827 76.204 23.6827 75.772 23.4827 75.404C23.2827 75.036 23.0107 74.756 22.6667 74.564C22.3307 74.364 21.9587 74.264 21.5507 74.264C21.1427 74.264 20.7707 74.36 20.4347 74.552C20.0987 74.744 19.8307 75.024 19.6307 75.392C19.4307 75.76 19.3307 76.192 19.3307 76.688C19.3307 77.192 19.4307 77.632 19.6307 78.008C19.8307 78.376 20.0987 78.66 20.4347 78.86C20.7707 79.052 21.1427 79.148 21.5507 79.148C21.9587 79.148 22.3307 79.052 22.6667 78.86C23.0107 78.66 23.2827 78.376 23.4827 78.008C23.6827 77.632 23.7827 77.196 23.7827 76.7ZM28.064 74.492C28.256 74.116 28.528 73.824 28.88 73.616C29.24 73.408 29.676 73.304 30.188 73.304V74.432H29.9C28.676 74.432 28.064 75.096 28.064 76.424V80H26.972V73.424H28.064V74.492ZM37.6886 76.46C37.6886 76.668 37.6766 76.888 37.6526 77.12H32.3966C32.4366 77.768 32.6566 78.276 33.0566 78.644C33.4646 79.004 33.9566 79.184 34.5326 79.184C35.0046 79.184 35.3966 79.076 35.7086 78.86C36.0286 78.636 36.2526 78.34 36.3806 77.972H37.5566C37.3806 78.604 37.0286 79.12 36.5006 79.52C35.9726 79.912 35.3166 80.108 34.5326 80.108C33.9086 80.108 33.3486 79.968 32.8526 79.688C32.3646 79.408 31.9806 79.012 31.7006 78.5C31.4206 77.98 31.2806 77.38 31.2806 76.7C31.2806 76.02 31.4166 75.424 31.6886 74.912C31.9606 74.4 32.3406 74.008 32.8286 73.736C33.3246 73.456 33.8926 73.316 34.5326 73.316C35.1566 73.316 35.7086 73.452 36.1886 73.724C36.6686 73.996 37.0366 74.372 37.2926 74.852C37.5566 75.324 37.6886 75.86 37.6886 76.46ZM36.5606 76.232C36.5606 75.816 36.4686 75.46 36.2846 75.164C36.1006 74.86 35.8486 74.632 35.5286 74.48C35.2166 74.32 34.8686 74.24 34.4846 74.24C33.9326 74.24 33.4606 74.416 33.0686 74.768C32.6846 75.12 32.4646 75.608 32.4086 76.232H36.5606ZM45.37 76.46C45.37 76.668 45.358 76.888 45.334 77.12H40.078C40.118 77.768 40.338 78.276 40.738 78.644C41.146 79.004 41.638 79.184 42.214 79.184C42.686 79.184 43.078 79.076 43.39 78.86C43.71 78.636 43.934 78.34 44.062 77.972H45.238C45.062 78.604 44.71 79.12 44.182 79.52C43.654 79.912 42.998 80.108 42.214 80.108C41.59 80.108 41.03 79.968 40.534 79.688C40.046 79.408 39.662 79.012 39.382 78.5C39.102 77.98 38.962 77.38 38.962 76.7C38.962 76.02 39.098 75.424 39.37 74.912C39.642 74.4 40.022 74.008 40.51 73.736C41.006 73.456 41.574 73.316 42.214 73.316C42.838 73.316 43.39 73.452 43.87 73.724C44.35 73.996 44.718 74.372 44.974 74.852C45.238 75.324 45.37 75.86 45.37 76.46ZM44.242 76.232C44.242 75.816 44.15 75.46 43.966 75.164C43.782 74.86 43.53 74.632 43.21 74.48C42.898 74.32 42.55 74.24 42.166 74.24C41.614 74.24 41.142 74.416 40.75 74.768C40.366 75.12 40.146 75.608 40.09 76.232H44.242ZM48.1434 74.492C48.3354 74.116 48.6074 73.824 48.9594 73.616C49.3194 73.408 49.7554 73.304 50.2674 73.304V74.432H49.9794C48.7554 74.432 48.1434 75.096 48.1434 76.424V80H47.0514V73.424H48.1434V74.492ZM57.5352 80.108C57.0312 80.108 56.5792 80.024 56.1792 79.856C55.7792 79.68 55.4632 79.44 55.2312 79.136C54.9992 78.824 54.8712 78.468 54.8472 78.068H55.9752C56.0072 78.396 56.1592 78.664 56.4312 78.872C56.7112 79.08 57.0752 79.184 57.5232 79.184C57.9392 79.184 58.2672 79.092 58.5072 78.908C58.7472 78.724 58.8672 78.492 58.8672 78.212C58.8672 77.924 58.7392 77.712 58.4832 77.576C58.2272 77.432 57.8312 77.292 57.2952 77.156C56.8072 77.028 56.4072 76.9 56.0952 76.772C55.7912 76.636 55.5272 76.44 55.3032 76.184C55.0872 75.92 54.9792 75.576 54.9792 75.152C54.9792 74.816 55.0792 74.508 55.2792 74.228C55.4792 73.948 55.7632 73.728 56.1312 73.568C56.4992 73.4 56.9192 73.316 57.3912 73.316C58.1192 73.316 58.7072 73.5 59.1552 73.868C59.6032 74.236 59.8432 74.74 59.8752 75.38H58.7832C58.7592 75.036 58.6192 74.76 58.3632 74.552C58.1152 74.344 57.7792 74.24 57.3552 74.24C56.9632 74.24 56.6512 74.324 56.4192 74.492C56.1872 74.66 56.0712 74.88 56.0712 75.152C56.0712 75.368 56.1392 75.548 56.2752 75.692C56.4192 75.828 56.5952 75.94 56.8032 76.028C57.0192 76.108 57.3152 76.2 57.6912 76.304C58.1632 76.432 58.5472 76.56 58.8432 76.688C59.1392 76.808 59.3912 76.992 59.5992 77.24C59.8152 77.488 59.9272 77.812 59.9352 78.212C59.9352 78.572 59.8352 78.896 59.6352 79.184C59.4352 79.472 59.1512 79.7 58.7832 79.868C58.4232 80.028 58.0072 80.108 57.5352 80.108ZM67.7167 76.46C67.7167 76.668 67.7047 76.888 67.6807 77.12H62.4247C62.4647 77.768 62.6847 78.276 63.0847 78.644C63.4927 79.004 63.9847 79.184 64.5607 79.184C65.0327 79.184 65.4247 79.076 65.7367 78.86C66.0567 78.636 66.2807 78.34 66.4087 77.972H67.5847C67.4087 78.604 67.0567 79.12 66.5287 79.52C66.0007 79.912 65.3447 80.108 64.5607 80.108C63.9367 80.108 63.3767 79.968 62.8807 79.688C62.3927 79.408 62.0087 79.012 61.7287 78.5C61.4487 77.98 61.3087 77.38 61.3087 76.7C61.3087 76.02 61.4447 75.424 61.7167 74.912C61.9887 74.4 62.3687 74.008 62.8567 73.736C63.3527 73.456 63.9207 73.316 64.5607 73.316C65.1847 73.316 65.7367 73.452 66.2167 73.724C66.6967 73.996 67.0647 74.372 67.3207 74.852C67.5847 75.324 67.7167 75.86 67.7167 76.46ZM66.5887 76.232C66.5887 75.816 66.4967 75.46 66.3127 75.164C66.1287 74.86 65.8767 74.632 65.5567 74.48C65.2447 74.32 64.8967 74.24 64.5127 74.24C63.9607 74.24 63.4887 74.416 63.0967 74.768C62.7127 75.12 62.4927 75.608 62.4367 76.232H66.5887ZM70.4901 74.492C70.6821 74.116 70.9541 73.824 71.3061 73.616C71.6661 73.408 72.1021 73.304 72.6141 73.304V74.432H72.3261C71.1021 74.432 70.4901 75.096 70.4901 76.424V80H69.3981V73.424H70.4901V74.492ZM76.5627 78.992L78.6027 73.424H79.7667L77.1867 80H75.9147L73.3347 73.424H74.5107L76.5627 78.992ZM81.6453 72.356C81.4373 72.356 81.2613 72.284 81.1173 72.14C80.9733 71.996 80.9013 71.82 80.9013 71.612C80.9013 71.404 80.9733 71.228 81.1173 71.084C81.2613 70.94 81.4373 70.868 81.6453 70.868C81.8453 70.868 82.0133 70.94 82.1493 71.084C82.2933 71.228 82.3653 71.404 82.3653 71.612C82.3653 71.82 82.2933 71.996 82.1493 72.14C82.0133 72.284 81.8453 72.356 81.6453 72.356ZM82.1733 73.424V80H81.0813V73.424H82.1733ZM83.8664 76.7C83.8664 76.02 84.0024 75.428 84.2744 74.924C84.5464 74.412 84.9224 74.016 85.4024 73.736C85.8904 73.456 86.4464 73.316 87.0704 73.316C87.8784 73.316 88.5424 73.512 89.0624 73.904C89.5904 74.296 89.9384 74.84 90.1064 75.536H88.9304C88.8184 75.136 88.5984 74.82 88.2704 74.588C87.9504 74.356 87.5504 74.24 87.0704 74.24C86.4464 74.24 85.9424 74.456 85.5584 74.888C85.1744 75.312 84.9824 75.916 84.9824 76.7C84.9824 77.492 85.1744 78.104 85.5584 78.536C85.9424 78.968 86.4464 79.184 87.0704 79.184C87.5504 79.184 87.9504 79.072 88.2704 78.848C88.5904 78.624 88.8104 78.304 88.9304 77.888H90.1064C89.9304 78.56 89.5784 79.1 89.0504 79.508C88.5224 79.908 87.8624 80.108 87.0704 80.108C86.4464 80.108 85.8904 79.968 85.4024 79.688C84.9224 79.408 84.5464 79.012 84.2744 78.5C84.0024 77.988 83.8664 77.388 83.8664 76.7ZM97.8035 76.46C97.8035 76.668 97.7915 76.888 97.7675 77.12H92.5115C92.5515 77.768 92.7715 78.276 93.1715 78.644C93.5795 79.004 94.0715 79.184 94.6475 79.184C95.1195 79.184 95.5115 79.076 95.8235 78.86C96.1435 78.636 96.3675 78.34 96.4955 77.972H97.6715C97.4955 78.604 97.1435 79.12 96.6155 79.52C96.0875 79.912 95.4315 80.108 94.6475 80.108C94.0235 80.108 93.4635 79.968 92.9675 79.688C92.4795 79.408 92.0955 79.012 91.8155 78.5C91.5355 77.98 91.3955 77.38 91.3955 76.7C91.3955 76.02 91.5315 75.424 91.8035 74.912C92.0755 74.4 92.4555 74.008 92.9435 73.736C93.4395 73.456 94.0075 73.316 94.6475 73.316C95.2715 73.316 95.8235 73.452 96.3035 73.724C96.7835 73.996 97.1515 74.372 97.4075 74.852C97.6715 75.324 97.8035 75.86 97.8035 76.46ZM96.6755 76.232C96.6755 75.816 96.5835 75.46 96.3995 75.164C96.2155 74.86 95.9635 74.632 95.6435 74.48C95.3315 74.32 94.9835 74.24 94.5995 74.24C94.0475 74.24 93.5755 74.416 93.1835 74.768C92.7995 75.12 92.5795 75.608 92.5235 76.232H96.6755ZM101.813 80.108C101.309 80.108 100.857 80.024 100.457 79.856C100.057 79.68 99.7409 79.44 99.5089 79.136C99.2769 78.824 99.1489 78.468 99.1249 78.068H100.253C100.285 78.396 100.437 78.664 100.709 78.872C100.989 79.08 101.353 79.184 101.801 79.184C102.217 79.184 102.545 79.092 102.785 78.908C103.025 78.724 103.145 78.492 103.145 78.212C103.145 77.924 103.017 77.712 102.761 77.576C102.505 77.432 102.109 77.292 101.573 77.156C101.085 77.028 100.685 76.9 100.373 76.772C100.069 76.636 99.8049 76.44 99.5809 76.184C99.3649 75.92 99.2569 75.576 99.2569 75.152C99.2569 74.816 99.3569 74.508 99.5569 74.228C99.7569 73.948 100.041 73.728 100.409 73.568C100.777 73.4 101.197 73.316 101.669 73.316C102.397 73.316 102.985 73.5 103.433 73.868C103.881 74.236 104.121 74.74 104.153 75.38H103.061C103.037 75.036 102.897 74.76 102.641 74.552C102.393 74.344 102.057 74.24 101.633 74.24C101.241 74.24 100.929 74.324 100.697 74.492C100.465 74.66 100.349 74.88 100.349 75.152C100.349 75.368 100.417 75.548 100.553 75.692C100.697 75.828 100.873 75.94 101.081 76.028C101.297 76.108 101.593 76.2 101.969 76.304C102.441 76.432 102.825 76.56 103.121 76.688C103.417 76.808 103.669 76.992 103.877 77.24C104.093 77.488 104.205 77.812 104.213 78.212C104.213 78.572 104.113 78.896 103.913 79.184C103.713 79.472 103.429 79.7 103.061 79.868C102.701 80.028 102.285 80.108 101.813 80.108Z" fill="white"/>
<path fill-rule="evenodd" clip-rule="evenodd" d="M73 37H43L43 59H73V37ZM43 35C41.8954 35 41 35.8954 41 37V59C41 60.1046 41.8954 61 43 61H73C74.1046 61 75 60.1046 75 59V37C75 35.8954 74.1046 35 73 35H43Z" fill="white"/>
<path fill-rule="evenodd" clip-rule="evenodd" d="M63 31H53L53 35H63V31ZM53 29C51.8954 29 51 29.8954 51 31V35C51 36.1046 51.8954 37 53 37H63C64.1046 37 65 36.1046 65 35V31C65 29.8954 64.1046 29 63 29H53Z" fill="white"/>
<path fill-rule="evenodd" clip-rule="evenodd" d="M56.2 47.9L41.4 36.8L42.6 35.2L57.4 46.3C57.7556 46.5667 58.2445 46.5667 58.6 46.3L73.4 35.2L74.6 36.8L59.8 47.9C58.7334 48.7 57.2667 48.7 56.2 47.9Z" fill="white"/>
</svg>
