<svg width="116" height="100" viewBox="0 0 116 100" fill="none" xmlns="http://www.w3.org/2000/svg">
<path d="M0 0H116V100H0V0Z" fill="#FAFBFD"/>
<path d="M34.9952 76.7C34.9952 76.02 35.1312 75.428 35.4032 74.924C35.6752 74.412 36.0512 74.016 36.5312 73.736C37.0192 73.456 37.5752 73.316 38.1992 73.316C39.0072 73.316 39.6712 73.512 40.1912 73.904C40.7192 74.296 41.0672 74.84 41.2352 75.536H40.0592C39.9472 75.136 39.7272 74.82 39.3992 74.588C39.0792 74.356 38.6792 74.24 38.1992 74.24C37.5752 74.24 37.0712 74.456 36.6872 74.888C36.3032 75.312 36.1112 75.916 36.1112 76.7C36.1112 77.492 36.3032 78.104 36.6872 78.536C37.0712 78.968 37.5752 79.184 38.1992 79.184C38.6792 79.184 39.0792 79.072 39.3992 78.848C39.7192 78.624 39.9392 78.304 40.0592 77.888H41.2352C41.0592 78.56 40.7072 79.1 40.1792 79.508C39.6512 79.908 38.9912 80.108 38.1992 80.108C37.5752 80.108 37.0192 79.968 36.5312 79.688C36.0512 79.408 35.6752 79.012 35.4032 78.5C35.1312 77.988 34.9952 77.388 34.9952 76.7ZM44.0243 71.12V80H42.9323V71.12H44.0243ZM45.7174 76.688C45.7174 76.016 45.8534 75.428 46.1254 74.924C46.3974 74.412 46.7694 74.016 47.2414 73.736C47.7214 73.456 48.2534 73.316 48.8374 73.316C49.4134 73.316 49.9134 73.44 50.3374 73.688C50.7614 73.936 51.0774 74.248 51.2854 74.624V73.424H52.3894V80H51.2854V78.776C51.0694 79.16 50.7454 79.48 50.3134 79.736C49.8894 79.984 49.3934 80.108 48.8254 80.108C48.2414 80.108 47.7134 79.964 47.2414 79.676C46.7694 79.388 46.3974 78.984 46.1254 78.464C45.8534 77.944 45.7174 77.352 45.7174 76.688ZM51.2854 76.7C51.2854 76.204 51.1854 75.772 50.9854 75.404C50.7854 75.036 50.5134 74.756 50.1694 74.564C49.8334 74.364 49.4614 74.264 49.0534 74.264C48.6454 74.264 48.2734 74.36 47.9374 74.552C47.6014 74.744 47.3334 75.024 47.1334 75.392C46.9334 75.76 46.8334 76.192 46.8334 76.688C46.8334 77.192 46.9334 77.632 47.1334 78.008C47.3334 78.376 47.6014 78.66 47.9374 78.86C48.2734 79.052 48.6454 79.148 49.0534 79.148C49.4614 79.148 49.8334 79.052 50.1694 78.86C50.5134 78.66 50.7854 78.376 50.9854 78.008C51.1854 77.632 51.2854 77.196 51.2854 76.7ZM56.8028 80.108C56.2988 80.108 55.8468 80.024 55.4468 79.856C55.0468 79.68 54.7308 79.44 54.4988 79.136C54.2668 78.824 54.1388 78.468 54.1148 78.068H55.2428C55.2748 78.396 55.4268 78.664 55.6988 78.872C55.9788 79.08 56.3428 79.184 56.7908 79.184C57.2068 79.184 57.5348 79.092 57.7748 78.908C58.0148 78.724 58.1348 78.492 58.1348 78.212C58.1348 77.924 58.0068 77.712 57.7508 77.576C57.4948 77.432 57.0988 77.292 56.5628 77.156C56.0748 77.028 55.6748 76.9 55.3628 76.772C55.0588 76.636 54.7948 76.44 54.5708 76.184C54.3548 75.92 54.2468 75.576 54.2468 75.152C54.2468 74.816 54.3468 74.508 54.5468 74.228C54.7468 73.948 55.0308 73.728 55.3988 73.568C55.7668 73.4 56.1868 73.316 56.6588 73.316C57.3868 73.316 57.9748 73.5 58.4228 73.868C58.8708 74.236 59.1108 74.74 59.1428 75.38H58.0508C58.0268 75.036 57.8868 74.76 57.6308 74.552C57.3828 74.344 57.0468 74.24 56.6228 74.24C56.2308 74.24 55.9188 74.324 55.6868 74.492C55.4548 74.66 55.3388 74.88 55.3388 75.152C55.3388 75.368 55.4068 75.548 55.5428 75.692C55.6868 75.828 55.8628 75.94 56.0708 76.028C56.2868 76.108 56.5828 76.2 56.9588 76.304C57.4308 76.432 57.8148 76.56 58.1108 76.688C58.4068 76.808 58.6588 76.992 58.8668 77.24C59.0828 77.488 59.1948 77.812 59.2028 78.212C59.2028 78.572 59.1028 78.896 58.9028 79.184C58.7028 79.472 58.4188 79.7 58.0508 79.868C57.6908 80.028 57.2748 80.108 56.8028 80.108ZM63.3123 80.108C62.8083 80.108 62.3563 80.024 61.9563 79.856C61.5563 79.68 61.2403 79.44 61.0083 79.136C60.7763 78.824 60.6483 78.468 60.6243 78.068H61.7523C61.7843 78.396 61.9363 78.664 62.2083 78.872C62.4883 79.08 62.8523 79.184 63.3003 79.184C63.7163 79.184 64.0443 79.092 64.2843 78.908C64.5243 78.724 64.6443 78.492 64.6443 78.212C64.6443 77.924 64.5163 77.712 64.2603 77.576C64.0043 77.432 63.6083 77.292 63.0723 77.156C62.5843 77.028 62.1843 76.9 61.8723 76.772C61.5683 76.636 61.3043 76.44 61.0803 76.184C60.8643 75.92 60.7563 75.576 60.7563 75.152C60.7563 74.816 60.8563 74.508 61.0563 74.228C61.2563 73.948 61.5403 73.728 61.9083 73.568C62.2763 73.4 62.6963 73.316 63.1683 73.316C63.8963 73.316 64.4843 73.5 64.9323 73.868C65.3803 74.236 65.6203 74.74 65.6523 75.38H64.5603C64.5363 75.036 64.3963 74.76 64.1403 74.552C63.8923 74.344 63.5563 74.24 63.1323 74.24C62.7403 74.24 62.4283 74.324 62.1963 74.492C61.9643 74.66 61.8483 74.88 61.8483 75.152C61.8483 75.368 61.9163 75.548 62.0523 75.692C62.1963 75.828 62.3723 75.94 62.5803 76.028C62.7963 76.108 63.0923 76.2 63.4683 76.304C63.9403 76.432 64.3243 76.56 64.6203 76.688C64.9163 76.808 65.1683 76.992 65.3763 77.24C65.5923 77.488 65.7043 77.812 65.7123 78.212C65.7123 78.572 65.6123 78.896 65.4123 79.184C65.2123 79.472 64.9283 79.7 64.5603 79.868C64.2003 80.028 63.7843 80.108 63.3123 80.108ZM73.4938 76.46C73.4938 76.668 73.4818 76.888 73.4578 77.12H68.2018C68.2418 77.768 68.4618 78.276 68.8618 78.644C69.2698 79.004 69.7618 79.184 70.3378 79.184C70.8098 79.184 71.2018 79.076 71.5138 78.86C71.8338 78.636 72.0578 78.34 72.1858 77.972H73.3618C73.1858 78.604 72.8338 79.12 72.3058 79.52C71.7778 79.912 71.1218 80.108 70.3378 80.108C69.7138 80.108 69.1538 79.968 68.6578 79.688C68.1698 79.408 67.7858 79.012 67.5058 78.5C67.2258 77.98 67.0858 77.38 67.0858 76.7C67.0858 76.02 67.2218 75.424 67.4938 74.912C67.7658 74.4 68.1458 74.008 68.6338 73.736C69.1298 73.456 69.6978 73.316 70.3378 73.316C70.9618 73.316 71.5138 73.452 71.9938 73.724C72.4738 73.996 72.8418 74.372 73.0978 74.852C73.3618 75.324 73.4938 75.86 73.4938 76.46ZM72.3658 76.232C72.3658 75.816 72.2738 75.46 72.0898 75.164C71.9058 74.86 71.6538 74.632 71.3338 74.48C71.0218 74.32 70.6738 74.24 70.2898 74.24C69.7378 74.24 69.2658 74.416 68.8738 74.768C68.4898 75.12 68.2698 75.608 68.2138 76.232H72.3658ZM77.5033 80.108C76.9993 80.108 76.5473 80.024 76.1473 79.856C75.7473 79.68 75.4313 79.44 75.1993 79.136C74.9673 78.824 74.8393 78.468 74.8153 78.068H75.9433C75.9753 78.396 76.1273 78.664 76.3993 78.872C76.6793 79.08 77.0433 79.184 77.4913 79.184C77.9073 79.184 78.2353 79.092 78.4753 78.908C78.7153 78.724 78.8353 78.492 78.8353 78.212C78.8353 77.924 78.7073 77.712 78.4513 77.576C78.1953 77.432 77.7993 77.292 77.2633 77.156C76.7753 77.028 76.3753 76.9 76.0633 76.772C75.7593 76.636 75.4953 76.44 75.2713 76.184C75.0553 75.92 74.9473 75.576 74.9473 75.152C74.9473 74.816 75.0473 74.508 75.2473 74.228C75.4473 73.948 75.7313 73.728 76.0993 73.568C76.4673 73.4 76.8873 73.316 77.3593 73.316C78.0873 73.316 78.6753 73.5 79.1233 73.868C79.5713 74.236 79.8113 74.74 79.8433 75.38H78.7513C78.7273 75.036 78.5873 74.76 78.3313 74.552C78.0833 74.344 77.7473 74.24 77.3233 74.24C76.9313 74.24 76.6193 74.324 76.3873 74.492C76.1553 74.66 76.0393 74.88 76.0393 75.152C76.0393 75.368 76.1073 75.548 76.2433 75.692C76.3873 75.828 76.5633 75.94 76.7713 76.028C76.9873 76.108 77.2833 76.2 77.6593 76.304C78.1313 76.432 78.5153 76.56 78.8113 76.688C79.1073 76.808 79.3593 76.992 79.5673 77.24C79.7833 77.488 79.8953 77.812 79.9033 78.212C79.9033 78.572 79.8033 78.896 79.6033 79.184C79.4033 79.472 79.1193 79.7 78.7513 79.868C78.3913 80.028 77.9753 80.108 77.5033 80.108Z" fill="#302256"/>
<path fill-rule="evenodd" clip-rule="evenodd" d="M69.875 30H45.875V48H69.875V30ZM45.875 28C44.7704 28 43.875 28.8954 43.875 30V48C43.875 49.1046 44.7704 50 45.875 50H69.875C70.9796 50 71.875 49.1046 71.875 48V30C71.875 28.8954 70.9796 28 69.875 28H45.875Z" fill="#302256"/>
<path d="M48.875 35C48.875 33.8954 49.7704 33 50.875 33H64.875C65.9796 33 66.875 33.8954 66.875 35V43C66.875 44.1046 65.9796 45 64.875 45H50.875C49.7704 45 48.875 44.1046 48.875 43V35Z" fill="#302256"/>
<path fill-rule="evenodd" clip-rule="evenodd" d="M64.875 35H50.875L50.875 43H64.875V35ZM50.875 33C49.7704 33 48.875 33.8954 48.875 35V43C48.875 44.1046 49.7704 45 50.875 45H64.875C65.9796 45 66.875 44.1046 66.875 43V35C66.875 33.8954 65.9796 33 64.875 33H50.875Z" fill="#302256"/>
<path fill-rule="evenodd" clip-rule="evenodd" d="M45.1562 48C44.3761 48 43.6672 48.4536 43.3403 49.1619L39.1864 58.1619C38.5748 59.4871 39.5428 61 41.0024 61H74.7507C76.2103 61 77.1783 59.4871 76.5666 58.1619L72.4128 49.1619C72.0859 48.4536 71.377 48 70.5969 48H45.1562ZM49.8765 54.5C49.8765 53.6716 50.5481 53 51.3765 53H64.3765C65.205 53 65.8765 53.6716 65.8765 54.5C65.8765 55.3284 65.205 56 64.3765 56H51.3765C50.5481 56 49.8765 55.3284 49.8765 54.5Z" fill="#302256"/>
<path fill-rule="evenodd" clip-rule="evenodd" d="M72.4128 49.1619C72.0859 48.4536 71.377 48 70.5969 48H45.1562C44.3761 48 43.6672 48.4536 43.3403 49.1619L39.1864 58.1619C38.5748 59.4871 39.5428 61 41.0024 61H74.7507C76.2103 61 77.1783 59.4871 76.5666 58.1619L72.4128 49.1619ZM45.1562 50L41.0024 59H74.7507L70.5969 50L45.1562 50ZM47.8765 54.5C47.8765 52.567 49.4435 51 51.3765 51H64.3765C66.3095 51 67.8765 52.567 67.8765 54.5C67.8765 56.433 66.3095 58 64.3765 58H51.3765C49.4435 58 47.8765 56.433 47.8765 54.5ZM51.3765 53C50.5481 53 49.8765 53.6716 49.8765 54.5C49.8765 55.3284 50.5481 56 51.3765 56H64.3765C65.205 56 65.8765 55.3284 65.8765 54.5C65.8765 53.6716 65.205 53 64.3765 53H51.3765Z" fill="#302256"/>
</svg>
