<svg width="116" height="100" viewBox="0 0 116 100" fill="none" xmlns="http://www.w3.org/2000/svg">
<path d="M0 0H116V100H0V0Z" fill="#FAFBFD"/>
<path d="M41 31C41 29.8954 41.8954 29 43 29H54C55.1046 29 56 29.8954 56 31V36C56 37.1046 55.1046 38 54 38H43C41.8954 38 41 37.1046 41 36V31Z" fill="#302256"/>
<path fill-rule="evenodd" clip-rule="evenodd" d="M54 31H43L43 36H54V31ZM43 29C41.8954 29 41 29.8954 41 31V36C41 37.1046 41.8954 38 43 38H54C55.1046 38 56 37.1046 56 36V31C56 29.8954 55.1046 29 54 29H43Z" fill="#302256"/>
<path d="M60 31C60 29.8954 60.8954 29 62 29H73C74.1046 29 75 29.8954 75 31V60C75 61.1046 74.1046 62 73 62H62C60.8954 62 60 61.1046 60 60V31Z" fill="#302256"/>
<path fill-rule="evenodd" clip-rule="evenodd" d="M73 31H62L62 60H73V31ZM62 29C60.8954 29 60 29.8954 60 31V60C60 61.1046 60.8954 62 62 62H73C74.1046 62 75 61.1046 75 60V31C75 29.8954 74.1046 29 73 29H62Z" fill="#302256"/>
<path d="M41 44C41 42.8954 41.8954 42 43 42H54C55.1046 42 56 42.8954 56 44V60C56 61.1046 55.1046 62 54 62H43C41.8954 62 41 61.1046 41 60V44Z" fill="#302256"/>
<path fill-rule="evenodd" clip-rule="evenodd" d="M54 44H43L43 60H54V44ZM43 42C41.8954 42 41 42.8954 41 44V60C41 61.1046 41.8954 62 43 62H54C55.1046 62 56 61.1046 56 60V44C56 42.8954 55.1046 42 54 42H43Z" fill="#302256"/>
<path d="M23.9515 76.688C23.9515 76.016 24.0875 75.428 24.3595 74.924C24.6315 74.412 25.0035 74.016 25.4755 73.736C25.9555 73.456 26.4915 73.316 27.0835 73.316C27.5955 73.316 28.0715 73.436 28.5115 73.676C28.9515 73.908 29.2875 74.216 29.5195 74.6V71.12H30.6235V80H29.5195V78.764C29.3035 79.156 28.9835 79.48 28.5595 79.736C28.1355 79.984 27.6395 80.108 27.0715 80.108C26.4875 80.108 25.9555 79.964 25.4755 79.676C25.0035 79.388 24.6315 78.984 24.3595 78.464C24.0875 77.944 23.9515 77.352 23.9515 76.688ZM29.5195 76.7C29.5195 76.204 29.4195 75.772 29.2195 75.404C29.0195 75.036 28.7475 74.756 28.4035 74.564C28.0675 74.364 27.6955 74.264 27.2875 74.264C26.8795 74.264 26.5075 74.36 26.1715 74.552C25.8355 74.744 25.5675 75.024 25.3675 75.392C25.1675 75.76 25.0675 76.192 25.0675 76.688C25.0675 77.192 25.1675 77.632 25.3675 78.008C25.5675 78.376 25.8355 78.66 26.1715 78.86C26.5075 79.052 26.8795 79.148 27.2875 79.148C27.6955 79.148 28.0675 79.052 28.4035 78.86C28.7475 78.66 29.0195 78.376 29.2195 78.008C29.4195 77.632 29.5195 77.196 29.5195 76.7ZM32.3008 76.688C32.3008 76.016 32.4368 75.428 32.7088 74.924C32.9808 74.412 33.3528 74.016 33.8248 73.736C34.3048 73.456 34.8368 73.316 35.4208 73.316C35.9968 73.316 36.4968 73.44 36.9208 73.688C37.3448 73.936 37.6608 74.248 37.8688 74.624V73.424H38.9728V80H37.8688V78.776C37.6528 79.16 37.3288 79.48 36.8968 79.736C36.4728 79.984 35.9768 80.108 35.4088 80.108C34.8248 80.108 34.2968 79.964 33.8248 79.676C33.3528 79.388 32.9808 78.984 32.7088 78.464C32.4368 77.944 32.3008 77.352 32.3008 76.688ZM37.8688 76.7C37.8688 76.204 37.7688 75.772 37.5688 75.404C37.3688 75.036 37.0968 74.756 36.7528 74.564C36.4168 74.364 36.0448 74.264 35.6368 74.264C35.2288 74.264 34.8568 74.36 34.5208 74.552C34.1848 74.744 33.9168 75.024 33.7168 75.392C33.5168 75.76 33.4168 76.192 33.4168 76.688C33.4168 77.192 33.5168 77.632 33.7168 78.008C33.9168 78.376 34.1848 78.66 34.5208 78.86C34.8568 79.052 35.2288 79.148 35.6368 79.148C36.0448 79.148 36.4168 79.052 36.7528 78.86C37.0968 78.66 37.3688 78.376 37.5688 78.008C37.7688 77.632 37.8688 77.196 37.8688 76.7ZM43.3862 80.108C42.8822 80.108 42.4302 80.024 42.0302 79.856C41.6302 79.68 41.3142 79.44 41.0822 79.136C40.8502 78.824 40.7222 78.468 40.6982 78.068H41.8262C41.8582 78.396 42.0102 78.664 42.2822 78.872C42.5622 79.08 42.9262 79.184 43.3742 79.184C43.7902 79.184 44.1182 79.092 44.3582 78.908C44.5982 78.724 44.7182 78.492 44.7182 78.212C44.7182 77.924 44.5902 77.712 44.3342 77.576C44.0782 77.432 43.6822 77.292 43.1462 77.156C42.6582 77.028 42.2582 76.9 41.9462 76.772C41.6422 76.636 41.3782 76.44 41.1542 76.184C40.9382 75.92 40.8302 75.576 40.8302 75.152C40.8302 74.816 40.9302 74.508 41.1302 74.228C41.3302 73.948 41.6142 73.728 41.9822 73.568C42.3502 73.4 42.7702 73.316 43.2422 73.316C43.9702 73.316 44.5582 73.5 45.0062 73.868C45.4542 74.236 45.6942 74.74 45.7262 75.38H44.6342C44.6102 75.036 44.4702 74.76 44.2142 74.552C43.9662 74.344 43.6302 74.24 43.2062 74.24C42.8142 74.24 42.5022 74.324 42.2702 74.492C42.0382 74.66 41.9222 74.88 41.9222 75.152C41.9222 75.368 41.9902 75.548 42.1262 75.692C42.2702 75.828 42.4462 75.94 42.6542 76.028C42.8702 76.108 43.1662 76.2 43.5422 76.304C44.0142 76.432 44.3982 76.56 44.6942 76.688C44.9902 76.808 45.2422 76.992 45.4502 77.24C45.6662 77.488 45.7782 77.812 45.7862 78.212C45.7862 78.572 45.6862 78.896 45.4862 79.184C45.2862 79.472 45.0022 79.7 44.6342 79.868C44.2742 80.028 43.8582 80.108 43.3862 80.108ZM50.8318 73.304C51.3278 73.304 51.7758 73.412 52.1758 73.628C52.5758 73.836 52.8878 74.152 53.1118 74.576C53.3438 75 53.4598 75.516 53.4598 76.124V80H52.3798V76.28C52.3798 75.624 52.2158 75.124 51.8878 74.78C51.5598 74.428 51.1118 74.252 50.5438 74.252C49.9678 74.252 49.5078 74.432 49.1638 74.792C48.8278 75.152 48.6598 75.676 48.6598 76.364V80H47.5678V71.12H48.6598V74.36C48.8758 74.024 49.1718 73.764 49.5478 73.58C49.9318 73.396 50.3598 73.304 50.8318 73.304ZM56.5755 74.648C56.7995 74.256 57.1275 73.936 57.5595 73.688C57.9915 73.44 58.4835 73.316 59.0355 73.316C59.6275 73.316 60.1595 73.456 60.6315 73.736C61.1035 74.016 61.4755 74.412 61.7475 74.924C62.0195 75.428 62.1555 76.016 62.1555 76.688C62.1555 77.352 62.0195 77.944 61.7475 78.464C61.4755 78.984 61.0995 79.388 60.6195 79.676C60.1475 79.964 59.6195 80.108 59.0355 80.108C58.4675 80.108 57.9675 79.984 57.5355 79.736C57.1115 79.488 56.7915 79.172 56.5755 78.788V80H55.4835V71.12H56.5755V74.648ZM61.0395 76.688C61.0395 76.192 60.9395 75.76 60.7395 75.392C60.5395 75.024 60.2675 74.744 59.9235 74.552C59.5875 74.36 59.2155 74.264 58.8075 74.264C58.4075 74.264 58.0355 74.364 57.6915 74.564C57.3555 74.756 57.0835 75.04 56.8755 75.416C56.6755 75.784 56.5755 76.212 56.5755 76.7C56.5755 77.196 56.6755 77.632 56.8755 78.008C57.0835 78.376 57.3555 78.66 57.6915 78.86C58.0355 79.052 58.4075 79.148 58.8075 79.148C59.2155 79.148 59.5875 79.052 59.9235 78.86C60.2675 78.66 60.5395 78.376 60.7395 78.008C60.9395 77.632 61.0395 77.192 61.0395 76.688ZM66.7009 80.108C66.0849 80.108 65.5249 79.968 65.0209 79.688C64.5249 79.408 64.1329 79.012 63.8449 78.5C63.5649 77.98 63.4249 77.38 63.4249 76.7C63.4249 76.028 63.5689 75.436 63.8569 74.924C64.1529 74.404 64.5529 74.008 65.0569 73.736C65.5609 73.456 66.1249 73.316 66.7489 73.316C67.3729 73.316 67.9369 73.456 68.4409 73.736C68.9449 74.008 69.3409 74.4 69.6289 74.912C69.9249 75.424 70.0729 76.02 70.0729 76.7C70.0729 77.38 69.9209 77.98 69.6169 78.5C69.3209 79.012 68.9169 79.408 68.4049 79.688C67.8929 79.968 67.3249 80.108 66.7009 80.108ZM66.7009 79.148C67.0929 79.148 67.4609 79.056 67.8049 78.872C68.1489 78.688 68.4249 78.412 68.6329 78.044C68.8489 77.676 68.9569 77.228 68.9569 76.7C68.9569 76.172 68.8529 75.724 68.6449 75.356C68.4369 74.988 68.1649 74.716 67.8289 74.54C67.4929 74.356 67.1289 74.264 66.7369 74.264C66.3369 74.264 65.9689 74.356 65.6329 74.54C65.3049 74.716 65.0409 74.988 64.8409 75.356C64.6409 75.724 64.5409 76.172 64.5409 76.7C64.5409 77.236 64.6369 77.688 64.8289 78.056C65.0289 78.424 65.2929 78.7 65.6209 78.884C65.9489 79.06 66.3089 79.148 66.7009 79.148ZM71.3407 76.688C71.3407 76.016 71.4767 75.428 71.7487 74.924C72.0207 74.412 72.3927 74.016 72.8647 73.736C73.3447 73.456 73.8767 73.316 74.4607 73.316C75.0367 73.316 75.5367 73.44 75.9607 73.688C76.3847 73.936 76.7007 74.248 76.9087 74.624V73.424H78.0127V80H76.9087V78.776C76.6927 79.16 76.3687 79.48 75.9367 79.736C75.5127 79.984 75.0167 80.108 74.4487 80.108C73.8647 80.108 73.3367 79.964 72.8647 79.676C72.3927 79.388 72.0207 78.984 71.7487 78.464C71.4767 77.944 71.3407 77.352 71.3407 76.688ZM76.9087 76.7C76.9087 76.204 76.8087 75.772 76.6087 75.404C76.4087 75.036 76.1367 74.756 75.7927 74.564C75.4567 74.364 75.0847 74.264 74.6767 74.264C74.2687 74.264 73.8967 74.36 73.5607 74.552C73.2247 74.744 72.9567 75.024 72.7567 75.392C72.5567 75.76 72.4567 76.192 72.4567 76.688C72.4567 77.192 72.5567 77.632 72.7567 78.008C72.9567 78.376 73.2247 78.66 73.5607 78.86C73.8967 79.052 74.2687 79.148 74.6767 79.148C75.0847 79.148 75.4567 79.052 75.7927 78.86C76.1367 78.66 76.4087 78.376 76.6087 78.008C76.8087 77.632 76.9087 77.196 76.9087 76.7ZM81.1901 74.492C81.3821 74.116 81.6541 73.824 82.0061 73.616C82.3661 73.408 82.8021 73.304 83.3141 73.304V74.432H83.0261C81.8021 74.432 81.1901 75.096 81.1901 76.424V80H80.0981V73.424H81.1901V74.492ZM84.4066 76.688C84.4066 76.016 84.5426 75.428 84.8146 74.924C85.0866 74.412 85.4586 74.016 85.9306 73.736C86.4106 73.456 86.9466 73.316 87.5386 73.316C88.0506 73.316 88.5266 73.436 88.9666 73.676C89.4066 73.908 89.7426 74.216 89.9746 74.6V71.12H91.0786V80H89.9746V78.764C89.7586 79.156 89.4386 79.48 89.0146 79.736C88.5906 79.984 88.0946 80.108 87.5266 80.108C86.9426 80.108 86.4106 79.964 85.9306 79.676C85.4586 79.388 85.0866 78.984 84.8146 78.464C84.5426 77.944 84.4066 77.352 84.4066 76.688ZM89.9746 76.7C89.9746 76.204 89.8746 75.772 89.6746 75.404C89.4746 75.036 89.2026 74.756 88.8586 74.564C88.5226 74.364 88.1506 74.264 87.7426 74.264C87.3346 74.264 86.9626 74.36 86.6266 74.552C86.2906 74.744 86.0226 75.024 85.8226 75.392C85.6226 75.76 85.5226 76.192 85.5226 76.688C85.5226 77.192 85.6226 77.632 85.8226 78.008C86.0226 78.376 86.2906 78.66 86.6266 78.86C86.9626 79.052 87.3346 79.148 87.7426 79.148C88.1506 79.148 88.5226 79.052 88.8586 78.86C89.2026 78.66 89.4746 78.376 89.6746 78.008C89.8746 77.632 89.9746 77.196 89.9746 76.7Z" fill="#302256"/>
</svg>
