<svg width="24" height="18" viewBox="0 0 24 18" fill="none" xmlns="http://www.w3.org/2000/svg">
<path d="M9.12844 1.5L11.6892 4.06078C11.9705 4.34203 12.352 4.5 12.75 4.5H21.75C22.1644 4.5 22.5 4.83563 22.5 5.25V15.75C22.5 16.1644 22.1644 16.5 21.75 16.5H2.25C1.83562 16.5 1.5 16.1644 1.5 15.75V2.25C1.5 1.83562 1.83562 1.5 2.25 1.5H9.12844ZM2.25 0C1.00734 0 0 1.00734 0 2.25V15.75C0 16.9927 1.00734 18 2.25 18H21.75C22.9927 18 24 16.9927 24 15.75V5.25C24 4.00734 22.9927 3 21.75 3H12.75L10.1892 0.439219C9.90797 0.157969 9.52641 0 9.12844 0H2.25Z" fill="#616161"/>
</svg>
