<svg width="116" height="100" viewBox="0 0 116 100" fill="none" xmlns="http://www.w3.org/2000/svg">
<path d="M0 0H116V100H0V0Z" fill="#FAFBFD"/>
<path d="M12.9276 73.316C13.4956 73.316 13.9916 73.44 14.4156 73.688C14.8476 73.936 15.1676 74.248 15.3756 74.624V73.424H16.4796V80.144C16.4796 80.744 16.3516 81.276 16.0956 81.74C15.8396 82.212 15.4716 82.58 14.9916 82.844C14.5196 83.108 13.9676 83.24 13.3356 83.24C12.4716 83.24 11.7516 83.036 11.1756 82.628C10.5996 82.22 10.2596 81.664 10.1556 80.96H11.2356C11.3556 81.36 11.6036 81.68 11.9796 81.92C12.3556 82.168 12.8076 82.292 13.3356 82.292C13.9356 82.292 14.4236 82.104 14.7996 81.728C15.1836 81.352 15.3756 80.824 15.3756 80.144V78.764C15.1596 79.148 14.8396 79.468 14.4156 79.724C13.9916 79.98 13.4956 80.108 12.9276 80.108C12.3436 80.108 11.8116 79.964 11.3316 79.676C10.8596 79.388 10.4876 78.984 10.2156 78.464C9.94356 77.944 9.80756 77.352 9.80756 76.688C9.80756 76.016 9.94356 75.428 10.2156 74.924C10.4876 74.412 10.8596 74.016 11.3316 73.736C11.8116 73.456 12.3436 73.316 12.9276 73.316ZM15.3756 76.7C15.3756 76.204 15.2756 75.772 15.0756 75.404C14.8756 75.036 14.6036 74.756 14.2596 74.564C13.9236 74.364 13.5516 74.264 13.1436 74.264C12.7356 74.264 12.3636 74.36 12.0276 74.552C11.6916 74.744 11.4236 75.024 11.2236 75.392C11.0236 75.76 10.9236 76.192 10.9236 76.688C10.9236 77.192 11.0236 77.632 11.2236 78.008C11.4236 78.376 11.6916 78.66 12.0276 78.86C12.3636 79.052 12.7356 79.148 13.1436 79.148C13.5516 79.148 13.9236 79.052 14.2596 78.86C14.6036 78.66 14.8756 78.376 15.0756 78.008C15.2756 77.632 15.3756 77.196 15.3756 76.7ZM19.6569 74.492C19.8489 74.116 20.1209 73.824 20.4729 73.616C20.8329 73.408 21.2689 73.304 21.7809 73.304V74.432H21.4929C20.2689 74.432 19.6569 75.096 19.6569 76.424V80H18.5649V73.424H19.6569V74.492ZM26.1495 80.108C25.5335 80.108 24.9735 79.968 24.4695 79.688C23.9735 79.408 23.5815 79.012 23.2935 78.5C23.0135 77.98 22.8735 77.38 22.8735 76.7C22.8735 76.028 23.0175 75.436 23.3055 74.924C23.6015 74.404 24.0015 74.008 24.5055 73.736C25.0095 73.456 25.5735 73.316 26.1975 73.316C26.8215 73.316 27.3855 73.456 27.8895 73.736C28.3935 74.008 28.7895 74.4 29.0775 74.912C29.3735 75.424 29.5215 76.02 29.5215 76.7C29.5215 77.38 29.3695 77.98 29.0655 78.5C28.7695 79.012 28.3655 79.408 27.8535 79.688C27.3415 79.968 26.7735 80.108 26.1495 80.108ZM26.1495 79.148C26.5415 79.148 26.9095 79.056 27.2535 78.872C27.5975 78.688 27.8735 78.412 28.0815 78.044C28.2975 77.676 28.4055 77.228 28.4055 76.7C28.4055 76.172 28.3015 75.724 28.0935 75.356C27.8855 74.988 27.6135 74.716 27.2775 74.54C26.9415 74.356 26.5775 74.264 26.1855 74.264C25.7855 74.264 25.4175 74.356 25.0815 74.54C24.7535 74.716 24.4895 74.988 24.2895 75.356C24.0895 75.724 23.9895 76.172 23.9895 76.7C23.9895 77.236 24.0855 77.688 24.2775 78.056C24.4775 78.424 24.7415 78.7 25.0695 78.884C25.3975 79.06 25.7575 79.148 26.1495 79.148ZM37.0293 73.424V80H35.9373V79.028C35.7293 79.364 35.4373 79.628 35.0613 79.82C34.6933 80.004 34.2853 80.096 33.8373 80.096C33.3253 80.096 32.8653 79.992 32.4573 79.784C32.0493 79.568 31.7253 79.248 31.4853 78.824C31.2533 78.4 31.1373 77.884 31.1373 77.276V73.424H32.2173V77.132C32.2173 77.78 32.3813 78.28 32.7093 78.632C33.0373 78.976 33.4853 79.148 34.0533 79.148C34.6373 79.148 35.0973 78.968 35.4333 78.608C35.7693 78.248 35.9373 77.724 35.9373 77.036V73.424H37.0293ZM40.2051 74.636C40.4211 74.26 40.7411 73.948 41.1651 73.7C41.5971 73.444 42.0971 73.316 42.6651 73.316C43.2491 73.316 43.7771 73.456 44.2491 73.736C44.7291 74.016 45.1051 74.412 45.3771 74.924C45.6491 75.428 45.7851 76.016 45.7851 76.688C45.7851 77.352 45.6491 77.944 45.3771 78.464C45.1051 78.984 44.7291 79.388 44.2491 79.676C43.7771 79.964 43.2491 80.108 42.6651 80.108C42.1051 80.108 41.6091 79.984 41.1771 79.736C40.7531 79.48 40.4291 79.164 40.2051 78.788V83.12H39.1131V73.424H40.2051V74.636ZM44.6691 76.688C44.6691 76.192 44.5691 75.76 44.3691 75.392C44.1691 75.024 43.8971 74.744 43.5531 74.552C43.2171 74.36 42.8451 74.264 42.4371 74.264C42.0371 74.264 41.6651 74.364 41.3211 74.564C40.9851 74.756 40.7131 75.04 40.5051 75.416C40.3051 75.784 40.2051 76.212 40.2051 76.7C40.2051 77.196 40.3051 77.632 40.5051 78.008C40.7131 78.376 40.9851 78.66 41.3211 78.86C41.6651 79.052 42.0371 79.148 42.4371 79.148C42.8451 79.148 43.2171 79.052 43.5531 78.86C43.8971 78.66 44.1691 78.376 44.3691 78.008C44.5691 77.632 44.6691 77.192 44.6691 76.688ZM50.4937 76.7C50.4937 76.02 50.6297 75.428 50.9017 74.924C51.1737 74.412 51.5497 74.016 52.0297 73.736C52.5177 73.456 53.0737 73.316 53.6977 73.316C54.5057 73.316 55.1697 73.512 55.6897 73.904C56.2177 74.296 56.5657 74.84 56.7337 75.536H55.5577C55.4457 75.136 55.2257 74.82 54.8977 74.588C54.5777 74.356 54.1777 74.24 53.6977 74.24C53.0737 74.24 52.5697 74.456 52.1857 74.888C51.8017 75.312 51.6097 75.916 51.6097 76.7C51.6097 77.492 51.8017 78.104 52.1857 78.536C52.5697 78.968 53.0737 79.184 53.6977 79.184C54.1777 79.184 54.5777 79.072 54.8977 78.848C55.2177 78.624 55.4377 78.304 55.5577 77.888H56.7337C56.5577 78.56 56.2057 79.1 55.6777 79.508C55.1497 79.908 54.4897 80.108 53.6977 80.108C53.0737 80.108 52.5177 79.968 52.0297 79.688C51.5497 79.408 51.1737 79.012 50.9017 78.5C50.6297 77.988 50.4937 77.388 50.4937 76.7ZM61.2987 80.108C60.6827 80.108 60.1227 79.968 59.6187 79.688C59.1227 79.408 58.7307 79.012 58.4427 78.5C58.1627 77.98 58.0227 77.38 58.0227 76.7C58.0227 76.028 58.1667 75.436 58.4547 74.924C58.7507 74.404 59.1507 74.008 59.6547 73.736C60.1587 73.456 60.7227 73.316 61.3467 73.316C61.9707 73.316 62.5347 73.456 63.0387 73.736C63.5427 74.008 63.9387 74.4 64.2267 74.912C64.5227 75.424 64.6707 76.02 64.6707 76.7C64.6707 77.38 64.5187 77.98 64.2147 78.5C63.9187 79.012 63.5147 79.408 63.0027 79.688C62.4907 79.968 61.9227 80.108 61.2987 80.108ZM61.2987 79.148C61.6907 79.148 62.0587 79.056 62.4027 78.872C62.7467 78.688 63.0227 78.412 63.2307 78.044C63.4467 77.676 63.5547 77.228 63.5547 76.7C63.5547 76.172 63.4507 75.724 63.2427 75.356C63.0347 74.988 62.7627 74.716 62.4267 74.54C62.0907 74.356 61.7267 74.264 61.3347 74.264C60.9347 74.264 60.5667 74.356 60.2307 74.54C59.9027 74.716 59.6387 74.988 59.4387 75.356C59.2387 75.724 59.1387 76.172 59.1387 76.7C59.1387 77.236 59.2347 77.688 59.4267 78.056C59.6267 78.424 59.8907 78.7 60.2187 78.884C60.5467 79.06 60.9067 79.148 61.2987 79.148ZM69.5505 73.304C70.3505 73.304 70.9985 73.548 71.4945 74.036C71.9905 74.516 72.2385 75.212 72.2385 76.124V80H71.1585V76.28C71.1585 75.624 70.9945 75.124 70.6665 74.78C70.3385 74.428 69.8905 74.252 69.3225 74.252C68.7465 74.252 68.2865 74.432 67.9425 74.792C67.6065 75.152 67.4385 75.676 67.4385 76.364V80H66.3465V73.424H67.4385V74.36C67.6545 74.024 67.9465 73.764 68.3145 73.58C68.6905 73.396 69.1025 73.304 69.5505 73.304ZM75.5943 74.324V78.2C75.5943 78.52 75.6623 78.748 75.7983 78.884C75.9343 79.012 76.1703 79.076 76.5063 79.076H77.3103V80H76.3263C75.7183 80 75.2623 79.86 74.9583 79.58C74.6543 79.3 74.5023 78.84 74.5023 78.2V74.324H73.6503V73.424H74.5023V71.768H75.5943V73.424H77.3103V74.324H75.5943ZM78.4654 76.688C78.4654 76.016 78.6014 75.428 78.8734 74.924C79.1454 74.412 79.5174 74.016 79.9894 73.736C80.4694 73.456 81.0014 73.316 81.5854 73.316C82.1614 73.316 82.6614 73.44 83.0854 73.688C83.5094 73.936 83.8254 74.248 84.0334 74.624V73.424H85.1374V80H84.0334V78.776C83.8174 79.16 83.4934 79.48 83.0614 79.736C82.6374 79.984 82.1414 80.108 81.5734 80.108C80.9894 80.108 80.4614 79.964 79.9894 79.676C79.5174 79.388 79.1454 78.984 78.8734 78.464C78.6014 77.944 78.4654 77.352 78.4654 76.688ZM84.0334 76.7C84.0334 76.204 83.9334 75.772 83.7334 75.404C83.5334 75.036 83.2614 74.756 82.9174 74.564C82.5814 74.364 82.2094 74.264 81.8014 74.264C81.3934 74.264 81.0214 74.36 80.6854 74.552C80.3494 74.744 80.0814 75.024 79.8814 75.392C79.6814 75.76 79.5814 76.192 79.5814 76.688C79.5814 77.192 79.6814 77.632 79.8814 78.008C80.0814 78.376 80.3494 78.66 80.6854 78.86C81.0214 79.052 81.3934 79.148 81.8014 79.148C82.2094 79.148 82.5814 79.052 82.9174 78.86C83.2614 78.66 83.5334 78.376 83.7334 78.008C83.9334 77.632 84.0334 77.196 84.0334 76.7ZM86.8148 76.7C86.8148 76.02 86.9508 75.428 87.2228 74.924C87.4948 74.412 87.8708 74.016 88.3508 73.736C88.8388 73.456 89.3948 73.316 90.0188 73.316C90.8268 73.316 91.4908 73.512 92.0108 73.904C92.5388 74.296 92.8868 74.84 93.0548 75.536H91.8788C91.7668 75.136 91.5468 74.82 91.2188 74.588C90.8988 74.356 90.4988 74.24 90.0188 74.24C89.3948 74.24 88.8908 74.456 88.5068 74.888C88.1228 75.312 87.9308 75.916 87.9308 76.7C87.9308 77.492 88.1228 78.104 88.5068 78.536C88.8908 78.968 89.3948 79.184 90.0188 79.184C90.4988 79.184 90.8988 79.072 91.2188 78.848C91.5388 78.624 91.7588 78.304 91.8788 77.888H93.0548C92.8788 78.56 92.5268 79.1 91.9988 79.508C91.4708 79.908 90.8108 80.108 90.0188 80.108C89.3948 80.108 88.8388 79.968 88.3508 79.688C87.8708 79.408 87.4948 79.012 87.2228 78.5C86.9508 77.988 86.8148 77.388 86.8148 76.7ZM96.0838 74.324V78.2C96.0838 78.52 96.1518 78.748 96.2878 78.884C96.4238 79.012 96.6598 79.076 96.9958 79.076H97.7998V80H96.8158C96.2078 80 95.7518 79.86 95.4478 79.58C95.1438 79.3 94.9918 78.84 94.9918 78.2V74.324H94.1398V73.424H94.9918V71.768H96.0838V73.424H97.7998V74.324H96.0838ZM101.691 80.108C101.187 80.108 100.735 80.024 100.335 79.856C99.9349 79.68 99.6189 79.44 99.3869 79.136C99.1549 78.824 99.0269 78.468 99.0029 78.068H100.131C100.163 78.396 100.315 78.664 100.587 78.872C100.867 79.08 101.231 79.184 101.679 79.184C102.095 79.184 102.423 79.092 102.663 78.908C102.903 78.724 103.023 78.492 103.023 78.212C103.023 77.924 102.895 77.712 102.639 77.576C102.383 77.432 101.987 77.292 101.451 77.156C100.963 77.028 100.563 76.9 100.251 76.772C99.9469 76.636 99.6829 76.44 99.4589 76.184C99.2429 75.92 99.1349 75.576 99.1349 75.152C99.1349 74.816 99.2349 74.508 99.4349 74.228C99.6349 73.948 99.9189 73.728 100.287 73.568C100.655 73.4 101.075 73.316 101.547 73.316C102.275 73.316 102.863 73.5 103.311 73.868C103.759 74.236 103.999 74.74 104.031 75.38H102.939C102.915 75.036 102.775 74.76 102.519 74.552C102.271 74.344 101.935 74.24 101.511 74.24C101.119 74.24 100.807 74.324 100.575 74.492C100.343 74.66 100.227 74.88 100.227 75.152C100.227 75.368 100.295 75.548 100.431 75.692C100.575 75.828 100.751 75.94 100.959 76.028C101.175 76.108 101.471 76.2 101.847 76.304C102.319 76.432 102.703 76.56 102.999 76.688C103.295 76.808 103.547 76.992 103.755 77.24C103.971 77.488 104.083 77.812 104.091 78.212C104.091 78.572 103.991 78.896 103.791 79.184C103.591 79.472 103.307 79.7 102.939 79.868C102.579 80.028 102.163 80.108 101.691 80.108Z" fill="#302256"/>
<path d="M51 45C51 47.2091 49.2091 49 47 49C44.7909 49 43 47.2091 43 45C43 42.7909 44.7909 41 47 41C49.2091 41 51 42.7909 51 45Z" fill="#302256"/>
<path fill-rule="evenodd" clip-rule="evenodd" d="M47 47C48.1046 47 49 46.1046 49 45C49 43.8954 48.1046 43 47 43C45.8954 43 45 43.8954 45 45C45 46.1046 45.8954 47 47 47ZM47 49C49.2091 49 51 47.2091 51 45C51 42.7909 49.2091 41 47 41C44.7909 41 43 42.7909 43 45C43 47.2091 44.7909 49 47 49Z" fill="#302256"/>
<path d="M62 38C62 40.2091 60.2091 42 58 42C55.7909 42 54 40.2091 54 38C54 35.7909 55.7909 34 58 34C60.2091 34 62 35.7909 62 38Z" fill="#302256"/>
<path fill-rule="evenodd" clip-rule="evenodd" d="M58 40C59.1046 40 60 39.1046 60 38C60 36.8954 59.1046 36 58 36C56.8954 36 56 36.8954 56 38C56 39.1046 56.8954 40 58 40ZM58 42C60.2091 42 62 40.2091 62 38C62 35.7909 60.2091 34 58 34C55.7909 34 54 35.7909 54 38C54 40.2091 55.7909 42 58 42Z" fill="#302256"/>
<path d="M73 45C73 47.2091 71.2091 49 69 49C66.7909 49 65 47.2091 65 45C65 42.7909 66.7909 41 69 41C71.2091 41 73 42.7909 73 45Z" fill="#302256"/>
<path fill-rule="evenodd" clip-rule="evenodd" d="M69 47C70.1046 47 71 46.1046 71 45C71 43.8954 70.1046 43 69 43C67.8954 43 67 43.8954 67 45C67 46.1046 67.8954 47 69 47ZM69 49C71.2091 49 73 47.2091 73 45C73 42.7909 71.2091 41 69 41C66.7909 41 65 42.7909 65 45C65 47.2091 66.7909 49 69 49Z" fill="#302256"/>
<path d="M47 51C43.6863 51 41 53.6863 41 57H53C53 53.6863 50.3137 51 47 51Z" fill="#302256"/>
<path fill-rule="evenodd" clip-rule="evenodd" d="M47 53C45.5194 53 44.2267 53.8044 43.5351 55H50.4649C49.7733 53.8044 48.4806 53 47 53ZM52.6586 55C51.8349 52.6696 49.6124 51 47 51C44.3876 51 42.1651 52.6696 41.3414 55C41.1203 55.6256 41 56.2987 41 57H53C53 56.2987 52.8797 55.6256 52.6586 55Z" fill="#302256"/>
<path d="M69 51C65.6863 51 63 53.6863 63 57H75C75 53.6863 72.3137 51 69 51Z" fill="#302256"/>
<path fill-rule="evenodd" clip-rule="evenodd" d="M69 53C67.5194 53 66.2267 53.8044 65.5351 55H72.4649C71.7733 53.8044 70.4806 53 69 53ZM74.6586 55C73.8349 52.6696 71.6124 51 69 51C66.3876 51 64.1651 52.6696 63.3414 55C63.1203 55.6256 63 56.2987 63 57H75C75 56.2987 74.8797 55.6256 74.6586 55Z" fill="#302256"/>
<path d="M58 44C54.6863 44 52 46.6863 52 50H64C64 46.6863 61.3137 44 58 44Z" fill="#302256"/>
<path fill-rule="evenodd" clip-rule="evenodd" d="M58 46C56.5194 46 55.2267 46.8044 54.5351 48H61.4649C60.7733 46.8044 59.4806 46 58 46ZM63.6586 48C62.8349 45.6696 60.6124 44 58 44C55.3876 44 53.1651 45.6696 52.3414 48C52.1203 48.6256 52 49.2987 52 50H64C64 49.2987 63.8797 48.6256 63.6586 48Z" fill="#302256"/>
</svg>
