<svg width="116" height="100" viewBox="0 0 116 100" fill="none" xmlns="http://www.w3.org/2000/svg">
<path d="M0 0H116V100H0V0Z" fill="#302256"/>
<path d="M5.67889 76.7C5.67889 76.02 5.81489 75.428 6.08689 74.924C6.35889 74.412 6.73489 74.016 7.21489 73.736C7.70289 73.456 8.25889 73.316 8.88289 73.316C9.69089 73.316 10.3549 73.512 10.8749 73.904C11.4029 74.296 11.7509 74.84 11.9189 75.536H10.7429C10.6309 75.136 10.4109 74.82 10.0829 74.588C9.76289 74.356 9.36289 74.24 8.88289 74.24C8.25889 74.24 7.75489 74.456 7.37089 74.888C6.98689 75.312 6.79489 75.916 6.79489 76.7C6.79489 77.492 6.98689 78.104 7.37089 78.536C7.75489 78.968 8.25889 79.184 8.88289 79.184C9.36289 79.184 9.76289 79.072 10.0829 78.848C10.4029 78.624 10.6229 78.304 10.7429 77.888H11.9189C11.7429 78.56 11.3909 79.1 10.8629 79.508C10.3349 79.908 9.67489 80.108 8.88289 80.108C8.25889 80.108 7.70289 79.968 7.21489 79.688C6.73489 79.408 6.35889 79.012 6.08689 78.5C5.81489 77.988 5.67889 77.388 5.67889 76.7ZM16.484 80.108C15.868 80.108 15.308 79.968 14.804 79.688C14.308 79.408 13.916 79.012 13.628 78.5C13.348 77.98 13.208 77.38 13.208 76.7C13.208 76.028 13.352 75.436 13.64 74.924C13.936 74.404 14.336 74.008 14.84 73.736C15.344 73.456 15.908 73.316 16.532 73.316C17.156 73.316 17.72 73.456 18.224 73.736C18.728 74.008 19.124 74.4 19.412 74.912C19.708 75.424 19.856 76.02 19.856 76.7C19.856 77.38 19.704 77.98 19.4 78.5C19.104 79.012 18.7 79.408 18.188 79.688C17.676 79.968 17.108 80.108 16.484 80.108ZM16.484 79.148C16.876 79.148 17.244 79.056 17.588 78.872C17.932 78.688 18.208 78.412 18.416 78.044C18.632 77.676 18.74 77.228 18.74 76.7C18.74 76.172 18.636 75.724 18.428 75.356C18.22 74.988 17.948 74.716 17.612 74.54C17.276 74.356 16.912 74.264 16.52 74.264C16.12 74.264 15.752 74.356 15.416 74.54C15.088 74.716 14.824 74.988 14.624 75.356C14.424 75.724 14.324 76.172 14.324 76.7C14.324 77.236 14.42 77.688 14.612 78.056C14.812 78.424 15.076 78.7 15.404 78.884C15.732 79.06 16.092 79.148 16.484 79.148ZM27.3637 73.424V80H26.2717V79.028C26.0637 79.364 25.7717 79.628 25.3957 79.82C25.0277 80.004 24.6197 80.096 24.1717 80.096C23.6597 80.096 23.1997 79.992 22.7917 79.784C22.3837 79.568 22.0597 79.248 21.8197 78.824C21.5877 78.4 21.4717 77.884 21.4717 77.276V73.424H22.5517V77.132C22.5517 77.78 22.7157 78.28 23.0437 78.632C23.3717 78.976 23.8197 79.148 24.3877 79.148C24.9717 79.148 25.4317 78.968 25.7677 78.608C26.1037 78.248 26.2717 77.724 26.2717 77.036V73.424H27.3637ZM30.5395 74.492C30.7315 74.116 31.0035 73.824 31.3555 73.616C31.7155 73.408 32.1515 73.304 32.6635 73.304V74.432H32.3755C31.1515 74.432 30.5395 75.096 30.5395 76.424V80H29.4475V73.424H30.5395V74.492ZM36.4921 80.108C35.9881 80.108 35.5361 80.024 35.1361 79.856C34.7361 79.68 34.4201 79.44 34.1881 79.136C33.9561 78.824 33.8281 78.468 33.8041 78.068H34.9321C34.9641 78.396 35.1161 78.664 35.3881 78.872C35.6681 79.08 36.0321 79.184 36.4801 79.184C36.8961 79.184 37.2241 79.092 37.4641 78.908C37.7041 78.724 37.8241 78.492 37.8241 78.212C37.8241 77.924 37.6961 77.712 37.4401 77.576C37.1841 77.432 36.7881 77.292 36.2521 77.156C35.7641 77.028 35.3641 76.9 35.0521 76.772C34.7481 76.636 34.4841 76.44 34.2601 76.184C34.0441 75.92 33.9361 75.576 33.9361 75.152C33.9361 74.816 34.0361 74.508 34.2361 74.228C34.4361 73.948 34.7201 73.728 35.0881 73.568C35.4561 73.4 35.8761 73.316 36.3481 73.316C37.0761 73.316 37.6641 73.5 38.1121 73.868C38.5601 74.236 38.8001 74.74 38.8321 75.38H37.7401C37.7161 75.036 37.5761 74.76 37.3201 74.552C37.0721 74.344 36.7361 74.24 36.3121 74.24C35.9201 74.24 35.6081 74.324 35.3761 74.492C35.1441 74.66 35.0281 74.88 35.0281 75.152C35.0281 75.368 35.0961 75.548 35.2321 75.692C35.3761 75.828 35.5521 75.94 35.7601 76.028C35.9761 76.108 36.2721 76.2 36.6481 76.304C37.1201 76.432 37.5041 76.56 37.8001 76.688C38.0961 76.808 38.3481 76.992 38.5561 77.24C38.7721 77.488 38.8841 77.812 38.8921 78.212C38.8921 78.572 38.7921 78.896 38.5921 79.184C38.3921 79.472 38.1081 79.7 37.7401 79.868C37.3801 80.028 36.9641 80.108 36.4921 80.108ZM46.6736 76.46C46.6736 76.668 46.6616 76.888 46.6376 77.12H41.3816C41.4216 77.768 41.6416 78.276 42.0416 78.644C42.4496 79.004 42.9416 79.184 43.5176 79.184C43.9896 79.184 44.3816 79.076 44.6936 78.86C45.0136 78.636 45.2376 78.34 45.3656 77.972H46.5416C46.3656 78.604 46.0136 79.12 45.4856 79.52C44.9576 79.912 44.3016 80.108 43.5176 80.108C42.8936 80.108 42.3336 79.968 41.8376 79.688C41.3496 79.408 40.9656 79.012 40.6856 78.5C40.4056 77.98 40.2656 77.38 40.2656 76.7C40.2656 76.02 40.4016 75.424 40.6736 74.912C40.9456 74.4 41.3256 74.008 41.8136 73.736C42.3096 73.456 42.8776 73.316 43.5176 73.316C44.1416 73.316 44.6936 73.452 45.1736 73.724C45.6536 73.996 46.0216 74.372 46.2776 74.852C46.5416 75.324 46.6736 75.86 46.6736 76.46ZM45.5456 76.232C45.5456 75.816 45.4536 75.46 45.2696 75.164C45.0856 74.86 44.8336 74.632 44.5136 74.48C44.2016 74.32 43.8536 74.24 43.4696 74.24C42.9176 74.24 42.4456 74.416 42.0536 74.768C41.6696 75.12 41.4496 75.608 41.3936 76.232H45.5456ZM59.7022 73.304C60.2142 73.304 60.6702 73.412 61.0702 73.628C61.4702 73.836 61.7862 74.152 62.0182 74.576C62.2502 75 62.3662 75.516 62.3662 76.124V80H61.2862V76.28C61.2862 75.624 61.1222 75.124 60.7942 74.78C60.4742 74.428 60.0382 74.252 59.4862 74.252C58.9182 74.252 58.4662 74.436 58.1302 74.804C57.7942 75.164 57.6262 75.688 57.6262 76.376V80H56.5462V76.28C56.5462 75.624 56.3822 75.124 56.0542 74.78C55.7342 74.428 55.2982 74.252 54.7462 74.252C54.1782 74.252 53.7262 74.436 53.3902 74.804C53.0542 75.164 52.8862 75.688 52.8862 76.376V80H51.7942V73.424H52.8862V74.372C53.1022 74.028 53.3902 73.764 53.7502 73.58C54.1182 73.396 54.5222 73.304 54.9622 73.304C55.5142 73.304 56.0022 73.428 56.4262 73.676C56.8502 73.924 57.1662 74.288 57.3742 74.768C57.5582 74.304 57.8622 73.944 58.2862 73.688C58.7102 73.432 59.1822 73.304 59.7022 73.304ZM63.9895 76.688C63.9895 76.016 64.1255 75.428 64.3975 74.924C64.6695 74.412 65.0415 74.016 65.5135 73.736C65.9935 73.456 66.5255 73.316 67.1095 73.316C67.6855 73.316 68.1855 73.44 68.6095 73.688C69.0335 73.936 69.3495 74.248 69.5575 74.624V73.424H70.6615V80H69.5575V78.776C69.3415 79.16 69.0175 79.48 68.5855 79.736C68.1615 79.984 67.6655 80.108 67.0975 80.108C66.5135 80.108 65.9855 79.964 65.5135 79.676C65.0415 79.388 64.6695 78.984 64.3975 78.464C64.1255 77.944 63.9895 77.352 63.9895 76.688ZM69.5575 76.7C69.5575 76.204 69.4575 75.772 69.2575 75.404C69.0575 75.036 68.7855 74.756 68.4415 74.564C68.1055 74.364 67.7335 74.264 67.3255 74.264C66.9175 74.264 66.5455 74.36 66.2095 74.552C65.8735 74.744 65.6055 75.024 65.4055 75.392C65.2055 75.76 65.1055 76.192 65.1055 76.688C65.1055 77.192 65.2055 77.632 65.4055 78.008C65.6055 78.376 65.8735 78.66 66.2095 78.86C66.5455 79.052 66.9175 79.148 67.3255 79.148C67.7335 79.148 68.1055 79.052 68.4415 78.86C68.7855 78.66 69.0575 78.376 69.2575 78.008C69.4575 77.632 69.5575 77.196 69.5575 76.7ZM74.0789 74.324V78.2C74.0789 78.52 74.1469 78.748 74.2829 78.884C74.4189 79.012 74.6549 79.076 74.9909 79.076H75.7949V80H74.8109C74.2029 80 73.7469 79.86 73.4429 79.58C73.1389 79.3 72.9869 78.84 72.9869 78.2V74.324H72.1349V73.424H72.9869V71.768H74.0789V73.424H75.7949V74.324H74.0789ZM83.358 76.46C83.358 76.668 83.346 76.888 83.322 77.12H78.066C78.106 77.768 78.326 78.276 78.726 78.644C79.134 79.004 79.626 79.184 80.202 79.184C80.674 79.184 81.066 79.076 81.378 78.86C81.698 78.636 81.922 78.34 82.05 77.972H83.226C83.05 78.604 82.698 79.12 82.17 79.52C81.642 79.912 80.986 80.108 80.202 80.108C79.578 80.108 79.018 79.968 78.522 79.688C78.034 79.408 77.65 79.012 77.37 78.5C77.09 77.98 76.95 77.38 76.95 76.7C76.95 76.02 77.086 75.424 77.358 74.912C77.63 74.4 78.01 74.008 78.498 73.736C78.994 73.456 79.562 73.316 80.202 73.316C80.826 73.316 81.378 73.452 81.858 73.724C82.338 73.996 82.706 74.372 82.962 74.852C83.226 75.324 83.358 75.86 83.358 76.46ZM82.23 76.232C82.23 75.816 82.138 75.46 81.954 75.164C81.77 74.86 81.518 74.632 81.198 74.48C80.886 74.32 80.538 74.24 80.154 74.24C79.602 74.24 79.13 74.416 78.738 74.768C78.354 75.12 78.134 75.608 78.078 76.232H82.23ZM86.1314 74.492C86.3234 74.116 86.5954 73.824 86.9474 73.616C87.3074 73.408 87.7434 73.304 88.2554 73.304V74.432H87.9674C86.7434 74.432 86.1314 75.096 86.1314 76.424V80H85.0394V73.424H86.1314V74.492ZM90.32 72.356C90.112 72.356 89.936 72.284 89.792 72.14C89.648 71.996 89.576 71.82 89.576 71.612C89.576 71.404 89.648 71.228 89.792 71.084C89.936 70.94 90.112 70.868 90.32 70.868C90.52 70.868 90.688 70.94 90.824 71.084C90.968 71.228 91.04 71.404 91.04 71.612C91.04 71.82 90.968 71.996 90.824 72.14C90.688 72.284 90.52 72.356 90.32 72.356ZM90.848 73.424V80H89.756V73.424H90.848ZM92.5411 76.688C92.5411 76.016 92.6771 75.428 92.9491 74.924C93.2211 74.412 93.5931 74.016 94.0651 73.736C94.5451 73.456 95.0771 73.316 95.6611 73.316C96.2371 73.316 96.7371 73.44 97.1611 73.688C97.5851 73.936 97.9011 74.248 98.1091 74.624V73.424H99.2131V80H98.1091V78.776C97.8931 79.16 97.5691 79.48 97.1371 79.736C96.7131 79.984 96.2171 80.108 95.6491 80.108C95.0651 80.108 94.5371 79.964 94.0651 79.676C93.5931 79.388 93.2211 78.984 92.9491 78.464C92.6771 77.944 92.5411 77.352 92.5411 76.688ZM98.1091 76.7C98.1091 76.204 98.0091 75.772 97.8091 75.404C97.6091 75.036 97.3371 74.756 96.9931 74.564C96.6571 74.364 96.2851 74.264 95.8771 74.264C95.4691 74.264 95.0971 74.36 94.7611 74.552C94.4251 74.744 94.1571 75.024 93.9571 75.392C93.7571 75.76 93.6571 76.192 93.6571 76.688C93.6571 77.192 93.7571 77.632 93.9571 78.008C94.1571 78.376 94.4251 78.66 94.7611 78.86C95.0971 79.052 95.4691 79.148 95.8771 79.148C96.2851 79.148 96.6571 79.052 96.9931 78.86C97.3371 78.66 97.6091 78.376 97.8091 78.008C98.0091 77.632 98.1091 77.196 98.1091 76.7ZM102.39 71.12V80H101.298V71.12H102.39ZM106.82 80.108C106.316 80.108 105.864 80.024 105.464 79.856C105.064 79.68 104.748 79.44 104.516 79.136C104.284 78.824 104.156 78.468 104.132 78.068H105.26C105.292 78.396 105.444 78.664 105.716 78.872C105.996 79.08 106.36 79.184 106.808 79.184C107.224 79.184 107.552 79.092 107.792 78.908C108.032 78.724 108.152 78.492 108.152 78.212C108.152 77.924 108.024 77.712 107.768 77.576C107.512 77.432 107.116 77.292 106.58 77.156C106.092 77.028 105.692 76.9 105.38 76.772C105.076 76.636 104.812 76.44 104.588 76.184C104.372 75.92 104.264 75.576 104.264 75.152C104.264 74.816 104.364 74.508 104.564 74.228C104.764 73.948 105.048 73.728 105.416 73.568C105.784 73.4 106.204 73.316 106.676 73.316C107.404 73.316 107.992 73.5 108.44 73.868C108.888 74.236 109.128 74.74 109.16 75.38H108.068C108.044 75.036 107.904 74.76 107.648 74.552C107.4 74.344 107.064 74.24 106.64 74.24C106.248 74.24 105.936 74.324 105.704 74.492C105.472 74.66 105.356 74.88 105.356 75.152C105.356 75.368 105.424 75.548 105.56 75.692C105.704 75.828 105.88 75.94 106.088 76.028C106.304 76.108 106.6 76.2 106.976 76.304C107.448 76.432 107.832 76.56 108.128 76.688C108.424 76.808 108.676 76.992 108.884 77.24C109.1 77.488 109.212 77.812 109.22 78.212C109.22 78.572 109.12 78.896 108.92 79.184C108.72 79.472 108.436 79.7 108.068 79.868C107.708 80.028 107.292 80.108 106.82 80.108Z" fill="white"/>
<path fill-rule="evenodd" clip-rule="evenodd" d="M73 56V39H62.3907C61.2568 39 60.1761 38.5187 59.4175 37.6759L56.1093 34L43 34L43 56H73ZM43 32C41.8954 32 41 32.8954 41 34V56C41 57.1046 41.8954 58 43 58H73C74.1046 58 75 57.1046 75 56V39C75 37.8954 74.1046 37 73 37H62.3907C61.8238 37 61.2834 36.7594 60.9041 36.3379L57.5959 32.6621C57.2166 32.2406 56.6762 32 56.1093 32H43Z" fill="white"/>
</svg>
