<svg width="18" height="20" viewBox="0 0 18 20" fill="none" xmlns="http://www.w3.org/2000/svg">
<path d="M8.92862 18.75C8.22471 18.75 7.65313 18.1883 7.65313 17.4988H6.37764C6.37764 18.8781 7.52239 20 8.92862 20C10.3348 20 11.4796 18.8781 11.4796 17.4988H10.2041C10.2041 18.1883 9.63253 18.75 8.92862 18.75ZM17.2743 13.0785C16.1598 12.0387 15.3077 10.9504 15.3077 7.26172C15.3077 4.15273 12.781 1.61719 9.56636 1.31055V0.625C9.56636 0.279687 9.28097 0 8.92862 0C8.57626 0 8.29087 0.279687 8.29087 0.625V1.31094C5.07624 1.61758 2.54958 4.15273 2.54958 7.26172C2.54958 10.95 1.69699 12.0387 0.582531 13.0785C0.0257005 13.598 -0.150078 14.3836 0.134117 15.0797C0.424291 15.7906 1.12262 16.25 1.91343 16.25H15.9438C16.7346 16.25 17.4329 15.7902 17.7231 15.0793C18.0073 14.3832 17.8311 13.598 17.2743 13.0785ZM15.9438 15H1.91343C1.34623 15 1.06283 14.3566 1.46222 13.984C2.85171 12.6875 3.82507 11.2363 3.82507 7.26211C3.82507 4.63008 6.10779 2.5 8.92862 2.5C11.749 2.5 14.0322 4.62969 14.0322 7.26172C14.0322 11.2207 14.9972 12.6797 16.395 13.9836C16.796 14.3582 16.5086 15 15.9438 15Z" fill="#151549"/>
</svg>
