<svg width="35" height="35" viewBox="0 0 35 35" fill="none" xmlns="http://www.w3.org/2000/svg">
<path fill-rule="evenodd" clip-rule="evenodd" d="M17.5 33.4783C26.3246 33.4783 33.4783 26.3246 33.4783 17.5C33.4783 8.67545 26.3246 1.52174 17.5 1.52174C8.67545 1.52174 1.52174 8.67545 1.52174 17.5C1.52174 26.3246 8.67545 33.4783 17.5 33.4783ZM17.5 35C27.165 35 35 27.165 35 17.5C35 7.83502 27.165 0 17.5 0C7.83502 0 0 7.83502 0 17.5C0 27.165 7.83502 35 17.5 35Z" fill="#151549"/>
<path d="M21.7607 24.3473C20.3959 24.3473 19.7396 25.1081 17.4998 25.1081C15.26 25.1081 14.6085 24.3473 13.239 24.3473C9.71043 24.3473 6.84766 27.21 6.84766 30.7386L7.98896 31.956C9.13026 32.7168 10.652 33.0973 11.7933 33.8581L17.4998 34.2386L22.8259 33.4777C24.0861 33.4777 25.489 32.7168 27.3911 31.5755L28.152 30.7386C28.152 27.21 25.2892 24.3473 21.7607 24.3473ZM25.1085 31.956C25.1085 32.3744 24.0053 32.7168 23.5868 32.7168L17.4998 33.8581L12.5542 33.0973C12.1357 33.0973 10.652 32.3744 10.652 31.956L8.3694 30.7386C8.3694 28.0517 10.5521 25.869 13.239 25.869C14.171 25.869 15.0983 26.6299 17.4998 26.6299C19.8966 26.6299 20.8286 25.869 21.7607 25.869C24.4475 25.869 26.6303 28.0517 26.6303 30.7386L25.1085 31.956ZM17.4998 22.8255C20.8619 22.8255 23.5868 20.1007 23.5868 16.7386C23.5868 13.3765 20.8619 10.6516 17.4998 10.6516C14.1377 10.6516 11.4129 13.3765 11.4129 16.7386C11.4129 20.1007 14.1377 22.8255 17.4998 22.8255ZM17.4998 12.1734C20.0155 12.1734 22.065 14.2229 22.065 16.7386C22.065 19.2542 20.0155 21.3038 17.4998 21.3038C14.9842 21.3038 12.9346 19.2542 12.9346 16.7386C12.9346 14.2229 14.9842 12.1734 17.4998 12.1734Z" fill="#151549"/>
</svg>
