<svg width="116" height="100" viewBox="0 0 116 100" fill="none" xmlns="http://www.w3.org/2000/svg">
<path d="M0 0H116V100H0V0Z" fill="#FAFBFD"/>
<path d="M27.0558 73.304C27.5678 73.304 28.0238 73.412 28.4238 73.628C28.8238 73.836 29.1398 74.152 29.3718 74.576C29.6038 75 29.7198 75.516 29.7198 76.124V80H28.6398V76.28C28.6398 75.624 28.4758 75.124 28.1478 74.78C27.8278 74.428 27.3918 74.252 26.8398 74.252C26.2718 74.252 25.8198 74.436 25.4838 74.804C25.1478 75.164 24.9798 75.688 24.9798 76.376V80H23.8998V76.28C23.8998 75.624 23.7358 75.124 23.4078 74.78C23.0878 74.428 22.6518 74.252 22.0998 74.252C21.5318 74.252 21.0798 74.436 20.7438 74.804C20.4078 75.164 20.2398 75.688 20.2398 76.376V80H19.1478V73.424H20.2398V74.372C20.4558 74.028 20.7438 73.764 21.1038 73.58C21.4718 73.396 21.8758 73.304 22.3158 73.304C22.8678 73.304 23.3558 73.428 23.7798 73.676C24.2038 73.924 24.5198 74.288 24.7278 74.768C24.9118 74.304 25.2158 73.944 25.6398 73.688C26.0638 73.432 26.5358 73.304 27.0558 73.304ZM37.4151 73.424L33.4551 83.096H32.3271L33.6231 79.928L30.9711 73.424H32.1831L34.2471 78.752L36.2871 73.424H37.4151ZM43.284 74.636C43.5 74.26 43.82 73.948 44.244 73.7C44.676 73.444 45.176 73.316 45.744 73.316C46.328 73.316 46.856 73.456 47.328 73.736C47.808 74.016 48.184 74.412 48.456 74.924C48.728 75.428 48.864 76.016 48.864 76.688C48.864 77.352 48.728 77.944 48.456 78.464C48.184 78.984 47.808 79.388 47.328 79.676C46.856 79.964 46.328 80.108 45.744 80.108C45.184 80.108 44.688 79.984 44.256 79.736C43.832 79.48 43.508 79.164 43.284 78.788V83.12H42.192V73.424H43.284V74.636ZM47.748 76.688C47.748 76.192 47.648 75.76 47.448 75.392C47.248 75.024 46.976 74.744 46.632 74.552C46.296 74.36 45.924 74.264 45.516 74.264C45.116 74.264 44.744 74.364 44.4 74.564C44.064 74.756 43.792 75.04 43.584 75.416C43.384 75.784 43.284 76.212 43.284 76.7C43.284 77.196 43.384 77.632 43.584 78.008C43.792 78.376 44.064 78.66 44.4 78.86C44.744 79.052 45.116 79.148 45.516 79.148C45.924 79.148 46.296 79.052 46.632 78.86C46.976 78.66 47.248 78.376 47.448 78.008C47.648 77.632 47.748 77.192 47.748 76.688ZM51.6334 74.492C51.8254 74.116 52.0974 73.824 52.4494 73.616C52.8094 73.408 53.2454 73.304 53.7574 73.304V74.432H53.4694C52.2454 74.432 51.6334 75.096 51.6334 76.424V80H50.5414V73.424H51.6334V74.492ZM58.126 80.108C57.51 80.108 56.95 79.968 56.446 79.688C55.95 79.408 55.558 79.012 55.27 78.5C54.99 77.98 54.85 77.38 54.85 76.7C54.85 76.028 54.994 75.436 55.282 74.924C55.578 74.404 55.978 74.008 56.482 73.736C56.986 73.456 57.55 73.316 58.174 73.316C58.798 73.316 59.362 73.456 59.866 73.736C60.37 74.008 60.766 74.4 61.054 74.912C61.35 75.424 61.498 76.02 61.498 76.7C61.498 77.38 61.346 77.98 61.042 78.5C60.746 79.012 60.342 79.408 59.83 79.688C59.318 79.968 58.75 80.108 58.126 80.108ZM58.126 79.148C58.518 79.148 58.886 79.056 59.23 78.872C59.574 78.688 59.85 78.412 60.058 78.044C60.274 77.676 60.382 77.228 60.382 76.7C60.382 76.172 60.278 75.724 60.07 75.356C59.862 74.988 59.59 74.716 59.254 74.54C58.918 74.356 58.554 74.264 58.162 74.264C57.762 74.264 57.394 74.356 57.058 74.54C56.73 74.716 56.466 74.988 56.266 75.356C56.066 75.724 55.966 76.172 55.966 76.7C55.966 77.236 56.062 77.688 56.254 78.056C56.454 78.424 56.718 78.7 57.046 78.884C57.374 79.06 57.734 79.148 58.126 79.148ZM65.8858 73.316C66.4538 73.316 66.9498 73.44 67.3738 73.688C67.8058 73.936 68.1258 74.248 68.3338 74.624V73.424H69.4378V80.144C69.4378 80.744 69.3098 81.276 69.0538 81.74C68.7978 82.212 68.4298 82.58 67.9498 82.844C67.4778 83.108 66.9258 83.24 66.2938 83.24C65.4298 83.24 64.7098 83.036 64.1338 82.628C63.5578 82.22 63.2178 81.664 63.1138 80.96H64.1938C64.3138 81.36 64.5618 81.68 64.9378 81.92C65.3138 82.168 65.7658 82.292 66.2938 82.292C66.8938 82.292 67.3818 82.104 67.7578 81.728C68.1418 81.352 68.3338 80.824 68.3338 80.144V78.764C68.1178 79.148 67.7978 79.468 67.3738 79.724C66.9498 79.98 66.4538 80.108 65.8858 80.108C65.3018 80.108 64.7698 79.964 64.2898 79.676C63.8178 79.388 63.4458 78.984 63.1738 78.464C62.9018 77.944 62.7658 77.352 62.7658 76.688C62.7658 76.016 62.9018 75.428 63.1738 74.924C63.4458 74.412 63.8178 74.016 64.2898 73.736C64.7698 73.456 65.3018 73.316 65.8858 73.316ZM68.3338 76.7C68.3338 76.204 68.2338 75.772 68.0338 75.404C67.8338 75.036 67.5618 74.756 67.2178 74.564C66.8818 74.364 66.5098 74.264 66.1018 74.264C65.6938 74.264 65.3218 74.36 64.9858 74.552C64.6498 74.744 64.3818 75.024 64.1818 75.392C63.9818 75.76 63.8818 76.192 63.8818 76.688C63.8818 77.192 63.9818 77.632 64.1818 78.008C64.3818 78.376 64.6498 78.66 64.9858 78.86C65.3218 79.052 65.6938 79.148 66.1018 79.148C66.5098 79.148 66.8818 79.052 67.2178 78.86C67.5618 78.66 67.8338 78.376 68.0338 78.008C68.2338 77.632 68.3338 77.196 68.3338 76.7ZM72.6151 74.492C72.8071 74.116 73.0791 73.824 73.4311 73.616C73.7911 73.408 74.2271 73.304 74.7391 73.304V74.432H74.4511C73.2271 74.432 72.6151 75.096 72.6151 76.424V80H71.5231V73.424H72.6151V74.492ZM82.2397 76.46C82.2397 76.668 82.2277 76.888 82.2037 77.12H76.9477C76.9877 77.768 77.2077 78.276 77.6077 78.644C78.0157 79.004 78.5077 79.184 79.0837 79.184C79.5557 79.184 79.9477 79.076 80.2597 78.86C80.5797 78.636 80.8037 78.34 80.9317 77.972H82.1077C81.9317 78.604 81.5797 79.12 81.0517 79.52C80.5237 79.912 79.8677 80.108 79.0837 80.108C78.4597 80.108 77.8997 79.968 77.4037 79.688C76.9157 79.408 76.5317 79.012 76.2517 78.5C75.9717 77.98 75.8317 77.38 75.8317 76.7C75.8317 76.02 75.9677 75.424 76.2397 74.912C76.5117 74.4 76.8917 74.008 77.3797 73.736C77.8757 73.456 78.4437 73.316 79.0837 73.316C79.7077 73.316 80.2597 73.452 80.7397 73.724C81.2197 73.996 81.5877 74.372 81.8437 74.852C82.1077 75.324 82.2397 75.86 82.2397 76.46ZM81.1117 76.232C81.1117 75.816 81.0197 75.46 80.8357 75.164C80.6517 74.86 80.3997 74.632 80.0797 74.48C79.7677 74.32 79.4197 74.24 79.0357 74.24C78.4837 74.24 78.0117 74.416 77.6197 74.768C77.2357 75.12 77.0157 75.608 76.9597 76.232H81.1117ZM86.2491 80.108C85.7451 80.108 85.2931 80.024 84.8931 79.856C84.4931 79.68 84.1771 79.44 83.9451 79.136C83.7131 78.824 83.5851 78.468 83.5611 78.068H84.6891C84.7211 78.396 84.8731 78.664 85.1451 78.872C85.4251 79.08 85.7891 79.184 86.2371 79.184C86.6531 79.184 86.9811 79.092 87.2211 78.908C87.4611 78.724 87.5811 78.492 87.5811 78.212C87.5811 77.924 87.4531 77.712 87.1971 77.576C86.9411 77.432 86.5451 77.292 86.0091 77.156C85.5211 77.028 85.1211 76.9 84.8091 76.772C84.5051 76.636 84.2411 76.44 84.0171 76.184C83.8011 75.92 83.6931 75.576 83.6931 75.152C83.6931 74.816 83.7931 74.508 83.9931 74.228C84.1931 73.948 84.4771 73.728 84.8451 73.568C85.2131 73.4 85.6331 73.316 86.1051 73.316C86.8331 73.316 87.4211 73.5 87.8691 73.868C88.3171 74.236 88.5571 74.74 88.5891 75.38H87.4971C87.4731 75.036 87.3331 74.76 87.0771 74.552C86.8291 74.344 86.4931 74.24 86.0691 74.24C85.6771 74.24 85.3651 74.324 85.1331 74.492C84.9011 74.66 84.7851 74.88 84.7851 75.152C84.7851 75.368 84.8531 75.548 84.9891 75.692C85.1331 75.828 85.3091 75.94 85.5171 76.028C85.7331 76.108 86.0291 76.2 86.4051 76.304C86.8771 76.432 87.2611 76.56 87.5571 76.688C87.8531 76.808 88.1051 76.992 88.3131 77.24C88.5291 77.488 88.6411 77.812 88.6491 78.212C88.6491 78.572 88.5491 78.896 88.3491 79.184C88.1491 79.472 87.8651 79.7 87.4971 79.868C87.1371 80.028 86.7211 80.108 86.2491 80.108ZM92.7586 80.108C92.2546 80.108 91.8026 80.024 91.4026 79.856C91.0026 79.68 90.6866 79.44 90.4546 79.136C90.2226 78.824 90.0946 78.468 90.0706 78.068H91.1986C91.2306 78.396 91.3826 78.664 91.6546 78.872C91.9346 79.08 92.2986 79.184 92.7466 79.184C93.1626 79.184 93.4906 79.092 93.7306 78.908C93.9706 78.724 94.0906 78.492 94.0906 78.212C94.0906 77.924 93.9626 77.712 93.7066 77.576C93.4506 77.432 93.0546 77.292 92.5186 77.156C92.0306 77.028 91.6306 76.9 91.3186 76.772C91.0146 76.636 90.7506 76.44 90.5266 76.184C90.3106 75.92 90.2026 75.576 90.2026 75.152C90.2026 74.816 90.3026 74.508 90.5026 74.228C90.7026 73.948 90.9866 73.728 91.3546 73.568C91.7226 73.4 92.1426 73.316 92.6146 73.316C93.3426 73.316 93.9306 73.5 94.3786 73.868C94.8266 74.236 95.0666 74.74 95.0986 75.38H94.0066C93.9826 75.036 93.8426 74.76 93.5866 74.552C93.3386 74.344 93.0026 74.24 92.5786 74.24C92.1866 74.24 91.8746 74.324 91.6426 74.492C91.4106 74.66 91.2946 74.88 91.2946 75.152C91.2946 75.368 91.3626 75.548 91.4986 75.692C91.6426 75.828 91.8186 75.94 92.0266 76.028C92.2426 76.108 92.5386 76.2 92.9146 76.304C93.3866 76.432 93.7706 76.56 94.0666 76.688C94.3626 76.808 94.6146 76.992 94.8226 77.24C95.0386 77.488 95.1506 77.812 95.1586 78.212C95.1586 78.572 95.0586 78.896 94.8586 79.184C94.6586 79.472 94.3746 79.7 94.0066 79.868C93.6466 80.028 93.2306 80.108 92.7586 80.108Z" fill="#302256"/>
<path d="M46 46C46 44.8954 46.8954 44 48 44H51C52.1046 44 53 44.8954 53 46V55C53 56.1046 52.1046 57 51 57H48C46.8954 57 46 56.1046 46 55V46Z" fill="#302256"/>
<path fill-rule="evenodd" clip-rule="evenodd" d="M51 46H48L48 55H51V46ZM48 44C46.8954 44 46 44.8954 46 46V55C46 56.1046 46.8954 57 48 57H51C52.1046 57 53 56.1046 53 55V46C53 44.8954 52.1046 44 51 44H48Z" fill="#302256"/>
<path d="M57 30C57 28.8954 57.8954 28 59 28H62C63.1046 28 64 28.8954 64 30V55C64 56.1046 63.1046 57 62 57H59C57.8954 57 57 56.1046 57 55V30Z" fill="#302256"/>
<path fill-rule="evenodd" clip-rule="evenodd" d="M62 30H59L59 55H62V30ZM59 28C57.8954 28 57 28.8954 57 30V55C57 56.1046 57.8954 57 59 57H62C63.1046 57 64 56.1046 64 55V30C64 28.8954 63.1046 28 62 28H59Z" fill="#302256"/>
<path d="M68 36C68 34.8954 68.8954 34 70 34H73C74.1046 34 75 34.8954 75 36V55C75 56.1046 74.1046 57 73 57H70C68.8954 57 68 56.1046 68 55V36Z" fill="#302256"/>
<path fill-rule="evenodd" clip-rule="evenodd" d="M73 36H70L70 55H73V36ZM70 34C68.8954 34 68 34.8954 68 36V55C68 56.1046 68.8954 57 70 57H73C74.1046 57 75 56.1046 75 55V36C75 34.8954 74.1046 34 73 34H70Z" fill="#302256"/>
<path fill-rule="evenodd" clip-rule="evenodd" d="M42 28V60C42 60.5523 42.4477 61 43 61H75V63H43C41.3431 63 40 61.6569 40 60V28H42Z" fill="#302256"/>
</svg>
