<svg width="21" height="21" viewBox="0 0 21 21" fill="none" xmlns="http://www.w3.org/2000/svg">
<path d="M4.41188 13.2703C4.41188 14.4844 3.42 15.4762 2.20594 15.4762C0.991875 15.4762 0 14.4844 0 13.2703C0 12.0563 0.991875 11.0644 2.20594 11.0644H4.41188V13.2703ZM5.52375 13.2703C5.52375 12.0563 6.51562 11.0644 7.72969 11.0644C8.94375 11.0644 9.93563 12.0563 9.93563 13.2703V18.7941C9.93563 20.0081 8.94375 21 7.72969 21C6.51562 21 5.52375 20.0081 5.52375 18.7941V13.2703ZM7.72969 4.41188C6.51562 4.41188 5.52375 3.42 5.52375 2.20594C5.52375 0.991875 6.51562 0 7.72969 0C8.94375 0 9.93563 0.991875 9.93563 2.20594V4.41188H7.72969ZM7.72969 5.52375C8.94375 5.52375 9.93563 6.51562 9.93563 7.72969C9.93563 8.94375 8.94375 9.93563 7.72969 9.93563H2.20594C0.991875 9.93563 0 8.94375 0 7.72969C0 6.51562 0.991875 5.52375 2.20594 5.52375H7.72969ZM16.5881 7.72969C16.5881 6.51562 17.58 5.52375 18.7941 5.52375C20.0081 5.52375 21 6.51562 21 7.72969C21 8.94375 20.0081 9.93563 18.7941 9.93563H16.5881V7.72969ZM15.4762 7.72969C15.4762 8.94375 14.4844 9.93563 13.2703 9.93563C12.0563 9.93563 11.0644 8.94375 11.0644 7.72969V2.20594C11.0644 0.991875 12.0563 0 13.2703 0C14.4844 0 15.4762 0.991875 15.4762 2.20594V7.72969ZM13.2703 16.5881C14.4844 16.5881 15.4762 17.58 15.4762 18.7941C15.4762 20.0081 14.4844 21 13.2703 21C12.0563 21 11.0644 20.0081 11.0644 18.7941V16.5881H13.2703ZM13.2703 15.4762C12.0563 15.4762 11.0644 14.4844 11.0644 13.2703C11.0644 12.0563 12.0563 11.0644 13.2703 11.0644H18.7941C20.0081 11.0644 21 12.0563 21 13.2703C21 14.4844 20.0081 15.4762 18.7941 15.4762H13.2703Z" fill="#151549"/>
</svg>
