<svg xmlns="http://www.w3.org/2000/svg" xmlns:xlink="http://www.w3.org/1999/xlink" viewBox="0 0 211.08 378.94"><defs><style>.cls-1{fill:url(#linear-gradient);}.cls-2{fill:url(#linear-gradient-2);}.cls-3{fill:url(#linear-gradient-3);}.cls-4{fill:url(#linear-gradient-4);}.cls-5{fill:url(#linear-gradient-5);}.cls-6{fill:url(#linear-gradient-6);}.cls-7{fill:url(#linear-gradient-7);}.cls-8{fill:url(#linear-gradient-8);}.cls-9{fill:url(#linear-gradient-9);}.cls-10{fill:url(#linear-gradient-10);}.cls-11{fill:url(#linear-gradient-11);}.cls-12{fill:url(#linear-gradient-12);}.cls-13{fill:url(#linear-gradient-13);}.cls-14{fill:url(#linear-gradient-14);}.cls-15{fill:url(#linear-gradient-15);}.cls-16{fill:url(#linear-gradient-16);}.cls-17{fill:url(#linear-gradient-17);}.cls-18{fill:url(#linear-gradient-18);}.cls-19{fill:url(#linear-gradient-19);}.cls-20{fill:url(#linear-gradient-20);}.cls-21{fill:url(#linear-gradient-21);}.cls-22{fill:url(#linear-gradient-22);}.cls-23{fill:url(#linear-gradient-23);}</style><linearGradient id="linear-gradient" x1="15.09" y1="13.55" x2="207.83" y2="203.53" gradientUnits="userSpaceOnUse"><stop offset="0" stop-color="#6ac9d2"/><stop offset="1" stop-color="#527dbe"/></linearGradient><linearGradient id="linear-gradient-2" x1="-5.47" y1="34.4" x2="187.27" y2="224.39" xlink:href="#linear-gradient"/><linearGradient id="linear-gradient-3" x1="-15.63" y1="44.71" x2="177.11" y2="234.7" xlink:href="#linear-gradient"/><linearGradient id="linear-gradient-4" x1="-33.37" y1="62.71" x2="159.37" y2="252.69" xlink:href="#linear-gradient"/><linearGradient id="linear-gradient-5" x1="-44.21" y1="73.71" x2="148.53" y2="263.69" xlink:href="#linear-gradient"/><linearGradient id="linear-gradient-6" x1="-4.85" y1="33.78" x2="187.89" y2="223.76" xlink:href="#linear-gradient"/><linearGradient id="linear-gradient-7" x1="41.55" y1="-13.3" x2="234.3" y2="176.69" xlink:href="#linear-gradient"/><linearGradient id="linear-gradient-8" x1="-11.24" y1="40.26" x2="181.5" y2="230.25" xlink:href="#linear-gradient"/><linearGradient id="linear-gradient-9" x1="23.86" y1="263.41" x2="130.37" y2="425.49" xlink:href="#linear-gradient"/><linearGradient id="linear-gradient-10" x1="57.25" y1="241.47" x2="163.76" y2="403.55" xlink:href="#linear-gradient"/><linearGradient id="linear-gradient-11" x1="89.96" y1="219.97" x2="196.47" y2="382.05" xlink:href="#linear-gradient"/><linearGradient id="linear-gradient-12" x1="-32.09" y1="299.4" x2="74.42" y2="461.48" xlink:href="#linear-gradient"/><linearGradient id="linear-gradient-13" x1="-23.88" y1="294" x2="82.63" y2="456.08" xlink:href="#linear-gradient"/><linearGradient id="linear-gradient-14" x1="-14.96" y1="288.14" x2="91.55" y2="450.22" xlink:href="#linear-gradient"/><linearGradient id="linear-gradient-15" x1="-3.94" y1="280.9" x2="102.57" y2="442.98" xlink:href="#linear-gradient"/><linearGradient id="linear-gradient-16" x1="10.1" y1="271.67" x2="116.61" y2="433.75" xlink:href="#linear-gradient"/><linearGradient id="linear-gradient-17" x1="20.49" y1="264.84" x2="127" y2="426.92" xlink:href="#linear-gradient"/><linearGradient id="linear-gradient-18" x1="30.14" y1="258.5" x2="136.65" y2="420.58" xlink:href="#linear-gradient"/><linearGradient id="linear-gradient-19" x1="43.52" y1="249.71" x2="150.03" y2="411.79" xlink:href="#linear-gradient"/><linearGradient id="linear-gradient-20" x1="48.56" y1="246.4" x2="155.07" y2="408.48" xlink:href="#linear-gradient"/><linearGradient id="linear-gradient-21" x1="58.95" y1="239.57" x2="165.46" y2="401.65" xlink:href="#linear-gradient"/><linearGradient id="linear-gradient-22" x1="67.27" y1="234.1" x2="173.78" y2="396.19" xlink:href="#linear-gradient"/><linearGradient id="linear-gradient-23" x1="80.18" y1="225.62" x2="186.69" y2="387.7" xlink:href="#linear-gradient"/></defs><g id="Layer_2" data-name="Layer 2"><g id="Layer_1-2" data-name="Layer 1"><path class="cls-1" d="M151.6,143.82a13.94,13.94,0,1,0-12.37-20.36,12.16,12.16,0,0,0-12.23,0,13.93,13.93,0,1,0,1.57,6.42,14.72,14.72,0,0,0-.08-1.49,7.22,7.22,0,0,1,9.25,0,12.29,12.29,0,0,0-.08,1.49A14,14,0,0,0,151.6,143.82Zm-37-4.91a9,9,0,1,1,9-9A9,9,0,0,1,114.63,138.91Zm37-18.06a9,9,0,1,1-9,9A9,9,0,0,1,151.6,120.85Z"/><path class="cls-2" d="M180.06,109.75a2.46,2.46,0,0,0-2.46,2.45c0,36.26-35.85,73.27-44,81.26-6.11-5.94-27.58-28-38.1-53.79a2.46,2.46,0,0,0-4.55,0c-10.5,25.79-32,47.84-38.1,53.79-8.2-8-44-45-44-81.26a2.46,2.46,0,0,0-4.91,0c0,18.09,8,38.16,23.72,59.65a194.64,194.64,0,0,0,23.59,26.81,2.43,2.43,0,0,0,3.3,0c1.09-1,25.33-23.25,38.73-51.93,13.39,28.68,37.64,51,38.72,51.93a2.46,2.46,0,0,0,3.31,0,195.74,195.74,0,0,0,23.58-26.81c15.74-21.49,23.73-41.56,23.73-59.65A2.46,2.46,0,0,0,180.06,109.75Z"/><path class="cls-3" d="M59.18,131.64a2.46,2.46,0,0,0,3.48,0,11.51,11.51,0,0,1,16.27,0,2.46,2.46,0,0,0,3.48-3.47,16.43,16.43,0,0,0-23.23,0A2.45,2.45,0,0,0,59.18,131.64Z"/><path class="cls-4" d="M23.19,128.17a2.45,2.45,0,0,0,3.47,3.47,11.52,11.52,0,0,1,16.28,0,2.45,2.45,0,0,0,1.74.72,2.41,2.41,0,0,0,1.73-.72,2.45,2.45,0,0,0,0-3.47A16.42,16.42,0,0,0,23.19,128.17Z"/><path class="cls-5" d="M41.63,168a2.46,2.46,0,0,0,3.48,3.48,11.51,11.51,0,0,1,16.27,0A2.46,2.46,0,0,0,64.86,168,16.45,16.45,0,0,0,41.63,168Z"/><path class="cls-6" d="M121.5,168a2.46,2.46,0,0,0,3.47,3.48,11.52,11.52,0,0,1,16.28,0,2.46,2.46,0,1,0,3.47-3.48A16.44,16.44,0,0,0,121.5,168Z"/><path class="cls-7" d="M133.11,40.43A77.75,77.75,0,0,0,81.05,60.36a65.43,65.43,0,0,0-12.09-6,84.09,84.09,0,0,0-12.16-3.2c-7.37-1.55-14.33-3-19.66-7.78a20.94,20.94,0,0,1-7.06-15.77,22.72,22.72,0,1,1,39,15.9A2.45,2.45,0,1,0,72.55,47,27.64,27.64,0,1,0,25.16,27.63a26.12,26.12,0,0,0,8.71,19.43c6.3,5.64,14.24,7.31,21.92,8.92a79,79,0,0,1,11.44,3A55.16,55.16,0,0,1,91.09,75.65a44.06,44.06,0,0,1,9.6,27.51,2.45,2.45,0,0,0,2.45,2.45h44.58a2.45,2.45,0,0,0,2.11-1.2,27.86,27.86,0,0,0,3.68-17.82,22.92,22.92,0,0,1,5.8,16.42,2.45,2.45,0,0,0,.64,1.78,2.5,2.5,0,0,0,1.73.81h18.38a2.46,2.46,0,1,0,0-4.91H164.23a27.83,27.83,0,0,0-14-22.94,2.45,2.45,0,0,0-3.45,3.14A22.64,22.64,0,0,1,147.46,98a23.27,23.27,0,0,1-1.19,2.7H105.54A49,49,0,0,0,94.92,72.57a54.53,54.53,0,0,0-9.7-9.35,73.06,73.06,0,0,1,121,55.18v15.8H190.36a2.46,2.46,0,0,0,0,4.92h18.27a2.46,2.46,0,0,0,2.45-2.46V118.4A78.06,78.06,0,0,0,133.11,40.43Z"/><path class="cls-8" d="M68.65,68.86a2.45,2.45,0,0,0-4.16-2.6A72.68,72.68,0,0,1,5,100.65a48.2,48.2,0,0,1,30.7-42.23,2.46,2.46,0,1,0-1.76-4.59A52.81,52.81,0,0,0,0,103.16a2.45,2.45,0,0,0,1.52,2.26,2.36,2.36,0,0,0,.94.19h.11A77.6,77.6,0,0,0,68.65,68.86Z"/><path class="cls-9" d="M48.68,266.21H59.26v34.42h6.07v8.84H59.26v12H49.78v-12H20.58Zm1.26,34.42v-21.4l-13.89,21.4Z"/><path class="cls-10" d="M112.38,293.84c0,15-6.63,28.57-20.68,28.57s-20.84-13.57-20.84-28.57,6.79-28.58,20.84-28.58S112.38,278.84,112.38,293.84Zm-9.47,0c0-10.82-3.55-19.74-11.21-19.74S80.33,283,80.33,293.84,84,313.57,91.7,313.57,102.91,304.65,102.91,293.84Z"/><path class="cls-11" d="M143.33,266.21H153.9v34.42H160v8.84H153.9v12h-9.47v-12H115.22Zm1.26,34.42v-21.4l-13.89,21.4Z"/><path class="cls-12" d="M5.64,354.15h4.77c3.84,0,6.29,2,6.29,5.55s-2.45,5.56-6.29,5.56H7.85v7.31H5.64Zm4.64,9c2.49,0,4.21-1.1,4.21-3.45s-1.72-3.44-4.21-3.44H7.85v6.89Z"/><path class="cls-13" d="M29.17,364.57v8h-2v-1.76A5.14,5.14,0,0,1,23,372.89a4.33,4.33,0,0,1-4.53-4.16c0-2.37,2.08-4.05,4.82-4.05a6.8,6.8,0,0,1,3.66,1V365a2.77,2.77,0,0,0-3.08-2.87,8.4,8.4,0,0,0-3.63,1l-.92-1.84a9,9,0,0,1,4.55-1.24C27.46,360.1,29.17,362.31,29.17,364.57ZM27,369.1v-1.71a5.82,5.82,0,0,0-3.19-.87c-1.89,0-3.08,1-3.08,2.21,0,1.58,1.43,2.21,2.79,2.21A4.68,4.68,0,0,0,27,369.1Z"/><path class="cls-14" d="M41.51,371.05a4.91,4.91,0,0,1-3.92,1.84,6.42,6.42,0,0,1,0-12.79,4.72,4.72,0,0,1,4.1,2.08v-1.77h2v12.21c0,4.21-2.87,6.32-6.4,6.32A7.4,7.4,0,0,1,32,376.62L33.35,375a5.35,5.35,0,0,0,4,1.92c2.58,0,4.19-1.42,4.19-4.16Zm0-6.85a4.39,4.39,0,0,0-3.58-2.05,4.36,4.36,0,0,0,0,8.69,4.33,4.33,0,0,0,3.58-2.06Z"/><path class="cls-15" d="M58.24,366.57c0,.24,0,.42,0,.71H48.4a4.11,4.11,0,0,0,4.19,3.56,4.68,4.68,0,0,0,3.65-1.79l1.4,1.44a6.77,6.77,0,0,1-5,2.4,6.22,6.22,0,0,1-6.35-6.4,6,6,0,0,1,6.08-6.39C55.72,360.1,58.24,362.65,58.24,366.57Zm-2.15-1.13a3.67,3.67,0,0,0-3.77-3.29,3.76,3.76,0,0,0-3.86,3.29Z"/><path class="cls-16" d="M78.51,364.76v7.81H76.29v-7.45a2.69,2.69,0,0,0-2.92-3,3.82,3.82,0,0,0-3,2.05v8.37H68.14V360.41h2v1.71a4.32,4.32,0,0,1,3.74-2A4.43,4.43,0,0,1,78.51,364.76Z"/><path class="cls-17" d="M93.56,366.49a6.27,6.27,0,1,1-6.27-6.39A6.23,6.23,0,0,1,93.56,366.49Zm-2.21,0a4.07,4.07,0,1,0-4.06,4.35A4.08,4.08,0,0,0,91.35,366.49Z"/><path class="cls-18" d="M95,360.41H97.4V356.7h2.21v3.71h3.79v2H99.61V369a1.63,1.63,0,0,0,1.76,1.87,2.9,2.9,0,0,0,1.4-.51l.81,1.82a5,5,0,0,1-2.53.74,3.55,3.55,0,0,1-3.65-3.82v-6.66H95Z"/><path class="cls-19" d="M112.18,360.41h2.53v-4.18a3.72,3.72,0,0,1,3.74-3.87,5,5,0,0,1,2.55.71l-.82,1.82a3.08,3.08,0,0,0-1.42-.48,1.75,1.75,0,0,0-1.84,1.95v4.05h3.16v2h-3.16v10.16h-2.21V362.41h-2.53Z"/><path class="cls-20" d="M133.74,366.49a6.27,6.27,0,1,1-6.27-6.39A6.23,6.23,0,0,1,133.74,366.49Zm-2.21,0a4.07,4.07,0,1,0-4.06,4.35A4.08,4.08,0,0,0,131.53,366.49Z"/><path class="cls-21" d="M136.26,368.23v-7.82h2.21v7.45a2.7,2.7,0,0,0,2.92,3,3.67,3.67,0,0,0,3-2v-8.43h2.21v12.16h-2V370.7a4.32,4.32,0,0,1-3.74,2.19A4.43,4.43,0,0,1,136.26,368.23Z"/><path class="cls-22" d="M160.36,364.76v7.81h-2.21v-7.45a2.7,2.7,0,0,0-2.92-3,3.82,3.82,0,0,0-3,2.05v8.37H150V360.41h2.05v1.71a4.32,4.32,0,0,1,3.74-2A4.42,4.42,0,0,1,160.36,364.76Z"/><path class="cls-23" d="M172.7,361.91v-9.23h2.22v19.89h-2v-1.76a4.75,4.75,0,0,1-4.11,2.08,6.42,6.42,0,0,1,0-12.79A4.82,4.82,0,0,1,172.7,361.91Zm0,2.35a4.3,4.3,0,0,0-3.57-2.11,4.36,4.36,0,0,0,0,8.69,4.3,4.3,0,0,0,3.57-2.11Z"/></g></g></svg>