<svg xmlns="http://www.w3.org/2000/svg" xmlns:xlink="http://www.w3.org/1999/xlink" viewBox="0 0 1500 600"><defs><style>.cls-1{fill:url(#linear-gradient);}.cls-2,.cls-3{fill:#fff;}.cls-3{font-size:50px;font-family:Europa-Regular;}.cls-4{letter-spacing:-0.01em;}</style><linearGradient id="linear-gradient" x1="1067.4" y1="849.76" x2="432.6" y2="-249.76" gradientUnits="userSpaceOnUse"><stop offset="0" stop-color="#527dbe"/><stop offset="1" stop-color="#6ac9d2"/></linearGradient></defs><g id="Layer_2" data-name="Layer 2"><g id="Layer_1-2" data-name="Layer 1"><rect class="cls-1" width="1500" height="600"/><path class="cls-2" d="M814,289.53A17.49,17.49,0,1,0,798.5,264a15.24,15.24,0,0,0-15.34,0,17.47,17.47,0,1,0,2,8.05c0-.64,0-1.26-.1-1.88a9.07,9.07,0,0,1,11.6,0c-.06.62-.1,1.24-.1,1.88A17.51,17.51,0,0,0,814,289.53Zm-46.38-6.16A11.33,11.33,0,1,1,779,272.05,11.34,11.34,0,0,1,767.64,283.37ZM814,260.72a11.33,11.33,0,1,1-11.33,11.33A11.34,11.34,0,0,1,814,260.72Z"/><path class="cls-2" d="M849.72,246.79a3.08,3.08,0,0,0-3.08,3.08c0,45.49-45,91.91-55.26,101.93-7.66-7.46-34.6-35.09-47.79-67.47a3.08,3.08,0,0,0-5.7,0c-13.18,32.35-40.13,60-47.8,67.47-10.28-10-55.25-56.45-55.25-101.93a3.09,3.09,0,0,0-6.17,0c0,22.69,10,47.86,29.77,74.82A246.2,246.2,0,0,0,688,358.33a3.07,3.07,0,0,0,4.14,0c1.37-1.24,31.78-29.17,48.58-65.15,16.8,36,47.21,63.91,48.57,65.15a3.09,3.09,0,0,0,4.15,0A247,247,0,0,0,823,324.69c19.75-27,29.76-52.13,29.76-74.82A3.08,3.08,0,0,0,849.72,246.79Z"/><path class="cls-2" d="M698.1,274.26a3.09,3.09,0,0,0,4.36,0,14.44,14.44,0,0,1,20.41,0,3.08,3.08,0,0,0,4.36-4.36,20.62,20.62,0,0,0-29.13,0A3.09,3.09,0,0,0,698.1,274.26Z"/><path class="cls-2" d="M653,269.9a3.08,3.08,0,0,0,4.36,4.36,14.46,14.46,0,0,1,20.42,0,3.08,3.08,0,0,0,4.35-4.36A20.62,20.62,0,0,0,653,269.9Z"/><path class="cls-2" d="M790.83,159.84a97.58,97.58,0,0,0-65.3,25,83.35,83.35,0,0,0-15.17-7.5,105.1,105.1,0,0,0-15.25-4c-9.25-1.94-18-3.77-24.66-9.75a26.26,26.26,0,0,1-8.86-19.78,28.5,28.5,0,1,1,48.87,19.94,3.08,3.08,0,0,0,4.41,4.31,34.66,34.66,0,1,0-59.44-24.25,32.77,32.77,0,0,0,10.91,24.37c7.91,7.08,17.87,9.17,27.5,11.19a100.1,100.1,0,0,1,14.36,3.76c12.3,4.62,22.65,11.85,29.92,20.91a55.3,55.3,0,0,1,12,34.51,3.08,3.08,0,0,0,3.08,3.08h55.91a3.08,3.08,0,0,0,2.65-1.5,35.41,35.41,0,0,0,2.82-5.93,34.68,34.68,0,0,0,1.8-16.42,28.69,28.69,0,0,1,7.27,20.59,3.09,3.09,0,0,0,.81,2.24,3.15,3.15,0,0,0,2.17,1h23.05a3.09,3.09,0,0,0,0-6.17H829.86a34.87,34.87,0,0,0-17.51-28.77,3.08,3.08,0,0,0-4.33,3.94,28.3,28.3,0,0,1,.8,21.46,29.21,29.21,0,0,1-1.48,3.39h-51.1a61.32,61.32,0,0,0-13.31-35.27,68.13,68.13,0,0,0-12.17-11.73,91.63,91.63,0,0,1,151.71,69.2v19.83H862.65a3.08,3.08,0,1,0,0,6.16h22.9a3.08,3.08,0,0,0,3.09-3.08V257.64A97.92,97.92,0,0,0,790.83,159.84Z"/><path class="cls-2" d="M710,195.51a3.08,3.08,0,0,0-5.23-3.26,91.16,91.16,0,0,1-74.64,43.13,60.46,60.46,0,0,1,38.51-53,3.08,3.08,0,0,0-2.2-5.76,66.26,66.26,0,0,0-42.56,61.88,3.09,3.09,0,0,0,1.91,2.84,3,3,0,0,0,1.17.23h.14A97.34,97.34,0,0,0,710,195.51Z"/><text class="cls-3" transform="translate(519.2 469.21)"><tspan class="cls-4">w</tspan><tspan x="36.7" y="0">omen in technology</tspan><tspan x="186.22" y="60">oslo</tspan></text></g></g></svg>