<svg xmlns="http://www.w3.org/2000/svg" xmlns:xlink="http://www.w3.org/1999/xlink" viewBox="0 0 312.42 312.42"><defs><style>.cls-1{fill:url(#linear-gradient);}.cls-2{fill:#fff;}</style><linearGradient id="linear-gradient" x1="262.9" y1="341.01" x2="49.52" y2="-28.59" gradientUnits="userSpaceOnUse"><stop offset="0" stop-color="#31c4f3"/><stop offset="1" stop-color="#a2d18e"/></linearGradient></defs><g id="Layer_2" data-name="Layer 2"><g id="Layer_1-2" data-name="Layer 1"><rect class="cls-1" width="312.42" height="312.42"/><path class="cls-2" d="M207,193.66a13.79,13.79,0,1,0-12.24-20.14,12,12,0,0,0-12.1,0,13.77,13.77,0,1,0,1.56,6.35,14.52,14.52,0,0,0-.08-1.48,7.14,7.14,0,0,1,9.15,0,14.52,14.52,0,0,0-.08,1.48A13.81,13.81,0,0,0,207,193.66ZM170.4,188.8a8.93,8.93,0,1,1,8.94-8.93A8.95,8.95,0,0,1,170.4,188.8ZM207,170.94a8.93,8.93,0,1,1-8.93,8.93A8.93,8.93,0,0,1,207,170.94Z"/><path class="cls-2" d="M235.14,160a2.43,2.43,0,0,0-2.43,2.43c0,35.87-35.47,72.49-43.58,80.39-6-5.88-27.29-27.67-37.7-53.21a2.43,2.43,0,0,0-4.5,0c-10.39,25.51-31.65,47.33-37.7,53.21-8.11-7.9-43.58-44.52-43.58-80.39a2.43,2.43,0,0,0-4.86,0c0,17.89,7.9,37.75,23.47,59a193.85,193.85,0,0,0,23.34,26.53,2.42,2.42,0,0,0,3.27,0c1.07-1,25.06-23,38.31-51.38,13.25,28.38,37.24,50.41,38.32,51.38a2.37,2.37,0,0,0,1.63.64,2.41,2.41,0,0,0,1.64-.64,195,195,0,0,0,23.33-26.53c15.58-21.26,23.48-41.12,23.48-59A2.43,2.43,0,0,0,235.14,160Z"/><path class="cls-2" d="M115.55,181.61a2.42,2.42,0,0,0,3.43,0,11.41,11.41,0,0,1,16.11,0,2.44,2.44,0,0,0,3.44,0,2.43,2.43,0,0,0,0-3.44,16.28,16.28,0,0,0-23,0A2.43,2.43,0,0,0,115.55,181.61Z"/><path class="cls-2" d="M79.94,178.17a2.43,2.43,0,0,0,3.43,3.44,11.41,11.41,0,0,1,16.11,0,2.43,2.43,0,0,0,3.43,0,2.43,2.43,0,0,0,0-3.44A16.27,16.27,0,0,0,79.94,178.17Z"/><path class="cls-2" d="M188.69,91.36a77,77,0,0,0-51.51,19.72,64.94,64.94,0,0,0-12-5.91,82.32,82.32,0,0,0-12-3.17c-7.29-1.53-14.18-3-19.45-7.7a20.67,20.67,0,0,1-7-15.6A22.48,22.48,0,1,1,125.3,94.43a2.43,2.43,0,0,0,3.47,3.4A27.34,27.34,0,1,0,81.89,78.7,25.82,25.82,0,0,0,90.5,97.92c6.24,5.59,14.09,7.24,21.69,8.83a78.65,78.65,0,0,1,11.32,3,54.58,54.58,0,0,1,23.61,16.49,43.63,43.63,0,0,1,9.49,27.22,2.43,2.43,0,0,0,2.43,2.43h44.11a2.41,2.41,0,0,0,2.08-1.19,27,27,0,0,0,2.22-4.67,27.33,27.33,0,0,0,1.43-12.95,22.64,22.64,0,0,1,5.73,16.24,2.46,2.46,0,0,0,2.35,2.56h18.18a2.43,2.43,0,1,0,0-4.86H219.48a27.5,27.5,0,0,0-13.81-22.7,2.43,2.43,0,0,0-3.41,3.11,22.41,22.41,0,0,1,.63,16.93,23.53,23.53,0,0,1-1.18,2.67h-40.3a48.42,48.42,0,0,0-10.5-27.83,53.39,53.39,0,0,0-9.6-9.25A72.28,72.28,0,0,1,261,168.51v15.64H245.34a2.43,2.43,0,0,0,0,4.86h18.07a2.43,2.43,0,0,0,2.43-2.43V168.51A77.24,77.24,0,0,0,188.69,91.36Z"/><path class="cls-2" d="M124.92,119.5a2.43,2.43,0,0,0-4.13-2.58,71.89,71.89,0,0,1-58.87,34A47.69,47.69,0,0,1,92.3,109.16a2.43,2.43,0,1,0-1.74-4.54A52.25,52.25,0,0,0,57,153.43a2.44,2.44,0,0,0,1.5,2.24,2.52,2.52,0,0,0,.93.18h.11A76.77,76.77,0,0,0,124.92,119.5Z"/></g></g></svg>