<svg width="331" height="219" viewBox="0 0 331 219" fill="none" xmlns="http://www.w3.org/2000/svg">
<path d="M165.061 0.93934C164.475 0.353553 163.525 0.353553 162.939 0.93934L153.393 10.4853C152.808 11.0711 152.808 12.0208 153.393 12.6066C153.979 13.1924 154.929 13.1924 155.515 12.6066L164 4.12132L172.485 12.6066C173.071 13.1924 174.021 13.1924 174.607 12.6066C175.192 12.0208 175.192 11.0711 174.607 10.4853L165.061 0.93934ZM165.5 52L165.5 2L162.5 2L162.5 52L165.5 52Z" fill="black"/>
<path d="M0.93934 105.939C0.353553 106.525 0.353553 107.475 0.93934 108.061L10.4853 117.607C11.0711 118.192 12.0208 118.192 12.6066 117.607C13.1924 117.021 13.1924 116.071 12.6066 115.485L4.12132 107L12.6066 98.5147C13.1924 97.9289 13.1924 96.9792 12.6066 96.3934C12.0208 95.8076 11.0711 95.8076 10.4853 96.3934L0.93934 105.939ZM52 105.5L2 105.5L2 108.5L52 108.5L52 105.5Z" fill="black"/>
<path d="M60.0001 25.5001C59.1717 25.5001 58.5001 26.1717 58.5001 27.0001V40.5001C58.5001 41.3286 59.1717 42.0001 60.0001 42.0001C60.8286 42.0001 61.5001 41.3286 61.5001 40.5001V28.5001H73.5001C74.3286 28.5001 75.0001 27.8286 75.0001 27.0001C75.0001 26.1717 74.3286 25.5001 73.5001 25.5001H60.0001ZM96.4161 61.2948L61.0608 25.9395L58.9395 28.0608L94.2948 63.4161L96.4161 61.2948Z" fill="#E63F60"/>
<path d="M267.355 193.855C268.184 193.855 268.855 193.184 268.855 192.355L268.855 178.855C268.855 178.027 268.184 177.355 267.355 177.355C266.527 177.355 265.855 178.027 265.855 178.855L265.855 190.855L253.855 190.855C253.027 190.855 252.355 191.527 252.355 192.355C252.355 193.184 253.027 193.855 253.855 193.855L267.355 193.855ZM230.939 158.061L266.295 193.416L268.416 191.295L233.061 155.939L230.939 158.061Z" fill="#E63F60"/>
<path d="M58.5001 192.355C58.5001 193.184 59.1717 193.855 60.0001 193.855L73.5001 193.855C74.3286 193.855 75.0001 193.184 75.0001 192.355C75.0001 191.527 74.3286 190.855 73.5001 190.855L61.5001 190.855L61.5001 178.855C61.5001 178.027 60.8286 177.355 60.0001 177.355C59.1717 177.355 58.5001 178.027 58.5001 178.855L58.5001 192.355ZM94.2948 155.939L58.9395 191.295L61.0608 193.416L96.4161 158.061L94.2948 155.939Z" fill="#E63F60"/>
<path d="M268.855 27.0001C268.855 26.1717 268.184 25.5001 267.355 25.5001H253.855C253.027 25.5001 252.355 26.1717 252.355 27.0001C252.355 27.8286 253.027 28.5001 253.855 28.5001H265.855V40.5001C265.855 41.3286 266.527 42.0001 267.355 42.0001C268.184 42.0001 268.855 41.3286 268.855 40.5001V27.0001ZM233.061 63.4161L268.416 28.0608L266.295 25.9395L230.939 61.2948L233.061 63.4161Z" fill="#E63F60"/>
<path d="M162.939 218.061C163.525 218.646 164.475 218.646 165.061 218.061L174.607 208.515C175.192 207.929 175.192 206.979 174.607 206.393C174.021 205.808 173.071 205.808 172.485 206.393L164 214.879L155.515 206.393C154.929 205.808 153.979 205.808 153.393 206.393C152.808 206.979 152.808 207.929 153.393 208.515L162.939 218.061ZM162.5 167L162.5 217L165.5 217L165.5 167L162.5 167Z" fill="black"/>
<path d="M330.061 113.061C330.646 112.475 330.646 111.525 330.061 110.939L320.515 101.393C319.929 100.808 318.979 100.808 318.393 101.393C317.808 101.979 317.808 102.929 318.393 103.515L326.879 112L318.393 120.485C317.808 121.071 317.808 122.021 318.393 122.607C318.979 123.192 319.929 123.192 320.515 122.607L330.061 113.061ZM279 113.5H329V110.5H279V113.5Z" fill="black"/>
</svg>
