<svg width="331" height="219" viewBox="0 0 331 219" fill="none" xmlns="http://www.w3.org/2000/svg">
<path d="M165.061 0.939339C164.475 0.353554 163.525 0.353554 162.939 0.939339L153.393 10.4853C152.808 11.0711 152.808 12.0208 153.393 12.6066C153.979 13.1924 154.929 13.1924 155.515 12.6066L164 4.12132L172.485 12.6066C173.071 13.1924 174.021 13.1924 174.607 12.6066C175.192 12.0208 175.192 11.0711 174.607 10.4853L165.061 0.939339ZM165.5 52L165.5 2L162.5 2L162.5 52L165.5 52Z" fill="black"/>
<path d="M0.939339 105.939C0.353554 106.525 0.353554 107.475 0.939339 108.061L10.4853 117.607C11.0711 118.192 12.0208 118.192 12.6066 117.607C13.1924 117.021 13.1924 116.071 12.6066 115.485L4.12132 107L12.6066 98.5147C13.1924 97.9289 13.1924 96.9792 12.6066 96.3934C12.0208 95.8076 11.0711 95.8076 10.4853 96.3934L0.939339 105.939ZM52 105.5L2 105.5L2 108.5L52 108.5L52 105.5Z" fill="black"/>
<path d="M50.0001 15.5001C49.1717 15.5001 48.5001 16.1717 48.5001 17.0001L48.5001 30.5001C48.5001 31.3286 49.1717 32.0001 50.0001 32.0001C50.8286 32.0001 51.5001 31.3286 51.5001 30.5001L51.5001 18.5001L63.5001 18.5001C64.3286 18.5001 65.0001 17.8286 65.0001 17.0001C65.0001 16.1717 64.3286 15.5001 63.5001 15.5001L50.0001 15.5001ZM86.4161 51.2948L51.0608 15.9395L48.9395 18.0608L84.2948 53.4161L86.4161 51.2948Z" fill="#E63F60"/>
<path d="M277.355 203.855C278.184 203.855 278.855 203.184 278.855 202.355L278.855 188.855C278.855 188.027 278.184 187.355 277.355 187.355C276.527 187.355 275.855 188.027 275.855 188.855L275.855 200.855L263.855 200.855C263.027 200.855 262.355 201.527 262.355 202.355C262.355 203.184 263.027 203.855 263.855 203.855L277.355 203.855ZM240.939 168.061L276.295 203.416L278.416 201.295L243.061 165.939L240.939 168.061Z" fill="#E63F60"/>
<path d="M48.5001 202.355C48.5001 203.184 49.1717 203.855 50.0001 203.855L63.5001 203.855C64.3286 203.855 65.0001 203.184 65.0001 202.355C65.0001 201.527 64.3286 200.855 63.5001 200.855L51.5001 200.855L51.5001 188.855C51.5001 188.027 50.8286 187.355 50.0001 187.355C49.1717 187.355 48.5001 188.027 48.5001 188.855L48.5001 202.355ZM84.2948 165.939L48.9395 201.295L51.0608 203.416L86.4161 168.061L84.2948 165.939Z" fill="#E63F60"/>
<path d="M278.855 17.0001C278.855 16.1717 278.184 15.5001 277.355 15.5001L263.855 15.5001C263.027 15.5001 262.355 16.1717 262.355 17.0001C262.355 17.8286 263.027 18.5001 263.855 18.5001L275.855 18.5001L275.855 30.5001C275.855 31.3286 276.527 32.0001 277.355 32.0001C278.184 32.0001 278.855 31.3286 278.855 30.5001L278.855 17.0001ZM243.061 53.4161L278.416 18.0608L276.295 15.9395L240.939 51.2948L243.061 53.4161Z" fill="#E63F60"/>
<path d="M162.939 218.061C163.525 218.646 164.475 218.646 165.061 218.061L174.607 208.515C175.192 207.929 175.192 206.979 174.607 206.393C174.021 205.808 173.071 205.808 172.485 206.393L164 214.879L155.515 206.393C154.929 205.808 153.979 205.808 153.393 206.393C152.808 206.979 152.808 207.929 153.393 208.515L162.939 218.061ZM162.5 167L162.5 217L165.5 217L165.5 167L162.5 167Z" fill="black"/>
<path d="M330.061 113.061C330.646 112.475 330.646 111.525 330.061 110.939L320.515 101.393C319.929 100.808 318.979 100.808 318.393 101.393C317.808 101.979 317.808 102.929 318.393 103.515L326.879 112L318.393 120.485C317.808 121.071 317.808 122.021 318.393 122.607C318.979 123.192 319.929 123.192 320.515 122.607L330.061 113.061ZM279 113.5H329V110.5H279V113.5Z" fill="black"/>
</svg>
