<svg xmlns="http://www.w3.org/2000/svg" viewBox="0 0 45.35 30"><defs><style>.cls-1{fill:#bda0a0;}</style></defs><g id="Layer_2" data-name="Layer 2"><g id="Layer_1-2" data-name="Layer 1"><path class="cls-1" d="M0,29.59V0H10.37q5.39,0,8.17,2.06a7.07,7.07,0,0,1,2.78,6,6.64,6.64,0,0,1-1.12,3.83,6.37,6.37,0,0,1-3.11,2.43,6.25,6.25,0,0,1,3.59,2.3A6.8,6.8,0,0,1,22,20.89a7.84,7.84,0,0,1-2.72,6.47c-1.82,1.46-4.41,2.21-7.77,2.23ZM6.1,12.4h4.51c3.08-.06,4.61-1.28,4.61-3.68a3.41,3.41,0,0,0-1.17-2.9,6.1,6.1,0,0,0-3.68-.88H6.1Zm0,4.31v8h5.22a5,5,0,0,0,3.36-1,3.52,3.52,0,0,0,1.21-2.84q0-4.06-4.2-4.12Z"/><path class="cls-1" d="M36.3,30a10.82,10.82,0,0,1-7.88-3,10.56,10.56,0,0,1-3-7.9v-.57a13.21,13.21,0,0,1,1.28-5.93,9.37,9.37,0,0,1,3.62-4A10.24,10.24,0,0,1,35.65,7.2,9.09,9.09,0,0,1,42.75,10q2.59,2.85,2.6,8.07v2.4h-14A5.42,5.42,0,0,0,33.06,24a5.16,5.16,0,0,0,3.63,1.3A6.33,6.33,0,0,0,42,22.8L44.88,26A8.82,8.82,0,0,1,41.3,29,11.69,11.69,0,0,1,36.3,30ZM43.07,3.46h-14V.06h14Zm-7.44,8.47a3.68,3.68,0,0,0-2.84,1.19A6.15,6.15,0,0,0,31.4,16.5h8.17V16a4.39,4.39,0,0,0-1-3A3.81,3.81,0,0,0,35.63,11.93Z"/></g></g></svg>