<svg xmlns="http://www.w3.org/2000/svg" viewBox="0 0 60 60"><defs><style>.cls-1{fill:#fff;}.cls-2{fill:#ee205b;}</style></defs><g id="Layer_2" data-name="Layer 2"><g id="Layer_1-2" data-name="Layer 1"><circle class="cls-1" cx="30" cy="30" r="30"/><path class="cls-2" d="M7.33,44.59V15H17.69c3.59,0,6.32.69,8.17,2.06a7.06,7.06,0,0,1,2.79,6.05,6.64,6.64,0,0,1-1.12,3.83,6.37,6.37,0,0,1-3.11,2.43A6.28,6.28,0,0,1,28,31.67a6.8,6.8,0,0,1,1.31,4.22,7.84,7.84,0,0,1-2.72,6.47c-1.82,1.46-4.41,2.21-7.77,2.23ZM13.42,27.4h4.52c3.07-.06,4.61-1.28,4.61-3.68a3.41,3.41,0,0,0-1.17-2.9,6.15,6.15,0,0,0-3.69-.88H13.42Zm0,4.31v8h5.23a5.05,5.05,0,0,0,3.36-1,3.52,3.52,0,0,0,1.21-2.84q0-4.07-4.21-4.12Z"/><path class="cls-2" d="M43.63,45a10.8,10.8,0,0,1-7.88-3,10.56,10.56,0,0,1-3-7.9v-.57A13.35,13.35,0,0,1,34,27.63a9.46,9.46,0,0,1,3.63-4A10.21,10.21,0,0,1,43,22.2,9.11,9.11,0,0,1,50.08,25q2.6,2.85,2.59,8.07v2.4h-14A5.42,5.42,0,0,0,40.39,39,5.16,5.16,0,0,0,44,40.26a6.34,6.34,0,0,0,5.31-2.46L52.21,41A8.89,8.89,0,0,1,48.63,44,11.72,11.72,0,0,1,43.63,45ZM50.4,18.46h-14v-3.4h14ZM43,26.93a3.68,3.68,0,0,0-2.84,1.19,6.08,6.08,0,0,0-1.39,3.38H46.9V31a4.39,4.39,0,0,0-1.06-3A3.79,3.79,0,0,0,43,26.93Z"/></g></g></svg>