<?xml version="1.0" encoding="utf-8"?>
<!-- Generator: Adobe Illustrator 24.1.0, SVG Export Plug-In . SVG Version: 6.00 Build 0)  -->
<svg version="1.1" id="Layer_1" xmlns="http://www.w3.org/2000/svg" xmlns:xlink="http://www.w3.org/1999/xlink" x="0px" y="0px"
	 viewBox="0 0 40 40" style="enable-background:new 0 0 40 40;" xml:space="preserve">
<g id="Layer_2_1_">
	<g id="Layer_1-2">
		<path d="M32.8,40H7.2c-4,0-7.2-3.2-7.2-7.2V7.2C0,3.2,3.2,0,7.2,0h25.5c4,0,7.2,3.2,7.2,7.2v25.5C40,36.8,36.8,40,32.8,40z
			 M7.2,2.6c-2.6,0-4.7,2.1-4.7,4.7v25.5c0,2.6,2.1,4.7,4.7,4.7h25.5c2.6,0,4.7-2.1,4.7-4.7V7.2c0-2.6-2.1-4.7-4.7-4.7L7.2,2.6z"/>
		<path d="M20,30c-5.5,0-10-4.5-10-10s4.5-10,10-10s10,4.5,10,10S25.5,30,20,30z M20,12.6c-4.1,0-7.4,3.3-7.4,7.4s3.3,7.4,7.4,7.4
			c4.1,0,7.4-3.3,7.4-7.4c0,0,0,0,0,0C27.4,15.9,24.1,12.6,20,12.6L20,12.6L20,12.6z"/>
		<circle cx="31.4" cy="8.6" r="3"/>
	</g>
</g>
</svg>
