<svg xmlns="http://www.w3.org/2000/svg" viewBox="0 0 40 40"><defs><style>.cls-1{fill:#ee205b;}</style></defs><g id="Layer_2" data-name="Layer 2"><g id="Layer_1-2" data-name="Layer 1"><path class="cls-1" d="M32.77,40H7.23A7.25,7.25,0,0,1,0,32.77V7.23A7.25,7.25,0,0,1,7.23,0H32.77A7.25,7.25,0,0,1,40,7.23V32.77A7.25,7.25,0,0,1,32.77,40ZM7.23,2.55A4.69,4.69,0,0,0,2.55,7.23V32.77a4.69,4.69,0,0,0,4.68,4.68H32.77a4.69,4.69,0,0,0,4.68-4.68V7.23a4.69,4.69,0,0,0-4.68-4.68Z"/><path class="cls-1" d="M20,30A10,10,0,1,1,30,20,10,10,0,0,1,20,30Zm0-17.41A7.43,7.43,0,1,0,27.43,20,7.43,7.43,0,0,0,20,12.57Z"/><circle class="cls-1" cx="31.38" cy="8.62" r="3.03"/></g></g></svg>