<svg xmlns="http://www.w3.org/2000/svg" viewBox="0 0 60 60"><defs><style>.cls-1{fill:#fff;}.cls-2{fill:#ee205b;}</style></defs><g id="Layer_2" data-name="Layer 2"><g id="Layer_1-2" data-name="Layer 1"><circle class="cls-1" cx="30" cy="30" r="30"/><path class="cls-2" d="M42.77,50H17.23A7.25,7.25,0,0,1,10,42.77V17.23A7.25,7.25,0,0,1,17.23,10H42.77A7.25,7.25,0,0,1,50,17.23V42.77A7.25,7.25,0,0,1,42.77,50ZM17.23,12.55a4.69,4.69,0,0,0-4.68,4.68V42.77a4.69,4.69,0,0,0,4.68,4.68H42.77a4.69,4.69,0,0,0,4.68-4.68V17.23a4.69,4.69,0,0,0-4.68-4.68Z"/><path class="cls-2" d="M30,40A10,10,0,1,1,40,30,10,10,0,0,1,30,40Zm0-17.41A7.43,7.43,0,1,0,37.43,30,7.43,7.43,0,0,0,30,22.57Z"/><circle class="cls-2" cx="41.38" cy="18.62" r="3.03"/></g></g></svg>