<svg xmlns="http://www.w3.org/2000/svg" viewBox="0 0 37.04 38"><defs><style>.cls-1{fill:#ee205b;}</style></defs><g id="Layer_2" data-name="Layer 2"><g id="Layer_1-2" data-name="Layer 1"><path class="cls-1" d="M0,3.75A3.56,3.56,0,0,1,1.09,1.06,4.1,4.1,0,0,1,4.07,0,4.11,4.11,0,0,1,7,1.06,3.54,3.54,0,0,1,8.15,3.75,3.58,3.58,0,0,1,7,6.46a4.11,4.11,0,0,1-3,1.06A4.09,4.09,0,0,1,1.12,6.46,3.55,3.55,0,0,1,0,3.75ZM7.72,38H.43V10.79H7.72Z"/><path class="cls-1" d="M20.4,10.79l.22,3.14a9.5,9.5,0,0,1,7.82-3.64c2.89,0,5,.84,6.44,2.54S37,17.05,37,20.42V38H29.78V20.6a4.72,4.72,0,0,0-1-3.36,4.49,4.49,0,0,0-3.34-1,5,5,0,0,0-4.61,2.61V38H13.56V10.79Z"/></g></g></svg>