<svg xmlns="http://www.w3.org/2000/svg" viewBox="0 0 60 60"><defs><style>.cls-1{fill:#fff;}.cls-2{fill:#ee205b;}</style></defs><g id="Layer_2" data-name="Layer 2"><g id="Layer_1-2" data-name="Layer 1"><circle class="cls-1" cx="30" cy="30" r="30"/><path class="cls-2" d="M11.48,14.75a3.56,3.56,0,0,1,1.09-2.69,4.08,4.08,0,0,1,3-1.06,4.11,4.11,0,0,1,3,1.06,3.54,3.54,0,0,1,1.11,2.69,3.58,3.58,0,0,1-1.12,2.71,4.11,4.11,0,0,1-3,1.06,4.09,4.09,0,0,1-3-1.06A3.55,3.55,0,0,1,11.48,14.75ZM19.2,49H11.91V21.79H19.2Z"/><path class="cls-2" d="M31.87,21.79l.23,3.14a9.49,9.49,0,0,1,7.82-3.64c2.88,0,5,.84,6.44,2.54s2.13,4.22,2.16,7.59V49H41.25V31.6a4.72,4.72,0,0,0-1-3.36,4.5,4.5,0,0,0-3.35-1,5,5,0,0,0-4.6,2.61V49H25V21.79Z"/></g></g></svg>