<?xml version="1.0" encoding="utf-8"?>
<!-- Generator: Adobe Illustrator 24.1.0, SVG Export Plug-In . SVG Version: 6.00 Build 0)  -->
<svg version="1.1" id="Layer_1" xmlns="http://www.w3.org/2000/svg" xmlns:xlink="http://www.w3.org/1999/xlink" x="0px" y="0px"
	 viewBox="0 0 37 38" style="enable-background:new 0 0 37 38;" xml:space="preserve">
<g id="Layer_2_1_">
	<g id="Layer_1-2">
		<path d="M0,3.8c0-1,0.4-2,1.1-2.7C1.9,0.3,3-0.1,4.1,0C5.1,0,6.2,0.3,7,1.1c0.8,0.7,1.2,1.7,1.1,2.7c0,1-0.4,2-1.1,2.7
			C6.2,7.2,5.1,7.6,4,7.5c-1.1,0-2.1-0.3-2.9-1.1C0.4,5.8,0,4.8,0,3.8z M7.7,38H0.4V10.8h7.3V38z"/>
		<path d="M20.4,10.8l0.2,3.1c1.9-2.4,4.8-3.7,7.8-3.6c2.9,0,5,0.8,6.4,2.5s2.1,4.2,2.1,7.6V38h-7.2V20.6c0.1-1.2-0.2-2.4-1-3.4
			c-0.9-0.8-2.1-1.1-3.3-1c-1.9-0.1-3.7,0.9-4.6,2.6V38h-7.3V10.8H20.4z"/>
	</g>
</g>
</svg>
