<svg width="250" height="72" viewBox="0 0 250 72" fill="none" xmlns="http://www.w3.org/2000/svg">
<g clip-path="url(#clip0_603_3698)">
<path d="M79.3793 39.8133L66.4993 27L53.6193 39.8133C53.4673 39.9291 53.342 40.0761 53.2518 40.2444C53.1616 40.4128 53.1086 40.5986 53.0965 40.7892C53.0843 40.9798 53.1132 41.1708 53.1813 41.3493C53.2494 41.5278 53.355 41.6895 53.491 41.8236C53.6271 41.9577 53.7903 42.061 53.9697 42.1266C54.1491 42.1921 54.3406 42.2183 54.531 42.2034C54.7214 42.1885 54.9064 42.1329 55.0735 42.0403C55.2405 41.9477 55.3858 41.8203 55.4993 41.6667L65.166 32.08V57.5867C65.166 57.9403 65.3064 58.2794 65.5565 58.5295C65.8065 58.7795 66.1457 58.92 66.4993 58.92C66.8529 58.92 67.1921 58.7795 67.4421 58.5295C67.6922 58.2794 67.8326 57.9403 67.8326 57.5867V32.08L77.4993 41.6667C77.7504 41.916 78.0902 42.0553 78.444 42.0541C78.7978 42.0528 79.1367 41.9111 79.386 41.66C79.6353 41.4089 79.7746 41.0691 79.7734 40.7153C79.7721 40.3615 79.6304 40.0226 79.3793 39.7733V39.8133Z" fill="#307A0D"/>
</g>
<path d="M101.532 24.02L111.912 18.2H117.912V59H110.832V26.12L104.712 29.48L101.532 24.02ZM157.089 47.9C157.089 50.1 156.569 52.08 155.529 53.84C154.529 55.6 152.989 57 150.909 58.04C148.829 59.08 146.189 59.6 142.989 59.6C139.829 59.6 137.269 59.12 135.309 58.16C133.349 57.16 131.909 55.86 130.989 54.26C130.069 52.66 129.609 50.88 129.609 48.92C129.609 46.96 130.069 45.16 130.989 43.52C131.909 41.84 133.429 40.3 135.549 38.9C133.869 37.78 132.569 36.4 131.649 34.76C130.769 33.12 130.329 31.2 130.329 29C130.329 26.88 130.829 24.96 131.829 23.24C132.829 21.52 134.289 20.16 136.209 19.16C138.129 18.12 140.429 17.6 143.109 17.6C145.989 17.6 148.409 18.08 150.369 19.04C152.329 20 153.789 21.3 154.749 22.94C155.749 24.54 156.249 26.34 156.249 28.34C156.249 30.1 155.829 31.76 154.989 33.32C154.189 34.84 152.829 36.26 150.909 37.58C155.029 39.9 157.089 43.34 157.089 47.9ZM142.569 34.52L145.509 35.42C146.869 34.26 147.809 33.2 148.329 32.24C148.889 31.24 149.169 30.22 149.169 29.18C149.169 27.58 148.649 26.32 147.609 25.4C146.609 24.44 145.169 23.96 143.289 23.96C141.409 23.96 139.949 24.42 138.909 25.34C137.909 26.26 137.409 27.52 137.409 29.12C137.409 31.64 139.129 33.44 142.569 34.52ZM136.689 47.9C136.689 49.5 137.269 50.8 138.429 51.8C139.589 52.76 141.229 53.24 143.349 53.24C145.429 53.24 147.049 52.76 148.209 51.8C149.409 50.84 150.009 49.56 150.009 47.96C150.009 46.76 149.569 45.68 148.689 44.72C147.849 43.72 146.389 42.9 144.309 42.26L141.069 41.24C139.589 42.44 138.489 43.56 137.769 44.6C137.049 45.64 136.689 46.74 136.689 47.9ZM181.723 26.24V28.1C181.723 30.7 181.023 32.76 179.623 34.28C178.263 35.76 176.223 36.5 173.503 36.5C170.783 36.5 168.723 35.76 167.323 34.28C165.963 32.76 165.283 30.7 165.283 28.1V26.24C165.283 23.64 165.963 21.6 167.323 20.12C168.723 18.64 170.783 17.9 173.503 17.9C176.223 17.9 178.263 18.64 179.623 20.12C181.023 21.6 181.723 23.64 181.723 26.24ZM192.223 18.2H197.623L177.883 59H172.483L192.223 18.2ZM176.923 26.24C176.923 23.68 175.783 22.4 173.503 22.4C171.263 22.4 170.143 23.68 170.143 26.24V28.1C170.143 30.66 171.263 31.94 173.503 31.94C175.783 31.94 176.923 30.66 176.923 28.1V26.24ZM204.883 49.04V50.9C204.883 53.5 204.183 55.56 202.783 57.08C201.423 58.56 199.383 59.3 196.663 59.3C193.943 59.3 191.883 58.56 190.483 57.08C189.123 55.56 188.443 53.5 188.443 50.9V49.04C188.443 46.44 189.123 44.4 190.483 42.92C191.883 41.44 193.943 40.7 196.663 40.7C199.383 40.7 201.423 41.44 202.783 42.92C204.183 44.4 204.883 46.44 204.883 49.04ZM200.083 49.04C200.083 46.48 198.943 45.2 196.663 45.2C194.423 45.2 193.303 46.48 193.303 49.04V50.9C193.303 53.46 194.423 54.74 196.663 54.74C198.943 54.74 200.083 53.46 200.083 50.9V49.04Z" fill="#0A0A0A"/>
<defs>
<clipPath id="clip0_603_3698">
<rect width="48" height="48" fill="white" transform="translate(42.5 12)"/>
</clipPath>
</defs>
</svg>
