<svg width="165" height="72" viewBox="0 0 165 72" fill="none" xmlns="http://www.w3.org/2000/svg">
<g clip-path="url(#clip0_603_3698)">
<path d="M36.8793 39.8133L23.9993 27L11.1193 39.8133C10.9673 39.9291 10.842 40.0761 10.7518 40.2444C10.6616 40.4128 10.6086 40.5986 10.5965 40.7892C10.5843 40.9798 10.6132 41.1708 10.6813 41.3493C10.7494 41.5278 10.855 41.6895 10.991 41.8236C11.1271 41.9577 11.2903 42.061 11.4697 42.1266C11.6491 42.1921 11.8406 42.2183 12.031 42.2034C12.2214 42.1885 12.4064 42.1329 12.5735 42.0403C12.7405 41.9477 12.8858 41.8203 12.9993 41.6667L22.666 32.08V57.5867C22.666 57.9403 22.8064 58.2794 23.0565 58.5295C23.3065 58.7795 23.6457 58.92 23.9993 58.92C24.3529 58.92 24.6921 58.7795 24.9421 58.5295C25.1922 58.2794 25.3326 57.9403 25.3326 57.5867V32.08L34.9993 41.6667C35.2504 41.916 35.5902 42.0553 35.944 42.0541C36.2978 42.0528 36.6367 41.9111 36.886 41.66C37.1353 41.4089 37.2746 41.0691 37.2734 40.7153C37.2721 40.3615 37.1304 40.0226 36.8793 39.7733V39.8133Z" fill="#3EA60C"/>
</g>
<path d="M59.0316 24.02L69.4116 18.2H75.4116V59H68.3316V26.12L62.2116 29.48L59.0316 24.02ZM114.589 47.9C114.589 50.1 114.069 52.08 113.029 53.84C112.029 55.6 110.489 57 108.409 58.04C106.329 59.08 103.689 59.6 100.489 59.6C97.3288 59.6 94.7688 59.12 92.8088 58.16C90.8488 57.16 89.4088 55.86 88.4888 54.26C87.5688 52.66 87.1088 50.88 87.1088 48.92C87.1088 46.96 87.5688 45.16 88.4888 43.52C89.4088 41.84 90.9288 40.3 93.0488 38.9C91.3688 37.78 90.0688 36.4 89.1488 34.76C88.2688 33.12 87.8288 31.2 87.8288 29C87.8288 26.88 88.3288 24.96 89.3288 23.24C90.3288 21.52 91.7888 20.16 93.7088 19.16C95.6288 18.12 97.9288 17.6 100.609 17.6C103.489 17.6 105.909 18.08 107.869 19.04C109.829 20 111.289 21.3 112.249 22.94C113.249 24.54 113.749 26.34 113.749 28.34C113.749 30.1 113.329 31.76 112.489 33.32C111.689 34.84 110.329 36.26 108.409 37.58C112.529 39.9 114.589 43.34 114.589 47.9ZM100.069 34.52L103.009 35.42C104.369 34.26 105.309 33.2 105.829 32.24C106.389 31.24 106.669 30.22 106.669 29.18C106.669 27.58 106.149 26.32 105.109 25.4C104.109 24.44 102.669 23.96 100.789 23.96C98.9088 23.96 97.4488 24.42 96.4088 25.34C95.4088 26.26 94.9088 27.52 94.9088 29.12C94.9088 31.64 96.6288 33.44 100.069 34.52ZM94.1888 47.9C94.1888 49.5 94.7688 50.8 95.9288 51.8C97.0888 52.76 98.7288 53.24 100.849 53.24C102.929 53.24 104.549 52.76 105.709 51.8C106.909 50.84 107.509 49.56 107.509 47.96C107.509 46.76 107.069 45.68 106.189 44.72C105.349 43.72 103.889 42.9 101.809 42.26L98.5688 41.24C97.0888 42.44 95.9888 43.56 95.2688 44.6C94.5488 45.64 94.1888 46.74 94.1888 47.9ZM139.223 26.24V28.1C139.223 30.7 138.523 32.76 137.123 34.28C135.763 35.76 133.723 36.5 131.003 36.5C128.283 36.5 126.223 35.76 124.823 34.28C123.463 32.76 122.783 30.7 122.783 28.1V26.24C122.783 23.64 123.463 21.6 124.823 20.12C126.223 18.64 128.283 17.9 131.003 17.9C133.723 17.9 135.763 18.64 137.123 20.12C138.523 21.6 139.223 23.64 139.223 26.24ZM149.723 18.2H155.123L135.383 59H129.983L149.723 18.2ZM134.423 26.24C134.423 23.68 133.283 22.4 131.003 22.4C128.763 22.4 127.643 23.68 127.643 26.24V28.1C127.643 30.66 128.763 31.94 131.003 31.94C133.283 31.94 134.423 30.66 134.423 28.1V26.24ZM162.383 49.04V50.9C162.383 53.5 161.683 55.56 160.283 57.08C158.923 58.56 156.883 59.3 154.163 59.3C151.443 59.3 149.383 58.56 147.983 57.08C146.623 55.56 145.943 53.5 145.943 50.9V49.04C145.943 46.44 146.623 44.4 147.983 42.92C149.383 41.44 151.443 40.7 154.163 40.7C156.883 40.7 158.923 41.44 160.283 42.92C161.683 44.4 162.383 46.44 162.383 49.04ZM157.583 49.04C157.583 46.48 156.443 45.2 154.163 45.2C151.923 45.2 150.803 46.48 150.803 49.04V50.9C150.803 53.46 151.923 54.74 154.163 54.74C156.443 54.74 157.583 53.46 157.583 50.9V49.04Z" fill="#0A0A0A"/>
<defs>
<clipPath id="clip0_603_3698">
<rect width="48" height="48" fill="white" transform="translate(0 12)"/>
</clipPath>
</defs>
</svg>
