<svg width="265" height="72" viewBox="0 0 265 72" fill="none" xmlns="http://www.w3.org/2000/svg">
<g clip-path="url(#clip0_603_3698)">
<path d="M86.8793 39.8133L73.9993 27L61.1193 39.8133C60.9673 39.9291 60.842 40.0761 60.7518 40.2444C60.6616 40.4128 60.6086 40.5986 60.5965 40.7892C60.5843 40.9798 60.6132 41.1708 60.6813 41.3493C60.7494 41.5278 60.855 41.6895 60.991 41.8236C61.1271 41.9577 61.2903 42.061 61.4697 42.1266C61.6491 42.1921 61.8406 42.2183 62.031 42.2034C62.2214 42.1885 62.4064 42.1329 62.5735 42.0403C62.7405 41.9477 62.8858 41.8203 62.9993 41.6667L72.666 32.08V57.5867C72.666 57.9403 72.8064 58.2794 73.0565 58.5295C73.3065 58.7795 73.6457 58.92 73.9993 58.92C74.3529 58.92 74.6921 58.7795 74.9421 58.5295C75.1922 58.2794 75.3326 57.9403 75.3326 57.5867V32.08L84.9993 41.6667C85.2504 41.916 85.5902 42.0553 85.944 42.0541C86.2978 42.0528 86.6367 41.9111 86.886 41.66C87.1353 41.4089 87.2746 41.0691 87.2734 40.7153C87.2721 40.3615 87.1304 40.0226 86.8793 39.7733V39.8133Z" fill="#3EA60C"/>
</g>
<path d="M109.032 24.02L119.412 18.2H125.412V59H118.332V26.12L112.212 29.48L109.032 24.02ZM164.589 47.9C164.589 50.1 164.069 52.08 163.029 53.84C162.029 55.6 160.489 57 158.409 58.04C156.329 59.08 153.689 59.6 150.489 59.6C147.329 59.6 144.769 59.12 142.809 58.16C140.849 57.16 139.409 55.86 138.489 54.26C137.569 52.66 137.109 50.88 137.109 48.92C137.109 46.96 137.569 45.16 138.489 43.52C139.409 41.84 140.929 40.3 143.049 38.9C141.369 37.78 140.069 36.4 139.149 34.76C138.269 33.12 137.829 31.2 137.829 29C137.829 26.88 138.329 24.96 139.329 23.24C140.329 21.52 141.789 20.16 143.709 19.16C145.629 18.12 147.929 17.6 150.609 17.6C153.489 17.6 155.909 18.08 157.869 19.04C159.829 20 161.289 21.3 162.249 22.94C163.249 24.54 163.749 26.34 163.749 28.34C163.749 30.1 163.329 31.76 162.489 33.32C161.689 34.84 160.329 36.26 158.409 37.58C162.529 39.9 164.589 43.34 164.589 47.9ZM150.069 34.52L153.009 35.42C154.369 34.26 155.309 33.2 155.829 32.24C156.389 31.24 156.669 30.22 156.669 29.18C156.669 27.58 156.149 26.32 155.109 25.4C154.109 24.44 152.669 23.96 150.789 23.96C148.909 23.96 147.449 24.42 146.409 25.34C145.409 26.26 144.909 27.52 144.909 29.12C144.909 31.64 146.629 33.44 150.069 34.52ZM144.189 47.9C144.189 49.5 144.769 50.8 145.929 51.8C147.089 52.76 148.729 53.24 150.849 53.24C152.929 53.24 154.549 52.76 155.709 51.8C156.909 50.84 157.509 49.56 157.509 47.96C157.509 46.76 157.069 45.68 156.189 44.72C155.349 43.72 153.889 42.9 151.809 42.26L148.569 41.24C147.089 42.44 145.989 43.56 145.269 44.6C144.549 45.64 144.189 46.74 144.189 47.9ZM189.223 26.24V28.1C189.223 30.7 188.523 32.76 187.123 34.28C185.763 35.76 183.723 36.5 181.003 36.5C178.283 36.5 176.223 35.76 174.823 34.28C173.463 32.76 172.783 30.7 172.783 28.1V26.24C172.783 23.64 173.463 21.6 174.823 20.12C176.223 18.64 178.283 17.9 181.003 17.9C183.723 17.9 185.763 18.64 187.123 20.12C188.523 21.6 189.223 23.64 189.223 26.24ZM199.723 18.2H205.123L185.383 59H179.983L199.723 18.2ZM184.423 26.24C184.423 23.68 183.283 22.4 181.003 22.4C178.763 22.4 177.643 23.68 177.643 26.24V28.1C177.643 30.66 178.763 31.94 181.003 31.94C183.283 31.94 184.423 30.66 184.423 28.1V26.24ZM212.383 49.04V50.9C212.383 53.5 211.683 55.56 210.283 57.08C208.923 58.56 206.883 59.3 204.163 59.3C201.443 59.3 199.383 58.56 197.983 57.08C196.623 55.56 195.943 53.5 195.943 50.9V49.04C195.943 46.44 196.623 44.4 197.983 42.92C199.383 41.44 201.443 40.7 204.163 40.7C206.883 40.7 208.923 41.44 210.283 42.92C211.683 44.4 212.383 46.44 212.383 49.04ZM207.583 49.04C207.583 46.48 206.443 45.2 204.163 45.2C201.923 45.2 200.803 46.48 200.803 49.04V50.9C200.803 53.46 201.923 54.74 204.163 54.74C206.443 54.74 207.583 53.46 207.583 50.9V49.04Z" fill="#0A0A0A"/>
<defs>
<clipPath id="clip0_603_3698">
<rect width="48" height="48" fill="white" transform="translate(50 12)"/>
</clipPath>
</defs>
</svg>
