<svg width="250" height="72" viewBox="0 0 250 72" fill="none" xmlns="http://www.w3.org/2000/svg">
<path d="M27.2665 59H2.54648V53.3C2.54648 50.42 2.92648 48.02 3.68648 46.1C4.44648 44.14 5.46648 42.54 6.74648 41.3C8.02648 40.02 9.42648 39 10.9465 38.24L15.0265 36.2C16.5865 35.4 17.8465 34.56 18.8065 33.68C19.8065 32.76 20.3065 31.58 20.3065 30.14V29.06C20.3065 27.58 19.7865 26.42 18.7465 25.58C17.7465 24.7 16.1265 24.26 13.8865 24.26C12.5265 24.26 11.1465 24.46 9.74649 24.86C8.38648 25.26 6.72648 25.82 4.76648 26.54L2.54648 20.36C4.78648 19.36 6.82648 18.66 8.66648 18.26C10.5465 17.82 12.3665 17.6 14.1265 17.6C17.3665 17.6 19.9465 18.12 21.8665 19.16C23.8265 20.2 25.2265 21.6 26.0665 23.36C26.9465 25.08 27.3865 26.98 27.3865 29.06V30.14C27.3865 32.3 26.9465 34.14 26.0665 35.66C25.2265 37.18 24.1065 38.46 22.7065 39.5C21.3065 40.54 19.7865 41.46 18.1465 42.26L14.0665 44.3C12.5865 45.02 11.4865 46.02 10.7665 47.3C10.0865 48.58 9.70648 50.22 9.62648 52.22H27.2665V59ZM54.2595 59L47.9595 48.8L41.7795 59H34.5795L44.4195 43.4L35.2395 28.58H42.6795L48.3195 37.64L53.7795 28.58H60.9795L51.7995 43.1L61.6995 59H54.2595Z" fill="#0A0A0A"/>
</svg>
