<svg width="250" height="72" viewBox="0 0 250 72" fill="none" xmlns="http://www.w3.org/2000/svg">
<path d="M120.266 59H95.5465V53.3C95.5465 50.42 95.9265 48.02 96.6865 46.1C97.4465 44.14 98.4665 42.54 99.7465 41.3C101.026 40.02 102.426 39 103.946 38.24L108.026 36.2C109.586 35.4 110.846 34.56 111.806 33.68C112.806 32.76 113.306 31.58 113.306 30.14V29.06C113.306 27.58 112.786 26.42 111.746 25.58C110.746 24.7 109.126 24.26 106.886 24.26C105.526 24.26 104.146 24.46 102.746 24.86C101.386 25.26 99.7265 25.82 97.7665 26.54L95.5465 20.36C97.7865 19.36 99.8265 18.66 101.666 18.26C103.546 17.82 105.366 17.6 107.126 17.6C110.366 17.6 112.946 18.12 114.866 19.16C116.826 20.2 118.226 21.6 119.066 23.36C119.946 25.08 120.386 26.98 120.386 29.06V30.14C120.386 32.3 119.946 34.14 119.066 35.66C118.226 37.18 117.106 38.46 115.706 39.5C114.306 40.54 112.786 41.46 111.146 42.26L107.066 44.3C105.586 45.02 104.486 46.02 103.766 47.3C103.086 48.58 102.706 50.22 102.626 52.22H120.266V59ZM147.259 59L140.959 48.8L134.779 59H127.579L137.419 43.4L128.239 28.58H135.679L141.319 37.64L146.779 28.58H153.979L144.799 43.1L154.699 59H147.259Z" fill="#0A0A0A"/>
</svg>
