<svg width="170" height="72" viewBox="0 0 170 72" fill="none" xmlns="http://www.w3.org/2000/svg">
<g clip-path="url(#clip0_603_3704)">
<path d="M36.8793 39.8133L23.9993 27L11.1193 39.8133C10.9673 39.9291 10.842 40.0761 10.7518 40.2444C10.6616 40.4128 10.6086 40.5986 10.5965 40.7892C10.5843 40.9798 10.6132 41.1708 10.6813 41.3493C10.7494 41.5278 10.855 41.6895 10.991 41.8236C11.1271 41.9577 11.2903 42.061 11.4697 42.1266C11.6491 42.1921 11.8406 42.2183 12.031 42.2034C12.2214 42.1885 12.4064 42.1329 12.5735 42.0403C12.7405 41.9477 12.8858 41.8203 12.9993 41.6667L22.666 32.08V57.5867C22.666 57.9403 22.8064 58.2794 23.0565 58.5295C23.3065 58.7795 23.6457 58.92 23.9993 58.92C24.3529 58.92 24.6921 58.7795 24.9421 58.5295C25.1922 58.2794 25.3326 57.9403 25.3326 57.5867V32.08L34.9993 41.6667C35.2504 41.916 35.5902 42.0553 35.944 42.0541C36.2978 42.0528 36.6367 41.9111 36.886 41.66C37.1353 41.4089 37.2746 41.0691 37.2734 40.7153C37.2721 40.3615 37.1304 40.0226 36.8793 39.7733V39.8133Z" fill="#3EA60C"/>
</g>
<path d="M62.3442 37.94L63.5442 18.2H84.4242V24.98H69.9042L69.3642 33.98C70.7642 33.62 72.2642 33.44 73.8642 33.44C77.8242 33.44 80.9242 34.48 83.1642 36.56C85.4042 38.6 86.5242 41.62 86.5242 45.62V47.24C86.5242 49.48 86.0642 51.54 85.1442 53.42C84.2242 55.3 82.7442 56.8 80.7042 57.92C78.7042 59.04 76.0442 59.6 72.7242 59.6C70.8842 59.6 68.9642 59.38 66.9642 58.94C65.0042 58.5 62.8442 57.76 60.4842 56.72L62.7042 50.54C64.8242 51.38 66.6042 52 68.0442 52.4C69.5242 52.76 71.0042 52.94 72.4842 52.94C74.7242 52.94 76.4042 52.48 77.5242 51.56C78.6842 50.64 79.2642 49.2 79.2642 47.24V45.62C79.2642 43.86 78.7442 42.46 77.7042 41.42C76.7042 40.38 75.0842 39.86 72.8442 39.86C71.8442 39.86 70.8042 40 69.7242 40.28C68.6442 40.52 67.4842 40.88 66.2442 41.36L62.3442 37.94ZM119.558 59H94.8375V53.3C94.8375 50.42 95.2175 48.02 95.9775 46.1C96.7375 44.14 97.7575 42.54 99.0375 41.3C100.318 40.02 101.718 39 103.238 38.24L107.318 36.2C108.878 35.4 110.138 34.56 111.098 33.68C112.098 32.76 112.598 31.58 112.598 30.14V29.06C112.598 27.58 112.078 26.42 111.038 25.58C110.038 24.7 108.418 24.26 106.178 24.26C104.818 24.26 103.438 24.46 102.038 24.86C100.678 25.26 99.0175 25.82 97.0575 26.54L94.8375 20.36C97.0775 19.36 99.1175 18.66 100.958 18.26C102.838 17.82 104.658 17.6 106.418 17.6C109.658 17.6 112.238 18.12 114.158 19.16C116.118 20.2 117.518 21.6 118.358 23.36C119.238 25.08 119.678 26.98 119.678 29.06V30.14C119.678 32.3 119.238 34.14 118.358 35.66C117.518 37.18 116.398 38.46 114.998 39.5C113.598 40.54 112.078 41.46 110.438 42.26L106.358 44.3C104.878 45.02 103.778 46.02 103.058 47.3C102.378 48.58 101.998 50.22 101.918 52.22H119.558V59ZM144.33 26.24V28.1C144.33 30.7 143.63 32.76 142.23 34.28C140.87 35.76 138.83 36.5 136.11 36.5C133.39 36.5 131.33 35.76 129.93 34.28C128.57 32.76 127.89 30.7 127.89 28.1V26.24C127.89 23.64 128.57 21.6 129.93 20.12C131.33 18.64 133.39 17.9 136.11 17.9C138.83 17.9 140.87 18.64 142.23 20.12C143.63 21.6 144.33 23.64 144.33 26.24ZM154.83 18.2H160.23L140.49 59H135.09L154.83 18.2ZM139.53 26.24C139.53 23.68 138.39 22.4 136.11 22.4C133.87 22.4 132.75 23.68 132.75 26.24V28.1C132.75 30.66 133.87 31.94 136.11 31.94C138.39 31.94 139.53 30.66 139.53 28.1V26.24ZM167.49 49.04V50.9C167.49 53.5 166.79 55.56 165.39 57.08C164.03 58.56 161.99 59.3 159.27 59.3C156.55 59.3 154.49 58.56 153.09 57.08C151.73 55.56 151.05 53.5 151.05 50.9V49.04C151.05 46.44 151.73 44.4 153.09 42.92C154.49 41.44 156.55 40.7 159.27 40.7C161.99 40.7 164.03 41.44 165.39 42.92C166.79 44.4 167.49 46.44 167.49 49.04ZM162.69 49.04C162.69 46.48 161.55 45.2 159.27 45.2C157.03 45.2 155.91 46.48 155.91 49.04V50.9C155.91 53.46 157.03 54.74 159.27 54.74C161.55 54.74 162.69 53.46 162.69 50.9V49.04Z" fill="#0A0A0A"/>
<defs>
<clipPath id="clip0_603_3704">
<rect width="48" height="48" fill="white" transform="translate(0 12)"/>
</clipPath>
</defs>
</svg>
