<svg width="270" height="72" viewBox="0 0 270 72" fill="none" xmlns="http://www.w3.org/2000/svg">
<g clip-path="url(#clip0_603_3704)">
<path d="M86.8793 39.8133L73.9993 27L61.1193 39.8133C60.9673 39.9291 60.842 40.0761 60.7518 40.2444C60.6616 40.4128 60.6086 40.5986 60.5965 40.7892C60.5843 40.9798 60.6132 41.1708 60.6813 41.3493C60.7494 41.5278 60.855 41.6895 60.991 41.8236C61.1271 41.9577 61.2903 42.061 61.4697 42.1266C61.6491 42.1921 61.8406 42.2183 62.031 42.2034C62.2214 42.1885 62.4064 42.1329 62.5735 42.0403C62.7405 41.9477 62.8858 41.8203 62.9993 41.6667L72.666 32.08V57.5867C72.666 57.9403 72.8064 58.2794 73.0565 58.5295C73.3065 58.7795 73.6457 58.92 73.9993 58.92C74.3529 58.92 74.6921 58.7795 74.9421 58.5295C75.1922 58.2794 75.3326 57.9403 75.3326 57.5867V32.08L84.9993 41.6667C85.2504 41.916 85.5902 42.0553 85.944 42.0541C86.2978 42.0528 86.6367 41.9111 86.886 41.66C87.1353 41.4089 87.2746 41.0691 87.2734 40.7153C87.2721 40.3615 87.1304 40.0226 86.8793 39.7733V39.8133Z" fill="#3EA60C"/>
</g>
<path d="M112.344 37.94L113.544 18.2H134.424V24.98H119.904L119.364 33.98C120.764 33.62 122.264 33.44 123.864 33.44C127.824 33.44 130.924 34.48 133.164 36.56C135.404 38.6 136.524 41.62 136.524 45.62V47.24C136.524 49.48 136.064 51.54 135.144 53.42C134.224 55.3 132.744 56.8 130.704 57.92C128.704 59.04 126.044 59.6 122.724 59.6C120.884 59.6 118.964 59.38 116.964 58.94C115.004 58.5 112.844 57.76 110.484 56.72L112.704 50.54C114.824 51.38 116.604 52 118.044 52.4C119.524 52.76 121.004 52.94 122.484 52.94C124.724 52.94 126.404 52.48 127.524 51.56C128.684 50.64 129.264 49.2 129.264 47.24V45.62C129.264 43.86 128.744 42.46 127.704 41.42C126.704 40.38 125.084 39.86 122.844 39.86C121.844 39.86 120.804 40 119.724 40.28C118.644 40.52 117.484 40.88 116.244 41.36L112.344 37.94ZM169.558 59H144.838V53.3C144.838 50.42 145.218 48.02 145.978 46.1C146.738 44.14 147.758 42.54 149.038 41.3C150.318 40.02 151.718 39 153.238 38.24L157.318 36.2C158.878 35.4 160.138 34.56 161.098 33.68C162.098 32.76 162.598 31.58 162.598 30.14V29.06C162.598 27.58 162.078 26.42 161.038 25.58C160.038 24.7 158.418 24.26 156.178 24.26C154.818 24.26 153.438 24.46 152.038 24.86C150.678 25.26 149.018 25.82 147.058 26.54L144.838 20.36C147.078 19.36 149.118 18.66 150.958 18.26C152.838 17.82 154.658 17.6 156.418 17.6C159.658 17.6 162.238 18.12 164.158 19.16C166.118 20.2 167.518 21.6 168.358 23.36C169.238 25.08 169.678 26.98 169.678 29.06V30.14C169.678 32.3 169.238 34.14 168.358 35.66C167.518 37.18 166.398 38.46 164.998 39.5C163.598 40.54 162.078 41.46 160.438 42.26L156.358 44.3C154.878 45.02 153.778 46.02 153.058 47.3C152.378 48.58 151.998 50.22 151.918 52.22H169.558V59ZM194.33 26.24V28.1C194.33 30.7 193.63 32.76 192.23 34.28C190.87 35.76 188.83 36.5 186.11 36.5C183.39 36.5 181.33 35.76 179.93 34.28C178.57 32.76 177.89 30.7 177.89 28.1V26.24C177.89 23.64 178.57 21.6 179.93 20.12C181.33 18.64 183.39 17.9 186.11 17.9C188.83 17.9 190.87 18.64 192.23 20.12C193.63 21.6 194.33 23.64 194.33 26.24ZM204.83 18.2H210.23L190.49 59H185.09L204.83 18.2ZM189.53 26.24C189.53 23.68 188.39 22.4 186.11 22.4C183.87 22.4 182.75 23.68 182.75 26.24V28.1C182.75 30.66 183.87 31.94 186.11 31.94C188.39 31.94 189.53 30.66 189.53 28.1V26.24ZM217.49 49.04V50.9C217.49 53.5 216.79 55.56 215.39 57.08C214.03 58.56 211.99 59.3 209.27 59.3C206.55 59.3 204.49 58.56 203.09 57.08C201.73 55.56 201.05 53.5 201.05 50.9V49.04C201.05 46.44 201.73 44.4 203.09 42.92C204.49 41.44 206.55 40.7 209.27 40.7C211.99 40.7 214.03 41.44 215.39 42.92C216.79 44.4 217.49 46.44 217.49 49.04ZM212.69 49.04C212.69 46.48 211.55 45.2 209.27 45.2C207.03 45.2 205.91 46.48 205.91 49.04V50.9C205.91 53.46 207.03 54.74 209.27 54.74C211.55 54.74 212.69 53.46 212.69 50.9V49.04Z" fill="#0A0A0A"/>
<defs>
<clipPath id="clip0_603_3704">
<rect width="48" height="48" fill="white" transform="translate(50 12)"/>
</clipPath>
</defs>
</svg>
