<svg width="250" height="72" viewBox="0 0 250 72" fill="none" xmlns="http://www.w3.org/2000/svg">
<g clip-path="url(#clip0_603_3704)">
<path d="M76.8793 39.8133L63.9993 27L51.1193 39.8133C50.9673 39.9291 50.842 40.0761 50.7518 40.2444C50.6616 40.4128 50.6086 40.5986 50.5965 40.7892C50.5843 40.9798 50.6132 41.1708 50.6813 41.3493C50.7494 41.5278 50.855 41.6895 50.991 41.8236C51.1271 41.9577 51.2903 42.061 51.4697 42.1266C51.6491 42.1921 51.8406 42.2183 52.031 42.2034C52.2214 42.1885 52.4064 42.1329 52.5735 42.0403C52.7405 41.9477 52.8858 41.8203 52.9993 41.6667L62.666 32.08V57.5867C62.666 57.9403 62.8064 58.2794 63.0565 58.5295C63.3065 58.7795 63.6457 58.92 63.9993 58.92C64.3529 58.92 64.6921 58.7795 64.9421 58.5295C65.1922 58.2794 65.3326 57.9403 65.3326 57.5867V32.08L74.9993 41.6667C75.2504 41.916 75.5902 42.0553 75.944 42.0541C76.2978 42.0528 76.6367 41.9111 76.886 41.66C77.1353 41.4089 77.2746 41.0691 77.2734 40.7153C77.2721 40.3615 77.1304 40.0226 76.8793 39.7733V39.8133Z" fill="#307A0D"/>
</g>
<path d="M102.344 37.94L103.544 18.2H124.424V24.98H109.904L109.364 33.98C110.764 33.62 112.264 33.44 113.864 33.44C117.824 33.44 120.924 34.48 123.164 36.56C125.404 38.6 126.524 41.62 126.524 45.62V47.24C126.524 49.48 126.064 51.54 125.144 53.42C124.224 55.3 122.744 56.8 120.704 57.92C118.704 59.04 116.044 59.6 112.724 59.6C110.884 59.6 108.964 59.38 106.964 58.94C105.004 58.5 102.844 57.76 100.484 56.72L102.704 50.54C104.824 51.38 106.604 52 108.044 52.4C109.524 52.76 111.004 52.94 112.484 52.94C114.724 52.94 116.404 52.48 117.524 51.56C118.684 50.64 119.264 49.2 119.264 47.24V45.62C119.264 43.86 118.744 42.46 117.704 41.42C116.704 40.38 115.084 39.86 112.844 39.86C111.844 39.86 110.804 40 109.724 40.28C108.644 40.52 107.484 40.88 106.244 41.36L102.344 37.94ZM159.558 59H134.838V53.3C134.838 50.42 135.218 48.02 135.978 46.1C136.738 44.14 137.758 42.54 139.038 41.3C140.318 40.02 141.718 39 143.238 38.24L147.318 36.2C148.878 35.4 150.138 34.56 151.098 33.68C152.098 32.76 152.598 31.58 152.598 30.14V29.06C152.598 27.58 152.078 26.42 151.038 25.58C150.038 24.7 148.418 24.26 146.178 24.26C144.818 24.26 143.438 24.46 142.038 24.86C140.678 25.26 139.018 25.82 137.058 26.54L134.838 20.36C137.078 19.36 139.118 18.66 140.958 18.26C142.838 17.82 144.658 17.6 146.418 17.6C149.658 17.6 152.238 18.12 154.158 19.16C156.118 20.2 157.518 21.6 158.358 23.36C159.238 25.08 159.678 26.98 159.678 29.06V30.14C159.678 32.3 159.238 34.14 158.358 35.66C157.518 37.18 156.398 38.46 154.998 39.5C153.598 40.54 152.078 41.46 150.438 42.26L146.358 44.3C144.878 45.02 143.778 46.02 143.058 47.3C142.378 48.58 141.998 50.22 141.918 52.22H159.558V59ZM184.33 26.24V28.1C184.33 30.7 183.63 32.76 182.23 34.28C180.87 35.76 178.83 36.5 176.11 36.5C173.39 36.5 171.33 35.76 169.93 34.28C168.57 32.76 167.89 30.7 167.89 28.1V26.24C167.89 23.64 168.57 21.6 169.93 20.12C171.33 18.64 173.39 17.9 176.11 17.9C178.83 17.9 180.87 18.64 182.23 20.12C183.63 21.6 184.33 23.64 184.33 26.24ZM194.83 18.2H200.23L180.49 59H175.09L194.83 18.2ZM179.53 26.24C179.53 23.68 178.39 22.4 176.11 22.4C173.87 22.4 172.75 23.68 172.75 26.24V28.1C172.75 30.66 173.87 31.94 176.11 31.94C178.39 31.94 179.53 30.66 179.53 28.1V26.24ZM207.49 49.04V50.9C207.49 53.5 206.79 55.56 205.39 57.08C204.03 58.56 201.99 59.3 199.27 59.3C196.55 59.3 194.49 58.56 193.09 57.08C191.73 55.56 191.05 53.5 191.05 50.9V49.04C191.05 46.44 191.73 44.4 193.09 42.92C194.49 41.44 196.55 40.7 199.27 40.7C201.99 40.7 204.03 41.44 205.39 42.92C206.79 44.4 207.49 46.44 207.49 49.04ZM202.69 49.04C202.69 46.48 201.55 45.2 199.27 45.2C197.03 45.2 195.91 46.48 195.91 49.04V50.9C195.91 53.46 197.03 54.74 199.27 54.74C201.55 54.74 202.69 53.46 202.69 50.9V49.04Z" fill="#0A0A0A"/>
<defs>
<clipPath id="clip0_603_3704">
<rect width="48" height="48" fill="white" transform="translate(40 12)"/>
</clipPath>
</defs>
</svg>
