<svg width="1200" height="252" viewBox="0 0 1200 252" fill="none" xmlns="http://www.w3.org/2000/svg">
<rect width="1200" height="252" fill="white"/>
<path d="M1004.31 131V120.425H1005.54V129.92H1010.92V131H1004.31ZM1012.45 131V120.425H1013.68V131H1012.45ZM1016.29 131V120.425H1017.25L1023.62 128.93V120.425H1024.76V131H1023.83L1017.44 122.465V131H1016.29ZM1027.39 131V120.425H1028.62V125.225H1028.65L1033.78 120.425H1035.36L1029.84 125.57L1035.69 131H1034.07L1028.65 126.02H1028.62V131H1027.39ZM1040.62 131V120.425H1044.85C1045.94 120.425 1046.78 120.67 1047.37 121.16C1047.97 121.64 1048.27 122.315 1048.27 123.185C1048.27 123.765 1048.12 124.26 1047.82 124.67C1047.52 125.08 1047.1 125.38 1046.57 125.57C1047.18 125.73 1047.66 126.025 1048 126.455C1048.35 126.885 1048.52 127.43 1048.52 128.09C1048.52 129.03 1048.22 129.75 1047.61 130.25C1047 130.75 1046.14 131 1045.03 131H1040.62ZM1041.82 125.15H1044.67C1046.26 125.15 1047.05 124.53 1047.05 123.29C1047.05 122.04 1046.26 121.415 1044.67 121.415H1041.82V125.15ZM1041.82 130.01H1044.91C1046.51 130.01 1047.31 129.365 1047.31 128.075C1047.31 126.785 1046.51 126.14 1044.91 126.14H1041.82V130.01ZM1054.93 131.135C1053.54 131.135 1052.48 130.77 1051.76 130.04C1051.04 129.3 1050.68 128.225 1050.68 126.815V120.425H1051.91V126.755C1051.91 128.945 1052.92 130.04 1054.93 130.04C1056.92 130.04 1057.91 128.945 1057.91 126.755V120.425H1059.14V126.815C1059.14 128.225 1058.78 129.3 1058.06 130.04C1057.35 130.77 1056.31 131.135 1054.93 131.135ZM1064.26 131V121.49H1060.42V120.425H1069.35V121.49H1065.51V131H1064.26ZM1073.45 131V121.49H1069.61V120.425H1078.53V121.49H1074.69V131H1073.45ZM1083.66 131.135C1082.68 131.135 1081.82 130.915 1081.09 130.475C1080.37 130.025 1079.81 129.395 1079.41 128.585C1079.02 127.775 1078.83 126.815 1078.83 125.705C1078.83 124.595 1079.02 123.635 1079.41 122.825C1079.8 122.015 1080.36 121.39 1081.08 120.95C1081.81 120.51 1082.67 120.29 1083.66 120.29C1084.66 120.29 1085.52 120.51 1086.24 120.95C1086.97 121.39 1087.53 122.015 1087.92 122.825C1088.32 123.625 1088.52 124.58 1088.52 125.69C1088.52 126.8 1088.32 127.765 1087.92 128.585C1087.52 129.395 1086.95 130.025 1086.22 130.475C1085.5 130.915 1084.65 131.135 1083.66 131.135ZM1083.66 130.04C1084.79 130.04 1085.66 129.66 1086.28 128.9C1086.9 128.14 1087.21 127.075 1087.21 125.705C1087.21 124.335 1086.9 123.275 1086.28 122.525C1085.66 121.765 1084.79 121.385 1083.66 121.385C1082.55 121.385 1081.68 121.765 1081.06 122.525C1080.44 123.275 1080.13 124.335 1080.13 125.705C1080.13 127.065 1080.44 128.13 1081.06 128.9C1081.68 129.66 1082.55 130.04 1083.66 130.04ZM1090.72 131V120.425H1091.68L1098.05 128.93V120.425H1099.19V131H1098.26L1091.87 122.465V131H1090.72Z" fill="#160C0A"/>
<path d="M1003 132.5H1100.51V133.04H1003V132.5Z" fill="#160C0A"/>
<rect x="100" y="100" width="220" height="52" rx="2" fill="#A01F1D"/>
<path d="M178.808 132V119.31H184.064C185.432 119.31 186.488 119.652 187.232 120.336C187.976 121.008 188.348 121.956 188.348 123.18C188.348 124.416 187.976 125.376 187.232 126.06C186.488 126.732 185.432 127.068 184.064 127.068H180.68V132H178.808ZM180.68 125.574H183.794C185.618 125.574 186.53 124.776 186.53 123.18C186.53 121.596 185.618 120.804 183.794 120.804H180.68V125.574ZM189.983 132V123.216H191.747V124.782C192.203 123.738 193.151 123.156 194.591 123.036L195.185 123L195.311 124.548L194.213 124.656C192.617 124.812 191.819 125.634 191.819 127.122V132H189.983ZM196.536 121.182V119.292H198.66V121.182H196.536ZM196.698 132V123.216H198.516V132H196.698ZM201.111 132V123.216H202.875V124.638C203.139 124.134 203.505 123.744 203.973 123.468C204.441 123.192 204.987 123.054 205.611 123.054C206.955 123.054 207.825 123.642 208.221 124.818C208.497 124.266 208.893 123.834 209.409 123.522C209.925 123.21 210.513 123.054 211.173 123.054C213.141 123.054 214.125 124.23 214.125 126.582V132H212.307V126.672C212.307 125.928 212.175 125.382 211.911 125.034C211.659 124.686 211.239 124.512 210.651 124.512C209.991 124.512 209.469 124.746 209.085 125.214C208.701 125.67 208.509 126.294 208.509 127.086V132H206.691V126.672C206.691 125.928 206.565 125.382 206.313 125.034C206.061 124.686 205.641 124.512 205.053 124.512C204.393 124.512 203.871 124.746 203.487 125.214C203.115 125.67 202.929 126.294 202.929 127.086V132H201.111ZM219.475 132.162C218.863 132.162 218.317 132.042 217.837 131.802C217.357 131.562 216.973 131.238 216.685 130.83C216.409 130.422 216.271 129.96 216.271 129.444C216.271 128.796 216.433 128.286 216.757 127.914C217.093 127.542 217.639 127.272 218.395 127.104C219.163 126.936 220.195 126.852 221.491 126.852H222.103V126.384C222.103 125.7 221.959 125.208 221.671 124.908C221.383 124.608 220.909 124.458 220.249 124.458C219.745 124.458 219.241 124.536 218.737 124.692C218.233 124.836 217.717 125.07 217.189 125.394L216.631 124.116C217.087 123.792 217.657 123.534 218.341 123.342C219.025 123.15 219.679 123.054 220.303 123.054C221.503 123.054 222.391 123.342 222.967 123.918C223.543 124.482 223.831 125.37 223.831 126.582V132H222.121V130.542C221.905 131.046 221.569 131.442 221.113 131.73C220.657 132.018 220.111 132.162 219.475 132.162ZM219.835 130.866C220.483 130.866 221.023 130.638 221.455 130.182C221.887 129.726 222.103 129.15 222.103 128.454V127.968H221.509C220.633 127.968 219.943 128.01 219.439 128.094C218.947 128.178 218.593 128.322 218.377 128.526C218.173 128.718 218.071 128.988 218.071 129.336C218.071 129.792 218.227 130.164 218.539 130.452C218.851 130.728 219.283 130.866 219.835 130.866ZM226.335 132V123.216H228.099V124.782C228.555 123.738 229.503 123.156 230.943 123.036L231.537 123L231.663 124.548L230.565 124.656C228.969 124.812 228.171 125.634 228.171 127.122V132H226.335ZM234.494 135.24L236.06 131.766L232.388 123.216H234.332L237.032 129.894L239.768 123.216H241.64L236.402 135.24H234.494Z" fill="white"/>
<rect x="401" y="100" width="220" height="52" rx="2" fill="#160C0A"/>
<path d="M473.929 132.162C472.933 132.162 472.021 132.036 471.193 131.784C470.365 131.52 469.663 131.154 469.087 130.686L469.681 129.21C470.281 129.666 470.923 130.008 471.607 130.236C472.291 130.464 473.065 130.578 473.929 130.578C474.949 130.578 475.699 130.398 476.179 130.038C476.671 129.666 476.917 129.186 476.917 128.598C476.917 128.118 476.743 127.74 476.395 127.464C476.047 127.176 475.465 126.948 474.649 126.78L472.723 126.384C471.583 126.144 470.731 125.748 470.167 125.196C469.615 124.644 469.339 123.9 469.339 122.964C469.339 122.208 469.537 121.542 469.933 120.966C470.341 120.39 470.905 119.946 471.625 119.634C472.345 119.31 473.173 119.148 474.109 119.148C474.973 119.148 475.771 119.28 476.503 119.544C477.247 119.796 477.877 120.168 478.393 120.66L477.781 122.082C476.761 121.182 475.531 120.732 474.091 120.732C473.203 120.732 472.495 120.93 471.967 121.326C471.451 121.722 471.193 122.25 471.193 122.91C471.193 123.414 471.355 123.816 471.679 124.116C472.003 124.416 472.543 124.644 473.299 124.8L475.207 125.196C476.407 125.448 477.301 125.838 477.889 126.366C478.477 126.882 478.771 127.584 478.771 128.472C478.771 129.216 478.573 129.864 478.177 130.416C477.781 130.968 477.223 131.4 476.503 131.712C475.783 132.012 474.925 132.162 473.929 132.162ZM484.82 132.162C483.38 132.162 482.246 131.76 481.418 130.956C480.59 130.14 480.176 129.03 480.176 127.626C480.176 126.726 480.356 125.934 480.716 125.25C481.088 124.554 481.598 124.014 482.246 123.63C482.894 123.246 483.638 123.054 484.478 123.054C485.69 123.054 486.644 123.444 487.34 124.224C488.036 124.992 488.384 126.054 488.384 127.41V128.022H481.94C482.072 129.846 483.038 130.758 484.838 130.758C485.342 130.758 485.834 130.68 486.314 130.524C486.806 130.368 487.268 130.11 487.7 129.75L488.24 131.01C487.844 131.37 487.334 131.652 486.71 131.856C486.086 132.06 485.456 132.162 484.82 132.162ZM484.55 124.332C483.794 124.332 483.194 124.566 482.75 125.034C482.306 125.502 482.036 126.126 481.94 126.906H486.854C486.818 126.09 486.602 125.46 486.206 125.016C485.81 124.56 485.258 124.332 484.55 124.332ZM494.236 132.162C493.336 132.162 492.556 131.976 491.896 131.604C491.248 131.22 490.744 130.686 490.384 130.002C490.024 129.306 489.844 128.49 489.844 127.554C489.844 126.162 490.24 125.064 491.032 124.26C491.824 123.456 492.892 123.054 494.236 123.054C494.788 123.054 495.334 123.15 495.874 123.342C496.414 123.534 496.858 123.798 497.206 124.134L496.63 125.412C496.294 125.1 495.922 124.872 495.514 124.728C495.118 124.572 494.74 124.494 494.38 124.494C493.528 124.494 492.868 124.764 492.4 125.304C491.944 125.832 491.716 126.588 491.716 127.572C491.716 128.556 491.944 129.33 492.4 129.894C492.868 130.446 493.528 130.722 494.38 130.722C494.74 130.722 495.118 130.65 495.514 130.506C495.922 130.35 496.294 130.116 496.63 129.804L497.206 131.1C496.858 131.424 496.408 131.682 495.856 131.874C495.316 132.066 494.776 132.162 494.236 132.162ZM502.408 132.162C501.52 132.162 500.752 131.976 500.104 131.604C499.456 131.232 498.952 130.71 498.592 130.038C498.244 129.354 498.07 128.544 498.07 127.608C498.07 126.672 498.244 125.868 498.592 125.196C498.952 124.512 499.456 123.984 500.104 123.612C500.752 123.24 501.52 123.054 502.408 123.054C503.272 123.054 504.028 123.24 504.676 123.612C505.324 123.984 505.828 124.512 506.188 125.196C506.548 125.868 506.728 126.672 506.728 127.608C506.728 128.544 506.548 129.354 506.188 130.038C505.828 130.71 505.324 131.232 504.676 131.604C504.028 131.976 503.272 132.162 502.408 132.162ZM502.408 130.758C503.152 130.758 503.752 130.488 504.208 129.948C504.664 129.408 504.892 128.628 504.892 127.608C504.892 126.588 504.664 125.814 504.208 125.286C503.752 124.746 503.152 124.476 502.408 124.476C501.652 124.476 501.046 124.746 500.59 125.286C500.134 125.814 499.906 126.588 499.906 127.608C499.906 128.628 500.134 129.408 500.59 129.948C501.046 130.488 501.652 130.758 502.408 130.758ZM508.77 132V123.216H510.534V124.674C510.834 124.146 511.242 123.744 511.758 123.468C512.286 123.192 512.874 123.054 513.522 123.054C515.598 123.054 516.636 124.23 516.636 126.582V132H514.818V126.69C514.818 125.934 514.668 125.382 514.368 125.034C514.08 124.686 513.624 124.512 513 124.512C512.268 124.512 511.68 124.746 511.236 125.214C510.804 125.67 510.588 126.276 510.588 127.032V132H508.77ZM522.489 132.162C521.721 132.162 521.043 131.982 520.455 131.622C519.879 131.25 519.429 130.722 519.105 130.038C518.781 129.354 518.619 128.544 518.619 127.608C518.619 126.672 518.781 125.868 519.105 125.196C519.429 124.512 519.879 123.984 520.455 123.612C521.031 123.24 521.709 123.054 522.489 123.054C523.149 123.054 523.737 123.198 524.253 123.486C524.769 123.774 525.153 124.164 525.405 124.656V119.31H527.223V132H525.441V130.47C525.189 130.998 524.799 131.412 524.271 131.712C523.755 132.012 523.161 132.162 522.489 132.162ZM522.957 130.758C523.701 130.758 524.301 130.488 524.757 129.948C525.213 129.408 525.441 128.628 525.441 127.608C525.441 126.588 525.213 125.814 524.757 125.286C524.301 124.746 523.701 124.476 522.957 124.476C522.201 124.476 521.595 124.746 521.139 125.286C520.683 125.814 520.455 126.588 520.455 127.608C520.455 128.628 520.683 129.408 521.139 129.948C521.595 130.488 522.201 130.758 522.957 130.758ZM532.584 132.162C531.972 132.162 531.426 132.042 530.946 131.802C530.466 131.562 530.082 131.238 529.794 130.83C529.518 130.422 529.38 129.96 529.38 129.444C529.38 128.796 529.542 128.286 529.866 127.914C530.202 127.542 530.748 127.272 531.504 127.104C532.272 126.936 533.304 126.852 534.6 126.852H535.212V126.384C535.212 125.7 535.068 125.208 534.78 124.908C534.492 124.608 534.018 124.458 533.358 124.458C532.854 124.458 532.35 124.536 531.846 124.692C531.342 124.836 530.826 125.07 530.298 125.394L529.74 124.116C530.196 123.792 530.766 123.534 531.45 123.342C532.134 123.15 532.788 123.054 533.412 123.054C534.612 123.054 535.5 123.342 536.076 123.918C536.652 124.482 536.94 125.37 536.94 126.582V132H535.23V130.542C535.014 131.046 534.678 131.442 534.222 131.73C533.766 132.018 533.22 132.162 532.584 132.162ZM532.944 130.866C533.592 130.866 534.132 130.638 534.564 130.182C534.996 129.726 535.212 129.15 535.212 128.454V127.968H534.618C533.742 127.968 533.052 128.01 532.548 128.094C532.056 128.178 531.702 128.322 531.486 128.526C531.282 128.718 531.18 128.988 531.18 129.336C531.18 129.792 531.336 130.164 531.648 130.452C531.96 130.728 532.392 130.866 532.944 130.866ZM539.444 132V123.216H541.208V124.782C541.664 123.738 542.612 123.156 544.052 123.036L544.646 123L544.772 124.548L543.674 124.656C542.078 124.812 541.28 125.634 541.28 127.122V132H539.444ZM547.604 135.24L549.17 131.766L545.498 123.216H547.442L550.142 129.894L552.878 123.216H554.75L549.512 135.24H547.604Z" fill="white"/>
<rect width="220" height="52" transform="translate(702 100)" fill="white"/>
<rect x="702.5" y="100.5" width="219" height="51" rx="1.5" stroke="#160C0A"/>
<path d="M784.712 132V120.876H780.212V119.31H791.066V120.876H786.566V132H784.712ZM795.155 132.162C793.715 132.162 792.581 131.76 791.753 130.956C790.925 130.14 790.511 129.03 790.511 127.626C790.511 126.726 790.691 125.934 791.051 125.25C791.423 124.554 791.933 124.014 792.581 123.63C793.229 123.246 793.973 123.054 794.813 123.054C796.025 123.054 796.979 123.444 797.675 124.224C798.371 124.992 798.719 126.054 798.719 127.41V128.022H792.275C792.407 129.846 793.373 130.758 795.173 130.758C795.677 130.758 796.169 130.68 796.649 130.524C797.141 130.368 797.603 130.11 798.035 129.75L798.575 131.01C798.179 131.37 797.669 131.652 797.045 131.856C796.421 132.06 795.791 132.162 795.155 132.162ZM794.885 124.332C794.129 124.332 793.529 124.566 793.085 125.034C792.641 125.502 792.371 126.126 792.275 126.906H797.189C797.153 126.09 796.937 125.46 796.541 125.016C796.145 124.56 795.593 124.332 794.885 124.332ZM800.701 132V123.216H802.465V124.782C802.921 123.738 803.869 123.156 805.309 123.036L805.903 123L806.029 124.548L804.931 124.656C803.335 124.812 802.537 125.634 802.537 127.122V132H800.701ZM811.652 132.162C810.548 132.162 809.726 131.88 809.186 131.316C808.646 130.752 808.376 129.936 808.376 128.868V124.62H806.666V123.216H808.376V120.57H810.194V123.216H812.912V124.62H810.194V128.724C810.194 129.36 810.326 129.84 810.59 130.164C810.866 130.488 811.31 130.65 811.922 130.65C812.114 130.65 812.3 130.632 812.48 130.596C812.66 130.548 812.84 130.494 813.02 130.434L813.308 131.802C813.128 131.91 812.876 131.994 812.552 132.054C812.24 132.126 811.94 132.162 811.652 132.162ZM814.32 121.182V119.292H816.444V121.182H814.32ZM814.482 132V123.216H816.3V132H814.482ZM821.667 132.162C821.055 132.162 820.509 132.042 820.029 131.802C819.549 131.562 819.165 131.238 818.877 130.83C818.601 130.422 818.463 129.96 818.463 129.444C818.463 128.796 818.625 128.286 818.949 127.914C819.285 127.542 819.831 127.272 820.587 127.104C821.355 126.936 822.387 126.852 823.683 126.852H824.295V126.384C824.295 125.7 824.151 125.208 823.863 124.908C823.575 124.608 823.101 124.458 822.441 124.458C821.937 124.458 821.433 124.536 820.929 124.692C820.425 124.836 819.909 125.07 819.381 125.394L818.823 124.116C819.279 123.792 819.849 123.534 820.533 123.342C821.217 123.15 821.871 123.054 822.495 123.054C823.695 123.054 824.583 123.342 825.159 123.918C825.735 124.482 826.023 125.37 826.023 126.582V132H824.313V130.542C824.097 131.046 823.761 131.442 823.305 131.73C822.849 132.018 822.303 132.162 821.667 132.162ZM822.027 130.866C822.675 130.866 823.215 130.638 823.647 130.182C824.079 129.726 824.295 129.15 824.295 128.454V127.968H823.701C822.825 127.968 822.135 128.01 821.631 128.094C821.139 128.178 820.785 128.322 820.569 128.526C820.365 128.718 820.263 128.988 820.263 129.336C820.263 129.792 820.419 130.164 820.731 130.452C821.043 130.728 821.475 130.866 822.027 130.866ZM828.527 132V123.216H830.291V124.782C830.747 123.738 831.695 123.156 833.135 123.036L833.729 123L833.855 124.548L832.757 124.656C831.161 124.812 830.363 125.634 830.363 127.122V132H828.527ZM836.687 135.24L838.253 131.766L834.581 123.216H836.525L839.225 129.894L841.961 123.216H843.833L838.595 135.24H836.687Z" fill="#160C0A"/>
</svg>
