<svg width="530" height="869" viewBox="0 0 530 869" fill="none" xmlns="http://www.w3.org/2000/svg">
<path d="M87.8448 819V804.051H89.5836V817.473H97.196V819H87.8448ZM99.3582 819V804.051H101.097V819H99.3582ZM104.784 819V804.051H106.141L115.153 816.074V804.051H116.764V819H115.449L106.416 806.935V819H104.784ZM120.48 819V804.051H122.219V810.836H122.261L129.513 804.051H131.74L123.936 811.324L132.206 819H129.916L122.261 811.96H122.219V819H120.48ZM139.179 819V804.051H145.159C146.699 804.051 147.887 804.397 148.721 805.09C149.569 805.768 149.993 806.723 149.993 807.952C149.993 808.772 149.781 809.472 149.357 810.052C148.933 810.631 148.346 811.055 147.597 811.324C148.459 811.55 149.131 811.967 149.611 812.575C150.106 813.183 150.354 813.953 150.354 814.886C150.354 816.215 149.922 817.233 149.06 817.94C148.198 818.647 146.982 819 145.413 819H139.179ZM140.875 810.73H144.904C147.152 810.73 148.276 809.854 148.276 808.101C148.276 806.334 147.152 805.45 144.904 805.45H140.875V810.73ZM140.875 817.6H145.243C147.505 817.6 148.636 816.689 148.636 814.865C148.636 813.042 147.505 812.13 145.243 812.13H140.875V817.6ZM159.403 819.191C157.438 819.191 155.947 818.675 154.929 817.643C153.911 816.597 153.402 815.077 153.402 813.084V804.051H155.141V812.999C155.141 816.095 156.562 817.643 159.403 817.643C162.216 817.643 163.623 816.095 163.623 812.999V804.051H165.362V813.084C165.362 815.077 164.853 816.597 163.835 817.643C162.831 818.675 161.354 819.191 159.403 819.191ZM172.604 819V805.556H167.176V804.051H179.792V805.556H174.364V819H172.604ZM185.588 819V805.556H180.159V804.051H192.776V805.556H187.348V819H185.588ZM200.02 819.191C198.634 819.191 197.426 818.88 196.394 818.258C195.376 817.622 194.584 816.731 194.019 815.586C193.468 814.441 193.192 813.084 193.192 811.515C193.192 809.946 193.468 808.589 194.019 807.444C194.57 806.298 195.355 805.415 196.373 804.793C197.405 804.171 198.62 803.86 200.02 803.86C201.433 803.86 202.649 804.171 203.667 804.793C204.699 805.415 205.491 806.298 206.042 807.444C206.607 808.574 206.89 809.924 206.89 811.494C206.89 813.063 206.607 814.427 206.042 815.586C205.476 816.731 204.678 817.622 203.646 818.258C202.628 818.88 201.419 819.191 200.02 819.191ZM200.02 817.643C201.617 817.643 202.854 817.106 203.731 816.031C204.607 814.957 205.045 813.451 205.045 811.515C205.045 809.578 204.607 808.08 203.731 807.019C202.854 805.945 201.617 805.408 200.02 805.408C198.451 805.408 197.228 805.945 196.351 807.019C195.475 808.08 195.037 809.578 195.037 811.515C195.037 813.437 195.475 814.943 196.351 816.031C197.228 817.106 198.451 817.643 200.02 817.643ZM209.999 819V804.051H211.356L220.368 816.074V804.051H221.979V819H220.665L211.631 806.935V819H209.999Z" fill="#160C0A"/>
<path d="M86 821.12H223.845V821.884H86V821.12Z" fill="#160C0A"/>
<rect y="13" width="311" height="73.5091" rx="2.82727" fill="#A01F1D"/>
<path d="M110.972 58.623V40.684H118.402C120.336 40.684 121.829 41.1675 122.881 42.1344C123.932 43.0844 124.458 44.4245 124.458 46.1548C124.458 47.902 123.932 49.2591 122.881 50.226C121.829 51.176 120.336 51.651 118.402 51.651H113.618V58.623H110.972ZM113.618 49.539H118.02C120.599 49.539 121.888 48.4109 121.888 46.1548C121.888 43.9156 120.599 42.796 118.02 42.796H113.618V49.539ZM126.77 58.623V46.2057H129.263V48.4194C129.908 46.9436 131.248 46.1208 133.284 45.9512L134.123 45.9003L134.301 48.0886L132.749 48.2413C130.493 48.4618 129.365 49.6238 129.365 51.7273V58.623H126.77ZM136.033 43.3303V40.6586H139.035V43.3303H136.033ZM136.262 58.623V46.2057H138.832V58.623H136.262ZM142.5 58.623V46.2057H144.994V48.2159C145.367 47.5034 145.884 46.9521 146.546 46.5619C147.208 46.1717 147.979 45.9767 148.862 45.9767C150.761 45.9767 151.991 46.8079 152.551 48.4703C152.941 47.69 153.501 47.0793 154.231 46.6382C154.96 46.1972 155.791 45.9767 156.724 45.9767C159.506 45.9767 160.897 47.6391 160.897 50.964V58.623H158.327V51.0912C158.327 50.0394 158.141 49.2676 157.767 48.7757C157.411 48.2837 156.818 48.0377 155.986 48.0377C155.053 48.0377 154.315 48.3685 153.773 49.0301C153.23 49.6747 152.958 50.5568 152.958 51.6764V58.623H150.388V51.0912C150.388 50.0394 150.21 49.2676 149.854 48.7757C149.498 48.2837 148.904 48.0377 148.073 48.0377C147.14 48.0377 146.402 48.3685 145.859 49.0301C145.333 49.6747 145.07 50.5568 145.07 51.6764V58.623H142.5ZM168.46 58.8521C167.595 58.8521 166.823 58.6824 166.144 58.3431C165.466 58.0039 164.923 57.5459 164.516 56.9691C164.126 56.3923 163.931 55.7392 163.931 55.0098C163.931 54.0938 164.16 53.3728 164.618 52.8469C165.093 52.3211 165.864 51.9394 166.933 51.7019C168.019 51.4644 169.478 51.3456 171.31 51.3456H172.175V50.6841C172.175 49.7171 171.971 49.0216 171.564 48.5975C171.157 48.1734 170.487 47.9614 169.554 47.9614C168.842 47.9614 168.129 48.0717 167.417 48.2922C166.704 48.4958 165.975 48.8265 165.228 49.2846L164.44 47.4779C165.084 47.0199 165.89 46.6552 166.857 46.3838C167.824 46.1124 168.748 45.9767 169.63 45.9767C171.327 45.9767 172.582 46.3838 173.396 47.198C174.211 47.9953 174.618 49.2506 174.618 50.964V58.623H172.2V56.562C171.895 57.2744 171.42 57.8342 170.775 58.2414C170.131 58.6485 169.359 58.8521 168.46 58.8521ZM168.969 57.02C169.885 57.02 170.648 56.6977 171.259 56.0531C171.87 55.4084 172.175 54.5942 172.175 53.6103V52.9233H171.335C170.097 52.9233 169.122 52.9826 168.409 53.1014C167.714 53.2201 167.213 53.4237 166.908 53.7121C166.619 53.9835 166.475 54.3652 166.475 54.8571C166.475 55.5017 166.696 56.0276 167.137 56.4347C167.578 56.8249 168.189 57.02 168.969 57.02ZM178.157 58.623V46.2057H180.651V48.4194C181.296 46.9436 182.636 46.1208 184.671 45.9512L185.511 45.9003L185.689 48.0886L184.137 48.2413C181.881 48.4618 180.753 49.6238 180.753 51.7273V58.623H178.157ZM189.692 63.2032L191.906 58.2923L186.715 46.2057H189.463L193.28 55.6459L197.148 46.2057H199.794L192.39 63.2032H189.692Z" fill="white"/>
<rect y="274" width="311" height="73.5091" rx="2.82727" fill="#160C0A"/>
<path d="M103.278 319.852C101.87 319.852 100.581 319.674 99.4107 319.318C98.2402 318.945 97.2478 318.427 96.4336 317.766L97.2733 315.679C98.1215 316.324 99.029 316.807 99.9959 317.129C100.963 317.452 102.057 317.613 103.278 317.613C104.72 317.613 105.781 317.358 106.459 316.849C107.155 316.324 107.502 315.645 107.502 314.814C107.502 314.135 107.256 313.601 106.764 313.211C106.272 312.804 105.45 312.481 104.296 312.244L101.574 311.684C99.962 311.345 98.7576 310.785 97.9603 310.005C97.18 309.224 96.7898 308.173 96.7898 306.849C96.7898 305.781 97.0697 304.839 97.6295 304.025C98.2063 303.211 99.0036 302.583 100.021 302.142C101.039 301.684 102.21 301.455 103.533 301.455C104.754 301.455 105.882 301.642 106.917 302.015C107.969 302.371 108.859 302.897 109.589 303.592L108.724 305.603C107.282 304.33 105.543 303.694 103.507 303.694C102.252 303.694 101.251 303.974 100.505 304.534C99.7754 305.094 99.4107 305.84 99.4107 306.773C99.4107 307.486 99.6397 308.054 100.098 308.478C100.556 308.902 101.319 309.224 102.388 309.445L105.085 310.005C106.781 310.361 108.045 310.912 108.876 311.659C109.708 312.388 110.123 313.38 110.123 314.636C110.123 315.687 109.843 316.604 109.284 317.384C108.724 318.164 107.935 318.775 106.917 319.216C105.899 319.64 104.686 319.852 103.278 319.852ZM118.675 319.852C116.639 319.852 115.036 319.284 113.866 318.147C112.695 316.994 112.11 315.425 112.11 313.44C112.11 312.168 112.364 311.048 112.873 310.081C113.399 309.097 114.12 308.334 115.036 307.791C115.952 307.248 117.004 306.977 118.191 306.977C119.905 306.977 121.253 307.528 122.237 308.631C123.221 309.716 123.713 311.218 123.713 313.134V314H114.603C114.79 316.578 116.156 317.867 118.7 317.867C119.413 317.867 120.108 317.757 120.787 317.537C121.482 317.316 122.135 316.951 122.746 316.442L123.509 318.224C122.95 318.732 122.229 319.131 121.346 319.419C120.464 319.708 119.574 319.852 118.675 319.852ZM118.293 308.783C117.224 308.783 116.376 309.114 115.748 309.776C115.121 310.437 114.739 311.319 114.603 312.422H121.55C121.499 311.268 121.194 310.378 120.634 309.75C120.074 309.106 119.294 308.783 118.293 308.783ZM131.985 319.852C130.713 319.852 129.611 319.589 128.678 319.063C127.762 318.52 127.049 317.766 126.54 316.799C126.031 315.815 125.777 314.661 125.777 313.338C125.777 311.37 126.337 309.818 127.456 308.682C128.576 307.545 130.086 306.977 131.985 306.977C132.766 306.977 133.538 307.112 134.301 307.384C135.064 307.655 135.692 308.028 136.184 308.503L135.37 310.31C134.895 309.869 134.369 309.547 133.792 309.343C133.232 309.123 132.698 309.012 132.189 309.012C130.985 309.012 130.052 309.394 129.39 310.157C128.745 310.904 128.423 311.972 128.423 313.363C128.423 314.754 128.745 315.849 129.39 316.646C130.052 317.426 130.985 317.816 132.189 317.816C132.698 317.816 133.232 317.715 133.792 317.511C134.369 317.291 134.895 316.96 135.37 316.519L136.184 318.351C135.692 318.809 135.056 319.174 134.276 319.445C133.512 319.716 132.749 319.852 131.985 319.852ZM143.538 319.852C142.283 319.852 141.198 319.589 140.281 319.063C139.365 318.537 138.653 317.799 138.144 316.849C137.652 315.883 137.406 314.738 137.406 313.414C137.406 312.091 137.652 310.955 138.144 310.005C138.653 309.038 139.365 308.291 140.281 307.765C141.198 307.24 142.283 306.977 143.538 306.977C144.76 306.977 145.829 307.24 146.745 307.765C147.661 308.291 148.373 309.038 148.882 310.005C149.391 310.955 149.645 312.091 149.645 313.414C149.645 314.738 149.391 315.883 148.882 316.849C148.373 317.799 147.661 318.537 146.745 319.063C145.829 319.589 144.76 319.852 143.538 319.852ZM143.538 317.867C144.59 317.867 145.438 317.486 146.083 316.722C146.728 315.959 147.05 314.856 147.05 313.414C147.05 311.972 146.728 310.878 146.083 310.132C145.438 309.369 144.59 308.987 143.538 308.987C142.47 308.987 141.613 309.369 140.968 310.132C140.324 310.878 140.002 311.972 140.002 313.414C140.002 314.856 140.324 315.959 140.968 316.722C141.613 317.486 142.47 317.867 143.538 317.867ZM152.532 319.623V307.206H155.025V309.267C155.449 308.52 156.026 307.952 156.756 307.562C157.502 307.172 158.333 306.977 159.249 306.977C162.184 306.977 163.651 308.639 163.651 311.964V319.623H161.081V312.117C161.081 311.048 160.869 310.268 160.445 309.776C160.038 309.284 159.393 309.038 158.511 309.038C157.477 309.038 156.645 309.369 156.018 310.03C155.407 310.675 155.102 311.531 155.102 312.6V319.623H152.532ZM171.925 319.852C170.84 319.852 169.881 319.598 169.05 319.089C168.236 318.563 167.6 317.816 167.142 316.849C166.684 315.883 166.455 314.738 166.455 313.414C166.455 312.091 166.684 310.955 167.142 310.005C167.6 309.038 168.236 308.291 169.05 307.765C169.864 307.24 170.823 306.977 171.925 306.977C172.858 306.977 173.69 307.18 174.419 307.587C175.149 307.994 175.691 308.546 176.048 309.241V301.684H178.618V319.623H176.099V317.46C175.742 318.207 175.191 318.792 174.445 319.216C173.715 319.64 172.875 319.852 171.925 319.852ZM172.587 317.867C173.639 317.867 174.487 317.486 175.132 316.722C175.776 315.959 176.099 314.856 176.099 313.414C176.099 311.972 175.776 310.878 175.132 310.132C174.487 309.369 173.639 308.987 172.587 308.987C171.518 308.987 170.662 309.369 170.017 310.132C169.372 310.878 169.05 311.972 169.05 313.414C169.05 314.856 169.372 315.959 170.017 316.722C170.662 317.486 171.518 317.867 172.587 317.867ZM186.196 319.852C185.331 319.852 184.559 319.682 183.88 319.343C183.202 319.004 182.659 318.546 182.252 317.969C181.862 317.392 181.667 316.739 181.667 316.01C181.667 315.094 181.896 314.373 182.354 313.847C182.829 313.321 183.6 312.939 184.669 312.702C185.755 312.464 187.214 312.346 189.046 312.346H189.911V311.684C189.911 310.717 189.707 310.022 189.3 309.598C188.893 309.173 188.223 308.961 187.29 308.961C186.577 308.961 185.865 309.072 185.153 309.292C184.44 309.496 183.711 309.827 182.964 310.285L182.175 308.478C182.82 308.02 183.626 307.655 184.593 307.384C185.56 307.112 186.484 306.977 187.366 306.977C189.063 306.977 190.318 307.384 191.132 308.198C191.946 308.995 192.354 310.251 192.354 311.964V319.623H189.936V317.562C189.631 318.274 189.156 318.834 188.511 319.241C187.867 319.648 187.095 319.852 186.196 319.852ZM186.705 318.02C187.621 318.02 188.384 317.698 188.995 317.053C189.605 316.408 189.911 315.594 189.911 314.61V313.923H189.071C187.833 313.923 186.857 313.983 186.145 314.101C185.449 314.22 184.949 314.424 184.644 314.712C184.355 314.983 184.211 315.365 184.211 315.857C184.211 316.502 184.432 317.028 184.873 317.435C185.314 317.825 185.924 318.02 186.705 318.02ZM195.893 319.623V307.206H198.387V309.419C199.032 307.944 200.372 307.121 202.407 306.951L203.247 306.9L203.425 309.089L201.873 309.241C199.617 309.462 198.489 310.624 198.489 312.727V319.623H195.893ZM207.428 324.203L209.642 319.292L204.451 307.206H207.199L211.016 316.646L214.884 307.206H217.53L210.125 324.203H207.428Z" fill="white"/>
<rect width="311" height="73.5091" transform="translate(0 535)" fill="white"/>
<rect x="0.706818" y="535.707" width="309.586" height="72.0955" rx="2.12045" stroke="#160C0A" stroke-width="1.41364"/>
<path d="M117.885 580.623V564.898H111.524V562.684H126.867V564.898H120.506V580.623H117.885ZM132.648 580.852C130.612 580.852 129.009 580.284 127.839 579.147C126.668 577.994 126.083 576.425 126.083 574.44C126.083 573.168 126.338 572.048 126.847 571.081C127.372 570.097 128.093 569.334 129.009 568.791C129.925 568.248 130.977 567.977 132.165 567.977C133.878 567.977 135.227 568.528 136.21 569.631C137.194 570.716 137.686 572.218 137.686 574.134V575H128.577C128.763 577.578 130.129 578.867 132.674 578.867C133.386 578.867 134.081 578.757 134.76 578.537C135.456 578.316 136.109 577.951 136.719 577.442L137.483 579.224C136.923 579.732 136.202 580.131 135.32 580.419C134.438 580.708 133.547 580.852 132.648 580.852ZM132.266 569.783C131.198 569.783 130.349 570.114 129.722 570.776C129.094 571.437 128.713 572.319 128.577 573.422H135.523C135.473 572.268 135.167 571.378 134.607 570.75C134.048 570.106 133.267 569.783 132.266 569.783ZM140.488 580.623V568.206H142.982V570.419C143.626 568.944 144.966 568.121 147.002 567.951L147.842 567.9L148.02 570.089L146.468 570.241C144.212 570.462 143.083 571.624 143.083 573.727V580.623H140.488ZM155.969 580.852C154.408 580.852 153.246 580.453 152.483 579.656C151.719 578.859 151.338 577.705 151.338 576.196V570.19H148.92V568.206H151.338V564.465H153.908V568.206H157.75V570.19H153.908V575.992C153.908 576.891 154.094 577.57 154.468 578.028C154.858 578.486 155.485 578.715 156.351 578.715C156.622 578.715 156.885 578.689 157.139 578.638C157.394 578.57 157.648 578.494 157.903 578.409L158.31 580.343C158.055 580.496 157.699 580.615 157.241 580.699C156.8 580.801 156.376 580.852 155.969 580.852ZM159.741 565.33V562.659H162.743V565.33H159.741ZM159.97 580.623V568.206H162.54V580.623H159.97ZM170.127 580.852C169.261 580.852 168.49 580.682 167.811 580.343C167.133 580.004 166.59 579.546 166.183 578.969C165.792 578.392 165.597 577.739 165.597 577.01C165.597 576.094 165.826 575.373 166.284 574.847C166.759 574.321 167.531 573.939 168.6 573.702C169.686 573.464 171.144 573.346 172.977 573.346H173.842V572.684C173.842 571.717 173.638 571.022 173.231 570.598C172.824 570.173 172.154 569.961 171.221 569.961C170.508 569.961 169.796 570.072 169.083 570.292C168.371 570.496 167.641 570.827 166.895 571.285L166.106 569.478C166.751 569.02 167.557 568.655 168.524 568.384C169.491 568.112 170.415 567.977 171.297 567.977C172.993 567.977 174.249 568.384 175.063 569.198C175.877 569.995 176.284 571.251 176.284 572.964V580.623H173.867V578.562C173.562 579.274 173.087 579.834 172.442 580.241C171.798 580.648 171.026 580.852 170.127 580.852ZM170.636 579.02C171.552 579.02 172.315 578.698 172.926 578.053C173.536 577.408 173.842 576.594 173.842 575.61V574.923H173.002C171.764 574.923 170.788 574.983 170.076 575.101C169.38 575.22 168.88 575.424 168.574 575.712C168.286 575.983 168.142 576.365 168.142 576.857C168.142 577.502 168.362 578.028 168.803 578.435C169.245 578.825 169.855 579.02 170.636 579.02ZM179.824 580.623V568.206H182.318V570.419C182.962 568.944 184.303 568.121 186.338 567.951L187.178 567.9L187.356 570.089L185.804 570.241C183.548 570.462 182.42 571.624 182.42 573.727V580.623H179.824ZM191.359 585.203L193.573 580.292L188.382 568.206H191.13L194.947 577.646L198.815 568.206H201.461L194.056 585.203H191.359Z" fill="#160C0A"/>
</svg>
