<svg width="839" height="276" viewBox="0 0 839 276" fill="none" xmlns="http://www.w3.org/2000/svg">
<rect x="3" y="5" width="220" height="52" rx="2" fill="#A01F1D"/>
<path d="M81.808 37V24.31H87.064C88.432 24.31 89.488 24.652 90.232 25.336C90.976 26.008 91.348 26.956 91.348 28.18C91.348 29.416 90.976 30.376 90.232 31.06C89.488 31.732 88.432 32.068 87.064 32.068H83.68V37H81.808ZM83.68 30.574H86.794C88.618 30.574 89.53 29.776 89.53 28.18C89.53 26.596 88.618 25.804 86.794 25.804H83.68V30.574ZM92.9831 37V28.216H94.7471V29.782C95.2031 28.738 96.1511 28.156 97.5911 28.036L98.1851 28L98.3111 29.548L97.2131 29.656C95.6171 29.812 94.8191 30.634 94.8191 32.122V37H92.9831ZM99.5359 26.182V24.292H101.66V26.182H99.5359ZM99.6979 37V28.216H101.516V37H99.6979ZM104.111 37V28.216H105.875V29.638C106.139 29.134 106.505 28.744 106.973 28.468C107.441 28.192 107.987 28.054 108.611 28.054C109.955 28.054 110.825 28.642 111.221 29.818C111.497 29.266 111.893 28.834 112.409 28.522C112.925 28.21 113.513 28.054 114.173 28.054C116.141 28.054 117.125 29.23 117.125 31.582V37H115.307V31.672C115.307 30.928 115.175 30.382 114.911 30.034C114.659 29.686 114.239 29.512 113.651 29.512C112.991 29.512 112.469 29.746 112.085 30.214C111.701 30.67 111.509 31.294 111.509 32.086V37H109.691V31.672C109.691 30.928 109.565 30.382 109.313 30.034C109.061 29.686 108.641 29.512 108.053 29.512C107.393 29.512 106.871 29.746 106.487 30.214C106.115 30.67 105.929 31.294 105.929 32.086V37H104.111ZM122.475 37.162C121.863 37.162 121.317 37.042 120.837 36.802C120.357 36.562 119.973 36.238 119.685 35.83C119.409 35.422 119.271 34.96 119.271 34.444C119.271 33.796 119.433 33.286 119.757 32.914C120.093 32.542 120.639 32.272 121.395 32.104C122.163 31.936 123.195 31.852 124.491 31.852H125.103V31.384C125.103 30.7 124.959 30.208 124.671 29.908C124.383 29.608 123.909 29.458 123.249 29.458C122.745 29.458 122.241 29.536 121.737 29.692C121.233 29.836 120.717 30.07 120.189 30.394L119.631 29.116C120.087 28.792 120.657 28.534 121.341 28.342C122.025 28.15 122.679 28.054 123.303 28.054C124.503 28.054 125.391 28.342 125.967 28.918C126.543 29.482 126.831 30.37 126.831 31.582V37H125.121V35.542C124.905 36.046 124.569 36.442 124.113 36.73C123.657 37.018 123.111 37.162 122.475 37.162ZM122.835 35.866C123.483 35.866 124.023 35.638 124.455 35.182C124.887 34.726 125.103 34.15 125.103 33.454V32.968H124.509C123.633 32.968 122.943 33.01 122.439 33.094C121.947 33.178 121.593 33.322 121.377 33.526C121.173 33.718 121.071 33.988 121.071 34.336C121.071 34.792 121.227 35.164 121.539 35.452C121.851 35.728 122.283 35.866 122.835 35.866ZM129.335 37V28.216H131.099V29.782C131.555 28.738 132.503 28.156 133.943 28.036L134.537 28L134.663 29.548L133.565 29.656C131.969 29.812 131.171 30.634 131.171 32.122V37H129.335ZM137.494 40.24L139.06 36.766L135.388 28.216H137.332L140.032 34.894L142.768 28.216H144.64L139.402 40.24H137.494Z" fill="white"/>
<rect x="3" y="112" width="220" height="52" rx="2" fill="#160C0A"/>
<path d="M75.9287 144.162C74.9327 144.162 74.0207 144.036 73.1927 143.784C72.3647 143.52 71.6627 143.154 71.0867 142.686L71.6807 141.21C72.2807 141.666 72.9227 142.008 73.6067 142.236C74.2907 142.464 75.0647 142.578 75.9287 142.578C76.9487 142.578 77.6987 142.398 78.1787 142.038C78.6707 141.666 78.9167 141.186 78.9167 140.598C78.9167 140.118 78.7427 139.74 78.3947 139.464C78.0467 139.176 77.4647 138.948 76.6487 138.78L74.7227 138.384C73.5827 138.144 72.7307 137.748 72.1667 137.196C71.6147 136.644 71.3387 135.9 71.3387 134.964C71.3387 134.208 71.5367 133.542 71.9327 132.966C72.3407 132.39 72.9047 131.946 73.6247 131.634C74.3447 131.31 75.1727 131.148 76.1087 131.148C76.9727 131.148 77.7707 131.28 78.5027 131.544C79.2467 131.796 79.8767 132.168 80.3927 132.66L79.7807 134.082C78.7607 133.182 77.5307 132.732 76.0907 132.732C75.2027 132.732 74.4947 132.93 73.9667 133.326C73.4507 133.722 73.1927 134.25 73.1927 134.91C73.1927 135.414 73.3547 135.816 73.6787 136.116C74.0027 136.416 74.5427 136.644 75.2987 136.8L77.2067 137.196C78.4067 137.448 79.3007 137.838 79.8887 138.366C80.4767 138.882 80.7707 139.584 80.7707 140.472C80.7707 141.216 80.5727 141.864 80.1767 142.416C79.7807 142.968 79.2227 143.4 78.5027 143.712C77.7827 144.012 76.9247 144.162 75.9287 144.162ZM86.8199 144.162C85.3799 144.162 84.2459 143.76 83.4179 142.956C82.5899 142.14 82.1759 141.03 82.1759 139.626C82.1759 138.726 82.3559 137.934 82.7159 137.25C83.0879 136.554 83.5979 136.014 84.2459 135.63C84.8939 135.246 85.6379 135.054 86.4779 135.054C87.6899 135.054 88.6439 135.444 89.3399 136.224C90.0359 136.992 90.3839 138.054 90.3839 139.41V140.022H83.9399C84.0719 141.846 85.0379 142.758 86.8379 142.758C87.3419 142.758 87.8339 142.68 88.3139 142.524C88.8059 142.368 89.2679 142.11 89.6999 141.75L90.2399 143.01C89.8439 143.37 89.3339 143.652 88.7099 143.856C88.0859 144.06 87.4559 144.162 86.8199 144.162ZM86.5499 136.332C85.7939 136.332 85.1939 136.566 84.7499 137.034C84.3059 137.502 84.0359 138.126 83.9399 138.906H88.8539C88.8179 138.09 88.6019 137.46 88.2059 137.016C87.8099 136.56 87.2579 136.332 86.5499 136.332ZM96.2359 144.162C95.3359 144.162 94.5559 143.976 93.8959 143.604C93.2479 143.22 92.7439 142.686 92.3839 142.002C92.0239 141.306 91.8439 140.49 91.8439 139.554C91.8439 138.162 92.2399 137.064 93.0319 136.26C93.8239 135.456 94.8919 135.054 96.2359 135.054C96.7879 135.054 97.3339 135.15 97.8739 135.342C98.4139 135.534 98.8579 135.798 99.2059 136.134L98.6299 137.412C98.2939 137.1 97.9219 136.872 97.5139 136.728C97.1179 136.572 96.7399 136.494 96.3799 136.494C95.5279 136.494 94.8679 136.764 94.3999 137.304C93.9439 137.832 93.7159 138.588 93.7159 139.572C93.7159 140.556 93.9439 141.33 94.3999 141.894C94.8679 142.446 95.5279 142.722 96.3799 142.722C96.7399 142.722 97.1179 142.65 97.5139 142.506C97.9219 142.35 98.2939 142.116 98.6299 141.804L99.2059 143.1C98.8579 143.424 98.4079 143.682 97.8559 143.874C97.3159 144.066 96.7759 144.162 96.2359 144.162ZM104.408 144.162C103.52 144.162 102.752 143.976 102.104 143.604C101.456 143.232 100.952 142.71 100.592 142.038C100.244 141.354 100.07 140.544 100.07 139.608C100.07 138.672 100.244 137.868 100.592 137.196C100.952 136.512 101.456 135.984 102.104 135.612C102.752 135.24 103.52 135.054 104.408 135.054C105.272 135.054 106.028 135.24 106.676 135.612C107.324 135.984 107.828 136.512 108.188 137.196C108.548 137.868 108.728 138.672 108.728 139.608C108.728 140.544 108.548 141.354 108.188 142.038C107.828 142.71 107.324 143.232 106.676 143.604C106.028 143.976 105.272 144.162 104.408 144.162ZM104.408 142.758C105.152 142.758 105.752 142.488 106.208 141.948C106.664 141.408 106.892 140.628 106.892 139.608C106.892 138.588 106.664 137.814 106.208 137.286C105.752 136.746 105.152 136.476 104.408 136.476C103.652 136.476 103.046 136.746 102.59 137.286C102.134 137.814 101.906 138.588 101.906 139.608C101.906 140.628 102.134 141.408 102.59 141.948C103.046 142.488 103.652 142.758 104.408 142.758ZM110.77 144V135.216H112.534V136.674C112.834 136.146 113.242 135.744 113.758 135.468C114.286 135.192 114.874 135.054 115.522 135.054C117.598 135.054 118.636 136.23 118.636 138.582V144H116.818V138.69C116.818 137.934 116.668 137.382 116.368 137.034C116.08 136.686 115.624 136.512 115 136.512C114.268 136.512 113.68 136.746 113.236 137.214C112.804 137.67 112.588 138.276 112.588 139.032V144H110.77ZM124.489 144.162C123.721 144.162 123.043 143.982 122.455 143.622C121.879 143.25 121.429 142.722 121.105 142.038C120.781 141.354 120.619 140.544 120.619 139.608C120.619 138.672 120.781 137.868 121.105 137.196C121.429 136.512 121.879 135.984 122.455 135.612C123.031 135.24 123.709 135.054 124.489 135.054C125.149 135.054 125.737 135.198 126.253 135.486C126.769 135.774 127.153 136.164 127.405 136.656V131.31H129.223V144H127.441V142.47C127.189 142.998 126.799 143.412 126.271 143.712C125.755 144.012 125.161 144.162 124.489 144.162ZM124.957 142.758C125.701 142.758 126.301 142.488 126.757 141.948C127.213 141.408 127.441 140.628 127.441 139.608C127.441 138.588 127.213 137.814 126.757 137.286C126.301 136.746 125.701 136.476 124.957 136.476C124.201 136.476 123.595 136.746 123.139 137.286C122.683 137.814 122.455 138.588 122.455 139.608C122.455 140.628 122.683 141.408 123.139 141.948C123.595 142.488 124.201 142.758 124.957 142.758ZM134.584 144.162C133.972 144.162 133.426 144.042 132.946 143.802C132.466 143.562 132.082 143.238 131.794 142.83C131.518 142.422 131.38 141.96 131.38 141.444C131.38 140.796 131.542 140.286 131.866 139.914C132.202 139.542 132.748 139.272 133.504 139.104C134.272 138.936 135.304 138.852 136.6 138.852H137.212V138.384C137.212 137.7 137.068 137.208 136.78 136.908C136.492 136.608 136.018 136.458 135.358 136.458C134.854 136.458 134.35 136.536 133.846 136.692C133.342 136.836 132.826 137.07 132.298 137.394L131.74 136.116C132.196 135.792 132.766 135.534 133.45 135.342C134.134 135.15 134.788 135.054 135.412 135.054C136.612 135.054 137.5 135.342 138.076 135.918C138.652 136.482 138.94 137.37 138.94 138.582V144H137.23V142.542C137.014 143.046 136.678 143.442 136.222 143.73C135.766 144.018 135.22 144.162 134.584 144.162ZM134.944 142.866C135.592 142.866 136.132 142.638 136.564 142.182C136.996 141.726 137.212 141.15 137.212 140.454V139.968H136.618C135.742 139.968 135.052 140.01 134.548 140.094C134.056 140.178 133.702 140.322 133.486 140.526C133.282 140.718 133.18 140.988 133.18 141.336C133.18 141.792 133.336 142.164 133.648 142.452C133.96 142.728 134.392 142.866 134.944 142.866ZM141.444 144V135.216H143.208V136.782C143.664 135.738 144.612 135.156 146.052 135.036L146.646 135L146.772 136.548L145.674 136.656C144.078 136.812 143.28 137.634 143.28 139.122V144H141.444ZM149.604 147.24L151.17 143.766L147.498 135.216H149.442L152.142 141.894L154.878 135.216H156.75L151.512 147.24H149.604Z" fill="white"/>
<rect x="3.5" y="219.5" width="219" height="51" rx="1.5" stroke="#160C0A"/>
<path d="M85.7116 251V239.876H81.2116V238.31H92.0656V239.876H87.5656V251H85.7116ZM96.1549 251.162C94.7149 251.162 93.5809 250.76 92.7529 249.956C91.9249 249.14 91.5109 248.03 91.5109 246.626C91.5109 245.726 91.6909 244.934 92.0509 244.25C92.4229 243.554 92.9329 243.014 93.5809 242.63C94.2289 242.246 94.9729 242.054 95.8129 242.054C97.0249 242.054 97.9789 242.444 98.6749 243.224C99.3709 243.992 99.7189 245.054 99.7189 246.41V247.022H93.2749C93.4069 248.846 94.3729 249.758 96.1729 249.758C96.6769 249.758 97.1689 249.68 97.6489 249.524C98.1409 249.368 98.6029 249.11 99.0349 248.75L99.5749 250.01C99.1789 250.37 98.6689 250.652 98.0449 250.856C97.4209 251.06 96.7909 251.162 96.1549 251.162ZM95.8849 243.332C95.1289 243.332 94.5289 243.566 94.0849 244.034C93.6409 244.502 93.3709 245.126 93.2749 245.906H98.1889C98.1529 245.09 97.9369 244.46 97.5409 244.016C97.1449 243.56 96.5929 243.332 95.8849 243.332ZM101.701 251V242.216H103.465V243.782C103.921 242.738 104.869 242.156 106.309 242.036L106.903 242L107.029 243.548L105.931 243.656C104.335 243.812 103.537 244.634 103.537 246.122V251H101.701ZM112.652 251.162C111.548 251.162 110.726 250.88 110.186 250.316C109.646 249.752 109.376 248.936 109.376 247.868V243.62H107.666V242.216H109.376V239.57H111.194V242.216H113.912V243.62H111.194V247.724C111.194 248.36 111.326 248.84 111.59 249.164C111.866 249.488 112.31 249.65 112.922 249.65C113.114 249.65 113.3 249.632 113.48 249.596C113.66 249.548 113.84 249.494 114.02 249.434L114.308 250.802C114.128 250.91 113.876 250.994 113.552 251.054C113.24 251.126 112.94 251.162 112.652 251.162ZM115.32 240.182V238.292H117.444V240.182H115.32ZM115.482 251V242.216H117.3V251H115.482ZM122.667 251.162C122.055 251.162 121.509 251.042 121.029 250.802C120.549 250.562 120.165 250.238 119.877 249.83C119.601 249.422 119.463 248.96 119.463 248.444C119.463 247.796 119.625 247.286 119.949 246.914C120.285 246.542 120.831 246.272 121.587 246.104C122.355 245.936 123.387 245.852 124.683 245.852H125.295V245.384C125.295 244.7 125.151 244.208 124.863 243.908C124.575 243.608 124.101 243.458 123.441 243.458C122.937 243.458 122.433 243.536 121.929 243.692C121.425 243.836 120.909 244.07 120.381 244.394L119.823 243.116C120.279 242.792 120.849 242.534 121.533 242.342C122.217 242.15 122.871 242.054 123.495 242.054C124.695 242.054 125.583 242.342 126.159 242.918C126.735 243.482 127.023 244.37 127.023 245.582V251H125.313V249.542C125.097 250.046 124.761 250.442 124.305 250.73C123.849 251.018 123.303 251.162 122.667 251.162ZM123.027 249.866C123.675 249.866 124.215 249.638 124.647 249.182C125.079 248.726 125.295 248.15 125.295 247.454V246.968H124.701C123.825 246.968 123.135 247.01 122.631 247.094C122.139 247.178 121.785 247.322 121.569 247.526C121.365 247.718 121.263 247.988 121.263 248.336C121.263 248.792 121.419 249.164 121.731 249.452C122.043 249.728 122.475 249.866 123.027 249.866ZM129.527 251V242.216H131.291V243.782C131.747 242.738 132.695 242.156 134.135 242.036L134.729 242L134.855 243.548L133.757 243.656C132.161 243.812 131.363 244.634 131.363 246.122V251H129.527ZM137.687 254.24L139.253 250.766L135.581 242.216H137.525L140.225 248.894L142.961 242.216H144.833L139.595 254.24H137.687Z" fill="#160C0A"/>
<rect x="500" y="5" width="336" height="52" rx="26" stroke="#160C0A"/>
<path d="M523.857 36.162C522.609 36.162 521.541 35.898 520.653 35.37C519.765 34.842 519.081 34.092 518.601 33.12C518.133 32.148 517.899 30.99 517.899 29.646C517.899 28.314 518.133 27.162 518.601 26.19C519.081 25.218 519.765 24.468 520.653 23.94C521.541 23.412 522.609 23.148 523.857 23.148C524.733 23.148 525.537 23.286 526.269 23.562C527.013 23.838 527.643 24.24 528.159 24.768L527.583 25.974C527.031 25.458 526.455 25.086 525.855 24.858C525.267 24.618 524.613 24.498 523.893 24.498C522.465 24.498 521.373 24.948 520.617 25.848C519.861 26.748 519.483 28.014 519.483 29.646C519.483 31.29 519.861 32.562 520.617 33.462C521.373 34.362 522.465 34.812 523.893 34.812C524.613 34.812 525.267 34.698 525.855 34.47C526.455 34.23 527.031 33.852 527.583 33.336L528.159 34.542C527.643 35.058 527.013 35.46 526.269 35.748C525.537 36.024 524.733 36.162 523.857 36.162ZM532.753 36.162C532.153 36.162 531.613 36.048 531.133 35.82C530.665 35.58 530.293 35.256 530.017 34.848C529.741 34.44 529.603 33.984 529.603 33.48C529.603 32.844 529.765 32.34 530.089 31.968C530.425 31.596 530.971 31.332 531.727 31.176C532.495 31.008 533.539 30.924 534.859 30.924H535.435V30.366C535.435 29.622 535.279 29.088 534.967 28.764C534.667 28.428 534.181 28.26 533.509 28.26C532.981 28.26 532.471 28.338 531.979 28.494C531.487 28.638 530.983 28.878 530.467 29.214L529.963 28.152C530.419 27.828 530.971 27.57 531.619 27.378C532.279 27.186 532.909 27.09 533.509 27.09C534.637 27.09 535.471 27.366 536.011 27.918C536.563 28.47 536.839 29.328 536.839 30.492V36H535.471V34.488C535.243 35.004 534.889 35.412 534.409 35.712C533.941 36.012 533.389 36.162 532.753 36.162ZM532.987 35.064C533.707 35.064 534.295 34.818 534.751 34.326C535.207 33.822 535.435 33.186 535.435 32.418V31.878H534.877C533.905 31.878 533.137 31.926 532.573 32.022C532.021 32.106 531.631 32.262 531.403 32.49C531.187 32.706 531.079 33.006 531.079 33.39C531.079 33.882 531.247 34.284 531.583 34.596C531.931 34.908 532.399 35.064 532.987 35.064ZM543.972 36.162C543.276 36.162 542.664 36.006 542.136 35.694C541.62 35.382 541.23 34.956 540.966 34.416V36H539.544V23.31H541.002V28.764C541.254 28.248 541.644 27.84 542.172 27.54C542.7 27.24 543.3 27.09 543.972 27.09C544.752 27.09 545.43 27.276 546.006 27.648C546.594 28.008 547.044 28.53 547.356 29.214C547.68 29.886 547.842 30.69 547.842 31.626C547.842 32.55 547.68 33.354 547.356 34.038C547.044 34.71 546.594 35.232 546.006 35.604C545.43 35.976 544.752 36.162 543.972 36.162ZM543.666 34.992C544.482 34.992 545.136 34.704 545.628 34.128C546.12 33.54 546.366 32.706 546.366 31.626C546.366 30.534 546.12 29.7 545.628 29.124C545.136 28.548 544.482 28.26 543.666 28.26C542.85 28.26 542.196 28.548 541.704 29.124C541.212 29.7 540.966 30.534 540.966 31.626C540.966 32.706 541.212 33.54 541.704 34.128C542.196 34.704 542.85 34.992 543.666 34.992ZM553.98 36.162C552.6 36.162 551.508 35.76 550.704 34.956C549.9 34.14 549.498 33.036 549.498 31.644C549.498 30.744 549.678 29.952 550.038 29.268C550.398 28.572 550.89 28.038 551.514 27.666C552.15 27.282 552.882 27.09 553.71 27.09C554.898 27.09 555.828 27.474 556.5 28.242C557.172 28.998 557.508 30.042 557.508 31.374V31.932H550.92C550.968 32.928 551.256 33.69 551.784 34.218C552.312 34.734 553.044 34.992 553.98 34.992C554.508 34.992 555.012 34.914 555.492 34.758C555.972 34.59 556.428 34.32 556.86 33.948L557.364 34.974C556.968 35.346 556.464 35.64 555.852 35.856C555.24 36.06 554.616 36.162 553.98 36.162ZM553.746 28.17C552.918 28.17 552.264 28.428 551.784 28.944C551.304 29.46 551.022 30.138 550.938 30.978H556.248C556.212 30.09 555.978 29.4 555.546 28.908C555.126 28.416 554.526 28.17 553.746 28.17ZM559.618 36V27.252H561.04V28.818C561.508 27.762 562.468 27.18 563.92 27.072L564.442 27.018L564.55 28.278L563.632 28.386C562.804 28.458 562.174 28.722 561.742 29.178C561.31 29.622 561.094 30.234 561.094 31.014V36H559.618ZM566.069 36V27.252H567.491V28.746C567.779 28.194 568.187 27.78 568.715 27.504C569.243 27.228 569.837 27.09 570.497 27.09C572.573 27.09 573.611 28.242 573.611 30.546V36H572.153V30.636C572.153 29.82 571.991 29.226 571.667 28.854C571.355 28.47 570.851 28.278 570.155 28.278C569.351 28.278 568.709 28.53 568.229 29.034C567.761 29.526 567.527 30.186 567.527 31.014V36H566.069ZM580.242 36.162C578.862 36.162 577.77 35.76 576.966 34.956C576.162 34.14 575.76 33.036 575.76 31.644C575.76 30.744 575.94 29.952 576.3 29.268C576.66 28.572 577.152 28.038 577.776 27.666C578.412 27.282 579.144 27.09 579.972 27.09C581.16 27.09 582.09 27.474 582.762 28.242C583.434 28.998 583.77 30.042 583.77 31.374V31.932H577.182C577.23 32.928 577.518 33.69 578.046 34.218C578.574 34.734 579.306 34.992 580.242 34.992C580.77 34.992 581.274 34.914 581.754 34.758C582.234 34.59 582.69 34.32 583.122 33.948L583.626 34.974C583.23 35.346 582.726 35.64 582.114 35.856C581.502 36.06 580.878 36.162 580.242 36.162ZM580.008 28.17C579.18 28.17 578.526 28.428 578.046 28.944C577.566 29.46 577.284 30.138 577.2 30.978H582.51C582.474 30.09 582.24 29.4 581.808 28.908C581.388 28.416 580.788 28.17 580.008 28.17ZM589.39 36.162C588.358 36.162 587.584 35.892 587.068 35.352C586.552 34.8 586.294 34.008 586.294 32.976V28.386H584.584V27.252H586.294V24.57H587.752V27.252H590.524V28.386H587.752V32.832C587.752 33.516 587.896 34.038 588.184 34.398C588.472 34.746 588.94 34.92 589.588 34.92C589.78 34.92 589.972 34.896 590.164 34.848C590.356 34.8 590.53 34.752 590.686 34.704L590.938 35.82C590.782 35.904 590.554 35.982 590.254 36.054C589.954 36.126 589.666 36.162 589.39 36.162ZM601.098 36.162C600.102 36.162 599.202 36.036 598.398 35.784C597.594 35.52 596.898 35.142 596.31 34.65L596.832 33.462C597.444 33.93 598.086 34.278 598.758 34.506C599.43 34.734 600.21 34.848 601.098 34.848C602.178 34.848 602.976 34.65 603.492 34.254C604.02 33.846 604.284 33.312 604.284 32.652C604.284 32.124 604.092 31.704 603.708 31.392C603.336 31.08 602.706 30.834 601.818 30.654L599.946 30.276C598.818 30.036 597.972 29.646 597.408 29.106C596.856 28.554 596.58 27.822 596.58 26.91C596.58 26.154 596.772 25.494 597.156 24.93C597.552 24.366 598.098 23.928 598.794 23.616C599.49 23.304 600.294 23.148 601.206 23.148C602.058 23.148 602.85 23.286 603.582 23.562C604.314 23.826 604.932 24.21 605.436 24.714L604.914 25.866C604.374 25.374 603.804 25.02 603.204 24.804C602.604 24.576 601.932 24.462 601.188 24.462C600.24 24.462 599.484 24.684 598.92 25.128C598.356 25.56 598.074 26.136 598.074 26.856C598.074 27.432 598.248 27.888 598.596 28.224C598.956 28.56 599.538 28.806 600.342 28.962L602.214 29.358C603.426 29.61 604.32 29.994 604.896 30.51C605.484 31.014 605.778 31.704 605.778 32.58C605.778 33.288 605.586 33.912 605.202 34.452C604.83 34.992 604.29 35.412 603.582 35.712C602.886 36.012 602.058 36.162 601.098 36.162ZM610.624 36.162C610.024 36.162 609.484 36.048 609.004 35.82C608.536 35.58 608.164 35.256 607.888 34.848C607.612 34.44 607.474 33.984 607.474 33.48C607.474 32.844 607.636 32.34 607.96 31.968C608.296 31.596 608.842 31.332 609.598 31.176C610.366 31.008 611.41 30.924 612.73 30.924H613.306V30.366C613.306 29.622 613.15 29.088 612.838 28.764C612.538 28.428 612.052 28.26 611.38 28.26C610.852 28.26 610.342 28.338 609.85 28.494C609.358 28.638 608.854 28.878 608.338 29.214L607.834 28.152C608.29 27.828 608.842 27.57 609.49 27.378C610.15 27.186 610.78 27.09 611.38 27.09C612.508 27.09 613.342 27.366 613.882 27.918C614.434 28.47 614.71 29.328 614.71 30.492V36H613.342V34.488C613.114 35.004 612.76 35.412 612.28 35.712C611.812 36.012 611.26 36.162 610.624 36.162ZM610.858 35.064C611.578 35.064 612.166 34.818 612.622 34.326C613.078 33.822 613.306 33.186 613.306 32.418V31.878H612.748C611.776 31.878 611.008 31.926 610.444 32.022C609.892 32.106 609.502 32.262 609.274 32.49C609.058 32.706 608.95 33.006 608.95 33.39C608.95 33.882 609.118 34.284 609.454 34.596C609.802 34.908 610.27 35.064 610.858 35.064ZM620.511 36.162C618.411 36.162 617.361 35.004 617.361 32.688V27.252H618.819V32.67C618.819 33.45 618.975 34.026 619.287 34.398C619.611 34.77 620.115 34.956 620.799 34.956C621.543 34.956 622.149 34.71 622.617 34.218C623.085 33.714 623.319 33.048 623.319 32.22V27.252H624.777V36H623.355V34.524C623.079 35.052 622.689 35.46 622.185 35.748C621.693 36.024 621.135 36.162 620.511 36.162ZM630.079 36L626.317 27.252H627.901L630.799 34.344L633.733 27.252H635.227L631.447 36H630.079ZM637.056 39.24V23.31H638.514V39.24H637.056Z" fill="black"/>
<path d="M813.042 29.425C813.042 33.0774 809.922 36.0999 805.995 36.0999C802.069 36.0999 798.949 33.0774 798.949 29.425C798.949 25.7725 802.069 22.75 805.995 22.75C809.922 22.75 813.042 25.7725 813.042 29.425Z" stroke="#160C0A" stroke-width="1.5"/>
<path d="M811.035 34.2247L816.548 39.475" stroke="#160C0A" stroke-width="1.5" stroke-linecap="round"/>
<rect x="500.5" y="112.5" width="335" height="51" rx="1.5" stroke="#160C0A"/>
<path d="M520.716 142.416C520.128 142.416 519.588 142.278 519.096 142.002C518.604 141.714 518.208 141.33 517.908 140.85C517.608 140.37 517.458 139.83 517.458 139.23C517.458 138.678 517.596 138.162 517.872 137.682C518.16 137.19 518.55 136.794 519.042 136.494C519.534 136.182 520.092 136.026 520.716 136.026C521.292 136.026 521.826 136.164 522.318 136.44C522.822 136.716 523.224 137.1 523.524 137.592C523.824 138.072 523.974 138.618 523.974 139.23C523.974 139.818 523.824 140.352 523.524 140.832C523.236 141.312 522.846 141.696 522.354 141.984C521.862 142.272 521.316 142.416 520.716 142.416ZM530.155 142.416C529.567 142.416 529.027 142.278 528.535 142.002C528.043 141.714 527.647 141.33 527.347 140.85C527.047 140.37 526.897 139.83 526.897 139.23C526.897 138.678 527.035 138.162 527.311 137.682C527.599 137.19 527.989 136.794 528.481 136.494C528.973 136.182 529.531 136.026 530.155 136.026C530.731 136.026 531.265 136.164 531.757 136.44C532.261 136.716 532.663 137.1 532.963 137.592C533.263 138.072 533.413 138.618 533.413 139.23C533.413 139.818 533.263 140.352 532.963 140.832C532.675 141.312 532.285 141.696 531.793 141.984C531.301 142.272 530.755 142.416 530.155 142.416ZM539.595 142.416C539.007 142.416 538.467 142.278 537.975 142.002C537.483 141.714 537.087 141.33 536.787 140.85C536.487 140.37 536.337 139.83 536.337 139.23C536.337 138.678 536.475 138.162 536.751 137.682C537.039 137.19 537.429 136.794 537.921 136.494C538.413 136.182 538.971 136.026 539.595 136.026C540.171 136.026 540.705 136.164 541.197 136.44C541.701 136.716 542.103 137.1 542.403 137.592C542.703 138.072 542.853 138.618 542.853 139.23C542.853 139.818 542.703 140.352 542.403 140.832C542.115 141.312 541.725 141.696 541.233 141.984C540.741 142.272 540.195 142.416 539.595 142.416ZM549.034 142.416C548.446 142.416 547.906 142.278 547.414 142.002C546.922 141.714 546.526 141.33 546.226 140.85C545.926 140.37 545.776 139.83 545.776 139.23C545.776 138.678 545.914 138.162 546.19 137.682C546.478 137.19 546.868 136.794 547.36 136.494C547.852 136.182 548.41 136.026 549.034 136.026C549.61 136.026 550.144 136.164 550.636 136.44C551.14 136.716 551.542 137.1 551.842 137.592C552.142 138.072 552.292 138.618 552.292 139.23C552.292 139.818 552.142 140.352 551.842 140.832C551.554 141.312 551.164 141.696 550.672 141.984C550.18 142.272 549.634 142.416 549.034 142.416ZM558.474 142.416C557.886 142.416 557.346 142.278 556.854 142.002C556.362 141.714 555.966 141.33 555.666 140.85C555.366 140.37 555.216 139.83 555.216 139.23C555.216 138.678 555.354 138.162 555.63 137.682C555.918 137.19 556.308 136.794 556.8 136.494C557.292 136.182 557.85 136.026 558.474 136.026C559.05 136.026 559.584 136.164 560.076 136.44C560.58 136.716 560.982 137.1 561.282 137.592C561.582 138.072 561.732 138.618 561.732 139.23C561.732 139.818 561.582 140.352 561.282 140.832C560.994 141.312 560.604 141.696 560.112 141.984C559.62 142.272 559.074 142.416 558.474 142.416ZM567.913 142.416C567.325 142.416 566.785 142.278 566.293 142.002C565.801 141.714 565.405 141.33 565.105 140.85C564.805 140.37 564.655 139.83 564.655 139.23C564.655 138.678 564.793 138.162 565.069 137.682C565.357 137.19 565.747 136.794 566.239 136.494C566.731 136.182 567.289 136.026 567.913 136.026C568.489 136.026 569.023 136.164 569.515 136.44C570.019 136.716 570.421 137.1 570.721 137.592C571.021 138.072 571.171 138.618 571.171 139.23C571.171 139.818 571.021 140.352 570.721 140.832C570.433 141.312 570.043 141.696 569.551 141.984C569.059 142.272 568.513 142.416 567.913 142.416ZM577.353 142.416C576.765 142.416 576.225 142.278 575.733 142.002C575.241 141.714 574.845 141.33 574.545 140.85C574.245 140.37 574.095 139.83 574.095 139.23C574.095 138.678 574.233 138.162 574.509 137.682C574.797 137.19 575.187 136.794 575.679 136.494C576.171 136.182 576.729 136.026 577.353 136.026C577.929 136.026 578.463 136.164 578.955 136.44C579.459 136.716 579.861 137.1 580.161 137.592C580.461 138.072 580.611 138.618 580.611 139.23C580.611 139.818 580.461 140.352 580.161 140.832C579.873 141.312 579.483 141.696 578.991 141.984C578.499 142.272 577.953 142.416 577.353 142.416ZM586.792 142.416C586.204 142.416 585.664 142.278 585.172 142.002C584.68 141.714 584.284 141.33 583.984 140.85C583.684 140.37 583.534 139.83 583.534 139.23C583.534 138.678 583.672 138.162 583.948 137.682C584.236 137.19 584.626 136.794 585.118 136.494C585.61 136.182 586.168 136.026 586.792 136.026C587.368 136.026 587.902 136.164 588.394 136.44C588.898 136.716 589.3 137.1 589.6 137.592C589.9 138.072 590.05 138.618 590.05 139.23C590.05 139.818 589.9 140.352 589.6 140.832C589.312 141.312 588.922 141.696 588.43 141.984C587.938 142.272 587.392 142.416 586.792 142.416ZM596.232 142.416C595.644 142.416 595.104 142.278 594.612 142.002C594.12 141.714 593.724 141.33 593.424 140.85C593.124 140.37 592.974 139.83 592.974 139.23C592.974 138.678 593.112 138.162 593.388 137.682C593.676 137.19 594.066 136.794 594.558 136.494C595.05 136.182 595.608 136.026 596.232 136.026C596.808 136.026 597.342 136.164 597.834 136.44C598.338 136.716 598.74 137.1 599.04 137.592C599.34 138.072 599.49 138.618 599.49 139.23C599.49 139.818 599.34 140.352 599.04 140.832C598.752 141.312 598.362 141.696 597.87 141.984C597.378 142.272 596.832 142.416 596.232 142.416ZM605.671 142.416C605.083 142.416 604.543 142.278 604.051 142.002C603.559 141.714 603.163 141.33 602.863 140.85C602.563 140.37 602.413 139.83 602.413 139.23C602.413 138.678 602.551 138.162 602.827 137.682C603.115 137.19 603.505 136.794 603.997 136.494C604.489 136.182 605.047 136.026 605.671 136.026C606.247 136.026 606.781 136.164 607.273 136.44C607.777 136.716 608.179 137.1 608.479 137.592C608.779 138.072 608.929 138.618 608.929 139.23C608.929 139.818 608.779 140.352 608.479 140.832C608.191 141.312 607.801 141.696 607.309 141.984C606.817 142.272 606.271 142.416 605.671 142.416ZM615.111 142.416C614.523 142.416 613.983 142.278 613.491 142.002C612.999 141.714 612.603 141.33 612.303 140.85C612.003 140.37 611.853 139.83 611.853 139.23C611.853 138.678 611.991 138.162 612.267 137.682C612.555 137.19 612.945 136.794 613.437 136.494C613.929 136.182 614.487 136.026 615.111 136.026C615.687 136.026 616.221 136.164 616.713 136.44C617.217 136.716 617.619 137.1 617.919 137.592C618.219 138.072 618.369 138.618 618.369 139.23C618.369 139.818 618.219 140.352 617.919 140.832C617.631 141.312 617.241 141.696 616.749 141.984C616.257 142.272 615.711 142.416 615.111 142.416ZM624.55 142.416C623.962 142.416 623.422 142.278 622.93 142.002C622.438 141.714 622.042 141.33 621.742 140.85C621.442 140.37 621.292 139.83 621.292 139.23C621.292 138.678 621.43 138.162 621.706 137.682C621.994 137.19 622.384 136.794 622.876 136.494C623.368 136.182 623.926 136.026 624.55 136.026C625.126 136.026 625.66 136.164 626.152 136.44C626.656 136.716 627.058 137.1 627.358 137.592C627.658 138.072 627.808 138.618 627.808 139.23C627.808 139.818 627.658 140.352 627.358 140.832C627.07 141.312 626.68 141.696 626.188 141.984C625.696 142.272 625.15 142.416 624.55 142.416ZM633.989 142.416C633.401 142.416 632.861 142.278 632.369 142.002C631.877 141.714 631.481 141.33 631.181 140.85C630.881 140.37 630.731 139.83 630.731 139.23C630.731 138.678 630.869 138.162 631.145 137.682C631.433 137.19 631.823 136.794 632.315 136.494C632.807 136.182 633.365 136.026 633.989 136.026C634.565 136.026 635.099 136.164 635.591 136.44C636.095 136.716 636.497 137.1 636.797 137.592C637.097 138.072 637.247 138.618 637.247 139.23C637.247 139.818 637.097 140.352 636.797 140.832C636.509 141.312 636.119 141.696 635.627 141.984C635.135 142.272 634.589 142.416 633.989 142.416ZM643.429 142.416C642.841 142.416 642.301 142.278 641.809 142.002C641.317 141.714 640.921 141.33 640.621 140.85C640.321 140.37 640.171 139.83 640.171 139.23C640.171 138.678 640.309 138.162 640.585 137.682C640.873 137.19 641.263 136.794 641.755 136.494C642.247 136.182 642.805 136.026 643.429 136.026C644.005 136.026 644.539 136.164 645.031 136.44C645.535 136.716 645.937 137.1 646.237 137.592C646.537 138.072 646.687 138.618 646.687 139.23C646.687 139.818 646.537 140.352 646.237 140.832C645.949 141.312 645.559 141.696 645.067 141.984C644.575 142.272 644.029 142.416 643.429 142.416ZM652.868 142.416C652.28 142.416 651.74 142.278 651.248 142.002C650.756 141.714 650.36 141.33 650.06 140.85C649.76 140.37 649.61 139.83 649.61 139.23C649.61 138.678 649.748 138.162 650.024 137.682C650.312 137.19 650.702 136.794 651.194 136.494C651.686 136.182 652.244 136.026 652.868 136.026C653.444 136.026 653.978 136.164 654.47 136.44C654.974 136.716 655.376 137.1 655.676 137.592C655.976 138.072 656.126 138.618 656.126 139.23C656.126 139.818 655.976 140.352 655.676 140.832C655.388 141.312 654.998 141.696 654.506 141.984C654.014 142.272 653.468 142.416 652.868 142.416ZM662.308 142.416C661.72 142.416 661.18 142.278 660.688 142.002C660.196 141.714 659.8 141.33 659.5 140.85C659.2 140.37 659.05 139.83 659.05 139.23C659.05 138.678 659.188 138.162 659.464 137.682C659.752 137.19 660.142 136.794 660.634 136.494C661.126 136.182 661.684 136.026 662.308 136.026C662.884 136.026 663.418 136.164 663.91 136.44C664.414 136.716 664.816 137.1 665.116 137.592C665.416 138.072 665.566 138.618 665.566 139.23C665.566 139.818 665.416 140.352 665.116 140.832C664.828 141.312 664.438 141.696 663.946 141.984C663.454 142.272 662.908 142.416 662.308 142.416Z" fill="#160C0A"/>
<path d="M505.305 103V92.425H509.49C510.63 92.425 511.5 92.7 512.1 93.25C512.71 93.8 513.015 94.585 513.015 95.605C513.015 96.615 512.71 97.4 512.1 97.96C511.5 98.51 510.63 98.785 509.49 98.785H506.535V103H505.305ZM506.535 97.75H509.34C510.98 97.75 511.8 97.035 511.8 95.605C511.8 94.165 510.98 93.445 509.34 93.445H506.535V97.75ZM516.561 103.135C516.061 103.135 515.611 103.04 515.211 102.85C514.821 102.65 514.511 102.38 514.281 102.04C514.051 101.7 513.936 101.32 513.936 100.9C513.936 100.37 514.071 99.95 514.341 99.64C514.621 99.33 515.076 99.11 515.706 98.98C516.346 98.84 517.216 98.77 518.316 98.77H518.796V98.305C518.796 97.685 518.666 97.24 518.406 96.97C518.156 96.69 517.751 96.55 517.191 96.55C516.751 96.55 516.326 96.615 515.916 96.745C515.506 96.865 515.086 97.065 514.656 97.345L514.236 96.46C514.616 96.19 515.076 95.975 515.616 95.815C516.166 95.655 516.691 95.575 517.191 95.575C518.131 95.575 518.826 95.805 519.276 96.265C519.736 96.725 519.966 97.44 519.966 98.41V103H518.826V101.74C518.636 102.17 518.341 102.51 517.941 102.76C517.551 103.01 517.091 103.135 516.561 103.135ZM516.756 102.22C517.356 102.22 517.846 102.015 518.226 101.605C518.606 101.185 518.796 100.655 518.796 100.015V99.565H518.331C517.521 99.565 516.881 99.605 516.411 99.685C515.951 99.755 515.626 99.885 515.436 100.075C515.256 100.255 515.166 100.505 515.166 100.825C515.166 101.235 515.306 101.57 515.586 101.83C515.876 102.09 516.266 102.22 516.756 102.22ZM524.68 103.135C524.11 103.135 523.57 103.055 523.06 102.895C522.55 102.735 522.13 102.51 521.8 102.22L522.19 101.365C522.55 101.655 522.945 101.87 523.375 102.01C523.815 102.14 524.26 102.205 524.71 102.205C525.28 102.205 525.71 102.1 526 101.89C526.29 101.68 526.435 101.395 526.435 101.035C526.435 100.755 526.34 100.535 526.15 100.375C525.96 100.205 525.66 100.075 525.25 99.985L523.885 99.685C522.645 99.415 522.025 98.775 522.025 97.765C522.025 97.105 522.285 96.575 522.805 96.175C523.335 95.775 524.025 95.575 524.875 95.575C525.375 95.575 525.85 95.655 526.3 95.815C526.76 95.965 527.14 96.19 527.44 96.49L527.035 97.345C526.745 97.075 526.405 96.87 526.015 96.73C525.635 96.58 525.255 96.505 524.875 96.505C524.315 96.505 523.89 96.615 523.6 96.835C523.31 97.055 523.165 97.345 523.165 97.705C523.165 98.265 523.535 98.625 524.275 98.785L525.64 99.07C526.28 99.21 526.765 99.435 527.095 99.745C527.425 100.045 527.59 100.455 527.59 100.975C527.59 101.645 527.325 102.175 526.795 102.565C526.265 102.945 525.56 103.135 524.68 103.135ZM531.902 103.135C531.332 103.135 530.792 103.055 530.282 102.895C529.772 102.735 529.352 102.51 529.022 102.22L529.412 101.365C529.772 101.655 530.167 101.87 530.597 102.01C531.037 102.14 531.482 102.205 531.932 102.205C532.502 102.205 532.932 102.1 533.222 101.89C533.512 101.68 533.657 101.395 533.657 101.035C533.657 100.755 533.562 100.535 533.372 100.375C533.182 100.205 532.882 100.075 532.472 99.985L531.107 99.685C529.867 99.415 529.247 98.775 529.247 97.765C529.247 97.105 529.507 96.575 530.027 96.175C530.557 95.775 531.247 95.575 532.097 95.575C532.597 95.575 533.072 95.655 533.522 95.815C533.982 95.965 534.362 96.19 534.662 96.49L534.257 97.345C533.967 97.075 533.627 96.87 533.237 96.73C532.857 96.58 532.477 96.505 532.097 96.505C531.537 96.505 531.112 96.615 530.822 96.835C530.532 97.055 530.387 97.345 530.387 97.705C530.387 98.265 530.757 98.625 531.497 98.785L532.862 99.07C533.502 99.21 533.987 99.435 534.317 99.745C534.647 100.045 534.812 100.455 534.812 100.975C534.812 101.645 534.547 102.175 534.017 102.565C533.487 102.945 532.782 103.135 531.902 103.135ZM538.452 103L535.737 95.71H537.012L539.067 101.575L541.197 95.71H542.232L544.332 101.59L546.417 95.71H547.632L544.902 103H543.747L541.692 97.345L539.622 103H538.452ZM552.057 103.135C551.347 103.135 550.732 102.98 550.212 102.67C549.692 102.36 549.287 101.925 548.997 101.365C548.717 100.795 548.577 100.125 548.577 99.355C548.577 98.585 548.717 97.92 548.997 97.36C549.287 96.79 549.692 96.35 550.212 96.04C550.732 95.73 551.347 95.575 552.057 95.575C552.757 95.575 553.367 95.73 553.887 96.04C554.417 96.35 554.822 96.79 555.102 97.36C555.392 97.92 555.537 98.585 555.537 99.355C555.537 100.125 555.392 100.795 555.102 101.365C554.822 101.925 554.417 102.36 553.887 102.67C553.367 102.98 552.757 103.135 552.057 103.135ZM552.057 102.16C552.737 102.16 553.282 101.92 553.692 101.44C554.102 100.95 554.307 100.255 554.307 99.355C554.307 98.445 554.102 97.75 553.692 97.27C553.282 96.79 552.737 96.55 552.057 96.55C551.367 96.55 550.817 96.79 550.407 97.27C550.007 97.75 549.807 98.445 549.807 99.355C549.807 100.255 550.007 100.95 550.407 101.44C550.817 101.92 551.367 102.16 552.057 102.16ZM557.362 103V95.71H558.547V97.015C558.937 96.135 559.737 95.65 560.947 95.56L561.382 95.515L561.472 96.565L560.707 96.655C560.017 96.715 559.492 96.935 559.132 97.315C558.772 97.685 558.592 98.195 558.592 98.845V103H557.362ZM565.425 103.135C564.775 103.135 564.205 102.98 563.715 102.67C563.235 102.36 562.86 101.925 562.59 101.365C562.33 100.795 562.2 100.125 562.2 99.355C562.2 98.575 562.33 97.905 562.59 97.345C562.86 96.775 563.235 96.34 563.715 96.04C564.205 95.73 564.775 95.575 565.425 95.575C565.995 95.575 566.495 95.7 566.925 95.95C567.365 96.2 567.69 96.545 567.9 96.985V92.425H569.115V103H567.93V101.665C567.72 102.125 567.395 102.485 566.955 102.745C566.515 103.005 566.005 103.135 565.425 103.135ZM565.68 102.16C566.36 102.16 566.905 101.92 567.315 101.44C567.725 100.95 567.93 100.255 567.93 99.355C567.93 98.445 567.725 97.75 567.315 97.27C566.905 96.79 566.36 96.55 565.68 96.55C564.99 96.55 564.44 96.79 564.03 97.27C563.63 97.75 563.43 98.445 563.43 99.355C563.43 100.255 563.63 100.95 564.03 101.44C564.44 101.92 564.99 102.16 565.68 102.16Z" fill="#736D6A"/>
<path d="M810 132.5C811.839 132.494 813.642 133.007 815.202 133.98C816.762 134.953 818.016 136.346 818.82 138C817.17 141.37 813.8 143.5 810 143.5C806.2 143.5 802.83 141.37 801.18 138C801.984 136.346 803.238 134.953 804.798 133.98C806.358 133.007 808.161 132.494 810 132.5ZM810 130.5C805 130.5 800.73 133.61 799 138C800.73 142.39 805 145.5 810 145.5C815 145.5 819.27 142.39 821 138C819.27 133.61 815 130.5 810 130.5ZM810 135.5C810.663 135.5 811.299 135.763 811.768 136.232C812.237 136.701 812.5 137.337 812.5 138C812.5 138.663 812.237 139.299 811.768 139.768C811.299 140.237 810.663 140.5 810 140.5C809.337 140.5 808.701 140.237 808.232 139.768C807.763 139.299 807.5 138.663 807.5 138C807.5 137.337 807.763 136.701 808.232 136.232C808.701 135.763 809.337 135.5 810 135.5ZM810 133.5C807.52 133.5 805.5 135.52 805.5 138C805.5 140.48 807.52 142.5 810 142.5C812.48 142.5 814.5 140.48 814.5 138C814.5 135.52 812.48 133.5 810 133.5Z" fill="#160C0A"/>
<g clip-path="url(#clip0_600_3586)">
<rect x="500.5" y="219.5" width="159" height="51" rx="1.5" stroke="#160C0A"/>
<path d="M523.273 245H548.729" stroke="#160C0A" stroke-width="1.5" stroke-linecap="round"/>
<path d="M575.704 252V250.46L580.404 245.42C581.057 244.713 581.524 244.073 581.804 243.5C582.097 242.927 582.244 242.347 582.244 241.76C582.244 240.24 581.351 239.48 579.564 239.48C578.204 239.48 576.984 239.993 575.904 241.02L575.164 239.44C575.697 238.92 576.377 238.507 577.204 238.2C578.031 237.88 578.891 237.72 579.784 237.72C581.237 237.72 582.351 238.053 583.124 238.72C583.911 239.387 584.304 240.34 584.304 241.58C584.304 242.42 584.097 243.24 583.684 244.04C583.284 244.84 582.651 245.693 581.784 246.6L578.304 250.26H584.864V252H575.704Z" fill="#160C0A"/>
<path d="M611.273 245H636.729" stroke="#160C0A" stroke-width="1.5" stroke-linecap="round"/>
<path d="M624.001 257.728V232.272" stroke="#160C0A" stroke-width="1.5" stroke-linecap="round"/>
</g>
<rect x="676" y="219" width="160" height="52" rx="2" fill="#160C0A"/>
<path d="M708.446 251L714.098 238.31H715.646L721.316 251H719.408L718.076 247.904H711.65L710.336 251H708.446ZM714.854 240.38L712.316 246.392H717.446L714.89 240.38H714.854ZM726.04 251.162C725.272 251.162 724.594 250.982 724.006 250.622C723.43 250.25 722.98 249.722 722.656 249.038C722.332 248.354 722.17 247.544 722.17 246.608C722.17 245.672 722.332 244.868 722.656 244.196C722.98 243.512 723.43 242.984 724.006 242.612C724.582 242.24 725.26 242.054 726.04 242.054C726.7 242.054 727.288 242.198 727.804 242.486C728.32 242.774 728.704 243.164 728.956 243.656V238.31H730.774V251H728.992V249.47C728.74 249.998 728.35 250.412 727.822 250.712C727.306 251.012 726.712 251.162 726.04 251.162ZM726.508 249.758C727.252 249.758 727.852 249.488 728.308 248.948C728.764 248.408 728.992 247.628 728.992 246.608C728.992 245.588 728.764 244.814 728.308 244.286C727.852 243.746 727.252 243.476 726.508 243.476C725.752 243.476 725.146 243.746 724.69 244.286C724.234 244.814 724.006 245.588 724.006 246.608C724.006 247.628 724.234 248.408 724.69 248.948C725.146 249.488 725.752 249.758 726.508 249.758ZM736.675 251.162C735.907 251.162 735.229 250.982 734.641 250.622C734.065 250.25 733.615 249.722 733.291 249.038C732.967 248.354 732.805 247.544 732.805 246.608C732.805 245.672 732.967 244.868 733.291 244.196C733.615 243.512 734.065 242.984 734.641 242.612C735.217 242.24 735.895 242.054 736.675 242.054C737.335 242.054 737.923 242.198 738.439 242.486C738.955 242.774 739.339 243.164 739.591 243.656V238.31H741.409V251H739.627V249.47C739.375 249.998 738.985 250.412 738.457 250.712C737.941 251.012 737.347 251.162 736.675 251.162ZM737.143 249.758C737.887 249.758 738.487 249.488 738.943 248.948C739.399 248.408 739.627 247.628 739.627 246.608C739.627 245.588 739.399 244.814 738.943 244.286C738.487 243.746 737.887 243.476 737.143 243.476C736.387 243.476 735.781 243.746 735.325 244.286C734.869 244.814 734.641 245.588 734.641 246.608C734.641 247.628 734.869 248.408 735.325 248.948C735.781 249.488 736.387 249.758 737.143 249.758ZM752.434 251.162C751.33 251.162 750.508 250.88 749.968 250.316C749.428 249.752 749.158 248.936 749.158 247.868V243.62H747.448V242.216H749.158V239.57H750.976V242.216H753.694V243.62H750.976V247.724C750.976 248.36 751.108 248.84 751.372 249.164C751.648 249.488 752.092 249.65 752.704 249.65C752.896 249.65 753.082 249.632 753.262 249.596C753.442 249.548 753.622 249.494 753.802 249.434L754.09 250.802C753.91 250.91 753.658 250.994 753.334 251.054C753.022 251.126 752.722 251.162 752.434 251.162ZM758.992 251.162C758.104 251.162 757.336 250.976 756.688 250.604C756.04 250.232 755.536 249.71 755.176 249.038C754.828 248.354 754.654 247.544 754.654 246.608C754.654 245.672 754.828 244.868 755.176 244.196C755.536 243.512 756.04 242.984 756.688 242.612C757.336 242.24 758.104 242.054 758.992 242.054C759.856 242.054 760.612 242.24 761.26 242.612C761.908 242.984 762.412 243.512 762.772 244.196C763.132 244.868 763.312 245.672 763.312 246.608C763.312 247.544 763.132 248.354 762.772 249.038C762.412 249.71 761.908 250.232 761.26 250.604C760.612 250.976 759.856 251.162 758.992 251.162ZM758.992 249.758C759.736 249.758 760.336 249.488 760.792 248.948C761.248 248.408 761.476 247.628 761.476 246.608C761.476 245.588 761.248 244.814 760.792 244.286C760.336 243.746 759.736 243.476 758.992 243.476C758.236 243.476 757.63 243.746 757.174 244.286C756.718 244.814 756.49 245.588 756.49 246.608C756.49 247.628 756.718 248.408 757.174 248.948C757.63 249.488 758.236 249.758 758.992 249.758ZM775.969 251.162C774.685 251.162 773.587 250.898 772.675 250.37C771.763 249.842 771.061 249.092 770.569 248.12C770.089 247.136 769.849 245.978 769.849 244.646C769.849 243.314 770.089 242.162 770.569 241.19C771.061 240.218 771.763 239.468 772.675 238.94C773.587 238.412 774.685 238.148 775.969 238.148C776.833 238.148 777.637 238.286 778.381 238.562C779.137 238.826 779.767 239.21 780.271 239.714L779.623 241.208C779.071 240.716 778.501 240.362 777.913 240.146C777.337 239.918 776.707 239.804 776.023 239.804C774.655 239.804 773.611 240.224 772.891 241.064C772.171 241.904 771.811 243.098 771.811 244.646C771.811 246.194 772.171 247.394 772.891 248.246C773.611 249.086 774.655 249.506 776.023 249.506C776.707 249.506 777.337 249.398 777.913 249.182C778.501 248.954 779.071 248.594 779.623 248.102L780.271 249.596C779.767 250.088 779.137 250.472 778.381 250.748C777.637 251.024 776.833 251.162 775.969 251.162ZM784.756 251.162C784.144 251.162 783.598 251.042 783.118 250.802C782.638 250.562 782.254 250.238 781.966 249.83C781.69 249.422 781.552 248.96 781.552 248.444C781.552 247.796 781.714 247.286 782.038 246.914C782.374 246.542 782.92 246.272 783.676 246.104C784.444 245.936 785.476 245.852 786.772 245.852H787.384V245.384C787.384 244.7 787.24 244.208 786.952 243.908C786.664 243.608 786.19 243.458 785.53 243.458C785.026 243.458 784.522 243.536 784.018 243.692C783.514 243.836 782.998 244.07 782.47 244.394L781.912 243.116C782.368 242.792 782.938 242.534 783.622 242.342C784.306 242.15 784.96 242.054 785.584 242.054C786.784 242.054 787.672 242.342 788.248 242.918C788.824 243.482 789.112 244.37 789.112 245.582V251H787.402V249.542C787.186 250.046 786.85 250.442 786.394 250.73C785.938 251.018 785.392 251.162 784.756 251.162ZM785.116 249.866C785.764 249.866 786.304 249.638 786.736 249.182C787.168 248.726 787.384 248.15 787.384 247.454V246.968H786.79C785.914 246.968 785.224 247.01 784.72 247.094C784.228 247.178 783.874 247.322 783.658 247.526C783.454 247.718 783.352 247.988 783.352 248.336C783.352 248.792 783.508 249.164 783.82 249.452C784.132 249.728 784.564 249.866 785.116 249.866ZM791.616 251V242.216H793.38V243.782C793.836 242.738 794.784 242.156 796.224 242.036L796.818 242L796.944 243.548L795.846 243.656C794.25 243.812 793.452 244.634 793.452 246.122V251H791.616ZM802.567 251.162C801.463 251.162 800.641 250.88 800.101 250.316C799.561 249.752 799.291 248.936 799.291 247.868V243.62H797.581V242.216H799.291V239.57H801.109V242.216H803.827V243.62H801.109V247.724C801.109 248.36 801.241 248.84 801.505 249.164C801.781 249.488 802.225 249.65 802.837 249.65C803.029 249.65 803.215 249.632 803.395 249.596C803.575 249.548 803.755 249.494 803.935 249.434L804.223 250.802C804.043 250.91 803.791 250.994 803.467 251.054C803.155 251.126 802.855 251.162 802.567 251.162Z" fill="white"/>
<defs>
<clipPath id="clip0_600_3586">
<rect width="160" height="52" fill="white" transform="translate(500 219)"/>
</clipPath>
</defs>
</svg>
