<svg width="1200" height="52" viewBox="0 0 1200 52" fill="none" xmlns="http://www.w3.org/2000/svg">
<rect width="1200" height="52" fill="white"/>
<path d="M1051.31 31V20.425H1052.54V29.92H1057.92V31H1051.31ZM1059.45 31V20.425H1060.68V31H1059.45ZM1063.29 31V20.425H1064.25L1070.62 28.93V20.425H1071.76V31H1070.83L1064.44 22.465V31H1063.29ZM1074.39 31V20.425H1075.62V25.225H1075.65L1080.78 20.425H1082.36L1076.84 25.57L1082.69 31H1081.07L1075.65 26.02H1075.62V31H1074.39ZM1087.62 31V20.425H1091.85C1092.94 20.425 1093.78 20.67 1094.37 21.16C1094.97 21.64 1095.27 22.315 1095.27 23.185C1095.27 23.765 1095.12 24.26 1094.82 24.67C1094.52 25.08 1094.1 25.38 1093.57 25.57C1094.18 25.73 1094.66 26.025 1095 26.455C1095.35 26.885 1095.52 27.43 1095.52 28.09C1095.52 29.03 1095.22 29.75 1094.61 30.25C1094 30.75 1093.14 31 1092.03 31H1087.62ZM1088.82 25.15H1091.67C1093.26 25.15 1094.05 24.53 1094.05 23.29C1094.05 22.04 1093.26 21.415 1091.67 21.415H1088.82V25.15ZM1088.82 30.01H1091.91C1093.51 30.01 1094.31 29.365 1094.31 28.075C1094.31 26.785 1093.51 26.14 1091.91 26.14H1088.82V30.01ZM1101.93 31.135C1100.54 31.135 1099.48 30.77 1098.76 30.04C1098.04 29.3 1097.68 28.225 1097.68 26.815V20.425H1098.91V26.755C1098.91 28.945 1099.92 30.04 1101.93 30.04C1103.92 30.04 1104.91 28.945 1104.91 26.755V20.425H1106.14V26.815C1106.14 28.225 1105.78 29.3 1105.06 30.04C1104.35 30.77 1103.31 31.135 1101.93 31.135ZM1111.26 31V21.49H1107.42V20.425H1116.35V21.49H1112.51V31H1111.26ZM1120.45 31V21.49H1116.61V20.425H1125.53V21.49H1121.69V31H1120.45ZM1130.66 31.135C1129.68 31.135 1128.82 30.915 1128.09 30.475C1127.37 30.025 1126.81 29.395 1126.41 28.585C1126.02 27.775 1125.83 26.815 1125.83 25.705C1125.83 24.595 1126.02 23.635 1126.41 22.825C1126.8 22.015 1127.36 21.39 1128.08 20.95C1128.81 20.51 1129.67 20.29 1130.66 20.29C1131.66 20.29 1132.52 20.51 1133.24 20.95C1133.97 21.39 1134.53 22.015 1134.92 22.825C1135.32 23.625 1135.52 24.58 1135.52 25.69C1135.52 26.8 1135.32 27.765 1134.92 28.585C1134.52 29.395 1133.95 30.025 1133.22 30.475C1132.5 30.915 1131.65 31.135 1130.66 31.135ZM1130.66 30.04C1131.79 30.04 1132.66 29.66 1133.28 28.9C1133.9 28.14 1134.21 27.075 1134.21 25.705C1134.21 24.335 1133.9 23.275 1133.28 22.525C1132.66 21.765 1131.79 21.385 1130.66 21.385C1129.55 21.385 1128.68 21.765 1128.06 22.525C1127.44 23.275 1127.13 24.335 1127.13 25.705C1127.13 27.065 1127.44 28.13 1128.06 28.9C1128.68 29.66 1129.55 30.04 1130.66 30.04ZM1137.72 31V20.425H1138.68L1145.05 28.93V20.425H1146.19V31H1145.26L1138.87 22.465V31H1137.72Z" fill="#160C0A"/>
<path d="M1050 32.5H1147.51V33.04H1050V32.5Z" fill="#160C0A"/>
<rect width="220" height="52" rx="2" fill="#A01F1D"/>
<path d="M78.808 32V19.31H84.064C85.432 19.31 86.488 19.652 87.232 20.336C87.976 21.008 88.348 21.956 88.348 23.18C88.348 24.416 87.976 25.376 87.232 26.06C86.488 26.732 85.432 27.068 84.064 27.068H80.68V32H78.808ZM80.68 25.574H83.794C85.618 25.574 86.53 24.776 86.53 23.18C86.53 21.596 85.618 20.804 83.794 20.804H80.68V25.574ZM89.9831 32V23.216H91.7471V24.782C92.2031 23.738 93.1511 23.156 94.5911 23.036L95.1851 23L95.3111 24.548L94.2131 24.656C92.6171 24.812 91.8191 25.634 91.8191 27.122V32H89.9831ZM96.5359 21.182V19.292H98.6599V21.182H96.5359ZM96.6979 32V23.216H98.5159V32H96.6979ZM101.111 32V23.216H102.875V24.638C103.139 24.134 103.505 23.744 103.973 23.468C104.441 23.192 104.987 23.054 105.611 23.054C106.955 23.054 107.825 23.642 108.221 24.818C108.497 24.266 108.893 23.834 109.409 23.522C109.925 23.21 110.513 23.054 111.173 23.054C113.141 23.054 114.125 24.23 114.125 26.582V32H112.307V26.672C112.307 25.928 112.175 25.382 111.911 25.034C111.659 24.686 111.239 24.512 110.651 24.512C109.991 24.512 109.469 24.746 109.085 25.214C108.701 25.67 108.509 26.294 108.509 27.086V32H106.691V26.672C106.691 25.928 106.565 25.382 106.313 25.034C106.061 24.686 105.641 24.512 105.053 24.512C104.393 24.512 103.871 24.746 103.487 25.214C103.115 25.67 102.929 26.294 102.929 27.086V32H101.111ZM119.475 32.162C118.863 32.162 118.317 32.042 117.837 31.802C117.357 31.562 116.973 31.238 116.685 30.83C116.409 30.422 116.271 29.96 116.271 29.444C116.271 28.796 116.433 28.286 116.757 27.914C117.093 27.542 117.639 27.272 118.395 27.104C119.163 26.936 120.195 26.852 121.491 26.852H122.103V26.384C122.103 25.7 121.959 25.208 121.671 24.908C121.383 24.608 120.909 24.458 120.249 24.458C119.745 24.458 119.241 24.536 118.737 24.692C118.233 24.836 117.717 25.07 117.189 25.394L116.631 24.116C117.087 23.792 117.657 23.534 118.341 23.342C119.025 23.15 119.679 23.054 120.303 23.054C121.503 23.054 122.391 23.342 122.967 23.918C123.543 24.482 123.831 25.37 123.831 26.582V32H122.121V30.542C121.905 31.046 121.569 31.442 121.113 31.73C120.657 32.018 120.111 32.162 119.475 32.162ZM119.835 30.866C120.483 30.866 121.023 30.638 121.455 30.182C121.887 29.726 122.103 29.15 122.103 28.454V27.968H121.509C120.633 27.968 119.943 28.01 119.439 28.094C118.947 28.178 118.593 28.322 118.377 28.526C118.173 28.718 118.071 28.988 118.071 29.336C118.071 29.792 118.227 30.164 118.539 30.452C118.851 30.728 119.283 30.866 119.835 30.866ZM126.335 32V23.216H128.099V24.782C128.555 23.738 129.503 23.156 130.943 23.036L131.537 23L131.663 24.548L130.565 24.656C128.969 24.812 128.171 25.634 128.171 27.122V32H126.335ZM134.494 35.24L136.06 31.766L132.388 23.216H134.332L137.032 29.894L139.768 23.216H141.64L136.402 35.24H134.494Z" fill="white"/>
<rect x="350" width="220" height="52" rx="2" fill="#160C0A"/>
<path d="M422.929 32.162C421.933 32.162 421.021 32.036 420.193 31.784C419.365 31.52 418.663 31.154 418.087 30.686L418.681 29.21C419.281 29.666 419.923 30.008 420.607 30.236C421.291 30.464 422.065 30.578 422.929 30.578C423.949 30.578 424.699 30.398 425.179 30.038C425.671 29.666 425.917 29.186 425.917 28.598C425.917 28.118 425.743 27.74 425.395 27.464C425.047 27.176 424.465 26.948 423.649 26.78L421.723 26.384C420.583 26.144 419.731 25.748 419.167 25.196C418.615 24.644 418.339 23.9 418.339 22.964C418.339 22.208 418.537 21.542 418.933 20.966C419.341 20.39 419.905 19.946 420.625 19.634C421.345 19.31 422.173 19.148 423.109 19.148C423.973 19.148 424.771 19.28 425.503 19.544C426.247 19.796 426.877 20.168 427.393 20.66L426.781 22.082C425.761 21.182 424.531 20.732 423.091 20.732C422.203 20.732 421.495 20.93 420.967 21.326C420.451 21.722 420.193 22.25 420.193 22.91C420.193 23.414 420.355 23.816 420.679 24.116C421.003 24.416 421.543 24.644 422.299 24.8L424.207 25.196C425.407 25.448 426.301 25.838 426.889 26.366C427.477 26.882 427.771 27.584 427.771 28.472C427.771 29.216 427.573 29.864 427.177 30.416C426.781 30.968 426.223 31.4 425.503 31.712C424.783 32.012 423.925 32.162 422.929 32.162ZM433.82 32.162C432.38 32.162 431.246 31.76 430.418 30.956C429.59 30.14 429.176 29.03 429.176 27.626C429.176 26.726 429.356 25.934 429.716 25.25C430.088 24.554 430.598 24.014 431.246 23.63C431.894 23.246 432.638 23.054 433.478 23.054C434.69 23.054 435.644 23.444 436.34 24.224C437.036 24.992 437.384 26.054 437.384 27.41V28.022H430.94C431.072 29.846 432.038 30.758 433.838 30.758C434.342 30.758 434.834 30.68 435.314 30.524C435.806 30.368 436.268 30.11 436.7 29.75L437.24 31.01C436.844 31.37 436.334 31.652 435.71 31.856C435.086 32.06 434.456 32.162 433.82 32.162ZM433.55 24.332C432.794 24.332 432.194 24.566 431.75 25.034C431.306 25.502 431.036 26.126 430.94 26.906H435.854C435.818 26.09 435.602 25.46 435.206 25.016C434.81 24.56 434.258 24.332 433.55 24.332ZM443.236 32.162C442.336 32.162 441.556 31.976 440.896 31.604C440.248 31.22 439.744 30.686 439.384 30.002C439.024 29.306 438.844 28.49 438.844 27.554C438.844 26.162 439.24 25.064 440.032 24.26C440.824 23.456 441.892 23.054 443.236 23.054C443.788 23.054 444.334 23.15 444.874 23.342C445.414 23.534 445.858 23.798 446.206 24.134L445.63 25.412C445.294 25.1 444.922 24.872 444.514 24.728C444.118 24.572 443.74 24.494 443.38 24.494C442.528 24.494 441.868 24.764 441.4 25.304C440.944 25.832 440.716 26.588 440.716 27.572C440.716 28.556 440.944 29.33 441.4 29.894C441.868 30.446 442.528 30.722 443.38 30.722C443.74 30.722 444.118 30.65 444.514 30.506C444.922 30.35 445.294 30.116 445.63 29.804L446.206 31.1C445.858 31.424 445.408 31.682 444.856 31.874C444.316 32.066 443.776 32.162 443.236 32.162ZM451.408 32.162C450.52 32.162 449.752 31.976 449.104 31.604C448.456 31.232 447.952 30.71 447.592 30.038C447.244 29.354 447.07 28.544 447.07 27.608C447.07 26.672 447.244 25.868 447.592 25.196C447.952 24.512 448.456 23.984 449.104 23.612C449.752 23.24 450.52 23.054 451.408 23.054C452.272 23.054 453.028 23.24 453.676 23.612C454.324 23.984 454.828 24.512 455.188 25.196C455.548 25.868 455.728 26.672 455.728 27.608C455.728 28.544 455.548 29.354 455.188 30.038C454.828 30.71 454.324 31.232 453.676 31.604C453.028 31.976 452.272 32.162 451.408 32.162ZM451.408 30.758C452.152 30.758 452.752 30.488 453.208 29.948C453.664 29.408 453.892 28.628 453.892 27.608C453.892 26.588 453.664 25.814 453.208 25.286C452.752 24.746 452.152 24.476 451.408 24.476C450.652 24.476 450.046 24.746 449.59 25.286C449.134 25.814 448.906 26.588 448.906 27.608C448.906 28.628 449.134 29.408 449.59 29.948C450.046 30.488 450.652 30.758 451.408 30.758ZM457.77 32V23.216H459.534V24.674C459.834 24.146 460.242 23.744 460.758 23.468C461.286 23.192 461.874 23.054 462.522 23.054C464.598 23.054 465.636 24.23 465.636 26.582V32H463.818V26.69C463.818 25.934 463.668 25.382 463.368 25.034C463.08 24.686 462.624 24.512 462 24.512C461.268 24.512 460.68 24.746 460.236 25.214C459.804 25.67 459.588 26.276 459.588 27.032V32H457.77ZM471.489 32.162C470.721 32.162 470.043 31.982 469.455 31.622C468.879 31.25 468.429 30.722 468.105 30.038C467.781 29.354 467.619 28.544 467.619 27.608C467.619 26.672 467.781 25.868 468.105 25.196C468.429 24.512 468.879 23.984 469.455 23.612C470.031 23.24 470.709 23.054 471.489 23.054C472.149 23.054 472.737 23.198 473.253 23.486C473.769 23.774 474.153 24.164 474.405 24.656V19.31H476.223V32H474.441V30.47C474.189 30.998 473.799 31.412 473.271 31.712C472.755 32.012 472.161 32.162 471.489 32.162ZM471.957 30.758C472.701 30.758 473.301 30.488 473.757 29.948C474.213 29.408 474.441 28.628 474.441 27.608C474.441 26.588 474.213 25.814 473.757 25.286C473.301 24.746 472.701 24.476 471.957 24.476C471.201 24.476 470.595 24.746 470.139 25.286C469.683 25.814 469.455 26.588 469.455 27.608C469.455 28.628 469.683 29.408 470.139 29.948C470.595 30.488 471.201 30.758 471.957 30.758ZM481.584 32.162C480.972 32.162 480.426 32.042 479.946 31.802C479.466 31.562 479.082 31.238 478.794 30.83C478.518 30.422 478.38 29.96 478.38 29.444C478.38 28.796 478.542 28.286 478.866 27.914C479.202 27.542 479.748 27.272 480.504 27.104C481.272 26.936 482.304 26.852 483.6 26.852H484.212V26.384C484.212 25.7 484.068 25.208 483.78 24.908C483.492 24.608 483.018 24.458 482.358 24.458C481.854 24.458 481.35 24.536 480.846 24.692C480.342 24.836 479.826 25.07 479.298 25.394L478.74 24.116C479.196 23.792 479.766 23.534 480.45 23.342C481.134 23.15 481.788 23.054 482.412 23.054C483.612 23.054 484.5 23.342 485.076 23.918C485.652 24.482 485.94 25.37 485.94 26.582V32H484.23V30.542C484.014 31.046 483.678 31.442 483.222 31.73C482.766 32.018 482.22 32.162 481.584 32.162ZM481.944 30.866C482.592 30.866 483.132 30.638 483.564 30.182C483.996 29.726 484.212 29.15 484.212 28.454V27.968H483.618C482.742 27.968 482.052 28.01 481.548 28.094C481.056 28.178 480.702 28.322 480.486 28.526C480.282 28.718 480.18 28.988 480.18 29.336C480.18 29.792 480.336 30.164 480.648 30.452C480.96 30.728 481.392 30.866 481.944 30.866ZM488.444 32V23.216H490.208V24.782C490.664 23.738 491.612 23.156 493.052 23.036L493.646 23L493.772 24.548L492.674 24.656C491.078 24.812 490.28 25.634 490.28 27.122V32H488.444ZM496.604 35.24L498.17 31.766L494.498 23.216H496.442L499.142 29.894L501.878 23.216H503.75L498.512 35.24H496.604Z" fill="white"/>
<rect width="220" height="52" transform="translate(700)" fill="white"/>
<rect x="700.5" y="0.5" width="219" height="51" rx="1.5" stroke="#160C0A"/>
<path d="M782.712 32V20.876H778.212V19.31H789.066V20.876H784.566V32H782.712ZM793.155 32.162C791.715 32.162 790.581 31.76 789.753 30.956C788.925 30.14 788.511 29.03 788.511 27.626C788.511 26.726 788.691 25.934 789.051 25.25C789.423 24.554 789.933 24.014 790.581 23.63C791.229 23.246 791.973 23.054 792.813 23.054C794.025 23.054 794.979 23.444 795.675 24.224C796.371 24.992 796.719 26.054 796.719 27.41V28.022H790.275C790.407 29.846 791.373 30.758 793.173 30.758C793.677 30.758 794.169 30.68 794.649 30.524C795.141 30.368 795.603 30.11 796.035 29.75L796.575 31.01C796.179 31.37 795.669 31.652 795.045 31.856C794.421 32.06 793.791 32.162 793.155 32.162ZM792.885 24.332C792.129 24.332 791.529 24.566 791.085 25.034C790.641 25.502 790.371 26.126 790.275 26.906H795.189C795.153 26.09 794.937 25.46 794.541 25.016C794.145 24.56 793.593 24.332 792.885 24.332ZM798.701 32V23.216H800.465V24.782C800.921 23.738 801.869 23.156 803.309 23.036L803.903 23L804.029 24.548L802.931 24.656C801.335 24.812 800.537 25.634 800.537 27.122V32H798.701ZM809.652 32.162C808.548 32.162 807.726 31.88 807.186 31.316C806.646 30.752 806.376 29.936 806.376 28.868V24.62H804.666V23.216H806.376V20.57H808.194V23.216H810.912V24.62H808.194V28.724C808.194 29.36 808.326 29.84 808.59 30.164C808.866 30.488 809.31 30.65 809.922 30.65C810.114 30.65 810.3 30.632 810.48 30.596C810.66 30.548 810.84 30.494 811.02 30.434L811.308 31.802C811.128 31.91 810.876 31.994 810.552 32.054C810.24 32.126 809.94 32.162 809.652 32.162ZM812.32 21.182V19.292H814.444V21.182H812.32ZM812.482 32V23.216H814.3V32H812.482ZM819.667 32.162C819.055 32.162 818.509 32.042 818.029 31.802C817.549 31.562 817.165 31.238 816.877 30.83C816.601 30.422 816.463 29.96 816.463 29.444C816.463 28.796 816.625 28.286 816.949 27.914C817.285 27.542 817.831 27.272 818.587 27.104C819.355 26.936 820.387 26.852 821.683 26.852H822.295V26.384C822.295 25.7 822.151 25.208 821.863 24.908C821.575 24.608 821.101 24.458 820.441 24.458C819.937 24.458 819.433 24.536 818.929 24.692C818.425 24.836 817.909 25.07 817.381 25.394L816.823 24.116C817.279 23.792 817.849 23.534 818.533 23.342C819.217 23.15 819.871 23.054 820.495 23.054C821.695 23.054 822.583 23.342 823.159 23.918C823.735 24.482 824.023 25.37 824.023 26.582V32H822.313V30.542C822.097 31.046 821.761 31.442 821.305 31.73C820.849 32.018 820.303 32.162 819.667 32.162ZM820.027 30.866C820.675 30.866 821.215 30.638 821.647 30.182C822.079 29.726 822.295 29.15 822.295 28.454V27.968H821.701C820.825 27.968 820.135 28.01 819.631 28.094C819.139 28.178 818.785 28.322 818.569 28.526C818.365 28.718 818.263 28.988 818.263 29.336C818.263 29.792 818.419 30.164 818.731 30.452C819.043 30.728 819.475 30.866 820.027 30.866ZM826.527 32V23.216H828.291V24.782C828.747 23.738 829.695 23.156 831.135 23.036L831.729 23L831.855 24.548L830.757 24.656C829.161 24.812 828.363 25.634 828.363 27.122V32H826.527ZM834.687 35.24L836.253 31.766L832.581 23.216H834.525L837.225 29.894L839.961 23.216H841.833L836.595 35.24H834.687Z" fill="#160C0A"/>
</svg>
