<svg width="1200" height="699" viewBox="0 0 1200 699" fill="none" xmlns="http://www.w3.org/2000/svg">
<rect width="1200" height="699" fill="white"/>
<path d="M250.75 231.75L311.75 389C314.25 395.333 317.083 399.583 320.25 401.75C323.417 403.75 326.333 404.833 329 405V410C325.667 409.667 321.583 409.5 316.75 409.5C311.917 409.333 307.083 409.25 302.25 409.25C295.75 409.25 289.667 409.333 284 409.5C278.333 409.5 273.75 409.667 270.25 410V405C278.75 404.667 284.167 403.25 286.5 400.75C288.833 398.083 288.333 392.5 285 384L238.5 259.75L242.5 256.5L199 369.5C196.333 376.167 194.75 381.833 194.25 386.5C193.75 391 194.167 394.583 195.5 397.25C197 399.917 199.417 401.833 202.75 403C206.25 404.167 210.583 404.833 215.75 405V410C211.083 409.667 206.167 409.5 201 409.5C196 409.333 191.333 409.25 187 409.25C182.833 409.25 179.25 409.333 176.25 409.5C173.417 409.5 170.75 409.667 168.25 410V405C171.583 404.167 175 402.25 178.5 399.25C182 396.083 185.167 390.75 188 383.25L246.75 231.75C247.417 231.75 248.083 231.75 248.75 231.75C249.417 231.75 250.083 231.75 250.75 231.75ZM281.25 338V343H206.75L209.25 338H281.25ZM370.221 411.75C363.387 411.75 357.471 410.5 352.471 408C347.471 405.333 343.637 401.667 340.971 397C338.471 392.333 337.221 386.917 337.221 380.75C337.221 373.417 338.887 367.417 342.221 362.75C345.721 358.083 350.137 354.333 355.471 351.5C360.804 348.667 366.387 346.333 372.221 344.5C378.221 342.5 383.887 340.667 389.221 339C394.554 337.167 398.887 335.083 402.221 332.75C405.721 330.417 407.471 327.333 407.471 323.5V308C407.471 301 406.387 295.667 404.221 292C402.221 288.333 399.471 285.917 395.971 284.75C392.471 283.417 388.554 282.75 384.221 282.75C380.054 282.75 375.554 283.333 370.721 284.5C366.054 285.667 362.304 288.083 359.471 291.75C362.637 292.417 365.387 294.083 367.721 296.75C370.054 299.417 371.221 302.833 371.221 307C371.221 311.167 369.887 314.5 367.221 317C364.554 319.333 361.137 320.5 356.971 320.5C352.137 320.5 348.554 319 346.221 316C344.054 312.833 342.971 309.333 342.971 305.5C342.971 301.167 344.054 297.667 346.221 295C348.387 292.333 351.137 289.833 354.471 287.5C358.304 284.833 363.221 282.583 369.221 280.75C375.387 278.75 382.304 277.75 389.971 277.75C396.804 277.75 402.637 278.583 407.471 280.25C412.304 281.75 416.304 284 419.471 287C423.804 291 426.637 295.917 427.971 301.75C429.304 307.417 429.971 314.25 429.971 322.25V391.75C429.971 395.917 430.554 398.917 431.721 400.75C433.054 402.583 435.054 403.5 437.721 403.5C439.554 403.5 441.304 403.083 442.971 402.25C444.637 401.417 446.637 400.083 448.971 398.25L451.721 402.5C448.221 405.167 444.887 407.417 441.721 409.25C438.554 410.917 434.304 411.75 428.971 411.75C424.137 411.75 420.137 410.917 416.971 409.25C413.804 407.583 411.387 405.167 409.721 402C408.221 398.667 407.471 394.5 407.471 389.5C402.971 397 397.554 402.583 391.221 406.25C385.054 409.917 378.054 411.75 370.221 411.75ZM379.221 401.75C384.721 401.75 389.804 400.167 394.471 397C399.304 393.833 403.637 389.083 407.471 382.75V333.75C405.471 336.583 402.554 339 398.721 341C394.887 342.833 390.721 344.75 386.221 346.75C381.721 348.583 377.387 350.833 373.221 353.5C369.221 356 365.887 359.333 363.221 363.5C360.554 367.667 359.221 373.083 359.221 379.75C359.221 386.417 360.971 391.75 364.471 395.75C368.137 399.75 373.054 401.75 379.221 401.75Z" fill="#160C0A"/>
<path d="M739.75 401L817.5 224.75H835L912.75 401H891.5L872 356H780.25L761 401H739.75ZM826 248.75L787.75 338.75H864.75L826.5 248.75H826ZM974.379 403.25C966.046 403.25 958.546 401.667 951.879 398.5C945.379 395.167 940.212 390.667 936.379 385C932.546 379.333 930.629 373 930.629 366C930.629 357.167 932.879 350.167 937.379 345C942.046 339.833 949.629 336.167 960.129 334C970.796 331.667 985.296 330.5 1003.63 330.5H1011.63V322.75C1011.63 312.417 1009.46 305 1005.13 300.5C1000.96 295.833 994.212 293.5 984.879 293.5C977.546 293.5 970.462 294.583 963.629 296.75C956.796 298.75 949.796 302.083 942.629 306.75L935.629 292C941.962 287.5 949.629 283.917 958.629 281.25C967.796 278.583 976.546 277.25 984.879 277.25C1000.55 277.25 1012.13 281.083 1019.63 288.75C1027.3 296.417 1031.13 308.333 1031.13 324.5V401H1012.13V380C1008.96 387.167 1004.05 392.833 997.379 397C990.879 401.167 983.212 403.25 974.379 403.25ZM977.629 388C987.629 388 995.796 384.583 1002.13 377.75C1008.46 370.75 1011.63 361.917 1011.63 351.25V343.75H1003.88C990.379 343.75 979.712 344.417 971.879 345.75C964.212 346.917 958.796 349.083 955.629 352.25C952.629 355.25 951.129 359.417 951.129 364.75C951.129 371.583 953.462 377.167 958.129 381.5C962.962 385.833 969.462 388 977.629 388Z" fill="#160C0A"/>
<path d="M207.656 492.76C208.076 492.78 208.626 492.8 209.306 492.82C209.986 492.84 210.656 492.85 211.316 492.85C212.256 492.85 213.156 492.84 214.016 492.82C214.876 492.8 215.486 492.79 215.846 492.79C218.266 492.79 220.076 493.34 221.276 494.44C222.476 495.54 223.076 496.96 223.076 498.7C223.076 499.42 222.956 500.18 222.716 500.98C222.476 501.76 222.056 502.49 221.456 503.17C220.876 503.83 220.076 504.37 219.056 504.79C218.036 505.21 216.746 505.42 215.186 505.42H212.306V504.82H214.886C216.306 504.82 217.386 504.55 218.126 504.01C218.886 503.47 219.396 502.76 219.656 501.88C219.936 501 220.076 500.05 220.076 499.03C220.076 497.13 219.696 495.71 218.936 494.77C218.196 493.83 216.916 493.36 215.096 493.36C214.176 493.36 213.576 493.53 213.296 493.87C213.016 494.21 212.876 494.9 212.876 495.94V510.82C212.876 511.54 212.946 512.08 213.086 512.44C213.246 512.8 213.546 513.04 213.986 513.16C214.426 513.28 215.066 513.36 215.906 513.4V514C215.386 513.96 214.726 513.94 213.926 513.94C213.126 513.92 212.316 513.91 211.496 513.91C210.716 513.91 209.986 513.92 209.306 513.94C208.626 513.94 208.076 513.96 207.656 514V513.4C208.336 513.36 208.846 513.28 209.186 513.16C209.546 513.04 209.786 512.8 209.906 512.44C210.026 512.08 210.086 511.54 210.086 510.82V495.94C210.086 495.2 210.026 494.66 209.906 494.32C209.786 493.96 209.546 493.72 209.186 493.6C208.846 493.46 208.336 493.38 207.656 493.36V492.76ZM229.321 490.48V511.21C229.321 512.05 229.491 512.62 229.831 512.92C230.191 513.22 230.781 513.37 231.601 513.37V514C231.261 513.98 230.741 513.96 230.041 513.94C229.361 513.9 228.671 513.88 227.971 513.88C227.291 513.88 226.601 513.9 225.901 513.94C225.201 513.96 224.681 513.98 224.341 514V513.37C225.161 513.37 225.741 513.22 226.081 512.92C226.441 512.62 226.621 512.05 226.621 511.21V494.08C226.621 493.18 226.461 492.52 226.141 492.1C225.821 491.66 225.221 491.44 224.341 491.44V490.81C224.981 490.87 225.601 490.9 226.201 490.9C226.781 490.9 227.331 490.87 227.851 490.81C228.391 490.73 228.881 490.62 229.321 490.48ZM237.395 514.21C236.575 514.21 235.865 514.06 235.265 513.76C234.665 513.44 234.205 513 233.885 512.44C233.585 511.88 233.435 511.23 233.435 510.49C233.435 509.61 233.635 508.89 234.035 508.33C234.455 507.77 234.985 507.32 235.625 506.98C236.265 506.64 236.935 506.36 237.635 506.14C238.355 505.9 239.035 505.68 239.675 505.48C240.315 505.26 240.835 505.01 241.235 504.73C241.655 504.45 241.865 504.08 241.865 503.62V501.76C241.865 500.92 241.735 500.28 241.475 499.84C241.235 499.4 240.905 499.11 240.485 498.97C240.065 498.81 239.595 498.73 239.075 498.73C238.575 498.73 238.035 498.8 237.455 498.94C236.895 499.08 236.445 499.37 236.105 499.81C236.485 499.89 236.815 500.09 237.095 500.41C237.375 500.73 237.515 501.14 237.515 501.64C237.515 502.14 237.355 502.54 237.035 502.84C236.715 503.12 236.305 503.26 235.805 503.26C235.225 503.26 234.795 503.08 234.515 502.72C234.255 502.34 234.125 501.92 234.125 501.46C234.125 500.94 234.255 500.52 234.515 500.2C234.775 499.88 235.105 499.58 235.505 499.3C235.965 498.98 236.555 498.71 237.275 498.49C238.015 498.25 238.845 498.13 239.765 498.13C240.585 498.13 241.285 498.23 241.865 498.43C242.445 498.61 242.925 498.88 243.305 499.24C243.825 499.72 244.165 500.31 244.325 501.01C244.485 501.69 244.565 502.51 244.565 503.47V511.81C244.565 512.31 244.635 512.67 244.775 512.89C244.935 513.11 245.175 513.22 245.495 513.22C245.715 513.22 245.925 513.17 246.125 513.07C246.325 512.97 246.565 512.81 246.845 512.59L247.175 513.1C246.755 513.42 246.355 513.69 245.975 513.91C245.595 514.11 245.085 514.21 244.445 514.21C243.865 514.21 243.385 514.11 243.005 513.91C242.625 513.71 242.335 513.42 242.135 513.04C241.955 512.64 241.865 512.14 241.865 511.54C241.325 512.44 240.675 513.11 239.915 513.55C239.175 513.99 238.335 514.21 237.395 514.21ZM238.475 513.01C239.135 513.01 239.745 512.82 240.305 512.44C240.885 512.06 241.405 511.49 241.865 510.73V504.85C241.625 505.19 241.275 505.48 240.815 505.72C240.355 505.94 239.855 506.17 239.315 506.41C238.775 506.63 238.255 506.9 237.755 507.22C237.275 507.52 236.875 507.92 236.555 508.42C236.235 508.92 236.075 509.57 236.075 510.37C236.075 511.17 236.285 511.81 236.705 512.29C237.145 512.77 237.735 513.01 238.475 513.01ZM261.85 498.55V499.15C261.47 499.19 261.12 499.36 260.8 499.66C260.48 499.96 260.18 500.49 259.9 501.25L254.98 514.15H254.47L248.95 500.86C248.57 500.08 248.19 499.61 247.81 499.45C247.45 499.27 247.15 499.18 246.91 499.18V498.55C247.35 498.61 247.81 498.66 248.29 498.7C248.77 498.72 249.29 498.73 249.85 498.73C250.47 498.73 251.12 498.71 251.8 498.67C252.5 498.63 253.15 498.59 253.75 498.55V499.18C253.25 499.18 252.8 499.22 252.4 499.3C252.02 499.36 251.78 499.57 251.68 499.93C251.58 500.27 251.7 500.86 252.04 501.7L255.73 510.85L255.55 510.91L258.97 501.97C259.23 501.31 259.33 500.79 259.27 500.41C259.23 500.01 259.03 499.71 258.67 499.51C258.31 499.31 257.77 499.19 257.05 499.15V498.55C257.41 498.57 257.72 498.59 257.98 498.61C258.24 498.61 258.49 498.62 258.73 498.64C258.99 498.64 259.27 498.64 259.57 498.64C260.03 498.64 260.44 498.63 260.8 498.61C261.18 498.59 261.53 498.57 261.85 498.55ZM254.98 514.15L253.96 516.76C253.76 517.26 253.55 517.68 253.33 518.02C253.13 518.36 252.91 518.64 252.67 518.86C252.35 519.16 251.97 519.36 251.53 519.46C251.09 519.58 250.69 519.64 250.33 519.64C249.95 519.64 249.6 519.57 249.28 519.43C248.98 519.29 248.74 519.08 248.56 518.8C248.38 518.54 248.29 518.22 248.29 517.84C248.29 517.36 248.43 516.97 248.71 516.67C248.99 516.39 249.38 516.25 249.88 516.25C250.3 516.25 250.66 516.37 250.96 516.61C251.26 516.85 251.41 517.2 251.41 517.66C251.41 518 251.33 518.28 251.17 518.5C251.01 518.72 250.82 518.89 250.6 519.01C250.64 519.03 250.67 519.04 250.69 519.04C250.73 519.04 250.76 519.04 250.78 519.04C251.32 519.04 251.8 518.85 252.22 518.47C252.64 518.11 253.01 517.52 253.33 516.7L254.41 513.91L254.98 514.15ZM270.222 490.54C270.782 490.54 271.272 490.62 271.692 490.78C272.132 490.92 272.512 491.11 272.832 491.35C273.132 491.59 273.362 491.87 273.522 492.19C273.682 492.51 273.762 492.85 273.762 493.21C273.762 493.67 273.612 494.05 273.312 494.35C273.012 494.65 272.632 494.8 272.172 494.8C271.732 494.8 271.342 494.66 271.002 494.38C270.682 494.08 270.522 493.68 270.522 493.18C270.522 492.76 270.632 492.42 270.852 492.16C271.092 491.9 271.402 491.73 271.782 491.65C271.722 491.47 271.562 491.32 271.302 491.2C271.062 491.06 270.732 490.99 270.312 490.99C269.852 490.99 269.452 491.09 269.112 491.29C268.792 491.49 268.542 491.76 268.362 492.1C268.122 492.52 267.972 493.15 267.912 493.99C267.852 494.81 267.822 496.08 267.822 497.8V498.58H271.032V499.18H267.822V510.91C267.822 511.89 268.102 512.55 268.662 512.89C269.242 513.21 270.022 513.37 271.002 513.37V514C270.542 513.98 269.892 513.96 269.052 513.94C268.212 513.9 267.322 513.88 266.382 513.88C265.702 513.88 265.022 513.9 264.342 513.94C263.682 513.96 263.182 513.98 262.842 514V513.37C263.662 513.37 264.242 513.22 264.582 512.92C264.942 512.62 265.122 512.05 265.122 511.21V499.18H262.722V498.58H265.122C265.122 497.4 265.172 496.41 265.272 495.61C265.372 494.81 265.532 494.13 265.752 493.57C265.972 492.99 266.272 492.48 266.652 492.04C267.052 491.58 267.562 491.22 268.182 490.96C268.802 490.68 269.482 490.54 270.222 490.54ZM277.033 514.21C276.213 514.21 275.503 514.06 274.903 513.76C274.303 513.44 273.843 513 273.523 512.44C273.223 511.88 273.073 511.23 273.073 510.49C273.073 509.61 273.273 508.89 273.673 508.33C274.093 507.77 274.623 507.32 275.263 506.98C275.903 506.64 276.573 506.36 277.273 506.14C277.993 505.9 278.673 505.68 279.313 505.48C279.953 505.26 280.473 505.01 280.873 504.73C281.293 504.45 281.503 504.08 281.503 503.62V501.76C281.503 500.92 281.373 500.28 281.113 499.84C280.873 499.4 280.543 499.11 280.123 498.97C279.703 498.81 279.233 498.73 278.713 498.73C278.213 498.73 277.673 498.8 277.093 498.94C276.533 499.08 276.083 499.37 275.743 499.81C276.123 499.89 276.453 500.09 276.733 500.41C277.013 500.73 277.153 501.14 277.153 501.64C277.153 502.14 276.993 502.54 276.673 502.84C276.353 503.12 275.943 503.26 275.443 503.26C274.863 503.26 274.433 503.08 274.153 502.72C273.893 502.34 273.763 501.92 273.763 501.46C273.763 500.94 273.893 500.52 274.153 500.2C274.413 499.88 274.743 499.58 275.143 499.3C275.603 498.98 276.193 498.71 276.913 498.49C277.653 498.25 278.483 498.13 279.403 498.13C280.223 498.13 280.923 498.23 281.503 498.43C282.083 498.61 282.563 498.88 282.943 499.24C283.463 499.72 283.803 500.31 283.963 501.01C284.123 501.69 284.203 502.51 284.203 503.47V511.81C284.203 512.31 284.273 512.67 284.413 512.89C284.573 513.11 284.813 513.22 285.133 513.22C285.353 513.22 285.563 513.17 285.763 513.07C285.963 512.97 286.203 512.81 286.483 512.59L286.813 513.1C286.393 513.42 285.993 513.69 285.613 513.91C285.233 514.11 284.723 514.21 284.083 514.21C283.503 514.21 283.023 514.11 282.643 513.91C282.263 513.71 281.973 513.42 281.773 513.04C281.593 512.64 281.503 512.14 281.503 511.54C280.963 512.44 280.313 513.11 279.553 513.55C278.813 513.99 277.973 514.21 277.033 514.21ZM278.113 513.01C278.773 513.01 279.383 512.82 279.943 512.44C280.523 512.06 281.043 511.49 281.503 510.73V504.85C281.263 505.19 280.913 505.48 280.453 505.72C279.993 505.94 279.493 506.17 278.953 506.41C278.413 506.63 277.893 506.9 277.393 507.22C276.913 507.52 276.513 507.92 276.193 508.42C275.873 508.92 275.713 509.57 275.713 510.37C275.713 511.17 275.923 511.81 276.343 512.29C276.783 512.77 277.373 513.01 278.113 513.01ZM291.135 491.05C291.655 491.05 292.105 491.24 292.485 491.62C292.865 492 293.055 492.45 293.055 492.97C293.055 493.49 292.865 493.94 292.485 494.32C292.105 494.7 291.655 494.89 291.135 494.89C290.615 494.89 290.165 494.7 289.785 494.32C289.405 493.94 289.215 493.49 289.215 492.97C289.215 492.45 289.405 492 289.785 491.62C290.165 491.24 290.615 491.05 291.135 491.05ZM292.695 498.22V511.21C292.695 512.05 292.865 512.62 293.205 512.92C293.565 513.22 294.155 513.37 294.975 513.37V514C294.635 513.98 294.115 513.96 293.415 513.94C292.735 513.9 292.045 513.88 291.345 513.88C290.665 513.88 289.975 513.9 289.275 513.94C288.575 513.96 288.055 513.98 287.715 514V513.37C288.535 513.37 289.115 513.22 289.455 512.92C289.815 512.62 289.995 512.05 289.995 511.21V501.82C289.995 500.92 289.835 500.26 289.515 499.84C289.195 499.4 288.595 499.18 287.715 499.18V498.55C288.355 498.61 288.975 498.64 289.575 498.64C290.155 498.64 290.705 498.61 291.225 498.55C291.765 498.47 292.255 498.36 292.695 498.22ZM305.834 498.13C306.374 498.13 306.844 498.24 307.244 498.46C307.664 498.68 307.984 498.97 308.204 499.33C308.444 499.67 308.564 500.06 308.564 500.5C308.564 501 308.404 501.44 308.084 501.82C307.784 502.2 307.374 502.39 306.854 502.39C306.434 502.39 306.064 502.26 305.744 502C305.424 501.72 305.264 501.33 305.264 500.83C305.264 500.45 305.364 500.13 305.564 499.87C305.784 499.59 306.024 499.37 306.284 499.21C306.144 499.01 305.934 498.91 305.654 498.91C305.034 498.91 304.464 499.1 303.944 499.48C303.424 499.84 302.984 500.31 302.624 500.89C302.264 501.47 301.984 502.09 301.784 502.75C301.584 503.39 301.484 503.99 301.484 504.55V510.91C301.484 511.89 301.764 512.55 302.324 512.89C302.904 513.21 303.684 513.37 304.664 513.37V514C304.204 513.98 303.554 513.96 302.714 513.94C301.874 513.9 300.984 513.88 300.044 513.88C299.364 513.88 298.684 513.9 298.004 513.94C297.344 513.96 296.844 513.98 296.504 514V513.37C297.324 513.37 297.904 513.22 298.244 512.92C298.604 512.62 298.784 512.05 298.784 511.21V501.82C298.784 500.92 298.624 500.26 298.304 499.84C297.984 499.4 297.384 499.18 296.504 499.18V498.55C297.144 498.61 297.764 498.64 298.364 498.64C298.944 498.64 299.494 498.61 300.014 498.55C300.554 498.47 301.044 498.36 301.484 498.22V501.97C301.704 501.39 302.014 500.81 302.414 500.23C302.834 499.63 303.334 499.13 303.914 498.73C304.494 498.33 305.134 498.13 305.834 498.13ZM325.269 492.76C328.849 492.76 331.509 493.66 333.249 495.46C334.989 497.24 335.859 499.8 335.859 503.14C335.859 505.32 335.429 507.23 334.569 508.87C333.729 510.49 332.499 511.75 330.879 512.65C329.259 513.55 327.299 514 324.999 514C324.699 514 324.299 513.99 323.799 513.97C323.299 513.95 322.779 513.94 322.239 513.94C321.719 513.92 321.239 513.91 320.799 513.91C320.099 513.91 319.409 513.92 318.729 513.94C318.049 513.94 317.499 513.96 317.079 514V513.4C317.759 513.36 318.269 513.28 318.609 513.16C318.969 513.04 319.209 512.8 319.329 512.44C319.449 512.08 319.509 511.54 319.509 510.82V495.94C319.509 495.2 319.449 494.66 319.329 494.32C319.209 493.96 318.969 493.72 318.609 493.6C318.269 493.46 317.759 493.38 317.079 493.36V492.76C317.499 492.78 318.049 492.81 318.729 492.85C319.409 492.87 320.079 492.87 320.739 492.85C321.439 492.83 322.229 492.81 323.109 492.79C323.989 492.77 324.709 492.76 325.269 492.76ZM324.519 493.3C323.599 493.3 322.999 493.47 322.719 493.81C322.439 494.15 322.299 494.84 322.299 495.88V510.88C322.299 511.92 322.439 512.61 322.719 512.95C323.019 513.29 323.629 513.46 324.549 513.46C326.729 513.46 328.419 513.07 329.619 512.29C330.819 511.49 331.659 510.33 332.139 508.81C332.619 507.29 332.859 505.44 332.859 503.26C332.859 501.02 332.589 499.17 332.049 497.71C331.529 496.23 330.659 495.13 329.439 494.41C328.239 493.67 326.599 493.3 324.519 493.3ZM341.789 491.05C342.309 491.05 342.759 491.24 343.139 491.62C343.519 492 343.709 492.45 343.709 492.97C343.709 493.49 343.519 493.94 343.139 494.32C342.759 494.7 342.309 494.89 341.789 494.89C341.269 494.89 340.819 494.7 340.439 494.32C340.059 493.94 339.869 493.49 339.869 492.97C339.869 492.45 340.059 492 340.439 491.62C340.819 491.24 341.269 491.05 341.789 491.05ZM343.349 498.22V511.21C343.349 512.05 343.519 512.62 343.859 512.92C344.219 513.22 344.809 513.37 345.629 513.37V514C345.289 513.98 344.769 513.96 344.069 513.94C343.389 513.9 342.699 513.88 341.999 513.88C341.319 513.88 340.629 513.9 339.929 513.94C339.229 513.96 338.709 513.98 338.369 514V513.37C339.189 513.37 339.769 513.22 340.109 512.92C340.469 512.62 340.649 512.05 340.649 511.21V501.82C340.649 500.92 340.489 500.26 340.169 499.84C339.849 499.4 339.249 499.18 338.369 499.18V498.55C339.009 498.61 339.629 498.64 340.229 498.64C340.809 498.64 341.359 498.61 341.879 498.55C342.419 498.47 342.909 498.36 343.349 498.22ZM352.528 498.13C353.328 498.13 354.008 498.26 354.568 498.52C355.128 498.78 355.538 499.02 355.798 499.24C356.458 499.78 356.858 499.42 356.998 498.16H357.688C357.648 498.72 357.618 499.39 357.598 500.17C357.578 500.93 357.568 501.96 357.568 503.26H356.878C356.758 502.52 356.548 501.8 356.248 501.1C355.968 500.4 355.548 499.83 354.988 499.39C354.428 498.93 353.698 498.7 352.798 498.7C352.098 498.7 351.508 498.9 351.028 499.3C350.568 499.68 350.338 500.25 350.338 501.01C350.338 501.61 350.518 502.13 350.878 502.57C351.238 502.99 351.708 503.39 352.288 503.77C352.868 504.13 353.498 504.53 354.178 504.97C354.938 505.45 355.628 505.94 356.248 506.44C356.868 506.94 357.358 507.49 357.718 508.09C358.098 508.69 358.288 509.4 358.288 510.22C358.288 511.14 358.048 511.91 357.568 512.53C357.088 513.15 356.458 513.62 355.678 513.94C354.918 514.26 354.078 514.42 353.158 514.42C352.718 514.42 352.298 514.38 351.898 514.3C351.518 514.24 351.148 514.14 350.788 514C350.588 513.9 350.378 513.78 350.158 513.64C349.958 513.5 349.758 513.35 349.558 513.19C349.358 513.03 349.178 513.04 349.018 513.22C348.858 513.38 348.738 513.71 348.658 514.21H347.968C348.008 513.57 348.038 512.79 348.058 511.87C348.078 510.95 348.088 509.73 348.088 508.21H348.778C348.918 509.33 349.118 510.31 349.378 511.15C349.638 511.99 350.048 512.65 350.608 513.13C351.168 513.59 351.948 513.82 352.948 513.82C353.348 513.82 353.748 513.73 354.148 513.55C354.568 513.37 354.918 513.07 355.198 512.65C355.478 512.23 355.618 511.67 355.618 510.97C355.618 510.09 355.298 509.37 354.658 508.81C354.018 508.25 353.208 507.66 352.228 507.04C351.508 506.58 350.828 506.12 350.188 505.66C349.568 505.2 349.058 504.68 348.658 504.1C348.278 503.52 348.088 502.82 348.088 502C348.088 501.1 348.288 500.37 348.688 499.81C349.108 499.23 349.658 498.81 350.338 498.55C351.018 498.27 351.748 498.13 352.528 498.13ZM365.346 498.22V516.64C365.346 517.5 365.596 518.07 366.096 518.35C366.616 518.65 367.326 518.8 368.226 518.8V519.43C367.786 519.41 367.176 519.38 366.396 519.34C365.616 519.32 364.786 519.31 363.906 519.31C363.286 519.31 362.666 519.32 362.046 519.34C361.446 519.38 360.986 519.41 360.666 519.43V518.8C361.386 518.8 361.896 518.67 362.196 518.41C362.496 518.15 362.646 517.66 362.646 516.94V501.82C362.646 500.92 362.486 500.26 362.166 499.84C361.846 499.4 361.246 499.18 360.366 499.18V498.55C361.006 498.61 361.626 498.64 362.226 498.64C362.806 498.64 363.356 498.61 363.876 498.55C364.416 498.47 364.906 498.36 365.346 498.22ZM370.146 498.13C371.206 498.13 372.156 498.42 372.996 499C373.836 499.56 374.496 500.39 374.976 501.49C375.476 502.59 375.726 503.95 375.726 505.57C375.726 506.65 375.596 507.72 375.336 508.78C375.076 509.82 374.666 510.77 374.106 511.63C373.566 512.47 372.856 513.15 371.976 513.67C371.116 514.17 370.076 514.42 368.856 514.42C367.916 514.42 367.096 514.2 366.396 513.76C365.716 513.32 365.256 512.79 365.016 512.17L365.316 511.75C365.596 512.31 365.996 512.78 366.516 513.16C367.056 513.54 367.726 513.73 368.526 513.73C369.646 513.73 370.516 513.38 371.136 512.68C371.756 511.98 372.186 511.05 372.426 509.89C372.686 508.71 372.816 507.41 372.816 505.99C372.816 504.39 372.686 503.08 372.426 502.06C372.166 501.04 371.776 500.28 371.256 499.78C370.736 499.28 370.096 499.03 369.336 499.03C368.356 499.03 367.466 499.44 366.666 500.26C365.866 501.06 365.356 502.28 365.136 503.92L364.776 503.5C364.996 501.8 365.596 500.48 366.576 499.54C367.576 498.6 368.766 498.13 370.146 498.13ZM382.778 490.48V511.21C382.778 512.05 382.948 512.62 383.288 512.92C383.648 513.22 384.238 513.37 385.058 513.37V514C384.718 513.98 384.198 513.96 383.498 513.94C382.818 513.9 382.128 513.88 381.428 513.88C380.748 513.88 380.058 513.9 379.358 513.94C378.658 513.96 378.138 513.98 377.798 514V513.37C378.618 513.37 379.198 513.22 379.538 512.92C379.898 512.62 380.078 512.05 380.078 511.21V494.08C380.078 493.18 379.918 492.52 379.598 492.1C379.278 491.66 378.678 491.44 377.798 491.44V490.81C378.438 490.87 379.058 490.9 379.658 490.9C380.238 490.9 380.788 490.87 381.308 490.81C381.848 490.73 382.338 490.62 382.778 490.48ZM390.852 514.21C390.032 514.21 389.322 514.06 388.722 513.76C388.122 513.44 387.662 513 387.342 512.44C387.042 511.88 386.892 511.23 386.892 510.49C386.892 509.61 387.092 508.89 387.492 508.33C387.912 507.77 388.442 507.32 389.082 506.98C389.722 506.64 390.392 506.36 391.092 506.14C391.812 505.9 392.492 505.68 393.132 505.48C393.772 505.26 394.292 505.01 394.692 504.73C395.112 504.45 395.322 504.08 395.322 503.62V501.76C395.322 500.92 395.192 500.28 394.932 499.84C394.692 499.4 394.362 499.11 393.942 498.97C393.522 498.81 393.052 498.73 392.532 498.73C392.032 498.73 391.492 498.8 390.912 498.94C390.352 499.08 389.902 499.37 389.562 499.81C389.942 499.89 390.272 500.09 390.552 500.41C390.832 500.73 390.972 501.14 390.972 501.64C390.972 502.14 390.812 502.54 390.492 502.84C390.172 503.12 389.762 503.26 389.262 503.26C388.682 503.26 388.252 503.08 387.972 502.72C387.712 502.34 387.582 501.92 387.582 501.46C387.582 500.94 387.712 500.52 387.972 500.2C388.232 499.88 388.562 499.58 388.962 499.3C389.422 498.98 390.012 498.71 390.732 498.49C391.472 498.25 392.302 498.13 393.222 498.13C394.042 498.13 394.742 498.23 395.322 498.43C395.902 498.61 396.382 498.88 396.762 499.24C397.282 499.72 397.622 500.31 397.782 501.01C397.942 501.69 398.022 502.51 398.022 503.47V511.81C398.022 512.31 398.092 512.67 398.232 512.89C398.392 513.11 398.632 513.22 398.952 513.22C399.172 513.22 399.382 513.17 399.582 513.07C399.782 512.97 400.022 512.81 400.302 512.59L400.632 513.1C400.212 513.42 399.812 513.69 399.432 513.91C399.052 514.11 398.542 514.21 397.902 514.21C397.322 514.21 396.842 514.11 396.462 513.91C396.082 513.71 395.792 513.42 395.592 513.04C395.412 512.64 395.322 512.14 395.322 511.54C394.782 512.44 394.132 513.11 393.372 513.55C392.632 513.99 391.792 514.21 390.852 514.21ZM391.932 513.01C392.592 513.01 393.202 512.82 393.762 512.44C394.342 512.06 394.862 511.49 395.322 510.73V504.85C395.082 505.19 394.732 505.48 394.272 505.72C393.812 505.94 393.312 506.17 392.772 506.41C392.232 506.63 391.712 506.9 391.212 507.22C390.732 507.52 390.332 507.92 390.012 508.42C389.692 508.92 389.532 509.57 389.532 510.37C389.532 511.17 389.742 511.81 390.162 512.29C390.602 512.77 391.192 513.01 391.932 513.01ZM415.307 498.55V499.15C414.927 499.19 414.577 499.36 414.257 499.66C413.937 499.96 413.637 500.49 413.357 501.25L408.437 514.15H407.927L402.407 500.86C402.027 500.08 401.647 499.61 401.267 499.45C400.907 499.27 400.607 499.18 400.367 499.18V498.55C400.807 498.61 401.267 498.66 401.747 498.7C402.227 498.72 402.747 498.73 403.307 498.73C403.927 498.73 404.577 498.71 405.257 498.67C405.957 498.63 406.607 498.59 407.207 498.55V499.18C406.707 499.18 406.257 499.22 405.857 499.3C405.477 499.36 405.237 499.57 405.137 499.93C405.037 500.27 405.157 500.86 405.497 501.7L409.187 510.85L409.007 510.91L412.427 501.97C412.687 501.31 412.787 500.79 412.727 500.41C412.687 500.01 412.487 499.71 412.127 499.51C411.767 499.31 411.227 499.19 410.507 499.15V498.55C410.867 498.57 411.177 498.59 411.437 498.61C411.697 498.61 411.947 498.62 412.187 498.64C412.447 498.64 412.727 498.64 413.027 498.64C413.487 498.64 413.897 498.63 414.257 498.61C414.637 498.59 414.987 498.57 415.307 498.55ZM408.437 514.15L407.417 516.76C407.217 517.26 407.007 517.68 406.787 518.02C406.587 518.36 406.367 518.64 406.127 518.86C405.807 519.16 405.427 519.36 404.987 519.46C404.547 519.58 404.147 519.64 403.787 519.64C403.407 519.64 403.057 519.57 402.737 519.43C402.437 519.29 402.197 519.08 402.017 518.8C401.837 518.54 401.747 518.22 401.747 517.84C401.747 517.36 401.887 516.97 402.167 516.67C402.447 516.39 402.837 516.25 403.337 516.25C403.757 516.25 404.117 516.37 404.417 516.61C404.717 516.85 404.867 517.2 404.867 517.66C404.867 518 404.787 518.28 404.627 518.5C404.467 518.72 404.277 518.89 404.057 519.01C404.097 519.03 404.127 519.04 404.147 519.04C404.187 519.04 404.217 519.04 404.237 519.04C404.777 519.04 405.257 518.85 405.677 518.47C406.097 518.11 406.467 517.52 406.787 516.7L407.867 513.91L408.437 514.15Z" fill="#424141"/>
<path d="M813.798 512V490.85H815.718L828.468 507.86V490.85H830.748V512H828.888L816.108 494.93V512H813.798ZM840.836 512.27C837.336 512.27 835.586 510.34 835.586 506.48V497.42H838.016V506.45C838.016 507.75 838.276 508.71 838.796 509.33C839.336 509.95 840.176 510.26 841.316 510.26C842.556 510.26 843.566 509.85 844.346 509.03C845.126 508.19 845.516 507.08 845.516 505.7V497.42H847.946V512H845.576V509.54C845.116 510.42 844.466 511.1 843.626 511.58C842.806 512.04 841.876 512.27 840.836 512.27ZM852.492 512V497.42H854.862V499.91C855.342 498.99 856.022 498.3 856.902 497.84C857.782 497.38 858.772 497.15 859.872 497.15C863.332 497.15 865.062 499.07 865.062 502.91V512H862.632V503.06C862.632 501.7 862.362 500.71 861.822 500.09C861.302 499.45 860.462 499.13 859.302 499.13C857.962 499.13 856.892 499.55 856.092 500.39C855.312 501.21 854.922 502.31 854.922 503.69V512H852.492ZM869.243 493.79V491.06H872.243V493.79H869.243ZM869.543 512V497.42H871.973V512H869.543ZM882.365 512.27C880.645 512.27 879.355 511.82 878.495 510.92C877.635 510 877.205 508.68 877.205 506.96V499.31H874.355V497.42H877.205V492.95H879.635V497.42H884.255V499.31H879.635V506.72C879.635 507.86 879.875 508.73 880.355 509.33C880.835 509.91 881.615 510.2 882.695 510.2C883.015 510.2 883.335 510.16 883.655 510.08C883.975 510 884.265 509.92 884.525 509.84L884.945 511.7C884.685 511.84 884.305 511.97 883.805 512.09C883.305 512.21 882.825 512.27 882.365 512.27ZM892.917 512.27C891.497 512.27 890.267 511.96 889.227 511.34C888.187 510.72 887.377 509.85 886.797 508.73C886.237 507.59 885.957 506.25 885.957 504.71C885.957 503.17 886.237 501.84 886.797 500.72C887.377 499.58 888.187 498.7 889.227 498.08C890.267 497.46 891.497 497.15 892.917 497.15C894.317 497.15 895.537 497.46 896.577 498.08C897.637 498.7 898.447 499.58 899.007 500.72C899.587 501.84 899.877 503.17 899.877 504.71C899.877 506.25 899.587 507.59 899.007 508.73C898.447 509.85 897.637 510.72 896.577 511.34C895.537 511.96 894.317 512.27 892.917 512.27ZM892.917 510.32C894.277 510.32 895.367 509.84 896.187 508.88C897.007 507.9 897.417 506.51 897.417 504.71C897.417 502.89 897.007 501.5 896.187 500.54C895.367 499.58 894.277 499.1 892.917 499.1C891.537 499.1 890.437 499.58 889.617 500.54C888.817 501.5 888.417 502.89 888.417 504.71C888.417 506.51 888.817 507.9 889.617 508.88C890.437 509.84 891.537 510.32 892.917 510.32ZM918.402 512.27C916.742 512.27 915.242 512.06 913.902 511.64C912.562 511.2 911.402 510.57 910.422 509.75L911.292 507.77C912.312 508.55 913.382 509.13 914.502 509.51C915.622 509.89 916.922 510.08 918.402 510.08C920.202 510.08 921.532 509.75 922.392 509.09C923.272 508.41 923.712 507.52 923.712 506.42C923.712 505.54 923.392 504.84 922.752 504.32C922.132 503.8 921.082 503.39 919.602 503.09L916.482 502.46C914.602 502.06 913.192 501.41 912.252 500.51C911.332 499.59 910.872 498.37 910.872 496.85C910.872 495.59 911.192 494.49 911.832 493.55C912.492 492.61 913.402 491.88 914.562 491.36C915.722 490.84 917.062 490.58 918.582 490.58C920.002 490.58 921.322 490.81 922.542 491.27C923.762 491.71 924.792 492.35 925.632 493.19L924.762 495.11C923.862 494.29 922.912 493.7 921.912 493.34C920.912 492.96 919.792 492.77 918.552 492.77C916.972 492.77 915.712 493.14 914.772 493.88C913.832 494.6 913.362 495.56 913.362 496.76C913.362 497.72 913.652 498.48 914.232 499.04C914.832 499.6 915.802 500.01 917.142 500.27L920.262 500.93C922.282 501.35 923.772 501.99 924.732 502.85C925.712 503.69 926.202 504.84 926.202 506.3C926.202 507.48 925.882 508.52 925.242 509.42C924.622 510.32 923.722 511.02 922.542 511.52C921.382 512.02 920.002 512.27 918.402 512.27ZM934.279 512.27C933.279 512.27 932.379 512.08 931.579 511.7C930.799 511.3 930.179 510.76 929.719 510.08C929.259 509.4 929.029 508.64 929.029 507.8C929.029 506.74 929.299 505.9 929.839 505.28C930.399 504.66 931.309 504.22 932.569 503.96C933.849 503.68 935.589 503.54 937.789 503.54H938.749V502.61C938.749 501.37 938.489 500.48 937.969 499.94C937.469 499.38 936.659 499.1 935.539 499.1C934.659 499.1 933.809 499.23 932.989 499.49C932.169 499.73 931.329 500.13 930.469 500.69L929.629 498.92C930.389 498.38 931.309 497.95 932.389 497.63C933.489 497.31 934.539 497.15 935.539 497.15C937.419 497.15 938.809 497.61 939.709 498.53C940.629 499.45 941.089 500.88 941.089 502.82V512H938.809V509.48C938.429 510.34 937.839 511.02 937.039 511.52C936.259 512.02 935.339 512.27 934.279 512.27ZM934.669 510.44C935.869 510.44 936.849 510.03 937.609 509.21C938.369 508.37 938.749 507.31 938.749 506.03V505.13H937.819C936.199 505.13 934.919 505.21 933.979 505.37C933.059 505.51 932.409 505.77 932.029 506.15C931.669 506.51 931.489 507.01 931.489 507.65C931.489 508.47 931.769 509.14 932.329 509.66C932.909 510.18 933.689 510.44 934.669 510.44ZM945.597 512V497.42H947.967V499.91C948.447 498.99 949.127 498.3 950.007 497.84C950.887 497.38 951.877 497.15 952.977 497.15C956.437 497.15 958.167 499.07 958.167 502.91V512H955.737V503.06C955.737 501.7 955.467 500.71 954.927 500.09C954.407 499.45 953.567 499.13 952.407 499.13C951.067 499.13 949.997 499.55 949.197 500.39C948.417 501.21 948.027 502.31 948.027 503.69V512H945.597ZM967.568 512.27C966.428 512.27 965.348 512.11 964.328 511.79C963.308 511.47 962.468 511.02 961.808 510.44L962.588 508.73C963.308 509.31 964.098 509.74 964.958 510.02C965.838 510.28 966.728 510.41 967.628 510.41C968.768 510.41 969.628 510.2 970.208 509.78C970.788 509.36 971.078 508.79 971.078 508.07C971.078 507.51 970.888 507.07 970.508 506.75C970.128 506.41 969.528 506.15 968.708 505.97L965.978 505.37C963.498 504.83 962.258 503.55 962.258 501.53C962.258 500.21 962.778 499.15 963.818 498.35C964.878 497.55 966.258 497.15 967.958 497.15C968.958 497.15 969.908 497.31 970.808 497.63C971.728 497.93 972.488 498.38 973.088 498.98L972.278 500.69C971.698 500.15 971.018 499.74 970.238 499.46C969.478 499.16 968.718 499.01 967.958 499.01C966.838 499.01 965.988 499.23 965.408 499.67C964.828 500.11 964.538 500.69 964.538 501.41C964.538 502.53 965.278 503.25 966.758 503.57L969.488 504.14C970.768 504.42 971.738 504.87 972.398 505.49C973.058 506.09 973.388 506.91 973.388 507.95C973.388 509.29 972.858 510.35 971.798 511.13C970.738 511.89 969.328 512.27 967.568 512.27Z" fill="#424141"/>
</svg>
