<svg width="1100" height="395" viewBox="0 0 1100 395" fill="none" xmlns="http://www.w3.org/2000/svg">
<g clip-path="url(#clip0_541_5954)">
<path d="M96.9 0.0999823L170.1 188.8C173.1 196.4 176.5 201.5 180.3 204.1C184.1 206.5 187.6 207.8 190.8 208V214C186.8 213.6 181.9 213.4 176.1 213.4C170.3 213.2 164.5 213.1 158.7 213.1C150.9 213.1 143.6 213.2 136.8 213.4C130 213.4 124.5 213.6 120.3 214V208C130.5 207.6 137 205.9 139.8 202.9C142.6 199.7 142 193 138 182.8L82.2 33.7L87 29.8L34.8 165.4C31.6 173.4 29.7 180.2 29.1 185.8C28.5 191.2 29 195.5 30.6 198.7C32.4 201.9 35.3 204.2 39.3 205.6C43.5 207 48.7 207.8 54.9 208V214C49.3 213.6 43.4 213.4 37.2 213.4C31.2 213.2 25.6 213.1 20.4 213.1C15.4 213.1 11.1 213.2 7.5 213.4C4.1 213.4 0.9 213.6 -2.1 214V208C1.9 207 6 204.7 10.2 201.1C14.4 197.3 18.2 190.9 21.6 181.9L92.1 0.0999823C92.9 0.0999823 93.7 0.0999823 94.5 0.0999823C95.3 0.0999823 96.1 0.0999823 96.9 0.0999823ZM133.5 127.6V133.6H44.1L47.1 127.6H133.5ZM240.265 216.1C232.065 216.1 224.965 214.6 218.965 211.6C212.965 208.4 208.365 204 205.165 198.4C202.165 192.8 200.665 186.3 200.665 178.9C200.665 170.1 202.665 162.9 206.665 157.3C210.865 151.7 216.165 147.2 222.565 143.8C228.965 140.4 235.665 137.6 242.665 135.4C249.865 133 256.665 130.8 263.065 128.8C269.465 126.6 274.665 124.1 278.665 121.3C282.865 118.5 284.965 114.8 284.965 110.2V91.6C284.965 83.2 283.665 76.8 281.065 72.4C278.665 68 275.365 65.1 271.165 63.7C266.965 62.1 262.265 61.3 257.065 61.3C252.065 61.3 246.665 62 240.865 63.4C235.265 64.8 230.765 67.7 227.365 72.1C231.165 72.9 234.465 74.9 237.265 78.1C240.065 81.3 241.465 85.4 241.465 90.4C241.465 95.4 239.865 99.4 236.665 102.4C233.465 105.2 229.365 106.6 224.365 106.6C218.565 106.6 214.265 104.8 211.465 101.2C208.865 97.4 207.565 93.2 207.565 88.6C207.565 83.4 208.865 79.2 211.465 76C214.065 72.8 217.365 69.8 221.365 67C225.965 63.8 231.865 61.1 239.065 58.9C246.465 56.5 254.765 55.3 263.965 55.3C272.165 55.3 279.165 56.3 284.965 58.3C290.765 60.1 295.565 62.8 299.365 66.4C304.565 71.2 307.965 77.1 309.565 84.1C311.165 90.9 311.965 99.1 311.965 108.7V192.1C311.965 197.1 312.665 200.7 314.065 202.9C315.665 205.1 318.065 206.2 321.265 206.2C323.465 206.2 325.565 205.7 327.565 204.7C329.565 203.7 331.965 202.1 334.765 199.9L338.065 205C333.865 208.2 329.865 210.9 326.065 213.1C322.265 215.1 317.165 216.1 310.765 216.1C304.965 216.1 300.165 215.1 296.365 213.1C292.565 211.1 289.665 208.2 287.665 204.4C285.865 200.4 284.965 195.4 284.965 189.4C279.565 198.4 273.065 205.1 265.465 209.5C258.065 213.9 249.665 216.1 240.265 216.1ZM251.065 204.1C257.665 204.1 263.765 202.2 269.365 198.4C275.165 194.6 280.365 188.9 284.965 181.3V122.5C282.565 125.9 279.065 128.8 274.465 131.2C269.865 133.4 264.865 135.7 259.465 138.1C254.065 140.3 248.865 143 243.865 146.2C239.065 149.2 235.065 153.2 231.865 158.2C228.665 163.2 227.065 169.7 227.065 177.7C227.065 185.7 229.165 192.1 233.365 196.9C237.765 201.7 243.665 204.1 251.065 204.1Z" fill="#160C0A"/>
<path d="M534.7 214L628 2.49999H649L742.3 214H716.8L693.4 160H583.3L560.2 214H534.7ZM638.2 31.3L592.3 139.3H684.7L638.8 31.3H638.2ZM816.255 216.7C806.255 216.7 797.255 214.8 789.255 211C781.455 207 775.255 201.6 770.655 194.8C766.055 188 763.755 180.4 763.755 172C763.755 161.4 766.455 153 771.855 146.8C777.455 140.6 786.555 136.2 799.155 133.6C811.955 130.8 829.355 129.4 851.355 129.4H860.955V120.1C860.955 107.7 858.355 98.8 853.155 93.4C848.155 87.8 840.055 85 828.855 85C820.055 85 811.555 86.3 803.355 88.9C795.155 91.3 786.755 95.3 778.155 100.9L769.755 83.2C777.355 77.8 786.555 73.5 797.355 70.3C808.355 67.1 818.855 65.5 828.855 65.5C847.655 65.5 861.555 70.1 870.555 79.3C879.755 88.5 884.355 102.8 884.355 122.2V214H861.555V188.8C857.755 197.4 851.855 204.2 843.855 209.2C836.055 214.2 826.855 216.7 816.255 216.7ZM820.155 198.4C832.155 198.4 841.955 194.3 849.555 186.1C857.155 177.7 860.955 167.1 860.955 154.3V145.3H851.655C835.455 145.3 822.655 146.1 813.255 147.7C804.055 149.1 797.555 151.7 793.755 155.5C790.155 159.1 788.355 164.1 788.355 170.5C788.355 178.7 791.155 185.4 796.755 190.6C802.555 195.8 810.355 198.4 820.155 198.4Z" fill="#160C0A"/>
<path d="M65.6555 362.76C66.0755 362.78 66.6255 362.8 67.3055 362.82C67.9855 362.84 68.6555 362.85 69.3155 362.85C70.2555 362.85 71.1555 362.84 72.0155 362.82C72.8755 362.8 73.4855 362.79 73.8455 362.79C76.2655 362.79 78.0755 363.34 79.2755 364.44C80.4755 365.54 81.0755 366.96 81.0755 368.7C81.0755 369.42 80.9555 370.18 80.7155 370.98C80.4755 371.76 80.0555 372.49 79.4555 373.17C78.8755 373.83 78.0755 374.37 77.0555 374.79C76.0355 375.21 74.7455 375.42 73.1855 375.42H70.3055V374.82H72.8855C74.3055 374.82 75.3855 374.55 76.1255 374.01C76.8855 373.47 77.3955 372.76 77.6555 371.88C77.9355 371 78.0755 370.05 78.0755 369.03C78.0755 367.13 77.6955 365.71 76.9355 364.77C76.1955 363.83 74.9155 363.36 73.0955 363.36C72.1755 363.36 71.5755 363.53 71.2955 363.87C71.0155 364.21 70.8755 364.9 70.8755 365.94V380.82C70.8755 381.54 70.9455 382.08 71.0855 382.44C71.2455 382.8 71.5455 383.04 71.9855 383.16C72.4255 383.28 73.0655 383.36 73.9055 383.4V384C73.3855 383.96 72.7255 383.94 71.9255 383.94C71.1255 383.92 70.3155 383.91 69.4955 383.91C68.7155 383.91 67.9855 383.92 67.3055 383.94C66.6255 383.94 66.0755 383.96 65.6555 384V383.4C66.3355 383.36 66.8455 383.28 67.1855 383.16C67.5455 383.04 67.7855 382.8 67.9055 382.44C68.0255 382.08 68.0855 381.54 68.0855 380.82V365.94C68.0855 365.2 68.0255 364.66 67.9055 364.32C67.7855 363.96 67.5455 363.72 67.1855 363.6C66.8455 363.46 66.3355 363.38 65.6555 363.36V362.76ZM87.3207 360.48V381.21C87.3207 382.05 87.4907 382.62 87.8307 382.92C88.1907 383.22 88.7807 383.37 89.6007 383.37V384C89.2607 383.98 88.7407 383.96 88.0407 383.94C87.3607 383.9 86.6707 383.88 85.9707 383.88C85.2907 383.88 84.6007 383.9 83.9007 383.94C83.2007 383.96 82.6807 383.98 82.3407 384V383.37C83.1607 383.37 83.7407 383.22 84.0807 382.92C84.4407 382.62 84.6207 382.05 84.6207 381.21V364.08C84.6207 363.18 84.4607 362.52 84.1407 362.1C83.8207 361.66 83.2207 361.44 82.3407 361.44V360.81C82.9807 360.87 83.6007 360.9 84.2007 360.9C84.7807 360.9 85.3307 360.87 85.8507 360.81C86.3907 360.73 86.8807 360.62 87.3207 360.48ZM95.3946 384.21C94.5746 384.21 93.8646 384.06 93.2646 383.76C92.6646 383.44 92.2046 383 91.8846 382.44C91.5846 381.88 91.4346 381.23 91.4346 380.49C91.4346 379.61 91.6346 378.89 92.0346 378.33C92.4546 377.77 92.9846 377.32 93.6246 376.98C94.2646 376.64 94.9346 376.36 95.6346 376.14C96.3546 375.9 97.0346 375.68 97.6746 375.48C98.3146 375.26 98.8346 375.01 99.2346 374.73C99.6546 374.45 99.8646 374.08 99.8646 373.62V371.76C99.8646 370.92 99.7346 370.28 99.4746 369.84C99.2346 369.4 98.9046 369.11 98.4846 368.97C98.0646 368.81 97.5946 368.73 97.0746 368.73C96.5746 368.73 96.0346 368.8 95.4546 368.94C94.8946 369.08 94.4446 369.37 94.1046 369.81C94.4846 369.89 94.8146 370.09 95.0946 370.41C95.3746 370.73 95.5146 371.14 95.5146 371.64C95.5146 372.14 95.3546 372.54 95.0346 372.84C94.7146 373.12 94.3046 373.26 93.8046 373.26C93.2246 373.26 92.7946 373.08 92.5146 372.72C92.2546 372.34 92.1246 371.92 92.1246 371.46C92.1246 370.94 92.2546 370.52 92.5146 370.2C92.7746 369.88 93.1046 369.58 93.5046 369.3C93.9646 368.98 94.5546 368.71 95.2746 368.49C96.0146 368.25 96.8446 368.13 97.7646 368.13C98.5846 368.13 99.2846 368.23 99.8646 368.43C100.445 368.61 100.925 368.88 101.305 369.24C101.825 369.72 102.165 370.31 102.325 371.01C102.485 371.69 102.565 372.51 102.565 373.47V381.81C102.565 382.31 102.635 382.67 102.775 382.89C102.935 383.11 103.175 383.22 103.495 383.22C103.715 383.22 103.925 383.17 104.125 383.07C104.325 382.97 104.565 382.81 104.845 382.59L105.175 383.1C104.755 383.42 104.355 383.69 103.975 383.91C103.595 384.11 103.085 384.21 102.445 384.21C101.865 384.21 101.385 384.11 101.005 383.91C100.625 383.71 100.335 383.42 100.135 383.04C99.9546 382.64 99.8646 382.14 99.8646 381.54C99.3246 382.44 98.6746 383.11 97.9146 383.55C97.1746 383.99 96.3346 384.21 95.3946 384.21ZM96.4746 383.01C97.1346 383.01 97.7446 382.82 98.3046 382.44C98.8846 382.06 99.4046 381.49 99.8646 380.73V374.85C99.6246 375.19 99.2746 375.48 98.8146 375.72C98.3546 375.94 97.8546 376.17 97.3146 376.41C96.7746 376.63 96.2546 376.9 95.7546 377.22C95.2746 377.52 94.8746 377.92 94.5546 378.42C94.2346 378.92 94.0746 379.57 94.0746 380.37C94.0746 381.17 94.2846 381.81 94.7046 382.29C95.1446 382.77 95.7346 383.01 96.4746 383.01ZM119.85 368.55V369.15C119.47 369.19 119.12 369.36 118.8 369.66C118.48 369.96 118.18 370.49 117.9 371.25L112.98 384.15H112.47L106.95 370.86C106.57 370.08 106.19 369.61 105.81 369.45C105.45 369.27 105.15 369.18 104.91 369.18V368.55C105.35 368.61 105.81 368.66 106.29 368.7C106.77 368.72 107.29 368.73 107.85 368.73C108.47 368.73 109.12 368.71 109.8 368.67C110.5 368.63 111.15 368.59 111.75 368.55V369.18C111.25 369.18 110.8 369.22 110.4 369.3C110.02 369.36 109.78 369.57 109.68 369.93C109.58 370.27 109.7 370.86 110.04 371.7L113.73 380.85L113.55 380.91L116.97 371.97C117.23 371.31 117.33 370.79 117.27 370.41C117.23 370.01 117.03 369.71 116.67 369.51C116.31 369.31 115.77 369.19 115.05 369.15V368.55C115.41 368.57 115.72 368.59 115.98 368.61C116.24 368.61 116.49 368.62 116.73 368.64C116.99 368.64 117.27 368.64 117.57 368.64C118.03 368.64 118.44 368.63 118.8 368.61C119.18 368.59 119.53 368.57 119.85 368.55ZM112.98 384.15L111.96 386.76C111.76 387.26 111.55 387.68 111.33 388.02C111.13 388.36 110.91 388.64 110.67 388.86C110.35 389.16 109.97 389.36 109.53 389.46C109.09 389.58 108.69 389.64 108.33 389.64C107.95 389.64 107.6 389.57 107.28 389.43C106.98 389.29 106.74 389.08 106.56 388.8C106.38 388.54 106.29 388.22 106.29 387.84C106.29 387.36 106.43 386.97 106.71 386.67C106.99 386.39 107.38 386.25 107.88 386.25C108.3 386.25 108.66 386.37 108.96 386.61C109.26 386.85 109.41 387.2 109.41 387.66C109.41 388 109.33 388.28 109.17 388.5C109.01 388.72 108.82 388.89 108.6 389.01C108.64 389.03 108.67 389.04 108.69 389.04C108.73 389.04 108.76 389.04 108.78 389.04C109.32 389.04 109.8 388.85 110.22 388.47C110.64 388.11 111.01 387.52 111.33 386.7L112.41 383.91L112.98 384.15ZM128.222 360.54C128.782 360.54 129.272 360.62 129.692 360.78C130.132 360.92 130.512 361.11 130.832 361.35C131.132 361.59 131.362 361.87 131.522 362.19C131.682 362.51 131.762 362.85 131.762 363.21C131.762 363.67 131.612 364.05 131.312 364.35C131.012 364.65 130.632 364.8 130.172 364.8C129.732 364.8 129.342 364.66 129.002 364.38C128.682 364.08 128.522 363.68 128.522 363.18C128.522 362.76 128.632 362.42 128.852 362.16C129.092 361.9 129.402 361.73 129.782 361.65C129.722 361.47 129.562 361.32 129.302 361.2C129.062 361.06 128.732 360.99 128.312 360.99C127.852 360.99 127.452 361.09 127.112 361.29C126.792 361.49 126.542 361.76 126.362 362.1C126.122 362.52 125.972 363.15 125.912 363.99C125.852 364.81 125.822 366.08 125.822 367.8V368.58H129.032V369.18H125.822V380.91C125.822 381.89 126.102 382.55 126.662 382.89C127.242 383.21 128.022 383.37 129.002 383.37V384C128.542 383.98 127.892 383.96 127.052 383.94C126.212 383.9 125.322 383.88 124.382 383.88C123.702 383.88 123.022 383.9 122.342 383.94C121.682 383.96 121.182 383.98 120.842 384V383.37C121.662 383.37 122.242 383.22 122.582 382.92C122.942 382.62 123.122 382.05 123.122 381.21V369.18H120.722V368.58H123.122C123.122 367.4 123.172 366.41 123.272 365.61C123.372 364.81 123.532 364.13 123.752 363.57C123.972 362.99 124.272 362.48 124.652 362.04C125.052 361.58 125.562 361.22 126.182 360.96C126.802 360.68 127.482 360.54 128.222 360.54ZM135.033 384.21C134.213 384.21 133.503 384.06 132.903 383.76C132.303 383.44 131.843 383 131.523 382.44C131.223 381.88 131.073 381.23 131.073 380.49C131.073 379.61 131.273 378.89 131.673 378.33C132.093 377.77 132.623 377.32 133.263 376.98C133.903 376.64 134.573 376.36 135.273 376.14C135.993 375.9 136.673 375.68 137.313 375.48C137.953 375.26 138.473 375.01 138.873 374.73C139.293 374.45 139.503 374.08 139.503 373.62V371.76C139.503 370.92 139.373 370.28 139.113 369.84C138.873 369.4 138.543 369.11 138.123 368.97C137.703 368.81 137.233 368.73 136.713 368.73C136.213 368.73 135.673 368.8 135.093 368.94C134.533 369.08 134.083 369.37 133.743 369.81C134.123 369.89 134.453 370.09 134.733 370.41C135.013 370.73 135.153 371.14 135.153 371.64C135.153 372.14 134.993 372.54 134.673 372.84C134.353 373.12 133.943 373.26 133.443 373.26C132.863 373.26 132.433 373.08 132.153 372.72C131.893 372.34 131.763 371.92 131.763 371.46C131.763 370.94 131.893 370.52 132.153 370.2C132.413 369.88 132.743 369.58 133.143 369.3C133.603 368.98 134.193 368.71 134.913 368.49C135.653 368.25 136.483 368.13 137.403 368.13C138.223 368.13 138.923 368.23 139.503 368.43C140.083 368.61 140.563 368.88 140.943 369.24C141.463 369.72 141.803 370.31 141.963 371.01C142.123 371.69 142.203 372.51 142.203 373.47V381.81C142.203 382.31 142.273 382.67 142.413 382.89C142.573 383.11 142.813 383.22 143.133 383.22C143.353 383.22 143.563 383.17 143.763 383.07C143.963 382.97 144.203 382.81 144.483 382.59L144.813 383.1C144.393 383.42 143.993 383.69 143.613 383.91C143.233 384.11 142.723 384.21 142.083 384.21C141.503 384.21 141.023 384.11 140.643 383.91C140.263 383.71 139.973 383.42 139.773 383.04C139.593 382.64 139.503 382.14 139.503 381.54C138.963 382.44 138.313 383.11 137.553 383.55C136.813 383.99 135.973 384.21 135.033 384.21ZM136.113 383.01C136.773 383.01 137.383 382.82 137.943 382.44C138.523 382.06 139.043 381.49 139.503 380.73V374.85C139.263 375.19 138.913 375.48 138.453 375.72C137.993 375.94 137.493 376.17 136.953 376.41C136.413 376.63 135.893 376.9 135.393 377.22C134.913 377.52 134.513 377.92 134.193 378.42C133.873 378.92 133.713 379.57 133.713 380.37C133.713 381.17 133.923 381.81 134.343 382.29C134.783 382.77 135.373 383.01 136.113 383.01ZM149.135 361.05C149.655 361.05 150.105 361.24 150.485 361.62C150.865 362 151.055 362.45 151.055 362.97C151.055 363.49 150.865 363.94 150.485 364.32C150.105 364.7 149.655 364.89 149.135 364.89C148.615 364.89 148.165 364.7 147.785 364.32C147.405 363.94 147.215 363.49 147.215 362.97C147.215 362.45 147.405 362 147.785 361.62C148.165 361.24 148.615 361.05 149.135 361.05ZM150.695 368.22V381.21C150.695 382.05 150.865 382.62 151.205 382.92C151.565 383.22 152.155 383.37 152.975 383.37V384C152.635 383.98 152.115 383.96 151.415 383.94C150.735 383.9 150.045 383.88 149.345 383.88C148.665 383.88 147.975 383.9 147.275 383.94C146.575 383.96 146.055 383.98 145.715 384V383.37C146.535 383.37 147.115 383.22 147.455 382.92C147.815 382.62 147.995 382.05 147.995 381.21V371.82C147.995 370.92 147.835 370.26 147.515 369.84C147.195 369.4 146.595 369.18 145.715 369.18V368.55C146.355 368.61 146.975 368.64 147.575 368.64C148.155 368.64 148.705 368.61 149.225 368.55C149.765 368.47 150.255 368.36 150.695 368.22ZM163.834 368.13C164.374 368.13 164.844 368.24 165.244 368.46C165.664 368.68 165.984 368.97 166.204 369.33C166.444 369.67 166.564 370.06 166.564 370.5C166.564 371 166.404 371.44 166.084 371.82C165.784 372.2 165.374 372.39 164.854 372.39C164.434 372.39 164.064 372.26 163.744 372C163.424 371.72 163.264 371.33 163.264 370.83C163.264 370.45 163.364 370.13 163.564 369.87C163.784 369.59 164.024 369.37 164.284 369.21C164.144 369.01 163.934 368.91 163.654 368.91C163.034 368.91 162.464 369.1 161.944 369.48C161.424 369.84 160.984 370.31 160.624 370.89C160.264 371.47 159.984 372.09 159.784 372.75C159.584 373.39 159.484 373.99 159.484 374.55V380.91C159.484 381.89 159.764 382.55 160.324 382.89C160.904 383.21 161.684 383.37 162.664 383.37V384C162.204 383.98 161.554 383.96 160.714 383.94C159.874 383.9 158.984 383.88 158.044 383.88C157.364 383.88 156.684 383.9 156.004 383.94C155.344 383.96 154.844 383.98 154.504 384V383.37C155.324 383.37 155.904 383.22 156.244 382.92C156.604 382.62 156.784 382.05 156.784 381.21V371.82C156.784 370.92 156.624 370.26 156.304 369.84C155.984 369.4 155.384 369.18 154.504 369.18V368.55C155.144 368.61 155.764 368.64 156.364 368.64C156.944 368.64 157.494 368.61 158.014 368.55C158.554 368.47 159.044 368.36 159.484 368.22V371.97C159.704 371.39 160.014 370.81 160.414 370.23C160.834 369.63 161.334 369.13 161.914 368.73C162.494 368.33 163.134 368.13 163.834 368.13ZM183.269 362.76C186.849 362.76 189.509 363.66 191.249 365.46C192.989 367.24 193.859 369.8 193.859 373.14C193.859 375.32 193.429 377.23 192.569 378.87C191.729 380.49 190.499 381.75 188.879 382.65C187.259 383.55 185.299 384 182.999 384C182.699 384 182.299 383.99 181.799 383.97C181.299 383.95 180.779 383.94 180.239 383.94C179.719 383.92 179.239 383.91 178.799 383.91C178.099 383.91 177.409 383.92 176.729 383.94C176.049 383.94 175.499 383.96 175.079 384V383.4C175.759 383.36 176.269 383.28 176.609 383.16C176.969 383.04 177.209 382.8 177.329 382.44C177.449 382.08 177.509 381.54 177.509 380.82V365.94C177.509 365.2 177.449 364.66 177.329 364.32C177.209 363.96 176.969 363.72 176.609 363.6C176.269 363.46 175.759 363.38 175.079 363.36V362.76C175.499 362.78 176.049 362.81 176.729 362.85C177.409 362.87 178.079 362.87 178.739 362.85C179.439 362.83 180.229 362.81 181.109 362.79C181.989 362.77 182.709 362.76 183.269 362.76ZM182.519 363.3C181.599 363.3 180.999 363.47 180.719 363.81C180.439 364.15 180.299 364.84 180.299 365.88V380.88C180.299 381.92 180.439 382.61 180.719 382.95C181.019 383.29 181.629 383.46 182.549 383.46C184.729 383.46 186.419 383.07 187.619 382.29C188.819 381.49 189.659 380.33 190.139 378.81C190.619 377.29 190.859 375.44 190.859 373.26C190.859 371.02 190.589 369.17 190.049 367.71C189.529 366.23 188.659 365.13 187.439 364.41C186.239 363.67 184.599 363.3 182.519 363.3ZM199.789 361.05C200.309 361.05 200.759 361.24 201.139 361.62C201.519 362 201.709 362.45 201.709 362.97C201.709 363.49 201.519 363.94 201.139 364.32C200.759 364.7 200.309 364.89 199.789 364.89C199.269 364.89 198.819 364.7 198.439 364.32C198.059 363.94 197.869 363.49 197.869 362.97C197.869 362.45 198.059 362 198.439 361.62C198.819 361.24 199.269 361.05 199.789 361.05ZM201.349 368.22V381.21C201.349 382.05 201.519 382.62 201.859 382.92C202.219 383.22 202.809 383.37 203.629 383.37V384C203.289 383.98 202.769 383.96 202.069 383.94C201.389 383.9 200.699 383.88 199.999 383.88C199.319 383.88 198.629 383.9 197.929 383.94C197.229 383.96 196.709 383.98 196.369 384V383.37C197.189 383.37 197.769 383.22 198.109 382.92C198.469 382.62 198.649 382.05 198.649 381.21V371.82C198.649 370.92 198.489 370.26 198.169 369.84C197.849 369.4 197.249 369.18 196.369 369.18V368.55C197.009 368.61 197.629 368.64 198.229 368.64C198.809 368.64 199.359 368.61 199.879 368.55C200.419 368.47 200.909 368.36 201.349 368.22ZM210.528 368.13C211.328 368.13 212.008 368.26 212.568 368.52C213.128 368.78 213.538 369.02 213.798 369.24C214.458 369.78 214.858 369.42 214.998 368.16H215.688C215.648 368.72 215.618 369.39 215.598 370.17C215.578 370.93 215.568 371.96 215.568 373.26H214.878C214.758 372.52 214.548 371.8 214.248 371.1C213.968 370.4 213.548 369.83 212.988 369.39C212.428 368.93 211.698 368.7 210.798 368.7C210.098 368.7 209.508 368.9 209.028 369.3C208.568 369.68 208.338 370.25 208.338 371.01C208.338 371.61 208.518 372.13 208.878 372.57C209.238 372.99 209.708 373.39 210.288 373.77C210.868 374.13 211.498 374.53 212.178 374.97C212.938 375.45 213.628 375.94 214.248 376.44C214.868 376.94 215.358 377.49 215.718 378.09C216.098 378.69 216.288 379.4 216.288 380.22C216.288 381.14 216.048 381.91 215.568 382.53C215.088 383.15 214.458 383.62 213.678 383.94C212.918 384.26 212.078 384.42 211.158 384.42C210.718 384.42 210.298 384.38 209.898 384.3C209.518 384.24 209.148 384.14 208.788 384C208.588 383.9 208.378 383.78 208.158 383.64C207.958 383.5 207.758 383.35 207.558 383.19C207.358 383.03 207.178 383.04 207.018 383.22C206.858 383.38 206.738 383.71 206.658 384.21H205.968C206.008 383.57 206.038 382.79 206.058 381.87C206.078 380.95 206.088 379.73 206.088 378.21H206.778C206.918 379.33 207.118 380.31 207.378 381.15C207.638 381.99 208.048 382.65 208.608 383.13C209.168 383.59 209.948 383.82 210.948 383.82C211.348 383.82 211.748 383.73 212.148 383.55C212.568 383.37 212.918 383.07 213.198 382.65C213.478 382.23 213.618 381.67 213.618 380.97C213.618 380.09 213.298 379.37 212.658 378.81C212.018 378.25 211.208 377.66 210.228 377.04C209.508 376.58 208.828 376.12 208.188 375.66C207.568 375.2 207.058 374.68 206.658 374.1C206.278 373.52 206.088 372.82 206.088 372C206.088 371.1 206.288 370.37 206.688 369.81C207.108 369.23 207.658 368.81 208.338 368.55C209.018 368.27 209.748 368.13 210.528 368.13ZM223.346 368.22V386.64C223.346 387.5 223.596 388.07 224.096 388.35C224.616 388.65 225.326 388.8 226.226 388.8V389.43C225.786 389.41 225.176 389.38 224.396 389.34C223.616 389.32 222.786 389.31 221.906 389.31C221.286 389.31 220.666 389.32 220.046 389.34C219.446 389.38 218.986 389.41 218.666 389.43V388.8C219.386 388.8 219.896 388.67 220.196 388.41C220.496 388.15 220.646 387.66 220.646 386.94V371.82C220.646 370.92 220.486 370.26 220.166 369.84C219.846 369.4 219.246 369.18 218.366 369.18V368.55C219.006 368.61 219.626 368.64 220.226 368.64C220.806 368.64 221.356 368.61 221.876 368.55C222.416 368.47 222.906 368.36 223.346 368.22ZM228.146 368.13C229.206 368.13 230.156 368.42 230.996 369C231.836 369.56 232.496 370.39 232.976 371.49C233.476 372.59 233.726 373.95 233.726 375.57C233.726 376.65 233.596 377.72 233.336 378.78C233.076 379.82 232.666 380.77 232.106 381.63C231.566 382.47 230.856 383.15 229.976 383.67C229.116 384.17 228.076 384.42 226.856 384.42C225.916 384.42 225.096 384.2 224.396 383.76C223.716 383.32 223.256 382.79 223.016 382.17L223.316 381.75C223.596 382.31 223.996 382.78 224.516 383.16C225.056 383.54 225.726 383.73 226.526 383.73C227.646 383.73 228.516 383.38 229.136 382.68C229.756 381.98 230.186 381.05 230.426 379.89C230.686 378.71 230.816 377.41 230.816 375.99C230.816 374.39 230.686 373.08 230.426 372.06C230.166 371.04 229.776 370.28 229.256 369.78C228.736 369.28 228.096 369.03 227.336 369.03C226.356 369.03 225.466 369.44 224.666 370.26C223.866 371.06 223.356 372.28 223.136 373.92L222.776 373.5C222.996 371.8 223.596 370.48 224.576 369.54C225.576 368.6 226.766 368.13 228.146 368.13ZM240.778 360.48V381.21C240.778 382.05 240.948 382.62 241.288 382.92C241.648 383.22 242.238 383.37 243.058 383.37V384C242.718 383.98 242.198 383.96 241.498 383.94C240.818 383.9 240.128 383.88 239.428 383.88C238.748 383.88 238.058 383.9 237.358 383.94C236.658 383.96 236.138 383.98 235.798 384V383.37C236.618 383.37 237.198 383.22 237.538 382.92C237.898 382.62 238.078 382.05 238.078 381.21V364.08C238.078 363.18 237.918 362.52 237.598 362.1C237.278 361.66 236.678 361.44 235.798 361.44V360.81C236.438 360.87 237.058 360.9 237.658 360.9C238.238 360.9 238.788 360.87 239.308 360.81C239.848 360.73 240.338 360.62 240.778 360.48ZM248.852 384.21C248.032 384.21 247.322 384.06 246.722 383.76C246.122 383.44 245.662 383 245.342 382.44C245.042 381.88 244.892 381.23 244.892 380.49C244.892 379.61 245.092 378.89 245.492 378.33C245.912 377.77 246.442 377.32 247.082 376.98C247.722 376.64 248.392 376.36 249.092 376.14C249.812 375.9 250.492 375.68 251.132 375.48C251.772 375.26 252.292 375.01 252.692 374.73C253.112 374.45 253.322 374.08 253.322 373.62V371.76C253.322 370.92 253.192 370.28 252.932 369.84C252.692 369.4 252.362 369.11 251.942 368.97C251.522 368.81 251.052 368.73 250.532 368.73C250.032 368.73 249.492 368.8 248.912 368.94C248.352 369.08 247.902 369.37 247.562 369.81C247.942 369.89 248.272 370.09 248.552 370.41C248.832 370.73 248.972 371.14 248.972 371.64C248.972 372.14 248.812 372.54 248.492 372.84C248.172 373.12 247.762 373.26 247.262 373.26C246.682 373.26 246.252 373.08 245.972 372.72C245.712 372.34 245.582 371.92 245.582 371.46C245.582 370.94 245.712 370.52 245.972 370.2C246.232 369.88 246.562 369.58 246.962 369.3C247.422 368.98 248.012 368.71 248.732 368.49C249.472 368.25 250.302 368.13 251.222 368.13C252.042 368.13 252.742 368.23 253.322 368.43C253.902 368.61 254.382 368.88 254.762 369.24C255.282 369.72 255.622 370.31 255.782 371.01C255.942 371.69 256.022 372.51 256.022 373.47V381.81C256.022 382.31 256.092 382.67 256.232 382.89C256.392 383.11 256.632 383.22 256.952 383.22C257.172 383.22 257.382 383.17 257.582 383.07C257.782 382.97 258.022 382.81 258.302 382.59L258.632 383.1C258.212 383.42 257.812 383.69 257.432 383.91C257.052 384.11 256.542 384.21 255.902 384.21C255.322 384.21 254.842 384.11 254.462 383.91C254.082 383.71 253.792 383.42 253.592 383.04C253.412 382.64 253.322 382.14 253.322 381.54C252.782 382.44 252.132 383.11 251.372 383.55C250.632 383.99 249.792 384.21 248.852 384.21ZM249.932 383.01C250.592 383.01 251.202 382.82 251.762 382.44C252.342 382.06 252.862 381.49 253.322 380.73V374.85C253.082 375.19 252.732 375.48 252.272 375.72C251.812 375.94 251.312 376.17 250.772 376.41C250.232 376.63 249.712 376.9 249.212 377.22C248.732 377.52 248.332 377.92 248.012 378.42C247.692 378.92 247.532 379.57 247.532 380.37C247.532 381.17 247.742 381.81 248.162 382.29C248.602 382.77 249.192 383.01 249.932 383.01ZM273.307 368.55V369.15C272.927 369.19 272.577 369.36 272.257 369.66C271.937 369.96 271.637 370.49 271.357 371.25L266.437 384.15H265.927L260.407 370.86C260.027 370.08 259.647 369.61 259.267 369.45C258.907 369.27 258.607 369.18 258.367 369.18V368.55C258.807 368.61 259.267 368.66 259.747 368.7C260.227 368.72 260.747 368.73 261.307 368.73C261.927 368.73 262.577 368.71 263.257 368.67C263.957 368.63 264.607 368.59 265.207 368.55V369.18C264.707 369.18 264.257 369.22 263.857 369.3C263.477 369.36 263.237 369.57 263.137 369.93C263.037 370.27 263.157 370.86 263.497 371.7L267.187 380.85L267.007 380.91L270.427 371.97C270.687 371.31 270.787 370.79 270.727 370.41C270.687 370.01 270.487 369.71 270.127 369.51C269.767 369.31 269.227 369.19 268.507 369.15V368.55C268.867 368.57 269.177 368.59 269.437 368.61C269.697 368.61 269.947 368.62 270.187 368.64C270.447 368.64 270.727 368.64 271.027 368.64C271.487 368.64 271.897 368.63 272.257 368.61C272.637 368.59 272.987 368.57 273.307 368.55ZM266.437 384.15L265.417 386.76C265.217 387.26 265.007 387.68 264.787 388.02C264.587 388.36 264.367 388.64 264.127 388.86C263.807 389.16 263.427 389.36 262.987 389.46C262.547 389.58 262.147 389.64 261.787 389.64C261.407 389.64 261.057 389.57 260.737 389.43C260.437 389.29 260.197 389.08 260.017 388.8C259.837 388.54 259.747 388.22 259.747 387.84C259.747 387.36 259.887 386.97 260.167 386.67C260.447 386.39 260.837 386.25 261.337 386.25C261.757 386.25 262.117 386.37 262.417 386.61C262.717 386.85 262.867 387.2 262.867 387.66C262.867 388 262.787 388.28 262.627 388.5C262.467 388.72 262.277 388.89 262.057 389.01C262.097 389.03 262.127 389.04 262.147 389.04C262.187 389.04 262.217 389.04 262.237 389.04C262.777 389.04 263.257 388.85 263.677 388.47C264.097 388.11 264.467 387.52 264.787 386.7L265.867 383.91L266.437 384.15Z" fill="#424141"/>
<path d="M638.798 382V360.85H640.718L653.468 377.86V360.85H655.748V382H653.888L641.108 364.93V382H638.798ZM665.836 382.27C662.336 382.27 660.586 380.34 660.586 376.48V367.42H663.016V376.45C663.016 377.75 663.276 378.71 663.796 379.33C664.336 379.95 665.176 380.26 666.316 380.26C667.556 380.26 668.566 379.85 669.346 379.03C670.126 378.19 670.516 377.08 670.516 375.7V367.42H672.946V382H670.576V379.54C670.116 380.42 669.466 381.1 668.626 381.58C667.806 382.04 666.876 382.27 665.836 382.27ZM677.492 382V367.42H679.862V369.91C680.342 368.99 681.022 368.3 681.902 367.84C682.782 367.38 683.772 367.15 684.872 367.15C688.332 367.15 690.062 369.07 690.062 372.91V382H687.632V373.06C687.632 371.7 687.362 370.71 686.822 370.09C686.302 369.45 685.462 369.13 684.302 369.13C682.962 369.13 681.892 369.55 681.092 370.39C680.312 371.21 679.922 372.31 679.922 373.69V382H677.492ZM694.243 363.79V361.06H697.243V363.79H694.243ZM694.543 382V367.42H696.973V382H694.543ZM707.365 382.27C705.645 382.27 704.355 381.82 703.495 380.92C702.635 380 702.205 378.68 702.205 376.96V369.31H699.355V367.42H702.205V362.95H704.635V367.42H709.255V369.31H704.635V376.72C704.635 377.86 704.875 378.73 705.355 379.33C705.835 379.91 706.615 380.2 707.695 380.2C708.015 380.2 708.335 380.16 708.655 380.08C708.975 380 709.265 379.92 709.525 379.84L709.945 381.7C709.685 381.84 709.305 381.97 708.805 382.09C708.305 382.21 707.825 382.27 707.365 382.27ZM717.917 382.27C716.497 382.27 715.267 381.96 714.227 381.34C713.187 380.72 712.377 379.85 711.797 378.73C711.237 377.59 710.957 376.25 710.957 374.71C710.957 373.17 711.237 371.84 711.797 370.72C712.377 369.58 713.187 368.7 714.227 368.08C715.267 367.46 716.497 367.15 717.917 367.15C719.317 367.15 720.537 367.46 721.577 368.08C722.637 368.7 723.447 369.58 724.007 370.72C724.587 371.84 724.877 373.17 724.877 374.71C724.877 376.25 724.587 377.59 724.007 378.73C723.447 379.85 722.637 380.72 721.577 381.34C720.537 381.96 719.317 382.27 717.917 382.27ZM717.917 380.32C719.277 380.32 720.367 379.84 721.187 378.88C722.007 377.9 722.417 376.51 722.417 374.71C722.417 372.89 722.007 371.5 721.187 370.54C720.367 369.58 719.277 369.1 717.917 369.1C716.537 369.1 715.437 369.58 714.617 370.54C713.817 371.5 713.417 372.89 713.417 374.71C713.417 376.51 713.817 377.9 714.617 378.88C715.437 379.84 716.537 380.32 717.917 380.32ZM743.402 382.27C741.742 382.27 740.242 382.06 738.902 381.64C737.562 381.2 736.402 380.57 735.422 379.75L736.292 377.77C737.312 378.55 738.382 379.13 739.502 379.51C740.622 379.89 741.922 380.08 743.402 380.08C745.202 380.08 746.532 379.75 747.392 379.09C748.272 378.41 748.712 377.52 748.712 376.42C748.712 375.54 748.392 374.84 747.752 374.32C747.132 373.8 746.082 373.39 744.602 373.09L741.482 372.46C739.602 372.06 738.192 371.41 737.252 370.51C736.332 369.59 735.872 368.37 735.872 366.85C735.872 365.59 736.192 364.49 736.832 363.55C737.492 362.61 738.402 361.88 739.562 361.36C740.722 360.84 742.062 360.58 743.582 360.58C745.002 360.58 746.322 360.81 747.542 361.27C748.762 361.71 749.792 362.35 750.632 363.19L749.762 365.11C748.862 364.29 747.912 363.7 746.912 363.34C745.912 362.96 744.792 362.77 743.552 362.77C741.972 362.77 740.712 363.14 739.772 363.88C738.832 364.6 738.362 365.56 738.362 366.76C738.362 367.72 738.652 368.48 739.232 369.04C739.832 369.6 740.802 370.01 742.142 370.27L745.262 370.93C747.282 371.35 748.772 371.99 749.732 372.85C750.712 373.69 751.202 374.84 751.202 376.3C751.202 377.48 750.882 378.52 750.242 379.42C749.622 380.32 748.722 381.02 747.542 381.52C746.382 382.02 745.002 382.27 743.402 382.27ZM759.279 382.27C758.279 382.27 757.379 382.08 756.579 381.7C755.799 381.3 755.179 380.76 754.719 380.08C754.259 379.4 754.029 378.64 754.029 377.8C754.029 376.74 754.299 375.9 754.839 375.28C755.399 374.66 756.309 374.22 757.569 373.96C758.849 373.68 760.589 373.54 762.789 373.54H763.749V372.61C763.749 371.37 763.489 370.48 762.969 369.94C762.469 369.38 761.659 369.1 760.539 369.1C759.659 369.1 758.809 369.23 757.989 369.49C757.169 369.73 756.329 370.13 755.469 370.69L754.629 368.92C755.389 368.38 756.309 367.95 757.389 367.63C758.489 367.31 759.539 367.15 760.539 367.15C762.419 367.15 763.809 367.61 764.709 368.53C765.629 369.45 766.089 370.88 766.089 372.82V382H763.809V379.48C763.429 380.34 762.839 381.02 762.039 381.52C761.259 382.02 760.339 382.27 759.279 382.27ZM759.669 380.44C760.869 380.44 761.849 380.03 762.609 379.21C763.369 378.37 763.749 377.31 763.749 376.03V375.13H762.819C761.199 375.13 759.919 375.21 758.979 375.37C758.059 375.51 757.409 375.77 757.029 376.15C756.669 376.51 756.489 377.01 756.489 377.65C756.489 378.47 756.769 379.14 757.329 379.66C757.909 380.18 758.689 380.44 759.669 380.44ZM770.597 382V367.42H772.967V369.91C773.447 368.99 774.127 368.3 775.007 367.84C775.887 367.38 776.877 367.15 777.977 367.15C781.437 367.15 783.167 369.07 783.167 372.91V382H780.737V373.06C780.737 371.7 780.467 370.71 779.927 370.09C779.407 369.45 778.567 369.13 777.407 369.13C776.067 369.13 774.997 369.55 774.197 370.39C773.417 371.21 773.027 372.31 773.027 373.69V382H770.597ZM792.568 382.27C791.428 382.27 790.348 382.11 789.328 381.79C788.308 381.47 787.468 381.02 786.808 380.44L787.588 378.73C788.308 379.31 789.098 379.74 789.958 380.02C790.838 380.28 791.728 380.41 792.628 380.41C793.768 380.41 794.628 380.2 795.208 379.78C795.788 379.36 796.078 378.79 796.078 378.07C796.078 377.51 795.888 377.07 795.508 376.75C795.128 376.41 794.528 376.15 793.708 375.97L790.978 375.37C788.498 374.83 787.258 373.55 787.258 371.53C787.258 370.21 787.778 369.15 788.818 368.35C789.878 367.55 791.258 367.15 792.958 367.15C793.958 367.15 794.908 367.31 795.808 367.63C796.728 367.93 797.488 368.38 798.088 368.98L797.278 370.69C796.698 370.15 796.018 369.74 795.238 369.46C794.478 369.16 793.718 369.01 792.958 369.01C791.838 369.01 790.988 369.23 790.408 369.67C789.828 370.11 789.538 370.69 789.538 371.41C789.538 372.53 790.278 373.25 791.758 373.57L794.488 374.14C795.768 374.42 796.738 374.87 797.398 375.49C798.058 376.09 798.388 376.91 798.388 377.95C798.388 379.29 797.858 380.35 796.798 381.13C795.738 381.89 794.328 382.27 792.568 382.27Z" fill="#424141"/>
</g>
<defs>
<clipPath id="clip0_541_5954">
<rect width="1100" height="395" fill="white"/>
</clipPath>
</defs>
</svg>
