<svg width="1200" height="395" viewBox="0 0 1200 395" fill="none" xmlns="http://www.w3.org/2000/svg">
<g clip-path="url(#clip0_480_3536)">
<rect width="1200" height="395" fill="white"/>
<path d="M113.05 10.45L198.45 230.6C201.95 239.467 205.917 245.417 210.35 248.45C214.783 251.25 218.867 252.767 222.6 253V260C217.933 259.533 212.217 259.3 205.45 259.3C198.683 259.067 191.917 258.95 185.15 258.95C176.05 258.95 167.533 259.067 159.6 259.3C151.667 259.3 145.25 259.533 140.35 260V253C152.25 252.533 159.833 250.55 163.1 247.05C166.367 243.317 165.667 235.5 161 223.6L95.9 49.65L101.5 45.1L40.6 203.3C36.8667 212.633 34.65 220.567 33.95 227.1C33.25 233.4 33.8333 238.417 35.7 242.15C37.8 245.883 41.1833 248.567 45.85 250.2C50.75 251.833 56.8167 252.767 64.05 253V260C57.5167 259.533 50.6333 259.3 43.4 259.3C36.4 259.067 29.8667 258.95 23.8 258.95C17.9667 258.95 12.95 259.067 8.75 259.3C4.78333 259.3 1.05 259.533 -2.45 260V253C2.21667 251.833 7 249.15 11.9 244.95C16.8 240.517 21.2333 233.05 25.2 222.55L107.45 10.45C108.383 10.45 109.317 10.45 110.25 10.45C111.183 10.45 112.117 10.45 113.05 10.45ZM155.75 159.2V166.2H51.45L54.95 159.2H155.75ZM280.309 262.45C270.742 262.45 262.459 260.7 255.459 257.2C248.459 253.467 243.092 248.333 239.359 241.8C235.859 235.267 234.109 227.683 234.109 219.05C234.109 208.783 236.442 200.383 241.109 193.85C246.009 187.317 252.192 182.067 259.659 178.1C267.126 174.133 274.942 170.867 283.109 168.3C291.509 165.5 299.442 162.933 306.909 160.6C314.376 158.033 320.442 155.117 325.109 151.85C330.009 148.583 332.459 144.267 332.459 138.9V117.2C332.459 107.4 330.942 99.9333 327.909 94.8C325.109 89.6667 321.259 86.2833 316.359 84.65C311.459 82.7833 305.976 81.85 299.909 81.85C294.076 81.85 287.776 82.6667 281.009 84.3C274.476 85.9333 269.226 89.3167 265.259 94.45C269.692 95.3833 273.542 97.7167 276.809 101.45C280.076 105.183 281.709 109.967 281.709 115.8C281.709 121.633 279.842 126.3 276.109 129.8C272.376 133.067 267.592 134.7 261.759 134.7C254.992 134.7 249.976 132.6 246.709 128.4C243.676 123.967 242.159 119.067 242.159 113.7C242.159 107.633 243.676 102.733 246.709 99C249.742 95.2667 253.592 91.7667 258.259 88.5C263.626 84.7667 270.509 81.6167 278.909 79.05C287.542 76.25 297.226 74.85 307.959 74.85C317.526 74.85 325.692 76.0167 332.459 78.35C339.226 80.45 344.826 83.6 349.259 87.8C355.326 93.4 359.292 100.283 361.159 108.45C363.026 116.383 363.959 125.95 363.959 137.15V234.45C363.959 240.283 364.776 244.483 366.409 247.05C368.276 249.617 371.076 250.9 374.809 250.9C377.376 250.9 379.826 250.317 382.159 249.15C384.492 247.983 387.292 246.117 390.559 243.55L394.409 249.5C389.509 253.233 384.842 256.383 380.409 258.95C375.976 261.283 370.026 262.45 362.559 262.45C355.792 262.45 350.192 261.283 345.759 258.95C341.326 256.617 337.942 253.233 335.609 248.8C333.509 244.133 332.459 238.3 332.459 231.3C326.159 241.8 318.576 249.617 309.709 254.75C301.076 259.883 291.276 262.45 280.309 262.45ZM292.909 248.45C300.609 248.45 307.726 246.233 314.259 241.8C321.026 237.367 327.092 230.717 332.459 221.85V153.25C329.659 157.217 325.576 160.6 320.209 163.4C314.842 165.967 309.009 168.65 302.709 171.45C296.409 174.017 290.342 177.167 284.509 180.9C278.909 184.4 274.242 189.067 270.509 194.9C266.776 200.733 264.909 208.317 264.909 217.65C264.909 226.983 267.359 234.45 272.259 240.05C277.392 245.65 284.276 248.45 292.909 248.45Z" fill="#160C0A"/>
<path d="M741.65 248L850.5 1.24998H875L983.85 248H954.1L926.8 185H798.35L771.4 248H741.65ZM862.4 34.85L808.85 160.85H916.65L863.1 34.85H862.4ZM1070.13 251.15C1058.46 251.15 1047.96 248.933 1038.63 244.5C1029.53 239.833 1022.3 233.533 1016.93 225.6C1011.56 217.667 1008.88 208.8 1008.88 199C1008.88 186.633 1012.03 176.833 1018.33 169.6C1024.86 162.367 1035.48 157.233 1050.18 154.2C1065.11 150.933 1085.41 149.3 1111.08 149.3H1122.28V138.45C1122.28 123.983 1119.25 113.6 1113.18 107.3C1107.35 100.767 1097.9 97.5 1084.83 97.5C1074.56 97.5 1064.65 99.0167 1055.08 102.05C1045.51 104.85 1035.71 109.517 1025.68 116.05L1015.88 95.4C1024.75 89.1 1035.48 84.0833 1048.08 80.35C1060.91 76.6167 1073.16 74.75 1084.83 74.75C1106.76 74.75 1122.98 80.1167 1133.48 90.85C1144.21 101.583 1149.58 118.267 1149.58 140.9V248H1122.98V218.6C1118.55 228.633 1111.66 236.567 1102.33 242.4C1093.23 248.233 1082.5 251.15 1070.13 251.15ZM1074.68 229.8C1088.68 229.8 1100.11 225.017 1108.98 215.45C1117.85 205.65 1122.28 193.283 1122.28 178.35V167.85H1111.43C1092.53 167.85 1077.6 168.783 1066.63 170.65C1055.9 172.283 1048.31 175.317 1043.88 179.75C1039.68 183.95 1037.58 189.783 1037.58 197.25C1037.58 206.817 1040.85 214.633 1047.38 220.7C1054.15 226.767 1063.25 229.8 1074.68 229.8Z" fill="#160C0A"/>
<path d="M93.6555 362.76C94.0755 362.78 94.6255 362.8 95.3055 362.82C95.9855 362.84 96.6555 362.85 97.3155 362.85C98.2555 362.85 99.1555 362.84 100.016 362.82C100.876 362.8 101.486 362.79 101.846 362.79C104.266 362.79 106.076 363.34 107.276 364.44C108.476 365.54 109.076 366.96 109.076 368.7C109.076 369.42 108.956 370.18 108.716 370.98C108.476 371.76 108.056 372.49 107.456 373.17C106.876 373.83 106.076 374.37 105.056 374.79C104.036 375.21 102.746 375.42 101.186 375.42H98.3055V374.82H100.886C102.306 374.82 103.386 374.55 104.126 374.01C104.886 373.47 105.396 372.76 105.656 371.88C105.936 371 106.076 370.05 106.076 369.03C106.076 367.13 105.696 365.71 104.936 364.77C104.196 363.83 102.916 363.36 101.096 363.36C100.176 363.36 99.5755 363.53 99.2955 363.87C99.0155 364.21 98.8755 364.9 98.8755 365.94V380.82C98.8755 381.54 98.9455 382.08 99.0855 382.44C99.2455 382.8 99.5455 383.04 99.9855 383.16C100.426 383.28 101.066 383.36 101.906 383.4V384C101.386 383.96 100.726 383.94 99.9255 383.94C99.1255 383.92 98.3155 383.91 97.4955 383.91C96.7155 383.91 95.9855 383.92 95.3055 383.94C94.6255 383.94 94.0755 383.96 93.6555 384V383.4C94.3355 383.36 94.8455 383.28 95.1855 383.16C95.5455 383.04 95.7855 382.8 95.9055 382.44C96.0255 382.08 96.0855 381.54 96.0855 380.82V365.94C96.0855 365.2 96.0255 364.66 95.9055 364.32C95.7855 363.96 95.5455 363.72 95.1855 363.6C94.8455 363.46 94.3355 363.38 93.6555 363.36V362.76ZM115.321 360.48V381.21C115.321 382.05 115.491 382.62 115.831 382.92C116.191 383.22 116.781 383.37 117.601 383.37V384C117.261 383.98 116.741 383.96 116.041 383.94C115.361 383.9 114.671 383.88 113.971 383.88C113.291 383.88 112.601 383.9 111.901 383.94C111.201 383.96 110.681 383.98 110.341 384V383.37C111.161 383.37 111.741 383.22 112.081 382.92C112.441 382.62 112.621 382.05 112.621 381.21V364.08C112.621 363.18 112.461 362.52 112.141 362.1C111.821 361.66 111.221 361.44 110.341 361.44V360.81C110.981 360.87 111.601 360.9 112.201 360.9C112.781 360.9 113.331 360.87 113.851 360.81C114.391 360.73 114.881 360.62 115.321 360.48ZM123.395 384.21C122.575 384.21 121.865 384.06 121.265 383.76C120.665 383.44 120.205 383 119.885 382.44C119.585 381.88 119.435 381.23 119.435 380.49C119.435 379.61 119.635 378.89 120.035 378.33C120.455 377.77 120.985 377.32 121.625 376.98C122.265 376.64 122.935 376.36 123.635 376.14C124.355 375.9 125.035 375.68 125.675 375.48C126.315 375.26 126.835 375.01 127.235 374.73C127.655 374.45 127.865 374.08 127.865 373.62V371.76C127.865 370.92 127.735 370.28 127.475 369.84C127.235 369.4 126.905 369.11 126.485 368.97C126.065 368.81 125.595 368.73 125.075 368.73C124.575 368.73 124.035 368.8 123.455 368.94C122.895 369.08 122.445 369.37 122.105 369.81C122.485 369.89 122.815 370.09 123.095 370.41C123.375 370.73 123.515 371.14 123.515 371.64C123.515 372.14 123.355 372.54 123.035 372.84C122.715 373.12 122.305 373.26 121.805 373.26C121.225 373.26 120.795 373.08 120.515 372.72C120.255 372.34 120.125 371.92 120.125 371.46C120.125 370.94 120.255 370.52 120.515 370.2C120.775 369.88 121.105 369.58 121.505 369.3C121.965 368.98 122.555 368.71 123.275 368.49C124.015 368.25 124.845 368.13 125.765 368.13C126.585 368.13 127.285 368.23 127.865 368.43C128.445 368.61 128.925 368.88 129.305 369.24C129.825 369.72 130.165 370.31 130.325 371.01C130.485 371.69 130.565 372.51 130.565 373.47V381.81C130.565 382.31 130.635 382.67 130.775 382.89C130.935 383.11 131.175 383.22 131.495 383.22C131.715 383.22 131.925 383.17 132.125 383.07C132.325 382.97 132.565 382.81 132.845 382.59L133.175 383.1C132.755 383.42 132.355 383.69 131.975 383.91C131.595 384.11 131.085 384.21 130.445 384.21C129.865 384.21 129.385 384.11 129.005 383.91C128.625 383.71 128.335 383.42 128.135 383.04C127.955 382.64 127.865 382.14 127.865 381.54C127.325 382.44 126.675 383.11 125.915 383.55C125.175 383.99 124.335 384.21 123.395 384.21ZM124.475 383.01C125.135 383.01 125.745 382.82 126.305 382.44C126.885 382.06 127.405 381.49 127.865 380.73V374.85C127.625 375.19 127.275 375.48 126.815 375.72C126.355 375.94 125.855 376.17 125.315 376.41C124.775 376.63 124.255 376.9 123.755 377.22C123.275 377.52 122.875 377.92 122.555 378.42C122.235 378.92 122.075 379.57 122.075 380.37C122.075 381.17 122.285 381.81 122.705 382.29C123.145 382.77 123.735 383.01 124.475 383.01ZM147.85 368.55V369.15C147.47 369.19 147.12 369.36 146.8 369.66C146.48 369.96 146.18 370.49 145.9 371.25L140.98 384.15H140.47L134.95 370.86C134.57 370.08 134.19 369.61 133.81 369.45C133.45 369.27 133.15 369.18 132.91 369.18V368.55C133.35 368.61 133.81 368.66 134.29 368.7C134.77 368.72 135.29 368.73 135.85 368.73C136.47 368.73 137.12 368.71 137.8 368.67C138.5 368.63 139.15 368.59 139.75 368.55V369.18C139.25 369.18 138.8 369.22 138.4 369.3C138.02 369.36 137.78 369.57 137.68 369.93C137.58 370.27 137.7 370.86 138.04 371.7L141.73 380.85L141.55 380.91L144.97 371.97C145.23 371.31 145.33 370.79 145.27 370.41C145.23 370.01 145.03 369.71 144.67 369.51C144.31 369.31 143.77 369.19 143.05 369.15V368.55C143.41 368.57 143.72 368.59 143.98 368.61C144.24 368.61 144.49 368.62 144.73 368.64C144.99 368.64 145.27 368.64 145.57 368.64C146.03 368.64 146.44 368.63 146.8 368.61C147.18 368.59 147.53 368.57 147.85 368.55ZM140.98 384.15L139.96 386.76C139.76 387.26 139.55 387.68 139.33 388.02C139.13 388.36 138.91 388.64 138.67 388.86C138.35 389.16 137.97 389.36 137.53 389.46C137.09 389.58 136.69 389.64 136.33 389.64C135.95 389.64 135.6 389.57 135.28 389.43C134.98 389.29 134.74 389.08 134.56 388.8C134.38 388.54 134.29 388.22 134.29 387.84C134.29 387.36 134.43 386.97 134.71 386.67C134.99 386.39 135.38 386.25 135.88 386.25C136.3 386.25 136.66 386.37 136.96 386.61C137.26 386.85 137.41 387.2 137.41 387.66C137.41 388 137.33 388.28 137.17 388.5C137.01 388.72 136.82 388.89 136.6 389.01C136.64 389.03 136.67 389.04 136.69 389.04C136.73 389.04 136.76 389.04 136.78 389.04C137.32 389.04 137.8 388.85 138.22 388.47C138.64 388.11 139.01 387.52 139.33 386.7L140.41 383.91L140.98 384.15ZM156.222 360.54C156.782 360.54 157.272 360.62 157.692 360.78C158.132 360.92 158.512 361.11 158.832 361.35C159.132 361.59 159.362 361.87 159.522 362.19C159.682 362.51 159.762 362.85 159.762 363.21C159.762 363.67 159.612 364.05 159.312 364.35C159.012 364.65 158.632 364.8 158.172 364.8C157.732 364.8 157.342 364.66 157.002 364.38C156.682 364.08 156.522 363.68 156.522 363.18C156.522 362.76 156.632 362.42 156.852 362.16C157.092 361.9 157.402 361.73 157.782 361.65C157.722 361.47 157.562 361.32 157.302 361.2C157.062 361.06 156.732 360.99 156.312 360.99C155.852 360.99 155.452 361.09 155.112 361.29C154.792 361.49 154.542 361.76 154.362 362.1C154.122 362.52 153.972 363.15 153.912 363.99C153.852 364.81 153.822 366.08 153.822 367.8V368.58H157.032V369.18H153.822V380.91C153.822 381.89 154.102 382.55 154.662 382.89C155.242 383.21 156.022 383.37 157.002 383.37V384C156.542 383.98 155.892 383.96 155.052 383.94C154.212 383.9 153.322 383.88 152.382 383.88C151.702 383.88 151.022 383.9 150.342 383.94C149.682 383.96 149.182 383.98 148.842 384V383.37C149.662 383.37 150.242 383.22 150.582 382.92C150.942 382.62 151.122 382.05 151.122 381.21V369.18H148.722V368.58H151.122C151.122 367.4 151.172 366.41 151.272 365.61C151.372 364.81 151.532 364.13 151.752 363.57C151.972 362.99 152.272 362.48 152.652 362.04C153.052 361.58 153.562 361.22 154.182 360.96C154.802 360.68 155.482 360.54 156.222 360.54ZM163.033 384.21C162.213 384.21 161.503 384.06 160.903 383.76C160.303 383.44 159.843 383 159.523 382.44C159.223 381.88 159.073 381.23 159.073 380.49C159.073 379.61 159.273 378.89 159.673 378.33C160.093 377.77 160.623 377.32 161.263 376.98C161.903 376.64 162.573 376.36 163.273 376.14C163.993 375.9 164.673 375.68 165.313 375.48C165.953 375.26 166.473 375.01 166.873 374.73C167.293 374.45 167.503 374.08 167.503 373.62V371.76C167.503 370.92 167.373 370.28 167.113 369.84C166.873 369.4 166.543 369.11 166.123 368.97C165.703 368.81 165.233 368.73 164.713 368.73C164.213 368.73 163.673 368.8 163.093 368.94C162.533 369.08 162.083 369.37 161.743 369.81C162.123 369.89 162.453 370.09 162.733 370.41C163.013 370.73 163.153 371.14 163.153 371.64C163.153 372.14 162.993 372.54 162.673 372.84C162.353 373.12 161.943 373.26 161.443 373.26C160.863 373.26 160.433 373.08 160.153 372.72C159.893 372.34 159.763 371.92 159.763 371.46C159.763 370.94 159.893 370.52 160.153 370.2C160.413 369.88 160.743 369.58 161.143 369.3C161.603 368.98 162.193 368.71 162.913 368.49C163.653 368.25 164.483 368.13 165.403 368.13C166.223 368.13 166.923 368.23 167.503 368.43C168.083 368.61 168.563 368.88 168.943 369.24C169.463 369.72 169.803 370.31 169.963 371.01C170.123 371.69 170.203 372.51 170.203 373.47V381.81C170.203 382.31 170.273 382.67 170.413 382.89C170.573 383.11 170.813 383.22 171.133 383.22C171.353 383.22 171.563 383.17 171.763 383.07C171.963 382.97 172.203 382.81 172.483 382.59L172.813 383.1C172.393 383.42 171.993 383.69 171.613 383.91C171.233 384.11 170.723 384.21 170.083 384.21C169.503 384.21 169.023 384.11 168.643 383.91C168.263 383.71 167.973 383.42 167.773 383.04C167.593 382.64 167.503 382.14 167.503 381.54C166.963 382.44 166.313 383.11 165.553 383.55C164.813 383.99 163.973 384.21 163.033 384.21ZM164.113 383.01C164.773 383.01 165.383 382.82 165.943 382.44C166.523 382.06 167.043 381.49 167.503 380.73V374.85C167.263 375.19 166.913 375.48 166.453 375.72C165.993 375.94 165.493 376.17 164.953 376.41C164.413 376.63 163.893 376.9 163.393 377.22C162.913 377.52 162.513 377.92 162.193 378.42C161.873 378.92 161.713 379.57 161.713 380.37C161.713 381.17 161.923 381.81 162.343 382.29C162.783 382.77 163.373 383.01 164.113 383.01ZM177.135 361.05C177.655 361.05 178.105 361.24 178.485 361.62C178.865 362 179.055 362.45 179.055 362.97C179.055 363.49 178.865 363.94 178.485 364.32C178.105 364.7 177.655 364.89 177.135 364.89C176.615 364.89 176.165 364.7 175.785 364.32C175.405 363.94 175.215 363.49 175.215 362.97C175.215 362.45 175.405 362 175.785 361.62C176.165 361.24 176.615 361.05 177.135 361.05ZM178.695 368.22V381.21C178.695 382.05 178.865 382.62 179.205 382.92C179.565 383.22 180.155 383.37 180.975 383.37V384C180.635 383.98 180.115 383.96 179.415 383.94C178.735 383.9 178.045 383.88 177.345 383.88C176.665 383.88 175.975 383.9 175.275 383.94C174.575 383.96 174.055 383.98 173.715 384V383.37C174.535 383.37 175.115 383.22 175.455 382.92C175.815 382.62 175.995 382.05 175.995 381.21V371.82C175.995 370.92 175.835 370.26 175.515 369.84C175.195 369.4 174.595 369.18 173.715 369.18V368.55C174.355 368.61 174.975 368.64 175.575 368.64C176.155 368.64 176.705 368.61 177.225 368.55C177.765 368.47 178.255 368.36 178.695 368.22ZM191.834 368.13C192.374 368.13 192.844 368.24 193.244 368.46C193.664 368.68 193.984 368.97 194.204 369.33C194.444 369.67 194.564 370.06 194.564 370.5C194.564 371 194.404 371.44 194.084 371.82C193.784 372.2 193.374 372.39 192.854 372.39C192.434 372.39 192.064 372.26 191.744 372C191.424 371.72 191.264 371.33 191.264 370.83C191.264 370.45 191.364 370.13 191.564 369.87C191.784 369.59 192.024 369.37 192.284 369.21C192.144 369.01 191.934 368.91 191.654 368.91C191.034 368.91 190.464 369.1 189.944 369.48C189.424 369.84 188.984 370.31 188.624 370.89C188.264 371.47 187.984 372.09 187.784 372.75C187.584 373.39 187.484 373.99 187.484 374.55V380.91C187.484 381.89 187.764 382.55 188.324 382.89C188.904 383.21 189.684 383.37 190.664 383.37V384C190.204 383.98 189.554 383.96 188.714 383.94C187.874 383.9 186.984 383.88 186.044 383.88C185.364 383.88 184.684 383.9 184.004 383.94C183.344 383.96 182.844 383.98 182.504 384V383.37C183.324 383.37 183.904 383.22 184.244 382.92C184.604 382.62 184.784 382.05 184.784 381.21V371.82C184.784 370.92 184.624 370.26 184.304 369.84C183.984 369.4 183.384 369.18 182.504 369.18V368.55C183.144 368.61 183.764 368.64 184.364 368.64C184.944 368.64 185.494 368.61 186.014 368.55C186.554 368.47 187.044 368.36 187.484 368.22V371.97C187.704 371.39 188.014 370.81 188.414 370.23C188.834 369.63 189.334 369.13 189.914 368.73C190.494 368.33 191.134 368.13 191.834 368.13ZM211.269 362.76C214.849 362.76 217.509 363.66 219.249 365.46C220.989 367.24 221.859 369.8 221.859 373.14C221.859 375.32 221.429 377.23 220.569 378.87C219.729 380.49 218.499 381.75 216.879 382.65C215.259 383.55 213.299 384 210.999 384C210.699 384 210.299 383.99 209.799 383.97C209.299 383.95 208.779 383.94 208.239 383.94C207.719 383.92 207.239 383.91 206.799 383.91C206.099 383.91 205.409 383.92 204.729 383.94C204.049 383.94 203.499 383.96 203.079 384V383.4C203.759 383.36 204.269 383.28 204.609 383.16C204.969 383.04 205.209 382.8 205.329 382.44C205.449 382.08 205.509 381.54 205.509 380.82V365.94C205.509 365.2 205.449 364.66 205.329 364.32C205.209 363.96 204.969 363.72 204.609 363.6C204.269 363.46 203.759 363.38 203.079 363.36V362.76C203.499 362.78 204.049 362.81 204.729 362.85C205.409 362.87 206.079 362.87 206.739 362.85C207.439 362.83 208.229 362.81 209.109 362.79C209.989 362.77 210.709 362.76 211.269 362.76ZM210.519 363.3C209.599 363.3 208.999 363.47 208.719 363.81C208.439 364.15 208.299 364.84 208.299 365.88V380.88C208.299 381.92 208.439 382.61 208.719 382.95C209.019 383.29 209.629 383.46 210.549 383.46C212.729 383.46 214.419 383.07 215.619 382.29C216.819 381.49 217.659 380.33 218.139 378.81C218.619 377.29 218.859 375.44 218.859 373.26C218.859 371.02 218.589 369.17 218.049 367.71C217.529 366.23 216.659 365.13 215.439 364.41C214.239 363.67 212.599 363.3 210.519 363.3ZM227.789 361.05C228.309 361.05 228.759 361.24 229.139 361.62C229.519 362 229.709 362.45 229.709 362.97C229.709 363.49 229.519 363.94 229.139 364.32C228.759 364.7 228.309 364.89 227.789 364.89C227.269 364.89 226.819 364.7 226.439 364.32C226.059 363.94 225.869 363.49 225.869 362.97C225.869 362.45 226.059 362 226.439 361.62C226.819 361.24 227.269 361.05 227.789 361.05ZM229.349 368.22V381.21C229.349 382.05 229.519 382.62 229.859 382.92C230.219 383.22 230.809 383.37 231.629 383.37V384C231.289 383.98 230.769 383.96 230.069 383.94C229.389 383.9 228.699 383.88 227.999 383.88C227.319 383.88 226.629 383.9 225.929 383.94C225.229 383.96 224.709 383.98 224.369 384V383.37C225.189 383.37 225.769 383.22 226.109 382.92C226.469 382.62 226.649 382.05 226.649 381.21V371.82C226.649 370.92 226.489 370.26 226.169 369.84C225.849 369.4 225.249 369.18 224.369 369.18V368.55C225.009 368.61 225.629 368.64 226.229 368.64C226.809 368.64 227.359 368.61 227.879 368.55C228.419 368.47 228.909 368.36 229.349 368.22ZM238.528 368.13C239.328 368.13 240.008 368.26 240.568 368.52C241.128 368.78 241.538 369.02 241.798 369.24C242.458 369.78 242.858 369.42 242.998 368.16H243.688C243.648 368.72 243.618 369.39 243.598 370.17C243.578 370.93 243.568 371.96 243.568 373.26H242.878C242.758 372.52 242.548 371.8 242.248 371.1C241.968 370.4 241.548 369.83 240.988 369.39C240.428 368.93 239.698 368.7 238.798 368.7C238.098 368.7 237.508 368.9 237.028 369.3C236.568 369.68 236.338 370.25 236.338 371.01C236.338 371.61 236.518 372.13 236.878 372.57C237.238 372.99 237.708 373.39 238.288 373.77C238.868 374.13 239.498 374.53 240.178 374.97C240.938 375.45 241.628 375.94 242.248 376.44C242.868 376.94 243.358 377.49 243.718 378.09C244.098 378.69 244.288 379.4 244.288 380.22C244.288 381.14 244.048 381.91 243.568 382.53C243.088 383.15 242.458 383.62 241.678 383.94C240.918 384.26 240.078 384.42 239.158 384.42C238.718 384.42 238.298 384.38 237.898 384.3C237.518 384.24 237.148 384.14 236.788 384C236.588 383.9 236.378 383.78 236.158 383.64C235.958 383.5 235.758 383.35 235.558 383.19C235.358 383.03 235.178 383.04 235.018 383.22C234.858 383.38 234.738 383.71 234.658 384.21H233.968C234.008 383.57 234.038 382.79 234.058 381.87C234.078 380.95 234.088 379.73 234.088 378.21H234.778C234.918 379.33 235.118 380.31 235.378 381.15C235.638 381.99 236.048 382.65 236.608 383.13C237.168 383.59 237.948 383.82 238.948 383.82C239.348 383.82 239.748 383.73 240.148 383.55C240.568 383.37 240.918 383.07 241.198 382.65C241.478 382.23 241.618 381.67 241.618 380.97C241.618 380.09 241.298 379.37 240.658 378.81C240.018 378.25 239.208 377.66 238.228 377.04C237.508 376.58 236.828 376.12 236.188 375.66C235.568 375.2 235.058 374.68 234.658 374.1C234.278 373.52 234.088 372.82 234.088 372C234.088 371.1 234.288 370.37 234.688 369.81C235.108 369.23 235.658 368.81 236.338 368.55C237.018 368.27 237.748 368.13 238.528 368.13ZM251.346 368.22V386.64C251.346 387.5 251.596 388.07 252.096 388.35C252.616 388.65 253.326 388.8 254.226 388.8V389.43C253.786 389.41 253.176 389.38 252.396 389.34C251.616 389.32 250.786 389.31 249.906 389.31C249.286 389.31 248.666 389.32 248.046 389.34C247.446 389.38 246.986 389.41 246.666 389.43V388.8C247.386 388.8 247.896 388.67 248.196 388.41C248.496 388.15 248.646 387.66 248.646 386.94V371.82C248.646 370.92 248.486 370.26 248.166 369.84C247.846 369.4 247.246 369.18 246.366 369.18V368.55C247.006 368.61 247.626 368.64 248.226 368.64C248.806 368.64 249.356 368.61 249.876 368.55C250.416 368.47 250.906 368.36 251.346 368.22ZM256.146 368.13C257.206 368.13 258.156 368.42 258.996 369C259.836 369.56 260.496 370.39 260.976 371.49C261.476 372.59 261.726 373.95 261.726 375.57C261.726 376.65 261.596 377.72 261.336 378.78C261.076 379.82 260.666 380.77 260.106 381.63C259.566 382.47 258.856 383.15 257.976 383.67C257.116 384.17 256.076 384.42 254.856 384.42C253.916 384.42 253.096 384.2 252.396 383.76C251.716 383.32 251.256 382.79 251.016 382.17L251.316 381.75C251.596 382.31 251.996 382.78 252.516 383.16C253.056 383.54 253.726 383.73 254.526 383.73C255.646 383.73 256.516 383.38 257.136 382.68C257.756 381.98 258.186 381.05 258.426 379.89C258.686 378.71 258.816 377.41 258.816 375.99C258.816 374.39 258.686 373.08 258.426 372.06C258.166 371.04 257.776 370.28 257.256 369.78C256.736 369.28 256.096 369.03 255.336 369.03C254.356 369.03 253.466 369.44 252.666 370.26C251.866 371.06 251.356 372.28 251.136 373.92L250.776 373.5C250.996 371.8 251.596 370.48 252.576 369.54C253.576 368.6 254.766 368.13 256.146 368.13ZM268.778 360.48V381.21C268.778 382.05 268.948 382.62 269.288 382.92C269.648 383.22 270.238 383.37 271.058 383.37V384C270.718 383.98 270.198 383.96 269.498 383.94C268.818 383.9 268.128 383.88 267.428 383.88C266.748 383.88 266.058 383.9 265.358 383.94C264.658 383.96 264.138 383.98 263.798 384V383.37C264.618 383.37 265.198 383.22 265.538 382.92C265.898 382.62 266.078 382.05 266.078 381.21V364.08C266.078 363.18 265.918 362.52 265.598 362.1C265.278 361.66 264.678 361.44 263.798 361.44V360.81C264.438 360.87 265.058 360.9 265.658 360.9C266.238 360.9 266.788 360.87 267.308 360.81C267.848 360.73 268.338 360.62 268.778 360.48ZM276.852 384.21C276.032 384.21 275.322 384.06 274.722 383.76C274.122 383.44 273.662 383 273.342 382.44C273.042 381.88 272.892 381.23 272.892 380.49C272.892 379.61 273.092 378.89 273.492 378.33C273.912 377.77 274.442 377.32 275.082 376.98C275.722 376.64 276.392 376.36 277.092 376.14C277.812 375.9 278.492 375.68 279.132 375.48C279.772 375.26 280.292 375.01 280.692 374.73C281.112 374.45 281.322 374.08 281.322 373.62V371.76C281.322 370.92 281.192 370.28 280.932 369.84C280.692 369.4 280.362 369.11 279.942 368.97C279.522 368.81 279.052 368.73 278.532 368.73C278.032 368.73 277.492 368.8 276.912 368.94C276.352 369.08 275.902 369.37 275.562 369.81C275.942 369.89 276.272 370.09 276.552 370.41C276.832 370.73 276.972 371.14 276.972 371.64C276.972 372.14 276.812 372.54 276.492 372.84C276.172 373.12 275.762 373.26 275.262 373.26C274.682 373.26 274.252 373.08 273.972 372.72C273.712 372.34 273.582 371.92 273.582 371.46C273.582 370.94 273.712 370.52 273.972 370.2C274.232 369.88 274.562 369.58 274.962 369.3C275.422 368.98 276.012 368.71 276.732 368.49C277.472 368.25 278.302 368.13 279.222 368.13C280.042 368.13 280.742 368.23 281.322 368.43C281.902 368.61 282.382 368.88 282.762 369.24C283.282 369.72 283.622 370.31 283.782 371.01C283.942 371.69 284.022 372.51 284.022 373.47V381.81C284.022 382.31 284.092 382.67 284.232 382.89C284.392 383.11 284.632 383.22 284.952 383.22C285.172 383.22 285.382 383.17 285.582 383.07C285.782 382.97 286.022 382.81 286.302 382.59L286.632 383.1C286.212 383.42 285.812 383.69 285.432 383.91C285.052 384.11 284.542 384.21 283.902 384.21C283.322 384.21 282.842 384.11 282.462 383.91C282.082 383.71 281.792 383.42 281.592 383.04C281.412 382.64 281.322 382.14 281.322 381.54C280.782 382.44 280.132 383.11 279.372 383.55C278.632 383.99 277.792 384.21 276.852 384.21ZM277.932 383.01C278.592 383.01 279.202 382.82 279.762 382.44C280.342 382.06 280.862 381.49 281.322 380.73V374.85C281.082 375.19 280.732 375.48 280.272 375.72C279.812 375.94 279.312 376.17 278.772 376.41C278.232 376.63 277.712 376.9 277.212 377.22C276.732 377.52 276.332 377.92 276.012 378.42C275.692 378.92 275.532 379.57 275.532 380.37C275.532 381.17 275.742 381.81 276.162 382.29C276.602 382.77 277.192 383.01 277.932 383.01ZM301.307 368.55V369.15C300.927 369.19 300.577 369.36 300.257 369.66C299.937 369.96 299.637 370.49 299.357 371.25L294.437 384.15H293.927L288.407 370.86C288.027 370.08 287.647 369.61 287.267 369.45C286.907 369.27 286.607 369.18 286.367 369.18V368.55C286.807 368.61 287.267 368.66 287.747 368.7C288.227 368.72 288.747 368.73 289.307 368.73C289.927 368.73 290.577 368.71 291.257 368.67C291.957 368.63 292.607 368.59 293.207 368.55V369.18C292.707 369.18 292.257 369.22 291.857 369.3C291.477 369.36 291.237 369.57 291.137 369.93C291.037 370.27 291.157 370.86 291.497 371.7L295.187 380.85L295.007 380.91L298.427 371.97C298.687 371.31 298.787 370.79 298.727 370.41C298.687 370.01 298.487 369.71 298.127 369.51C297.767 369.31 297.227 369.19 296.507 369.15V368.55C296.867 368.57 297.177 368.59 297.437 368.61C297.697 368.61 297.947 368.62 298.187 368.64C298.447 368.64 298.727 368.64 299.027 368.64C299.487 368.64 299.897 368.63 300.257 368.61C300.637 368.59 300.987 368.57 301.307 368.55ZM294.437 384.15L293.417 386.76C293.217 387.26 293.007 387.68 292.787 388.02C292.587 388.36 292.367 388.64 292.127 388.86C291.807 389.16 291.427 389.36 290.987 389.46C290.547 389.58 290.147 389.64 289.787 389.64C289.407 389.64 289.057 389.57 288.737 389.43C288.437 389.29 288.197 389.08 288.017 388.8C287.837 388.54 287.747 388.22 287.747 387.84C287.747 387.36 287.887 386.97 288.167 386.67C288.447 386.39 288.837 386.25 289.337 386.25C289.757 386.25 290.117 386.37 290.417 386.61C290.717 386.85 290.867 387.2 290.867 387.66C290.867 388 290.787 388.28 290.627 388.5C290.467 388.72 290.277 388.89 290.057 389.01C290.097 389.03 290.127 389.04 290.147 389.04C290.187 389.04 290.217 389.04 290.237 389.04C290.777 389.04 291.257 388.85 291.677 388.47C292.097 388.11 292.467 387.52 292.787 386.7L293.867 383.91L294.437 384.15Z" fill="#424141"/>
<path d="M875.798 382V360.85H877.718L890.468 377.86V360.85H892.748V382H890.888L878.108 364.93V382H875.798ZM902.836 382.27C899.336 382.27 897.586 380.34 897.586 376.48V367.42H900.016V376.45C900.016 377.75 900.276 378.71 900.796 379.33C901.336 379.95 902.176 380.26 903.316 380.26C904.556 380.26 905.566 379.85 906.346 379.03C907.126 378.19 907.516 377.08 907.516 375.7V367.42H909.946V382H907.576V379.54C907.116 380.42 906.466 381.1 905.626 381.58C904.806 382.04 903.876 382.27 902.836 382.27ZM914.492 382V367.42H916.862V369.91C917.342 368.99 918.022 368.3 918.902 367.84C919.782 367.38 920.772 367.15 921.872 367.15C925.332 367.15 927.062 369.07 927.062 372.91V382H924.632V373.06C924.632 371.7 924.362 370.71 923.822 370.09C923.302 369.45 922.462 369.13 921.302 369.13C919.962 369.13 918.892 369.55 918.092 370.39C917.312 371.21 916.922 372.31 916.922 373.69V382H914.492ZM931.243 363.79V361.06H934.243V363.79H931.243ZM931.543 382V367.42H933.973V382H931.543ZM944.365 382.27C942.645 382.27 941.355 381.82 940.495 380.92C939.635 380 939.205 378.68 939.205 376.96V369.31H936.355V367.42H939.205V362.95H941.635V367.42H946.255V369.31H941.635V376.72C941.635 377.86 941.875 378.73 942.355 379.33C942.835 379.91 943.615 380.2 944.695 380.2C945.015 380.2 945.335 380.16 945.655 380.08C945.975 380 946.265 379.92 946.525 379.84L946.945 381.7C946.685 381.84 946.305 381.97 945.805 382.09C945.305 382.21 944.825 382.27 944.365 382.27ZM954.917 382.27C953.497 382.27 952.267 381.96 951.227 381.34C950.187 380.72 949.377 379.85 948.797 378.73C948.237 377.59 947.957 376.25 947.957 374.71C947.957 373.17 948.237 371.84 948.797 370.72C949.377 369.58 950.187 368.7 951.227 368.08C952.267 367.46 953.497 367.15 954.917 367.15C956.317 367.15 957.537 367.46 958.577 368.08C959.637 368.7 960.447 369.58 961.007 370.72C961.587 371.84 961.877 373.17 961.877 374.71C961.877 376.25 961.587 377.59 961.007 378.73C960.447 379.85 959.637 380.72 958.577 381.34C957.537 381.96 956.317 382.27 954.917 382.27ZM954.917 380.32C956.277 380.32 957.367 379.84 958.187 378.88C959.007 377.9 959.417 376.51 959.417 374.71C959.417 372.89 959.007 371.5 958.187 370.54C957.367 369.58 956.277 369.1 954.917 369.1C953.537 369.1 952.437 369.58 951.617 370.54C950.817 371.5 950.417 372.89 950.417 374.71C950.417 376.51 950.817 377.9 951.617 378.88C952.437 379.84 953.537 380.32 954.917 380.32ZM980.402 382.27C978.742 382.27 977.242 382.06 975.902 381.64C974.562 381.2 973.402 380.57 972.422 379.75L973.292 377.77C974.312 378.55 975.382 379.13 976.502 379.51C977.622 379.89 978.922 380.08 980.402 380.08C982.202 380.08 983.532 379.75 984.392 379.09C985.272 378.41 985.712 377.52 985.712 376.42C985.712 375.54 985.392 374.84 984.752 374.32C984.132 373.8 983.082 373.39 981.602 373.09L978.482 372.46C976.602 372.06 975.192 371.41 974.252 370.51C973.332 369.59 972.872 368.37 972.872 366.85C972.872 365.59 973.192 364.49 973.832 363.55C974.492 362.61 975.402 361.88 976.562 361.36C977.722 360.84 979.062 360.58 980.582 360.58C982.002 360.58 983.322 360.81 984.542 361.27C985.762 361.71 986.792 362.35 987.632 363.19L986.762 365.11C985.862 364.29 984.912 363.7 983.912 363.34C982.912 362.96 981.792 362.77 980.552 362.77C978.972 362.77 977.712 363.14 976.772 363.88C975.832 364.6 975.362 365.56 975.362 366.76C975.362 367.72 975.652 368.48 976.232 369.04C976.832 369.6 977.802 370.01 979.142 370.27L982.262 370.93C984.282 371.35 985.772 371.99 986.732 372.85C987.712 373.69 988.202 374.84 988.202 376.3C988.202 377.48 987.882 378.52 987.242 379.42C986.622 380.32 985.722 381.02 984.542 381.52C983.382 382.02 982.002 382.27 980.402 382.27ZM996.279 382.27C995.279 382.27 994.379 382.08 993.579 381.7C992.799 381.3 992.179 380.76 991.719 380.08C991.259 379.4 991.029 378.64 991.029 377.8C991.029 376.74 991.299 375.9 991.839 375.28C992.399 374.66 993.309 374.22 994.569 373.96C995.849 373.68 997.589 373.54 999.789 373.54H1000.75V372.61C1000.75 371.37 1000.49 370.48 999.969 369.94C999.469 369.38 998.659 369.1 997.539 369.1C996.659 369.1 995.809 369.23 994.989 369.49C994.169 369.73 993.329 370.13 992.469 370.69L991.629 368.92C992.389 368.38 993.309 367.95 994.389 367.63C995.489 367.31 996.539 367.15 997.539 367.15C999.419 367.15 1000.81 367.61 1001.71 368.53C1002.63 369.45 1003.09 370.88 1003.09 372.82V382H1000.81V379.48C1000.43 380.34 999.839 381.02 999.039 381.52C998.259 382.02 997.339 382.27 996.279 382.27ZM996.669 380.44C997.869 380.44 998.849 380.03 999.609 379.21C1000.37 378.37 1000.75 377.31 1000.75 376.03V375.13H999.819C998.199 375.13 996.919 375.21 995.979 375.37C995.059 375.51 994.409 375.77 994.029 376.15C993.669 376.51 993.489 377.01 993.489 377.65C993.489 378.47 993.769 379.14 994.329 379.66C994.909 380.18 995.689 380.44 996.669 380.44ZM1007.6 382V367.42H1009.97V369.91C1010.45 368.99 1011.13 368.3 1012.01 367.84C1012.89 367.38 1013.88 367.15 1014.98 367.15C1018.44 367.15 1020.17 369.07 1020.17 372.91V382H1017.74V373.06C1017.74 371.7 1017.47 370.71 1016.93 370.09C1016.41 369.45 1015.57 369.13 1014.41 369.13C1013.07 369.13 1012 369.55 1011.2 370.39C1010.42 371.21 1010.03 372.31 1010.03 373.69V382H1007.6ZM1029.57 382.27C1028.43 382.27 1027.35 382.11 1026.33 381.79C1025.31 381.47 1024.47 381.02 1023.81 380.44L1024.59 378.73C1025.31 379.31 1026.1 379.74 1026.96 380.02C1027.84 380.28 1028.73 380.41 1029.63 380.41C1030.77 380.41 1031.63 380.2 1032.21 379.78C1032.79 379.36 1033.08 378.79 1033.08 378.07C1033.08 377.51 1032.89 377.07 1032.51 376.75C1032.13 376.41 1031.53 376.15 1030.71 375.97L1027.98 375.37C1025.5 374.83 1024.26 373.55 1024.26 371.53C1024.26 370.21 1024.78 369.15 1025.82 368.35C1026.88 367.55 1028.26 367.15 1029.96 367.15C1030.96 367.15 1031.91 367.31 1032.81 367.63C1033.73 367.93 1034.49 368.38 1035.09 368.98L1034.28 370.69C1033.7 370.15 1033.02 369.74 1032.24 369.46C1031.48 369.16 1030.72 369.01 1029.96 369.01C1028.84 369.01 1027.99 369.23 1027.41 369.67C1026.83 370.11 1026.54 370.69 1026.54 371.41C1026.54 372.53 1027.28 373.25 1028.76 373.57L1031.49 374.14C1032.77 374.42 1033.74 374.87 1034.4 375.49C1035.06 376.09 1035.39 376.91 1035.39 377.95C1035.39 379.29 1034.86 380.35 1033.8 381.13C1032.74 381.89 1031.33 382.27 1029.57 382.27Z" fill="#424141"/>
</g>
<defs>
<clipPath id="clip0_480_3536">
<rect width="1200" height="395" fill="white"/>
</clipPath>
</defs>
</svg>
