<svg width="1200" height="830" viewBox="0 0 1200 830" fill="none" xmlns="http://www.w3.org/2000/svg">
<rect width="1200" height="830" fill="white"/>
<path fill-rule="evenodd" clip-rule="evenodd" d="M111.204 155.1C111.204 170.5 119.223 191.975 132.297 191.975C134.127 191.953 135.93 191.526 137.577 190.725C140.256 189.262 142.565 187.201 144.325 184.7C146.386 181.86 148.061 178.758 149.306 175.475C151.046 171.076 152.217 166.472 152.793 161.775C153.086 159.353 153.211 156.914 153.166 154.475V151.775C153.034 149.519 153.034 147.256 153.166 145V144.925C156.385 147.478 160.37 148.862 164.473 148.85C172.646 148.825 179.82 143.385 182.08 135.5C182.15 135.177 182.057 134.84 181.83 134.6C177.9 130.834 172.513 129.004 167.112 129.6C166.39 129.7 165.693 129.825 164.996 129.975C164.313 130.149 163.64 130.358 162.978 130.6C162.32 130.828 161.679 131.104 161.061 131.425C160.442 131.727 159.843 132.07 159.268 132.45C158.699 132.83 158.151 133.239 157.624 133.675C157.095 134.116 156.588 134.583 156.105 135.075C155.63 135.577 155.181 136.102 154.76 136.65C154.336 137.192 153.945 137.76 153.59 138.35C153.241 138.95 152.793 139.775 152.618 140.175C152.444 140.575 152.27 141 152.12 141.4C151.8 141.069 151.501 140.718 151.224 140.35L150.726 139.65C148.838 136.464 146.104 133.867 142.831 132.15C140.58 131.197 138.193 130.606 135.759 130.4C133.514 130.188 131.254 130.188 129.01 130.4C124.971 130.552 121.09 132.018 117.952 134.575C116.671 135.837 115.512 137.218 114.491 138.7C113.594 140.002 112.586 141.224 111.477 142.35C107.361 146.279 101.52 147.804 96.0185 146.387C90.5168 144.969 86.1295 140.809 84.4071 135.375C87.4021 132.649 91.2973 131.135 95.3399 131.125C99.4256 131.128 103.365 132.651 106.397 135.4C106.561 135.568 106.785 135.663 107.02 135.663C107.254 135.663 107.478 135.568 107.642 135.4C107.811 135.231 107.906 135.002 107.906 134.763C107.906 134.523 107.811 134.294 107.642 134.125C100.529 127.703 89.6967 127.833 82.7386 134.425C82.5163 134.667 82.4237 135.002 82.4896 135.325C84.2137 141.611 89.1224 146.511 95.3932 148.207C101.664 149.903 108.361 148.141 112.997 143.575C114.182 142.375 115.257 141.069 116.209 139.675C117.167 138.301 118.242 137.012 119.422 135.825C122.262 133.553 125.754 132.256 129.383 132.125C131.512 131.925 133.655 131.925 135.784 132.125C138.029 132.328 140.229 132.876 142.308 133.75C145.283 135.302 147.767 137.657 149.481 140.55L149.979 141.25C150.524 141.947 151.114 142.607 151.747 143.225C151.729 143.325 151.709 143.428 151.688 143.534C151.62 143.875 151.548 144.243 151.548 144.625C151.403 146.973 151.403 149.327 151.548 151.675V154.35C151.592 156.698 151.467 159.046 151.174 161.375C150.626 165.927 149.496 170.388 147.812 174.65C146.644 177.787 145.052 180.748 143.08 183.45C141.497 185.725 139.408 187.6 136.979 188.925C135.534 189.685 133.928 190.088 132.297 190.1C121.414 190.1 112.997 171.325 112.997 155.1C112.997 154.603 112.595 154.2 112.1 154.2C111.605 154.2 111.204 154.603 111.204 155.1ZM168.843 146.258C163.471 147.74 157.716 146.402 153.54 142.7L153.615 142.475C153.794 141.919 154.01 141.376 154.262 140.85C154.518 140.274 154.809 139.715 155.134 139.175C155.454 138.647 155.803 138.138 156.18 137.65C156.559 137.152 156.967 136.677 157.4 136.225C157.824 135.783 158.273 135.365 158.745 134.975C159.243 134.575 159.741 134.2 160.239 133.875C160.769 133.529 161.318 133.212 161.883 132.925C162.442 132.645 163.016 132.395 163.601 132.175C164.194 131.959 164.802 131.784 165.419 131.65C166.04 131.483 166.672 131.366 167.312 131.3C171.983 130.735 176.672 132.21 180.187 135.35C178.481 140.675 174.215 144.776 168.843 146.258Z" fill="#38363D"/>
<path d="M119.844 135H119.67C113.958 133.785 108.966 130.327 105.809 125.396C102.651 120.466 101.589 114.472 102.86 108.75C102.908 108.514 103.048 108.307 103.249 108.175C103.451 108.044 103.696 107.999 103.931 108.05C104.165 108.098 104.37 108.239 104.497 108.443C104.624 108.646 104.663 108.893 104.603 109.125C102.278 120.017 109.174 130.742 120.019 133.1C120.499 133.212 120.8 133.692 120.691 134.175C120.665 134.629 120.297 134.988 119.844 135Z" fill="#38363D"/>
<path d="M144.748 135C144.253 135.055 143.807 134.697 143.752 134.2C143.697 133.703 144.053 133.255 144.549 133.2C155.391 130.843 162.28 120.111 159.939 109.225C159.888 108.99 159.932 108.743 160.063 108.541C160.195 108.339 160.401 108.198 160.636 108.15C161.12 108.07 161.585 108.373 161.707 108.85C164.25 120.713 156.756 132.407 144.947 135H144.748Z" fill="#38363D"/>
<path fill-rule="evenodd" clip-rule="evenodd" d="M822.152 145.725C822.152 149.991 825.611 153.45 829.877 153.45C834.144 153.45 837.602 149.991 837.602 145.725C837.602 141.459 834.144 138 829.877 138C825.611 138 822.152 141.459 822.152 145.725ZM824.36 143.461C825.287 141.236 827.466 139.79 829.877 139.8C833.144 139.814 835.789 142.458 835.802 145.725C835.812 148.136 834.366 150.315 832.141 151.242C829.915 152.17 827.35 151.662 825.645 149.957C823.94 148.252 823.433 145.687 824.36 143.461Z" fill="#38363D"/>
<path fill-rule="evenodd" clip-rule="evenodd" d="M849.152 160.116C849.161 163.621 851.997 166.461 855.502 166.475C857.214 166.482 858.857 165.8 860.061 164.582C861.265 163.364 861.928 161.712 861.902 160C861.847 156.496 858.974 153.693 855.469 153.725C851.965 153.757 849.143 156.612 849.152 160.116ZM851.284 158.39C851.978 156.668 853.644 155.536 855.502 155.525C857.999 155.511 860.047 157.503 860.102 160C860.142 161.857 859.056 163.554 857.353 164.295C855.651 165.036 853.669 164.674 852.338 163.379C851.006 162.084 850.59 160.113 851.284 158.39Z" fill="#38363D"/>
<path fill-rule="evenodd" clip-rule="evenodd" d="M816.753 180.977C817.623 183.079 819.674 184.45 821.949 184.45C825.056 184.45 827.574 181.931 827.574 178.825C827.574 176.55 826.204 174.499 824.102 173.628C822 172.757 819.581 173.239 817.972 174.847C816.363 176.456 815.882 178.876 816.753 180.977ZM818.124 178.825C818.124 176.712 819.837 175 821.949 175C824.056 175.014 825.761 176.718 825.774 178.825C825.774 180.937 824.062 182.65 821.949 182.65C819.837 182.65 818.124 180.937 818.124 178.825Z" fill="#38363D"/>
<path fill-rule="evenodd" clip-rule="evenodd" d="M793.76 146.066C794.436 147.685 796.022 148.735 797.776 148.725C800.145 148.711 802.062 146.794 802.076 144.425C802.086 142.671 801.036 141.085 799.418 140.409C797.799 139.733 795.933 140.101 794.693 141.342C793.453 142.582 793.084 144.448 793.76 146.066ZM795.276 144.4C795.276 143.019 796.395 141.9 797.776 141.9C799.157 141.9 800.276 143.019 800.276 144.4C800.276 145.78 799.157 146.9 797.776 146.9C796.395 146.9 795.276 145.78 795.276 144.4Z" fill="#38363D"/>
<path fill-rule="evenodd" clip-rule="evenodd" d="M862.852 135.9C862.852 139.007 865.37 141.525 868.477 141.525C871.583 141.525 874.102 139.007 874.102 135.9C874.102 132.793 871.583 130.275 868.477 130.275C865.37 130.275 862.852 132.793 862.852 135.9ZM864.652 135.9C864.652 133.787 866.364 132.075 868.477 132.075C870.583 132.089 872.288 133.793 872.302 135.9C872.302 138.012 870.589 139.725 868.477 139.725C866.364 139.725 864.652 138.012 864.652 135.9Z" fill="#38363D"/>
<path d="M783.9 195.6C783.68 195.601 783.466 195.521 783.3 195.375C783.103 195.207 782.992 194.959 783 194.7V173.025C783 173.025 783 172.85 783 172.8C783.089 172.318 783.539 171.989 784.025 172.05C784.342 172.075 784.659 172.075 784.975 172.05C788.105 171.847 790.54 169.249 790.54 166.112C790.54 162.976 788.105 160.378 784.975 160.175C784.659 160.149 784.342 160.149 784.025 160.175C783.544 160.251 783.089 159.929 783 159.45V137.175C783 136.678 783.403 136.275 783.9 136.275C784.397 136.275 784.8 136.678 784.8 137.175V158.45C786.882 158.416 788.891 159.217 790.379 160.672C791.868 162.128 792.712 164.118 792.725 166.2C792.712 170.461 789.261 173.911 785 173.925H784.8V193.675L881.2 181.375V123.45L786.2 132.05C785.251 132.217 784.327 131.648 784.05 130.725C783.886 129.89 784.384 129.067 785.2 128.825L859.875 104.425H860.15C868.75 104.082 877.055 107.592 882.8 114C883.072 114.388 882.996 114.92 882.627 115.217C882.257 115.514 881.721 115.474 881.4 115.125C876 109.222 868.297 105.964 860.3 106.2L786.95 130.2L881.95 121.575C882.206 121.536 882.465 121.619 882.65 121.8C882.865 121.97 882.993 122.226 883 122.5V182.175C882.992 182.631 882.653 183.013 882.2 183.075L784.025 195.575L783.9 195.6Z" fill="#38363D"/>
<path fill-rule="evenodd" clip-rule="evenodd" d="M329.649 136.425C329.937 163.676 352.096 185.624 379.349 185.65C387.591 185.643 395.492 182.363 401.315 176.531C407.138 170.698 410.406 162.792 410.399 154.55C410.404 151.745 409.799 148.972 408.624 146.425C408.486 146.107 408.172 145.901 407.824 145.9H404.974C405.35 143.93 405.401 141.911 405.124 139.925C405.063 139.487 404.692 139.158 404.249 139.15H363.499C363.002 139.15 362.599 139.553 362.599 140.05C362.599 140.547 363.002 140.95 363.499 140.95H403.424C403.579 142.621 403.486 144.306 403.149 145.95H370.374C367.954 145.635 365.504 146.232 363.499 147.625C361.848 148.912 360.713 150.748 360.299 152.8C359.842 155.11 360.357 157.507 361.724 159.425C364.199 162.355 367.656 164.284 371.449 164.85C374.599 165.547 377.838 165.75 381.049 165.45C391.899 164.35 401.549 157.175 404.524 147.95V147.75H407.124C408.039 149.918 408.506 152.247 408.499 154.6C408.486 170.714 395.463 183.792 379.349 183.875C352.877 183.875 331.413 162.422 331.399 135.95C331.401 135.655 331.249 135.381 330.999 135.225L324.199 130.5L330.899 126.625C331.184 126.461 331.357 126.154 331.349 125.825V124.45C331.121 118.741 334.036 113.365 338.945 110.443C343.854 107.52 349.97 107.52 354.879 110.443C359.788 113.365 362.703 118.741 362.474 124.45C362.474 124.947 362.877 125.35 363.374 125.35C363.871 125.35 364.274 124.947 364.274 124.45C363.92 115.117 356.251 107.734 346.912 107.734C337.572 107.734 329.904 115.117 329.549 124.45V125.35L322.049 129.65C321.772 129.798 321.599 130.086 321.599 130.4C321.58 130.706 321.722 131 321.974 131.175L329.649 136.425ZM364.499 149.05C366.125 147.988 368.068 147.519 369.999 147.725L370.099 147.75H402.599C399.399 157.1 389.274 162.775 380.799 163.6C377.78 163.884 374.734 163.69 371.774 163.025C368.411 162.554 365.331 160.885 363.099 158.325C362.022 156.812 361.623 154.919 361.999 153.1C362.33 151.498 363.215 150.064 364.499 149.05Z" fill="#38363D"/>
<path fill-rule="evenodd" clip-rule="evenodd" d="M333.076 115.45C333.248 115.605 333.469 115.694 333.701 115.7H333.776C334.034 115.667 334.268 115.532 334.426 115.325C335.974 113.171 338.048 111.45 340.451 110.325C340.898 110.116 341.357 109.932 341.826 109.775C345.191 108.588 348.861 108.588 352.226 109.775C352.676 109.925 353.126 110.125 353.576 110.325L353.576 110.325C355.974 111.457 358.046 113.177 359.601 115.325C359.755 115.536 359.991 115.673 360.251 115.7C360.507 115.705 360.756 115.616 360.951 115.45C362.648 113.799 363.177 111.284 362.288 109.089C361.399 106.893 359.269 105.455 356.901 105.45C356.146 105.441 355.398 105.585 354.701 105.875C353.729 102.427 350.583 100.045 347.001 100.045C343.418 100.045 340.273 102.427 339.301 105.875C338.605 105.581 337.856 105.436 337.101 105.45C334.737 105.465 332.617 106.907 331.734 109.1C330.851 111.293 331.381 113.802 333.076 115.45ZM352.801 108.1C350.938 107.442 348.977 107.104 347.001 107.1C345.033 107.106 343.081 107.445 341.226 108.1C340.706 108.278 340.196 108.487 339.701 108.725C337.378 109.807 335.321 111.386 333.676 113.35C333.27 112.715 333.054 111.978 333.051 111.225C333.051 110.144 333.48 109.108 334.244 108.344C335.009 107.579 336.045 107.15 337.126 107.15C337.96 107.153 338.772 107.415 339.451 107.9C339.732 108.051 340.07 108.051 340.351 107.9C340.629 107.766 340.825 107.505 340.876 107.2C341.223 104.059 343.878 101.681 347.038 101.681C350.199 101.681 352.854 104.059 353.201 107.2C353.252 107.505 353.447 107.766 353.726 107.9C353.998 108.051 354.329 108.051 354.601 107.9C355.283 107.423 356.093 107.161 356.926 107.15C359.176 107.15 361.001 108.975 361.001 111.225C360.993 111.981 360.768 112.719 360.351 113.35C358.707 111.395 356.66 109.817 354.351 108.725C353.851 108.5 353.326 108.275 352.801 108.1Z" fill="#38363D"/>
<path d="M376.002 200H363.502C363.005 200 362.602 199.597 362.602 199.1C362.602 198.603 363.005 198.2 363.502 198.2H375.077V184.775C375.077 184.278 375.48 183.875 375.977 183.875C376.474 183.875 376.877 184.278 376.877 184.775V199.1C376.877 199.587 376.489 199.986 376.002 200Z" fill="#38363D"/>
<path d="M608.181 177.325H587.105C586.609 177.311 586.215 176.901 586.215 176.4C586.215 175.903 586.613 175.5 587.105 175.5H608.156C623.196 175.5 635.367 164.05 635.367 150C635.367 135.95 623.221 124.5 608.181 124.5H572.263C561.008 124.5 551.806 135.95 551.806 150C551.806 164.05 561.008 175.5 572.263 175.5C581.144 175.5 589.01 168.45 591.781 158C593.166 152.775 593.166 147.274 591.781 142.05C590.717 137.943 588.708 134.148 585.918 130.975C585.701 130.738 585.626 130.403 585.721 130.095C585.815 129.787 586.065 129.553 586.376 129.482C586.687 129.411 587.012 129.513 587.229 129.75C590.238 133.121 592.394 137.178 593.512 141.575C594.964 147.113 594.964 152.937 593.512 158.475C590.618 169.725 582.158 177.325 572.263 177.325C559.895 177.325 550 165.05 550 150C550 134.95 560.018 122.675 572.263 122.675H608.181C624.211 122.675 637.247 135 637.247 150C637.247 165 624.211 177.325 608.181 177.325Z" fill="#38363D"/>
<path fill-rule="evenodd" clip-rule="evenodd" d="M571.719 159.775C571.719 162.398 573.823 164.525 576.419 164.525C579.014 164.525 581.119 162.398 581.119 159.775C581.119 157.152 579.014 155.025 576.419 155.025C573.823 155.025 571.719 157.152 571.719 159.775ZM573.743 158.686C574.189 157.59 575.246 156.875 576.419 156.875C577.184 156.868 577.92 157.171 578.464 157.715C579.007 158.26 579.313 159.001 579.313 159.775C579.323 160.96 578.624 162.034 577.544 162.495C576.463 162.956 575.214 162.712 574.381 161.877C573.548 161.043 573.296 159.782 573.743 158.686Z" fill="#38363D"/>
<path fill-rule="evenodd" clip-rule="evenodd" d="M558.09 150C558.09 152.609 560.183 154.725 562.765 154.725C564.005 154.725 565.194 154.227 566.071 153.341C566.948 152.455 567.44 151.253 567.44 150C567.44 147.39 565.347 145.275 562.765 145.275C560.183 145.275 558.09 147.39 558.09 150ZM559.871 150C559.871 148.384 561.167 147.075 562.765 147.075C564.364 147.075 565.659 148.384 565.659 150C565.659 151.615 564.364 152.925 562.765 152.925C561.167 152.925 559.871 151.615 559.871 150Z" fill="#38363D"/>
<path fill-rule="evenodd" clip-rule="evenodd" d="M572.031 142.079C572.764 143.857 574.487 145.01 576.393 145C578.969 144.986 581.055 142.879 581.068 140.275C581.078 138.349 579.937 136.608 578.178 135.866C576.42 135.125 574.392 135.53 573.045 136.891C571.697 138.253 571.297 140.302 572.031 142.079ZM573.701 139.138C574.157 138.046 575.22 137.34 576.393 137.35V137.3C577.165 137.307 577.902 137.625 578.441 138.183C578.98 138.742 579.275 139.495 579.262 140.275C579.262 141.46 578.554 142.529 577.47 142.98C576.385 143.431 575.139 143.176 574.313 142.334C573.487 141.493 573.246 140.23 573.701 139.138Z" fill="#38363D"/>
<path d="M648.058 159.525C642.852 159.525 638.633 155.261 638.633 150C638.633 144.74 642.852 140.475 648.058 140.475C648.549 140.475 648.948 140.878 648.948 141.375C648.948 141.872 648.549 142.275 648.058 142.275C643.836 142.275 640.414 145.734 640.414 150C640.414 154.266 643.836 157.725 648.058 157.725C648.549 157.725 648.948 158.128 648.948 158.625C648.948 159.122 648.549 159.525 648.058 159.525Z" fill="#38363D"/>
<path d="M122.501 429.225C106.926 429.225 91.876 421.225 81.251 407.25C79.7497 405.177 79.7497 402.374 81.251 400.3C89.4791 388.874 101.871 381.142 115.751 378.775C116.013 378.749 116.275 378.83 116.476 379C116.663 379.175 116.771 379.419 116.776 379.675V386.15C116.802 387.356 116.462 388.541 115.801 389.55C114.776 391.059 114.776 393.041 115.801 394.55C116.457 395.561 116.797 396.745 116.776 397.95C116.798 399.148 116.458 400.324 115.801 401.325C115.287 402.055 115.024 402.933 115.051 403.825C115.018 404.718 115.282 405.597 115.801 406.325C116.458 407.326 116.798 408.503 116.776 409.7C116.797 410.905 116.457 412.089 115.801 413.1C114.776 414.609 114.776 416.591 115.801 418.1C116.457 419.111 116.797 420.295 116.776 421.5C116.776 421.997 116.373 422.4 115.876 422.4C115.379 422.4 114.976 421.997 114.976 421.5C115.004 420.611 114.75 419.736 114.251 419C113.573 417.998 113.223 416.81 113.251 415.6C113.228 414.391 113.577 413.204 114.251 412.2C115.242 410.681 115.242 408.719 114.251 407.2C112.921 405.138 112.921 402.488 114.251 400.425C115.242 398.906 115.242 396.944 114.251 395.425C113.577 394.421 113.228 393.234 113.251 392.025C113.223 390.823 113.573 389.643 114.251 388.65C114.745 387.912 114.998 387.038 114.976 386.15V380.725C101.91 383.207 90.2904 390.596 82.501 401.375C81.4862 402.805 81.4862 404.72 82.501 406.15C92.801 419.675 107.301 427.425 122.326 427.425C136.519 427.163 149.907 420.783 159.051 409.925C159.229 409.745 159.472 409.644 159.726 409.644C159.98 409.644 160.223 409.745 160.401 409.925C164.911 415.071 170.358 419.312 176.451 422.425C173.116 416.771 171.388 410.314 171.451 403.75C171.377 397.177 173.106 390.709 176.451 385.05C170.346 388.155 164.89 392.398 160.376 397.55C160.198 397.73 159.955 397.832 159.701 397.832C159.447 397.832 159.204 397.73 159.026 397.55C158.476 396.925 157.901 396.325 157.326 395.725C148.792 386.477 137.012 380.887 124.451 380.125C124.103 380.1 123.801 379.876 123.676 379.55C123.533 379.215 123.613 378.827 123.876 378.575C127.03 375.032 131.487 372.921 136.226 372.725C142.151 372.725 147.951 376.625 153.001 384C153.283 384.408 153.182 384.966 152.776 385.25C152.577 385.383 152.334 385.431 152.099 385.385C151.865 385.338 151.658 385.199 151.526 385C144.026 373.975 135.001 371.625 126.726 378.5C138.963 379.786 150.316 385.472 158.676 394.5L159.776 395.625C165.061 389.799 171.531 385.171 178.751 382.05C179.125 381.904 179.55 382.023 179.794 382.342C180.037 382.661 180.04 383.103 179.801 383.425C175.462 389.306 173.162 396.443 173.251 403.75C173.159 411.051 175.459 418.18 179.801 424.05C180.051 424.374 180.051 424.826 179.801 425.15C179.563 425.482 179.122 425.598 178.751 425.425C171.522 422.319 165.05 417.689 159.776 411.85C150.352 422.632 136.818 428.94 122.501 429.225Z" fill="#38363D"/>
<path d="M124.125 420.075C123.628 420.075 123.225 419.672 123.225 419.175C123.247 418.418 123.028 417.674 122.6 417.05C122.013 416.152 121.708 415.098 121.725 414.025C121.672 412.961 121.942 411.907 122.5 411C122.925 410.374 123.143 409.631 123.125 408.875C123.147 408.118 122.928 407.374 122.5 406.75C121.333 404.911 121.333 402.564 122.5 400.725C123.335 399.44 123.335 397.784 122.5 396.5C121.335 394.651 121.335 392.298 122.5 390.45C122.924 389.833 123.143 389.098 123.125 388.35C123.166 387.832 123.619 387.446 124.137 387.487C124.655 387.529 125.041 387.982 125 388.5C125.036 389.568 124.729 390.619 124.125 391.5C123.289 392.784 123.289 394.44 124.125 395.725C125.289 397.573 125.289 399.926 124.125 401.775C123.289 403.059 123.289 404.715 124.125 406C125.289 407.848 125.289 410.201 124.125 412.05C123.289 413.334 123.289 414.99 124.125 416.275C124.699 417.133 125.004 418.143 125 419.175C125 419.662 124.612 420.061 124.125 420.075Z" fill="#38363D"/>
<path d="M131.199 417.875C130.702 417.875 130.299 417.472 130.299 416.975C130.312 416.351 130.129 415.739 129.774 415.225C129.257 414.439 128.987 413.516 128.999 412.575C128.977 411.633 129.248 410.707 129.774 409.925C130.129 409.411 130.312 408.799 130.299 408.175C130.316 407.551 130.132 406.938 129.774 406.425C129.252 405.641 128.982 404.717 128.999 403.775C128.963 402.792 129.233 401.822 129.774 401C130.471 399.947 130.471 398.579 129.774 397.525C128.751 395.898 128.751 393.828 129.774 392.2C130.133 391.698 130.318 391.092 130.299 390.475C130.299 389.978 130.702 389.575 131.199 389.575C131.696 389.575 132.099 389.978 132.099 390.475C132.095 391.414 131.826 392.332 131.324 393.125C130.628 394.179 130.628 395.547 131.324 396.6C131.842 397.386 132.112 398.309 132.099 399.25C132.1 400.197 131.831 401.125 131.324 401.925C130.628 402.979 130.628 404.347 131.324 405.4C131.846 406.194 132.116 407.126 132.099 408.075C132.105 409.015 131.835 409.936 131.324 410.725C130.623 411.787 130.623 413.164 131.324 414.225C131.839 415.012 132.109 415.935 132.099 416.875C132.128 417.131 132.046 417.386 131.874 417.577C131.702 417.768 131.456 417.877 131.199 417.875Z" fill="#38363D"/>
<path d="M362.947 425.45H361.38C350.073 425.275 336.025 423.25 332.722 414.55C332.43 413.561 332.282 412.533 332.281 411.5C332.357 408.761 333.088 406.083 334.41 403.7C335.708 401.223 337.357 398.957 339.305 396.975C333.8 392.4 331.418 384.963 333.211 377.95C331.914 375.079 331.914 371.771 333.211 368.9C333.737 367.739 334.457 366.682 335.34 365.775C337.479 363.64 340.379 362.493 343.368 362.6C343.66 362.614 343.927 362.776 344.079 363.031C344.231 363.287 344.249 363.603 344.126 363.875C343.049 366.375 343.025 368.45 344.126 369.5C345.228 370.55 347.308 370.55 349.657 369.5C349.923 369.375 350.233 369.393 350.483 369.548C350.733 369.704 350.892 369.976 350.905 370.275C351.05 373.53 349.762 376.681 347.393 378.863C345.024 381.046 341.824 382.032 338.669 381.55C338.669 381.925 338.669 382.325 338.669 382.725C338.813 384.835 339.459 386.878 340.553 388.675C340.68 388.873 340.723 389.115 340.672 389.346C340.621 389.576 340.481 389.776 340.284 389.9C340.086 390.031 339.846 390.075 339.616 390.023C339.386 389.972 339.186 389.828 339.06 389.625C337.816 387.58 337.085 385.253 336.931 382.85C336.856 382.018 336.856 381.181 336.931 380.35C336.958 380.09 337.091 379.854 337.298 379.7C337.513 379.549 337.782 379.504 338.032 379.575C341.081 380.292 344.275 379.346 346.476 377.075C347.891 375.567 348.755 373.607 348.923 371.525C346.869 372.497 344.45 372.176 342.707 370.7C341.262 368.919 340.948 366.449 341.899 364.35C338.993 364.637 336.409 366.362 334.983 368.965C333.558 371.568 333.472 374.72 334.753 377.4C334.824 377.602 334.824 377.823 334.753 378.025C334.356 379.491 334.15 381.004 334.141 382.525C334.149 387.868 336.672 392.882 340.92 396C341.169 396.174 341.337 396.445 341.385 396.75C341.385 397.025 341.385 397.375 341.238 397.55C339.146 399.575 337.386 401.93 336.025 404.525C334.852 406.66 334.197 409.052 334.117 411.5C334.113 412.346 334.228 413.188 334.459 414C336.662 420 346.255 423.45 361.38 423.675H365.688C375.844 423.4 388.57 421.525 391.458 414.125C391.692 413.313 391.815 412.471 391.826 411.625C391.28 406.166 388.64 401.15 384.483 397.675C384.285 397.492 384.185 397.222 384.214 396.95C384.234 396.681 384.368 396.434 384.581 396.275L385.291 396.8L384.973 396C386.93 394.496 388.536 392.566 389.672 390.35C390.899 387.959 391.538 385.299 391.532 382.6C391.535 381.078 391.329 379.563 390.92 378.1C390.849 377.898 390.849 377.677 390.92 377.475C392.077 375.009 392.077 372.141 390.92 369.675C390.473 368.741 389.868 367.894 389.133 367.175C387.657 365.729 385.739 364.846 383.7 364.675C384.646 366.771 384.343 369.234 382.917 371.025C381.164 372.499 378.739 372.82 376.676 371.85C376.927 374.482 378.287 376.873 380.402 378.4C382.516 379.926 385.176 380.437 387.689 379.8C387.94 379.725 388.21 379.771 388.424 379.925C388.626 380.083 388.758 380.317 388.791 380.575C388.815 381.058 388.815 381.542 388.791 382.025C388.791 382.375 388.791 382.7 388.791 383.05C388.464 387.823 385.928 392.151 381.963 394.7C381.612 394.896 381.188 394.896 380.837 394.7C379.148 393.499 377.354 392.461 375.477 391.6C367.371 388.151 358.253 388.151 350.147 391.6C348.276 392.448 346.49 393.478 344.812 394.675C344.413 394.957 343.866 394.856 343.588 394.45C343.449 394.256 343.393 394.013 343.435 393.776C343.477 393.54 343.612 393.332 343.808 393.2C345.577 391.919 347.472 390.83 349.462 389.95C358.003 386.301 367.62 386.301 376.162 389.95C377.971 390.771 379.707 391.75 381.351 392.875C384.633 390.593 386.729 386.917 387.053 382.875C387.053 382.575 387.053 382.275 387.053 381.975V381.5C383.898 381.982 380.698 380.996 378.329 378.813C375.96 376.631 374.671 373.48 374.816 370.225C374.83 369.926 374.988 369.654 375.239 369.498C375.489 369.343 375.798 369.325 376.064 369.45C378.512 370.55 380.543 370.575 381.596 369.45C382.648 368.325 382.599 366.225 381.596 363.825C381.461 363.558 381.461 363.241 381.596 362.975C381.789 362.652 382.168 362.499 382.526 362.6C385.517 362.472 388.426 363.623 390.553 365.775C392.523 367.842 393.621 370.615 393.612 373.5C393.617 375.037 393.291 376.556 392.658 377.95C393.047 379.468 393.244 381.031 393.245 382.6C393.259 385.587 392.553 388.532 391.189 391.175C390.042 393.404 388.469 395.377 386.564 396.975C390.639 400.722 393.161 405.918 393.612 411.5C393.609 412.576 393.452 413.645 393.147 414.675C389.892 423.05 376.456 425.125 365.761 425.4L362.947 425.45Z" fill="#38363D"/>
<path d="M337.079 401.375C327.244 401.361 319.275 393.221 319.262 383.175C319.262 382.678 319.656 382.275 320.143 382.275C320.629 382.275 321.024 382.678 321.024 383.175C321.024 392.232 328.212 399.575 337.079 399.575C337.565 399.575 337.96 399.978 337.96 400.475C337.96 400.972 337.565 401.375 337.079 401.375Z" fill="#38363D"/>
<path d="M314.881 426C314.404 426 314.013 425.612 314 425.125C314 416.841 320.574 410.125 328.684 410.125C330.266 410.118 331.837 410.38 333.334 410.9C333.558 410.969 333.744 411.128 333.851 411.34C333.957 411.552 333.974 411.8 333.897 412.025C333.735 412.495 333.237 412.75 332.771 412.6C328.82 411.221 324.459 411.874 321.061 414.354C317.663 416.833 315.644 420.834 315.64 425.1C315.644 425.552 315.319 425.937 314.881 426Z" fill="#38363D"/>
<path d="M331.474 437.4C331.212 437.392 330.964 437.275 330.789 437.075C328.521 434.258 327.283 430.722 327.289 427.075C327.28 422.311 329.408 417.806 333.065 414.85C333.246 414.696 333.48 414.622 333.715 414.646C333.949 414.669 334.165 414.788 334.313 414.975C334.608 415.371 334.543 415.934 334.166 416.25C331.281 418.558 329.437 421.966 329.059 425.69C328.68 429.414 329.799 433.135 332.159 436C332.492 436.357 332.492 436.918 332.159 437.275C331.954 437.401 331.71 437.445 331.474 437.4Z" fill="#38363D"/>
<path d="M352.008 439.425H351.812C348.004 438.581 344.681 436.226 342.574 432.878C340.468 429.53 339.749 425.464 340.578 421.575C340.625 421.345 340.761 421.144 340.954 421.017C341.147 420.89 341.382 420.848 341.606 420.9C341.838 420.948 342.041 421.089 342.169 421.291C342.298 421.493 342.342 421.74 342.292 421.975C340.788 429.06 345.158 436.057 352.081 437.65C352.545 437.773 352.835 438.245 352.742 438.725C352.664 439.092 352.371 439.371 352.008 439.425Z" fill="#38363D"/>
<path d="M388.815 401.375C388.328 401.375 387.934 400.972 387.934 400.475C387.934 399.978 388.328 399.575 388.815 399.575C397.681 399.575 404.869 392.232 404.869 383.175C404.869 382.678 405.264 382.275 405.75 382.275C406.237 382.275 406.631 382.678 406.631 383.175C406.618 393.221 398.649 401.361 388.815 401.375Z" fill="#38363D"/>
<path d="M411.014 426C410.527 426 410.133 425.597 410.133 425.1C410.128 420.834 408.109 416.833 404.711 414.353C401.313 411.874 396.953 411.221 393.001 412.6C392.536 412.75 392.038 412.495 391.875 412.025C391.799 411.8 391.816 411.552 391.922 411.34C392.028 411.128 392.215 410.969 392.438 410.9C393.975 410.367 395.588 410.105 397.211 410.125C405.321 410.125 411.895 416.841 411.895 425.125C411.882 425.612 411.491 426 411.014 426Z" fill="#38363D"/>
<path d="M394.421 437.4C394.217 437.395 394.021 437.325 393.858 437.2C393.489 436.877 393.435 436.315 393.735 435.925C396.056 433.067 397.151 429.374 396.774 425.681C396.396 421.988 394.577 418.607 391.729 416.3C391.546 416.149 391.43 415.928 391.407 415.689C391.384 415.449 391.455 415.21 391.606 415.025C391.75 414.84 391.962 414.722 392.192 414.698C392.423 414.675 392.653 414.748 392.83 414.9C396.487 417.856 398.615 422.362 398.606 427.125C398.612 430.773 397.374 434.308 395.106 437.125C394.923 437.307 394.676 437.406 394.421 437.4Z" fill="#38363D"/>
<path d="M373.889 439.425C373.402 439.473 372.969 439.11 372.922 438.613C372.875 438.116 373.231 437.673 373.718 437.625C380.641 436.032 385.011 429.035 383.507 421.95C383.456 421.715 383.5 421.468 383.629 421.266C383.758 421.064 383.961 420.923 384.192 420.875C384.416 420.823 384.652 420.866 384.845 420.992C385.038 421.119 385.173 421.32 385.22 421.55C386.049 425.439 385.331 429.505 383.224 432.853C381.117 436.201 377.794 438.556 373.987 439.4L373.889 439.425Z" fill="#38363D"/>
<path d="M1104.16 185.95C1104.04 185.984 1103.91 185.984 1103.79 185.95L1085.11 175.275C1084.81 175.029 1084.73 174.6 1084.92 174.259C1085.11 173.918 1085.52 173.766 1085.89 173.9L1104.56 184.6C1104.74 184.699 1104.87 184.868 1104.92 185.066C1104.98 185.264 1104.94 185.475 1104.84 185.65C1104.68 185.854 1104.42 185.966 1104.16 185.95Z" fill="#38363D"/>
<path d="M1066.81 197.5C1039.41 197.5 1017 182.5 1017 163.875V151.375C1016.99 151.165 1017.07 150.962 1017.22 150.811C1017.36 150.66 1017.56 150.575 1017.77 150.575C1017.98 150.575 1018.18 150.66 1018.33 150.811C1018.47 150.962 1018.55 151.165 1018.54 151.375V163.875C1018.54 181.55 1040.19 195.925 1066.81 195.925C1072.84 195.934 1078.85 195.17 1084.69 193.65V166.625L1066.14 136.625C1065.96 136.316 1066.01 135.929 1066.26 135.675C1066.5 135.423 1066.88 135.371 1067.18 135.55L1104.16 156.475C1111.29 150.725 1115.2 143.525 1115.2 136.125C1115.2 118.45 1093.53 104.075 1066.93 104.075C1040.34 104.075 1018.54 118.45 1018.54 136.125C1018.54 153.8 1040.19 168.15 1066.81 168.15C1070 168.147 1073.18 167.93 1076.35 167.5C1076.55 167.472 1076.76 167.527 1076.92 167.654C1077.09 167.781 1077.19 167.969 1077.22 168.175C1077.26 168.6 1076.97 168.986 1076.55 169.05C1073.32 169.48 1070.06 169.698 1066.81 169.7C1039.41 169.7 1017 154.7 1017 136.1C1017 117.5 1039.41 102.5 1066.81 102.5C1094.2 102.5 1116.62 117.5 1116.62 136.125C1116.62 144.15 1112.36 151.925 1104.59 158.025C1104.33 158.201 1104 158.201 1103.74 158.025L1069.05 138.3L1086.11 166C1086.19 166.119 1086.23 166.257 1086.23 166.4V194.25C1086.23 194.595 1085.99 194.894 1085.66 194.975C1079.52 196.655 1073.18 197.504 1066.81 197.5Z" fill="#38363D"/>
<path fill-rule="evenodd" clip-rule="evenodd" d="M1103.39 185.175C1103.39 185.603 1103.74 185.95 1104.16 185.95C1104.33 185.979 1104.5 185.943 1104.64 185.85C1112.41 179.775 1116.66 171.975 1116.66 163.95V136.2C1116.66 135.923 1116.52 135.667 1116.28 135.529C1116.04 135.39 1115.75 135.39 1115.51 135.529C1115.27 135.667 1115.12 135.923 1115.12 136.2C1115.12 143.75 1111.16 151.075 1103.69 156.875C1103.49 157.022 1103.38 157.255 1103.39 157.5V185.175ZM1104.94 183.525V157.8H1104.89C1109.44 154.352 1112.98 149.73 1115.12 144.425V163.875C1114.79 171.615 1111.06 178.811 1104.94 183.525Z" fill="#38363D"/>
<path d="M839.251 451H838.826C837.795 450.804 836.996 449.985 836.826 448.95C835.926 443.7 832.451 437.875 828.776 431.7C823.776 423.175 817.901 413.525 816.451 401.9C815.376 392.975 816.501 381 822.601 373.5C825.117 370.391 828.665 368.289 832.601 367.575C833.024 367.486 833.449 367.72 833.601 368.125C833.752 368.521 833.606 368.969 833.251 369.2C832.901 369.425 832.301 369.9 832.301 370.425C832.301 371.425 834.501 372.8 838.076 372.8C841.651 372.8 844.001 371.375 844.001 370.375C844.001 369.375 842.701 368.575 840.276 368.15C839.983 368.109 839.731 367.924 839.605 367.657C839.479 367.389 839.496 367.077 839.651 366.825C840.499 365.296 840.938 363.574 840.926 361.825C841.076 358.451 839.381 355.263 836.501 353.5C838.706 357.03 838.793 361.487 836.726 365.1C836.465 365.479 835.961 365.601 835.556 365.383C835.152 365.164 834.977 364.676 835.151 364.25C837.532 360.41 836.588 355.388 832.976 352.675C832.631 352.458 832.469 352.042 832.576 351.65C832.695 351.266 833.049 351.004 833.451 351C838.451 351 842.601 355.825 842.601 361.725C842.622 363.441 842.29 365.143 841.626 366.725C844.126 367.425 845.676 368.8 845.676 370.45C845.676 372.825 842.426 374.625 838.176 374.625C833.926 374.625 830.676 372.825 830.676 370.45C830.663 370.3 830.663 370.15 830.676 370C828.068 370.899 825.758 372.499 824.001 374.625C818.176 381.6 817.226 393.125 818.276 401.625C819.676 412.875 825.326 422.35 830.326 430.725C834.001 437.05 837.651 443 838.601 448.5C838.637 448.797 838.858 449.038 839.151 449.1C839.419 449.13 839.678 448.99 839.801 448.75C841.576 445.375 841.126 439.825 840.626 433.4C839.851 423.925 838.901 412.125 844.501 401.55C847.352 396.188 849.199 390.351 849.951 384.325C850.068 383.296 850.127 382.261 850.126 381.225C850.154 379.312 849.884 377.405 849.326 375.575C849.227 375.267 849.301 374.93 849.519 374.691C849.736 374.451 850.065 374.347 850.381 374.416C850.697 374.485 850.952 374.717 851.051 375.025C851.66 377.034 851.955 379.126 851.926 381.225C851.926 382.275 851.926 383.375 851.751 384.5C850.963 390.759 849.048 396.823 846.101 402.4C840.726 412.4 841.651 424 842.401 433.25C842.951 439.975 843.426 445.75 841.376 449.6C840.975 450.419 840.161 450.956 839.251 451Z" fill="#38363D"/>
<path d="M1078 446.4C1077.76 446.375 1077.54 446.255 1077.39 446.067C1077.24 445.879 1077.17 445.639 1077.2 445.4L1080.5 412.15C1080.52 411.906 1080.64 411.681 1080.83 411.525C1081.01 411.369 1081.26 411.297 1081.5 411.325C1082 411.378 1082.37 411.823 1082.33 412.325L1078.95 445.575C1078.9 446.056 1078.49 446.416 1078 446.4Z" fill="#38363D"/>
<path d="M1069.1 446.4C1068.59 446.4 1068.17 445.986 1068.17 445.475V412.225C1068.25 411.779 1068.63 411.452 1069.09 411.452C1069.54 411.452 1069.92 411.779 1070 412.225V445.475C1070 445.976 1069.6 446.387 1069.1 446.4Z" fill="#38363D"/>
<path d="M1060.15 446.4C1059.68 446.39 1059.3 446.037 1059.25 445.575L1055.87 412.325C1055.83 411.823 1056.2 411.378 1056.7 411.325C1056.94 411.297 1057.19 411.369 1057.38 411.525C1057.56 411.681 1057.68 411.906 1057.7 412.15L1061.05 445.4C1061.08 445.639 1061.01 445.879 1060.86 446.067C1060.71 446.255 1060.49 446.375 1060.25 446.4H1060.15Z" fill="#38363D"/>
<path d="M1078 373.95C1077.76 373.949 1077.53 373.86 1077.35 373.7C1076.99 373.339 1076.99 372.76 1077.35 372.4L1084.07 365.7C1084.24 365.53 1084.47 365.435 1084.71 365.435C1084.95 365.435 1085.18 365.53 1085.35 365.7C1085.53 365.87 1085.63 366.104 1085.63 366.35C1085.63 366.595 1085.53 366.83 1085.35 367L1078.67 373.7C1078.5 373.876 1078.25 373.967 1078 373.95Z" fill="#38363D"/>
<path d="M1041.57 394.35C1041.33 394.35 1041.09 394.251 1040.92 394.075C1040.57 393.714 1040.57 393.135 1040.92 392.775L1047.62 386C1047.84 385.722 1048.21 385.596 1048.55 385.675C1048.9 385.754 1049.17 386.025 1049.25 386.371C1049.33 386.717 1049.2 387.078 1048.92 387.3L1042.2 394.075C1042.03 394.245 1041.81 394.344 1041.57 394.35Z" fill="#38363D"/>
<path d="M1060.15 372.55C1059.9 372.551 1059.67 372.451 1059.5 372.275L1052.8 365.575C1052.44 365.215 1052.44 364.635 1052.8 364.275C1052.97 364.106 1053.2 364.01 1053.44 364.01C1053.67 364.01 1053.9 364.106 1054.07 364.275L1060.8 371C1061.15 371.36 1061.15 371.94 1060.8 372.3C1060.62 372.458 1060.39 372.547 1060.15 372.55Z" fill="#38363D"/>
<path d="M1072.08 398.1C1071.84 398.103 1071.62 398.013 1071.45 397.85L1064.73 391.125C1064.56 390.956 1064.46 390.727 1064.46 390.487C1064.46 390.248 1064.56 390.019 1064.73 389.85C1064.9 389.673 1065.13 389.572 1065.38 389.572C1065.62 389.572 1065.86 389.673 1066.03 389.85L1072.73 396.55C1073 396.807 1073.08 397.204 1072.93 397.548C1072.79 397.892 1072.45 398.111 1072.08 398.1Z" fill="#38363D"/>
<path d="M1092.12 395.075C1091.88 395.065 1091.65 394.968 1091.47 394.8L1084.77 388.1C1084.5 387.878 1084.37 387.517 1084.45 387.171C1084.53 386.825 1084.8 386.555 1085.14 386.475C1085.49 386.396 1085.85 386.522 1086.07 386.8L1092.77 393.5C1093.13 393.86 1093.13 394.44 1092.77 394.8C1092.6 394.976 1092.37 395.076 1092.12 395.075Z" fill="#38363D"/>
<path d="M1086.95 451H1051.23C1050.78 450.994 1050.4 450.667 1050.33 450.225L1044.38 412.725C1044.3 412.23 1044.63 411.764 1045.13 411.675C1045.63 411.614 1046.09 411.954 1046.18 412.45L1052 449.175H1086.18L1092.63 408.5H1047.05C1038.45 408.426 1031.06 402.37 1029.3 393.95C1027.53 385.529 1031.87 377.018 1039.73 373.5C1038.41 368.056 1039.67 362.31 1043.15 357.918C1046.62 353.525 1051.93 350.975 1057.53 351C1061.28 350.984 1064.94 352.137 1068 354.3C1071.06 352.137 1074.73 350.984 1078.48 351C1084.08 350.975 1089.38 353.525 1092.85 357.918C1096.33 362.31 1097.59 368.056 1096.28 373.5C1102.91 376.435 1107.21 382.993 1107.25 390.25C1107.27 394.362 1105.88 398.356 1103.33 401.575C1103.18 401.766 1102.96 401.889 1102.72 401.918C1102.48 401.946 1102.24 401.876 1102.05 401.725C1101.86 401.577 1101.74 401.359 1101.71 401.119C1101.68 400.879 1101.75 400.638 1101.9 400.45C1104.22 397.555 1105.49 393.959 1105.5 390.25C1105.47 383.445 1101.29 377.349 1094.95 374.875C1094.51 374.71 1094.27 374.229 1094.4 373.775C1094.81 372.318 1095.02 370.813 1095.03 369.3C1095.02 364.92 1093.27 360.722 1090.17 357.631C1087.06 354.541 1082.86 352.812 1078.48 352.825C1074.87 352.796 1071.35 353.965 1068.48 356.15C1068.15 356.4 1067.7 356.4 1067.38 356.15C1064.5 353.965 1060.99 352.796 1057.38 352.825C1048.34 352.921 1041.06 360.265 1041.05 369.3C1041.06 370.813 1041.27 372.318 1041.68 373.775C1041.81 374.229 1041.57 374.71 1041.13 374.875C1033.72 377.727 1029.4 385.458 1030.85 393.263C1032.3 401.069 1039.11 406.728 1047.05 406.725H1093.68C1093.95 406.712 1094.21 406.824 1094.38 407.03C1094.56 407.235 1094.63 407.51 1094.58 407.775L1087.85 450.275C1087.77 450.703 1087.39 451.008 1086.95 451Z" fill="#38363D"/>
<path d="M600.036 440.675C574.263 440.675 553.369 419.408 553.369 393.175C553.369 392.678 553.765 392.275 554.253 392.275H637.787C637.208 381.568 629.286 372.765 618.859 371.24C608.431 369.715 598.395 375.892 594.878 386C594.762 386.356 594.436 386.597 594.067 386.6C593.703 386.593 593.372 386.381 593.208 386.05C590.971 380.238 587.576 374.96 583.236 370.55C574.483 361.715 562.574 356.886 550.25 357.175C549.984 367.209 552.961 377.054 558.724 385.2C558.95 385.599 558.843 386.108 558.476 386.378C558.109 386.648 557.601 386.593 557.299 386.25C551.122 377.556 548.006 366.995 548.457 356.275C548.48 355.811 548.837 355.437 549.292 355.4C562.415 354.808 575.181 359.841 584.488 369.275C588.474 373.327 591.696 378.089 593.994 383.325C598.549 372.856 609.683 367.062 620.688 369.435C631.693 371.809 639.562 381.7 639.555 393.15C639.555 393.647 639.159 394.05 638.671 394.05H555.162C555.921 418.927 576.079 438.622 600.53 438.378C624.981 438.133 644.754 418.037 645.032 393.15C645.032 392.653 645.428 392.25 645.917 392.25C646.405 392.25 646.801 392.653 646.801 393.15C646.807 405.769 641.88 417.873 633.106 426.789C624.333 435.705 612.434 440.701 600.036 440.675Z" fill="#38363D"/>
<path d="M578.276 386.625C578.044 386.619 577.823 386.52 577.662 386.35L554.181 362.45C553.835 362.098 553.835 361.527 554.181 361.175C554.527 360.823 555.088 360.823 555.434 361.175L578.915 385.075C579.081 385.244 579.175 385.473 579.175 385.713C579.175 385.952 579.081 386.181 578.915 386.35C578.744 386.522 578.516 386.62 578.276 386.625Z" fill="#38363D"/>
<path d="M623.418 446.625H575.474C574.995 446.625 574.603 446.237 574.59 445.75V438.25C574.59 437.753 574.986 437.35 575.474 437.35C575.962 437.35 576.358 437.753 576.358 438.25V444.9H622.534V438.2C622.534 437.703 622.93 437.3 623.418 437.3C623.906 437.3 624.302 437.703 624.302 438.2V445.7C624.309 445.943 624.219 446.178 624.052 446.352C623.885 446.527 623.657 446.625 623.418 446.625Z" fill="#38363D"/>
<path d="M615.658 381C615.405 381.002 615.164 380.893 614.995 380.702C614.826 380.511 614.745 380.256 614.774 380V373.85C614.774 373.353 615.169 372.95 615.658 372.95C616.146 372.95 616.542 373.353 616.542 373.85V380C616.57 380.256 616.489 380.511 616.32 380.702C616.152 380.893 615.91 381.002 615.658 381Z" fill="#38363D"/>
<path d="M622.143 382.475C621.997 382.51 621.846 382.51 621.701 382.475C621.279 382.215 621.137 381.661 621.381 381.225L624.402 375.9C624.667 375.521 625.172 375.41 625.567 375.643C625.962 375.877 626.117 376.378 625.925 376.8L622.904 382.125C622.724 382.364 622.438 382.495 622.143 382.475Z" fill="#38363D"/>
<path d="M627.052 387.15C626.728 387.158 626.427 386.985 626.266 386.7C626.144 386.493 626.113 386.244 626.178 386.012C626.243 385.78 626.399 385.586 626.609 385.475L631.841 382.4C632.114 382.202 632.474 382.179 632.77 382.339C633.066 382.5 633.247 382.818 633.237 383.159C633.228 383.5 633.03 383.807 632.725 383.95L627.494 387.05C627.356 387.119 627.205 387.153 627.052 387.15Z" fill="#38363D"/>
<path d="M604.655 387.8C604.5 387.793 604.349 387.751 604.213 387.675L598.981 384.575C598.609 384.305 598.5 383.792 598.729 383.39C598.958 382.988 599.451 382.829 599.865 383.025L605.097 386C605.305 386.12 605.456 386.321 605.516 386.556C605.576 386.792 605.54 387.042 605.416 387.25C605.291 387.57 604.993 387.785 604.655 387.8Z" fill="#38363D"/>
<path d="M609.248 382.85C608.936 382.839 608.651 382.67 608.487 382.4L605.465 377.05C605.224 376.622 605.366 376.075 605.785 375.825C606.207 375.593 606.735 375.735 606.988 376.15L610.009 381.5C610.132 381.704 610.168 381.951 610.108 382.182C610.047 382.414 609.896 382.61 609.69 382.725C609.556 382.805 609.403 382.848 609.248 382.85Z" fill="#38363D"/>
<path fill-rule="evenodd" clip-rule="evenodd" d="M582.299 648.374C590.438 648.374 597.036 641.888 597.036 633.887C597.036 625.886 590.438 619.4 582.299 619.4C574.16 619.4 567.562 625.886 567.562 633.887C567.562 641.888 574.16 648.374 582.299 648.374Z" stroke="#38363D" stroke-width="2" stroke-linecap="round" stroke-linejoin="round"/>
<path fill-rule="evenodd" clip-rule="evenodd" d="M617.702 700.6C625.841 700.6 632.439 694.114 632.439 686.113C632.439 678.112 625.841 671.626 617.702 671.626C609.563 671.626 602.965 678.112 602.965 686.113C602.965 694.114 609.563 700.6 617.702 700.6Z" stroke="#38363D" stroke-width="2" stroke-linecap="round" stroke-linejoin="round"/>
<path d="M575.824 700.6L623.496 619.452" stroke="#38363D" stroke-width="2" stroke-linecap="round" stroke-linejoin="round"/>
<path fill-rule="evenodd" clip-rule="evenodd" d="M854.439 648.323C862.662 648.323 869.327 641.848 869.327 633.861C869.327 625.874 862.662 619.4 854.439 619.4C846.216 619.4 839.551 625.874 839.551 633.861C839.551 641.848 846.216 648.323 854.439 648.323Z" stroke="#38363D" stroke-width="2" stroke-linecap="round" stroke-linejoin="round"/>
<path d="M865.069 686.474C867.395 686.555 869.258 688.382 869.326 690.65C869.312 691.774 868.838 692.845 868.008 693.625C867.178 694.405 866.062 694.828 864.91 694.8H804.088C801.717 694.8 799.792 692.935 799.777 690.624C799.846 688.356 801.708 686.529 804.035 686.448L865.069 686.474Z" fill="#38363D"/>
<path fill-rule="evenodd" clip-rule="evenodd" d="M865.546 680.7C855.418 679.926 843.465 673.869 843.465 662.655C843.465 662.655 843.914 653.917 844.417 644.611C841.142 641.698 839.376 637.51 839.601 633.194C839.826 628.879 842.019 624.887 845.58 622.313C845.551 620.739 844.234 619.477 842.618 619.478H826.382C825.551 619.482 824.759 619.824 824.197 620.42C823.635 621.017 823.354 621.815 823.42 622.622L825.535 662.707C825.535 673.972 813.582 680.03 803.454 680.751C798.039 681.075 793.796 685.413 793.723 690.702C793.744 693.356 794.849 695.894 796.795 697.751C798.74 699.609 801.366 700.635 804.089 700.6H864.911C867.625 700.607 870.231 699.563 872.155 697.697C874.08 695.831 875.165 693.296 875.172 690.65C875.103 685.399 870.919 681.074 865.546 680.7Z" stroke="#38363D" stroke-width="2" stroke-linecap="round" stroke-linejoin="round"/>
<path d="M854.438 623.988V633.861L861.34 640.589" stroke="#38363D" stroke-width="2" stroke-linecap="round"/>
<path d="M107.401 635.769C106.909 635.769 106.509 635.376 106.509 634.892V620.276C106.509 619.792 106.909 619.4 107.401 619.4C107.893 619.4 108.293 619.792 108.293 620.276V634.892C108.293 635.376 107.893 635.769 107.401 635.769Z" fill="#38363D"/>
<path d="M130.999 635.769C130.506 635.769 130.107 635.376 130.107 634.892V620.276C130.107 619.792 130.506 619.4 130.999 619.4C131.491 619.4 131.89 619.792 131.89 620.276V634.892C131.89 635.376 131.491 635.769 130.999 635.769Z" fill="#38363D"/>
<path d="M154.6 635.769C154.108 635.769 153.709 635.376 153.709 634.892V620.276C153.709 619.792 154.108 619.4 154.6 619.4C155.093 619.4 155.492 619.792 155.492 620.276V634.892C155.492 635.376 155.093 635.769 154.6 635.769Z" fill="#38363D"/>
<path d="M175.265 642.188V648.632H86.7384V642.188C86.7245 639.1 87.9607 636.133 90.1744 633.943C92.3881 631.752 95.3973 630.517 98.5384 630.51H102.97V634.892C102.97 637.298 104.954 639.249 107.402 639.249C109.849 639.249 111.833 637.298 111.833 634.892V630.51H126.57V634.892C126.57 637.298 128.554 639.249 131.002 639.249C133.449 639.249 135.433 637.298 135.433 634.892V630.51H150.17V634.892C150.17 637.298 152.154 639.249 154.602 639.249C157.049 639.249 159.033 637.298 159.033 634.892V630.51H163.465C166.606 630.517 169.615 631.752 171.829 633.943C174.042 636.133 175.279 639.1 175.265 642.188Z" fill="#38363D"/>
<path fill-rule="evenodd" clip-rule="evenodd" d="M86.7618 648.632H175.262V688.923C175.276 695.347 169.998 700.571 163.462 700.6H98.5618C95.4208 700.593 92.4115 699.358 90.1978 697.167C87.9841 694.977 86.7479 692.01 86.7618 688.923V648.632ZM173.479 689.051V650.385H88.5189V688.922C88.4839 691.57 89.524 694.123 91.409 696.014C93.294 697.906 95.8683 698.981 98.562 699.002H163.462C169.017 698.959 173.493 694.512 173.479 689.051Z" fill="#38363D"/>
<rect x="128.062" y="670.466" width="5.89999" height="5.85155" rx="0.87" fill="#38363D"/>
<rect x="128.062" y="683.896" width="5.89999" height="5.85155" rx="0.87" fill="#38363D"/>
<rect x="128.062" y="657.01" width="5.89999" height="5.85156" rx="0.87" fill="#38363D"/>
<rect x="141.621" y="670.466" width="5.89999" height="5.85155" rx="0.87" fill="#38363D"/>
<rect x="141.621" y="683.896" width="5.89999" height="5.85155" rx="0.87" fill="#38363D"/>
<rect x="141.621" y="657.01" width="5.89999" height="5.85156" rx="0.87" fill="#38363D"/>
<rect x="100.898" y="670.466" width="5.9" height="5.85155" rx="0.87" fill="#38363D"/>
<rect x="100.898" y="683.896" width="5.9" height="5.85155" rx="0.87" fill="#38363D"/>
<rect x="100.922" y="657.01" width="5.9" height="5.85156" rx="0.87" fill="#38363D"/>
<rect x="114.48" y="670.466" width="5.9" height="5.85155" rx="0.87" fill="#38363D"/>
<rect x="114.48" y="683.896" width="5.9" height="5.85155" rx="0.87" fill="#38363D"/>
<rect x="114.48" y="657.01" width="5.9" height="5.85156" rx="0.87" fill="#38363D"/>
<rect x="155.176" y="670.466" width="5.9" height="5.85155" rx="0.87" fill="#38363D"/>
<rect x="155.203" y="683.896" width="5.89999" height="5.85155" rx="0.87" fill="#38363D"/>
<rect x="155.176" y="657.01" width="5.9" height="5.85156" rx="0.87" fill="#38363D"/>
<path d="M1059.98 677.89V706.4" stroke="#38363D" stroke-width="2" stroke-linecap="round" stroke-linejoin="round"/>
<path d="M1044.48 706.4H1075.51" stroke="#38363D" stroke-width="2" stroke-linecap="round" stroke-linejoin="round"/>
<path d="M1045.82 659.072C1047.48 667.888 1053.22 674.384 1059.98 674.384C1066.75 674.384 1072.52 667.888 1074.17 659.072H1045.82Z" fill="#38363D"/>
<path fill-rule="evenodd" clip-rule="evenodd" d="M1068.01 637.135C1068 634.546 1068.72 632.005 1070.08 629.789H1049.36C1044.66 636.981 1042.04 645.295 1041.79 653.839C1041.79 667.141 1049.94 677.89 1059.98 677.89C1070.03 677.89 1078.34 667.141 1078.34 653.839C1078.34 652.739 1078.29 651.657 1078.18 650.591C1072.15 648.79 1068.02 643.331 1068.01 637.135V637.135Z" stroke="#38363D" stroke-width="2" stroke-linecap="round" stroke-linejoin="round"/>
<path fill-rule="evenodd" clip-rule="evenodd" d="M1082.27 645.977C1078.39 645.933 1074.98 643.458 1073.79 639.829C1072.6 636.199 1073.91 632.229 1077.03 629.969V618.782C1077.03 615.934 1079.38 613.626 1082.27 613.626C1085.17 613.626 1087.52 615.934 1087.52 618.782V629.969C1090.64 632.229 1091.94 636.199 1090.76 639.829C1089.57 643.458 1086.15 645.933 1082.27 645.977V645.977Z" stroke="#38363D" stroke-width="2" stroke-linecap="round" stroke-linejoin="round"/>
<path d="M1083.87 632.134V618.781C1083.87 618.22 1083.57 617.701 1083.07 617.42C1082.58 617.139 1081.97 617.139 1081.47 617.42C1080.98 617.701 1080.67 618.22 1080.67 618.781V632.134C1078.21 632.909 1076.69 635.33 1077.09 637.84C1077.49 640.35 1079.69 642.2 1082.27 642.2C1084.86 642.2 1087.06 640.35 1087.45 637.84C1087.85 635.33 1086.33 632.909 1083.87 632.134Z" fill="#38363D"/>
<path d="M1092.16 617.905H1098.21" stroke="#38363D" stroke-width="2" stroke-linecap="round"/>
<path d="M1092.16 623.37H1098.21" stroke="#38363D" stroke-width="2" stroke-linecap="round"/>
<path fill-rule="evenodd" clip-rule="evenodd" d="M362.999 710.409C369.829 710.409 375.366 704.872 375.366 698.042C375.366 691.213 369.829 685.676 362.999 685.676C356.17 685.676 350.633 691.213 350.633 698.042C350.633 704.872 356.17 710.409 362.999 710.409Z" stroke="#38363D" stroke-width="2" stroke-linecap="round" stroke-linejoin="round"/>
<path fill-rule="evenodd" clip-rule="evenodd" d="M377.839 685.676C384.669 685.676 390.206 680.139 390.206 673.309C390.206 666.479 384.669 660.942 377.839 660.942C371.009 660.942 365.473 666.479 365.473 673.309C365.473 680.139 371.009 685.676 377.839 685.676Z" stroke="#38363D" stroke-width="2" stroke-linecap="round" stroke-linejoin="round"/>
<path fill-rule="evenodd" clip-rule="evenodd" d="M362.999 660.942C369.829 660.942 375.366 655.406 375.366 648.576C375.366 641.746 369.829 636.209 362.999 636.209C356.17 636.209 350.633 641.746 350.633 648.576C350.633 655.406 356.17 660.942 362.999 660.942Z" stroke="#38363D" stroke-width="2" stroke-linecap="round" stroke-linejoin="round"/>
<path fill-rule="evenodd" clip-rule="evenodd" d="M392.679 660.942C399.509 660.942 405.046 655.406 405.046 648.576C405.046 641.746 399.509 636.209 392.679 636.209C385.849 636.209 380.312 641.746 380.312 648.576C380.312 655.406 385.849 660.942 392.679 660.942Z" stroke="#38363D" stroke-width="2" stroke-linecap="round" stroke-linejoin="round"/>
<path fill-rule="evenodd" clip-rule="evenodd" d="M333.32 660.942C340.15 660.942 345.686 655.406 345.686 648.576C345.686 641.746 340.15 636.209 333.32 636.209C326.49 636.209 320.953 641.746 320.953 648.576C320.953 655.406 326.49 660.942 333.32 660.942Z" stroke="#38363D" stroke-width="2" stroke-linecap="round" stroke-linejoin="round"/>
<path d="M363 628.2C365.26 625.511 366.358 622.034 366.053 618.535C365.748 615.036 364.065 611.802 361.375 609.544" stroke="#38363D" stroke-width="2" stroke-linecap="round" stroke-linejoin="round"/>
<path fill-rule="evenodd" clip-rule="evenodd" d="M348.16 685.676C354.99 685.676 360.526 680.139 360.526 673.309C360.526 666.479 354.99 660.942 348.16 660.942C341.33 660.942 335.793 666.479 335.793 673.309C335.793 680.139 341.33 685.676 348.16 685.676Z" stroke="#38363D" stroke-width="2" stroke-linecap="round" stroke-linejoin="round"/>
</svg>
