<svg width="1100" height="869" viewBox="0 0 1100 869" fill="none" xmlns="http://www.w3.org/2000/svg">
<g clip-path="url(#clip0_541_5292)">
<path fill-rule="evenodd" clip-rule="evenodd" d="M31.2035 55.1001C31.2035 70.5001 39.2225 91.9751 52.297 91.9751C54.127 91.953 55.9296 91.5262 57.5766 90.7251C60.256 89.2619 62.5649 87.2006 64.3255 84.7001C66.386 81.8605 68.061 78.7583 69.3062 75.4751C71.0458 71.0764 72.2175 66.4724 72.7927 61.7751C73.0861 59.3534 73.2109 56.9142 73.1663 54.4751V51.7751C73.0341 49.5187 73.0341 47.2565 73.1663 45.0001V44.9251C76.3851 47.4782 80.3703 48.8617 84.4726 48.8501C92.6457 48.8251 99.8203 43.3851 102.08 35.5001C102.15 35.1772 102.057 34.8403 101.83 34.6001C97.9002 30.8342 92.5131 29.0041 87.1124 29.6001C86.3902 29.7001 85.6929 29.8251 84.9956 29.9751C84.3131 30.149 83.6398 30.3576 82.9784 30.6001C82.32 30.8279 81.6791 31.1036 81.0608 31.4251C80.4416 31.7273 79.8426 32.0697 79.2677 32.4501C78.6994 32.8301 78.1508 33.2389 77.6241 33.6751C77.0947 34.116 76.5877 34.5832 76.1049 35.0751C75.6303 35.5768 75.1814 36.1025 74.7601 36.6501C74.336 37.1924 73.9451 37.7601 73.5897 38.3501C73.241 38.9501 72.7927 39.7751 72.6184 40.1751C72.4441 40.5751 72.2698 41.0001 72.1204 41.4001C71.8002 41.069 71.5008 40.7183 71.2238 40.3501L70.7257 39.6501C68.8376 36.4639 66.1043 33.8672 62.8313 32.1501C60.5802 31.1967 58.1932 30.6061 55.7586 30.4001C53.5139 30.1877 51.2544 30.1877 49.0097 30.4001C44.9707 30.5524 41.0903 32.0176 37.9524 34.5751C36.6708 35.8367 35.5117 37.218 34.4908 38.7001C33.5938 40.0022 32.5856 41.2235 31.4775 42.3501C27.3613 46.2792 21.5201 47.8045 16.0185 46.3869C10.5168 44.9693 6.12952 40.8086 4.40714 35.3751C7.40206 32.6493 11.2973 31.1351 15.3399 31.1251C19.4256 31.1277 23.3652 32.6508 26.3971 35.4001C26.5611 35.5681 26.7855 35.6627 27.0197 35.6627C27.254 35.6627 27.4784 35.5681 27.6423 35.4001C27.8111 35.2312 27.906 35.0018 27.906 34.7626C27.906 34.5234 27.8111 34.294 27.6423 34.1251C20.5286 27.7029 9.69674 27.8334 2.73859 34.4251C2.51632 34.6675 2.42366 35.0023 2.48956 35.3251C4.21374 41.6106 9.12245 46.5109 15.3932 48.2067C21.664 49.9025 28.3606 48.1406 32.9966 43.5751C34.182 42.3746 35.2572 41.0694 36.2092 39.6751C37.1666 38.3005 38.2416 37.0123 39.4218 35.8251C42.262 33.5528 45.7538 32.2559 49.3833 32.1251C51.512 31.9251 53.6547 31.9251 55.7835 32.1251C58.0285 32.3278 60.2292 32.8759 62.3083 33.7501C65.2831 35.3022 67.7671 37.6573 69.4806 40.5501L69.9786 41.2501C70.5238 41.947 71.1145 42.6068 71.7468 43.2251C71.7292 43.3252 71.7088 43.4282 71.688 43.5336C71.6203 43.8754 71.5476 44.2429 71.5476 44.6251C71.4027 46.9728 71.4027 49.3273 71.5476 51.6751V54.3501C71.5918 56.6977 71.467 59.0455 71.174 61.3751C70.6257 65.9266 69.4957 70.3883 67.812 74.6501C66.6441 77.7873 65.052 80.7484 63.0803 83.4501C61.4968 85.7253 59.408 87.5996 56.9789 88.9251C55.5335 89.6849 53.9285 90.0877 52.297 90.1001C41.4141 90.1001 32.9966 71.3251 32.9966 55.1001C32.9966 54.603 32.5952 54.2001 32.1001 54.2001C31.6049 54.2001 31.2035 54.603 31.2035 55.1001ZM88.8431 46.2582C83.4707 47.74 77.7162 46.4021 73.5399 42.7001L73.6146 42.4751C73.7937 41.9194 74.01 41.3765 74.2621 40.8501C74.5179 40.2742 74.809 39.7148 75.1337 39.1751C75.4536 38.6474 75.8028 38.1383 76.1797 37.6501C76.5595 37.1525 76.9669 36.6767 77.3999 36.2251C77.8239 35.7828 78.2729 35.3655 78.7447 34.9751C79.2428 34.5751 79.7409 34.2001 80.239 33.8751C80.7695 33.529 81.3181 33.2119 81.8826 32.9251C82.4419 32.6451 83.0155 32.3947 83.601 32.1751C84.1944 31.959 84.8018 31.7836 85.4189 31.6501C86.0396 31.4831 86.6725 31.366 87.3116 31.3001C91.9833 30.7348 96.6719 32.2096 100.187 35.3501C98.4811 40.6745 94.2155 44.7763 88.8431 46.2582Z" fill="#38363D"/>
<path d="M39.8443 35.0002H39.67C33.9575 33.7854 28.9664 30.3273 25.8087 25.3964C22.6511 20.4655 21.5893 14.4716 22.86 8.75024C22.9078 8.5139 23.0481 8.3067 23.2494 8.1751C23.4507 8.04351 23.6962 7.99852 23.9309 8.05024C24.1652 8.09758 24.37 8.23949 24.4971 8.44274C24.6242 8.646 24.6626 8.89275 24.6033 9.12524C22.2782 20.0167 29.1744 30.7421 40.0187 33.1002C40.4992 33.2119 40.7997 33.6922 40.6911 34.1752C40.6653 34.6294 40.2973 34.988 39.8443 35.0002Z" fill="#38363D"/>
<path d="M64.7478 35.0001C64.2527 35.0553 63.8067 34.6971 63.7517 34.2001C63.6967 33.703 64.0535 33.2553 64.5486 33.2001C75.3912 30.8426 82.2801 20.1112 79.9391 9.22507C79.8876 8.98951 79.9324 8.74306 80.0635 8.54097C80.1946 8.33887 80.401 8.19805 80.6364 8.15007C81.1201 8.06971 81.5848 8.3735 81.7073 8.85007C84.2505 20.7133 76.7559 32.4067 64.9471 35.0001H64.7478Z" fill="#38363D"/>
<path fill-rule="evenodd" clip-rule="evenodd" d="M823.152 45.725C823.152 49.9914 826.611 53.45 830.877 53.45C835.144 53.45 838.602 49.9914 838.602 45.725C838.602 41.4586 835.144 38 830.877 38C826.611 38 823.152 41.4586 823.152 45.725ZM825.36 43.4615C826.287 41.2358 828.466 39.7899 830.877 39.8C834.144 39.8137 836.789 42.4584 836.802 45.725C836.812 48.1361 835.366 50.3149 833.141 51.2422C830.915 52.1696 828.35 51.6621 826.645 49.9572C824.94 48.2523 824.433 45.6871 825.36 43.4615Z" fill="#38363D"/>
<path fill-rule="evenodd" clip-rule="evenodd" d="M850.152 60.1163C850.161 63.6207 852.997 66.4609 856.502 66.475C858.214 66.482 859.857 65.7996 861.061 64.5816C862.265 63.3636 862.928 61.7124 862.902 60.0001C862.847 56.496 859.974 53.6934 856.469 53.7254C852.965 53.7573 850.143 56.6118 850.152 60.1163ZM852.284 58.3904C852.978 56.6678 854.644 55.5356 856.502 55.5251C858.999 55.5108 861.047 57.5027 861.102 60.0001C861.142 61.8567 860.056 63.5537 858.353 64.2949C856.651 65.036 854.669 64.6742 853.338 63.3792C852.006 62.0843 851.59 60.1131 852.284 58.3904Z" fill="#38363D"/>
<path fill-rule="evenodd" clip-rule="evenodd" d="M817.753 80.9775C818.623 83.0794 820.674 84.4499 822.949 84.4499C826.056 84.4499 828.574 81.9315 828.574 78.8249C828.574 76.5498 827.204 74.4987 825.102 73.628C823 72.7574 820.581 73.2387 818.972 74.8474C817.363 76.4561 816.882 78.8755 817.753 80.9775ZM819.124 78.8249C819.124 76.7124 820.837 74.9999 822.949 74.9999C825.056 75.0135 826.761 76.7181 826.774 78.8249C826.774 80.9374 825.062 82.6499 822.949 82.6499C820.837 82.6499 819.124 80.9374 819.124 78.8249Z" fill="#38363D"/>
<path fill-rule="evenodd" clip-rule="evenodd" d="M794.76 46.0664C795.436 47.6848 797.022 48.7349 798.776 48.7248C801.145 48.7111 803.062 46.7939 803.076 44.4248C803.086 42.671 802.036 41.0847 800.418 40.4088C798.799 39.733 796.933 40.1014 795.693 41.3416C794.453 42.5817 794.084 44.4481 794.76 46.0664ZM796.276 44.3998C796.276 43.019 797.395 41.8998 798.776 41.8998C800.157 41.8998 801.276 43.019 801.276 44.3998C801.276 45.7805 800.157 46.8998 798.776 46.8998C797.395 46.8998 796.276 45.7805 796.276 44.3998Z" fill="#38363D"/>
<path fill-rule="evenodd" clip-rule="evenodd" d="M863.852 35.8999C863.852 39.0065 866.37 41.5249 869.477 41.5249C872.583 41.5249 875.102 39.0065 875.102 35.8999C875.102 32.7933 872.583 30.2749 869.477 30.2749C866.37 30.2749 863.852 32.7933 863.852 35.8999ZM865.652 35.8999C865.652 33.7874 867.364 32.0749 869.477 32.0749C871.583 32.0885 873.288 33.7931 873.302 35.8999C873.302 38.0124 871.589 39.7249 869.477 39.7249C867.364 39.7249 865.652 38.0124 865.652 35.8999Z" fill="#38363D"/>
<path d="M784.9 95.5999C784.68 95.601 784.466 95.521 784.3 95.3749C784.103 95.2074 783.992 94.9589 784 94.6999V73.0249C784 73.0249 784 72.8499 784 72.7999C784.089 72.3178 784.539 71.9888 785.025 72.0499C785.342 72.0747 785.659 72.0747 785.975 72.0499C789.105 71.8467 791.54 69.2488 791.54 66.1124C791.54 62.9759 789.105 60.3781 785.975 60.1749C785.659 60.1491 785.342 60.1491 785.025 60.1749C784.544 60.2508 784.089 59.9293 784 59.4499V37.1749C784 36.6778 784.403 36.2749 784.9 36.2749C785.397 36.2749 785.8 36.6778 785.8 37.1749V58.4499C787.882 58.4165 789.891 59.2166 791.379 60.6722C792.868 62.1278 793.712 64.118 793.725 66.1999C793.712 70.4606 790.261 73.9112 786 73.9249H785.8V93.6749L882.2 81.3749V23.4499L787.2 32.0499C786.251 32.2173 785.327 31.6479 785.05 30.7249C784.886 29.8897 785.384 29.0668 786.2 28.8249L860.875 4.42489H861.15C869.75 4.08151 878.055 7.59217 883.8 13.9999C884.072 14.3882 883.996 14.9204 883.627 15.2172C883.257 15.514 882.721 15.4736 882.4 15.1249C877 9.22235 869.297 5.96409 861.3 6.19989L787.95 30.1999L882.95 21.5749C883.206 21.536 883.465 21.6193 883.65 21.7999C883.865 21.9699 883.993 22.2263 884 22.4999V82.1749C883.992 82.6312 883.653 83.0133 883.2 83.0749L785.025 95.5749L784.9 95.5999Z" fill="#38363D"/>
<path fill-rule="evenodd" clip-rule="evenodd" d="M277.649 36.4249C277.937 63.6764 300.096 85.6241 327.349 85.6499C335.591 85.6433 343.492 82.363 349.315 76.5306C355.138 70.6982 358.406 62.7915 358.399 54.5499C358.404 51.7449 357.799 48.9723 356.624 46.4249C356.486 46.1067 356.172 45.9007 355.824 45.8999H352.974C353.35 43.9298 353.401 41.9114 353.124 39.9249C353.063 39.4866 352.692 39.1579 352.249 39.1499H311.499C311.002 39.1499 310.599 39.5529 310.599 40.0499C310.599 40.547 311.002 40.9499 311.499 40.9499H351.424C351.579 42.6211 351.486 44.3058 351.149 45.9499H318.374C315.954 45.635 313.504 46.2321 311.499 47.6249C309.848 48.9116 308.713 50.7477 308.299 52.7999C307.842 55.1103 308.357 57.5071 309.724 59.4249C312.199 62.3554 315.656 64.2839 319.449 64.8499C322.599 65.5474 325.838 65.7498 329.049 65.4499C339.899 64.3499 349.549 57.1749 352.524 47.9499V47.7499H355.124C356.039 49.9176 356.506 52.2474 356.499 54.5999C356.486 70.7137 343.463 83.7924 327.349 83.8749C300.877 83.8749 279.413 62.4222 279.399 35.9499C279.401 35.6553 279.249 35.3809 278.999 35.2249L272.199 30.4999L278.899 26.6249C279.184 26.4605 279.357 26.1538 279.349 25.8249V24.4499C279.121 18.7412 282.036 13.3654 286.945 10.4429C291.854 7.52044 297.97 7.52044 302.879 10.4429C307.788 13.3654 310.703 18.7412 310.474 24.4499C310.474 24.947 310.877 25.3499 311.374 25.3499C311.871 25.3499 312.274 24.947 312.274 24.4499C311.92 15.1171 304.251 7.73389 294.912 7.73389C285.572 7.73389 277.904 15.1171 277.549 24.4499V25.3499L270.049 29.6499C269.772 29.7977 269.599 30.086 269.599 30.3999C269.58 30.7061 269.722 31.0002 269.974 31.1749L277.649 36.4249ZM312.499 49.0499C314.125 47.9875 316.068 47.5195 317.999 47.7249L318.099 47.7499H350.599C347.399 57.0999 337.274 62.7749 328.799 63.5999C325.78 63.8843 322.734 63.6903 319.774 63.0249C316.411 62.5541 313.331 60.8852 311.099 58.3249C310.022 56.8122 309.623 54.9188 309.999 53.0999C310.33 51.4978 311.215 50.0636 312.499 49.0499Z" fill="#38363D"/>
<path fill-rule="evenodd" clip-rule="evenodd" d="M281.076 15.4502C281.248 15.605 281.469 15.6937 281.701 15.7002H281.776C282.034 15.6669 282.268 15.5319 282.426 15.3252C283.974 13.1711 286.048 11.4497 288.451 10.3252C288.898 10.1161 289.357 9.93247 289.826 9.77516C293.191 8.5876 296.861 8.5876 300.226 9.77516C300.676 9.92515 301.126 10.1251 301.576 10.3251L301.576 10.3252C303.974 11.4572 306.046 13.1772 307.601 15.3252C307.755 15.5364 307.991 15.6726 308.251 15.7002C308.507 15.705 308.756 15.6161 308.951 15.4502C310.648 13.7986 311.177 11.2837 310.288 9.08854C309.399 6.89338 307.269 5.45504 304.901 5.45016C304.146 5.44078 303.398 5.58539 302.701 5.87516C301.729 2.42705 298.583 0.0454102 295.001 0.0454102C291.418 0.0454102 288.273 2.42705 287.301 5.87516C286.605 5.58123 285.856 5.43645 285.101 5.45016C282.737 5.46513 280.617 6.90716 279.734 9.10005C278.851 11.2929 279.381 13.8018 281.076 15.4502ZM300.801 8.10016C298.938 7.44177 296.977 7.10366 295.001 7.10016C293.033 7.10648 291.081 7.44455 289.226 8.10016C288.706 8.27814 288.196 8.48684 287.701 8.72516C285.378 9.80714 283.321 11.386 281.676 13.3502C281.27 12.7153 281.054 11.9784 281.051 11.2252C281.051 10.1444 281.48 9.10791 282.244 8.3437C283.009 7.57949 284.045 7.15016 285.126 7.15016C285.96 7.15325 286.772 7.41532 287.451 7.90016C287.732 8.05128 288.07 8.05128 288.351 7.90016C288.629 7.7661 288.825 7.50499 288.876 7.20016C289.223 4.05861 291.878 1.68103 295.038 1.68103C298.199 1.68103 300.854 4.05861 301.201 7.20016C301.252 7.50499 301.447 7.7661 301.726 7.90016C301.998 8.05148 302.329 8.05148 302.601 7.90016C303.283 7.42254 304.093 7.16122 304.926 7.15016C307.176 7.15016 309.001 8.9746 309.001 11.2252C308.993 11.9813 308.768 12.7192 308.351 13.3502C306.707 11.3947 304.66 9.81709 302.351 8.72516C301.851 8.50016 301.326 8.27516 300.801 8.10016Z" fill="#38363D"/>
<path d="M324.002 100H311.502C311.005 100 310.602 99.5971 310.602 99.1C310.602 98.6029 311.005 98.2 311.502 98.2H323.077V84.775C323.077 84.2779 323.48 83.875 323.977 83.875C324.474 83.875 324.877 84.2779 324.877 84.775V99.1C324.877 99.5875 324.489 99.9865 324.002 100V100Z" fill="#38363D"/>
<path d="M66.181 577.325H45.1053C44.6095 577.311 44.2146 576.901 44.2147 576.4C44.2147 575.903 44.6134 575.5 45.1053 575.5H66.1563C81.1963 575.5 93.3668 564.05 93.3668 550C93.3668 535.95 81.221 524.5 66.181 524.5H30.2632C19.0079 524.5 9.80579 535.95 9.80579 550C9.80579 564.05 19.0079 575.5 30.2632 575.5C39.1437 575.5 47.01 568.45 49.7805 558C51.1663 552.775 51.1663 547.274 49.7805 542.05C48.7167 537.943 46.7079 534.148 43.9179 530.975C43.7014 530.738 43.6262 530.403 43.7208 530.095C43.8154 529.787 44.0652 529.553 44.3763 529.482C44.6874 529.411 45.0124 529.513 45.2289 529.75C48.2377 533.121 50.3936 537.178 51.5121 541.575C52.9636 547.113 52.9636 552.937 51.5121 558.475C48.6179 569.725 40.1579 577.325 30.2632 577.325C17.8947 577.325 8 565.05 8 550C8 534.95 18.0184 522.675 30.2632 522.675H66.181C82.2105 522.675 95.2468 535 95.2468 550C95.2468 565 82.2105 577.325 66.181 577.325Z" fill="#38363D"/>
<path fill-rule="evenodd" clip-rule="evenodd" d="M29.7188 559.775C29.7188 562.398 31.823 564.525 34.4187 564.525C37.0145 564.525 39.1187 562.398 39.1187 559.775C39.1187 557.152 37.0145 555.025 34.4187 555.025C31.823 555.025 29.7188 557.152 29.7188 559.775ZM31.7426 558.686C32.189 557.59 33.2459 556.875 34.4187 556.875C35.1841 556.868 35.9203 557.171 36.4638 557.715C37.0073 558.26 37.313 559.001 37.313 559.775C37.323 560.96 36.6242 562.034 35.5436 562.495C34.4629 562.956 33.214 562.712 32.3811 561.877C31.5483 561.043 31.2961 559.782 31.7426 558.686Z" fill="#38363D"/>
<path fill-rule="evenodd" clip-rule="evenodd" d="M16.0898 550C16.0898 552.609 18.183 554.725 20.7651 554.725C22.0051 554.725 23.1942 554.227 24.071 553.341C24.9478 552.455 25.4404 551.253 25.4404 550C25.4404 547.39 23.3472 545.275 20.7651 545.275C18.183 545.275 16.0898 547.39 16.0898 550ZM17.8709 550C17.8709 548.384 19.1667 547.075 20.7651 547.075C22.3635 547.075 23.6593 548.384 23.6593 550C23.6593 551.615 22.3635 552.925 20.7651 552.925C19.1667 552.925 17.8709 551.615 17.8709 550Z" fill="#38363D"/>
<path fill-rule="evenodd" clip-rule="evenodd" d="M30.0306 542.079C30.7644 543.857 32.4873 545.01 34.3928 545C36.9692 544.986 39.0545 542.879 39.068 540.275C39.078 538.349 37.9366 536.608 36.1781 535.866C34.4196 535.125 32.3921 535.53 31.0447 536.891C29.6973 538.253 29.2968 540.302 30.0306 542.079ZM31.7013 539.138C32.1571 538.046 33.22 537.34 34.3928 537.35V537.3C35.1647 537.307 35.9021 537.625 36.4409 538.183C36.9798 538.742 37.2755 539.495 37.2623 540.275C37.2622 541.46 36.5543 542.529 35.4698 542.98C34.3853 543.431 33.1385 543.176 32.3128 542.334C31.487 541.493 31.2455 540.23 31.7013 539.138Z" fill="#38363D"/>
<path d="M106.058 559.525C100.852 559.525 96.6328 555.261 96.6328 550C96.6328 544.74 100.852 540.475 106.058 540.475C106.549 540.475 106.948 540.878 106.948 541.375C106.948 541.872 106.549 542.275 106.058 542.275C101.836 542.275 98.4139 545.734 98.4139 550C98.4139 554.266 101.836 557.725 106.058 557.725C106.549 557.725 106.948 558.128 106.948 558.625C106.948 559.122 106.549 559.525 106.058 559.525V559.525Z" fill="#38363D"/>
<path d="M42.501 328.225C26.926 328.225 11.876 320.225 1.25104 306.25C-0.250347 304.177 -0.250347 301.374 1.25104 299.3C9.47914 287.874 21.8711 280.142 35.751 277.775C36.0132 277.749 36.2747 277.83 36.476 278C36.663 278.175 36.7712 278.419 36.776 278.675V285.15C36.8016 286.356 36.4617 287.541 35.801 288.55C34.7762 290.059 34.7762 292.041 35.801 293.55C36.4575 294.561 36.797 295.745 36.776 296.95C36.7981 298.148 36.4583 299.324 35.801 300.325C35.287 301.055 35.0239 301.933 35.051 302.825C35.0183 303.718 35.282 304.597 35.801 305.325C36.4583 306.326 36.7981 307.503 36.776 308.7C36.797 309.905 36.4575 311.089 35.801 312.1C34.7762 313.609 34.7762 315.591 35.801 317.1C36.4575 318.111 36.797 319.295 36.776 320.5C36.776 320.997 36.3731 321.4 35.876 321.4C35.379 321.4 34.976 320.997 34.976 320.5C35.0035 319.611 34.7498 318.736 34.251 318C33.5727 316.998 33.2231 315.81 33.251 314.6C33.2281 313.391 33.5772 312.204 34.251 311.2C35.2423 309.681 35.2423 307.719 34.251 306.2C32.9209 304.138 32.9209 301.488 34.251 299.425C35.2423 297.906 35.2423 295.944 34.251 294.425C33.5772 293.421 33.2281 292.234 33.251 291.025C33.2234 289.823 33.5731 288.643 34.251 287.65C34.7452 286.912 34.9985 286.038 34.976 285.15V279.725C21.9104 282.207 10.2904 289.596 2.50104 300.375C1.48617 301.805 1.48617 303.72 2.50104 305.15C12.801 318.675 27.301 326.425 42.326 326.425C56.5191 326.163 69.9072 319.783 79.051 308.925C79.2295 308.745 79.4725 308.644 79.726 308.644C79.9796 308.644 80.2226 308.745 80.401 308.925C84.9112 314.071 90.3578 318.312 96.451 321.425C93.1164 315.771 91.3876 309.314 91.451 302.75C91.3767 296.177 93.106 289.709 96.451 284.05C90.3458 287.155 84.8898 291.398 80.376 296.55C80.1976 296.73 79.9546 296.832 79.701 296.832C79.4475 296.832 79.2045 296.73 79.026 296.55C78.476 295.925 77.901 295.325 77.326 294.725C68.7919 285.477 57.0121 279.887 44.451 279.125C44.1031 279.1 43.8011 278.876 43.676 278.55C43.5334 278.215 43.613 277.827 43.876 277.575C47.0298 274.032 51.4867 271.921 56.226 271.725C62.151 271.725 67.951 275.625 73.001 283C73.283 283.408 73.1824 283.966 72.776 284.25C72.5772 284.383 72.3337 284.431 72.0992 284.385C71.8646 284.338 71.6584 284.199 71.526 284C64.026 272.975 55.001 270.625 46.726 277.5C58.9629 278.786 70.3165 284.472 78.676 293.5L79.776 294.625C85.0611 288.799 91.5307 284.171 98.751 281.05C99.1249 280.904 99.5503 281.023 99.7939 281.342C100.037 281.661 100.04 282.103 99.801 282.425C95.4623 288.306 93.1624 295.443 93.251 302.75C93.1587 310.051 95.4592 317.18 99.801 323.05C100.051 323.374 100.051 323.826 99.801 324.15C99.5628 324.482 99.1216 324.598 98.751 324.425C91.5222 321.319 85.0496 316.689 79.776 310.85C70.3518 321.632 56.8183 327.94 42.501 328.225Z" fill="#38363D"/>
<path d="M44.1247 319.075C43.6276 319.075 43.2247 318.672 43.2247 318.175C43.2466 317.418 43.0277 316.674 42.5997 316.05C42.0126 315.152 41.7078 314.098 41.7247 313.025C41.6718 311.961 41.942 310.907 42.4997 310C42.9246 309.374 43.1432 308.631 43.1247 307.875C43.1466 307.118 42.9277 306.374 42.4997 305.75C41.3334 303.911 41.3334 301.564 42.4997 299.725C43.335 298.44 43.335 296.784 42.4997 295.5C41.3351 293.651 41.3351 291.298 42.4997 289.45C42.9242 288.833 43.143 288.098 43.1247 287.35C43.1661 286.832 43.6194 286.446 44.1372 286.487C44.655 286.529 45.0411 286.982 44.9997 287.5C45.036 288.568 44.7294 289.619 44.1247 290.5C43.2894 291.784 43.2894 293.44 44.1247 294.725C45.2893 296.573 45.2893 298.926 44.1247 300.775C43.2894 302.059 43.2894 303.715 44.1247 305C45.2893 306.848 45.2893 309.201 44.1247 311.05C43.2894 312.334 43.2894 313.99 44.1247 315.275C44.6991 316.133 45.0038 317.143 44.9997 318.175C44.9999 318.662 44.612 319.061 44.1247 319.075Z" fill="#38363D"/>
<path d="M51.1994 316.875C50.7024 316.875 50.2994 316.472 50.2994 315.975C50.3123 315.351 50.1286 314.739 49.7744 314.225C49.2566 313.439 48.9866 312.516 48.9994 311.575C48.977 310.633 49.2478 309.707 49.7744 308.925C50.1286 308.411 50.3123 307.799 50.2994 307.175C50.3158 306.551 50.1318 305.938 49.7744 305.425C49.2523 304.641 48.9819 303.717 48.9994 302.775C48.9625 301.792 49.2335 300.822 49.7744 300C50.4711 298.947 50.4711 297.579 49.7744 296.525C48.7506 294.898 48.7506 292.828 49.7744 291.2C50.1331 290.698 50.3175 290.092 50.2994 289.475C50.2994 288.978 50.7024 288.575 51.1994 288.575C51.6965 288.575 52.0994 288.978 52.0994 289.475C52.0949 290.414 51.8263 291.332 51.3244 292.125C50.6277 293.179 50.6277 294.547 51.3244 295.6C51.8422 296.386 52.1122 297.309 52.0994 298.25C52.0996 299.197 51.8309 300.125 51.3244 300.925C50.6277 301.979 50.6277 303.347 51.3244 304.4C51.8456 305.194 52.1157 306.126 52.0994 307.075C52.1047 308.015 51.8354 308.936 51.3244 309.725C50.6233 310.787 50.6233 312.164 51.3244 313.225C51.8394 314.012 52.1092 314.935 52.0994 315.875C52.128 316.131 52.0459 316.386 51.874 316.577C51.702 316.768 51.4565 316.877 51.1994 316.875V316.875Z" fill="#38363D"/>
<path d="M312.947 324.45H311.38C300.073 324.275 286.025 322.25 282.722 313.55C282.43 312.561 282.282 311.533 282.281 310.5C282.357 307.761 283.088 305.083 284.41 302.7C285.708 300.223 287.357 297.957 289.305 295.975C283.8 291.4 281.418 283.963 283.211 276.95C281.914 274.079 281.914 270.771 283.211 267.9C283.737 266.739 284.457 265.682 285.34 264.775C287.479 262.64 290.379 261.493 293.368 261.6C293.66 261.614 293.927 261.776 294.079 262.031C294.231 262.287 294.249 262.603 294.126 262.875C293.049 265.375 293.025 267.45 294.126 268.5C295.228 269.55 297.308 269.55 299.657 268.5C299.923 268.375 300.233 268.393 300.483 268.548C300.733 268.704 300.892 268.976 300.905 269.275C301.05 272.53 299.762 275.681 297.393 277.863C295.024 280.046 291.824 281.032 288.669 280.55C288.669 280.925 288.669 281.325 288.669 281.725C288.813 283.835 289.459 285.878 290.553 287.675C290.68 287.873 290.723 288.115 290.672 288.346C290.621 288.576 290.481 288.776 290.284 288.9C290.086 289.031 289.846 289.075 289.616 289.023C289.386 288.972 289.186 288.828 289.06 288.625C287.816 286.58 287.085 284.253 286.931 281.85C286.856 281.018 286.856 280.181 286.931 279.35C286.958 279.09 287.091 278.854 287.298 278.7C287.513 278.549 287.782 278.504 288.032 278.575C291.081 279.292 294.275 278.346 296.476 276.075C297.891 274.567 298.755 272.607 298.923 270.525C296.869 271.497 294.45 271.176 292.707 269.7C291.262 267.919 290.948 265.449 291.899 263.35C288.993 263.637 286.409 265.362 284.983 267.965C283.558 270.568 283.472 273.72 284.753 276.4C284.824 276.602 284.824 276.823 284.753 277.025C284.356 278.491 284.15 280.004 284.141 281.525C284.149 286.868 286.672 291.882 290.92 295C291.169 295.174 291.337 295.445 291.385 295.75C291.385 296.025 291.385 296.375 291.238 296.55C289.146 298.575 287.386 300.93 286.025 303.525C284.852 305.66 284.197 308.052 284.117 310.5C284.113 311.346 284.228 312.188 284.459 313C286.662 319 296.255 322.45 311.38 322.675H315.688C325.844 322.4 338.571 320.525 341.458 313.125C341.692 312.313 341.815 311.471 341.826 310.625C341.28 305.166 338.64 300.15 334.483 296.675C334.285 296.492 334.185 296.222 334.214 295.95C334.234 295.681 334.368 295.434 334.581 295.275L335.291 295.8V295.8L334.973 295C336.93 293.496 338.536 291.566 339.672 289.35C340.899 286.959 341.538 284.299 341.532 281.6C341.535 280.078 341.329 278.563 340.92 277.1C340.849 276.898 340.849 276.677 340.92 276.475C342.077 274.009 342.077 271.141 340.92 268.675C340.473 267.741 339.868 266.894 339.133 266.175C337.657 264.729 335.739 263.846 333.7 263.675C334.646 265.771 334.343 268.234 332.917 270.025C331.164 271.499 328.739 271.82 326.676 270.85C326.927 273.482 328.287 275.873 330.402 277.4C332.516 278.926 335.176 279.437 337.689 278.8C337.94 278.725 338.21 278.771 338.424 278.925C338.626 279.083 338.758 279.317 338.791 279.575C338.815 280.058 338.815 280.542 338.791 281.025C338.791 281.375 338.791 281.7 338.791 282.05C338.464 286.823 335.928 291.151 331.963 293.7C331.612 293.896 331.188 293.896 330.837 293.7C329.148 292.499 327.354 291.461 325.477 290.6C317.371 287.151 308.253 287.151 300.147 290.6C298.276 291.448 296.49 292.478 294.812 293.675C294.413 293.957 293.866 293.856 293.588 293.45C293.449 293.256 293.393 293.013 293.435 292.776C293.477 292.54 293.612 292.332 293.808 292.2C295.577 290.919 297.472 289.83 299.462 288.95C308.003 285.301 317.62 285.301 326.162 288.95C327.971 289.771 329.707 290.75 331.351 291.875C334.633 289.593 336.729 285.917 337.053 281.875C337.053 281.575 337.053 281.275 337.053 280.975V280.5C333.898 280.982 330.698 279.996 328.329 277.813C325.96 275.631 324.671 272.48 324.816 269.225C324.83 268.926 324.988 268.654 325.239 268.498C325.489 268.343 325.798 268.325 326.064 268.45C328.512 269.55 330.543 269.575 331.596 268.45C332.648 267.325 332.599 265.225 331.596 262.825C331.461 262.558 331.461 262.241 331.596 261.975C331.789 261.652 332.168 261.499 332.526 261.6C335.517 261.472 338.426 262.623 340.553 264.775C342.523 266.842 343.621 269.615 343.612 272.5C343.617 274.037 343.291 275.556 342.658 276.95C343.047 278.468 343.244 280.031 343.245 281.6C343.259 284.587 342.553 287.532 341.189 290.175C340.042 292.404 338.469 294.377 336.564 295.975C340.639 299.722 343.161 304.918 343.612 310.5C343.609 311.576 343.452 312.645 343.147 313.675C339.892 322.05 326.456 324.125 315.761 324.4L312.947 324.45Z" fill="#38363D"/>
<path d="M287.079 300.375C277.244 300.361 269.275 292.221 269.262 282.175C269.262 281.678 269.656 281.275 270.143 281.275C270.629 281.275 271.024 281.678 271.024 282.175C271.024 291.232 278.212 298.575 287.079 298.575C287.565 298.575 287.96 298.978 287.96 299.475C287.96 299.972 287.565 300.375 287.079 300.375V300.375Z" fill="#38363D"/>
<path d="M264.881 325C264.404 325 264.013 324.612 264 324.125C264 315.841 270.574 309.125 278.684 309.125C280.266 309.118 281.837 309.38 283.334 309.9C283.558 309.969 283.744 310.128 283.851 310.34C283.957 310.552 283.974 310.8 283.897 311.025C283.735 311.495 283.237 311.75 282.771 311.6C278.82 310.221 274.459 310.874 271.061 313.354C267.663 315.833 265.644 319.834 265.64 324.1C265.644 324.552 265.319 324.937 264.881 325V325Z" fill="#38363D"/>
<path d="M281.474 336.4C281.212 336.392 280.964 336.275 280.789 336.075C278.521 333.258 277.283 329.722 277.289 326.075C277.28 321.311 279.408 316.806 283.065 313.85C283.246 313.696 283.48 313.622 283.715 313.646C283.949 313.669 284.165 313.788 284.313 313.975C284.608 314.371 284.543 314.934 284.166 315.25C281.281 317.558 279.437 320.966 279.059 324.69C278.68 328.414 279.799 332.135 282.159 335C282.492 335.357 282.492 335.918 282.159 336.275C281.954 336.401 281.71 336.445 281.474 336.4Z" fill="#38363D"/>
<path d="M302.008 338.425H301.812C298.004 337.581 294.681 335.226 292.574 331.878C290.468 328.53 289.749 324.464 290.578 320.575C290.625 320.345 290.761 320.144 290.954 320.017C291.147 319.89 291.382 319.848 291.606 319.9C291.838 319.948 292.041 320.089 292.169 320.291C292.298 320.493 292.342 320.74 292.292 320.975C290.788 328.06 295.158 335.057 302.081 336.65C302.545 336.773 302.835 337.245 302.742 337.725C302.664 338.092 302.371 338.371 302.008 338.425V338.425Z" fill="#38363D"/>
<path d="M338.815 300.375C338.328 300.375 337.934 299.972 337.934 299.475C337.934 298.978 338.328 298.575 338.815 298.575C347.681 298.575 354.869 291.232 354.869 282.175C354.869 281.678 355.264 281.275 355.75 281.275C356.237 281.275 356.631 281.678 356.631 282.175C356.618 292.221 348.649 300.361 338.815 300.375V300.375Z" fill="#38363D"/>
<path d="M361.014 325C360.527 325 360.133 324.597 360.133 324.1C360.128 319.834 358.109 315.833 354.711 313.353C351.313 310.874 346.953 310.221 343.001 311.6C342.536 311.75 342.038 311.495 341.875 311.025C341.799 310.8 341.816 310.552 341.922 310.34C342.028 310.128 342.215 309.969 342.438 309.9C343.975 309.367 345.588 309.105 347.211 309.125C355.321 309.125 361.895 315.841 361.895 324.125C361.882 324.612 361.491 325 361.014 325V325Z" fill="#38363D"/>
<path d="M344.421 336.4C344.217 336.395 344.021 336.325 343.858 336.2C343.489 335.877 343.435 335.315 343.735 334.925C346.056 332.067 347.151 328.374 346.774 324.681C346.396 320.988 344.577 317.607 341.729 315.3C341.546 315.149 341.43 314.928 341.407 314.689C341.384 314.449 341.455 314.21 341.606 314.025C341.75 313.84 341.962 313.722 342.192 313.698C342.423 313.675 342.653 313.748 342.83 313.9C346.487 316.856 348.615 321.362 348.606 326.125C348.612 329.773 347.374 333.308 345.106 336.125C344.923 336.307 344.676 336.406 344.421 336.4Z" fill="#38363D"/>
<path d="M323.889 338.425C323.402 338.473 322.969 338.11 322.922 337.613C322.875 337.116 323.231 336.673 323.718 336.625C330.641 335.032 335.011 328.035 333.507 320.95C333.456 320.715 333.5 320.468 333.629 320.266C333.758 320.064 333.961 319.923 334.192 319.875C334.416 319.823 334.652 319.866 334.845 319.992C335.038 320.119 335.173 320.32 335.22 320.55C336.049 324.439 335.331 328.505 333.224 331.853C331.117 335.201 327.794 337.556 323.987 338.4L323.889 338.425Z" fill="#38363D"/>
<path d="M610.165 85.9498C610.043 85.9839 609.914 85.9839 609.791 85.9498L591.114 75.2748C590.81 75.0294 590.728 74.5997 590.919 74.2589C591.11 73.918 591.519 73.7661 591.886 73.8998L610.563 84.5998C610.742 84.6991 610.873 84.8676 610.924 85.0659C610.976 85.2643 610.945 85.4753 610.837 85.6498C610.675 85.8539 610.424 85.9659 610.165 85.9498Z" fill="#38363D"/>
<path d="M572.808 97.5C545.414 97.5 523 82.5 523 63.875V51.375C522.994 51.1652 523.072 50.9616 523.218 50.8108C523.363 50.66 523.563 50.5749 523.772 50.575C523.982 50.5749 524.182 50.66 524.327 50.8108C524.473 50.9616 524.551 51.1652 524.544 51.375V63.875C524.544 81.55 546.186 95.925 572.808 95.925C578.84 95.9345 584.849 95.1699 590.689 93.65V66.625L572.135 36.625C571.963 36.3156 572.013 35.9289 572.26 35.675C572.501 35.4232 572.883 35.3713 573.181 35.55L610.163 56.475C617.286 50.725 621.196 43.525 621.196 36.125C621.196 18.45 599.53 4.075 572.932 4.075C546.335 4.075 524.544 18.45 524.544 36.125C524.544 53.8 546.186 68.15 572.808 68.15C575.998 68.1468 579.185 67.9297 582.346 67.5C582.551 67.4717 582.759 67.5272 582.923 67.6541C583.087 67.7811 583.193 67.9687 583.218 68.175C583.262 68.6002 582.966 68.9856 582.545 69.05C579.317 69.4805 576.064 69.6976 572.808 69.7C545.414 69.7 523 54.7 523 36.1C523 17.5 545.414 2.5 572.808 2.5C600.202 2.5 622.615 17.5 622.615 36.125C622.615 44.15 618.357 51.925 610.587 58.025C610.332 58.2011 609.995 58.2011 609.74 58.025L575.049 38.3L592.108 66C592.187 66.1187 592.23 66.2575 592.233 66.4V94.25C592.231 94.5952 591.994 94.8945 591.66 94.975C585.516 96.6548 579.176 97.504 572.808 97.5V97.5Z" fill="#38363D"/>
<path fill-rule="evenodd" clip-rule="evenodd" d="M609.391 85.1748C609.391 85.6028 609.737 85.9498 610.163 85.9498C610.328 85.9791 610.497 85.9432 610.636 85.8498C618.406 79.7748 622.665 71.9748 622.665 63.9498V36.1998C622.665 35.9229 622.518 35.6671 622.279 35.5286C622.04 35.3902 621.746 35.3902 621.507 35.5286C621.268 35.6671 621.121 35.9229 621.121 36.1998C621.121 43.7498 617.161 51.0748 609.69 56.8748C609.495 57.0216 609.383 57.255 609.391 57.4998V85.1748ZM610.935 83.5248V57.7998H610.885C615.438 54.352 618.976 49.7298 621.121 44.4248V63.8748C620.79 71.6153 617.06 78.8109 610.935 83.5248Z" fill="#38363D"/>
<path d="M839.251 350H838.826C837.795 349.804 836.996 348.985 836.826 347.95C835.926 342.7 832.451 336.875 828.776 330.7C823.776 322.175 817.901 312.525 816.451 300.9C815.376 291.975 816.501 280 822.601 272.5C825.117 269.391 828.665 267.289 832.601 266.575C833.024 266.486 833.449 266.72 833.601 267.125C833.752 267.521 833.606 267.969 833.251 268.2C832.901 268.425 832.301 268.9 832.301 269.425C832.301 270.425 834.501 271.8 838.076 271.8C841.651 271.8 844.001 270.375 844.001 269.375C844.001 268.375 842.701 267.575 840.276 267.15C839.983 267.109 839.731 266.924 839.605 266.657C839.479 266.389 839.496 266.077 839.651 265.825C840.499 264.296 840.938 262.574 840.926 260.825C841.076 257.451 839.381 254.263 836.501 252.5C838.706 256.03 838.793 260.487 836.726 264.1C836.465 264.479 835.961 264.601 835.556 264.383C835.152 264.164 834.977 263.676 835.151 263.25C837.532 259.41 836.588 254.388 832.976 251.675C832.631 251.458 832.469 251.042 832.576 250.65C832.695 250.266 833.049 250.004 833.451 250C838.451 250 842.601 254.825 842.601 260.725C842.622 262.441 842.29 264.143 841.626 265.725C844.126 266.425 845.676 267.8 845.676 269.45C845.676 271.825 842.426 273.625 838.176 273.625C833.926 273.625 830.676 271.825 830.676 269.45C830.663 269.3 830.663 269.15 830.676 269C828.068 269.899 825.758 271.499 824.001 273.625C818.176 280.6 817.226 292.125 818.276 300.625C819.676 311.875 825.326 321.35 830.326 329.725C834.001 336.05 837.651 342 838.601 347.5C838.637 347.797 838.858 348.038 839.151 348.1C839.419 348.13 839.678 347.99 839.801 347.75C841.576 344.375 841.126 338.825 840.626 332.4C839.851 322.925 838.901 311.125 844.501 300.55C847.352 295.188 849.199 289.351 849.951 283.325C850.068 282.296 850.127 281.261 850.126 280.225C850.154 278.312 849.884 276.405 849.326 274.575C849.227 274.267 849.301 273.93 849.519 273.691C849.736 273.451 850.065 273.347 850.381 273.416C850.697 273.485 850.952 273.717 851.051 274.025C851.66 276.034 851.955 278.126 851.926 280.225C851.926 281.275 851.926 282.375 851.751 283.5C850.963 289.759 849.048 295.823 846.101 301.4C840.726 311.4 841.651 323 842.401 332.25C842.951 338.975 843.426 344.75 841.376 348.6C840.975 349.419 840.161 349.956 839.251 350Z" fill="#38363D"/>
<path d="M322.001 595.4V595.4C321.762 595.375 321.543 595.255 321.393 595.067C321.242 594.879 321.173 594.639 321.201 594.4L324.501 561.15C324.52 560.906 324.637 560.681 324.826 560.525C325.015 560.369 325.259 560.297 325.501 560.325C326.003 560.378 326.37 560.823 326.326 561.325L322.951 594.575C322.899 595.056 322.485 595.416 322.001 595.4Z" fill="#38363D"/>
<path d="M313.098 595.4C312.588 595.4 312.173 594.986 312.173 594.475V561.225C312.248 560.779 312.634 560.452 313.086 560.452C313.538 560.452 313.924 560.779 313.998 561.225V594.475C313.999 594.976 313.6 595.387 313.098 595.4V595.4Z" fill="#38363D"/>
<path d="M304.15 595.4C303.685 595.39 303.3 595.037 303.25 594.575L299.875 561.325C299.831 560.823 300.198 560.378 300.7 560.325C300.943 560.297 301.186 560.369 301.375 560.525C301.564 560.681 301.681 560.906 301.7 561.15L305.05 594.4C305.078 594.639 305.009 594.879 304.859 595.067C304.708 595.255 304.489 595.375 304.25 595.4H304.15Z" fill="#38363D"/>
<path d="M321.999 522.95C321.759 522.949 321.527 522.86 321.349 522.7C320.993 522.339 320.993 521.76 321.349 521.4L328.074 514.7C328.243 514.53 328.472 514.435 328.711 514.435C328.951 514.435 329.18 514.53 329.349 514.7C329.526 514.87 329.626 515.104 329.626 515.35C329.626 515.595 329.526 515.83 329.349 516L322.674 522.7C322.495 522.876 322.249 522.967 321.999 522.95V522.95Z" fill="#38363D"/>
<path d="M285.573 543.35C285.328 543.35 285.093 543.251 284.923 543.075C284.567 542.714 284.567 542.135 284.923 541.775L291.623 535C291.845 534.722 292.206 534.596 292.552 534.675C292.898 534.754 293.169 535.025 293.248 535.371C293.327 535.717 293.201 536.078 292.923 536.3L286.198 543.075C286.034 543.245 285.809 543.344 285.573 543.35Z" fill="#38363D"/>
<path d="M304.148 521.55C303.903 521.551 303.668 521.451 303.498 521.275L296.798 514.575C296.442 514.215 296.442 513.635 296.798 513.275C296.967 513.106 297.196 513.01 297.436 513.01C297.675 513.01 297.904 513.106 298.073 513.275L304.798 520C305.154 520.36 305.154 520.94 304.798 521.3C304.618 521.458 304.388 521.547 304.148 521.55Z" fill="#38363D"/>
<path d="M316.076 547.1C315.842 547.103 315.617 547.013 315.451 546.85L308.726 540.125C308.556 539.956 308.461 539.727 308.461 539.487C308.461 539.248 308.556 539.019 308.726 538.85C308.895 538.673 309.13 538.572 309.376 538.572C309.621 538.572 309.856 538.673 310.026 538.85L316.726 545.55C316.995 545.807 317.078 546.204 316.934 546.548C316.789 546.892 316.448 547.111 316.076 547.1V547.1Z" fill="#38363D"/>
<path d="M336.124 544.075C335.881 544.065 335.65 543.968 335.474 543.8L328.774 537.1C328.496 536.878 328.37 536.517 328.449 536.171C328.528 535.825 328.799 535.555 329.145 535.475C329.491 535.396 329.852 535.522 330.074 535.8L336.774 542.5C337.13 542.86 337.13 543.44 336.774 543.8C336.604 543.976 336.369 544.076 336.124 544.075V544.075Z" fill="#38363D"/>
<path d="M330.951 600H295.226C294.778 599.994 294.399 599.667 294.326 599.225L288.376 561.725C288.301 561.23 288.633 560.764 289.126 560.675C289.626 560.614 290.087 560.954 290.176 561.45L296.001 598.175H330.176L336.626 557.5H291.051C282.448 557.426 275.058 551.37 273.296 542.95C271.534 534.529 275.875 526.018 283.726 522.5C282.412 517.056 283.675 511.31 287.15 506.918C290.624 502.525 295.926 499.975 301.526 500C305.276 499.984 308.938 501.137 312.001 503.3C315.065 501.137 318.726 499.984 322.476 500C328.077 499.975 333.378 502.525 336.853 506.918C340.328 511.31 341.59 517.056 340.276 522.5C346.914 525.435 351.211 531.993 351.251 539.25C351.269 543.362 349.885 547.356 347.326 550.575C347.178 550.766 346.96 550.889 346.72 550.918C346.48 550.946 346.239 550.876 346.051 550.725C345.86 550.577 345.737 550.359 345.709 550.119C345.681 549.879 345.75 549.638 345.901 549.45C348.22 546.555 349.489 542.959 349.501 539.25C349.474 532.445 345.291 526.349 338.951 523.875C338.507 523.71 338.266 523.229 338.401 522.775C338.807 521.318 339.017 519.813 339.026 518.3C339.02 513.92 337.271 509.722 334.167 506.631C331.062 503.541 326.857 501.812 322.476 501.825C318.867 501.796 315.349 502.965 312.476 505.15C312.152 505.4 311.7 505.4 311.376 505.15C308.503 502.965 304.986 501.796 301.376 501.825C292.342 501.921 285.064 509.265 285.051 518.3C285.059 519.813 285.269 521.318 285.676 522.775C285.811 523.229 285.571 523.71 285.126 523.875C277.717 526.727 273.396 534.458 274.848 542.263C276.3 550.069 283.112 555.728 291.051 555.725H337.676C337.946 555.712 338.207 555.824 338.383 556.03C338.559 556.235 338.631 556.51 338.576 556.775L331.851 599.275C331.766 599.703 331.387 600.008 330.951 600Z" fill="#38363D"/>
<path d="M579.036 339.675C553.263 339.675 532.369 318.408 532.369 292.175C532.369 291.678 532.765 291.275 533.253 291.275H616.787C616.208 280.568 608.286 271.765 597.859 270.24C587.431 268.715 577.395 274.892 573.878 285C573.762 285.356 573.436 285.597 573.067 285.6C572.703 285.593 572.372 285.381 572.208 285.05C569.971 279.238 566.576 273.96 562.236 269.55C553.483 260.715 541.574 255.886 529.25 256.175C528.984 266.209 531.961 276.054 537.724 284.2C537.95 284.599 537.843 285.108 537.476 285.378C537.109 285.648 536.601 285.593 536.299 285.25C530.122 276.556 527.006 265.995 527.457 255.275C527.48 254.811 527.837 254.437 528.292 254.4C541.415 253.808 554.181 258.841 563.488 268.275C567.474 272.327 570.696 277.089 572.994 282.325C577.549 271.856 588.683 266.062 599.688 268.435C610.693 270.809 618.562 280.7 618.555 292.15C618.555 292.647 618.159 293.05 617.671 293.05H534.162C534.921 317.927 555.079 337.622 579.53 337.378C603.981 337.133 623.754 317.037 624.032 292.15C624.032 291.653 624.428 291.25 624.917 291.25C625.405 291.25 625.801 291.653 625.801 292.15C625.807 304.769 620.88 316.873 612.106 325.789C603.333 334.705 591.434 339.701 579.036 339.675V339.675Z" fill="#38363D"/>
<path d="M557.276 285.625C557.044 285.619 556.823 285.52 556.662 285.35L533.181 261.45C532.835 261.098 532.835 260.527 533.181 260.175C533.527 259.823 534.088 259.823 534.434 260.175L557.915 284.075C558.081 284.244 558.175 284.473 558.175 284.713C558.175 284.952 558.081 285.181 557.915 285.35C557.744 285.522 557.516 285.62 557.276 285.625Z" fill="#38363D"/>
<path d="M602.418 345.625H554.474C553.995 345.625 553.603 345.237 553.59 344.75V337.25C553.59 336.753 553.986 336.35 554.474 336.35C554.962 336.35 555.358 336.753 555.358 337.25V343.9H601.534V337.2C601.534 336.703 601.93 336.3 602.418 336.3C602.906 336.3 603.302 336.703 603.302 337.2V344.7C603.309 344.943 603.219 345.178 603.052 345.352C602.885 345.527 602.657 345.625 602.418 345.625V345.625Z" fill="#38363D"/>
<path d="M594.658 280C594.405 280.002 594.164 279.893 593.995 279.702C593.826 279.511 593.745 279.256 593.774 279V272.85C593.774 272.353 594.169 271.95 594.658 271.95C595.146 271.95 595.542 272.353 595.542 272.85V279C595.57 279.256 595.489 279.511 595.32 279.702C595.152 279.893 594.91 280.002 594.658 280V280Z" fill="#38363D"/>
<path d="M601.143 281.475C600.997 281.51 600.846 281.51 600.701 281.475C600.279 281.215 600.137 280.661 600.381 280.225L603.402 274.9C603.667 274.521 604.172 274.41 604.567 274.643C604.962 274.877 605.117 275.378 604.925 275.8L601.904 281.125C601.724 281.364 601.438 281.495 601.143 281.475V281.475Z" fill="#38363D"/>
<path d="M606.052 286.15C605.728 286.158 605.427 285.985 605.266 285.7C605.144 285.493 605.113 285.244 605.178 285.012C605.243 284.78 605.399 284.586 605.609 284.475L610.841 281.4C611.114 281.202 611.474 281.179 611.77 281.339C612.066 281.5 612.247 281.818 612.237 282.159C612.228 282.5 612.03 282.807 611.725 282.95L606.494 286.05C606.356 286.119 606.205 286.153 606.052 286.15V286.15Z" fill="#38363D"/>
<path d="M583.655 286.8C583.5 286.793 583.349 286.751 583.213 286.675L577.981 283.575C577.609 283.305 577.5 282.792 577.729 282.39C577.958 281.988 578.451 281.829 578.865 282.025L584.097 285C584.305 285.12 584.456 285.321 584.516 285.556C584.576 285.792 584.54 286.042 584.416 286.25C584.291 286.57 583.993 286.785 583.655 286.8V286.8Z" fill="#38363D"/>
<path d="M588.248 281.85C587.936 281.839 587.651 281.67 587.487 281.4L584.465 276.05C584.224 275.622 584.366 275.075 584.785 274.825C585.207 274.593 585.735 274.735 585.988 275.15L589.009 280.5C589.132 280.704 589.168 280.951 589.108 281.182C589.047 281.414 588.896 281.61 588.69 281.725C588.556 281.805 588.403 281.848 588.248 281.85V281.85Z" fill="#38363D"/>
<path fill-rule="evenodd" clip-rule="evenodd" d="M560.299 544.374C568.438 544.374 575.036 537.888 575.036 529.887C575.036 521.886 568.438 515.4 560.299 515.4C552.16 515.4 545.562 521.886 545.562 529.887C545.562 537.888 552.16 544.374 560.299 544.374Z" stroke="#38363D" stroke-width="2" stroke-linecap="round" stroke-linejoin="round"/>
<path fill-rule="evenodd" clip-rule="evenodd" d="M595.702 596.6C603.841 596.6 610.439 590.114 610.439 582.113C610.439 574.112 603.841 567.626 595.702 567.626C587.563 567.626 580.965 574.112 580.965 582.113C580.965 590.114 587.563 596.6 595.702 596.6Z" stroke="#38363D" stroke-width="2" stroke-linecap="round" stroke-linejoin="round"/>
<path d="M553.824 596.6L601.496 515.452" stroke="#38363D" stroke-width="2" stroke-linecap="round" stroke-linejoin="round"/>
<path fill-rule="evenodd" clip-rule="evenodd" d="M594.439 801.323C602.662 801.323 609.327 794.848 609.327 786.861C609.327 778.874 602.662 772.4 594.439 772.4C586.216 772.4 579.551 778.874 579.551 786.861C579.551 794.848 586.216 801.323 594.439 801.323Z" stroke="#38363D" stroke-width="2" stroke-linecap="round" stroke-linejoin="round"/>
<path d="M605.069 839.474C607.395 839.555 609.258 841.382 609.326 843.65C609.312 844.774 608.838 845.845 608.008 846.625C607.178 847.405 606.062 847.828 604.91 847.8H544.088C541.717 847.8 539.792 845.935 539.777 843.624C539.846 841.356 541.708 839.529 544.035 839.448L605.069 839.474Z" fill="#38363D"/>
<path fill-rule="evenodd" clip-rule="evenodd" d="M605.546 833.7C595.418 832.926 583.465 826.869 583.465 815.655C583.465 815.655 583.914 806.917 584.417 797.611C581.142 794.698 579.376 790.51 579.601 786.194C579.826 781.879 582.019 777.887 585.58 775.313C585.551 773.739 584.234 772.477 582.618 772.478H566.382C565.551 772.482 564.759 772.824 564.197 773.42C563.635 774.017 563.354 774.815 563.42 775.622L565.535 815.707C565.535 826.972 553.582 833.03 543.454 833.751C538.039 834.075 533.796 838.413 533.723 843.702C533.744 846.356 534.849 848.894 536.795 850.751C538.74 852.609 541.366 853.635 544.089 853.6H604.911C607.625 853.607 610.231 852.563 612.155 850.697C614.08 848.831 615.165 846.296 615.172 843.65C615.103 838.399 610.919 834.074 605.546 833.7Z" stroke="#38363D" stroke-width="2" stroke-linecap="round" stroke-linejoin="round"/>
<path d="M594.438 776.988V786.861L601.34 793.589" stroke="#38363D" stroke-width="2" stroke-linecap="round"/>
<path d="M32.401 783.769C31.9086 783.769 31.5094 783.376 31.5094 782.892V768.276C31.5094 767.792 31.9086 767.4 32.401 767.4C32.8933 767.4 33.2925 767.792 33.2925 768.276V782.892C33.2925 783.376 32.8933 783.769 32.401 783.769Z" fill="#38363D"/>
<path d="M55.9986 783.769C55.5062 783.769 55.1071 783.376 55.1071 782.892V768.276C55.1071 767.792 55.5062 767.4 55.9986 767.4C56.491 767.4 56.8902 767.792 56.8902 768.276V782.892C56.8902 783.376 56.491 783.769 55.9986 783.769Z" fill="#38363D"/>
<path d="M79.6002 783.769C79.1078 783.769 78.7086 783.376 78.7086 782.892V768.276C78.7086 767.792 79.1078 767.4 79.6002 767.4C80.0926 767.4 80.4917 767.792 80.4917 768.276V782.892C80.4917 783.376 80.0926 783.769 79.6002 783.769Z" fill="#38363D"/>
<path d="M100.265 790.188V796.632H11.7384V790.188C11.7245 787.1 12.9607 784.133 15.1744 781.943C17.3881 779.752 20.3973 778.517 23.5384 778.51H27.97V782.892C27.97 785.298 29.954 787.249 32.4015 787.249C34.849 787.249 36.8331 785.298 36.8331 782.892V778.51H51.57V782.892C51.57 785.298 53.554 787.249 56.0015 787.249C58.449 787.249 60.4331 785.298 60.4331 782.892V778.51H75.17V782.892C75.17 785.298 77.154 787.249 79.6015 787.249C82.049 787.249 84.0331 785.298 84.0331 782.892V778.51H88.4646C91.6057 778.517 94.615 779.752 96.8287 781.943C99.0423 784.133 100.279 787.1 100.265 790.188Z" fill="#38363D"/>
<path fill-rule="evenodd" clip-rule="evenodd" d="M11.7618 796.632H100.262V836.923C100.276 843.347 94.9975 848.571 88.4618 848.6H23.5618C20.4208 848.593 17.4115 847.358 15.1978 845.167C12.9841 842.977 11.7479 840.01 11.7618 836.923V796.632ZM98.4804 837.051V798.385H13.5204V836.923C13.4854 839.57 14.5256 842.123 16.4105 844.014C18.2955 845.906 20.8698 846.981 23.5635 847.002H88.4635C94.0186 846.959 98.495 842.513 98.4804 837.051Z" fill="#38363D"/>
<rect x="53.0625" y="818.466" width="5.89999" height="5.85155" rx="0.87" fill="#38363D"/>
<rect x="53.0625" y="831.896" width="5.89999" height="5.85155" rx="0.87" fill="#38363D"/>
<rect x="53.0625" y="805.01" width="5.89999" height="5.85156" rx="0.87" fill="#38363D"/>
<rect x="66.6211" y="818.466" width="5.89999" height="5.85155" rx="0.87" fill="#38363D"/>
<rect x="66.6211" y="831.896" width="5.89999" height="5.85155" rx="0.87" fill="#38363D"/>
<rect x="66.6211" y="805.01" width="5.89999" height="5.85156" rx="0.87" fill="#38363D"/>
<rect x="25.8984" y="818.466" width="5.9" height="5.85155" rx="0.87" fill="#38363D"/>
<rect x="25.8984" y="831.896" width="5.9" height="5.85155" rx="0.87" fill="#38363D"/>
<rect x="25.9219" y="805.01" width="5.9" height="5.85156" rx="0.87" fill="#38363D"/>
<rect x="39.4805" y="818.466" width="5.9" height="5.85155" rx="0.87" fill="#38363D"/>
<rect x="39.4805" y="831.896" width="5.9" height="5.85155" rx="0.87" fill="#38363D"/>
<rect x="39.4805" y="805.01" width="5.9" height="5.85156" rx="0.87" fill="#38363D"/>
<rect x="80.1758" y="818.466" width="5.9" height="5.85155" rx="0.87" fill="#38363D"/>
<rect x="80.2031" y="831.896" width="5.89999" height="5.85155" rx="0.87" fill="#38363D"/>
<rect x="80.1758" y="805.01" width="5.9" height="5.85156" rx="0.87" fill="#38363D"/>
<path d="M312.983 828.89V857.4" stroke="#38363D" stroke-width="2" stroke-linecap="round" stroke-linejoin="round"/>
<path d="M297.484 857.4H328.505" stroke="#38363D" stroke-width="2" stroke-linecap="round" stroke-linejoin="round"/>
<path d="M298.824 810.072C300.476 818.888 306.219 825.384 312.984 825.384C319.75 825.384 325.518 818.888 327.17 810.072H298.824Z" fill="#38363D"/>
<path fill-rule="evenodd" clip-rule="evenodd" d="M321.007 788.135C321 785.546 321.717 783.005 323.079 780.789H302.363C297.664 787.981 295.044 796.295 294.785 804.839C294.785 818.141 302.94 828.89 312.983 828.89C323.026 828.89 331.339 818.141 331.339 804.839C331.339 803.739 331.286 802.657 331.182 801.591C325.151 799.79 321.023 794.331 321.007 788.135V788.135Z" stroke="#38363D" stroke-width="2" stroke-linecap="round" stroke-linejoin="round"/>
<path fill-rule="evenodd" clip-rule="evenodd" d="M335.273 796.977C331.395 796.933 327.979 794.458 326.79 790.829C325.601 787.199 326.905 783.229 330.029 780.969V769.782C330.029 766.934 332.377 764.626 335.273 764.626C338.169 764.626 340.517 766.934 340.517 769.782V780.969C343.641 783.229 344.945 787.199 343.756 790.829C342.567 794.458 339.151 796.933 335.273 796.977V796.977Z" stroke="#38363D" stroke-width="2" stroke-linecap="round" stroke-linejoin="round"/>
<path d="M336.872 783.134V769.781C336.872 769.22 336.567 768.701 336.072 768.42C335.577 768.139 334.967 768.139 334.472 768.42C333.978 768.701 333.673 769.22 333.673 769.781V783.134C331.212 783.909 329.692 786.33 330.091 788.84C330.489 791.35 332.688 793.2 335.272 793.2C337.856 793.2 340.055 791.35 340.454 788.84C340.853 786.33 339.333 783.909 336.872 783.134Z" fill="#38363D"/>
<path d="M345.156 768.905H351.214" stroke="#38363D" stroke-width="2" stroke-linecap="round"/>
<path d="M345.156 774.37H351.214" stroke="#38363D" stroke-width="2" stroke-linecap="round"/>
<path fill-rule="evenodd" clip-rule="evenodd" d="M836.999 601.409C843.829 601.409 849.366 595.872 849.366 589.042C849.366 582.213 843.829 576.676 836.999 576.676C830.17 576.676 824.633 582.213 824.633 589.042C824.633 595.872 830.17 601.409 836.999 601.409Z" stroke="#38363D" stroke-width="2" stroke-linecap="round" stroke-linejoin="round"/>
<path fill-rule="evenodd" clip-rule="evenodd" d="M851.839 576.676C858.669 576.676 864.206 571.139 864.206 564.309C864.206 557.479 858.669 551.942 851.839 551.942C845.009 551.942 839.473 557.479 839.473 564.309C839.473 571.139 845.009 576.676 851.839 576.676Z" stroke="#38363D" stroke-width="2" stroke-linecap="round" stroke-linejoin="round"/>
<path fill-rule="evenodd" clip-rule="evenodd" d="M836.999 551.942C843.829 551.942 849.366 546.406 849.366 539.576C849.366 532.746 843.829 527.209 836.999 527.209C830.17 527.209 824.633 532.746 824.633 539.576C824.633 546.406 830.17 551.942 836.999 551.942Z" stroke="#38363D" stroke-width="2" stroke-linecap="round" stroke-linejoin="round"/>
<path fill-rule="evenodd" clip-rule="evenodd" d="M866.679 551.942C873.509 551.942 879.046 546.406 879.046 539.576C879.046 532.746 873.509 527.209 866.679 527.209C859.849 527.209 854.312 532.746 854.312 539.576C854.312 546.406 859.849 551.942 866.679 551.942Z" stroke="#38363D" stroke-width="2" stroke-linecap="round" stroke-linejoin="round"/>
<path fill-rule="evenodd" clip-rule="evenodd" d="M807.32 551.942C814.15 551.942 819.686 546.406 819.686 539.576C819.686 532.746 814.15 527.209 807.32 527.209C800.49 527.209 794.953 532.746 794.953 539.576C794.953 546.406 800.49 551.942 807.32 551.942Z" stroke="#38363D" stroke-width="2" stroke-linecap="round" stroke-linejoin="round"/>
<path d="M837 519.2C839.26 516.511 840.358 513.034 840.053 509.535C839.748 506.036 838.065 502.802 835.375 500.544" stroke="#38363D" stroke-width="2" stroke-linecap="round" stroke-linejoin="round"/>
<path fill-rule="evenodd" clip-rule="evenodd" d="M822.16 576.676C828.99 576.676 834.526 571.139 834.526 564.309C834.526 557.479 828.99 551.942 822.16 551.942C815.33 551.942 809.793 557.479 809.793 564.309C809.793 571.139 815.33 576.676 822.16 576.676Z" stroke="#38363D" stroke-width="2" stroke-linecap="round" stroke-linejoin="round"/>
</g>
<defs>
<clipPath id="clip0_541_5292">
<rect width="1100" height="869" fill="white"/>
</clipPath>
</defs>
</svg>
