<svg width="1200" height="616" viewBox="0 0 1200 616" fill="none" xmlns="http://www.w3.org/2000/svg">
<g clip-path="url(#clip0_481_3564)">
<rect width="1200" height="616" fill="white"/>
<path fill-rule="evenodd" clip-rule="evenodd" d="M31.2035 55.1001C31.2035 70.5001 39.2225 91.9751 52.297 91.9751C54.127 91.953 55.9296 91.5262 57.5766 90.7251C60.256 89.2619 62.5649 87.2006 64.3255 84.7001C66.386 81.8605 68.061 78.7583 69.3062 75.4751C71.0458 71.0764 72.2175 66.4724 72.7927 61.7751C73.0861 59.3534 73.2109 56.9142 73.1663 54.4751V51.7751C73.0341 49.5187 73.0341 47.2565 73.1663 45.0001V44.9251C76.3851 47.4782 80.3703 48.8617 84.4726 48.8501C92.6457 48.8251 99.8203 43.3851 102.08 35.5001C102.15 35.1772 102.057 34.8403 101.83 34.6001C97.9002 30.8342 92.5131 29.0041 87.1124 29.6001C86.3902 29.7001 85.6929 29.8251 84.9956 29.9751C84.3131 30.149 83.6398 30.3576 82.9784 30.6001C82.32 30.8279 81.6791 31.1036 81.0608 31.4251C80.4416 31.7273 79.8426 32.0697 79.2677 32.4501C78.6994 32.8301 78.1508 33.2389 77.6241 33.6751C77.0947 34.116 76.5877 34.5832 76.1049 35.0751C75.6303 35.5768 75.1814 36.1025 74.7601 36.6501C74.336 37.1924 73.9451 37.7601 73.5897 38.3501C73.241 38.9501 72.7927 39.7751 72.6184 40.1751C72.4441 40.5751 72.2698 41.0001 72.1204 41.4001C71.8002 41.069 71.5008 40.7183 71.2238 40.3501L70.7257 39.6501C68.8376 36.4639 66.1043 33.8672 62.8313 32.1501C60.5802 31.1967 58.1932 30.6061 55.7586 30.4001C53.5139 30.1877 51.2544 30.1877 49.0097 30.4001C44.9707 30.5524 41.0903 32.0176 37.9524 34.5751C36.6708 35.8367 35.5117 37.218 34.4908 38.7001C33.5938 40.0022 32.5856 41.2235 31.4775 42.3501C27.3613 46.2792 21.5201 47.8045 16.0185 46.3869C10.5168 44.9693 6.12952 40.8086 4.40714 35.3751C7.40206 32.6493 11.2973 31.1351 15.3399 31.1251C19.4256 31.1277 23.3652 32.6508 26.3971 35.4001C26.5611 35.5681 26.7855 35.6627 27.0197 35.6627C27.254 35.6627 27.4784 35.5681 27.6423 35.4001C27.8111 35.2312 27.906 35.0018 27.906 34.7626C27.906 34.5234 27.8111 34.294 27.6423 34.1251C20.5286 27.7029 9.69674 27.8334 2.73859 34.4251C2.51632 34.6675 2.42366 35.0023 2.48956 35.3251C4.21374 41.6106 9.12245 46.5109 15.3932 48.2067C21.664 49.9025 28.3606 48.1406 32.9966 43.5751C34.182 42.3746 35.2572 41.0694 36.2092 39.6751C37.1666 38.3005 38.2416 37.0123 39.4218 35.8251C42.262 33.5528 45.7538 32.2559 49.3833 32.1251C51.512 31.9251 53.6547 31.9251 55.7835 32.1251C58.0285 32.3278 60.2292 32.8759 62.3083 33.7501C65.2831 35.3022 67.7671 37.6573 69.4806 40.5501L69.9786 41.2501C70.5238 41.947 71.1145 42.6068 71.7468 43.2251C71.7292 43.3252 71.7088 43.4282 71.688 43.5336C71.6203 43.8754 71.5476 44.2429 71.5476 44.6251C71.4027 46.9728 71.4027 49.3273 71.5476 51.6751V54.3501C71.5918 56.6977 71.467 59.0455 71.174 61.3751C70.6257 65.9266 69.4957 70.3883 67.812 74.6501C66.6441 77.7873 65.052 80.7484 63.0803 83.4501C61.4968 85.7253 59.408 87.5996 56.9789 88.9251C55.5335 89.6849 53.9285 90.0877 52.297 90.1001C41.4141 90.1001 32.9966 71.3251 32.9966 55.1001C32.9966 54.603 32.5952 54.2001 32.1001 54.2001C31.6049 54.2001 31.2035 54.603 31.2035 55.1001ZM88.8431 46.2582C83.4707 47.74 77.7162 46.4021 73.5399 42.7001L73.6146 42.4751C73.7937 41.9194 74.01 41.3765 74.2621 40.8501C74.5179 40.2742 74.809 39.7148 75.1337 39.1751C75.4536 38.6474 75.8028 38.1383 76.1797 37.6501C76.5595 37.1525 76.9669 36.6767 77.3999 36.2251C77.8239 35.7828 78.2729 35.3655 78.7447 34.9751C79.2428 34.5751 79.7409 34.2001 80.239 33.8751C80.7695 33.529 81.3181 33.2119 81.8826 32.9251C82.4419 32.6451 83.0155 32.3947 83.601 32.1751C84.1944 31.959 84.8018 31.7836 85.4189 31.6501C86.0396 31.4831 86.6725 31.366 87.3116 31.3001C91.9833 30.7348 96.6719 32.2096 100.187 35.3501C98.4811 40.6745 94.2155 44.7763 88.8431 46.2582Z" fill="#38363D"/>
<path d="M39.8443 35.0002H39.67C33.9575 33.7854 28.9664 30.3273 25.8087 25.3964C22.6511 20.4655 21.5893 14.4716 22.86 8.75024C22.9078 8.5139 23.0481 8.3067 23.2494 8.1751C23.4507 8.04351 23.6962 7.99852 23.9309 8.05024C24.1652 8.09758 24.37 8.23949 24.4971 8.44274C24.6242 8.646 24.6626 8.89275 24.6033 9.12524C22.2782 20.0167 29.1744 30.7421 40.0187 33.1002C40.4992 33.2119 40.7997 33.6922 40.6911 34.1752C40.6653 34.6294 40.2973 34.988 39.8443 35.0002Z" fill="#38363D"/>
<path d="M64.7478 35.0001C64.2527 35.0553 63.8067 34.6971 63.7517 34.2001C63.6967 33.703 64.0535 33.2553 64.5486 33.2001C75.3912 30.8426 82.2801 20.1112 79.9391 9.22507C79.8876 8.98951 79.9324 8.74306 80.0635 8.54097C80.1946 8.33887 80.401 8.19805 80.6364 8.15007C81.1201 8.06971 81.5848 8.3735 81.7073 8.85007C84.2505 20.7133 76.7559 32.4067 64.9471 35.0001H64.7478Z" fill="#38363D"/>
<path fill-rule="evenodd" clip-rule="evenodd" d="M823.152 45.725C823.152 49.9914 826.611 53.45 830.877 53.45C835.144 53.45 838.602 49.9914 838.602 45.725C838.602 41.4586 835.144 38 830.877 38C826.611 38 823.152 41.4586 823.152 45.725ZM825.36 43.4615C826.287 41.2358 828.466 39.7899 830.877 39.8C834.144 39.8137 836.789 42.4584 836.802 45.725C836.812 48.1361 835.366 50.3149 833.141 51.2422C830.915 52.1696 828.35 51.6621 826.645 49.9572C824.94 48.2523 824.433 45.6871 825.36 43.4615Z" fill="#38363D"/>
<path fill-rule="evenodd" clip-rule="evenodd" d="M850.152 60.1163C850.161 63.6207 852.997 66.4609 856.502 66.475C858.214 66.482 859.857 65.7996 861.061 64.5816C862.265 63.3636 862.928 61.7124 862.902 60.0001C862.847 56.496 859.974 53.6934 856.469 53.7254C852.965 53.7573 850.143 56.6118 850.152 60.1163ZM852.284 58.3904C852.978 56.6678 854.644 55.5356 856.502 55.5251C858.999 55.5108 861.047 57.5027 861.102 60.0001C861.142 61.8567 860.056 63.5537 858.353 64.2949C856.651 65.036 854.669 64.6742 853.338 63.3792C852.006 62.0843 851.59 60.1131 852.284 58.3904Z" fill="#38363D"/>
<path fill-rule="evenodd" clip-rule="evenodd" d="M817.753 80.9775C818.623 83.0794 820.674 84.4499 822.949 84.4499C826.056 84.4499 828.574 81.9315 828.574 78.8249C828.574 76.5498 827.204 74.4987 825.102 73.628C823 72.7574 820.581 73.2387 818.972 74.8474C817.363 76.4561 816.882 78.8755 817.753 80.9775ZM819.124 78.8249C819.124 76.7124 820.837 74.9999 822.949 74.9999C825.056 75.0135 826.761 76.7181 826.774 78.8249C826.774 80.9374 825.062 82.6499 822.949 82.6499C820.837 82.6499 819.124 80.9374 819.124 78.8249Z" fill="#38363D"/>
<path fill-rule="evenodd" clip-rule="evenodd" d="M794.76 46.0664C795.436 47.6848 797.022 48.7349 798.776 48.7248C801.145 48.7111 803.062 46.7939 803.076 44.4248C803.086 42.671 802.036 41.0847 800.418 40.4088C798.799 39.733 796.933 40.1014 795.693 41.3416C794.453 42.5817 794.084 44.4481 794.76 46.0664ZM796.276 44.3998C796.276 43.019 797.395 41.8998 798.776 41.8998C800.157 41.8998 801.276 43.019 801.276 44.3998C801.276 45.7805 800.157 46.8998 798.776 46.8998C797.395 46.8998 796.276 45.7805 796.276 44.3998Z" fill="#38363D"/>
<path fill-rule="evenodd" clip-rule="evenodd" d="M863.852 35.8999C863.852 39.0065 866.37 41.5249 869.477 41.5249C872.583 41.5249 875.102 39.0065 875.102 35.8999C875.102 32.7933 872.583 30.2749 869.477 30.2749C866.37 30.2749 863.852 32.7933 863.852 35.8999ZM865.652 35.8999C865.652 33.7874 867.364 32.0749 869.477 32.0749C871.583 32.0885 873.288 33.7931 873.302 35.8999C873.302 38.0124 871.589 39.7249 869.477 39.7249C867.364 39.7249 865.652 38.0124 865.652 35.8999Z" fill="#38363D"/>
<path d="M784.9 95.5999C784.68 95.601 784.466 95.521 784.3 95.3749C784.103 95.2074 783.992 94.9589 784 94.6999V73.0249C784 73.0249 784 72.8499 784 72.7999C784.089 72.3178 784.539 71.9888 785.025 72.0499C785.342 72.0747 785.659 72.0747 785.975 72.0499C789.105 71.8467 791.54 69.2488 791.54 66.1124C791.54 62.9759 789.105 60.3781 785.975 60.1749C785.659 60.1491 785.342 60.1491 785.025 60.1749C784.544 60.2508 784.089 59.9293 784 59.4499V37.1749C784 36.6778 784.403 36.2749 784.9 36.2749C785.397 36.2749 785.8 36.6778 785.8 37.1749V58.4499C787.882 58.4165 789.891 59.2166 791.379 60.6722C792.868 62.1278 793.712 64.118 793.725 66.1999C793.712 70.4606 790.261 73.9112 786 73.9249H785.8V93.6749L882.2 81.3749V23.4499L787.2 32.0499C786.251 32.2173 785.327 31.6479 785.05 30.7249C784.886 29.8897 785.384 29.0668 786.2 28.8249L860.875 4.42489H861.15C869.75 4.08151 878.055 7.59217 883.8 13.9999C884.072 14.3882 883.996 14.9204 883.627 15.2172C883.257 15.514 882.721 15.4736 882.4 15.1249C877 9.22235 869.297 5.96409 861.3 6.19989L787.95 30.1999L882.95 21.5749C883.206 21.536 883.465 21.6193 883.65 21.7999C883.865 21.9699 883.993 22.2263 884 22.4999V82.1749C883.992 82.6311 883.653 83.0133 883.2 83.0749L785.025 95.5749L784.9 95.5999Z" fill="#38363D"/>
<path fill-rule="evenodd" clip-rule="evenodd" d="M277.649 36.4249C277.937 63.6764 300.096 85.6241 327.349 85.6499C335.591 85.6433 343.492 82.363 349.315 76.5306C355.138 70.6982 358.406 62.7915 358.399 54.5499C358.404 51.7449 357.799 48.9723 356.624 46.4249C356.486 46.1067 356.172 45.9007 355.824 45.8999H352.974C353.35 43.9298 353.401 41.9114 353.124 39.9249C353.063 39.4866 352.692 39.1579 352.249 39.1499H311.499C311.002 39.1499 310.599 39.5529 310.599 40.0499C310.599 40.547 311.002 40.9499 311.499 40.9499H351.424C351.579 42.6211 351.486 44.3058 351.149 45.9499H318.374C315.954 45.635 313.504 46.2321 311.499 47.6249C309.848 48.9116 308.713 50.7477 308.299 52.7999C307.842 55.1103 308.357 57.5071 309.724 59.4249C312.199 62.3554 315.656 64.2839 319.449 64.8499C322.599 65.5474 325.838 65.7498 329.049 65.4499C339.899 64.3499 349.549 57.1749 352.524 47.9499V47.7499H355.124C356.039 49.9176 356.506 52.2474 356.499 54.5999C356.486 70.7137 343.463 83.7924 327.349 83.8749C300.877 83.8749 279.413 62.4222 279.399 35.9499C279.401 35.6553 279.249 35.3809 278.999 35.2249L272.199 30.4999L278.899 26.6249C279.184 26.4605 279.357 26.1538 279.349 25.8249V24.4499C279.121 18.7412 282.036 13.3654 286.945 10.4429C291.854 7.52044 297.97 7.52044 302.879 10.4429C307.788 13.3654 310.703 18.7412 310.474 24.4499C310.474 24.947 310.877 25.3499 311.374 25.3499C311.871 25.3499 312.274 24.947 312.274 24.4499C311.92 15.1171 304.251 7.73389 294.912 7.73389C285.572 7.73389 277.904 15.1171 277.549 24.4499V25.3499L270.049 29.6499C269.772 29.7977 269.599 30.086 269.599 30.3999C269.58 30.7061 269.722 31.0002 269.974 31.1749L277.649 36.4249ZM312.499 49.0499C314.125 47.9875 316.068 47.5195 317.999 47.7249L318.099 47.7499H350.599C347.399 57.0999 337.274 62.7749 328.799 63.5999C325.78 63.8843 322.734 63.6903 319.774 63.0249C316.411 62.5541 313.331 60.8852 311.099 58.3249C310.022 56.8122 309.623 54.9188 309.999 53.0999C310.33 51.4978 311.215 50.0636 312.499 49.0499Z" fill="#38363D"/>
<path fill-rule="evenodd" clip-rule="evenodd" d="M281.076 15.4502C281.248 15.605 281.469 15.6937 281.701 15.7002H281.776C282.034 15.6669 282.268 15.5319 282.426 15.3252C283.974 13.1711 286.048 11.4497 288.451 10.3252C288.898 10.1161 289.357 9.93247 289.826 9.77516C293.191 8.5876 296.861 8.5876 300.226 9.77516C300.676 9.92515 301.126 10.1251 301.576 10.3251L301.576 10.3252C303.974 11.4572 306.046 13.1772 307.601 15.3252C307.755 15.5364 307.991 15.6726 308.251 15.7002C308.507 15.705 308.756 15.6161 308.951 15.4502C310.648 13.7986 311.177 11.2837 310.288 9.08854C309.399 6.89338 307.269 5.45504 304.901 5.45016C304.146 5.44078 303.398 5.58539 302.701 5.87516C301.729 2.42705 298.583 0.0454102 295.001 0.0454102C291.418 0.0454102 288.273 2.42705 287.301 5.87516C286.605 5.58123 285.856 5.43645 285.101 5.45016C282.737 5.46513 280.617 6.90716 279.734 9.10005C278.851 11.2929 279.381 13.8018 281.076 15.4502ZM300.801 8.10016C298.938 7.44177 296.977 7.10366 295.001 7.10016C293.033 7.10648 291.081 7.44455 289.226 8.10016C288.706 8.27814 288.196 8.48684 287.701 8.72516C285.378 9.80714 283.321 11.386 281.676 13.3502C281.27 12.7153 281.054 11.9784 281.051 11.2252C281.051 10.1444 281.48 9.10791 282.244 8.3437C283.009 7.57949 284.045 7.15016 285.126 7.15016C285.96 7.15325 286.772 7.41532 287.451 7.90016C287.732 8.05128 288.07 8.05128 288.351 7.90016C288.629 7.7661 288.825 7.50499 288.876 7.20016C289.223 4.05861 291.878 1.68103 295.038 1.68103C298.199 1.68103 300.854 4.05861 301.201 7.20016C301.252 7.50499 301.447 7.7661 301.726 7.90016C301.998 8.05148 302.329 8.05148 302.601 7.90016C303.283 7.42254 304.093 7.16122 304.926 7.15016C307.176 7.15016 309.001 8.9746 309.001 11.2252C308.993 11.9813 308.768 12.7192 308.351 13.3502C306.707 11.3947 304.66 9.81709 302.351 8.72516C301.851 8.50016 301.326 8.27516 300.801 8.10016Z" fill="#38363D"/>
<path d="M324.002 100H311.502C311.005 100 310.602 99.5971 310.602 99.1C310.602 98.6029 311.005 98.2 311.502 98.2H323.077V84.775C323.077 84.2779 323.48 83.875 323.977 83.875C324.474 83.875 324.877 84.2779 324.877 84.775V99.1C324.877 99.5875 324.489 99.9865 324.002 100V100Z" fill="#38363D"/>
<path d="M583.181 77.3248H562.105C561.609 77.3113 561.215 76.9011 561.215 76.3998C561.215 75.9027 561.613 75.4998 562.105 75.4998H583.156C598.196 75.4998 610.367 64.0498 610.367 49.9998C610.367 35.9498 598.221 24.4998 583.181 24.4998H547.263C536.008 24.4998 526.806 35.9498 526.806 49.9998C526.806 64.0498 536.008 75.4998 547.263 75.4998C556.144 75.4998 564.01 68.4498 566.781 57.9998C568.166 52.7754 568.166 47.2742 566.781 42.0498C565.717 37.943 563.708 34.1483 560.918 30.9748C560.701 30.7381 560.626 30.4027 560.721 30.0948C560.815 29.787 561.065 29.5535 561.376 29.4823C561.687 29.4111 562.012 29.5131 562.229 29.7498C565.238 33.1207 567.394 37.1781 568.512 41.5748C569.964 47.1126 569.964 52.937 568.512 58.4748C565.618 69.7248 557.158 77.3248 547.263 77.3248C534.895 77.3248 525 65.0498 525 49.9998C525 34.9498 535.018 22.6748 547.263 22.6748H583.181C599.211 22.6748 612.247 34.9998 612.247 49.9998C612.247 64.9998 599.211 77.3248 583.181 77.3248Z" fill="#38363D"/>
<path fill-rule="evenodd" clip-rule="evenodd" d="M546.719 59.7749C546.719 62.3983 548.823 64.5249 551.419 64.5249C554.014 64.5249 556.119 62.3983 556.119 59.7749C556.119 57.1515 554.014 55.0249 551.419 55.0249C548.823 55.0249 546.719 57.1515 546.719 59.7749ZM548.743 58.6864C549.189 57.5903 550.246 56.8749 551.419 56.8749C552.184 56.8682 552.92 57.1708 553.464 57.7154C554.007 58.26 554.313 59.0014 554.313 59.7749C554.323 60.9602 553.624 62.0344 552.544 62.495C551.463 62.9556 550.214 62.7116 549.381 61.877C548.548 61.0425 548.296 59.7825 548.743 58.6864Z" fill="#38363D"/>
<path fill-rule="evenodd" clip-rule="evenodd" d="M533.09 49.9999C533.09 52.6094 535.183 54.7249 537.765 54.7249C539.005 54.7249 540.194 54.2271 541.071 53.341C541.948 52.4549 542.44 51.2531 542.44 49.9999C542.44 47.3904 540.347 45.2749 537.765 45.2749C535.183 45.2749 533.09 47.3904 533.09 49.9999ZM534.871 49.9999C534.871 48.3845 536.167 47.0749 537.765 47.0749C539.364 47.0749 540.659 48.3845 540.659 49.9999C540.659 51.6153 539.364 52.9249 537.765 52.9249C536.167 52.9249 534.871 51.6153 534.871 49.9999Z" fill="#38363D"/>
<path fill-rule="evenodd" clip-rule="evenodd" d="M547.031 42.0794C547.764 43.8566 549.487 45.0102 551.393 45.0001C553.969 44.9864 556.055 42.8789 556.068 40.2751C556.078 38.3494 554.937 36.6081 553.178 35.8665C551.42 35.1249 549.392 35.5297 548.045 36.8914C546.697 38.2531 546.297 40.3022 547.031 42.0794ZM548.701 39.1383C549.157 38.0461 550.22 37.3399 551.393 37.3501V37.3001C552.165 37.3066 552.902 37.6246 553.441 38.1833C553.98 38.7419 554.275 39.495 554.262 40.2751C554.262 41.4604 553.554 42.5285 552.47 42.9797C551.385 43.431 550.139 43.1761 549.313 42.3344C548.487 41.4926 548.246 40.2305 548.701 39.1383Z" fill="#38363D"/>
<path d="M623.058 59.5251C617.852 59.5251 613.633 55.2606 613.633 50.0001C613.633 44.7396 617.852 40.4751 623.058 40.4751C623.549 40.4751 623.948 40.878 623.948 41.3751C623.948 41.8722 623.549 42.2751 623.058 42.2751C618.836 42.2751 615.414 45.7337 615.414 50.0001C615.414 54.2665 618.836 57.7251 623.058 57.7251C623.549 57.7251 623.948 58.128 623.948 58.6251C623.948 59.1222 623.549 59.5251 623.058 59.5251Z" fill="#38363D"/>
<path d="M42.501 328.225C26.926 328.225 11.876 320.225 1.25104 306.25C-0.250347 304.177 -0.250347 301.374 1.25104 299.3C9.47914 287.874 21.8711 280.142 35.751 277.775C36.0132 277.749 36.2747 277.83 36.476 278C36.663 278.175 36.7712 278.419 36.776 278.675V285.15C36.8016 286.356 36.4617 287.541 35.801 288.55C34.7762 290.059 34.7762 292.041 35.801 293.55C36.4575 294.561 36.797 295.745 36.776 296.95C36.7981 298.148 36.4583 299.324 35.801 300.325C35.287 301.055 35.0239 301.933 35.051 302.825C35.0183 303.718 35.282 304.597 35.801 305.325C36.4583 306.326 36.7981 307.503 36.776 308.7C36.797 309.905 36.4575 311.089 35.801 312.1C34.7762 313.609 34.7762 315.591 35.801 317.1C36.4575 318.111 36.797 319.295 36.776 320.5C36.776 320.997 36.3731 321.4 35.876 321.4C35.379 321.4 34.976 320.997 34.976 320.5C35.0035 319.611 34.7498 318.736 34.251 318C33.5727 316.998 33.2231 315.81 33.251 314.6C33.2281 313.391 33.5772 312.204 34.251 311.2C35.2423 309.681 35.2423 307.719 34.251 306.2C32.9209 304.138 32.9209 301.488 34.251 299.425C35.2423 297.906 35.2423 295.944 34.251 294.425C33.5772 293.421 33.2281 292.234 33.251 291.025C33.2234 289.823 33.5731 288.643 34.251 287.65C34.7452 286.912 34.9985 286.038 34.976 285.15V279.725C21.9104 282.207 10.2904 289.596 2.50104 300.375C1.48617 301.805 1.48617 303.72 2.50104 305.15C12.801 318.675 27.301 326.425 42.326 326.425C56.5191 326.163 69.9072 319.783 79.051 308.925C79.2295 308.745 79.4725 308.644 79.726 308.644C79.9796 308.644 80.2226 308.745 80.401 308.925C84.9112 314.071 90.3577 318.312 96.451 321.425C93.1163 315.771 91.3876 309.314 91.451 302.75C91.3767 296.177 93.106 289.709 96.451 284.05C90.3458 287.155 84.8898 291.398 80.376 296.55C80.1976 296.73 79.9546 296.832 79.701 296.832C79.4475 296.832 79.2045 296.73 79.026 296.55C78.476 295.925 77.901 295.325 77.326 294.725C68.7919 285.477 57.0121 279.887 44.451 279.125C44.1031 279.1 43.8011 278.876 43.676 278.55C43.5334 278.215 43.613 277.827 43.876 277.575C47.0298 274.032 51.4867 271.921 56.226 271.725C62.151 271.725 67.951 275.625 73.001 283C73.283 283.408 73.1824 283.966 72.776 284.25C72.5772 284.383 72.3337 284.431 72.0992 284.385C71.8646 284.338 71.6584 284.199 71.526 284C64.026 272.975 55.001 270.625 46.726 277.5C58.9629 278.786 70.3165 284.472 78.676 293.5L79.776 294.625C85.0611 288.799 91.5307 284.171 98.751 281.05C99.1249 280.904 99.5503 281.023 99.7939 281.342C100.037 281.661 100.04 282.103 99.801 282.425C95.4623 288.306 93.1624 295.443 93.251 302.75C93.1587 310.051 95.4593 317.18 99.801 323.05C100.051 323.374 100.051 323.826 99.801 324.15C99.5628 324.482 99.1216 324.598 98.751 324.425C91.5222 321.319 85.0496 316.689 79.776 310.85C70.3518 321.632 56.8183 327.94 42.501 328.225Z" fill="#38363D"/>
<path d="M44.1247 319.075C43.6276 319.075 43.2247 318.672 43.2247 318.175C43.2466 317.418 43.0277 316.674 42.5997 316.05C42.0126 315.152 41.7078 314.098 41.7247 313.025C41.6718 311.961 41.942 310.907 42.4997 310C42.9246 309.374 43.1432 308.631 43.1247 307.875C43.1466 307.118 42.9277 306.374 42.4997 305.75C41.3334 303.911 41.3334 301.564 42.4997 299.725C43.335 298.44 43.335 296.784 42.4997 295.5C41.3351 293.651 41.3351 291.298 42.4997 289.45C42.9242 288.833 43.143 288.098 43.1247 287.35C43.1661 286.832 43.6194 286.446 44.1372 286.487C44.655 286.529 45.0411 286.982 44.9997 287.5C45.036 288.568 44.7294 289.619 44.1247 290.5C43.2894 291.784 43.2894 293.44 44.1247 294.725C45.2893 296.573 45.2893 298.926 44.1247 300.775C43.2894 302.059 43.2894 303.715 44.1247 305C45.2893 306.848 45.2893 309.201 44.1247 311.05C43.2894 312.334 43.2894 313.99 44.1247 315.275C44.6991 316.133 45.0038 317.143 44.9997 318.175C44.9999 318.662 44.612 319.061 44.1247 319.075Z" fill="#38363D"/>
<path d="M51.1994 316.875C50.7024 316.875 50.2994 316.472 50.2994 315.975C50.3123 315.351 50.1286 314.739 49.7744 314.225C49.2566 313.439 48.9866 312.516 48.9994 311.575C48.977 310.633 49.2478 309.707 49.7744 308.925C50.1286 308.411 50.3123 307.799 50.2994 307.175C50.3158 306.551 50.1318 305.938 49.7744 305.425C49.2523 304.641 48.9819 303.717 48.9994 302.775C48.9625 301.792 49.2335 300.822 49.7744 300C50.4711 298.947 50.4711 297.579 49.7744 296.525C48.7506 294.898 48.7506 292.828 49.7744 291.2C50.1331 290.698 50.3175 290.092 50.2994 289.475C50.2994 288.978 50.7024 288.575 51.1994 288.575C51.6965 288.575 52.0994 288.978 52.0994 289.475C52.0949 290.414 51.8263 291.332 51.3244 292.125C50.6277 293.179 50.6277 294.547 51.3244 295.6C51.8422 296.386 52.1122 297.309 52.0994 298.25C52.0996 299.197 51.8309 300.125 51.3244 300.925C50.6277 301.979 50.6277 303.347 51.3244 304.4C51.8456 305.194 52.1157 306.126 52.0994 307.075C52.1047 308.015 51.8354 308.936 51.3244 309.725C50.6233 310.787 50.6233 312.164 51.3244 313.225C51.8394 314.012 52.1092 314.935 52.0994 315.875C52.128 316.131 52.0459 316.386 51.874 316.577C51.702 316.768 51.4565 316.877 51.1994 316.875Z" fill="#38363D"/>
<path d="M312.947 324.45H311.38C300.073 324.275 286.025 322.25 282.722 313.55C282.43 312.561 282.282 311.533 282.281 310.5C282.357 307.761 283.088 305.083 284.41 302.7C285.708 300.223 287.357 297.957 289.305 295.975C283.8 291.4 281.418 283.963 283.211 276.95C281.914 274.079 281.914 270.771 283.211 267.9C283.737 266.739 284.457 265.682 285.34 264.775C287.479 262.64 290.379 261.493 293.368 261.6C293.66 261.614 293.927 261.776 294.079 262.031C294.231 262.287 294.249 262.603 294.126 262.875C293.049 265.375 293.025 267.45 294.126 268.5C295.228 269.55 297.308 269.55 299.657 268.5C299.923 268.375 300.233 268.393 300.483 268.548C300.733 268.704 300.892 268.976 300.905 269.275C301.05 272.53 299.762 275.681 297.393 277.863C295.024 280.046 291.824 281.032 288.669 280.55C288.669 280.925 288.669 281.325 288.669 281.725C288.813 283.835 289.459 285.878 290.553 287.675C290.68 287.873 290.723 288.115 290.672 288.346C290.621 288.576 290.481 288.776 290.284 288.9C290.086 289.031 289.846 289.075 289.616 289.023C289.386 288.972 289.186 288.828 289.06 288.625C287.816 286.58 287.085 284.253 286.931 281.85C286.856 281.018 286.856 280.181 286.931 279.35C286.958 279.09 287.091 278.854 287.298 278.7C287.513 278.549 287.782 278.504 288.032 278.575C291.081 279.292 294.275 278.346 296.476 276.075C297.891 274.567 298.755 272.607 298.923 270.525C296.869 271.497 294.45 271.176 292.707 269.7C291.262 267.919 290.948 265.449 291.899 263.35C288.993 263.637 286.409 265.362 284.983 267.965C283.558 270.568 283.472 273.72 284.753 276.4C284.824 276.602 284.824 276.823 284.753 277.025C284.356 278.491 284.15 280.004 284.141 281.525C284.149 286.868 286.672 291.882 290.92 295C291.169 295.174 291.337 295.445 291.385 295.75C291.385 296.025 291.385 296.375 291.238 296.55C289.146 298.575 287.386 300.93 286.025 303.525C284.852 305.66 284.197 308.052 284.117 310.5C284.113 311.346 284.228 312.188 284.459 313C286.662 319 296.255 322.45 311.38 322.675H315.688C325.844 322.4 338.571 320.525 341.458 313.125C341.692 312.313 341.815 311.471 341.826 310.625C341.28 305.166 338.64 300.15 334.483 296.675C334.285 296.492 334.185 296.222 334.214 295.95C334.234 295.681 334.368 295.434 334.581 295.275L335.291 295.8V295.8L334.973 295C336.93 293.496 338.536 291.566 339.672 289.35C340.899 286.959 341.538 284.299 341.532 281.6C341.535 280.078 341.329 278.563 340.92 277.1C340.849 276.898 340.849 276.677 340.92 276.475C342.077 274.009 342.077 271.141 340.92 268.675C340.473 267.741 339.868 266.894 339.133 266.175C337.657 264.729 335.739 263.846 333.7 263.675C334.646 265.771 334.343 268.234 332.917 270.025C331.164 271.499 328.739 271.82 326.676 270.85C326.927 273.482 328.287 275.873 330.402 277.4C332.516 278.926 335.176 279.437 337.689 278.8C337.94 278.725 338.21 278.771 338.424 278.925C338.626 279.083 338.758 279.317 338.791 279.575C338.815 280.058 338.815 280.542 338.791 281.025C338.791 281.375 338.791 281.7 338.791 282.05C338.464 286.823 335.928 291.151 331.963 293.7C331.612 293.896 331.188 293.896 330.837 293.7C329.148 292.499 327.354 291.461 325.477 290.6C317.371 287.151 308.253 287.151 300.147 290.6C298.276 291.448 296.49 292.478 294.812 293.675C294.413 293.957 293.866 293.856 293.588 293.45C293.449 293.256 293.393 293.013 293.435 292.776C293.477 292.54 293.612 292.332 293.808 292.2C295.577 290.919 297.472 289.83 299.462 288.95C308.003 285.301 317.62 285.301 326.162 288.95C327.971 289.771 329.707 290.75 331.351 291.875C334.633 289.593 336.729 285.917 337.053 281.875C337.053 281.575 337.053 281.275 337.053 280.975V280.5C333.898 280.982 330.698 279.996 328.329 277.813C325.96 275.631 324.671 272.48 324.816 269.225C324.83 268.926 324.988 268.654 325.239 268.498C325.489 268.343 325.798 268.325 326.064 268.45C328.512 269.55 330.543 269.575 331.596 268.45C332.648 267.325 332.599 265.225 331.596 262.825C331.461 262.558 331.461 262.241 331.596 261.975C331.789 261.652 332.168 261.499 332.526 261.6C335.517 261.472 338.426 262.623 340.553 264.775C342.523 266.842 343.621 269.615 343.612 272.5C343.617 274.037 343.291 275.556 342.658 276.95C343.047 278.468 343.244 280.031 343.245 281.6C343.259 284.587 342.553 287.532 341.189 290.175C340.042 292.404 338.469 294.377 336.564 295.975C340.639 299.722 343.161 304.918 343.612 310.5C343.609 311.576 343.452 312.645 343.147 313.675C339.892 322.05 326.456 324.125 315.761 324.4L312.947 324.45Z" fill="#38363D"/>
<path d="M287.079 300.375C277.244 300.361 269.275 292.221 269.262 282.175C269.262 281.678 269.656 281.275 270.143 281.275C270.629 281.275 271.024 281.678 271.024 282.175C271.024 291.232 278.212 298.575 287.079 298.575C287.565 298.575 287.96 298.978 287.96 299.475C287.96 299.972 287.565 300.375 287.079 300.375V300.375Z" fill="#38363D"/>
<path d="M264.881 325C264.404 325 264.013 324.612 264 324.125C264 315.841 270.574 309.125 278.684 309.125C280.266 309.118 281.837 309.38 283.334 309.9C283.558 309.969 283.744 310.128 283.851 310.34C283.957 310.552 283.974 310.8 283.897 311.025C283.735 311.495 283.237 311.75 282.771 311.6C278.82 310.221 274.459 310.874 271.061 313.354C267.663 315.833 265.644 319.834 265.64 324.1C265.644 324.552 265.319 324.937 264.881 325V325Z" fill="#38363D"/>
<path d="M281.474 336.4C281.212 336.392 280.964 336.275 280.789 336.075C278.521 333.258 277.283 329.722 277.289 326.075C277.28 321.311 279.408 316.806 283.065 313.85C283.246 313.696 283.48 313.622 283.715 313.646C283.949 313.669 284.165 313.788 284.313 313.975C284.608 314.371 284.543 314.934 284.166 315.25C281.281 317.558 279.437 320.966 279.059 324.69C278.68 328.414 279.799 332.135 282.159 335C282.492 335.357 282.492 335.918 282.159 336.275C281.954 336.401 281.71 336.445 281.474 336.4Z" fill="#38363D"/>
<path d="M302.008 338.425H301.812C298.004 337.581 294.681 335.226 292.574 331.878C290.468 328.53 289.749 324.464 290.578 320.575C290.625 320.345 290.761 320.144 290.954 320.017C291.147 319.89 291.382 319.848 291.606 319.9C291.838 319.948 292.041 320.089 292.169 320.291C292.298 320.493 292.342 320.74 292.292 320.975C290.788 328.06 295.158 335.057 302.081 336.65C302.545 336.773 302.835 337.245 302.742 337.725C302.664 338.092 302.371 338.371 302.008 338.425V338.425Z" fill="#38363D"/>
<path d="M338.815 300.375C338.328 300.375 337.934 299.972 337.934 299.475C337.934 298.978 338.328 298.575 338.815 298.575C347.681 298.575 354.869 291.232 354.869 282.175C354.869 281.678 355.264 281.275 355.75 281.275C356.237 281.275 356.631 281.678 356.631 282.175C356.618 292.221 348.649 300.361 338.815 300.375V300.375Z" fill="#38363D"/>
<path d="M361.014 325C360.527 325 360.133 324.597 360.133 324.1C360.128 319.834 358.109 315.833 354.711 313.353C351.313 310.874 346.953 310.221 343.001 311.6C342.536 311.75 342.038 311.495 341.875 311.025C341.799 310.8 341.816 310.552 341.922 310.34C342.028 310.128 342.215 309.969 342.438 309.9C343.975 309.367 345.588 309.105 347.211 309.125C355.321 309.125 361.895 315.841 361.895 324.125C361.882 324.612 361.491 325 361.014 325V325Z" fill="#38363D"/>
<path d="M344.421 336.4C344.217 336.395 344.021 336.325 343.858 336.2C343.489 335.877 343.435 335.315 343.735 334.925C346.056 332.067 347.151 328.374 346.774 324.681C346.396 320.988 344.577 317.607 341.729 315.3C341.546 315.149 341.43 314.928 341.407 314.689C341.384 314.449 341.455 314.21 341.606 314.025C341.75 313.84 341.962 313.722 342.192 313.698C342.423 313.675 342.653 313.748 342.83 313.9C346.487 316.856 348.615 321.362 348.606 326.125C348.612 329.773 347.374 333.308 345.106 336.125C344.923 336.307 344.676 336.406 344.421 336.4Z" fill="#38363D"/>
<path d="M323.889 338.425C323.402 338.473 322.969 338.11 322.922 337.613C322.875 337.116 323.231 336.673 323.718 336.625C330.641 335.032 335.011 328.035 333.507 320.95C333.456 320.715 333.5 320.468 333.629 320.266C333.758 320.064 333.961 319.923 334.192 319.875C334.416 319.823 334.652 319.866 334.845 319.992C335.038 320.119 335.173 320.32 335.22 320.55C336.049 324.439 335.331 328.505 333.224 331.853C331.117 335.201 327.794 337.556 323.987 338.4L323.889 338.425Z" fill="#38363D"/>
<path d="M1133.16 85.9498C1133.04 85.9839 1132.91 85.9839 1132.79 85.9498L1114.11 75.2748C1113.81 75.0294 1113.73 74.5997 1113.92 74.2589C1114.11 73.918 1114.52 73.7661 1114.89 73.8998L1133.56 84.5998C1133.74 84.6991 1133.87 84.8676 1133.92 85.0659C1133.98 85.2643 1133.94 85.4753 1133.84 85.6498C1133.68 85.8539 1133.42 85.9659 1133.16 85.9498Z" fill="#38363D"/>
<path d="M1095.81 97.5C1068.41 97.5 1046 82.5 1046 63.875V51.375C1045.99 51.1652 1046.07 50.9616 1046.22 50.8108C1046.36 50.66 1046.56 50.5749 1046.77 50.575C1046.98 50.5749 1047.18 50.66 1047.33 50.8108C1047.47 50.9616 1047.55 51.1652 1047.54 51.375V63.875C1047.54 81.55 1069.19 95.925 1095.81 95.925C1101.84 95.9345 1107.85 95.1699 1113.69 93.65V66.625L1095.14 36.625C1094.96 36.3156 1095.01 35.9289 1095.26 35.675C1095.5 35.4232 1095.88 35.3713 1096.18 35.55L1133.16 56.475C1140.29 50.725 1144.2 43.525 1144.2 36.125C1144.2 18.45 1122.53 4.075 1095.93 4.075C1069.34 4.075 1047.54 18.45 1047.54 36.125C1047.54 53.8 1069.19 68.15 1095.81 68.15C1099 68.1468 1102.18 67.9297 1105.35 67.5C1105.55 67.4717 1105.76 67.5272 1105.92 67.6541C1106.09 67.7811 1106.19 67.9687 1106.22 68.175C1106.26 68.6002 1105.97 68.9856 1105.55 69.05C1102.32 69.4805 1099.06 69.6976 1095.81 69.7C1068.41 69.7 1046 54.7 1046 36.1C1046 17.5 1068.41 2.5 1095.81 2.5C1123.2 2.5 1145.62 17.5 1145.62 36.125C1145.62 44.15 1141.36 51.925 1133.59 58.025C1133.33 58.201 1133 58.201 1132.74 58.025L1098.05 38.3L1115.11 66C1115.19 66.1187 1115.23 66.2575 1115.23 66.4V94.25C1115.23 94.5952 1114.99 94.8945 1114.66 94.975C1108.52 96.6548 1102.18 97.504 1095.81 97.5Z" fill="#38363D"/>
<path fill-rule="evenodd" clip-rule="evenodd" d="M1132.39 85.1748C1132.39 85.6028 1132.74 85.9498 1133.16 85.9498C1133.33 85.9791 1133.5 85.9432 1133.64 85.8498C1141.41 79.7748 1145.66 71.9748 1145.66 63.9498V36.1998C1145.66 35.9229 1145.52 35.6671 1145.28 35.5286C1145.04 35.3902 1144.75 35.3902 1144.51 35.5286C1144.27 35.6671 1144.12 35.9229 1144.12 36.1998C1144.12 43.7498 1140.16 51.0748 1132.69 56.8748C1132.49 57.0216 1132.38 57.255 1132.39 57.4998V85.1748ZM1133.94 83.5248V57.7998H1133.89C1138.44 54.352 1141.98 49.7298 1144.12 44.4248V63.8748C1143.79 71.6153 1140.06 78.8109 1133.94 83.5248Z" fill="#38363D"/>
<path d="M839.251 350H838.826C837.795 349.804 836.996 348.985 836.826 347.95C835.926 342.7 832.451 336.875 828.776 330.7C823.776 322.175 817.901 312.525 816.451 300.9C815.376 291.975 816.501 280 822.601 272.5C825.117 269.391 828.665 267.289 832.601 266.575C833.024 266.486 833.449 266.72 833.601 267.125C833.752 267.521 833.606 267.969 833.251 268.2C832.901 268.425 832.301 268.9 832.301 269.425C832.301 270.425 834.501 271.8 838.076 271.8C841.651 271.8 844.001 270.375 844.001 269.375C844.001 268.375 842.701 267.575 840.276 267.15C839.983 267.109 839.731 266.924 839.605 266.657C839.479 266.389 839.496 266.077 839.651 265.825C840.499 264.296 840.938 262.574 840.926 260.825C841.076 257.451 839.381 254.263 836.501 252.5C838.706 256.03 838.793 260.487 836.726 264.1C836.465 264.479 835.961 264.601 835.556 264.383C835.152 264.164 834.977 263.676 835.151 263.25C837.532 259.41 836.588 254.388 832.976 251.675C832.631 251.458 832.469 251.042 832.576 250.65C832.695 250.266 833.049 250.004 833.451 250C838.451 250 842.601 254.825 842.601 260.725C842.622 262.441 842.29 264.143 841.626 265.725C844.126 266.425 845.676 267.8 845.676 269.45C845.676 271.825 842.426 273.625 838.176 273.625C833.926 273.625 830.676 271.825 830.676 269.45C830.663 269.3 830.663 269.15 830.676 269C828.068 269.899 825.758 271.499 824.001 273.625C818.176 280.6 817.226 292.125 818.276 300.625C819.676 311.875 825.326 321.35 830.326 329.725C834.001 336.05 837.651 342 838.601 347.5C838.637 347.797 838.858 348.038 839.151 348.1C839.419 348.13 839.678 347.99 839.801 347.75C841.576 344.375 841.126 338.825 840.626 332.4C839.851 322.925 838.901 311.125 844.501 300.55C847.352 295.188 849.199 289.351 849.951 283.325C850.068 282.296 850.127 281.261 850.126 280.225C850.154 278.312 849.884 276.405 849.326 274.575C849.227 274.267 849.301 273.93 849.519 273.691C849.736 273.451 850.065 273.347 850.381 273.416C850.697 273.485 850.952 273.717 851.051 274.025C851.66 276.034 851.955 278.126 851.926 280.225C851.926 281.275 851.926 282.375 851.751 283.5C850.963 289.759 849.048 295.823 846.101 301.4C840.726 311.4 841.651 323 842.401 332.25C842.951 338.975 843.426 344.75 841.376 348.6C840.975 349.419 840.161 349.956 839.251 350Z" fill="#38363D"/>
<path d="M1109 345.4C1108.76 345.375 1108.54 345.255 1108.39 345.067C1108.24 344.879 1108.17 344.639 1108.2 344.4L1111.5 311.15C1111.52 310.906 1111.64 310.681 1111.83 310.525C1112.01 310.369 1112.26 310.297 1112.5 310.325C1113 310.378 1113.37 310.823 1113.33 311.325L1109.95 344.575C1109.9 345.056 1109.49 345.416 1109 345.4Z" fill="#38363D"/>
<path d="M1100.1 345.4C1099.59 345.4 1099.17 344.986 1099.17 344.475V311.225C1099.25 310.779 1099.63 310.452 1100.09 310.452C1100.54 310.452 1100.92 310.779 1101 311.225V344.475C1101 344.976 1100.6 345.387 1100.1 345.4Z" fill="#38363D"/>
<path d="M1091.15 345.4C1090.68 345.39 1090.3 345.037 1090.25 344.575L1086.87 311.325C1086.83 310.823 1087.2 310.378 1087.7 310.325C1087.94 310.297 1088.19 310.369 1088.38 310.525C1088.56 310.681 1088.68 310.906 1088.7 311.15L1092.05 344.4C1092.08 344.639 1092.01 344.879 1091.86 345.067C1091.71 345.255 1091.49 345.375 1091.25 345.4H1091.15Z" fill="#38363D"/>
<path d="M1109 272.95C1108.76 272.949 1108.53 272.86 1108.35 272.7C1107.99 272.339 1107.99 271.76 1108.35 271.4L1115.07 264.7C1115.24 264.53 1115.47 264.435 1115.71 264.435C1115.95 264.435 1116.18 264.53 1116.35 264.7C1116.53 264.87 1116.63 265.104 1116.63 265.35C1116.63 265.595 1116.53 265.83 1116.35 266L1109.67 272.7C1109.5 272.876 1109.25 272.967 1109 272.95Z" fill="#38363D"/>
<path d="M1072.57 293.35C1072.33 293.35 1072.09 293.251 1071.92 293.075C1071.57 292.714 1071.57 292.135 1071.92 291.775L1078.62 285C1078.84 284.722 1079.21 284.596 1079.55 284.675C1079.9 284.754 1080.17 285.025 1080.25 285.371C1080.33 285.717 1080.2 286.078 1079.92 286.3L1073.2 293.075C1073.03 293.245 1072.81 293.344 1072.57 293.35Z" fill="#38363D"/>
<path d="M1091.15 271.55C1090.9 271.551 1090.67 271.451 1090.5 271.275L1083.8 264.575C1083.44 264.215 1083.44 263.635 1083.8 263.275C1083.97 263.106 1084.2 263.01 1084.44 263.01C1084.67 263.01 1084.9 263.106 1085.07 263.275L1091.8 270C1092.15 270.36 1092.15 270.94 1091.8 271.3C1091.62 271.458 1091.39 271.547 1091.15 271.55Z" fill="#38363D"/>
<path d="M1103.08 297.1C1102.84 297.103 1102.62 297.013 1102.45 296.85L1095.73 290.125C1095.56 289.956 1095.46 289.727 1095.46 289.487C1095.46 289.248 1095.56 289.019 1095.73 288.85C1095.9 288.673 1096.13 288.572 1096.38 288.572C1096.62 288.572 1096.86 288.673 1097.03 288.85L1103.73 295.55C1104 295.807 1104.08 296.204 1103.93 296.548C1103.79 296.892 1103.45 297.111 1103.08 297.1Z" fill="#38363D"/>
<path d="M1123.12 294.075C1122.88 294.065 1122.65 293.968 1122.47 293.8L1115.77 287.1C1115.5 286.878 1115.37 286.517 1115.45 286.171C1115.53 285.825 1115.8 285.555 1116.14 285.475C1116.49 285.396 1116.85 285.522 1117.07 285.8L1123.77 292.5C1124.13 292.86 1124.13 293.44 1123.77 293.8C1123.6 293.976 1123.37 294.076 1123.12 294.075Z" fill="#38363D"/>
<path d="M1117.95 350H1082.23C1081.78 349.994 1081.4 349.667 1081.33 349.225L1075.38 311.725C1075.3 311.23 1075.63 310.764 1076.13 310.675C1076.63 310.614 1077.09 310.954 1077.18 311.45L1083 348.175H1117.18L1123.63 307.5H1078.05C1069.45 307.426 1062.06 301.37 1060.3 292.95C1058.53 284.529 1062.87 276.018 1070.73 272.5C1069.41 267.056 1070.67 261.31 1074.15 256.918C1077.62 252.525 1082.93 249.975 1088.53 250C1092.28 249.984 1095.94 251.137 1099 253.3C1102.06 251.137 1105.73 249.984 1109.48 250C1115.08 249.975 1120.38 252.525 1123.85 256.918C1127.33 261.31 1128.59 267.056 1127.28 272.5C1133.91 275.435 1138.21 281.993 1138.25 289.25C1138.27 293.362 1136.88 297.356 1134.33 300.575C1134.18 300.766 1133.96 300.889 1133.72 300.918C1133.48 300.946 1133.24 300.876 1133.05 300.725C1132.86 300.577 1132.74 300.359 1132.71 300.119C1132.68 299.879 1132.75 299.638 1132.9 299.45C1135.22 296.555 1136.49 292.959 1136.5 289.25C1136.47 282.445 1132.29 276.349 1125.95 273.875C1125.51 273.71 1125.27 273.229 1125.4 272.775C1125.81 271.318 1126.02 269.813 1126.03 268.3C1126.02 263.92 1124.27 259.722 1121.17 256.631C1118.06 253.541 1113.86 251.812 1109.48 251.825C1105.87 251.796 1102.35 252.965 1099.48 255.15C1099.15 255.4 1098.7 255.4 1098.38 255.15C1095.5 252.965 1091.99 251.796 1088.38 251.825C1079.34 251.921 1072.06 259.265 1072.05 268.3C1072.06 269.813 1072.27 271.318 1072.68 272.775C1072.81 273.229 1072.57 273.71 1072.13 273.875C1064.72 276.727 1060.4 284.458 1061.85 292.263C1063.3 300.069 1070.11 305.728 1078.05 305.725H1124.68C1124.95 305.712 1125.21 305.824 1125.38 306.03C1125.56 306.235 1125.63 306.51 1125.58 306.775L1118.85 349.275C1118.77 349.703 1118.39 350.008 1117.95 350Z" fill="#38363D"/>
<path d="M579.036 339.675C553.263 339.675 532.369 318.408 532.369 292.175C532.369 291.678 532.765 291.275 533.253 291.275H616.787C616.208 280.568 608.286 271.765 597.859 270.24C587.431 268.715 577.395 274.892 573.878 285C573.762 285.356 573.436 285.597 573.067 285.6C572.703 285.593 572.372 285.381 572.208 285.05C569.971 279.238 566.576 273.96 562.236 269.55C553.483 260.715 541.574 255.886 529.25 256.175C528.984 266.209 531.961 276.054 537.724 284.2C537.95 284.599 537.843 285.108 537.476 285.378C537.109 285.648 536.601 285.593 536.299 285.25C530.122 276.556 527.006 265.995 527.457 255.275C527.48 254.811 527.837 254.437 528.292 254.4C541.415 253.808 554.181 258.841 563.488 268.275C567.474 272.327 570.696 277.089 572.994 282.325C577.549 271.856 588.683 266.062 599.688 268.435C610.693 270.809 618.562 280.7 618.555 292.15C618.555 292.647 618.159 293.05 617.671 293.05H534.162C534.921 317.927 555.079 337.622 579.53 337.378C603.981 337.133 623.754 317.037 624.032 292.15C624.032 291.653 624.428 291.25 624.917 291.25C625.405 291.25 625.801 291.653 625.801 292.15C625.807 304.769 620.88 316.873 612.106 325.789C603.333 334.705 591.434 339.701 579.036 339.675Z" fill="#38363D"/>
<path d="M557.276 285.625C557.044 285.619 556.823 285.52 556.662 285.35L533.181 261.45C532.835 261.098 532.835 260.527 533.181 260.175C533.527 259.823 534.088 259.823 534.434 260.175L557.915 284.075C558.081 284.244 558.175 284.473 558.175 284.713C558.175 284.952 558.081 285.181 557.915 285.35C557.744 285.522 557.516 285.62 557.276 285.625Z" fill="#38363D"/>
<path d="M602.418 345.625H554.474C553.995 345.625 553.603 345.237 553.59 344.75V337.25C553.59 336.753 553.986 336.35 554.474 336.35C554.962 336.35 555.358 336.753 555.358 337.25V343.9H601.534V337.2C601.534 336.703 601.93 336.3 602.418 336.3C602.906 336.3 603.302 336.703 603.302 337.2V344.7C603.309 344.943 603.219 345.178 603.052 345.352C602.885 345.527 602.657 345.625 602.418 345.625Z" fill="#38363D"/>
<path d="M594.658 280C594.405 280.002 594.164 279.893 593.995 279.702C593.826 279.511 593.745 279.256 593.774 279V272.85C593.774 272.353 594.169 271.95 594.658 271.95C595.146 271.95 595.542 272.353 595.542 272.85V279C595.57 279.256 595.489 279.511 595.32 279.702C595.152 279.893 594.91 280.002 594.658 280Z" fill="#38363D"/>
<path d="M601.143 281.475C600.997 281.51 600.846 281.51 600.701 281.475C600.279 281.215 600.137 280.661 600.381 280.225L603.402 274.9C603.667 274.521 604.172 274.41 604.567 274.643C604.962 274.877 605.117 275.378 604.925 275.8L601.904 281.125C601.724 281.364 601.438 281.495 601.143 281.475Z" fill="#38363D"/>
<path d="M606.052 286.15C605.728 286.158 605.427 285.985 605.266 285.7C605.144 285.493 605.113 285.244 605.178 285.012C605.243 284.78 605.399 284.586 605.609 284.475L610.841 281.4C611.114 281.202 611.474 281.179 611.77 281.339C612.066 281.5 612.247 281.818 612.237 282.159C612.228 282.5 612.03 282.807 611.725 282.95L606.494 286.05C606.356 286.119 606.205 286.153 606.052 286.15Z" fill="#38363D"/>
<path d="M583.655 286.8C583.5 286.793 583.349 286.751 583.213 286.675L577.981 283.575C577.609 283.305 577.5 282.792 577.729 282.39C577.958 281.988 578.451 281.829 578.865 282.025L584.097 285C584.305 285.12 584.456 285.321 584.516 285.556C584.576 285.792 584.54 286.042 584.416 286.25C584.291 286.57 583.993 286.785 583.655 286.8Z" fill="#38363D"/>
<path d="M588.248 281.85C587.936 281.839 587.651 281.67 587.487 281.4L584.465 276.05C584.224 275.622 584.366 275.075 584.785 274.825C585.207 274.593 585.735 274.735 585.988 275.15L589.009 280.5C589.132 280.704 589.168 280.951 589.108 281.182C589.047 281.414 588.896 281.61 588.69 281.725C588.556 281.805 588.403 281.848 588.248 281.85Z" fill="#38363D"/>
<path fill-rule="evenodd" clip-rule="evenodd" d="M559.299 546.374C567.438 546.374 574.036 539.888 574.036 531.887C574.036 523.886 567.438 517.4 559.299 517.4C551.16 517.4 544.562 523.886 544.562 531.887C544.562 539.888 551.16 546.374 559.299 546.374Z" stroke="#38363D" stroke-width="2" stroke-linecap="round" stroke-linejoin="round"/>
<path fill-rule="evenodd" clip-rule="evenodd" d="M594.702 598.6C602.841 598.6 609.439 592.114 609.439 584.113C609.439 576.112 602.841 569.626 594.702 569.626C586.563 569.626 579.965 576.112 579.965 584.113C579.965 592.114 586.563 598.6 594.702 598.6Z" stroke="#38363D" stroke-width="2" stroke-linecap="round" stroke-linejoin="round"/>
<path d="M552.824 598.6L600.496 517.452" stroke="#38363D" stroke-width="2" stroke-linecap="round" stroke-linejoin="round"/>
<path fill-rule="evenodd" clip-rule="evenodd" d="M859.439 546.323C867.662 546.323 874.327 539.848 874.327 531.861C874.327 523.874 867.662 517.4 859.439 517.4C851.216 517.4 844.551 523.874 844.551 531.861C844.551 539.848 851.216 546.323 859.439 546.323Z" stroke="#38363D" stroke-width="2" stroke-linecap="round" stroke-linejoin="round"/>
<path d="M870.069 584.474C872.395 584.555 874.258 586.382 874.326 588.65C874.312 589.774 873.838 590.845 873.008 591.625C872.178 592.405 871.062 592.828 869.91 592.8H809.088C806.717 592.8 804.792 590.935 804.777 588.624C804.846 586.356 806.708 584.529 809.035 584.448L870.069 584.474Z" fill="#38363D"/>
<path fill-rule="evenodd" clip-rule="evenodd" d="M870.546 578.7C860.418 577.926 848.465 571.869 848.465 560.655C848.465 560.655 848.914 551.917 849.417 542.611C846.142 539.698 844.376 535.51 844.601 531.194C844.826 526.879 847.019 522.887 850.58 520.313C850.551 518.739 849.234 517.477 847.618 517.478H831.382C830.551 517.482 829.759 517.824 829.197 518.42C828.635 519.017 828.354 519.815 828.42 520.622L830.535 560.707C830.535 571.972 818.582 578.03 808.454 578.751C803.039 579.075 798.796 583.413 798.723 588.702C798.744 591.356 799.849 593.894 801.795 595.751C803.74 597.609 806.366 598.635 809.089 598.6H869.911C872.625 598.607 875.231 597.563 877.155 595.697C879.08 593.831 880.165 591.296 880.172 588.65C880.103 583.399 875.919 579.074 870.546 578.7Z" stroke="#38363D" stroke-width="2" stroke-linecap="round" stroke-linejoin="round"/>
<path d="M859.438 521.988V531.861L866.34 538.589" stroke="#38363D" stroke-width="2" stroke-linecap="round"/>
<path d="M28.401 533.769C27.9086 533.769 27.5094 533.376 27.5094 532.892V518.276C27.5094 517.792 27.9086 517.4 28.401 517.4C28.8933 517.4 29.2925 517.792 29.2925 518.276V532.892C29.2925 533.376 28.8933 533.769 28.401 533.769Z" fill="#38363D"/>
<path d="M51.9986 533.769C51.5062 533.769 51.1071 533.376 51.1071 532.892V518.276C51.1071 517.792 51.5062 517.4 51.9986 517.4C52.491 517.4 52.8902 517.792 52.8902 518.276V532.892C52.8902 533.376 52.491 533.769 51.9986 533.769Z" fill="#38363D"/>
<path d="M75.6002 533.769C75.1078 533.769 74.7086 533.376 74.7086 532.892V518.276C74.7086 517.792 75.1078 517.4 75.6002 517.4C76.0926 517.4 76.4917 517.792 76.4917 518.276V532.892C76.4917 533.376 76.0926 533.769 75.6002 533.769Z" fill="#38363D"/>
<path d="M96.2646 540.188V546.632H7.7384V540.188C7.72446 537.1 8.96068 534.133 11.1744 531.943C13.3881 529.752 16.3973 528.517 19.5384 528.51H23.97V532.892C23.97 535.298 25.954 537.249 28.4015 537.249C30.849 537.249 32.8331 535.298 32.8331 532.892V528.51H47.57V532.892C47.57 535.298 49.554 537.249 52.0015 537.249C54.449 537.249 56.4331 535.298 56.4331 532.892V528.51H71.17V532.892C71.17 535.298 73.154 537.249 75.6015 537.249C78.049 537.249 80.0331 535.298 80.0331 532.892V528.51H84.4646C87.6057 528.517 90.615 529.752 92.8287 531.943C95.0423 534.133 96.2786 537.1 96.2646 540.188Z" fill="#38363D"/>
<path fill-rule="evenodd" clip-rule="evenodd" d="M7.76184 546.632H96.2618V586.923C96.2764 593.347 90.9975 598.571 84.4618 598.6H19.5618C16.4208 598.593 13.4115 597.358 11.1978 595.167C8.98412 592.977 7.7479 590.01 7.76184 586.923V546.632ZM94.4804 587.051V548.385H9.52039V586.923C9.48541 589.57 10.5256 592.123 12.4105 594.014C14.2955 595.906 16.8698 596.981 19.5635 597.002H84.4635C90.0186 596.959 94.495 592.513 94.4804 587.051Z" fill="#38363D"/>
<rect x="49.0625" y="568.466" width="5.89999" height="5.85155" rx="0.87" fill="#38363D"/>
<rect x="49.0625" y="581.896" width="5.89999" height="5.85155" rx="0.87" fill="#38363D"/>
<rect x="49.0625" y="555.01" width="5.89999" height="5.85156" rx="0.87" fill="#38363D"/>
<rect x="62.6211" y="568.466" width="5.89999" height="5.85155" rx="0.87" fill="#38363D"/>
<rect x="62.6211" y="581.896" width="5.89999" height="5.85155" rx="0.87" fill="#38363D"/>
<rect x="62.6211" y="555.01" width="5.89999" height="5.85156" rx="0.87" fill="#38363D"/>
<rect x="21.8984" y="568.466" width="5.9" height="5.85155" rx="0.87" fill="#38363D"/>
<rect x="21.8984" y="581.896" width="5.9" height="5.85155" rx="0.87" fill="#38363D"/>
<rect x="21.9219" y="555.01" width="5.9" height="5.85156" rx="0.87" fill="#38363D"/>
<rect x="35.4805" y="568.466" width="5.9" height="5.85155" rx="0.87" fill="#38363D"/>
<rect x="35.4805" y="581.896" width="5.9" height="5.85155" rx="0.87" fill="#38363D"/>
<rect x="35.4805" y="555.01" width="5.9" height="5.85156" rx="0.87" fill="#38363D"/>
<rect x="76.1758" y="568.466" width="5.9" height="5.85155" rx="0.87" fill="#38363D"/>
<rect x="76.2031" y="581.896" width="5.89999" height="5.85155" rx="0.87" fill="#38363D"/>
<rect x="76.1758" y="555.01" width="5.9" height="5.85156" rx="0.87" fill="#38363D"/>
<path d="M1093.98 575.89V604.4" stroke="#38363D" stroke-width="2" stroke-linecap="round" stroke-linejoin="round"/>
<path d="M1078.48 604.4H1109.51" stroke="#38363D" stroke-width="2" stroke-linecap="round" stroke-linejoin="round"/>
<path d="M1079.82 557.072C1081.48 565.888 1087.22 572.384 1093.98 572.384C1100.75 572.384 1106.52 565.888 1108.17 557.072H1079.82Z" fill="#38363D"/>
<path fill-rule="evenodd" clip-rule="evenodd" d="M1102.01 535.135C1102 532.546 1102.72 530.005 1104.08 527.789H1083.36C1078.66 534.981 1076.04 543.295 1075.79 551.839C1075.79 565.141 1083.94 575.89 1093.98 575.89C1104.03 575.89 1112.34 565.141 1112.34 551.839C1112.34 550.739 1112.29 549.657 1112.18 548.591C1106.15 546.79 1102.02 541.331 1102.01 535.135V535.135Z" stroke="#38363D" stroke-width="2" stroke-linecap="round" stroke-linejoin="round"/>
<path fill-rule="evenodd" clip-rule="evenodd" d="M1116.27 543.977C1112.39 543.933 1108.98 541.458 1107.79 537.829C1106.6 534.199 1107.91 530.229 1111.03 527.969V516.782C1111.03 513.934 1113.38 511.626 1116.27 511.626C1119.17 511.626 1121.52 513.934 1121.52 516.782V527.969C1124.64 530.229 1125.94 534.199 1124.76 537.829C1123.57 541.458 1120.15 543.933 1116.27 543.977V543.977Z" stroke="#38363D" stroke-width="2" stroke-linecap="round" stroke-linejoin="round"/>
<path d="M1117.87 530.134V516.781C1117.87 516.22 1117.57 515.701 1117.07 515.42C1116.58 515.139 1115.97 515.139 1115.47 515.42C1114.98 515.701 1114.67 516.22 1114.67 516.781V530.134C1112.21 530.909 1110.69 533.33 1111.09 535.84C1111.49 538.35 1113.69 540.2 1116.27 540.2C1118.86 540.2 1121.06 538.35 1121.45 535.84C1121.85 533.33 1120.33 530.909 1117.87 530.134Z" fill="#38363D"/>
<path d="M1126.16 515.905H1132.21" stroke="#38363D" stroke-width="2" stroke-linecap="round"/>
<path d="M1126.16 521.37H1132.21" stroke="#38363D" stroke-width="2" stroke-linecap="round"/>
<path fill-rule="evenodd" clip-rule="evenodd" d="M313.999 603.409C320.829 603.409 326.366 597.872 326.366 591.042C326.366 584.213 320.829 578.676 313.999 578.676C307.17 578.676 301.633 584.213 301.633 591.042C301.633 597.872 307.17 603.409 313.999 603.409Z" stroke="#38363D" stroke-width="2" stroke-linecap="round" stroke-linejoin="round"/>
<path fill-rule="evenodd" clip-rule="evenodd" d="M328.839 578.676C335.669 578.676 341.206 573.139 341.206 566.309C341.206 559.479 335.669 553.942 328.839 553.942C322.009 553.942 316.473 559.479 316.473 566.309C316.473 573.139 322.009 578.676 328.839 578.676Z" stroke="#38363D" stroke-width="2" stroke-linecap="round" stroke-linejoin="round"/>
<path fill-rule="evenodd" clip-rule="evenodd" d="M313.999 553.942C320.829 553.942 326.366 548.406 326.366 541.576C326.366 534.746 320.829 529.209 313.999 529.209C307.17 529.209 301.633 534.746 301.633 541.576C301.633 548.406 307.17 553.942 313.999 553.942Z" stroke="#38363D" stroke-width="2" stroke-linecap="round" stroke-linejoin="round"/>
<path fill-rule="evenodd" clip-rule="evenodd" d="M343.679 553.942C350.509 553.942 356.046 548.406 356.046 541.576C356.046 534.746 350.509 529.209 343.679 529.209C336.849 529.209 331.312 534.746 331.312 541.576C331.312 548.406 336.849 553.942 343.679 553.942Z" stroke="#38363D" stroke-width="2" stroke-linecap="round" stroke-linejoin="round"/>
<path fill-rule="evenodd" clip-rule="evenodd" d="M284.32 553.942C291.15 553.942 296.686 548.406 296.686 541.576C296.686 534.746 291.15 529.209 284.32 529.209C277.49 529.209 271.953 534.746 271.953 541.576C271.953 548.406 277.49 553.942 284.32 553.942Z" stroke="#38363D" stroke-width="2" stroke-linecap="round" stroke-linejoin="round"/>
<path d="M314 521.2C316.26 518.511 317.358 515.034 317.053 511.535C316.748 508.036 315.065 504.802 312.375 502.544" stroke="#38363D" stroke-width="2" stroke-linecap="round" stroke-linejoin="round"/>
<path fill-rule="evenodd" clip-rule="evenodd" d="M299.16 578.676C305.99 578.676 311.526 573.139 311.526 566.309C311.526 559.479 305.99 553.942 299.16 553.942C292.33 553.942 286.793 559.479 286.793 566.309C286.793 573.139 292.33 578.676 299.16 578.676Z" stroke="#38363D" stroke-width="2" stroke-linecap="round" stroke-linejoin="round"/>
</g>
<defs>
<clipPath id="clip0_481_3564">
<rect width="1200" height="616" fill="white"/>
</clipPath>
</defs>
</svg>
