<svg width="530" height="395" viewBox="0 0 530 395" fill="none" xmlns="http://www.w3.org/2000/svg">
<g clip-path="url(#clip0_541_5959)">
<path d="M111.953 345.951V347.31C110.488 347.355 109.366 347.536 108.588 347.853C107.855 348.125 107.351 348.668 107.076 349.484C106.802 350.254 106.664 351.476 106.664 353.152V386.848C106.664 388.478 106.802 389.701 107.076 390.516C107.351 391.332 107.855 391.875 108.588 392.147C109.366 392.418 110.488 392.6 111.953 392.69V394.049C110.808 393.958 109.343 393.913 107.557 393.913C105.772 393.868 103.963 393.845 102.131 393.845C100.071 393.845 98.1478 393.868 96.362 393.913C94.5763 393.913 93.111 393.958 91.9663 394.049V392.69C93.4773 392.6 94.5992 392.418 95.3318 392.147C96.1102 391.875 96.6138 391.332 96.8428 390.516C97.1175 389.701 97.2549 388.478 97.2549 386.848V353.152C97.2549 351.476 97.1175 350.254 96.8428 349.484C96.6138 348.668 96.1102 348.125 95.3318 347.853C94.5992 347.536 93.4773 347.355 91.9663 347.31V345.951C93.111 345.996 94.5763 346.042 96.362 346.087C98.1478 346.132 100.071 346.155 102.131 346.155C103.963 346.155 105.772 346.132 107.557 346.087C109.343 346.042 110.808 345.996 111.953 345.951Z" fill="#160C0A"/>
<path d="M164.307 345.951V347.31C162.842 347.446 161.72 347.785 160.941 348.329C160.163 348.827 159.636 349.642 159.362 350.774C159.133 351.861 159.018 353.424 159.018 355.462V394.253C158.606 394.207 158.148 394.185 157.645 394.185C157.187 394.185 156.683 394.207 156.134 394.253L126.669 354.647V383.995C126.669 386.168 126.806 387.867 127.081 389.09C127.356 390.267 127.951 391.128 128.867 391.671C129.828 392.169 131.27 392.509 133.194 392.69V394.049C132.324 393.958 131.202 393.913 129.828 393.913C128.454 393.868 127.149 393.845 125.913 393.845C124.814 393.845 123.692 393.868 122.548 393.913C121.449 393.913 120.533 393.958 119.8 394.049V392.69C121.311 392.509 122.433 392.169 123.166 391.671C123.944 391.173 124.448 390.358 124.677 389.226C124.952 388.093 125.089 386.531 125.089 384.538V353.152C125.089 351.476 124.952 350.254 124.677 349.484C124.448 348.668 123.944 348.125 123.166 347.853C122.433 347.536 121.311 347.355 119.8 347.31V345.951C120.533 345.996 121.449 346.042 122.548 346.087C123.692 346.132 124.814 346.155 125.913 346.155C126.966 346.155 127.997 346.132 129.004 346.087C130.011 346.042 130.904 345.996 131.683 345.951L157.438 379.851V356.005C157.438 353.786 157.301 352.088 157.026 350.91C156.752 349.733 156.156 348.872 155.241 348.329C154.325 347.785 152.883 347.446 150.914 347.31V345.951C151.784 345.996 152.905 346.042 154.279 346.087C155.699 346.132 157.004 346.155 158.194 346.155C159.339 346.155 160.461 346.132 161.559 346.087C162.704 346.042 163.62 345.996 164.307 345.951Z" fill="#160C0A"/>
<path d="M207.564 345.951C207.381 347.808 207.244 349.62 207.152 351.386C207.107 353.107 207.084 354.42 207.084 355.326C207.084 356.187 207.107 357.024 207.152 357.84C207.198 358.61 207.244 359.266 207.29 359.81H205.71C205.344 356.685 204.748 354.239 203.924 352.473C203.1 350.661 201.978 349.393 200.559 348.668C199.185 347.899 197.376 347.514 195.133 347.514H191.355C189.982 347.514 188.929 347.627 188.196 347.853C187.463 348.08 186.96 348.555 186.685 349.28C186.456 350.005 186.342 351.114 186.342 352.609V387.391C186.342 388.841 186.456 389.95 186.685 390.72C186.96 391.445 187.463 391.92 188.196 392.147C188.929 392.373 189.982 392.486 191.355 392.486H195.27C197.605 392.486 199.551 392.056 201.108 391.196C202.711 390.335 203.993 388.931 204.954 386.984C205.916 384.991 206.626 382.274 207.084 378.832H208.663C208.526 380.236 208.457 382.047 208.457 384.266C208.457 385.217 208.48 386.599 208.526 388.41C208.618 390.222 208.755 392.101 208.938 394.049C206.603 393.958 203.97 393.913 201.04 393.913C198.109 393.868 195.499 393.845 193.21 393.845C191.745 393.845 189.776 393.845 187.303 393.845C184.83 393.845 182.198 393.868 179.405 393.913C176.657 393.913 174.07 393.958 171.643 394.049V392.69C173.154 392.6 174.276 392.418 175.009 392.147C175.787 391.875 176.291 391.332 176.52 390.516C176.795 389.701 176.932 388.478 176.932 386.848V353.152C176.932 351.476 176.795 350.254 176.52 349.484C176.291 348.668 175.787 348.125 175.009 347.853C174.276 347.536 173.154 347.355 171.643 347.31V345.951C174.07 345.996 176.657 346.042 179.405 346.087C182.198 346.132 184.83 346.155 187.303 346.155C189.776 346.155 191.745 346.155 193.21 346.155C195.316 346.155 197.697 346.155 200.353 346.155C203.054 346.11 205.458 346.042 207.564 345.951ZM196.507 369.185C196.507 369.185 196.507 369.411 196.507 369.864C196.507 370.317 196.507 370.543 196.507 370.543H184.281C184.281 370.543 184.281 370.317 184.281 369.864C184.281 369.411 184.281 369.185 184.281 369.185H196.507ZM198.498 360.217C198.315 362.799 198.224 364.769 198.224 366.128C198.269 367.486 198.292 368.732 198.292 369.864C198.292 370.996 198.315 372.242 198.361 373.601C198.407 374.959 198.521 376.929 198.704 379.511H197.125C196.896 377.971 196.529 376.522 196.026 375.163C195.568 373.759 194.812 372.649 193.759 371.834C192.752 370.974 191.287 370.543 189.364 370.543V369.185C191.287 369.185 192.729 368.687 193.691 367.69C194.698 366.694 195.431 365.494 195.888 364.09C196.346 362.686 196.69 361.395 196.919 360.217H198.498Z" fill="#160C0A"/>
<path d="M266.903 345.747L283.592 388.342C284.279 389.973 285.012 391.105 285.79 391.739C286.614 392.328 287.37 392.645 288.057 392.69V394.049C286.866 393.958 285.424 393.913 283.73 393.913C282.081 393.868 280.387 393.845 278.647 393.845C276.633 393.845 274.755 393.868 273.015 393.913C271.275 393.913 269.856 393.958 268.757 394.049V392.69C271.092 392.6 272.58 392.215 273.221 391.535C273.862 390.811 273.725 389.293 272.809 386.984L260.721 354.715L261.957 353.22L250.968 381.413C249.778 384.402 249.205 386.712 249.251 388.342C249.297 389.928 249.846 391.037 250.9 391.671C251.953 392.305 253.441 392.645 255.364 392.69V394.049C253.899 393.958 252.479 393.913 251.106 393.913C249.732 393.868 248.358 393.845 246.985 393.845C245.977 393.845 245.016 393.868 244.1 393.913C243.23 393.913 242.452 393.958 241.765 394.049V392.69C242.772 392.464 243.757 391.875 244.718 390.924C245.725 389.973 246.687 388.32 247.603 385.965L263.331 345.747C263.881 345.793 264.476 345.815 265.117 345.815C265.758 345.815 266.353 345.793 266.903 345.747Z" fill="#160C0A"/>
<path d="M316.389 345C319.411 345 321.883 345.453 323.807 346.359C325.775 347.219 327.515 348.238 329.026 349.416C329.942 350.095 330.629 350.186 331.087 349.688C331.591 349.144 331.934 347.899 332.117 345.951H333.697C333.605 347.672 333.537 349.778 333.491 352.269C333.445 354.76 333.422 358.043 333.422 362.12H331.842C331.568 360.082 331.27 358.383 330.95 357.024C330.629 355.62 330.171 354.42 329.576 353.424C329.026 352.428 328.248 351.476 327.241 350.571C326.004 349.212 324.516 348.216 322.776 347.582C321.082 346.902 319.296 346.563 317.419 346.563C315.038 346.563 312.955 347.197 311.169 348.465C309.429 349.688 307.964 351.386 306.773 353.56C305.629 355.688 304.759 358.179 304.163 361.033C303.614 363.886 303.339 366.92 303.339 370.136C303.339 373.442 303.637 376.522 304.232 379.375C304.873 382.183 305.789 384.651 306.979 386.78C308.216 388.863 309.727 390.494 311.512 391.671C313.344 392.849 315.45 393.437 317.831 393.437C319.525 393.437 321.265 393.12 323.051 392.486C324.837 391.852 326.302 390.879 327.447 389.565C328.958 388.207 329.988 386.599 330.537 384.742C331.087 382.84 331.522 380.326 331.842 377.201H333.422C333.422 381.458 333.445 384.9 333.491 387.527C333.537 390.109 333.605 392.283 333.697 394.049H332.117C331.934 392.101 331.614 390.879 331.156 390.38C330.744 389.882 330.034 389.95 329.026 390.584C327.332 391.762 325.524 392.803 323.601 393.709C321.723 394.57 319.296 395 316.32 395C311.65 395 307.552 394.026 304.026 392.079C300.5 390.131 297.753 387.323 295.784 383.655C293.861 379.986 292.899 375.571 292.899 370.408C292.899 365.335 293.907 360.897 295.921 357.092C297.936 353.288 300.706 350.322 304.232 348.193C307.758 346.064 311.81 345 316.389 345Z" fill="#160C0A"/>
<path d="M367.227 345C370.249 345 372.722 345.453 374.645 346.359C376.614 347.219 378.354 348.238 379.865 349.416C380.781 350.095 381.468 350.186 381.925 349.688C382.429 349.144 382.773 347.899 382.956 345.951H384.535C384.444 347.672 384.375 349.778 384.329 352.269C384.284 354.76 384.261 358.043 384.261 362.12H382.681C382.406 360.082 382.109 358.383 381.788 357.024C381.468 355.62 381.01 354.42 380.414 353.424C379.865 352.428 379.087 351.476 378.079 350.571C376.843 349.212 375.355 348.216 373.615 347.582C371.921 346.902 370.135 346.563 368.258 346.563C365.877 346.563 363.793 347.197 362.008 348.465C360.268 349.688 358.802 351.386 357.612 353.56C356.467 355.688 355.597 358.179 355.002 361.033C354.452 363.886 354.178 366.92 354.178 370.136C354.178 373.442 354.475 376.522 355.071 379.375C355.712 382.183 356.627 384.651 357.818 386.78C359.054 388.863 360.565 390.494 362.351 391.671C364.182 392.849 366.289 393.437 368.67 393.437C370.364 393.437 372.104 393.12 373.89 392.486C375.675 391.852 377.141 390.879 378.285 389.565C379.796 388.207 380.827 386.599 381.376 384.742C381.925 382.84 382.36 380.326 382.681 377.201H384.261C384.261 381.458 384.284 384.9 384.329 387.527C384.375 390.109 384.444 392.283 384.535 394.049H382.956C382.773 392.101 382.452 390.879 381.994 390.38C381.582 389.882 380.872 389.95 379.865 390.584C378.171 391.762 376.362 392.803 374.439 393.709C372.562 394.57 370.135 395 367.159 395C362.488 395 358.39 394.026 354.865 392.079C351.339 390.131 348.591 387.323 346.623 383.655C344.699 379.986 343.738 375.571 343.738 370.408C343.738 365.335 344.745 360.897 346.76 357.092C348.775 353.288 351.545 350.322 355.071 348.193C358.596 346.064 362.649 345 367.227 345Z" fill="#160C0A"/>
<path d="M429.811 345.951C429.627 347.808 429.49 349.62 429.398 351.386C429.353 353.107 429.33 354.42 429.33 355.326C429.33 356.187 429.353 357.024 429.398 357.84C429.444 358.61 429.49 359.266 429.536 359.81H427.956C427.59 356.685 426.995 354.239 426.17 352.473C425.346 350.661 424.224 349.393 422.805 348.668C421.431 347.899 419.623 347.514 417.379 347.514H413.601C412.228 347.514 411.175 347.627 410.442 347.853C409.709 348.08 409.206 348.555 408.931 349.28C408.702 350.005 408.588 351.114 408.588 352.609V387.391C408.588 388.841 408.702 389.95 408.931 390.72C409.206 391.445 409.709 391.92 410.442 392.147C411.175 392.373 412.228 392.486 413.601 392.486H417.516C419.852 392.486 421.798 392.056 423.354 391.196C424.957 390.335 426.239 388.931 427.201 386.984C428.162 384.991 428.872 382.274 429.33 378.832H430.91C430.772 380.236 430.703 382.047 430.703 384.266C430.703 385.217 430.726 386.599 430.772 388.41C430.864 390.222 431.001 392.101 431.184 394.049C428.849 393.958 426.216 393.913 423.286 393.913C420.355 393.868 417.745 393.845 415.456 393.845C413.991 393.845 412.022 393.845 409.549 393.845C407.077 393.845 404.444 393.868 401.651 393.913C398.903 393.913 396.316 393.958 393.89 394.049V392.69C395.401 392.6 396.522 392.418 397.255 392.147C398.033 391.875 398.537 391.332 398.766 390.516C399.041 389.701 399.178 388.478 399.178 386.848V353.152C399.178 351.476 399.041 350.254 398.766 349.484C398.537 348.668 398.033 348.125 397.255 347.853C396.522 347.536 395.401 347.355 393.89 347.31V345.951C396.316 345.996 398.903 346.042 401.651 346.087C404.444 346.132 407.077 346.155 409.549 346.155C412.022 346.155 413.991 346.155 415.456 346.155C417.562 346.155 419.943 346.155 422.599 346.155C425.3 346.11 427.704 346.042 429.811 345.951ZM418.753 369.185C418.753 369.185 418.753 369.411 418.753 369.864C418.753 370.317 418.753 370.543 418.753 370.543H406.527C406.527 370.543 406.527 370.317 406.527 369.864C406.527 369.411 406.527 369.185 406.527 369.185H418.753ZM420.744 360.217C420.561 362.799 420.47 364.769 420.47 366.128C420.516 367.486 420.538 368.732 420.538 369.864C420.538 370.996 420.561 372.242 420.607 373.601C420.653 374.959 420.767 376.929 420.951 379.511H419.371C419.142 377.971 418.776 376.522 418.272 375.163C417.814 373.759 417.059 372.649 416.005 371.834C414.998 370.974 413.533 370.543 411.61 370.543V369.185C413.533 369.185 414.975 368.687 415.937 367.69C416.944 366.694 417.677 365.494 418.135 364.09C418.592 362.686 418.936 361.395 419.165 360.217H420.744Z" fill="#160C0A"/>
<path d="M455.91 345.136C458.474 345.136 460.443 345.408 461.817 345.951C463.19 346.495 464.381 347.083 465.388 347.717C465.938 348.034 466.373 348.284 466.693 348.465C467.059 348.601 467.403 348.668 467.723 348.668C468.456 348.668 468.96 347.672 469.234 345.679H470.814C470.768 346.54 470.7 347.536 470.608 348.668C470.562 349.801 470.516 351.318 470.471 353.22C470.471 355.077 470.471 357.545 470.471 360.625H468.891C468.754 358.315 468.227 356.096 467.311 353.967C466.441 351.839 465.182 350.095 463.534 348.736C461.931 347.332 459.871 346.63 457.352 346.63C455.109 346.63 453.231 347.287 451.72 348.601C450.255 349.914 449.522 351.68 449.522 353.899C449.522 355.802 450.003 357.409 450.965 358.723C451.926 359.991 453.277 361.236 455.017 362.459C456.803 363.637 458.909 364.995 461.336 366.535C463.58 367.985 465.594 369.434 467.38 370.883C469.166 372.287 470.562 373.85 471.57 375.571C472.623 377.292 473.149 379.398 473.149 381.889C473.149 384.832 472.417 387.278 470.951 389.226C469.486 391.173 467.517 392.622 465.045 393.573C462.572 394.524 459.871 395 456.94 395C454.239 395 452.087 394.728 450.484 394.185C448.927 393.641 447.576 393.075 446.432 392.486C445.424 391.852 444.646 391.535 444.097 391.535C443.364 391.535 442.86 392.532 442.586 394.524H441.006C441.097 393.483 441.143 392.26 441.143 390.856C441.189 389.452 441.212 387.64 441.212 385.421C441.258 383.157 441.281 380.303 441.281 376.861H442.86C443.043 379.76 443.547 382.477 444.371 385.014C445.241 387.505 446.546 389.52 448.286 391.06C450.072 392.6 452.43 393.37 455.36 393.37C457.741 393.37 459.779 392.713 461.473 391.399C463.167 390.041 464.015 388.003 464.015 385.285C464.015 382.523 463.053 380.213 461.13 378.356C459.207 376.499 456.688 374.62 453.575 372.717C451.423 371.359 449.408 369.977 447.531 368.573C445.653 367.169 444.142 365.584 442.998 363.818C441.899 362.006 441.349 359.832 441.349 357.296C441.349 354.488 442.036 352.201 443.41 350.435C444.783 348.623 446.569 347.287 448.767 346.427C451.011 345.566 453.392 345.136 455.91 345.136Z" fill="#160C0A"/>
<path d="M497.761 345.136C500.325 345.136 502.294 345.408 503.667 345.951C505.041 346.495 506.232 347.083 507.239 347.717C507.788 348.034 508.223 348.284 508.544 348.465C508.91 348.601 509.254 348.668 509.574 348.668C510.307 348.668 510.81 347.672 511.085 345.679H512.665C512.619 346.54 512.55 347.536 512.459 348.668C512.413 349.801 512.367 351.318 512.321 353.22C512.321 355.077 512.321 357.545 512.321 360.625H510.742C510.604 358.315 510.078 356.096 509.162 353.967C508.292 351.839 507.033 350.095 505.384 348.736C503.782 347.332 501.721 346.63 499.203 346.63C496.959 346.63 495.082 347.287 493.571 348.601C492.106 349.914 491.373 351.68 491.373 353.899C491.373 355.802 491.854 357.409 492.816 358.723C493.777 359.991 495.128 361.236 496.868 362.459C498.654 363.637 500.76 364.995 503.187 366.535C505.43 367.985 507.445 369.434 509.231 370.883C511.016 372.287 512.413 373.85 513.42 375.571C514.473 377.292 515 379.398 515 381.889C515 384.832 514.267 387.278 512.802 389.226C511.337 391.173 509.368 392.622 506.895 393.573C504.423 394.524 501.721 395 498.791 395C496.089 395 493.937 394.728 492.335 394.185C490.778 393.641 489.427 393.075 488.282 392.486C487.275 391.852 486.497 391.535 485.947 391.535C485.215 391.535 484.711 392.532 484.436 394.524H482.857C482.948 393.483 482.994 392.26 482.994 390.856C483.04 389.452 483.063 387.64 483.063 385.421C483.108 383.157 483.131 380.303 483.131 376.861H484.711C484.894 379.76 485.398 382.477 486.222 385.014C487.092 387.505 488.397 389.52 490.137 391.06C491.923 392.6 494.281 393.37 497.211 393.37C499.592 393.37 501.63 392.713 503.324 391.399C505.018 390.041 505.865 388.003 505.865 385.285C505.865 382.523 504.904 380.213 502.981 378.356C501.057 376.499 498.539 374.62 495.426 372.717C493.273 371.359 491.259 369.977 489.381 368.573C487.504 367.169 485.993 365.584 484.848 363.818C483.749 362.006 483.2 359.832 483.2 357.296C483.2 354.488 483.887 352.201 485.26 350.435C486.634 348.623 488.42 347.287 490.618 346.427C492.861 345.566 495.242 345.136 497.761 345.136Z" fill="#160C0A"/>
<path fill-rule="evenodd" clip-rule="evenodd" d="M36.1542 394.302L19.4644 351.707C18.7776 350.076 18.0449 348.944 17.2665 348.31C16.4423 347.721 15.6868 347.404 15 347.359V346C16.1905 346.091 17.6328 346.136 19.327 346.136C20.9754 346.181 22.6696 346.204 24.4095 346.204C26.4242 346.204 28.3015 346.181 30.0415 346.136C31.7814 346.136 33.2009 346.091 34.2998 346V347.359C31.9646 347.449 30.4765 347.834 29.8355 348.514C29.1944 349.238 29.3318 350.755 30.2476 353.065L42.0153 384.479L50.2304 363.403L45.6475 351.707C44.9606 350.076 44.228 348.944 43.4496 348.31C42.6254 347.721 41.8699 347.404 41.1831 347.359V346C42.3736 346.091 43.8159 346.136 45.5101 346.136C47.1585 346.181 48.8527 346.204 50.5926 346.204C52.6073 346.204 54.4846 346.181 56.2246 346.136C57.9645 346.136 59.384 346.091 60.4829 346V347.359C58.1477 347.449 56.6596 347.834 56.0185 348.514C55.3775 349.238 55.5149 350.755 56.4306 353.065L68.1984 384.479L78.2717 358.636C79.4622 355.647 80.0345 353.337 79.9887 351.707C79.9429 350.121 79.3935 349.012 78.3403 348.378C77.2872 347.744 75.7991 347.404 73.876 347.359V346C75.3412 346.091 76.7607 346.136 78.1343 346.136C79.508 346.181 80.8816 346.204 82.2553 346.204C83.2626 346.204 84.2241 346.181 85.1399 346.136C86.0099 346.136 86.7883 346.091 87.4751 346V347.359C86.4678 347.585 85.4833 348.174 84.5218 349.125C83.5144 350.076 82.5529 351.729 81.6371 354.084L65.9088 394.302C65.3593 394.256 64.7641 394.234 64.1231 394.234C63.482 394.234 62.8868 394.256 62.3373 394.302L51.0208 365.42L39.7257 394.302C39.1763 394.256 38.581 394.234 37.94 394.234C37.2989 394.234 36.7037 394.256 36.1542 394.302Z" fill="#160C0A"/>
<rect width="530" height="197" rx="10" fill="#A01F1D"/>
<path d="M298.1 73L315.38 117.093C316.091 118.781 316.849 119.953 317.655 120.609C318.509 121.218 319.291 121.547 320.002 121.594V123C318.769 122.906 317.276 122.859 315.522 122.859C313.815 122.812 312.061 122.789 310.26 122.789C308.174 122.789 306.23 122.812 304.429 122.859C302.628 122.859 301.158 122.906 300.02 123V121.594C302.438 121.5 303.979 121.101 304.642 120.398C305.306 119.648 305.164 118.077 304.216 115.686L291.7 82.2827L292.98 80.7356L281.603 109.92C280.37 113.014 279.778 115.405 279.825 117.093C279.873 118.734 280.441 119.882 281.532 120.539C282.622 121.195 284.163 121.547 286.154 121.594V123C284.637 122.906 283.167 122.859 281.745 122.859C280.323 122.812 278.901 122.789 277.479 122.789C276.436 122.789 275.44 122.812 274.492 122.859C273.591 122.859 272.785 122.906 272.074 123V121.594C273.117 121.359 274.136 120.75 275.132 119.765C276.175 118.781 277.17 117.069 278.119 114.631L294.403 73C294.971 73.0469 295.588 73.0703 296.251 73.0703C296.915 73.0703 297.531 73.0469 298.1 73Z" fill="white"/>
<path fill-rule="evenodd" clip-rule="evenodd" d="M231.902 123L214.622 78.9072C213.911 77.2194 213.153 76.0474 212.347 75.391C211.493 74.7815 210.711 74.4534 210 74.4065V73C211.233 73.0938 212.726 73.1406 214.48 73.1406C216.187 73.1875 217.941 73.211 219.742 73.211C221.828 73.211 223.772 73.1875 225.573 73.1406C227.374 73.1406 228.844 73.0938 229.982 73V74.4065C227.564 74.5002 226.023 74.8987 225.36 75.602C224.696 76.3521 224.838 77.9226 225.786 80.3136L237.97 112.832L246.475 91.0149L241.73 78.9072C241.019 77.2194 240.261 76.0474 239.455 75.391C238.602 74.7815 237.819 74.4534 237.108 74.4065V73C238.341 73.0938 239.834 73.1407 241.588 73.1407C243.295 73.1875 245.049 73.211 246.85 73.211C248.936 73.211 250.88 73.1875 252.681 73.1407C254.483 73.1407 255.952 73.0938 257.09 73V74.4065C254.672 74.5002 253.132 74.8987 252.468 75.602C251.804 76.3521 251.946 77.9227 252.895 80.3137L265.078 112.832L275.507 86.0802C276.74 82.9859 277.332 80.5949 277.285 78.9072C277.238 77.2663 276.669 76.1177 275.578 75.4613C274.488 74.805 272.947 74.4534 270.956 74.4065V73C272.473 73.0938 273.943 73.1407 275.365 73.1407C276.787 73.1875 278.209 73.211 279.632 73.211C280.675 73.211 281.67 73.1875 282.618 73.1407C283.519 73.1407 284.325 73.0938 285.036 73V74.4065C283.993 74.6409 282.974 75.2504 281.978 76.2349C280.935 77.2194 279.94 78.9306 278.992 81.3685L262.708 123C262.139 122.953 261.522 122.93 260.859 122.93C260.195 122.93 259.579 122.953 259.01 123L247.294 93.1029L235.599 123C235.031 122.953 234.414 122.93 233.751 122.93C233.087 122.93 232.471 122.953 231.902 123Z" fill="white"/>
</g>
<defs>
<clipPath id="clip0_541_5959">
<rect width="530" height="395" fill="white"/>
</clipPath>
</defs>
</svg>
