<svg width="1200" height="380" viewBox="0 0 1200 380" fill="none" xmlns="http://www.w3.org/2000/svg">
<rect width="1200" height="380" fill="white"/>
<path d="M236.953 165.951V167.31C235.488 167.355 234.366 167.536 233.588 167.853C232.855 168.125 232.351 168.668 232.076 169.484C231.802 170.254 231.664 171.476 231.664 173.152V206.848C231.664 208.478 231.802 209.701 232.076 210.516C232.351 211.332 232.855 211.875 233.588 212.147C234.366 212.418 235.488 212.6 236.953 212.69V214.049C235.808 213.958 234.343 213.913 232.557 213.913C230.772 213.868 228.963 213.845 227.131 213.845C225.071 213.845 223.148 213.868 221.362 213.913C219.576 213.913 218.111 213.958 216.966 214.049V212.69C218.477 212.6 219.599 212.418 220.332 212.147C221.11 211.875 221.614 211.332 221.843 210.516C222.118 209.701 222.255 208.478 222.255 206.848V173.152C222.255 171.476 222.118 170.254 221.843 169.484C221.614 168.668 221.11 168.125 220.332 167.853C219.599 167.536 218.477 167.355 216.966 167.31V165.951C218.111 165.996 219.576 166.042 221.362 166.087C223.148 166.132 225.071 166.155 227.131 166.155C228.963 166.155 230.772 166.132 232.557 166.087C234.343 166.042 235.808 165.996 236.953 165.951Z" fill="#160C0A"/>
<path d="M289.307 165.951V167.31C287.842 167.446 286.72 167.785 285.941 168.329C285.163 168.827 284.636 169.642 284.362 170.774C284.133 171.861 284.018 173.424 284.018 175.462V214.253C283.606 214.207 283.148 214.185 282.645 214.185C282.187 214.185 281.683 214.207 281.134 214.253L251.669 174.647V203.995C251.669 206.168 251.806 207.867 252.081 209.09C252.356 210.267 252.951 211.128 253.867 211.671C254.828 212.169 256.27 212.509 258.194 212.69V214.049C257.324 213.958 256.202 213.913 254.828 213.913C253.454 213.868 252.149 213.845 250.913 213.845C249.814 213.845 248.692 213.868 247.548 213.913C246.449 213.913 245.533 213.958 244.8 214.049V212.69C246.311 212.509 247.433 212.169 248.166 211.671C248.944 211.173 249.448 210.358 249.677 209.226C249.952 208.093 250.089 206.531 250.089 204.538V173.152C250.089 171.476 249.952 170.254 249.677 169.484C249.448 168.668 248.944 168.125 248.166 167.853C247.433 167.536 246.311 167.355 244.8 167.31V165.951C245.533 165.996 246.449 166.042 247.548 166.087C248.692 166.132 249.814 166.155 250.913 166.155C251.966 166.155 252.997 166.132 254.004 166.087C255.011 166.042 255.904 165.996 256.683 165.951L282.438 199.851V176.005C282.438 173.786 282.301 172.088 282.026 170.91C281.752 169.733 281.156 168.872 280.241 168.329C279.325 167.785 277.883 167.446 275.914 167.31V165.951C276.784 165.996 277.905 166.042 279.279 166.087C280.699 166.132 282.004 166.155 283.194 166.155C284.339 166.155 285.461 166.132 286.559 166.087C287.704 166.042 288.62 165.996 289.307 165.951Z" fill="#160C0A"/>
<path d="M332.564 165.951C332.381 167.808 332.244 169.62 332.152 171.386C332.107 173.107 332.084 174.42 332.084 175.326C332.084 176.187 332.107 177.024 332.152 177.84C332.198 178.61 332.244 179.266 332.29 179.81H330.71C330.344 176.685 329.748 174.239 328.924 172.473C328.1 170.661 326.978 169.393 325.559 168.668C324.185 167.899 322.376 167.514 320.133 167.514H316.355C314.982 167.514 313.929 167.627 313.196 167.853C312.463 168.08 311.96 168.555 311.685 169.28C311.456 170.005 311.342 171.114 311.342 172.609V207.391C311.342 208.841 311.456 209.95 311.685 210.72C311.96 211.445 312.463 211.92 313.196 212.147C313.929 212.373 314.982 212.486 316.355 212.486H320.27C322.605 212.486 324.551 212.056 326.108 211.196C327.711 210.335 328.993 208.931 329.954 206.984C330.916 204.991 331.626 202.274 332.084 198.832H333.663C333.526 200.236 333.457 202.047 333.457 204.266C333.457 205.217 333.48 206.599 333.526 208.41C333.618 210.222 333.755 212.101 333.938 214.049C331.603 213.958 328.97 213.913 326.04 213.913C323.109 213.868 320.499 213.845 318.21 213.845C316.745 213.845 314.776 213.845 312.303 213.845C309.83 213.845 307.198 213.868 304.405 213.913C301.657 213.913 299.07 213.958 296.643 214.049V212.69C298.154 212.6 299.276 212.418 300.009 212.147C300.787 211.875 301.291 211.332 301.52 210.516C301.795 209.701 301.932 208.478 301.932 206.848V173.152C301.932 171.476 301.795 170.254 301.52 169.484C301.291 168.668 300.787 168.125 300.009 167.853C299.276 167.536 298.154 167.355 296.643 167.31V165.951C299.07 165.996 301.657 166.042 304.405 166.087C307.198 166.132 309.83 166.155 312.303 166.155C314.776 166.155 316.745 166.155 318.21 166.155C320.316 166.155 322.697 166.155 325.353 166.155C328.054 166.11 330.458 166.042 332.564 165.951ZM321.507 189.185C321.507 189.185 321.507 189.411 321.507 189.864C321.507 190.317 321.507 190.543 321.507 190.543H309.281C309.281 190.543 309.281 190.317 309.281 189.864C309.281 189.411 309.281 189.185 309.281 189.185H321.507ZM323.498 180.217C323.315 182.799 323.224 184.769 323.224 186.128C323.269 187.486 323.292 188.732 323.292 189.864C323.292 190.996 323.315 192.242 323.361 193.601C323.407 194.959 323.521 196.929 323.704 199.511H322.125C321.896 197.971 321.529 196.522 321.026 195.163C320.568 193.759 319.812 192.649 318.759 191.834C317.752 190.974 316.287 190.543 314.364 190.543V189.185C316.287 189.185 317.729 188.687 318.691 187.69C319.698 186.694 320.431 185.494 320.888 184.09C321.346 182.686 321.69 181.395 321.919 180.217H323.498Z" fill="#160C0A"/>
<path d="M391.903 165.747L408.592 208.342C409.279 209.973 410.012 211.105 410.79 211.739C411.614 212.328 412.37 212.645 413.057 212.69V214.049C411.866 213.958 410.424 213.913 408.73 213.913C407.081 213.868 405.387 213.845 403.647 213.845C401.633 213.845 399.755 213.868 398.015 213.913C396.275 213.913 394.856 213.958 393.757 214.049V212.69C396.092 212.6 397.58 212.215 398.221 211.535C398.862 210.811 398.725 209.293 397.809 206.984L385.721 174.715L386.957 173.22L375.968 201.413C374.778 204.402 374.205 206.712 374.251 208.342C374.297 209.928 374.846 211.037 375.9 211.671C376.953 212.305 378.441 212.645 380.364 212.69V214.049C378.899 213.958 377.479 213.913 376.106 213.913C374.732 213.868 373.358 213.845 371.985 213.845C370.977 213.845 370.016 213.868 369.1 213.913C368.23 213.913 367.452 213.958 366.765 214.049V212.69C367.772 212.464 368.757 211.875 369.718 210.924C370.725 209.973 371.687 208.32 372.603 205.965L388.331 165.747C388.881 165.793 389.476 165.815 390.117 165.815C390.758 165.815 391.353 165.793 391.903 165.747Z" fill="#160C0A"/>
<path d="M441.389 165C444.411 165 446.883 165.453 448.807 166.359C450.775 167.219 452.515 168.238 454.026 169.416C454.942 170.095 455.629 170.186 456.087 169.688C456.591 169.144 456.934 167.899 457.117 165.951H458.697C458.605 167.672 458.537 169.778 458.491 172.269C458.445 174.76 458.422 178.043 458.422 182.12H456.842C456.568 180.082 456.27 178.383 455.95 177.024C455.629 175.62 455.171 174.42 454.576 173.424C454.026 172.428 453.248 171.476 452.241 170.571C451.004 169.212 449.516 168.216 447.776 167.582C446.082 166.902 444.296 166.563 442.419 166.563C440.038 166.563 437.955 167.197 436.169 168.465C434.429 169.688 432.964 171.386 431.773 173.56C430.629 175.688 429.759 178.179 429.163 181.033C428.614 183.886 428.339 186.92 428.339 190.136C428.339 193.442 428.637 196.522 429.232 199.375C429.873 202.183 430.789 204.651 431.979 206.78C433.216 208.863 434.727 210.494 436.512 211.671C438.344 212.849 440.45 213.437 442.831 213.437C444.525 213.437 446.265 213.12 448.051 212.486C449.837 211.852 451.302 210.879 452.447 209.565C453.958 208.207 454.988 206.599 455.537 204.742C456.087 202.84 456.522 200.326 456.842 197.201H458.422C458.422 201.458 458.445 204.9 458.491 207.527C458.537 210.109 458.605 212.283 458.697 214.049H457.117C456.934 212.101 456.613 210.879 456.156 210.38C455.744 209.882 455.034 209.95 454.026 210.584C452.332 211.762 450.524 212.803 448.601 213.709C446.723 214.57 444.296 215 441.32 215C436.65 215 432.552 214.026 429.026 212.079C425.5 210.131 422.753 207.323 420.784 203.655C418.861 199.986 417.899 195.571 417.899 190.408C417.899 185.335 418.907 180.897 420.921 177.092C422.936 173.288 425.706 170.322 429.232 168.193C432.758 166.064 436.81 165 441.389 165Z" fill="#160C0A"/>
<path d="M492.227 165C495.249 165 497.722 165.453 499.645 166.359C501.614 167.219 503.354 168.238 504.865 169.416C505.781 170.095 506.468 170.186 506.925 169.688C507.429 169.144 507.773 167.899 507.956 165.951H509.535C509.444 167.672 509.375 169.778 509.329 172.269C509.284 174.76 509.261 178.043 509.261 182.12H507.681C507.406 180.082 507.109 178.383 506.788 177.024C506.468 175.62 506.01 174.42 505.414 173.424C504.865 172.428 504.087 171.476 503.079 170.571C501.843 169.212 500.355 168.216 498.615 167.582C496.921 166.902 495.135 166.563 493.258 166.563C490.877 166.563 488.793 167.197 487.008 168.465C485.268 169.688 483.802 171.386 482.612 173.56C481.467 175.688 480.597 178.179 480.002 181.033C479.452 183.886 479.178 186.92 479.178 190.136C479.178 193.442 479.475 196.522 480.071 199.375C480.712 202.183 481.627 204.651 482.818 206.78C484.054 208.863 485.565 210.494 487.351 211.671C489.182 212.849 491.289 213.437 493.67 213.437C495.364 213.437 497.104 213.12 498.89 212.486C500.675 211.852 502.141 210.879 503.285 209.565C504.796 208.207 505.827 206.599 506.376 204.742C506.925 202.84 507.36 200.326 507.681 197.201H509.261C509.261 201.458 509.284 204.9 509.329 207.527C509.375 210.109 509.444 212.283 509.535 214.049H507.956C507.773 212.101 507.452 210.879 506.994 210.38C506.582 209.882 505.872 209.95 504.865 210.584C503.171 211.762 501.362 212.803 499.439 213.709C497.562 214.57 495.135 215 492.159 215C487.488 215 483.39 214.026 479.865 212.079C476.339 210.131 473.591 207.323 471.623 203.655C469.699 199.986 468.738 195.571 468.738 190.408C468.738 185.335 469.745 180.897 471.76 177.092C473.775 173.288 476.545 170.322 480.071 168.193C483.596 166.064 487.648 165 492.227 165Z" fill="#160C0A"/>
<path d="M554.811 165.951C554.627 167.808 554.49 169.62 554.398 171.386C554.353 173.107 554.33 174.42 554.33 175.326C554.33 176.187 554.353 177.024 554.398 177.84C554.444 178.61 554.49 179.266 554.536 179.81H552.956C552.59 176.685 551.995 174.239 551.17 172.473C550.346 170.661 549.224 169.393 547.805 168.668C546.431 167.899 544.623 167.514 542.379 167.514H538.601C537.228 167.514 536.175 167.627 535.442 167.853C534.709 168.08 534.206 168.555 533.931 169.28C533.702 170.005 533.588 171.114 533.588 172.609V207.391C533.588 208.841 533.702 209.95 533.931 210.72C534.206 211.445 534.709 211.92 535.442 212.147C536.175 212.373 537.228 212.486 538.601 212.486H542.516C544.852 212.486 546.798 212.056 548.354 211.196C549.957 210.335 551.239 208.931 552.201 206.984C553.162 204.991 553.872 202.274 554.33 198.832H555.91C555.772 200.236 555.703 202.047 555.703 204.266C555.703 205.217 555.726 206.599 555.772 208.41C555.864 210.222 556.001 212.101 556.184 214.049C553.849 213.958 551.216 213.913 548.286 213.913C545.355 213.868 542.745 213.845 540.456 213.845C538.991 213.845 537.022 213.845 534.549 213.845C532.077 213.845 529.444 213.868 526.651 213.913C523.903 213.913 521.316 213.958 518.89 214.049V212.69C520.401 212.6 521.522 212.418 522.255 212.147C523.033 211.875 523.537 211.332 523.766 210.516C524.041 209.701 524.178 208.478 524.178 206.848V173.152C524.178 171.476 524.041 170.254 523.766 169.484C523.537 168.668 523.033 168.125 522.255 167.853C521.522 167.536 520.401 167.355 518.89 167.31V165.951C521.316 165.996 523.903 166.042 526.651 166.087C529.444 166.132 532.077 166.155 534.549 166.155C537.022 166.155 538.991 166.155 540.456 166.155C542.562 166.155 544.943 166.155 547.599 166.155C550.3 166.11 552.704 166.042 554.811 165.951ZM543.753 189.185C543.753 189.185 543.753 189.411 543.753 189.864C543.753 190.317 543.753 190.543 543.753 190.543H531.527C531.527 190.543 531.527 190.317 531.527 189.864C531.527 189.411 531.527 189.185 531.527 189.185H543.753ZM545.744 180.217C545.561 182.799 545.47 184.769 545.47 186.128C545.516 187.486 545.538 188.732 545.538 189.864C545.538 190.996 545.561 192.242 545.607 193.601C545.653 194.959 545.767 196.929 545.951 199.511H544.371C544.142 197.971 543.776 196.522 543.272 195.163C542.814 193.759 542.059 192.649 541.005 191.834C539.998 190.974 538.533 190.543 536.61 190.543V189.185C538.533 189.185 539.975 188.687 540.937 187.69C541.944 186.694 542.677 185.494 543.135 184.09C543.592 182.686 543.936 181.395 544.165 180.217H545.744Z" fill="#160C0A"/>
<path d="M580.91 165.136C583.474 165.136 585.443 165.408 586.817 165.951C588.19 166.495 589.381 167.083 590.388 167.717C590.938 168.034 591.373 168.284 591.693 168.465C592.059 168.601 592.403 168.668 592.723 168.668C593.456 168.668 593.96 167.672 594.234 165.679H595.814C595.768 166.54 595.7 167.536 595.608 168.668C595.562 169.801 595.516 171.318 595.471 173.22C595.471 175.077 595.471 177.545 595.471 180.625H593.891C593.754 178.315 593.227 176.096 592.311 173.967C591.441 171.839 590.182 170.095 588.534 168.736C586.931 167.332 584.871 166.63 582.352 166.63C580.109 166.63 578.231 167.287 576.72 168.601C575.255 169.914 574.522 171.68 574.522 173.899C574.522 175.802 575.003 177.409 575.965 178.723C576.926 179.991 578.277 181.236 580.017 182.459C581.803 183.637 583.909 184.995 586.336 186.535C588.579 187.985 590.594 189.434 592.38 190.883C594.166 192.287 595.562 193.85 596.57 195.571C597.623 197.292 598.149 199.398 598.149 201.889C598.149 204.832 597.417 207.278 595.951 209.226C594.486 211.173 592.517 212.622 590.045 213.573C587.572 214.524 584.871 215 581.94 215C579.239 215 577.087 214.728 575.484 214.185C573.927 213.641 572.576 213.075 571.432 212.486C570.424 211.852 569.646 211.535 569.097 211.535C568.364 211.535 567.86 212.532 567.586 214.524H566.006C566.097 213.483 566.143 212.26 566.143 210.856C566.189 209.452 566.212 207.64 566.212 205.421C566.258 203.157 566.281 200.303 566.281 196.861H567.86C568.043 199.76 568.547 202.477 569.371 205.014C570.241 207.505 571.546 209.52 573.286 211.06C575.072 212.6 577.43 213.37 580.36 213.37C582.741 213.37 584.779 212.713 586.473 211.399C588.167 210.041 589.014 208.003 589.014 205.285C589.014 202.523 588.053 200.213 586.13 198.356C584.207 196.499 581.688 194.62 578.575 192.717C576.423 191.359 574.408 189.977 572.531 188.573C570.653 187.169 569.142 185.584 567.998 183.818C566.899 182.006 566.349 179.832 566.349 177.296C566.349 174.488 567.036 172.201 568.41 170.435C569.783 168.623 571.569 167.287 573.767 166.427C576.011 165.566 578.392 165.136 580.91 165.136Z" fill="#160C0A"/>
<path d="M622.761 165.136C625.325 165.136 627.294 165.408 628.667 165.951C630.041 166.495 631.232 167.083 632.239 167.717C632.788 168.034 633.223 168.284 633.544 168.465C633.91 168.601 634.254 168.668 634.574 168.668C635.307 168.668 635.81 167.672 636.085 165.679H637.665C637.619 166.54 637.55 167.536 637.459 168.668C637.413 169.801 637.367 171.318 637.321 173.22C637.321 175.077 637.321 177.545 637.321 180.625H635.742C635.604 178.315 635.078 176.096 634.162 173.967C633.292 171.839 632.033 170.095 630.384 168.736C628.782 167.332 626.721 166.63 624.203 166.63C621.959 166.63 620.082 167.287 618.571 168.601C617.106 169.914 616.373 171.68 616.373 173.899C616.373 175.802 616.854 177.409 617.816 178.723C618.777 179.991 620.128 181.236 621.868 182.459C623.654 183.637 625.76 184.995 628.187 186.535C630.43 187.985 632.445 189.434 634.231 190.883C636.016 192.287 637.413 193.85 638.42 195.571C639.473 197.292 640 199.398 640 201.889C640 204.832 639.267 207.278 637.802 209.226C636.337 211.173 634.368 212.622 631.895 213.573C629.423 214.524 626.721 215 623.791 215C621.089 215 618.937 214.728 617.335 214.185C615.778 213.641 614.427 213.075 613.283 212.486C612.275 211.852 611.497 211.535 610.947 211.535C610.215 211.535 609.711 212.532 609.436 214.524H607.857C607.948 213.483 607.994 212.26 607.994 210.856C608.04 209.452 608.063 207.64 608.063 205.421C608.108 203.157 608.131 200.303 608.131 196.861H609.711C609.894 199.76 610.398 202.477 611.222 205.014C612.092 207.505 613.397 209.52 615.137 211.06C616.923 212.6 619.281 213.37 622.211 213.37C624.592 213.37 626.63 212.713 628.324 211.399C630.018 210.041 630.865 208.003 630.865 205.285C630.865 202.523 629.904 200.213 627.981 198.356C626.057 196.499 623.539 194.62 620.426 192.717C618.273 191.359 616.259 189.977 614.381 188.573C612.504 187.169 610.993 185.584 609.848 183.818C608.749 182.006 608.2 179.832 608.2 177.296C608.2 174.488 608.887 172.201 610.26 170.435C611.634 168.623 613.42 167.287 615.618 166.427C617.861 165.566 620.242 165.136 622.761 165.136Z" fill="#160C0A"/>
<path fill-rule="evenodd" clip-rule="evenodd" d="M161.154 214.302L144.464 171.707C143.778 170.076 143.045 168.944 142.267 168.31C141.442 167.721 140.687 167.404 140 167.359V166C141.19 166.091 142.633 166.136 144.327 166.136C145.975 166.181 147.67 166.204 149.41 166.204C151.424 166.204 153.302 166.181 155.041 166.136C156.781 166.136 158.201 166.091 159.3 166V167.359C156.965 167.449 155.476 167.834 154.835 168.514C154.194 169.238 154.332 170.755 155.248 173.065L167.015 204.479L175.23 183.403L170.647 171.707C169.961 170.076 169.228 168.944 168.45 168.31C167.625 167.721 166.87 167.404 166.183 167.359V166C167.374 166.091 168.816 166.136 170.51 166.136C172.158 166.181 173.853 166.204 175.593 166.204C177.607 166.204 179.485 166.181 181.225 166.136C182.965 166.136 184.384 166.091 185.483 166V167.359C183.148 167.449 181.66 167.834 181.019 168.514C180.377 169.238 180.515 170.755 181.431 173.065L193.198 204.479L203.272 178.636C204.462 175.647 205.035 173.337 204.989 171.707C204.943 170.121 204.393 169.012 203.34 168.378C202.287 167.744 200.799 167.404 198.876 167.359V166C200.341 166.091 201.761 166.136 203.134 166.136C204.508 166.181 205.882 166.204 207.255 166.204C208.263 166.204 209.224 166.181 210.14 166.136C211.01 166.136 211.788 166.091 212.475 166V167.359C211.468 167.585 210.483 168.174 209.522 169.125C208.514 170.076 207.553 171.729 206.637 174.084L190.909 214.302C190.359 214.256 189.764 214.234 189.123 214.234C188.482 214.234 187.887 214.256 187.337 214.302L176.021 185.42L164.726 214.302C164.176 214.256 163.581 214.234 162.94 214.234C162.299 214.234 161.704 214.256 161.154 214.302Z" fill="#160C0A"/>
<rect x="846" y="100" width="180" height="180" rx="90" fill="#A01F1D"/>
<path d="M969.1 165L986.38 209.093C987.091 210.781 987.849 211.953 988.655 212.609C989.509 213.218 990.291 213.547 991.002 213.594V215C989.769 214.906 988.276 214.859 986.522 214.859C984.815 214.812 983.061 214.789 981.26 214.789C979.174 214.789 977.23 214.812 975.429 214.859C973.628 214.859 972.158 214.906 971.02 215V213.594C973.438 213.5 974.979 213.101 975.642 212.398C976.306 211.648 976.164 210.077 975.216 207.686L962.7 174.283L963.98 172.736L952.603 201.92C951.37 205.014 950.778 207.405 950.825 209.093C950.873 210.734 951.441 211.882 952.532 212.539C953.622 213.195 955.163 213.547 957.154 213.594V215C955.637 214.906 954.167 214.859 952.745 214.859C951.323 214.812 949.901 214.789 948.479 214.789C947.436 214.789 946.44 214.812 945.492 214.859C944.591 214.859 943.785 214.906 943.074 215V213.594C944.117 213.359 945.136 212.75 946.132 211.765C947.175 210.781 948.17 209.069 949.119 206.631L965.403 165C965.971 165.047 966.588 165.07 967.251 165.07C967.915 165.07 968.531 165.047 969.1 165Z" fill="white"/>
<path fill-rule="evenodd" clip-rule="evenodd" d="M902.902 215L885.622 170.907C884.911 169.219 884.153 168.047 883.347 167.391C882.493 166.782 881.711 166.453 881 166.406V165C882.233 165.094 883.726 165.141 885.48 165.141C887.187 165.188 888.941 165.211 890.742 165.211C892.828 165.211 894.772 165.188 896.573 165.141C898.374 165.141 899.844 165.094 900.982 165V166.406C898.564 166.5 897.023 166.899 896.36 167.602C895.696 168.352 895.838 169.923 896.786 172.314L908.97 204.832L917.475 183.015L912.73 170.907C912.019 169.219 911.261 168.047 910.455 167.391C909.602 166.782 908.819 166.453 908.108 166.406V165C909.341 165.094 910.834 165.141 912.588 165.141C914.295 165.188 916.049 165.211 917.85 165.211C919.936 165.211 921.88 165.188 923.681 165.141C925.483 165.141 926.952 165.094 928.09 165V166.406C925.672 166.5 924.132 166.899 923.468 167.602C922.804 168.352 922.946 169.923 923.895 172.314L936.078 204.832L946.507 178.08C947.74 174.986 948.332 172.595 948.285 170.907C948.238 169.266 947.669 168.118 946.578 167.461C945.488 166.805 943.947 166.453 941.956 166.406V165C943.473 165.094 944.943 165.141 946.365 165.141C947.787 165.188 949.209 165.211 950.632 165.211C951.675 165.211 952.67 165.188 953.618 165.141C954.519 165.141 955.325 165.094 956.036 165V166.406C954.993 166.641 953.974 167.25 952.978 168.235C951.935 169.219 950.94 170.931 949.992 173.369L933.708 215C933.139 214.953 932.522 214.93 931.859 214.93C931.195 214.93 930.579 214.953 930.01 215L918.294 185.103L906.599 215C906.031 214.953 905.414 214.93 904.751 214.93C904.087 214.93 903.471 214.953 902.902 215Z" fill="white"/>
</svg>
