<svg width="1200" height="180" viewBox="0 0 1200 180" fill="none" xmlns="http://www.w3.org/2000/svg">
<rect width="1200" height="180" fill="white"/>
<path d="M96.9529 65.9511V67.3098C95.4877 67.3551 94.3659 67.5362 93.5875 67.8533C92.8549 68.125 92.3512 68.6685 92.0765 69.4837C91.8017 70.2536 91.6644 71.4764 91.6644 73.1522V106.848C91.6644 108.478 91.8017 109.701 92.0765 110.516C92.3512 111.332 92.8549 111.875 93.5875 112.147C94.3659 112.418 95.4877 112.6 96.9529 112.69V114.049C95.8082 113.958 94.343 113.913 92.5573 113.913C90.7715 113.868 88.9629 113.845 87.1313 113.845C85.0709 113.845 83.1478 113.868 81.362 113.913C79.5763 113.913 78.111 113.958 76.9663 114.049V112.69C78.4773 112.6 79.5992 112.418 80.3318 112.147C81.1102 111.875 81.6138 111.332 81.8428 110.516C82.1175 109.701 82.2549 108.478 82.2549 106.848V73.1522C82.2549 71.4764 82.1175 70.2536 81.8428 69.4837C81.6138 68.6685 81.1102 68.125 80.3318 67.8533C79.5992 67.5362 78.4773 67.3551 76.9663 67.3098V65.9511C78.111 65.9964 79.5763 66.0417 81.362 66.087C83.1478 66.1322 85.0709 66.1549 87.1313 66.1549C88.9629 66.1549 90.7715 66.1322 92.5573 66.087C94.343 66.0417 95.8082 65.9964 96.9529 65.9511Z" fill="#160C0A"/>
<path d="M149.307 65.9511V67.3098C147.842 67.4457 146.72 67.7853 145.941 68.3288C145.163 68.827 144.636 69.6422 144.362 70.7745C144.133 71.8614 144.018 73.4239 144.018 75.462V114.253C143.606 114.207 143.148 114.185 142.645 114.185C142.187 114.185 141.683 114.207 141.134 114.253L111.669 74.6467V103.995C111.669 106.168 111.806 107.867 112.081 109.09C112.356 110.267 112.951 111.128 113.867 111.671C114.828 112.169 116.27 112.509 118.194 112.69V114.049C117.324 113.958 116.202 113.913 114.828 113.913C113.454 113.868 112.149 113.845 110.913 113.845C109.814 113.845 108.692 113.868 107.548 113.913C106.449 113.913 105.533 113.958 104.8 114.049V112.69C106.311 112.509 107.433 112.169 108.166 111.671C108.944 111.173 109.448 110.358 109.677 109.226C109.952 108.093 110.089 106.531 110.089 104.538V73.1522C110.089 71.4764 109.952 70.2536 109.677 69.4837C109.448 68.6685 108.944 68.125 108.166 67.8533C107.433 67.5362 106.311 67.3551 104.8 67.3098V65.9511C105.533 65.9964 106.449 66.0417 107.548 66.087C108.692 66.1322 109.814 66.1549 110.913 66.1549C111.966 66.1549 112.997 66.1322 114.004 66.087C115.011 66.0417 115.904 65.9964 116.683 65.9511L142.438 99.8505V76.0054C142.438 73.7862 142.301 72.0879 142.026 70.9103C141.752 69.7328 141.156 68.8723 140.241 68.3288C139.325 67.7853 137.883 67.4457 135.914 67.3098V65.9511C136.784 65.9964 137.905 66.0417 139.279 66.087C140.699 66.1322 142.004 66.1549 143.194 66.1549C144.339 66.1549 145.461 66.1322 146.559 66.087C147.704 66.0417 148.62 65.9964 149.307 65.9511Z" fill="#160C0A"/>
<path d="M192.564 65.9511C192.381 67.808 192.244 69.6196 192.152 71.3859C192.107 73.1069 192.084 74.4203 192.084 75.3261C192.084 76.1866 192.107 77.0245 192.152 77.8397C192.198 78.6096 192.244 79.2663 192.29 79.8098H190.71C190.344 76.6848 189.748 74.2391 188.924 72.4728C188.1 70.6612 186.978 69.3931 185.559 68.6685C184.185 67.8986 182.376 67.5136 180.133 67.5136H176.355C174.982 67.5136 173.929 67.6268 173.196 67.8533C172.463 68.0797 171.96 68.5553 171.685 69.2799C171.456 70.0045 171.342 71.1141 171.342 72.6087V107.391C171.342 108.841 171.456 109.95 171.685 110.72C171.96 111.445 172.463 111.92 173.196 112.147C173.929 112.373 174.982 112.486 176.355 112.486H180.27C182.605 112.486 184.551 112.056 186.108 111.196C187.711 110.335 188.993 108.931 189.954 106.984C190.916 104.991 191.626 102.274 192.084 98.8315H193.663C193.526 100.236 193.457 102.047 193.457 104.266C193.457 105.217 193.48 106.599 193.526 108.41C193.618 110.222 193.755 112.101 193.938 114.049C191.603 113.958 188.97 113.913 186.04 113.913C183.109 113.868 180.499 113.845 178.21 113.845C176.745 113.845 174.776 113.845 172.303 113.845C169.83 113.845 167.198 113.868 164.405 113.913C161.657 113.913 159.07 113.958 156.643 114.049V112.69C158.154 112.6 159.276 112.418 160.009 112.147C160.787 111.875 161.291 111.332 161.52 110.516C161.795 109.701 161.932 108.478 161.932 106.848V73.1522C161.932 71.4764 161.795 70.2536 161.52 69.4837C161.291 68.6685 160.787 68.125 160.009 67.8533C159.276 67.5362 158.154 67.3551 156.643 67.3098V65.9511C159.07 65.9964 161.657 66.0417 164.405 66.087C167.198 66.1322 169.83 66.1549 172.303 66.1549C174.776 66.1549 176.745 66.1549 178.21 66.1549C180.316 66.1549 182.697 66.1549 185.353 66.1549C188.054 66.1096 190.458 66.0417 192.564 65.9511ZM181.507 89.1848C181.507 89.1848 181.507 89.4112 181.507 89.8641C181.507 90.317 181.507 90.5435 181.507 90.5435H169.281C169.281 90.5435 169.281 90.317 169.281 89.8641C169.281 89.4112 169.281 89.1848 169.281 89.1848H181.507ZM183.498 80.2174C183.315 82.7989 183.224 84.769 183.224 86.1277C183.269 87.4864 183.292 88.7319 183.292 89.8641C183.292 90.9964 183.315 92.2418 183.361 93.6005C183.407 94.9592 183.521 96.9293 183.704 99.5109H182.125C181.896 97.971 181.529 96.5217 181.026 95.163C180.568 93.7591 179.812 92.6495 178.759 91.8342C177.752 90.9737 176.287 90.5435 174.364 90.5435V89.1848C176.287 89.1848 177.729 88.6866 178.691 87.6902C179.698 86.6938 180.431 85.4937 180.888 84.0897C181.346 82.6857 181.69 81.3949 181.919 80.2174H183.498Z" fill="#160C0A"/>
<path d="M251.903 65.7473L268.592 108.342C269.279 109.973 270.012 111.105 270.79 111.739C271.614 112.328 272.37 112.645 273.057 112.69V114.049C271.866 113.958 270.424 113.913 268.73 113.913C267.081 113.868 265.387 113.845 263.647 113.845C261.633 113.845 259.755 113.868 258.015 113.913C256.275 113.913 254.856 113.958 253.757 114.049V112.69C256.092 112.6 257.58 112.215 258.221 111.535C258.862 110.811 258.725 109.293 257.809 106.984L245.721 74.7147L246.957 73.2201L235.968 101.413C234.778 104.402 234.205 106.712 234.251 108.342C234.297 109.928 234.846 111.037 235.9 111.671C236.953 112.305 238.441 112.645 240.364 112.69V114.049C238.899 113.958 237.479 113.913 236.106 113.913C234.732 113.868 233.358 113.845 231.985 113.845C230.977 113.845 230.016 113.868 229.1 113.913C228.23 113.913 227.452 113.958 226.765 114.049V112.69C227.772 112.464 228.757 111.875 229.718 110.924C230.725 109.973 231.687 108.32 232.603 105.965L248.331 65.7473C248.881 65.7926 249.476 65.8152 250.117 65.8152C250.758 65.8152 251.353 65.7926 251.903 65.7473Z" fill="#160C0A"/>
<path d="M301.389 65C304.411 65 306.883 65.4529 308.807 66.3587C310.775 67.2192 312.515 68.2382 314.026 69.4158C314.942 70.0951 315.629 70.1857 316.087 69.6875C316.591 69.144 316.934 67.8986 317.117 65.9511H318.697C318.605 67.6721 318.537 69.7781 318.491 72.269C318.445 74.76 318.422 78.0435 318.422 82.1196H316.842C316.568 80.0815 316.27 78.3832 315.95 77.0245C315.629 75.6205 315.171 74.4203 314.576 73.4239C314.026 72.4275 313.248 71.4765 312.241 70.5707C311.004 69.212 309.516 68.2156 307.776 67.5815C306.082 66.9022 304.296 66.5625 302.419 66.5625C300.038 66.5625 297.955 67.1966 296.169 68.4647C294.429 69.6875 292.964 71.3859 291.773 73.5598C290.629 75.6884 289.759 78.1793 289.163 81.0326C288.614 83.8859 288.339 86.9203 288.339 90.1359C288.339 93.442 288.637 96.5217 289.232 99.375C289.873 102.183 290.789 104.651 291.979 106.78C293.216 108.863 294.727 110.494 296.512 111.671C298.344 112.849 300.45 113.437 302.831 113.437C304.525 113.437 306.265 113.12 308.051 112.486C309.837 111.852 311.302 110.879 312.447 109.565C313.958 108.207 314.988 106.599 315.537 104.742C316.087 102.84 316.522 100.326 316.842 97.2011H318.422C318.422 101.458 318.445 104.9 318.491 107.527C318.537 110.109 318.605 112.283 318.697 114.049H317.117C316.934 112.101 316.613 110.879 316.156 110.38C315.744 109.882 315.034 109.95 314.026 110.584C312.332 111.762 310.524 112.803 308.601 113.709C306.723 114.57 304.296 115 301.32 115C296.65 115 292.552 114.026 289.026 112.079C285.5 110.131 282.753 107.323 280.784 103.655C278.861 99.9864 277.899 95.5706 277.899 90.4076C277.899 85.3351 278.907 80.8967 280.921 77.0924C282.936 73.288 285.706 70.3216 289.232 68.1929C292.758 66.0643 296.81 65 301.389 65Z" fill="#160C0A"/>
<path d="M352.227 65C355.249 65 357.722 65.4529 359.645 66.3587C361.614 67.2192 363.354 68.2382 364.865 69.4158C365.781 70.0951 366.468 70.1857 366.925 69.6875C367.429 69.144 367.773 67.8986 367.956 65.9511H369.535C369.444 67.6721 369.375 69.7781 369.329 72.269C369.284 74.76 369.261 78.0435 369.261 82.1196H367.681C367.406 80.0815 367.109 78.3832 366.788 77.0245C366.468 75.6205 366.01 74.4203 365.414 73.4239C364.865 72.4275 364.087 71.4765 363.079 70.5707C361.843 69.212 360.355 68.2156 358.615 67.5815C356.921 66.9022 355.135 66.5625 353.258 66.5625C350.877 66.5625 348.793 67.1966 347.008 68.4647C345.268 69.6875 343.802 71.3859 342.612 73.5598C341.467 75.6884 340.597 78.1793 340.002 81.0326C339.452 83.8859 339.178 86.9203 339.178 90.1359C339.178 93.442 339.475 96.5217 340.071 99.375C340.712 102.183 341.627 104.651 342.818 106.78C344.054 108.863 345.565 110.494 347.351 111.671C349.182 112.849 351.289 113.437 353.67 113.437C355.364 113.437 357.104 113.12 358.89 112.486C360.675 111.852 362.141 110.879 363.285 109.565C364.796 108.207 365.827 106.599 366.376 104.742C366.925 102.84 367.36 100.326 367.681 97.2011H369.261C369.261 101.458 369.284 104.9 369.329 107.527C369.375 110.109 369.444 112.283 369.535 114.049H367.956C367.773 112.101 367.452 110.879 366.994 110.38C366.582 109.882 365.872 109.95 364.865 110.584C363.171 111.762 361.362 112.803 359.439 113.709C357.562 114.57 355.135 115 352.159 115C347.488 115 343.39 114.026 339.865 112.079C336.339 110.131 333.591 107.323 331.623 103.655C329.699 99.9864 328.738 95.5706 328.738 90.4076C328.738 85.3351 329.745 80.8967 331.76 77.0924C333.775 73.288 336.545 70.3216 340.071 68.1929C343.596 66.0643 347.648 65 352.227 65Z" fill="#160C0A"/>
<path d="M414.811 65.9511C414.627 67.808 414.49 69.6196 414.398 71.3859C414.353 73.1069 414.33 74.4203 414.33 75.3261C414.33 76.1866 414.353 77.0245 414.398 77.8397C414.444 78.6096 414.49 79.2663 414.536 79.8098H412.956C412.59 76.6848 411.995 74.2391 411.17 72.4728C410.346 70.6612 409.224 69.3931 407.805 68.6685C406.431 67.8986 404.623 67.5136 402.379 67.5136H398.601C397.228 67.5136 396.175 67.6268 395.442 67.8533C394.709 68.0797 394.206 68.5553 393.931 69.2799C393.702 70.0045 393.588 71.1141 393.588 72.6087V107.391C393.588 108.841 393.702 109.95 393.931 110.72C394.206 111.445 394.709 111.92 395.442 112.147C396.175 112.373 397.228 112.486 398.601 112.486H402.516C404.852 112.486 406.798 112.056 408.354 111.196C409.957 110.335 411.239 108.931 412.201 106.984C413.162 104.991 413.872 102.274 414.33 98.8315H415.91C415.772 100.236 415.703 102.047 415.703 104.266C415.703 105.217 415.726 106.599 415.772 108.41C415.864 110.222 416.001 112.101 416.184 114.049C413.849 113.958 411.216 113.913 408.286 113.913C405.355 113.868 402.745 113.845 400.456 113.845C398.991 113.845 397.022 113.845 394.549 113.845C392.077 113.845 389.444 113.868 386.651 113.913C383.903 113.913 381.316 113.958 378.89 114.049V112.69C380.401 112.6 381.522 112.418 382.255 112.147C383.033 111.875 383.537 111.332 383.766 110.516C384.041 109.701 384.178 108.478 384.178 106.848V73.1522C384.178 71.4764 384.041 70.2536 383.766 69.4837C383.537 68.6685 383.033 68.125 382.255 67.8533C381.522 67.5362 380.401 67.3551 378.89 67.3098V65.9511C381.316 65.9964 383.903 66.0417 386.651 66.087C389.444 66.1322 392.077 66.1549 394.549 66.1549C397.022 66.1549 398.991 66.1549 400.456 66.1549C402.562 66.1549 404.943 66.1549 407.599 66.1549C410.3 66.1096 412.704 66.0417 414.811 65.9511ZM403.753 89.1848C403.753 89.1848 403.753 89.4112 403.753 89.8641C403.753 90.317 403.753 90.5435 403.753 90.5435H391.527C391.527 90.5435 391.527 90.317 391.527 89.8641C391.527 89.4112 391.527 89.1848 391.527 89.1848H403.753ZM405.744 80.2174C405.561 82.7989 405.47 84.769 405.47 86.1277C405.516 87.4864 405.538 88.7319 405.538 89.8641C405.538 90.9964 405.561 92.2418 405.607 93.6005C405.653 94.9592 405.767 96.9293 405.951 99.5109H404.371C404.142 97.971 403.776 96.5217 403.272 95.163C402.814 93.7591 402.059 92.6495 401.005 91.8342C399.998 90.9737 398.533 90.5435 396.61 90.5435V89.1848C398.533 89.1848 399.975 88.6866 400.937 87.6902C401.944 86.6938 402.677 85.4937 403.135 84.0897C403.592 82.6857 403.936 81.3949 404.165 80.2174H405.744Z" fill="#160C0A"/>
<path d="M440.91 65.1359C443.474 65.1359 445.443 65.4076 446.817 65.9511C448.19 66.4946 449.381 67.0833 450.388 67.7174C450.938 68.0344 451.373 68.2835 451.693 68.4647C452.059 68.6005 452.403 68.6685 452.723 68.6685C453.456 68.6685 453.96 67.6721 454.234 65.6794H455.814C455.768 66.5399 455.7 67.5362 455.608 68.6685C455.562 69.8007 455.516 71.3179 455.471 73.2201C455.471 75.077 455.471 77.5453 455.471 80.625H453.891C453.754 78.3152 453.227 76.096 452.311 73.9674C451.441 71.8388 450.182 70.0951 448.534 68.7364C446.931 67.3324 444.871 66.6304 442.352 66.6304C440.109 66.6304 438.231 67.2871 436.72 68.6005C435.255 69.9139 434.522 71.6803 434.522 73.8995C434.522 75.8016 435.003 77.4094 435.965 78.7228C436.926 79.9909 438.277 81.2364 440.017 82.4592C441.803 83.6368 443.909 84.9955 446.336 86.5353C448.579 87.9846 450.594 89.4339 452.38 90.8832C454.166 92.2871 455.562 93.8496 456.57 95.5706C457.623 97.2917 458.149 99.3976 458.149 101.889C458.149 104.832 457.417 107.278 455.951 109.226C454.486 111.173 452.517 112.622 450.045 113.573C447.572 114.524 444.871 115 441.94 115C439.239 115 437.087 114.728 435.484 114.185C433.927 113.641 432.576 113.075 431.432 112.486C430.424 111.852 429.646 111.535 429.097 111.535C428.364 111.535 427.86 112.532 427.586 114.524H426.006C426.097 113.483 426.143 112.26 426.143 110.856C426.189 109.452 426.212 107.64 426.212 105.421C426.258 103.157 426.281 100.303 426.281 96.8614H427.86C428.043 99.76 428.547 102.477 429.371 105.014C430.241 107.505 431.546 109.52 433.286 111.06C435.072 112.6 437.43 113.37 440.36 113.37C442.741 113.37 444.779 112.713 446.473 111.399C448.167 110.041 449.014 108.003 449.014 105.285C449.014 102.523 448.053 100.213 446.13 98.356C444.207 96.4991 441.688 94.6196 438.575 92.7174C436.423 91.3587 434.408 89.9774 432.531 88.5734C430.653 87.1694 429.142 85.5842 427.998 83.8179C426.899 82.0063 426.349 79.8324 426.349 77.2962C426.349 74.4882 427.036 72.2011 428.41 70.4348C429.783 68.6232 431.569 67.2871 433.767 66.4266C436.011 65.5661 438.392 65.1359 440.91 65.1359Z" fill="#160C0A"/>
<path d="M482.761 65.1359C485.325 65.1359 487.294 65.4076 488.667 65.9511C490.041 66.4946 491.232 67.0833 492.239 67.7174C492.788 68.0344 493.223 68.2835 493.544 68.4647C493.91 68.6005 494.254 68.6685 494.574 68.6685C495.307 68.6685 495.81 67.6721 496.085 65.6794H497.665C497.619 66.5399 497.55 67.5362 497.459 68.6685C497.413 69.8007 497.367 71.3179 497.321 73.2201C497.321 75.077 497.321 77.5453 497.321 80.625H495.742C495.604 78.3152 495.078 76.096 494.162 73.9674C493.292 71.8388 492.033 70.0951 490.384 68.7364C488.782 67.3324 486.721 66.6304 484.203 66.6304C481.959 66.6304 480.082 67.2871 478.571 68.6005C477.106 69.9139 476.373 71.6803 476.373 73.8995C476.373 75.8016 476.854 77.4094 477.816 78.7228C478.777 79.9909 480.128 81.2364 481.868 82.4592C483.654 83.6368 485.76 84.9955 488.187 86.5353C490.43 87.9846 492.445 89.4339 494.231 90.8832C496.016 92.2871 497.413 93.8496 498.42 95.5706C499.473 97.2917 500 99.3976 500 101.889C500 104.832 499.267 107.278 497.802 109.226C496.337 111.173 494.368 112.622 491.895 113.573C489.423 114.524 486.721 115 483.791 115C481.089 115 478.937 114.728 477.335 114.185C475.778 113.641 474.427 113.075 473.283 112.486C472.275 111.852 471.497 111.535 470.947 111.535C470.215 111.535 469.711 112.532 469.436 114.524H467.857C467.948 113.483 467.994 112.26 467.994 110.856C468.04 109.452 468.063 107.64 468.063 105.421C468.108 103.157 468.131 100.303 468.131 96.8614H469.711C469.894 99.76 470.398 102.477 471.222 105.014C472.092 107.505 473.397 109.52 475.137 111.06C476.923 112.6 479.281 113.37 482.211 113.37C484.592 113.37 486.63 112.713 488.324 111.399C490.018 110.041 490.865 108.003 490.865 105.285C490.865 102.523 489.904 100.213 487.981 98.356C486.057 96.4991 483.539 94.6196 480.426 92.7174C478.273 91.3587 476.259 89.9774 474.381 88.5734C472.504 87.1694 470.993 85.5842 469.848 83.8179C468.749 82.0063 468.2 79.8324 468.2 77.2962C468.2 74.4882 468.887 72.2011 470.26 70.4348C471.634 68.6232 473.42 67.2871 475.618 66.4266C477.861 65.5661 480.242 65.1359 482.761 65.1359Z" fill="#160C0A"/>
<path fill-rule="evenodd" clip-rule="evenodd" d="M21.1542 114.302L4.46438 71.7065C3.77756 70.0761 3.04493 68.9438 2.26653 68.3098C1.44234 67.721 0.686825 67.404 0 67.3587V66C1.1905 66.0906 2.63284 66.1359 4.32701 66.1359C5.97539 66.1812 7.66958 66.2038 9.40954 66.2038C11.4242 66.2038 13.3015 66.1812 15.0415 66.1359C16.7814 66.1359 18.2009 66.0906 19.2998 66V67.3587C16.9646 67.4493 15.4765 67.8342 14.8355 68.5136C14.1944 69.2382 14.3318 70.7554 15.2476 73.0652L27.0153 104.479L35.2304 83.403L30.6475 71.7065C29.9606 70.0761 29.228 68.9439 28.4496 68.3098C27.6254 67.721 26.8699 67.404 26.1831 67.3587V66C27.3736 66.0906 28.8159 66.1359 30.5101 66.1359C32.1585 66.1812 33.8527 66.2038 35.5926 66.2038C37.6073 66.2038 39.4846 66.1812 41.2246 66.1359C42.9645 66.1359 44.384 66.0906 45.4829 66V67.3587C43.1477 67.4493 41.6596 67.8342 41.0185 68.5136C40.3775 69.2382 40.5149 70.7554 41.4306 73.0652L53.1984 104.479L63.2717 78.6359C64.4622 75.6467 65.0345 73.337 64.9887 71.7065C64.9429 70.1214 64.3935 69.0118 63.3403 68.3777C62.2872 67.7437 60.7991 67.404 58.876 67.3587V66C60.3412 66.0906 61.7607 66.1359 63.1343 66.1359C64.508 66.1812 65.8816 66.2038 67.2553 66.2038C68.2626 66.2038 69.2242 66.1812 70.1399 66.1359C71.0099 66.1359 71.7883 66.0906 72.4751 66V67.3587C71.4678 67.5852 70.4833 68.1739 69.5218 69.125C68.5144 70.0761 67.5529 71.7292 66.6371 74.0842L50.9088 114.302C50.3593 114.256 49.7641 114.234 49.1231 114.234C48.482 114.234 47.8868 114.256 47.3373 114.302L36.0208 85.4201L24.7257 114.302C24.1763 114.256 23.581 114.234 22.94 114.234C22.2989 114.234 21.7037 114.256 21.1542 114.302Z" fill="#160C0A"/>
<rect x="969" width="180" height="180" rx="90" fill="#A01F1D"/>
<path d="M1092.1 65L1109.38 109.093C1110.09 110.781 1110.85 111.953 1111.66 112.609C1112.51 113.218 1113.29 113.547 1114 113.594V115C1112.77 114.906 1111.28 114.859 1109.52 114.859C1107.82 114.812 1106.06 114.789 1104.26 114.789C1102.17 114.789 1100.23 114.812 1098.43 114.859C1096.63 114.859 1095.16 114.906 1094.02 115V113.594C1096.44 113.5 1097.98 113.101 1098.64 112.398C1099.31 111.648 1099.16 110.077 1098.22 107.686L1085.7 74.2827L1086.98 72.7356L1075.6 101.92C1074.37 105.014 1073.78 107.405 1073.83 109.093C1073.87 110.734 1074.44 111.882 1075.53 112.539C1076.62 113.195 1078.16 113.547 1080.15 113.594V115C1078.64 114.906 1077.17 114.859 1075.75 114.859C1074.32 114.812 1072.9 114.789 1071.48 114.789C1070.44 114.789 1069.44 114.812 1068.49 114.859C1067.59 114.859 1066.79 114.906 1066.07 115V113.594C1067.12 113.359 1068.14 112.75 1069.13 111.765C1070.17 110.781 1071.17 109.069 1072.12 106.631L1088.4 65C1088.97 65.0469 1089.59 65.0703 1090.25 65.0703C1090.92 65.0703 1091.53 65.0469 1092.1 65Z" fill="white"/>
<path fill-rule="evenodd" clip-rule="evenodd" d="M1025.9 115L1008.62 70.9072C1007.91 69.2194 1007.15 68.0474 1006.35 67.391C1005.49 66.7815 1004.71 66.4534 1004 66.4065V65C1005.23 65.0938 1006.73 65.1406 1008.48 65.1406C1010.19 65.1875 1011.94 65.211 1013.74 65.211C1015.83 65.211 1017.77 65.1875 1019.57 65.1406C1021.37 65.1406 1022.84 65.0938 1023.98 65V66.4065C1021.56 66.5002 1020.02 66.8987 1019.36 67.602C1018.7 68.3521 1018.84 69.9226 1019.79 72.3136L1031.97 104.832L1040.48 83.0149L1035.73 70.9072C1035.02 69.2194 1034.26 68.0474 1033.45 67.391C1032.6 66.7815 1031.82 66.4534 1031.11 66.4065V65C1032.34 65.0938 1033.83 65.1407 1035.59 65.1407C1037.29 65.1875 1039.05 65.211 1040.85 65.211C1042.94 65.211 1044.88 65.1875 1046.68 65.1407C1048.48 65.1407 1049.95 65.0938 1051.09 65V66.4065C1048.67 66.5002 1047.13 66.8987 1046.47 67.602C1045.8 68.3521 1045.95 69.9227 1046.89 72.3137L1059.08 104.832L1069.51 78.0802C1070.74 74.9859 1071.33 72.5949 1071.29 70.9072C1071.24 69.2663 1070.67 68.1177 1069.58 67.4613C1068.49 66.805 1066.95 66.4534 1064.96 66.4065V65C1066.47 65.0938 1067.94 65.1407 1069.37 65.1407C1070.79 65.1875 1072.21 65.211 1073.63 65.211C1074.67 65.211 1075.67 65.1875 1076.62 65.1407C1077.52 65.1407 1078.32 65.0938 1079.04 65V66.4065C1077.99 66.6409 1076.97 67.2504 1075.98 68.2349C1074.94 69.2194 1073.94 70.9306 1072.99 73.3685L1056.71 115C1056.14 114.953 1055.52 114.93 1054.86 114.93C1054.2 114.93 1053.58 114.953 1053.01 115L1041.29 85.1029L1029.6 115C1029.03 114.953 1028.41 114.93 1027.75 114.93C1027.09 114.93 1026.47 114.953 1025.9 115Z" fill="white"/>
</svg>
