<svg width="839" height="183" viewBox="0 0 839 183" fill="none" xmlns="http://www.w3.org/2000/svg">
<path d="M106.142 97.7473L122.835 140.342C123.522 141.973 124.254 143.105 125.033 143.739C125.857 144.328 126.613 144.645 127.3 144.69V146.049C126.109 145.958 124.666 145.913 122.972 145.913C121.323 145.868 119.629 145.845 117.889 145.845C115.874 145.845 113.996 145.868 112.256 145.913C110.516 145.913 109.096 145.958 107.997 146.049V144.69C110.332 144.6 111.821 144.215 112.462 143.535C113.103 142.811 112.966 141.293 112.05 138.984L99.9595 106.715L101.196 105.22L90.205 133.413C89.0143 136.402 88.4418 138.712 88.4876 140.342C88.5334 141.928 89.083 143.037 90.1363 143.671C91.1896 144.305 92.6779 144.645 94.6014 144.69V146.049C93.1359 145.958 91.7162 145.913 90.3423 145.913C88.9685 145.868 87.5946 145.845 86.2207 145.845C85.2132 145.845 84.2515 145.868 83.3356 145.913C82.4654 145.913 81.6869 145.958 81 146.049V144.69C82.0075 144.464 82.9921 143.875 83.9538 142.924C84.9613 141.973 85.9231 140.32 86.839 137.965L102.57 97.7473C103.119 97.7926 103.715 97.8152 104.356 97.8152C104.997 97.8152 105.592 97.7926 106.142 97.7473Z" fill="#160C0A"/>
<path d="M155.637 97C158.659 97 161.132 97.4529 163.055 98.3587C165.025 99.2192 166.765 100.238 168.276 101.416C169.192 102.095 169.879 102.186 170.337 101.688C170.841 101.144 171.184 99.8986 171.367 97.9511H172.947C172.856 99.6721 172.787 101.778 172.741 104.269C172.696 106.76 172.673 110.043 172.673 114.12H171.093C170.818 112.082 170.52 110.383 170.2 109.024C169.879 107.62 169.421 106.42 168.826 105.424C168.276 104.428 167.498 103.476 166.49 102.571C165.254 101.212 163.765 100.216 162.025 99.5815C160.331 98.9022 158.545 98.5625 156.667 98.5625C154.286 98.5625 152.202 99.1966 150.416 100.465C148.676 101.688 147.21 103.386 146.019 105.56C144.874 107.688 144.004 110.179 143.409 113.033C142.859 115.886 142.585 118.92 142.585 122.136C142.585 125.442 142.882 128.522 143.478 131.375C144.119 134.183 145.035 136.651 146.225 138.78C147.462 140.863 148.973 142.494 150.759 143.671C152.591 144.849 154.698 145.437 157.079 145.437C158.774 145.437 160.514 145.12 162.3 144.486C164.086 143.852 165.551 142.879 166.696 141.565C168.208 140.207 169.238 138.599 169.788 136.742C170.337 134.84 170.772 132.326 171.093 129.201H172.673C172.673 133.458 172.696 136.9 172.741 139.527C172.787 142.109 172.856 144.283 172.947 146.049H171.367C171.184 144.101 170.864 142.879 170.406 142.38C169.994 141.882 169.284 141.95 168.276 142.584C166.582 143.762 164.773 144.803 162.849 145.709C160.972 146.57 158.545 147 155.568 147C150.897 147 146.798 146.026 143.272 144.079C139.745 142.131 136.998 139.323 135.028 135.655C133.105 131.986 132.143 127.571 132.143 122.408C132.143 117.335 133.151 112.897 135.166 109.092C137.181 105.288 139.951 102.322 143.478 100.193C147.004 98.0643 151.057 97 155.637 97Z" fill="#160C0A"/>
<path d="M206.483 97C209.506 97 211.979 97.4529 213.902 98.3587C215.872 99.2192 217.612 100.238 219.123 101.416C220.039 102.095 220.726 102.186 221.184 101.688C221.688 101.144 222.031 99.8986 222.214 97.9511H223.794C223.703 99.6721 223.634 101.778 223.588 104.269C223.543 106.76 223.52 110.043 223.52 114.12H221.94C221.665 112.082 221.367 110.383 221.047 109.024C220.726 107.62 220.268 106.42 219.673 105.424C219.123 104.428 218.345 103.476 217.337 102.571C216.101 101.212 214.612 100.216 212.872 99.5815C211.178 98.9022 209.392 98.5625 207.514 98.5625C205.133 98.5625 203.049 99.1966 201.263 100.465C199.523 101.688 198.057 103.386 196.866 105.56C195.721 107.688 194.851 110.179 194.256 113.033C193.706 115.886 193.432 118.92 193.432 122.136C193.432 125.442 193.729 128.522 194.325 131.375C194.966 134.183 195.882 136.651 197.072 138.78C198.309 140.863 199.82 142.494 201.606 143.671C203.438 144.849 205.545 145.437 207.926 145.437C209.621 145.437 211.361 145.12 213.147 144.486C214.933 143.852 216.398 142.879 217.543 141.565C219.055 140.207 220.085 138.599 220.634 136.742C221.184 134.84 221.619 132.326 221.94 129.201H223.52C223.52 133.458 223.543 136.9 223.588 139.527C223.634 142.109 223.703 144.283 223.794 146.049H222.214C222.031 144.101 221.711 142.879 221.253 142.38C220.841 141.882 220.131 141.95 219.123 142.584C217.429 143.762 215.62 144.803 213.696 145.709C211.819 146.57 209.392 147 206.415 147C201.744 147 197.645 146.026 194.119 144.079C190.592 142.131 187.845 139.323 185.875 135.655C183.952 131.986 182.99 127.571 182.99 122.408C182.99 117.335 183.998 112.897 186.013 109.092C188.028 105.288 190.798 102.322 194.325 100.193C197.851 98.0643 201.904 97 206.483 97Z" fill="#160C0A"/>
<path d="M269.077 97.9511C268.894 99.808 268.757 101.62 268.665 103.386C268.619 105.107 268.596 106.42 268.596 107.326C268.596 108.187 268.619 109.024 268.665 109.84C268.711 110.61 268.757 111.266 268.802 111.81H267.222C266.856 108.685 266.261 106.239 265.436 104.473C264.612 102.661 263.49 101.393 262.07 100.668C260.696 99.8986 258.888 99.5136 256.644 99.5136H252.865C251.491 99.5136 250.438 99.6268 249.705 99.8533C248.973 100.08 248.469 100.555 248.194 101.28C247.965 102.005 247.851 103.114 247.851 104.609V139.391C247.851 140.841 247.965 141.95 248.194 142.72C248.469 143.445 248.973 143.92 249.705 144.147C250.438 144.373 251.491 144.486 252.865 144.486H256.781C259.117 144.486 261.063 144.056 262.62 143.196C264.223 142.335 265.505 140.931 266.467 138.984C267.428 136.991 268.138 134.274 268.596 130.832H270.176C270.039 132.236 269.97 134.047 269.97 136.266C269.97 137.217 269.993 138.599 270.039 140.41C270.13 142.222 270.268 144.101 270.451 146.049C268.115 145.958 265.482 145.913 262.551 145.913C259.62 145.868 257.01 145.845 254.72 145.845C253.255 145.845 251.285 145.845 248.812 145.845C246.339 145.845 243.706 145.868 240.913 145.913C238.165 145.913 235.577 145.958 233.15 146.049V144.69C234.661 144.6 235.783 144.418 236.516 144.147C237.295 143.875 237.798 143.332 238.027 142.516C238.302 141.701 238.44 140.478 238.44 138.848V105.152C238.44 103.476 238.302 102.254 238.027 101.484C237.798 100.668 237.295 100.125 236.516 99.8533C235.783 99.5362 234.661 99.3551 233.15 99.3098V97.9511C235.577 97.9964 238.165 98.0417 240.913 98.087C243.706 98.1322 246.339 98.1549 248.812 98.1549C251.285 98.1549 253.255 98.1549 254.72 98.1549C256.827 98.1549 259.208 98.1549 261.864 98.1549C264.566 98.1096 266.971 98.0417 269.077 97.9511ZM258.017 121.185C258.017 121.185 258.017 121.411 258.017 121.864C258.017 122.317 258.017 122.543 258.017 122.543H245.79C245.79 122.543 245.79 122.317 245.79 121.864C245.79 121.411 245.79 121.185 245.79 121.185H258.017ZM260.01 112.217C259.826 114.799 259.735 116.769 259.735 118.128C259.781 119.486 259.803 120.732 259.803 121.864C259.803 122.996 259.826 124.242 259.872 125.601C259.918 126.959 260.032 128.929 260.216 131.511H258.636C258.407 129.971 258.04 128.522 257.537 127.163C257.079 125.759 256.323 124.649 255.27 123.834C254.262 122.974 252.797 122.543 250.873 122.543V121.185C252.797 121.185 254.239 120.687 255.201 119.69C256.208 118.694 256.941 117.494 257.399 116.09C257.857 114.686 258.201 113.395 258.43 112.217H260.01Z" fill="#160C0A"/>
<path d="M295.181 97.1359C297.745 97.1359 299.715 97.4076 301.089 97.9511C302.462 98.4946 303.653 99.0833 304.661 99.7174C305.21 100.034 305.645 100.284 305.966 100.465C306.332 100.601 306.676 100.668 306.996 100.668C307.729 100.668 308.233 99.6721 308.508 97.6794H310.087C310.042 98.5399 309.973 99.5362 309.881 100.668C309.836 101.801 309.79 103.318 309.744 105.22C309.744 107.077 309.744 109.545 309.744 112.625H308.164C308.027 110.315 307.5 108.096 306.584 105.967C305.714 103.839 304.455 102.095 302.806 100.736C301.203 99.3324 299.142 98.6304 296.623 98.6304C294.379 98.6304 292.502 99.2871 290.991 100.601C289.525 101.914 288.792 103.68 288.792 105.899C288.792 107.802 289.273 109.409 290.235 110.723C291.197 111.991 292.548 113.236 294.288 114.459C296.074 115.637 298.181 116.995 300.608 118.535C302.852 119.985 304.867 121.434 306.653 122.883C308.439 124.287 309.836 125.85 310.843 127.571C311.896 129.292 312.423 131.398 312.423 133.889C312.423 136.832 311.69 139.278 310.225 141.226C308.759 143.173 306.79 144.622 304.317 145.573C301.844 146.524 299.142 147 296.211 147C293.509 147 291.357 146.728 289.754 146.185C288.197 145.641 286.846 145.075 285.701 144.486C284.694 143.852 283.915 143.535 283.366 143.535C282.633 143.535 282.129 144.532 281.854 146.524H280.274C280.366 145.483 280.412 144.26 280.412 142.856C280.457 141.452 280.48 139.64 280.48 137.421C280.526 135.157 280.549 132.303 280.549 128.861H282.129C282.312 131.76 282.816 134.477 283.64 137.014C284.51 139.505 285.816 141.52 287.556 143.06C289.342 144.6 291.7 145.37 294.631 145.37C297.013 145.37 299.051 144.713 300.745 143.399C302.44 142.041 303.287 140.003 303.287 137.285C303.287 134.523 302.325 132.213 300.402 130.356C298.478 128.499 295.959 126.62 292.845 124.717C290.693 123.359 288.678 121.977 286.8 120.573C284.923 119.169 283.411 117.584 282.266 115.818C281.167 114.006 280.618 111.832 280.618 109.296C280.618 106.488 281.305 104.201 282.679 102.435C284.052 100.623 285.838 99.2871 288.037 98.4266C290.281 97.5661 292.662 97.1359 295.181 97.1359Z" fill="#160C0A"/>
<path d="M337.039 97.1359C339.603 97.1359 341.572 97.4076 342.946 97.9511C344.32 98.4946 345.511 99.0833 346.518 99.7174C347.068 100.034 347.503 100.284 347.824 100.465C348.19 100.601 348.533 100.668 348.854 100.668C349.587 100.668 350.09 99.6721 350.365 97.6794H351.945C351.899 98.5399 351.831 99.5362 351.739 100.668C351.693 101.801 351.647 103.318 351.602 105.22C351.602 107.077 351.602 109.545 351.602 112.625H350.022C349.884 110.315 349.358 108.096 348.442 105.967C347.572 103.839 346.312 102.095 344.664 100.736C343.061 99.3324 341 98.6304 338.481 98.6304C336.237 98.6304 334.36 99.2871 332.848 100.601C331.383 101.914 330.65 103.68 330.65 105.899C330.65 107.802 331.131 109.409 332.093 110.723C333.054 111.991 334.405 113.236 336.146 114.459C337.932 115.637 340.038 116.995 342.465 118.535C344.709 119.985 346.724 121.434 348.51 122.883C350.297 124.287 351.693 125.85 352.701 127.571C353.754 129.292 354.281 131.398 354.281 133.889C354.281 136.832 353.548 139.278 352.083 141.226C350.617 143.173 348.648 144.622 346.175 145.573C343.702 146.524 341 147 338.069 147C335.367 147 333.215 146.728 331.612 146.185C330.055 145.641 328.704 145.075 327.559 144.486C326.551 143.852 325.773 143.535 325.223 143.535C324.491 143.535 323.987 144.532 323.712 146.524H322.132C322.224 145.483 322.269 144.26 322.269 142.856C322.315 141.452 322.338 139.64 322.338 137.421C322.384 135.157 322.407 132.303 322.407 128.861H323.987C324.17 131.76 324.674 134.477 325.498 137.014C326.368 139.505 327.673 141.52 329.414 143.06C331.2 144.6 333.558 145.37 336.489 145.37C338.87 145.37 340.908 144.713 342.603 143.399C344.297 142.041 345.144 140.003 345.144 137.285C345.144 134.523 344.183 132.213 342.259 130.356C340.336 128.499 337.817 126.62 334.703 124.717C332.551 123.359 330.536 121.977 328.658 120.573C326.78 119.169 325.269 117.584 324.124 115.818C323.025 114.006 322.475 111.832 322.475 109.296C322.475 106.488 323.162 104.201 324.536 102.435C325.91 100.623 327.696 99.2871 329.894 98.4266C332.138 97.5661 334.52 97.1359 337.039 97.1359Z" fill="#160C0A"/>
<path d="M99.9691 33V34.3587C98.5036 34.404 97.3816 34.5851 96.6031 34.9022C95.8704 35.1739 95.3666 35.7174 95.0918 36.5326C94.817 37.3025 94.6796 38.5254 94.6796 40.2011V73.8967C94.6796 75.5272 94.817 76.75 95.0918 77.5652C95.3666 78.3804 95.8704 78.9239 96.6031 79.1956C97.3816 79.4674 98.5036 79.6485 99.9691 79.7391V81.0978C98.8242 81.0072 97.3587 80.962 95.5727 80.962C93.7866 80.9167 91.9777 80.894 90.1459 80.894C88.085 80.894 86.1616 80.9167 84.3756 80.962C82.5895 80.962 81.124 81.0072 79.9791 81.0978V79.7391C81.4904 79.6485 82.6124 79.4674 83.3451 79.1956C84.1237 78.9239 84.6274 78.3804 84.8564 77.5652C85.1312 76.75 85.2686 75.5272 85.2686 73.8967V40.2011C85.2686 38.5254 85.1312 37.3025 84.8564 36.5326C84.6274 35.7174 84.1237 35.1739 83.3451 34.9022C82.6124 34.5851 81.4904 34.404 79.9791 34.3587V33C81.124 33.0453 82.5895 33.0906 84.3756 33.1359C86.1616 33.1812 88.085 33.2038 90.1459 33.2038C91.9777 33.2038 93.7866 33.1812 95.5727 33.1359C97.3587 33.0906 98.8242 33.0453 99.9691 33Z" fill="#160C0A"/>
<path d="M152.332 33V34.3587C150.866 34.4946 149.744 34.8342 148.966 35.3777C148.187 35.8759 147.66 36.6911 147.386 37.8234C147.157 38.9103 147.042 40.4728 147.042 42.5109V81.3016C146.63 81.2563 146.172 81.2337 145.668 81.2337C145.21 81.2337 144.707 81.2563 144.157 81.3016L114.687 41.6956V71.0435C114.687 73.2174 114.825 74.9158 115.099 76.1386C115.374 77.3161 115.97 78.1766 116.886 78.7201C117.847 79.2183 119.29 79.558 121.213 79.7391V81.0978C120.343 81.0072 119.221 80.962 117.847 80.962C116.473 80.9167 115.168 80.894 113.932 80.894C112.833 80.894 111.711 80.9167 110.566 80.962C109.467 80.962 108.551 81.0072 107.818 81.0978V79.7391C109.329 79.558 110.451 79.2183 111.184 78.7201C111.962 78.2219 112.466 77.4067 112.695 76.2745C112.97 75.1422 113.107 73.5797 113.107 71.587V40.2011C113.107 38.5254 112.97 37.3025 112.695 36.5326C112.466 35.7174 111.962 35.1739 111.184 34.9022C110.451 34.5851 109.329 34.404 107.818 34.3587V33C108.551 33.0453 109.467 33.0906 110.566 33.1359C111.711 33.1812 112.833 33.2038 113.932 33.2038C114.985 33.2038 116.015 33.1812 117.023 33.1359C118.03 33.0906 118.923 33.0453 119.702 33L145.462 66.8994V43.0543C145.462 40.8351 145.325 39.1368 145.05 37.9592C144.775 36.7817 144.18 35.9212 143.264 35.3777C142.348 34.8342 140.906 34.4946 138.936 34.3587V33C139.806 33.0453 140.928 33.0906 142.302 33.1359C143.722 33.1812 145.027 33.2038 146.218 33.2038C147.363 33.2038 148.485 33.1812 149.584 33.1359C150.729 33.0906 151.645 33.0453 152.332 33Z" fill="#160C0A"/>
<path d="M195.596 33C195.413 34.8569 195.276 36.6685 195.184 38.4348C195.139 40.1558 195.116 41.4692 195.116 42.375C195.116 43.2355 195.139 44.0734 195.184 44.8886C195.23 45.6585 195.276 46.3152 195.322 46.8587H193.742C193.375 43.7337 192.78 41.288 191.956 39.5217C191.131 37.7101 190.009 36.442 188.59 35.7174C187.216 34.9475 185.407 34.5625 183.163 34.5625H179.385C178.011 34.5625 176.958 34.6757 176.225 34.9022C175.492 35.1286 174.988 35.6042 174.714 36.3288C174.485 37.0534 174.37 38.163 174.37 39.6576V74.4402C174.37 75.8895 174.485 76.9991 174.714 77.769C174.988 78.4937 175.492 78.9692 176.225 79.1956C176.958 79.4221 178.011 79.5353 179.385 79.5353H183.3C185.636 79.5353 187.582 79.1051 189.139 78.2446C190.742 77.3841 192.024 75.9801 192.986 74.0326C193.948 72.0398 194.658 69.3225 195.116 65.8804H196.696C196.558 67.2844 196.49 69.096 196.49 71.3152C196.49 72.2663 196.512 73.6476 196.558 75.4592C196.65 77.2708 196.787 79.1504 196.97 81.0978C194.635 81.0072 192.001 80.962 189.071 80.962C186.14 80.9167 183.529 80.894 181.239 80.894C179.774 80.894 177.805 80.894 175.332 80.894C172.859 80.894 170.226 80.9167 167.432 80.962C164.684 80.962 162.097 81.0072 159.67 81.0978V79.7391C161.181 79.6485 162.303 79.4674 163.036 79.1956C163.814 78.9239 164.318 78.3804 164.547 77.5652C164.822 76.75 164.959 75.5272 164.959 73.8967V40.2011C164.959 38.5254 164.822 37.3025 164.547 36.5326C164.318 35.7174 163.814 35.1739 163.036 34.9022C162.303 34.5851 161.181 34.404 159.67 34.3587V33C162.097 33.0453 164.684 33.0906 167.432 33.1359C170.226 33.1812 172.859 33.2038 175.332 33.2038C177.805 33.2038 179.774 33.2038 181.239 33.2038C183.346 33.2038 185.727 33.2038 188.384 33.2038C191.086 33.1585 193.49 33.0906 195.596 33ZM184.537 56.2337C184.537 56.2337 184.537 56.4601 184.537 56.913C184.537 57.3659 184.537 57.5924 184.537 57.5924H172.309C172.309 57.5924 172.309 57.3659 172.309 56.913C172.309 56.4601 172.309 56.2337 172.309 56.2337H184.537ZM186.529 47.2663C186.346 49.8478 186.254 51.8179 186.254 53.1766C186.3 54.5353 186.323 55.7808 186.323 56.913C186.323 58.0453 186.346 59.2908 186.391 60.6495C186.437 62.0081 186.552 63.9783 186.735 66.5598H185.155C184.926 65.0199 184.56 63.5706 184.056 62.212C183.598 60.808 182.842 59.6984 181.789 58.8832C180.781 58.0226 179.316 57.5924 177.393 57.5924V56.2337C179.316 56.2337 180.759 55.7355 181.72 54.7391C182.728 53.7427 183.461 52.5426 183.919 51.1386C184.376 49.7346 184.72 48.4438 184.949 47.2663H186.529Z" fill="#160C0A"/>
<path fill-rule="evenodd" clip-rule="evenodd" d="M24.1578 81.3505L7.46513 38.7554C6.77819 37.125 6.04544 35.9927 5.26691 35.3587C4.44258 34.7699 3.68694 34.4529 3 34.4076V33.0489C4.19069 33.1395 5.63328 33.1848 7.32773 33.1848C8.97638 33.2301 10.6709 33.2527 12.4111 33.2527C14.4261 33.2527 16.3037 33.2301 18.044 33.1848C19.7842 33.1848 21.2039 33.1395 22.303 33.0489V34.4076C19.9674 34.4982 18.4791 34.8831 17.8379 35.5625C17.1968 36.2871 17.3342 37.8043 18.2501 40.1141L30.0198 71.5279L38.2363 50.4519L33.6526 38.7554C32.9656 37.125 32.2329 35.9928 31.4543 35.3587C30.63 34.7699 29.8744 34.4529 29.1874 34.4076V33.0489C30.3781 33.1395 31.8207 33.1848 33.5152 33.1848C35.1638 33.2301 36.8583 33.2527 38.5985 33.2527C40.6136 33.2527 42.4912 33.2301 44.2314 33.1848C45.9717 33.1848 47.3914 33.1395 48.4905 33.0489V34.4076C46.1549 34.4982 44.6665 34.8832 44.0254 35.5625C43.3842 36.2871 43.5216 37.8044 44.4375 40.1141L56.2072 71.5279L66.2822 45.6848C67.4729 42.6957 68.0453 40.3859 67.9995 38.7554C67.9538 37.1703 67.4042 36.0607 66.3509 35.4266C65.2976 34.7926 63.8092 34.4529 61.8858 34.4076V33.0489C63.3513 33.1395 64.7709 33.1848 66.1448 33.1848C67.5187 33.2301 68.8926 33.2527 70.2665 33.2527C71.274 33.2527 72.2357 33.2301 73.1516 33.1848C74.0217 33.1848 74.8002 33.1395 75.4872 33.0489V34.4076C74.4797 34.6341 73.4951 35.2228 72.5334 36.1739C71.5258 37.125 70.5641 38.7781 69.6482 41.1332L53.9173 81.3505C53.3677 81.3053 52.7724 81.2826 52.1312 81.2826C51.4901 81.2826 50.8948 81.3053 50.3452 81.3505L39.0268 52.469L27.7299 81.3505C27.1803 81.3052 26.5849 81.2826 25.9438 81.2826C25.3027 81.2826 24.7073 81.3052 24.1578 81.3505Z" fill="#160C0A"/>
<rect x="656" width="180" height="180" rx="90" fill="#A01F1D"/>
<path d="M779.1 65L796.38 109.093C797.091 110.781 797.849 111.953 798.655 112.609C799.509 113.218 800.291 113.547 801.002 113.594V115C799.769 114.906 798.276 114.859 796.522 114.859C794.815 114.812 793.061 114.789 791.26 114.789C789.174 114.789 787.23 114.812 785.429 114.859C783.628 114.859 782.158 114.906 781.02 115V113.594C783.438 113.5 784.979 113.101 785.642 112.398C786.306 111.648 786.164 110.077 785.216 107.686L772.7 74.2827L773.98 72.7356L762.603 101.92C761.37 105.014 760.778 107.405 760.825 109.093C760.873 110.734 761.441 111.882 762.532 112.539C763.622 113.195 765.163 113.547 767.154 113.594V115C765.637 114.906 764.167 114.859 762.745 114.859C761.323 114.812 759.901 114.789 758.479 114.789C757.436 114.789 756.44 114.812 755.492 114.859C754.591 114.859 753.785 114.906 753.074 115V113.594C754.117 113.359 755.136 112.75 756.132 111.765C757.175 110.781 758.17 109.069 759.119 106.631L775.403 65C775.971 65.0469 776.588 65.0703 777.251 65.0703C777.915 65.0703 778.531 65.0469 779.1 65Z" fill="white"/>
<path fill-rule="evenodd" clip-rule="evenodd" d="M712.902 115L695.622 70.9072C694.911 69.2194 694.153 68.0474 693.347 67.391C692.493 66.7815 691.711 66.4534 691 66.4065V65C692.233 65.0938 693.726 65.1406 695.48 65.1406C697.187 65.1875 698.941 65.211 700.742 65.211C702.828 65.211 704.772 65.1875 706.573 65.1406C708.374 65.1406 709.844 65.0938 710.982 65V66.4065C708.564 66.5002 707.023 66.8987 706.36 67.602C705.696 68.3521 705.838 69.9226 706.786 72.3136L718.97 104.832L727.475 83.0149L722.73 70.9072C722.019 69.2194 721.261 68.0474 720.455 67.391C719.602 66.7815 718.819 66.4534 718.108 66.4065V65C719.341 65.0938 720.834 65.1407 722.588 65.1407C724.295 65.1875 726.049 65.211 727.85 65.211C729.936 65.211 731.88 65.1875 733.681 65.1407C735.483 65.1407 736.952 65.0938 738.09 65V66.4065C735.672 66.5002 734.132 66.8987 733.468 67.602C732.804 68.3521 732.946 69.9227 733.895 72.3137L746.078 104.832L756.507 78.0802C757.74 74.9859 758.332 72.5949 758.285 70.9072C758.238 69.2663 757.669 68.1177 756.578 67.4613C755.488 66.805 753.947 66.4534 751.956 66.4065V65C753.473 65.0938 754.943 65.1407 756.365 65.1407C757.787 65.1875 759.209 65.211 760.632 65.211C761.675 65.211 762.67 65.1875 763.618 65.1407C764.519 65.1407 765.325 65.0938 766.036 65V66.4065C764.993 66.6409 763.974 67.2504 762.978 68.2349C761.935 69.2194 760.94 70.9306 759.992 73.3685L743.708 115C743.139 114.953 742.522 114.93 741.859 114.93C741.195 114.93 740.579 114.953 740.01 115L728.294 85.1029L716.599 115C716.031 114.953 715.414 114.93 714.751 114.93C714.087 114.93 713.471 114.953 712.902 115Z" fill="white"/>
</svg>
