<svg width="1900" height="460" viewBox="0 0 1900 460" fill="none" xmlns="http://www.w3.org/2000/svg">
<mask id="path-1-inside-1_525_1979" fill="white">
<path d="M0 0H1900V360H0V0Z"/>
</mask>
<path d="M0 361H6.01266V359H0V361ZM18.038 361H30.0633V359H18.038V361ZM42.0886 361H54.1139V359H42.0886V361ZM66.1392 361H78.1646V359H66.1392V361ZM90.1899 361H102.215V359H90.1899V361ZM114.24 361H126.266V359H114.24V361ZM138.291 361H150.316V359H138.291V361ZM162.342 361H174.367V359H162.342V361ZM186.392 361H198.418V359H186.392V361ZM210.443 361H222.468V359H210.443V361ZM234.494 361H246.519V359H234.494V361ZM258.544 361H270.57V359H258.544V361ZM282.595 361H294.62V359H282.595V361ZM306.646 361H318.671V359H306.646V361ZM330.696 361H342.722V359H330.696V361ZM354.747 361H366.772V359H354.747V361ZM378.798 361H390.823V359H378.798V361ZM402.848 361H414.874V359H402.848V361ZM426.899 361H438.924V359H426.899V361ZM450.95 361H462.975V359H450.95V361ZM475 361H487.026V359H475V361ZM499.051 361H511.076V359H499.051V361ZM523.101 361H535.127V359H523.101V361ZM547.152 361H559.178V359H547.152V361ZM571.203 361H583.228V359H571.203V361ZM595.253 361H607.279V359H595.253V361ZM619.304 361H631.329V359H619.304V361ZM643.355 361H655.38V359H643.355V361ZM667.405 361H679.431V359H667.405V361ZM691.456 361H703.481V359H691.456V361ZM715.507 361H727.532V359H715.507V361ZM739.557 361H751.583V359H739.557V361ZM763.608 361H775.633V359H763.608V361ZM787.659 361H799.684V359H787.659V361ZM811.709 361H823.735V359H811.709V361ZM835.76 361H847.785V359H835.76V361ZM859.811 361H871.836V359H859.811V361ZM883.861 361H895.887V359H883.861V361ZM907.912 361H919.937V359H907.912V361ZM931.963 361H943.988V359H931.963V361ZM956.013 361H968.039V359H956.013V361ZM980.064 361H992.089V359H980.064V361ZM1004.11 361H1016.14V359H1004.11V361ZM1028.17 361H1040.19V359H1028.17V361ZM1052.22 361H1064.24V359H1052.22V361ZM1076.27 361H1088.29V359H1076.27V361ZM1100.32 361H1112.34V359H1100.32V361ZM1124.37 361H1136.39V359H1124.37V361ZM1148.42 361H1160.44V359H1148.42V361ZM1172.47 361H1184.49V359H1172.47V361ZM1196.52 361H1208.54V359H1196.52V361ZM1220.57 361H1232.59V359H1220.57V361ZM1244.62 361H1256.65V359H1244.62V361ZM1268.67 361H1280.7V359H1268.67V361ZM1292.72 361H1304.75V359H1292.72V361ZM1316.77 361H1328.8V359H1316.77V361ZM1340.82 361H1352.85V359H1340.82V361ZM1364.87 361H1376.9V359H1364.87V361ZM1388.92 361H1400.95V359H1388.92V361ZM1412.97 361H1425V359H1412.97V361ZM1437.02 361H1449.05V359H1437.02V361ZM1461.07 361H1473.1V359H1461.07V361ZM1485.13 361H1497.15V359H1485.13V361ZM1509.18 361H1521.2V359H1509.18V361ZM1533.23 361H1545.25V359H1533.23V361ZM1557.28 361H1569.3V359H1557.28V361ZM1581.33 361H1593.35V359H1581.33V361ZM1605.38 361H1617.4V359H1605.38V361ZM1629.43 361H1641.45V359H1629.43V361ZM1653.48 361H1665.5V359H1653.48V361ZM1677.53 361H1689.56V359H1677.53V361ZM1701.58 361H1713.61V359H1701.58V361ZM1725.63 361H1737.66V359H1725.63V361ZM1749.68 361H1761.71V359H1749.68V361ZM1773.73 361H1785.76V359H1773.73V361ZM1797.78 361H1809.81V359H1797.78V361ZM1821.83 361H1833.86V359H1821.83V361ZM1845.88 361H1857.91V359H1845.88V361ZM1869.93 361H1881.96V359H1869.93V361ZM1893.98 361H1900V359H1893.98V361ZM1900 -1H1893.99V1H1900V-1ZM1881.96 -1H1869.94V1H1881.96V-1ZM1857.91 -1H1845.89V1H1857.91V-1ZM1833.86 -1H1821.84V1H1833.86V-1ZM1809.81 -1H1797.78V1H1809.81V-1ZM1785.76 -1H1773.73V1H1785.76V-1ZM1761.71 -1H1749.68V1H1761.71V-1ZM1737.66 -1H1725.63V1H1737.66V-1ZM1713.61 -1H1701.58V1H1713.61V-1ZM1689.56 -1H1677.53V1H1689.56V-1ZM1665.51 -1H1653.48V1H1665.51V-1ZM1641.46 -1H1629.43V1H1641.46V-1ZM1617.41 -1H1605.38V1H1617.41V-1ZM1593.35 -1H1581.33V1H1593.35V-1ZM1569.3 -1H1557.28V1H1569.3V-1ZM1545.25 -1H1533.23V1H1545.25V-1ZM1521.2 -1H1509.18V1H1521.2V-1ZM1497.15 -1H1485.13V1H1497.15V-1ZM1473.1 -1H1461.08V1H1473.1V-1ZM1449.05 -1H1437.03V1H1449.05V-1ZM1425 -1H1412.97V1H1425V-1ZM1400.95 -1H1388.92V1H1400.95V-1ZM1376.9 -1H1364.87V1H1376.9V-1ZM1352.85 -1H1340.82V1H1352.85V-1ZM1328.8 -1H1316.77V1H1328.8V-1ZM1304.75 -1H1292.72V1H1304.75V-1ZM1280.7 -1H1268.67V1H1280.7V-1ZM1256.65 -1H1244.62V1H1256.65V-1ZM1232.59 -1H1220.57V1H1232.59V-1ZM1208.54 -1H1196.52V1H1208.54V-1ZM1184.49 -1H1172.47V1H1184.49V-1ZM1160.44 -1H1148.42V1H1160.44V-1ZM1136.39 -1H1124.37V1H1136.39V-1ZM1112.34 -1H1100.32V1H1112.34V-1ZM1088.29 -1H1076.27V1H1088.29V-1ZM1064.24 -1H1052.21V1H1064.24V-1ZM1040.19 -1H1028.16V1H1040.19V-1ZM1016.14 -1H1004.11V1H1016.14V-1ZM992.088 -1H980.063V1H992.088V-1ZM968.037 -1H956.012V1H968.037V-1ZM943.987 -1H931.961V1H943.987V-1ZM919.936 -1H907.911V1H919.936V-1ZM895.885 -1H883.86V1H895.885V-1ZM871.835 -1H859.809V1H871.835V-1ZM847.784 -1H835.759V1H847.784V-1ZM823.734 -1H811.708V1H823.734V-1ZM799.683 -1H787.658V1H799.683V-1ZM775.633 -1H763.607V1H775.633V-1ZM751.582 -1H739.557V1H751.582V-1ZM727.532 -1H715.506V1H727.532V-1ZM703.481 -1H691.456V1H703.481V-1ZM679.43 -1H667.405V1H679.43V-1ZM655.38 -1H643.355V1H655.38V-1ZM631.329 -1H619.304V1H631.329V-1ZM607.279 -1H595.253V1H607.279V-1ZM583.228 -1H571.203V1H583.228V-1ZM559.178 -1H547.152V1H559.178V-1ZM535.127 -1H523.102V1H535.127V-1ZM511.077 -1H499.051V1H511.077V-1ZM487.026 -1H475.001V1H487.026V-1ZM462.976 -1H450.95V1H462.976V-1ZM438.925 -1H426.9V1H438.925V-1ZM414.875 -1H402.849V1H414.875V-1ZM390.824 -1H378.799V1H390.824V-1ZM366.773 -1H354.748V1H366.773V-1ZM342.723 -1H330.698V1H342.723V-1ZM318.672 -1H306.647V1H318.672V-1ZM294.622 -1H282.597V1H294.622V-1ZM270.571 -1H258.546V1H270.571V-1ZM246.521 -1H234.496V1H246.521V-1ZM222.47 -1H210.445V1H222.47V-1ZM198.42 -1H186.394V1H198.42V-1ZM174.369 -1H162.344V1H174.369V-1ZM150.319 -1H138.293V1H150.319V-1ZM126.268 -1H114.243V1H126.268V-1ZM102.217 -1H90.1923V1H102.217V-1ZM78.1669 -1H66.1417V1H78.1669V-1ZM54.1164 -1H42.0912V1H54.1164V-1ZM30.0659 -1H18.0407V1H30.0659V-1ZM6.01532 -1H0V1H6.01532V-1ZM0 362H6.01266V358H0V362ZM18.038 362H30.0633V358H18.038V362ZM42.0886 362H54.1139V358H42.0886V362ZM66.1392 362H78.1646V358H66.1392V362ZM90.1899 362H102.215V358H90.1899V362ZM114.24 362H126.266V358H114.24V362ZM138.291 362H150.316V358H138.291V362ZM162.342 362H174.367V358H162.342V362ZM186.392 362H198.418V358H186.392V362ZM210.443 362H222.468V358H210.443V362ZM234.494 362H246.519V358H234.494V362ZM258.544 362H270.57V358H258.544V362ZM282.595 362H294.62V358H282.595V362ZM306.646 362H318.671V358H306.646V362ZM330.696 362H342.722V358H330.696V362ZM354.747 362H366.772V358H354.747V362ZM378.798 362H390.823V358H378.798V362ZM402.848 362H414.874V358H402.848V362ZM426.899 362H438.924V358H426.899V362ZM450.95 362H462.975V358H450.95V362ZM475 362H487.026V358H475V362ZM499.051 362H511.076V358H499.051V362ZM523.101 362H535.127V358H523.101V362ZM547.152 362H559.178V358H547.152V362ZM571.203 362H583.228V358H571.203V362ZM595.253 362H607.279V358H595.253V362ZM619.304 362H631.329V358H619.304V362ZM643.355 362H655.38V358H643.355V362ZM667.405 362H679.431V358H667.405V362ZM691.456 362H703.481V358H691.456V362ZM715.507 362H727.532V358H715.507V362ZM739.557 362H751.583V358H739.557V362ZM763.608 362H775.633V358H763.608V362ZM787.659 362H799.684V358H787.659V362ZM811.709 362H823.735V358H811.709V362ZM835.76 362H847.785V358H835.76V362ZM859.811 362H871.836V358H859.811V362ZM883.861 362H895.887V358H883.861V362ZM907.912 362H919.937V358H907.912V362ZM931.963 362H943.988V358H931.963V362ZM956.013 362H968.039V358H956.013V362ZM980.064 362H992.089V358H980.064V362ZM1004.11 362H1016.14V358H1004.11V362ZM1028.17 362H1040.19V358H1028.17V362ZM1052.22 362H1064.24V358H1052.22V362ZM1076.27 362H1088.29V358H1076.27V362ZM1100.32 362H1112.34V358H1100.32V362ZM1124.37 362H1136.39V358H1124.37V362ZM1148.42 362H1160.44V358H1148.42V362ZM1172.47 362H1184.49V358H1172.47V362ZM1196.52 362H1208.54V358H1196.52V362ZM1220.57 362H1232.59V358H1220.57V362ZM1244.62 362H1256.65V358H1244.62V362ZM1268.67 362H1280.7V358H1268.67V362ZM1292.72 362H1304.75V358H1292.72V362ZM1316.77 362H1328.8V358H1316.77V362ZM1340.82 362H1352.85V358H1340.82V362ZM1364.87 362H1376.9V358H1364.87V362ZM1388.92 362H1400.95V358H1388.92V362ZM1412.97 362H1425V358H1412.97V362ZM1437.02 362H1449.05V358H1437.02V362ZM1461.07 362H1473.1V358H1461.07V362ZM1485.13 362H1497.15V358H1485.13V362ZM1509.18 362H1521.2V358H1509.18V362ZM1533.23 362H1545.25V358H1533.23V362ZM1557.28 362H1569.3V358H1557.28V362ZM1581.33 362H1593.35V358H1581.33V362ZM1605.38 362H1617.4V358H1605.38V362ZM1629.43 362H1641.45V358H1629.43V362ZM1653.48 362H1665.5V358H1653.48V362ZM1677.53 362H1689.56V358H1677.53V362ZM1701.58 362H1713.61V358H1701.58V362ZM1725.63 362H1737.66V358H1725.63V362ZM1749.68 362H1761.71V358H1749.68V362ZM1773.73 362H1785.76V358H1773.73V362ZM1797.78 362H1809.81V358H1797.78V362ZM1821.83 362H1833.86V358H1821.83V362ZM1845.88 362H1857.91V358H1845.88V362ZM1869.93 362H1881.96V358H1869.93V362ZM1893.98 362H1900V358H1893.98V362ZM1900 -2H1893.99V2H1900V-2ZM1881.96 -2H1869.94V2H1881.96V-2ZM1857.91 -2H1845.89V2H1857.91V-2ZM1833.86 -2H1821.84V2H1833.86V-2ZM1809.81 -2H1797.78V2H1809.81V-2ZM1785.76 -2H1773.73V2H1785.76V-2ZM1761.71 -2H1749.68V2H1761.71V-2ZM1737.66 -2H1725.63V2H1737.66V-2ZM1713.61 -2H1701.58V2H1713.61V-2ZM1689.56 -2H1677.53V2H1689.56V-2ZM1665.51 -2H1653.48V2H1665.51V-2ZM1641.46 -2H1629.43V2H1641.46V-2ZM1617.41 -2H1605.38V2H1617.41V-2ZM1593.35 -2H1581.33V2H1593.35V-2ZM1569.3 -2H1557.28V2H1569.3V-2ZM1545.25 -2H1533.23V2H1545.25V-2ZM1521.2 -2H1509.18V2H1521.2V-2ZM1497.15 -2H1485.13V2H1497.15V-2ZM1473.1 -2H1461.08V2H1473.1V-2ZM1449.05 -2H1437.03V2H1449.05V-2ZM1425 -2H1412.97V2H1425V-2ZM1400.95 -2H1388.92V2H1400.95V-2ZM1376.9 -2H1364.87V2H1376.9V-2ZM1352.85 -2H1340.82V2H1352.85V-2ZM1328.8 -2H1316.77V2H1328.8V-2ZM1304.75 -2H1292.72V2H1304.75V-2ZM1280.7 -2H1268.67V2H1280.7V-2ZM1256.65 -2H1244.62V2H1256.65V-2ZM1232.59 -2H1220.57V2H1232.59V-2ZM1208.54 -2H1196.52V2H1208.54V-2ZM1184.49 -2H1172.47V2H1184.49V-2ZM1160.44 -2H1148.42V2H1160.44V-2ZM1136.39 -2H1124.37V2H1136.39V-2ZM1112.34 -2H1100.32V2H1112.34V-2ZM1088.29 -2H1076.27V2H1088.29V-2ZM1064.24 -2H1052.21V2H1064.24V-2ZM1040.19 -2H1028.16V2H1040.19V-2ZM1016.14 -2H1004.11V2H1016.14V-2ZM992.088 -2H980.063V2H992.088V-2ZM968.037 -2H956.012V2H968.037V-2ZM943.987 -2H931.961V2H943.987V-2ZM919.936 -2H907.911V2H919.936V-2ZM895.885 -2H883.86V2H895.885V-2ZM871.835 -2H859.809V2H871.835V-2ZM847.784 -2H835.759V2H847.784V-2ZM823.734 -2H811.708V2H823.734V-2ZM799.683 -2H787.658V2H799.683V-2ZM775.633 -2H763.607V2H775.633V-2ZM751.582 -2H739.557V2H751.582V-2ZM727.532 -2H715.506V2H727.532V-2ZM703.481 -2H691.456V2H703.481V-2ZM679.43 -2H667.405V2H679.43V-2ZM655.38 -2H643.355V2H655.38V-2ZM631.329 -2H619.304V2H631.329V-2ZM607.279 -2H595.253V2H607.279V-2ZM583.228 -2H571.203V2H583.228V-2ZM559.178 -2H547.152V2H559.178V-2ZM535.127 -2H523.102V2H535.127V-2ZM511.077 -2H499.051V2H511.077V-2ZM487.026 -2H475.001V2H487.026V-2ZM462.976 -2H450.95V2H462.976V-2ZM438.925 -2H426.9V2H438.925V-2ZM414.875 -2H402.849V2H414.875V-2ZM390.824 -2H378.799V2H390.824V-2ZM366.773 -2H354.748V2H366.773V-2ZM342.723 -2H330.698V2H342.723V-2ZM318.672 -2H306.647V2H318.672V-2ZM294.622 -2H282.597V2H294.622V-2ZM270.571 -2H258.546V2H270.571V-2ZM246.521 -2H234.496V2H246.521V-2ZM222.47 -2H210.445V2H222.47V-2ZM198.42 -2H186.394V2H198.42V-2ZM174.369 -2H162.344V2H174.369V-2ZM150.319 -2H138.293V2H150.319V-2ZM126.268 -2H114.243V2H126.268V-2ZM102.217 -2H90.1923V2H102.217V-2ZM78.1669 -2H66.1417V2H78.1669V-2ZM54.1164 -2H42.0912V2H54.1164V-2ZM30.0659 -2H18.0407V2H30.0659V-2ZM6.01532 -2H0V2H6.01532V-2Z" fill="#606060" mask="url(#path-1-inside-1_525_1979)"/>
<rect width="300" height="300" transform="translate(30 30)" fill="white"/>
<path d="M246.2 130L280.76 218.186C282.182 221.561 283.699 223.905 285.311 225.218C287.017 226.437 288.582 227.093 290.004 227.187V230C287.539 229.812 284.552 229.719 281.044 229.719C277.631 229.625 274.123 229.578 270.52 229.578C266.348 229.578 262.461 229.625 258.858 229.719C255.255 229.719 252.316 229.812 250.04 230V227.187C254.876 227 257.957 226.203 259.285 224.796C260.612 223.296 260.328 220.155 258.431 215.373L233.401 148.565L235.961 145.471L213.206 203.84C210.741 210.028 209.555 214.81 209.65 218.186C209.745 221.467 210.883 223.765 213.064 225.077C215.244 226.39 218.326 227.093 222.308 227.187V230C219.274 229.812 216.335 229.719 213.49 229.719C210.646 229.625 207.801 229.578 204.957 229.578C202.871 229.578 200.88 229.625 198.984 229.719C197.182 229.719 195.571 229.812 194.148 230V227.187C196.234 226.718 198.273 225.499 200.264 223.53C202.35 221.561 204.341 218.139 206.237 213.263L238.805 130C239.943 130.094 241.175 130.141 242.503 130.141C243.83 130.141 245.063 130.094 246.2 130Z" fill="#160C0A"/>
<path fill-rule="evenodd" clip-rule="evenodd" d="M113.803 230L79.2442 141.814C77.8221 138.439 76.305 136.095 74.6932 134.782C72.9866 133.563 71.4222 132.907 70 132.813V130C72.4651 130.188 75.4517 130.281 78.9598 130.281C82.373 130.375 85.8811 130.422 89.484 130.422C93.6558 130.422 97.543 130.375 101.146 130.281C104.749 130.281 107.688 130.188 109.963 130V132.813C105.128 133 102.047 133.797 100.719 135.204C99.3919 136.704 99.6764 139.845 101.573 144.627L125.94 209.664L142.951 166.03L133.461 141.814C132.038 138.439 130.521 136.095 128.91 134.782C127.203 133.563 125.639 132.907 124.216 132.813V130C126.682 130.188 129.668 130.281 133.176 130.281C136.589 130.375 140.098 130.422 143.7 130.422C147.872 130.422 151.759 130.375 155.362 130.281C158.965 130.281 161.904 130.188 164.18 130V132.813C159.344 133 156.263 133.797 154.936 135.204C153.608 136.704 153.893 139.845 155.789 144.627L180.156 209.664L201.015 156.16C203.48 149.972 204.665 145.19 204.57 141.814C204.475 138.533 203.337 136.235 201.157 134.923C198.976 133.61 195.895 132.907 191.913 132.813V130C194.947 130.188 197.886 130.281 200.73 130.281C203.575 130.375 206.419 130.422 209.263 130.422C211.349 130.422 213.34 130.375 215.236 130.281C217.038 130.281 218.65 130.188 220.072 130V132.813C217.986 133.282 215.948 134.501 213.956 136.47C211.871 138.439 209.88 141.861 207.983 146.737L175.415 230C174.277 229.906 173.045 229.859 171.717 229.859C170.39 229.859 169.158 229.906 168.02 230L144.587 170.206L121.199 230C120.061 229.906 118.828 229.859 117.501 229.859C116.174 229.859 114.941 229.906 113.803 230Z" fill="#160C0A"/>
<rect width="300" height="300" transform="translate(415 30)" fill="white"/>
<rect x="490" y="105" width="150" height="150" rx="5" fill="#A01F1D"/>
<rect width="300" height="300" transform="translate(800 30)" fill="white"/>
<path d="M925.48 137.9L952.21 206.76C953.237 209.4 954.373 211.233 955.62 212.26C956.94 213.213 958.113 213.727 959.14 213.8V216C956.94 215.853 954.337 215.78 951.33 215.78C948.397 215.707 945.427 215.67 942.42 215.67C939.047 215.67 935.857 215.707 932.85 215.78C929.843 215.78 927.46 215.853 925.7 216V213.8C929.44 213.653 931.787 213.03 932.74 211.93C933.767 210.757 933.547 208.3 932.08 204.56L913.38 153.41L915.36 150.55L898.64 194.11C897.027 198.143 896.037 201.443 895.67 204.01C895.377 206.577 895.56 208.557 896.22 209.95C896.953 211.343 898.09 212.333 899.63 212.92C901.243 213.433 903.15 213.727 905.35 213.8V216C902.93 215.853 900.62 215.78 898.42 215.78C896.22 215.707 893.983 215.67 891.71 215.67C890.097 215.67 888.557 215.707 887.09 215.78C885.697 215.78 884.45 215.853 883.35 216V213.8C884.89 213.507 886.467 212.517 888.08 210.83C889.693 209.143 891.27 206.283 892.81 202.25L917.89 137.9C919.063 137.973 920.31 138.01 921.63 138.01C923.023 138.01 924.307 137.973 925.48 137.9ZM933.18 184.32V186.52H900.4L901.5 184.32H933.18ZM976.189 216.77C972.889 216.77 970.139 216.147 967.939 214.9C965.739 213.653 964.126 212.003 963.099 209.95C962.072 207.823 961.559 205.513 961.559 203.02C961.559 199.867 962.256 197.3 963.649 195.32C965.116 193.34 966.986 191.727 969.259 190.48C971.532 189.233 973.916 188.207 976.409 187.4C978.976 186.593 981.396 185.823 983.669 185.09C986.016 184.283 987.886 183.367 989.279 182.34C990.746 181.24 991.479 179.847 991.479 178.16V169.58C991.479 167.673 991.149 165.987 990.489 164.52C989.902 162.98 988.949 161.807 987.629 161C986.382 160.193 984.732 159.79 982.679 159.79C981.212 159.79 979.746 160.01 978.279 160.45C976.812 160.817 975.602 161.477 974.649 162.43C976.702 163.163 978.279 164.3 979.379 165.84C980.552 167.307 981.139 168.993 981.139 170.9C981.139 173.393 980.259 175.373 978.499 176.84C976.812 178.307 974.796 179.04 972.449 179.04C969.809 179.04 967.792 178.233 966.399 176.62C965.079 174.933 964.419 172.917 964.419 170.57C964.419 168.443 964.932 166.683 965.959 165.29C967.059 163.897 968.562 162.577 970.469 161.33C972.522 160.157 974.979 159.24 977.839 158.58C980.772 157.92 983.926 157.59 987.299 157.59C990.672 157.59 993.716 157.957 996.429 158.69C999.142 159.35 1001.42 160.597 1003.25 162.43C1004.94 164.117 1006.04 166.207 1006.55 168.7C1007.06 171.12 1007.32 174.2 1007.32 177.94V207.86C1007.32 209.693 1007.5 210.977 1007.87 211.71C1008.24 212.37 1008.86 212.7 1009.74 212.7C1010.4 212.7 1011.02 212.517 1011.61 212.15C1012.27 211.783 1012.97 211.343 1013.7 210.83L1014.8 212.7C1013.26 214.02 1011.46 215.047 1009.41 215.78C1007.43 216.44 1005.19 216.77 1002.7 216.77C999.986 216.77 997.822 216.403 996.209 215.67C994.596 214.863 993.422 213.8 992.689 212.48C992.029 211.16 991.699 209.62 991.699 207.86C989.939 210.647 987.812 212.847 985.319 214.46C982.826 216 979.782 216.77 976.189 216.77ZM983.999 209.73C985.466 209.73 986.786 209.4 987.959 208.74C989.206 208.007 990.379 206.833 991.479 205.22V182.67C990.819 183.77 989.902 184.76 988.729 185.64C987.556 186.52 986.309 187.437 984.989 188.39C983.669 189.27 982.386 190.26 981.139 191.36C979.966 192.46 979.012 193.817 978.279 195.43C977.546 197.043 977.179 198.987 977.179 201.26C977.179 204.12 977.802 206.247 979.049 207.64C980.296 209.033 981.946 209.73 983.999 209.73Z" fill="#160C0A"/>
<rect width="300" height="300" transform="translate(1185 30)" fill="white"/>
<rect x="1225" y="113" width="220" height="52" rx="2" fill="#A01F1D"/>
<path d="M1321.3 145.162C1320.02 145.162 1318.92 144.898 1318.01 144.37C1317.09 143.842 1316.39 143.092 1315.9 142.12C1315.42 141.136 1315.18 139.978 1315.18 138.646C1315.18 137.314 1315.42 136.162 1315.9 135.19C1316.39 134.218 1317.09 133.468 1318.01 132.94C1318.92 132.412 1320.02 132.148 1321.3 132.148C1322.16 132.148 1322.97 132.286 1323.71 132.562C1324.47 132.826 1325.1 133.21 1325.6 133.714L1324.95 135.208C1324.4 134.716 1323.83 134.362 1323.24 134.146C1322.67 133.918 1322.04 133.804 1321.35 133.804C1319.99 133.804 1318.94 134.224 1318.22 135.064C1317.5 135.904 1317.14 137.098 1317.14 138.646C1317.14 140.194 1317.5 141.394 1318.22 142.246C1318.94 143.086 1319.99 143.506 1321.35 143.506C1322.04 143.506 1322.67 143.398 1323.24 143.182C1323.83 142.954 1324.4 142.594 1324.95 142.102L1325.6 143.596C1325.1 144.088 1324.47 144.472 1323.71 144.748C1322.97 145.024 1322.16 145.162 1321.3 145.162ZM1330.44 145.162C1329.48 145.162 1328.76 144.892 1328.28 144.352C1327.81 143.812 1327.58 143.02 1327.58 141.976V132.31H1329.4V141.868C1329.4 143.056 1329.88 143.65 1330.85 143.65C1331 143.65 1331.13 143.644 1331.25 143.632C1331.38 143.62 1331.51 143.596 1331.65 143.56L1331.61 145.018C1331.2 145.114 1330.81 145.162 1330.44 145.162ZM1332.92 134.182V132.292H1335.04V134.182H1332.92ZM1333.08 145V136.216H1334.9V145H1333.08ZM1341.33 145.162C1340.43 145.162 1339.65 144.976 1338.99 144.604C1338.34 144.22 1337.84 143.686 1337.48 143.002C1337.12 142.306 1336.94 141.49 1336.94 140.554C1336.94 139.162 1337.33 138.064 1338.12 137.26C1338.92 136.456 1339.98 136.054 1341.33 136.054C1341.88 136.054 1342.43 136.15 1342.97 136.342C1343.51 136.534 1343.95 136.798 1344.3 137.134L1343.72 138.412C1343.39 138.1 1343.01 137.872 1342.61 137.728C1342.21 137.572 1341.83 137.494 1341.47 137.494C1340.62 137.494 1339.96 137.764 1339.49 138.304C1339.04 138.832 1338.81 139.588 1338.81 140.572C1338.81 141.556 1339.04 142.33 1339.49 142.894C1339.96 143.446 1340.62 143.722 1341.47 143.722C1341.83 143.722 1342.21 143.65 1342.61 143.506C1343.01 143.35 1343.39 143.116 1343.72 142.804L1344.3 144.1C1343.95 144.424 1343.5 144.682 1342.95 144.874C1342.41 145.066 1341.87 145.162 1341.33 145.162ZM1345.86 145V132.31H1347.68V140.05H1347.71L1351.53 136.216H1353.78L1349.57 140.446L1354.1 145H1351.84L1347.71 140.986H1347.68V145H1345.86Z" fill="white"/>
<rect width="220" height="52" transform="translate(1225 195)" fill="white"/>
<rect x="1225.5" y="195.5" width="219" height="51" rx="1.5" stroke="#160C0A"/>
<path d="M1319.66 227.162C1318.37 227.162 1317.27 226.898 1316.36 226.37C1315.45 225.842 1314.75 225.092 1314.26 224.12C1313.78 223.136 1313.54 221.978 1313.54 220.646C1313.54 219.314 1313.78 218.162 1314.26 217.19C1314.75 216.218 1315.45 215.468 1316.36 214.94C1317.27 214.412 1318.37 214.148 1319.66 214.148C1320.52 214.148 1321.32 214.286 1322.07 214.562C1322.82 214.826 1323.45 215.21 1323.96 215.714L1323.31 217.208C1322.76 216.716 1322.19 216.362 1321.6 216.146C1321.02 215.918 1320.39 215.804 1319.71 215.804C1318.34 215.804 1317.3 216.224 1316.58 217.064C1315.86 217.904 1315.5 219.098 1315.5 220.646C1315.5 222.194 1315.86 223.394 1316.58 224.246C1317.3 225.086 1318.34 225.506 1319.71 225.506C1320.39 225.506 1321.02 225.398 1321.6 225.182C1322.19 224.954 1322.76 224.594 1323.31 224.102L1323.96 225.596C1323.45 226.088 1322.82 226.472 1322.07 226.748C1321.32 227.024 1320.52 227.162 1319.66 227.162ZM1328.8 227.162C1327.84 227.162 1327.12 226.892 1326.64 226.352C1326.17 225.812 1325.93 225.02 1325.93 223.976V214.31H1327.75V223.868C1327.75 225.056 1328.24 225.65 1329.21 225.65C1329.35 225.65 1329.49 225.644 1329.61 225.632C1329.74 225.62 1329.87 225.596 1330 225.56L1329.97 227.018C1329.56 227.114 1329.17 227.162 1328.8 227.162ZM1334.24 227.162C1333.63 227.162 1333.09 227.042 1332.61 226.802C1332.13 226.562 1331.74 226.238 1331.45 225.83C1331.18 225.422 1331.04 224.96 1331.04 224.444C1331.04 223.796 1331.2 223.286 1331.53 222.914C1331.86 222.542 1332.41 222.272 1333.16 222.104C1333.93 221.936 1334.96 221.852 1336.26 221.852H1336.87V221.384C1336.87 220.7 1336.73 220.208 1336.44 219.908C1336.15 219.608 1335.68 219.458 1335.02 219.458C1334.51 219.458 1334.01 219.536 1333.51 219.692C1333 219.836 1332.49 220.07 1331.96 220.394L1331.4 219.116C1331.86 218.792 1332.43 218.534 1333.11 218.342C1333.79 218.15 1334.45 218.054 1335.07 218.054C1336.27 218.054 1337.16 218.342 1337.74 218.918C1338.31 219.482 1338.6 220.37 1338.6 221.582V227H1336.89V225.542C1336.67 226.046 1336.34 226.442 1335.88 226.73C1335.43 227.018 1334.88 227.162 1334.24 227.162ZM1334.6 225.866C1335.25 225.866 1335.79 225.638 1336.22 225.182C1336.66 224.726 1336.87 224.15 1336.87 223.454V222.968H1336.28C1335.4 222.968 1334.71 223.01 1334.21 223.094C1333.72 223.178 1333.36 223.322 1333.15 223.526C1332.94 223.718 1332.84 223.988 1332.84 224.336C1332.84 224.792 1333 225.164 1333.31 225.452C1333.62 225.728 1334.05 225.866 1334.6 225.866ZM1344.97 227.162C1344.07 227.162 1343.29 226.976 1342.63 226.604C1341.99 226.22 1341.48 225.686 1341.12 225.002C1340.76 224.306 1340.58 223.49 1340.58 222.554C1340.58 221.162 1340.98 220.064 1341.77 219.26C1342.56 218.456 1343.63 218.054 1344.97 218.054C1345.53 218.054 1346.07 218.15 1346.61 218.342C1347.15 218.534 1347.6 218.798 1347.94 219.134L1347.37 220.412C1347.03 220.1 1346.66 219.872 1346.25 219.728C1345.86 219.572 1345.48 219.494 1345.12 219.494C1344.27 219.494 1343.61 219.764 1343.14 220.304C1342.68 220.832 1342.45 221.588 1342.45 222.572C1342.45 223.556 1342.68 224.33 1343.14 224.894C1343.61 225.446 1344.27 225.722 1345.12 225.722C1345.48 225.722 1345.86 225.65 1346.25 225.506C1346.66 225.35 1347.03 225.116 1347.37 224.804L1347.94 226.1C1347.6 226.424 1347.15 226.682 1346.59 226.874C1346.05 227.066 1345.51 227.162 1344.97 227.162ZM1349.51 227V214.31H1351.32V222.05H1351.36L1355.18 218.216H1357.43L1353.21 222.446L1357.75 227H1355.48L1351.36 222.986H1351.32V227H1349.51Z" fill="#160C0A"/>
<rect width="300" height="300" transform="translate(1570 30)" fill="white"/>
<path fill-rule="evenodd" clip-rule="evenodd" d="M1751.21 160.387C1764.67 160.387 1775.58 149.514 1775.58 136.103C1775.58 122.691 1764.67 111.818 1751.21 111.818C1737.75 111.818 1726.84 122.691 1726.84 136.103C1726.84 149.514 1737.75 160.387 1751.21 160.387Z" stroke="#160C0A" stroke-width="1.5" stroke-linecap="round" stroke-linejoin="round"/>
<path d="M1762.21 224.447C1765.6 224.567 1768.32 227.302 1768.42 230.696C1768.4 232.377 1767.71 233.98 1766.5 235.147C1765.29 236.314 1763.66 236.948 1761.98 236.906H1673.26C1669.8 236.906 1666.99 234.115 1666.97 230.657C1667.07 227.263 1669.79 224.529 1673.18 224.408L1762.21 224.447Z" fill="#A01F1D"/>
<path fill-rule="evenodd" clip-rule="evenodd" d="M1769.39 214.763C1752.81 213.464 1733.24 203.292 1733.24 184.461C1733.24 184.461 1733.98 169.787 1734.8 154.16C1729.44 149.269 1726.55 142.236 1726.92 134.989C1727.28 127.742 1730.87 121.039 1736.7 116.717C1736.66 114.073 1734.5 111.955 1731.85 111.955H1705.28C1703.92 111.963 1702.62 112.537 1701.7 113.539C1700.78 114.541 1700.32 115.88 1700.43 117.236L1703.89 184.548C1703.89 203.465 1684.33 213.637 1667.75 214.849C1658.88 215.392 1651.94 222.678 1651.82 231.558C1651.85 236.016 1653.66 240.277 1656.85 243.397C1660.03 246.517 1664.33 248.238 1668.79 248.181H1768.35C1772.79 248.192 1777.05 246.438 1780.2 243.305C1783.35 240.171 1785.13 235.915 1785.14 231.472C1785.03 222.654 1778.18 215.392 1769.39 214.763Z" stroke="#160C0A" stroke-width="1.5" stroke-linecap="round" stroke-linejoin="round"/>
<path d="M1751.21 119.524V136.103L1762.51 147.402" stroke="#160C0A" stroke-width="1.5" stroke-linecap="round"/>
</svg>
