<svg width="1900" height="300" viewBox="0 0 1900 300" fill="none" xmlns="http://www.w3.org/2000/svg">
<rect width="300" height="300" fill="white"/>
<path d="M216.2 100L250.76 188.186C252.182 191.561 253.699 193.905 255.311 195.218C257.017 196.437 258.582 197.093 260.004 197.187V200C257.539 199.812 254.552 199.719 251.044 199.719C247.631 199.625 244.123 199.578 240.52 199.578C236.348 199.578 232.461 199.625 228.858 199.719C225.255 199.719 222.316 199.812 220.04 200V197.187C224.876 197 227.957 196.203 229.285 194.796C230.612 193.296 230.328 190.155 228.431 185.373L203.401 118.565L205.961 115.471L183.206 173.84C180.741 180.028 179.555 184.81 179.65 188.186C179.745 191.467 180.883 193.765 183.064 195.077C185.244 196.39 188.326 197.093 192.308 197.187V200C189.274 199.812 186.335 199.719 183.49 199.719C180.646 199.625 177.801 199.578 174.957 199.578C172.871 199.578 170.88 199.625 168.984 199.719C167.182 199.719 165.571 199.812 164.148 200V197.187C166.234 196.718 168.273 195.499 170.264 193.53C172.35 191.561 174.341 188.139 176.237 183.263L208.805 100C209.943 100.094 211.175 100.141 212.503 100.141C213.83 100.141 215.063 100.094 216.2 100Z" fill="#160C0A"/>
<path fill-rule="evenodd" clip-rule="evenodd" d="M83.8034 200L49.2442 111.814C47.8221 108.439 46.305 106.095 44.6932 104.782C42.9866 103.563 41.4222 102.907 40 102.813V100C42.4651 100.188 45.4517 100.281 48.9598 100.281C52.373 100.375 55.8811 100.422 59.484 100.422C63.6558 100.422 67.543 100.375 71.1459 100.281C74.7488 100.281 77.688 100.188 79.9635 100V102.813C75.1281 103 72.0467 103.797 70.7193 105.204C69.3919 106.704 69.6764 109.845 71.5726 114.627L95.9397 179.664L112.951 136.03L103.461 111.814C102.038 108.439 100.521 106.095 98.9097 104.782C97.2031 103.563 95.6386 102.907 94.2164 102.813V100C96.6816 100.188 99.6682 100.281 103.176 100.281C106.589 100.375 110.098 100.422 113.7 100.422C117.872 100.422 121.759 100.375 125.362 100.281C128.965 100.281 131.904 100.188 134.18 100V102.813C129.344 103 126.263 103.797 124.936 105.204C123.608 106.704 123.893 109.845 125.789 114.627L150.156 179.664L171.015 126.16C173.48 119.972 174.665 115.19 174.57 111.814C174.475 108.533 173.337 106.235 171.157 104.923C168.976 103.61 165.895 102.907 161.913 102.813V100C164.947 100.188 167.886 100.281 170.73 100.281C173.575 100.375 176.419 100.422 179.263 100.422C181.349 100.422 183.34 100.375 185.236 100.281C187.038 100.281 188.65 100.188 190.072 100V102.813C187.986 103.282 185.948 104.501 183.956 106.47C181.871 108.439 179.88 111.861 177.983 116.737L145.415 200C144.277 199.906 143.045 199.859 141.717 199.859C140.39 199.859 139.158 199.906 138.02 200L114.587 140.206L91.1988 200C90.061 199.906 88.8284 199.859 87.5011 199.859C86.1737 199.859 84.9412 199.906 83.8034 200Z" fill="#160C0A"/>
<rect width="300" height="300" transform="translate(400)" fill="white"/>
<rect x="475" y="75" width="150" height="150" rx="5" fill="#A01F1D"/>
<rect width="300" height="300" transform="translate(800)" fill="white"/>
<path d="M925.48 107.9L952.21 176.76C953.237 179.4 954.373 181.233 955.62 182.26C956.94 183.213 958.113 183.727 959.14 183.8V186C956.94 185.853 954.337 185.78 951.33 185.78C948.397 185.707 945.427 185.67 942.42 185.67C939.047 185.67 935.857 185.707 932.85 185.78C929.843 185.78 927.46 185.853 925.7 186V183.8C929.44 183.653 931.787 183.03 932.74 181.93C933.767 180.757 933.547 178.3 932.08 174.56L913.38 123.41L915.36 120.55L898.64 164.11C897.027 168.143 896.037 171.443 895.67 174.01C895.377 176.577 895.56 178.557 896.22 179.95C896.953 181.343 898.09 182.333 899.63 182.92C901.243 183.433 903.15 183.727 905.35 183.8V186C902.93 185.853 900.62 185.78 898.42 185.78C896.22 185.707 893.983 185.67 891.71 185.67C890.097 185.67 888.557 185.707 887.09 185.78C885.697 185.78 884.45 185.853 883.35 186V183.8C884.89 183.507 886.467 182.517 888.08 180.83C889.693 179.143 891.27 176.283 892.81 172.25L917.89 107.9C919.063 107.973 920.31 108.01 921.63 108.01C923.023 108.01 924.307 107.973 925.48 107.9ZM933.18 154.32V156.52H900.4L901.5 154.32H933.18ZM976.189 186.77C972.889 186.77 970.139 186.147 967.939 184.9C965.739 183.653 964.126 182.003 963.099 179.95C962.072 177.823 961.559 175.513 961.559 173.02C961.559 169.867 962.256 167.3 963.649 165.32C965.116 163.34 966.986 161.727 969.259 160.48C971.532 159.233 973.916 158.207 976.409 157.4C978.976 156.593 981.396 155.823 983.669 155.09C986.016 154.283 987.886 153.367 989.279 152.34C990.746 151.24 991.479 149.847 991.479 148.16V139.58C991.479 137.673 991.149 135.987 990.489 134.52C989.902 132.98 988.949 131.807 987.629 131C986.382 130.193 984.732 129.79 982.679 129.79C981.212 129.79 979.746 130.01 978.279 130.45C976.812 130.817 975.602 131.477 974.649 132.43C976.702 133.163 978.279 134.3 979.379 135.84C980.552 137.307 981.139 138.993 981.139 140.9C981.139 143.393 980.259 145.373 978.499 146.84C976.812 148.307 974.796 149.04 972.449 149.04C969.809 149.04 967.792 148.233 966.399 146.62C965.079 144.933 964.419 142.917 964.419 140.57C964.419 138.443 964.932 136.683 965.959 135.29C967.059 133.897 968.562 132.577 970.469 131.33C972.522 130.157 974.979 129.24 977.839 128.58C980.772 127.92 983.926 127.59 987.299 127.59C990.672 127.59 993.716 127.957 996.429 128.69C999.142 129.35 1001.42 130.597 1003.25 132.43C1004.94 134.117 1006.04 136.207 1006.55 138.7C1007.06 141.12 1007.32 144.2 1007.32 147.94V177.86C1007.32 179.693 1007.5 180.977 1007.87 181.71C1008.24 182.37 1008.86 182.7 1009.74 182.7C1010.4 182.7 1011.02 182.517 1011.61 182.15C1012.27 181.783 1012.97 181.343 1013.7 180.83L1014.8 182.7C1013.26 184.02 1011.46 185.047 1009.41 185.78C1007.43 186.44 1005.19 186.77 1002.7 186.77C999.986 186.77 997.822 186.403 996.209 185.67C994.596 184.863 993.422 183.8 992.689 182.48C992.029 181.16 991.699 179.62 991.699 177.86C989.939 180.647 987.812 182.847 985.319 184.46C982.826 186 979.782 186.77 976.189 186.77ZM983.999 179.73C985.466 179.73 986.786 179.4 987.959 178.74C989.206 178.007 990.379 176.833 991.479 175.22V152.67C990.819 153.77 989.902 154.76 988.729 155.64C987.556 156.52 986.309 157.437 984.989 158.39C983.669 159.27 982.386 160.26 981.139 161.36C979.966 162.46 979.012 163.817 978.279 165.43C977.546 167.043 977.179 168.987 977.179 171.26C977.179 174.12 977.802 176.247 979.049 177.64C980.296 179.033 981.946 179.73 983.999 179.73Z" fill="#160C0A"/>
<rect width="300" height="300" transform="translate(1200)" fill="white"/>
<rect x="1240" y="83" width="220" height="52" rx="2" fill="#A01F1D"/>
<path d="M1336.3 115.162C1335.02 115.162 1333.92 114.898 1333.01 114.37C1332.09 113.842 1331.39 113.092 1330.9 112.12C1330.42 111.136 1330.18 109.978 1330.18 108.646C1330.18 107.314 1330.42 106.162 1330.9 105.19C1331.39 104.218 1332.09 103.468 1333.01 102.94C1333.92 102.412 1335.02 102.148 1336.3 102.148C1337.16 102.148 1337.97 102.286 1338.71 102.562C1339.47 102.826 1340.1 103.21 1340.6 103.714L1339.95 105.208C1339.4 104.716 1338.83 104.362 1338.24 104.146C1337.67 103.918 1337.04 103.804 1336.35 103.804C1334.99 103.804 1333.94 104.224 1333.22 105.064C1332.5 105.904 1332.14 107.098 1332.14 108.646C1332.14 110.194 1332.5 111.394 1333.22 112.246C1333.94 113.086 1334.99 113.506 1336.35 113.506C1337.04 113.506 1337.67 113.398 1338.24 113.182C1338.83 112.954 1339.4 112.594 1339.95 112.102L1340.6 113.596C1340.1 114.088 1339.47 114.472 1338.71 114.748C1337.97 115.024 1337.16 115.162 1336.3 115.162ZM1345.44 115.162C1344.48 115.162 1343.76 114.892 1343.28 114.352C1342.81 113.812 1342.58 113.02 1342.58 111.976V102.31H1344.4V111.868C1344.4 113.056 1344.88 113.65 1345.85 113.65C1346 113.65 1346.13 113.644 1346.25 113.632C1346.38 113.62 1346.51 113.596 1346.65 113.56L1346.61 115.018C1346.2 115.114 1345.81 115.162 1345.44 115.162ZM1347.92 104.182V102.292H1350.04V104.182H1347.92ZM1348.08 115V106.216H1349.9V115H1348.08ZM1356.33 115.162C1355.43 115.162 1354.65 114.976 1353.99 114.604C1353.34 114.22 1352.84 113.686 1352.48 113.002C1352.12 112.306 1351.94 111.49 1351.94 110.554C1351.94 109.162 1352.33 108.064 1353.12 107.26C1353.92 106.456 1354.98 106.054 1356.33 106.054C1356.88 106.054 1357.43 106.15 1357.97 106.342C1358.51 106.534 1358.95 106.798 1359.3 107.134L1358.72 108.412C1358.39 108.1 1358.01 107.872 1357.61 107.728C1357.21 107.572 1356.83 107.494 1356.47 107.494C1355.62 107.494 1354.96 107.764 1354.49 108.304C1354.04 108.832 1353.81 109.588 1353.81 110.572C1353.81 111.556 1354.04 112.33 1354.49 112.894C1354.96 113.446 1355.62 113.722 1356.47 113.722C1356.83 113.722 1357.21 113.65 1357.61 113.506C1358.01 113.35 1358.39 113.116 1358.72 112.804L1359.3 114.1C1358.95 114.424 1358.5 114.682 1357.95 114.874C1357.41 115.066 1356.87 115.162 1356.33 115.162ZM1360.86 115V102.31H1362.68V110.05H1362.71L1366.53 106.216H1368.78L1364.57 110.446L1369.1 115H1366.84L1362.71 110.986H1362.68V115H1360.86Z" fill="white"/>
<rect width="220" height="52" transform="translate(1240 165)" fill="white"/>
<rect x="1240.5" y="165.5" width="219" height="51" rx="1.5" stroke="#160C0A"/>
<path d="M1334.66 197.162C1333.37 197.162 1332.27 196.898 1331.36 196.37C1330.45 195.842 1329.75 195.092 1329.26 194.12C1328.78 193.136 1328.54 191.978 1328.54 190.646C1328.54 189.314 1328.78 188.162 1329.26 187.19C1329.75 186.218 1330.45 185.468 1331.36 184.94C1332.27 184.412 1333.37 184.148 1334.66 184.148C1335.52 184.148 1336.32 184.286 1337.07 184.562C1337.82 184.826 1338.45 185.21 1338.96 185.714L1338.31 187.208C1337.76 186.716 1337.19 186.362 1336.6 186.146C1336.02 185.918 1335.39 185.804 1334.71 185.804C1333.34 185.804 1332.3 186.224 1331.58 187.064C1330.86 187.904 1330.5 189.098 1330.5 190.646C1330.5 192.194 1330.86 193.394 1331.58 194.246C1332.3 195.086 1333.34 195.506 1334.71 195.506C1335.39 195.506 1336.02 195.398 1336.6 195.182C1337.19 194.954 1337.76 194.594 1338.31 194.102L1338.96 195.596C1338.45 196.088 1337.82 196.472 1337.07 196.748C1336.32 197.024 1335.52 197.162 1334.66 197.162ZM1343.8 197.162C1342.84 197.162 1342.12 196.892 1341.64 196.352C1341.17 195.812 1340.93 195.02 1340.93 193.976V184.31H1342.75V193.868C1342.75 195.056 1343.24 195.65 1344.21 195.65C1344.35 195.65 1344.49 195.644 1344.61 195.632C1344.74 195.62 1344.87 195.596 1345 195.56L1344.97 197.018C1344.56 197.114 1344.17 197.162 1343.8 197.162ZM1349.24 197.162C1348.63 197.162 1348.09 197.042 1347.61 196.802C1347.13 196.562 1346.74 196.238 1346.45 195.83C1346.18 195.422 1346.04 194.96 1346.04 194.444C1346.04 193.796 1346.2 193.286 1346.53 192.914C1346.86 192.542 1347.41 192.272 1348.16 192.104C1348.93 191.936 1349.96 191.852 1351.26 191.852H1351.87V191.384C1351.87 190.7 1351.73 190.208 1351.44 189.908C1351.15 189.608 1350.68 189.458 1350.02 189.458C1349.51 189.458 1349.01 189.536 1348.51 189.692C1348 189.836 1347.49 190.07 1346.96 190.394L1346.4 189.116C1346.86 188.792 1347.43 188.534 1348.11 188.342C1348.79 188.15 1349.45 188.054 1350.07 188.054C1351.27 188.054 1352.16 188.342 1352.74 188.918C1353.31 189.482 1353.6 190.37 1353.6 191.582V197H1351.89V195.542C1351.67 196.046 1351.34 196.442 1350.88 196.73C1350.43 197.018 1349.88 197.162 1349.24 197.162ZM1349.6 195.866C1350.25 195.866 1350.79 195.638 1351.22 195.182C1351.66 194.726 1351.87 194.15 1351.87 193.454V192.968H1351.28C1350.4 192.968 1349.71 193.01 1349.21 193.094C1348.72 193.178 1348.36 193.322 1348.15 193.526C1347.94 193.718 1347.84 193.988 1347.84 194.336C1347.84 194.792 1348 195.164 1348.31 195.452C1348.62 195.728 1349.05 195.866 1349.6 195.866ZM1359.97 197.162C1359.07 197.162 1358.29 196.976 1357.63 196.604C1356.99 196.22 1356.48 195.686 1356.12 195.002C1355.76 194.306 1355.58 193.49 1355.58 192.554C1355.58 191.162 1355.98 190.064 1356.77 189.26C1357.56 188.456 1358.63 188.054 1359.97 188.054C1360.53 188.054 1361.07 188.15 1361.61 188.342C1362.15 188.534 1362.6 188.798 1362.94 189.134L1362.37 190.412C1362.03 190.1 1361.66 189.872 1361.25 189.728C1360.86 189.572 1360.48 189.494 1360.12 189.494C1359.27 189.494 1358.61 189.764 1358.14 190.304C1357.68 190.832 1357.45 191.588 1357.45 192.572C1357.45 193.556 1357.68 194.33 1358.14 194.894C1358.61 195.446 1359.27 195.722 1360.12 195.722C1360.48 195.722 1360.86 195.65 1361.25 195.506C1361.66 195.35 1362.03 195.116 1362.37 194.804L1362.94 196.1C1362.6 196.424 1362.15 196.682 1361.59 196.874C1361.05 197.066 1360.51 197.162 1359.97 197.162ZM1364.51 197V184.31H1366.32V192.05H1366.36L1370.18 188.216H1372.43L1368.21 192.446L1372.75 197H1370.48L1366.36 192.986H1366.32V197H1364.51Z" fill="#160C0A"/>
<rect width="300" height="300" transform="translate(1600)" fill="white"/>
<path fill-rule="evenodd" clip-rule="evenodd" d="M1781.21 130.387C1794.67 130.387 1805.58 119.514 1805.58 106.103C1805.58 92.6908 1794.67 81.8184 1781.21 81.8184C1767.75 81.8184 1756.84 92.6908 1756.84 106.103C1756.84 119.514 1767.75 130.387 1781.21 130.387Z" stroke="#160C0A" stroke-width="1.5" stroke-linecap="round" stroke-linejoin="round"/>
<path d="M1792.21 194.447C1795.6 194.567 1798.32 197.302 1798.42 200.696C1798.4 202.377 1797.71 203.98 1796.5 205.147C1795.29 206.314 1793.66 206.948 1791.98 206.906H1703.26C1699.8 206.906 1696.99 204.115 1696.97 200.657C1697.07 197.263 1699.79 194.529 1703.18 194.408L1792.21 194.447Z" fill="#A01F1D"/>
<path fill-rule="evenodd" clip-rule="evenodd" d="M1799.39 184.763C1782.81 183.464 1763.24 173.292 1763.24 154.461C1763.24 154.461 1763.98 139.787 1764.8 124.16C1759.44 119.269 1756.55 112.236 1756.92 104.989C1757.28 97.7418 1760.87 91.0392 1766.7 86.7167C1766.66 84.073 1764.5 81.9547 1761.85 81.9551H1735.28C1733.92 81.9628 1732.62 82.5365 1731.7 83.5385C1730.78 84.5405 1730.32 85.8803 1730.43 87.2361L1733.89 154.548C1733.89 173.465 1714.33 183.637 1697.75 184.849C1688.88 185.392 1681.94 192.678 1681.82 201.558C1681.85 206.016 1683.66 210.277 1686.85 213.397C1690.03 216.517 1694.33 218.238 1698.79 218.181H1798.35C1802.79 218.192 1807.05 216.438 1810.2 213.305C1813.35 210.171 1815.13 205.915 1815.14 201.472C1815.03 192.654 1808.18 185.392 1799.39 184.763Z" stroke="#160C0A" stroke-width="1.5" stroke-linecap="round" stroke-linejoin="round"/>
<path d="M1781.21 89.5244V106.103L1792.51 117.402" stroke="#160C0A" stroke-width="1.5" stroke-linecap="round"/>
</svg>
