<svg width="1200" height="338" viewBox="0 0 1200 338" fill="none" xmlns="http://www.w3.org/2000/svg">
<rect width="1200" height="338" fill="white"/>
<rect x="651" y="266" width="250" height="65" rx="2" fill="#C7C7CA"/>
<path d="M736.348 305V293.288H738.772V305H736.348ZM736.18 288.056H738.964V290.576H736.18V288.056ZM748.472 293C751.272 293 752.672 294.576 752.672 297.728V305H750.248V297.848C750.248 296.856 750.048 296.128 749.648 295.664C749.264 295.2 748.656 294.968 747.824 294.968C746.848 294.968 746.064 295.272 745.472 295.88C744.88 296.488 744.584 297.304 744.584 298.328V305H742.16V293.288H744.536V295.16C744.92 294.456 745.456 293.92 746.144 293.552C746.832 293.184 747.608 293 748.472 293ZM760.885 293C762.453 293 763.613 293.392 764.365 294.176C765.133 294.96 765.517 296.152 765.517 297.752V305H763.189V303.056C762.885 303.744 762.429 304.272 761.821 304.64C761.229 304.992 760.533 305.168 759.733 305.168C758.965 305.168 758.261 305.016 757.621 304.712C756.981 304.392 756.477 303.952 756.109 303.392C755.757 302.832 755.581 302.208 755.581 301.52C755.581 300.672 755.797 300.008 756.229 299.528C756.677 299.032 757.405 298.68 758.413 298.472C759.437 298.264 760.837 298.16 762.613 298.16H763.165V297.464C763.165 296.568 762.973 295.92 762.589 295.52C762.221 295.12 761.613 294.92 760.765 294.92C759.437 294.92 758.109 295.328 756.781 296.144L756.061 294.44C756.685 294.008 757.437 293.664 758.317 293.408C759.213 293.136 760.069 293 760.885 293ZM760.165 303.368C761.045 303.368 761.765 303.072 762.325 302.48C762.885 301.872 763.165 301.096 763.165 300.152V299.528H762.733C761.485 299.528 760.525 299.584 759.853 299.696C759.181 299.808 758.701 300 758.413 300.272C758.125 300.528 757.981 300.904 757.981 301.4C757.981 301.96 758.181 302.432 758.581 302.816C758.997 303.184 759.525 303.368 760.165 303.368ZM773.968 305.168C772.784 305.168 771.752 304.92 770.872 304.424C770.008 303.928 769.336 303.232 768.856 302.336C768.392 301.424 768.16 300.36 768.16 299.144C768.16 297.928 768.4 296.856 768.88 295.928C769.376 295 770.064 294.28 770.944 293.768C771.84 293.256 772.88 293 774.064 293C774.88 293 775.664 293.136 776.416 293.408C777.184 293.68 777.808 294.048 778.288 294.512L777.544 296.24C776.488 295.376 775.392 294.944 774.256 294.944C773.136 294.944 772.256 295.312 771.616 296.048C770.992 296.768 770.68 297.792 770.68 299.12C770.68 300.432 770.992 301.448 771.616 302.168C772.24 302.872 773.12 303.224 774.256 303.224C775.392 303.224 776.488 302.792 777.544 301.928L778.288 303.68C777.776 304.144 777.136 304.512 776.368 304.784C775.6 305.04 774.8 305.168 773.968 305.168ZM786.025 303.296C786.393 303.296 786.753 303.272 787.105 303.224L786.985 305.072C786.585 305.136 786.169 305.168 785.737 305.168C784.217 305.168 783.081 304.8 782.329 304.064C781.593 303.312 781.225 302.232 781.225 300.824V295.16H778.945V293.288H781.225V289.76H783.649V293.288H786.865V295.16H783.649V300.728C783.649 302.44 784.441 303.296 786.025 303.296ZM788.942 305V293.288H791.366V305H788.942ZM788.774 288.056H791.558V290.576H788.774V288.056ZM803.058 293.312H805.482L800.394 305H798.21L793.17 293.312H795.714L799.362 302.264L803.058 293.312ZM817.091 299.552H808.811C808.987 302.032 810.219 303.272 812.507 303.272C813.851 303.272 815.067 302.832 816.155 301.952L816.899 303.656C816.355 304.12 815.683 304.488 814.883 304.76C814.083 305.032 813.267 305.168 812.435 305.168C810.563 305.168 809.083 304.632 807.995 303.56C806.923 302.488 806.387 301.008 806.387 299.12C806.387 297.92 806.619 296.856 807.083 295.928C807.563 295 808.227 294.28 809.075 293.768C809.939 293.256 810.915 293 812.003 293C813.587 293 814.827 293.512 815.723 294.536C816.635 295.56 817.091 296.976 817.091 298.784V299.552ZM812.051 294.776C811.123 294.776 810.379 295.072 809.819 295.664C809.275 296.24 808.947 297.072 808.835 298.16H815.003C814.955 297.072 814.675 296.24 814.163 295.664C813.667 295.072 812.963 294.776 812.051 294.776Z" fill="black"/>
<rect x="946.904" y="267.904" width="243.192" height="61.75" rx="1" fill="white" stroke="#9C9AAA" stroke-width="2"/>
<rect x="941" y="262" width="255" height="73.5577" rx="2" stroke="#AB2727" stroke-width="2"/>
<path d="M996.4 306V294.288H998.824V306H996.4ZM996.232 289.056H999.016V291.576H996.232V289.056ZM1008.52 294C1011.32 294 1012.72 295.576 1012.72 298.728V306H1010.3V298.848C1010.3 297.856 1010.1 297.128 1009.7 296.664C1009.32 296.2 1008.71 295.968 1007.88 295.968C1006.9 295.968 1006.12 296.272 1005.52 296.88C1004.93 297.488 1004.64 298.304 1004.64 299.328V306H1002.21V294.288H1004.59V296.16C1004.97 295.456 1005.51 294.92 1006.2 294.552C1006.88 294.184 1007.66 294 1008.52 294ZM1020.94 294C1022.5 294 1023.66 294.392 1024.42 295.176C1025.18 295.96 1025.57 297.152 1025.57 298.752V306H1023.24V304.056C1022.94 304.744 1022.48 305.272 1021.87 305.64C1021.28 305.992 1020.58 306.168 1019.78 306.168C1019.02 306.168 1018.31 306.016 1017.67 305.712C1017.03 305.392 1016.53 304.952 1016.16 304.392C1015.81 303.832 1015.63 303.208 1015.63 302.52C1015.63 301.672 1015.85 301.008 1016.28 300.528C1016.73 300.032 1017.46 299.68 1018.46 299.472C1019.49 299.264 1020.89 299.16 1022.66 299.16H1023.22V298.464C1023.22 297.568 1023.02 296.92 1022.64 296.52C1022.27 296.12 1021.66 295.92 1020.82 295.92C1019.49 295.92 1018.16 296.328 1016.83 297.144L1016.11 295.44C1016.74 295.008 1017.49 294.664 1018.37 294.408C1019.26 294.136 1020.12 294 1020.94 294ZM1020.22 304.368C1021.1 304.368 1021.82 304.072 1022.38 303.48C1022.94 302.872 1023.22 302.096 1023.22 301.152V300.528H1022.78C1021.54 300.528 1020.58 300.584 1019.9 300.696C1019.23 300.808 1018.75 301 1018.46 301.272C1018.18 301.528 1018.03 301.904 1018.03 302.4C1018.03 302.96 1018.23 303.432 1018.63 303.816C1019.05 304.184 1019.58 304.368 1020.22 304.368ZM1034.02 306.168C1032.84 306.168 1031.8 305.92 1030.92 305.424C1030.06 304.928 1029.39 304.232 1028.91 303.336C1028.44 302.424 1028.21 301.36 1028.21 300.144C1028.21 298.928 1028.45 297.856 1028.93 296.928C1029.43 296 1030.12 295.28 1031 294.768C1031.89 294.256 1032.93 294 1034.12 294C1034.93 294 1035.72 294.136 1036.47 294.408C1037.24 294.68 1037.86 295.048 1038.34 295.512L1037.6 297.24C1036.54 296.376 1035.44 295.944 1034.31 295.944C1033.19 295.944 1032.31 296.312 1031.67 297.048C1031.04 297.768 1030.73 298.792 1030.73 300.12C1030.73 301.432 1031.04 302.448 1031.67 303.168C1032.29 303.872 1033.17 304.224 1034.31 304.224C1035.44 304.224 1036.54 303.792 1037.6 302.928L1038.34 304.68C1037.83 305.144 1037.19 305.512 1036.42 305.784C1035.65 306.04 1034.85 306.168 1034.02 306.168ZM1046.08 304.296C1046.44 304.296 1046.8 304.272 1047.16 304.224L1047.04 306.072C1046.64 306.136 1046.22 306.168 1045.79 306.168C1044.27 306.168 1043.13 305.8 1042.38 305.064C1041.64 304.312 1041.28 303.232 1041.28 301.824V296.16H1039V294.288H1041.28V290.76H1043.7V294.288H1046.92V296.16H1043.7V301.728C1043.7 303.44 1044.49 304.296 1046.08 304.296ZM1048.99 306V294.288H1051.42V306H1048.99ZM1048.83 289.056H1051.61V291.576H1048.83V289.056ZM1063.11 294.312H1065.53L1060.45 306H1058.26L1053.22 294.312H1055.77L1059.41 303.264L1063.11 294.312ZM1077.14 300.552H1068.86C1069.04 303.032 1070.27 304.272 1072.56 304.272C1073.9 304.272 1075.12 303.832 1076.21 302.952L1076.95 304.656C1076.41 305.12 1075.73 305.488 1074.93 305.76C1074.13 306.032 1073.32 306.168 1072.49 306.168C1070.61 306.168 1069.13 305.632 1068.05 304.56C1066.97 303.488 1066.44 302.008 1066.44 300.12C1066.44 298.92 1066.67 297.856 1067.13 296.928C1067.61 296 1068.28 295.28 1069.13 294.768C1069.99 294.256 1070.97 294 1072.05 294C1073.64 294 1074.88 294.512 1075.77 295.536C1076.69 296.56 1077.14 297.976 1077.14 299.784V300.552ZM1072.1 295.776C1071.17 295.776 1070.43 296.072 1069.87 296.664C1069.33 297.24 1069 298.072 1068.89 299.16H1075.05C1075.01 298.072 1074.73 297.24 1074.21 296.664C1073.72 296.072 1073.01 295.776 1072.1 295.776ZM1089.31 294.288H1092.53V296.16H1089.31V306H1086.89V296.16H1084.61V294.288H1086.89V294.072C1086.89 292.456 1087.29 291.24 1088.11 290.424C1088.94 289.608 1090.21 289.152 1091.9 289.056L1092.98 289.008L1093.13 290.832L1092.02 290.904C1091.06 290.952 1090.37 291.2 1089.93 291.648C1089.52 292.096 1089.31 292.776 1089.31 293.688V294.288ZM1099.32 306.168C1098.16 306.168 1097.15 305.92 1096.27 305.424C1095.4 304.928 1094.73 304.224 1094.25 303.312C1093.79 302.384 1093.56 301.312 1093.56 300.096C1093.56 298.864 1093.79 297.792 1094.25 296.88C1094.73 295.952 1095.4 295.24 1096.27 294.744C1097.15 294.248 1098.16 294 1099.32 294C1100.47 294 1101.48 294.248 1102.34 294.744C1103.22 295.24 1103.89 295.952 1104.36 296.88C1104.84 297.792 1105.08 298.864 1105.08 300.096C1105.08 301.312 1104.84 302.384 1104.36 303.312C1103.89 304.224 1103.22 304.928 1102.34 305.424C1101.48 305.92 1100.47 306.168 1099.32 306.168ZM1099.32 304.248C1100.39 304.248 1101.2 303.896 1101.76 303.192C1102.34 302.488 1102.63 301.456 1102.63 300.096C1102.63 298.752 1102.34 297.728 1101.76 297.024C1101.19 296.304 1100.37 295.944 1099.32 295.944C1098.26 295.944 1097.44 296.304 1096.87 297.024C1096.29 297.728 1096 298.752 1096 300.096C1096 301.456 1096.28 302.488 1096.84 303.192C1097.42 303.896 1098.24 304.248 1099.32 304.248ZM1112.91 306.168C1111.73 306.168 1110.69 305.92 1109.81 305.424C1108.95 304.928 1108.28 304.232 1107.8 303.336C1107.33 302.424 1107.1 301.36 1107.1 300.144C1107.1 298.928 1107.34 297.856 1107.82 296.928C1108.32 296 1109.01 295.28 1109.89 294.768C1110.78 294.256 1111.82 294 1113.01 294C1113.82 294 1114.61 294.136 1115.36 294.408C1116.13 294.68 1116.75 295.048 1117.23 295.512L1116.49 297.24C1115.43 296.376 1114.33 295.944 1113.2 295.944C1112.08 295.944 1111.2 296.312 1110.56 297.048C1109.93 297.768 1109.62 298.792 1109.62 300.12C1109.62 301.432 1109.93 302.448 1110.56 303.168C1111.18 303.872 1112.06 304.224 1113.2 304.224C1114.33 304.224 1115.43 303.792 1116.49 302.928L1117.23 304.68C1116.72 305.144 1116.08 305.512 1115.31 305.784C1114.54 306.04 1113.74 306.168 1112.91 306.168ZM1129.65 294.288V306H1127.3V304.104C1126.93 304.776 1126.42 305.288 1125.76 305.64C1125.12 305.992 1124.4 306.168 1123.6 306.168C1120.75 306.168 1119.33 304.6 1119.33 301.464V294.288H1121.75V301.44C1121.75 302.384 1121.94 303.08 1122.33 303.528C1122.71 303.976 1123.3 304.2 1124.1 304.2C1125.05 304.2 1125.8 303.896 1126.36 303.288C1126.94 302.68 1127.22 301.872 1127.22 300.864V294.288H1129.65ZM1137.17 306.168C1135.14 306.168 1133.51 305.672 1132.3 304.68L1133.04 302.928C1134.24 303.856 1135.64 304.32 1137.24 304.32C1138.02 304.32 1138.62 304.192 1139.04 303.936C1139.46 303.664 1139.66 303.288 1139.66 302.808C1139.66 302.392 1139.52 302.064 1139.23 301.824C1138.96 301.584 1138.48 301.384 1137.79 301.224L1135.85 300.792C1134.81 300.552 1134.02 300.16 1133.5 299.616C1132.97 299.072 1132.7 298.384 1132.7 297.552C1132.7 296.496 1133.13 295.64 1133.98 294.984C1134.84 294.328 1135.97 294 1137.36 294C1138.19 294 1138.98 294.136 1139.74 294.408C1140.49 294.664 1141.14 295.032 1141.68 295.512L1140.94 297.216C1139.78 296.304 1138.59 295.848 1137.36 295.848C1136.62 295.848 1136.04 295.992 1135.61 296.28C1135.19 296.568 1134.98 296.96 1134.98 297.456C1134.98 297.856 1135.11 298.184 1135.37 298.44C1135.64 298.68 1136.06 298.864 1136.64 298.992L1138.63 299.448C1139.77 299.704 1140.6 300.104 1141.13 300.648C1141.66 301.176 1141.92 301.872 1141.92 302.736C1141.92 303.792 1141.49 304.632 1140.62 305.256C1139.78 305.864 1138.62 306.168 1137.17 306.168Z" fill="black"/>
<rect x="361" y="14" width="250" height="65" rx="2" fill="#FFCA5F"/>
<path d="M461.189 41C462.757 41 463.917 41.392 464.669 42.176C465.437 42.96 465.821 44.152 465.821 45.752V53H463.493V51.056C463.189 51.744 462.733 52.272 462.125 52.64C461.533 52.992 460.837 53.168 460.037 53.168C459.269 53.168 458.565 53.016 457.925 52.712C457.285 52.392 456.781 51.952 456.413 51.392C456.061 50.832 455.885 50.208 455.885 49.52C455.885 48.672 456.101 48.008 456.533 47.528C456.981 47.032 457.709 46.68 458.717 46.472C459.741 46.264 461.141 46.16 462.917 46.16H463.469V45.464C463.469 44.568 463.277 43.92 462.893 43.52C462.525 43.12 461.917 42.92 461.069 42.92C459.741 42.92 458.413 43.328 457.085 44.144L456.365 42.44C456.989 42.008 457.741 41.664 458.621 41.408C459.517 41.136 460.373 41 461.189 41ZM460.469 51.368C461.349 51.368 462.069 51.072 462.629 50.48C463.189 49.872 463.469 49.096 463.469 48.152V47.528H463.037C461.789 47.528 460.829 47.584 460.157 47.696C459.485 47.808 459.005 48 458.717 48.272C458.429 48.528 458.285 48.904 458.285 49.4C458.285 49.96 458.485 50.432 458.885 50.816C459.301 51.184 459.829 51.368 460.469 51.368ZM474.273 53.168C473.089 53.168 472.057 52.92 471.177 52.424C470.313 51.928 469.641 51.232 469.161 50.336C468.697 49.424 468.465 48.36 468.465 47.144C468.465 45.928 468.705 44.856 469.185 43.928C469.681 43 470.369 42.28 471.249 41.768C472.145 41.256 473.185 41 474.369 41C475.185 41 475.969 41.136 476.721 41.408C477.489 41.68 478.113 42.048 478.593 42.512L477.849 44.24C476.793 43.376 475.697 42.944 474.561 42.944C473.441 42.944 472.561 43.312 471.921 44.048C471.297 44.768 470.985 45.792 470.985 47.12C470.985 48.432 471.297 49.448 471.921 50.168C472.545 50.872 473.425 51.224 474.561 51.224C475.697 51.224 476.793 50.792 477.849 49.928L478.593 51.68C478.081 52.144 477.441 52.512 476.673 52.784C475.905 53.04 475.105 53.168 474.273 53.168ZM486.329 51.296C486.697 51.296 487.057 51.272 487.409 51.224L487.289 53.072C486.889 53.136 486.473 53.168 486.041 53.168C484.521 53.168 483.385 52.8 482.633 52.064C481.897 51.312 481.529 50.232 481.529 48.824V43.16H479.249V41.288H481.529V37.76H483.953V41.288H487.169V43.16H483.953V48.728C483.953 50.44 484.745 51.296 486.329 51.296ZM489.246 53V41.288H491.67V53H489.246ZM489.078 36.056H491.862V38.576H489.078V36.056ZM503.363 41.312H505.787L500.699 53H498.515L493.475 41.312H496.019L499.667 50.264L503.363 41.312ZM517.396 47.552H509.116C509.292 50.032 510.524 51.272 512.812 51.272C514.156 51.272 515.372 50.832 516.46 49.952L517.204 51.656C516.66 52.12 515.988 52.488 515.188 52.76C514.388 53.032 513.572 53.168 512.74 53.168C510.868 53.168 509.388 52.632 508.3 51.56C507.228 50.488 506.692 49.008 506.692 47.12C506.692 45.92 506.924 44.856 507.388 43.928C507.868 43 508.532 42.28 509.38 41.768C510.244 41.256 511.22 41 512.308 41C513.892 41 515.132 41.512 516.028 42.536C516.94 43.56 517.396 44.976 517.396 46.784V47.552ZM512.356 42.776C511.428 42.776 510.684 43.072 510.124 43.664C509.58 44.24 509.252 45.072 509.14 46.16H515.308C515.26 45.072 514.98 44.24 514.468 43.664C513.972 43.072 513.268 42.776 512.356 42.776Z" fill="black"/>
<rect x="945.904" y="14.9039" width="245.192" height="63.75" rx="2" fill="#FFCA5F"/>
<rect x="941" y="10" width="255" height="73.5577" rx="2" stroke="#AB2727" stroke-width="2"/>
<path d="M1044.89 42.288H1048.1V44.16H1044.89V54H1042.46V44.16H1040.18V42.288H1042.46V42.072C1042.46 40.456 1042.87 39.24 1043.69 38.424C1044.52 37.608 1045.78 37.152 1047.48 37.056L1048.56 37.008L1048.7 38.832L1047.6 38.904C1046.64 38.952 1045.94 39.2 1045.51 39.648C1045.1 40.096 1044.89 40.776 1044.89 41.688V42.288ZM1054.89 54.168C1053.74 54.168 1052.73 53.92 1051.85 53.424C1050.98 52.928 1050.31 52.224 1049.83 51.312C1049.37 50.384 1049.13 49.312 1049.13 48.096C1049.13 46.864 1049.37 45.792 1049.83 44.88C1050.31 43.952 1050.98 43.24 1051.85 42.744C1052.73 42.248 1053.74 42 1054.89 42C1056.05 42 1057.05 42.248 1057.92 42.744C1058.8 43.24 1059.47 43.952 1059.93 44.88C1060.41 45.792 1060.65 46.864 1060.65 48.096C1060.65 49.312 1060.41 50.384 1059.93 51.312C1059.47 52.224 1058.8 52.928 1057.92 53.424C1057.05 53.92 1056.05 54.168 1054.89 54.168ZM1054.89 52.248C1055.97 52.248 1056.78 51.896 1057.34 51.192C1057.92 50.488 1058.21 49.456 1058.21 48.096C1058.21 46.752 1057.92 45.728 1057.34 45.024C1056.77 44.304 1055.95 43.944 1054.89 43.944C1053.84 43.944 1053.02 44.304 1052.45 45.024C1051.87 45.728 1051.58 46.752 1051.58 48.096C1051.58 49.456 1051.86 50.488 1052.42 51.192C1053 51.896 1053.82 52.248 1054.89 52.248ZM1068.49 54.168C1067.31 54.168 1066.27 53.92 1065.39 53.424C1064.53 52.928 1063.86 52.232 1063.38 51.336C1062.91 50.424 1062.68 49.36 1062.68 48.144C1062.68 46.928 1062.92 45.856 1063.4 44.928C1063.9 44 1064.59 43.28 1065.47 42.768C1066.36 42.256 1067.4 42 1068.59 42C1069.4 42 1070.19 42.136 1070.94 42.408C1071.71 42.68 1072.33 43.048 1072.81 43.512L1072.07 45.24C1071.01 44.376 1069.91 43.944 1068.78 43.944C1067.66 43.944 1066.78 44.312 1066.14 45.048C1065.51 45.768 1065.2 46.792 1065.2 48.12C1065.2 49.432 1065.51 50.448 1066.14 51.168C1066.76 51.872 1067.64 52.224 1068.78 52.224C1069.91 52.224 1071.01 51.792 1072.07 50.928L1072.81 52.68C1072.3 53.144 1071.66 53.512 1070.89 53.784C1070.12 54.04 1069.32 54.168 1068.49 54.168ZM1085.23 42.288V54H1082.87V52.104C1082.51 52.776 1081.99 53.288 1081.34 53.64C1080.7 53.992 1079.98 54.168 1079.18 54.168C1076.33 54.168 1074.91 52.6 1074.91 49.464V42.288H1077.33V49.44C1077.33 50.384 1077.52 51.08 1077.91 51.528C1078.29 51.976 1078.88 52.2 1079.68 52.2C1080.63 52.2 1081.38 51.896 1081.94 51.288C1082.51 50.68 1082.8 49.872 1082.8 48.864V42.288H1085.23ZM1092.75 54.168C1090.72 54.168 1089.09 53.672 1087.88 52.68L1088.62 50.928C1089.82 51.856 1091.22 52.32 1092.82 52.32C1093.6 52.32 1094.2 52.192 1094.62 51.936C1095.04 51.664 1095.24 51.288 1095.24 50.808C1095.24 50.392 1095.1 50.064 1094.81 49.824C1094.54 49.584 1094.06 49.384 1093.37 49.224L1091.43 48.792C1090.39 48.552 1089.6 48.16 1089.08 47.616C1088.55 47.072 1088.28 46.384 1088.28 45.552C1088.28 44.496 1088.71 43.64 1089.56 42.984C1090.42 42.328 1091.55 42 1092.94 42C1093.77 42 1094.56 42.136 1095.32 42.408C1096.07 42.664 1096.72 43.032 1097.26 43.512L1096.52 45.216C1095.36 44.304 1094.17 43.848 1092.94 43.848C1092.2 43.848 1091.62 43.992 1091.19 44.28C1090.77 44.568 1090.56 44.96 1090.56 45.456C1090.56 45.856 1090.69 46.184 1090.95 46.44C1091.22 46.68 1091.64 46.864 1092.22 46.992L1094.21 47.448C1095.35 47.704 1096.18 48.104 1096.71 48.648C1097.24 49.176 1097.5 49.872 1097.5 50.736C1097.5 51.792 1097.07 52.632 1096.2 53.256C1095.36 53.864 1094.2 54.168 1092.75 54.168Z" fill="black"/>
<rect x="945.904" y="140.904" width="245.192" height="63.75" rx="2" fill="black"/>
<rect x="941" y="136" width="255" height="73.5577" rx="2" stroke="#AB2727" stroke-width="2"/>
<path d="M1045.02 168.288H1048.23V170.16H1045.02V180H1042.59V170.16H1040.31V168.288H1042.59V168.072C1042.59 166.456 1043 165.24 1043.82 164.424C1044.65 163.608 1045.91 163.152 1047.61 163.056L1048.69 163.008L1048.83 164.832L1047.73 164.904C1046.77 164.952 1046.07 165.2 1045.64 165.648C1045.23 166.096 1045.02 166.776 1045.02 167.688V168.288ZM1055.02 180.168C1053.87 180.168 1052.86 179.92 1051.98 179.424C1051.11 178.928 1050.44 178.224 1049.96 177.312C1049.5 176.384 1049.26 175.312 1049.26 174.096C1049.26 172.864 1049.5 171.792 1049.96 170.88C1050.44 169.952 1051.11 169.24 1051.98 168.744C1052.86 168.248 1053.87 168 1055.02 168C1056.18 168 1057.18 168.248 1058.05 168.744C1058.93 169.24 1059.6 169.952 1060.06 170.88C1060.54 171.792 1060.78 172.864 1060.78 174.096C1060.78 175.312 1060.54 176.384 1060.06 177.312C1059.6 178.224 1058.93 178.928 1058.05 179.424C1057.18 179.92 1056.18 180.168 1055.02 180.168ZM1055.02 178.248C1056.1 178.248 1056.91 177.896 1057.47 177.192C1058.05 176.488 1058.34 175.456 1058.34 174.096C1058.34 172.752 1058.05 171.728 1057.47 171.024C1056.9 170.304 1056.08 169.944 1055.02 169.944C1053.97 169.944 1053.15 170.304 1052.58 171.024C1052 171.728 1051.71 172.752 1051.71 174.096C1051.71 175.456 1051.99 176.488 1052.55 177.192C1053.13 177.896 1053.95 178.248 1055.02 178.248ZM1068.62 180.168C1067.44 180.168 1066.4 179.92 1065.52 179.424C1064.66 178.928 1063.99 178.232 1063.51 177.336C1063.04 176.424 1062.81 175.36 1062.81 174.144C1062.81 172.928 1063.05 171.856 1063.53 170.928C1064.03 170 1064.72 169.28 1065.6 168.768C1066.49 168.256 1067.53 168 1068.72 168C1069.53 168 1070.32 168.136 1071.07 168.408C1071.84 168.68 1072.46 169.048 1072.94 169.512L1072.2 171.24C1071.14 170.376 1070.04 169.944 1068.91 169.944C1067.79 169.944 1066.91 170.312 1066.27 171.048C1065.64 171.768 1065.33 172.792 1065.33 174.12C1065.33 175.432 1065.64 176.448 1066.27 177.168C1066.89 177.872 1067.77 178.224 1068.91 178.224C1070.04 178.224 1071.14 177.792 1072.2 176.928L1072.94 178.68C1072.43 179.144 1071.79 179.512 1071.02 179.784C1070.25 180.04 1069.45 180.168 1068.62 180.168ZM1085.36 168.288V180H1083V178.104C1082.64 178.776 1082.12 179.288 1081.47 179.64C1080.83 179.992 1080.11 180.168 1079.31 180.168C1076.46 180.168 1075.04 178.6 1075.04 175.464V168.288H1077.46V175.44C1077.46 176.384 1077.65 177.08 1078.04 177.528C1078.42 177.976 1079.01 178.2 1079.81 178.2C1080.76 178.2 1081.51 177.896 1082.07 177.288C1082.64 176.68 1082.93 175.872 1082.93 174.864V168.288H1085.36ZM1092.88 180.168C1090.84 180.168 1089.22 179.672 1088 178.68L1088.75 176.928C1089.95 177.856 1091.35 178.32 1092.95 178.32C1093.73 178.32 1094.33 178.192 1094.75 177.936C1095.16 177.664 1095.37 177.288 1095.37 176.808C1095.37 176.392 1095.23 176.064 1094.94 175.824C1094.67 175.584 1094.19 175.384 1093.5 175.224L1091.56 174.792C1090.52 174.552 1089.73 174.16 1089.2 173.616C1088.68 173.072 1088.41 172.384 1088.41 171.552C1088.41 170.496 1088.84 169.64 1089.68 168.984C1090.55 168.328 1091.68 168 1093.07 168C1093.9 168 1094.69 168.136 1095.44 168.408C1096.2 168.664 1096.84 169.032 1097.39 169.512L1096.64 171.216C1095.49 170.304 1094.3 169.848 1093.07 169.848C1092.33 169.848 1091.75 169.992 1091.32 170.28C1090.9 170.568 1090.69 170.96 1090.69 171.456C1090.69 171.856 1090.82 172.184 1091.08 172.44C1091.35 172.68 1091.77 172.864 1092.35 172.992L1094.34 173.448C1095.48 173.704 1096.31 174.104 1096.84 174.648C1097.36 175.176 1097.63 175.872 1097.63 176.736C1097.63 177.792 1097.2 178.632 1096.33 179.256C1095.48 179.864 1094.33 180.168 1092.88 180.168Z" fill="white"/>
<rect x="651" y="14" width="250" height="65" rx="2" fill="#F7B42F"/>
<path d="M753.863 41C756.663 41 758.063 42.576 758.063 45.728V53H755.639V45.848C755.639 44.856 755.439 44.128 755.039 43.664C754.655 43.2 754.047 42.968 753.215 42.968C752.239 42.968 751.455 43.272 750.863 43.88C750.271 44.488 749.975 45.304 749.975 46.328V53H747.551V36.08H749.975V43.064C750.375 42.392 750.911 41.88 751.583 41.528C752.255 41.176 753.015 41 753.863 41ZM766.467 53.168C765.315 53.168 764.299 52.92 763.419 52.424C762.555 51.928 761.883 51.224 761.403 50.312C760.939 49.384 760.707 48.312 760.707 47.096C760.707 45.864 760.939 44.792 761.403 43.88C761.883 42.952 762.555 42.24 763.419 41.744C764.299 41.248 765.315 41 766.467 41C767.619 41 768.627 41.248 769.491 41.744C770.371 42.24 771.043 42.952 771.507 43.88C771.987 44.792 772.227 45.864 772.227 47.096C772.227 48.312 771.987 49.384 771.507 50.312C771.043 51.224 770.371 51.928 769.491 52.424C768.627 52.92 767.619 53.168 766.467 53.168ZM766.467 51.248C767.539 51.248 768.355 50.896 768.915 50.192C769.491 49.488 769.779 48.456 769.779 47.096C769.779 45.752 769.491 44.728 768.915 44.024C768.339 43.304 767.523 42.944 766.467 42.944C765.411 42.944 764.595 43.304 764.019 44.024C763.443 44.728 763.155 45.752 763.155 47.096C763.155 48.456 763.435 49.488 763.995 50.192C764.571 50.896 765.395 51.248 766.467 51.248ZM783.066 41.312H785.49L780.402 53H778.218L773.178 41.312H775.722L779.37 50.264L783.066 41.312ZM797.099 47.552H788.819C788.995 50.032 790.227 51.272 792.515 51.272C793.859 51.272 795.075 50.832 796.163 49.952L796.907 51.656C796.363 52.12 795.691 52.488 794.891 52.76C794.091 53.032 793.275 53.168 792.443 53.168C790.571 53.168 789.091 52.632 788.003 51.56C786.931 50.488 786.395 49.008 786.395 47.12C786.395 45.92 786.627 44.856 787.091 43.928C787.571 43 788.235 42.28 789.083 41.768C789.947 41.256 790.923 41 792.011 41C793.595 41 794.835 41.512 795.731 42.536C796.643 43.56 797.099 44.976 797.099 46.784V47.552ZM792.059 42.776C791.131 42.776 790.387 43.072 789.827 43.664C789.283 44.24 788.955 45.072 788.843 46.16H795.011C794.963 45.072 794.683 44.24 794.171 43.664C793.675 43.072 792.971 42.776 792.059 42.776ZM806.898 43.04L805.434 43.184C804.282 43.296 803.45 43.648 802.938 44.24C802.442 44.832 802.194 45.584 802.194 46.496V53H799.77V41.288H802.122V43.328C802.746 41.952 804.018 41.192 805.938 41.048L806.73 41L806.898 43.04Z" fill="black"/>
<rect x="651" y="140" width="250" height="65" rx="2" fill="#7A7582"/>
<path d="M754.113 167C756.913 167 758.313 168.576 758.313 171.728V179H755.889V171.848C755.889 170.856 755.689 170.128 755.289 169.664C754.905 169.2 754.297 168.968 753.465 168.968C752.489 168.968 751.705 169.272 751.113 169.88C750.521 170.488 750.225 171.304 750.225 172.328V179H747.801V162.08H750.225V169.064C750.625 168.392 751.161 167.88 751.833 167.528C752.505 167.176 753.265 167 754.113 167ZM766.717 179.168C765.565 179.168 764.549 178.92 763.669 178.424C762.805 177.928 762.133 177.224 761.653 176.312C761.189 175.384 760.957 174.312 760.957 173.096C760.957 171.864 761.189 170.792 761.653 169.88C762.133 168.952 762.805 168.24 763.669 167.744C764.549 167.248 765.565 167 766.717 167C767.869 167 768.877 167.248 769.741 167.744C770.621 168.24 771.293 168.952 771.757 169.88C772.237 170.792 772.477 171.864 772.477 173.096C772.477 174.312 772.237 175.384 771.757 176.312C771.293 177.224 770.621 177.928 769.741 178.424C768.877 178.92 767.869 179.168 766.717 179.168ZM766.717 177.248C767.789 177.248 768.605 176.896 769.165 176.192C769.741 175.488 770.029 174.456 770.029 173.096C770.029 171.752 769.741 170.728 769.165 170.024C768.589 169.304 767.773 168.944 766.717 168.944C765.661 168.944 764.845 169.304 764.269 170.024C763.693 170.728 763.405 171.752 763.405 173.096C763.405 174.456 763.685 175.488 764.245 176.192C764.821 176.896 765.645 177.248 766.717 177.248ZM783.316 167.312H785.74L780.652 179H778.468L773.428 167.312H775.972L779.62 176.264L783.316 167.312ZM797.349 173.552H789.069C789.245 176.032 790.477 177.272 792.765 177.272C794.109 177.272 795.325 176.832 796.413 175.952L797.157 177.656C796.613 178.12 795.941 178.488 795.141 178.76C794.341 179.032 793.525 179.168 792.693 179.168C790.821 179.168 789.341 178.632 788.253 177.56C787.181 176.488 786.645 175.008 786.645 173.12C786.645 171.92 786.877 170.856 787.341 169.928C787.821 169 788.485 168.28 789.333 167.768C790.197 167.256 791.173 167 792.261 167C793.845 167 795.085 167.512 795.981 168.536C796.893 169.56 797.349 170.976 797.349 172.784V173.552ZM792.309 168.776C791.381 168.776 790.637 169.072 790.077 169.664C789.533 170.24 789.205 171.072 789.093 172.16H795.261C795.213 171.072 794.933 170.24 794.421 169.664C793.925 169.072 793.221 168.776 792.309 168.776ZM807.148 169.04L805.684 169.184C804.532 169.296 803.7 169.648 803.188 170.24C802.692 170.832 802.444 171.584 802.444 172.496V179H800.02V167.288H802.372V169.328C802.996 167.952 804.268 167.192 806.188 167.048L806.98 167L807.148 169.04Z" fill="white"/>
<path d="M85.9985 49.692V58H83.007V35.7885H89.5635C90.9688 35.7885 92.1882 35.9538 93.2215 36.2845C94.2652 36.6048 95.128 37.0647 95.81 37.664C96.492 38.2633 96.9983 38.9867 97.329 39.834C97.67 40.6813 97.8405 41.6268 97.8405 42.6705C97.8405 43.7038 97.6597 44.6493 97.298 45.507C96.9363 46.3647 96.4042 47.1035 95.7015 47.7235C95.0092 48.3435 94.1463 48.8292 93.113 49.1805C92.0797 49.5215 90.8965 49.692 89.5635 49.692H85.9985ZM85.9985 47.305H89.5635C90.4212 47.305 91.1755 47.1913 91.8265 46.964C92.4878 46.7367 93.0407 46.4215 93.485 46.0185C93.9293 45.6052 94.2652 45.1143 94.4925 44.546C94.7198 43.9777 94.8335 43.3525 94.8335 42.6705C94.8335 41.2548 94.3943 40.1492 93.516 39.3535C92.648 38.5578 91.3305 38.16 89.5635 38.16H85.9985V47.305ZM101.214 58V42.2985H102.795C103.095 42.2985 103.302 42.3553 103.415 42.469C103.529 42.5827 103.606 42.779 103.648 43.058L103.834 45.507C104.371 44.4117 105.032 43.5592 105.818 42.9495C106.613 42.3295 107.543 42.0195 108.608 42.0195C109.042 42.0195 109.434 42.0712 109.786 42.1745C110.137 42.2675 110.463 42.4018 110.762 42.5775L110.406 44.639C110.333 44.8973 110.173 45.0265 109.925 45.0265C109.781 45.0265 109.558 44.98 109.259 44.887C108.959 44.7837 108.541 44.732 108.003 44.732C107.042 44.732 106.236 45.011 105.585 45.569C104.945 46.127 104.407 46.9382 103.973 48.0025V58H101.214ZM116.786 42.2985V58H114.027V42.2985H116.786ZM117.406 37.3695C117.406 37.6382 117.349 37.8913 117.236 38.129C117.132 38.3563 116.988 38.563 116.802 38.749C116.626 38.9247 116.419 39.0642 116.182 39.1675C115.944 39.2708 115.691 39.3225 115.422 39.3225C115.153 39.3225 114.9 39.2708 114.663 39.1675C114.435 39.0642 114.229 38.9247 114.043 38.749C113.867 38.563 113.727 38.3563 113.624 38.129C113.521 37.8913 113.469 37.6382 113.469 37.3695C113.469 37.1008 113.521 36.8477 113.624 36.61C113.727 36.362 113.867 36.1502 114.043 35.9745C114.229 35.7885 114.435 35.6438 114.663 35.5405C114.9 35.4372 115.153 35.3855 115.422 35.3855C115.691 35.3855 115.944 35.4372 116.182 35.5405C116.419 35.6438 116.626 35.7885 116.802 35.9745C116.988 36.1502 117.132 36.362 117.236 36.61C117.349 36.8477 117.406 37.1008 117.406 37.3695ZM121.649 58V42.2985H123.292C123.684 42.2985 123.932 42.4897 124.036 42.872L124.237 44.484C124.816 43.771 125.462 43.1872 126.175 42.7325C126.898 42.2778 127.735 42.0505 128.686 42.0505C129.75 42.0505 130.608 42.345 131.259 42.934C131.92 43.523 132.395 44.3187 132.685 45.321C132.902 44.7527 133.186 44.2618 133.537 43.8485C133.899 43.4352 134.302 43.0942 134.746 42.8255C135.191 42.5568 135.661 42.3605 136.157 42.2365C136.663 42.1125 137.175 42.0505 137.691 42.0505C138.518 42.0505 139.252 42.1848 139.892 42.4535C140.543 42.7118 141.091 43.0942 141.535 43.6005C141.99 44.1068 142.336 44.732 142.574 45.476C142.811 46.2097 142.93 47.0518 142.93 48.0025V58H140.171V48.0025C140.171 46.7728 139.903 45.8428 139.365 45.2125C138.828 44.5718 138.048 44.2515 137.025 44.2515C136.57 44.2515 136.136 44.3342 135.723 44.4995C135.32 44.6545 134.963 44.887 134.653 45.197C134.343 45.507 134.095 45.8997 133.909 46.375C133.734 46.84 133.646 47.3825 133.646 48.0025V58H130.887V48.0025C130.887 46.7418 130.634 45.8015 130.127 45.1815C129.621 44.5615 128.882 44.2515 127.911 44.2515C127.229 44.2515 126.593 44.4375 126.004 44.8095C125.426 45.1712 124.893 45.6672 124.408 46.2975V58H121.649ZM158.641 58H157.416C157.148 58 156.931 57.9587 156.765 57.876C156.6 57.7933 156.491 57.6177 156.44 57.349L156.13 55.892C155.716 56.264 155.313 56.5998 154.921 56.8995C154.528 57.1888 154.115 57.4368 153.681 57.6435C153.247 57.8398 152.782 57.9897 152.286 58.093C151.8 58.1963 151.258 58.248 150.658 58.248C150.049 58.248 149.475 58.1653 148.938 58C148.411 57.8243 147.951 57.566 147.558 57.225C147.166 56.884 146.85 56.4552 146.613 55.9385C146.385 55.4115 146.272 54.7915 146.272 54.0785C146.272 53.4585 146.442 52.8643 146.783 52.296C147.124 51.7173 147.672 51.2058 148.426 50.7615C149.191 50.3172 150.188 49.9555 151.418 49.6765C152.647 49.3872 154.151 49.2218 155.928 49.1805V47.956C155.928 46.7367 155.665 45.817 155.138 45.197C154.621 44.5667 153.851 44.2515 152.828 44.2515C152.157 44.2515 151.588 44.3393 151.123 44.515C150.669 44.6803 150.271 44.8715 149.93 45.0885C149.599 45.2952 149.31 45.4863 149.062 45.662C148.824 45.8273 148.586 45.91 148.349 45.91C148.163 45.91 147.997 45.8635 147.853 45.7705C147.718 45.6672 147.61 45.5432 147.527 45.3985L147.031 44.515C147.899 43.678 148.834 43.0528 149.837 42.6395C150.839 42.2262 151.95 42.0195 153.169 42.0195C154.048 42.0195 154.828 42.1642 155.51 42.4535C156.192 42.7428 156.765 43.1458 157.23 43.6625C157.695 44.1792 158.047 44.8043 158.284 45.538C158.522 46.2717 158.641 47.0777 158.641 47.956V58ZM151.48 56.3105C151.965 56.3105 152.41 56.264 152.813 56.171C153.216 56.0677 153.593 55.9282 153.944 55.7525C154.306 55.5665 154.647 55.3443 154.967 55.086C155.298 54.8277 155.618 54.5332 155.928 54.2025V50.932C154.657 50.9733 153.577 51.0767 152.689 51.242C151.8 51.397 151.077 51.6037 150.519 51.862C149.961 52.1203 149.553 52.4252 149.294 52.7765C149.046 53.1278 148.922 53.5205 148.922 53.9545C148.922 54.3678 148.989 54.7243 149.124 55.024C149.258 55.3237 149.439 55.5717 149.666 55.768C149.894 55.954 150.162 56.0935 150.472 56.1865C150.782 56.2692 151.118 56.3105 151.48 56.3105ZM162.821 58V42.2985H164.402C164.701 42.2985 164.908 42.3553 165.022 42.469C165.135 42.5827 165.213 42.779 165.254 43.058L165.44 45.507C165.977 44.4117 166.639 43.5592 167.424 42.9495C168.22 42.3295 169.15 42.0195 170.214 42.0195C170.648 42.0195 171.041 42.0712 171.392 42.1745C171.743 42.2675 172.069 42.4018 172.369 42.5775L172.012 44.639C171.94 44.8973 171.78 45.0265 171.532 45.0265C171.387 45.0265 171.165 44.98 170.865 44.887C170.565 44.7837 170.147 44.732 169.61 44.732C168.649 44.732 167.843 45.011 167.192 45.569C166.551 46.127 166.014 46.9382 165.58 48.0025V58H162.821ZM179.927 62.6345C179.834 62.8412 179.715 63.0065 179.571 63.1305C179.436 63.2545 179.224 63.3165 178.935 63.3165H176.889L179.757 57.0855L173.278 42.2985H175.665C175.902 42.2985 176.088 42.3605 176.223 42.4845C176.357 42.5982 176.455 42.7273 176.517 42.872L180.718 52.761C180.811 52.9883 180.888 53.2157 180.95 53.443C181.022 53.6703 181.084 53.9028 181.136 54.1405C181.208 53.9028 181.281 53.6703 181.353 53.443C181.425 53.2157 181.508 52.9832 181.601 52.7455L185.678 42.872C185.74 42.7067 185.843 42.5723 185.988 42.469C186.143 42.3553 186.308 42.2985 186.484 42.2985H188.685L179.927 62.6345Z" fill="black"/>
<path d="M86.262 310H83.255V287.788H86.262V310ZM91.7689 310V294.298H93.4119C93.8045 294.298 94.0525 294.49 94.1559 294.872L94.3729 296.577C95.0549 295.823 95.8144 295.213 96.6514 294.748C97.4987 294.283 98.4752 294.05 99.5809 294.05C100.439 294.05 101.193 294.195 101.844 294.484C102.505 294.763 103.053 295.166 103.487 295.693C103.931 296.21 104.267 296.835 104.494 297.569C104.722 298.303 104.835 299.114 104.835 300.002V310H102.076V300.002C102.076 298.814 101.803 297.894 101.255 297.243C100.718 296.582 99.8909 296.251 98.7749 296.251C97.9585 296.251 97.1939 296.448 96.4809 296.84C95.7782 297.233 95.1272 297.765 94.5279 298.437V310H91.7689ZM120.526 310H119.302C119.033 310 118.816 309.959 118.651 309.876C118.486 309.793 118.377 309.618 118.325 309.349L118.015 307.892C117.602 308.264 117.199 308.6 116.806 308.899C116.414 309.189 116 309.437 115.566 309.643C115.132 309.84 114.667 309.99 114.171 310.093C113.686 310.196 113.143 310.248 112.544 310.248C111.934 310.248 111.361 310.165 110.823 310C110.296 309.824 109.837 309.566 109.444 309.225C109.051 308.884 108.736 308.455 108.498 307.938C108.271 307.411 108.157 306.791 108.157 306.078C108.157 305.458 108.328 304.864 108.669 304.296C109.01 303.717 109.558 303.206 110.312 302.761C111.077 302.317 112.074 301.955 113.303 301.676C114.533 301.387 116.037 301.222 117.814 301.18V299.956C117.814 298.737 117.55 297.817 117.023 297.197C116.507 296.567 115.737 296.251 114.714 296.251C114.042 296.251 113.474 296.339 113.009 296.515C112.554 296.68 112.156 296.871 111.815 297.088C111.485 297.295 111.195 297.486 110.947 297.662C110.71 297.827 110.472 297.91 110.234 297.91C110.048 297.91 109.883 297.863 109.738 297.77C109.604 297.667 109.496 297.543 109.413 297.398L108.917 296.515C109.785 295.678 110.72 295.053 111.722 294.639C112.725 294.226 113.836 294.019 115.055 294.019C115.933 294.019 116.713 294.164 117.395 294.453C118.077 294.743 118.651 295.146 119.116 295.662C119.581 296.179 119.932 296.804 120.17 297.538C120.408 298.272 120.526 299.078 120.526 299.956V310ZM113.365 308.31C113.851 308.31 114.295 308.264 114.698 308.171C115.101 308.068 115.479 307.928 115.83 307.752C116.192 307.566 116.533 307.344 116.853 307.086C117.184 306.828 117.504 306.533 117.814 306.202V302.932C116.543 302.973 115.463 303.077 114.574 303.242C113.686 303.397 112.962 303.604 112.404 303.862C111.846 304.12 111.438 304.425 111.18 304.776C110.932 305.128 110.808 305.52 110.808 305.954C110.808 306.368 110.875 306.724 111.009 307.024C111.144 307.324 111.325 307.572 111.552 307.768C111.779 307.954 112.048 308.093 112.358 308.186C112.668 308.269 113.004 308.31 113.365 308.31ZM135.417 297.088C135.334 297.202 135.252 297.29 135.169 297.352C135.086 297.414 134.967 297.445 134.812 297.445C134.657 297.445 134.487 297.383 134.301 297.259C134.125 297.125 133.898 296.98 133.619 296.825C133.34 296.67 132.999 296.53 132.596 296.406C132.203 296.272 131.718 296.205 131.139 296.205C130.374 296.205 129.697 296.344 129.108 296.623C128.519 296.892 128.023 297.285 127.62 297.801C127.228 298.318 126.928 298.943 126.721 299.677C126.525 300.411 126.427 301.232 126.427 302.141C126.427 303.092 126.535 303.939 126.752 304.683C126.969 305.417 127.274 306.037 127.667 306.543C128.06 307.039 128.535 307.422 129.093 307.69C129.661 307.949 130.297 308.078 130.999 308.078C131.671 308.078 132.224 308 132.658 307.845C133.092 307.68 133.454 307.499 133.743 307.303C134.032 307.107 134.27 306.931 134.456 306.776C134.642 306.611 134.828 306.528 135.014 306.528C135.252 306.528 135.427 306.616 135.541 306.791L136.316 307.799C135.634 308.636 134.781 309.251 133.758 309.643C132.735 310.026 131.656 310.217 130.519 310.217C129.537 310.217 128.623 310.036 127.775 309.674C126.938 309.313 126.21 308.791 125.59 308.109C124.97 307.417 124.479 306.569 124.117 305.567C123.766 304.565 123.59 303.423 123.59 302.141C123.59 300.974 123.751 299.894 124.071 298.902C124.402 297.91 124.877 297.057 125.497 296.344C126.127 295.621 126.902 295.058 127.822 294.655C128.742 294.252 129.796 294.05 130.984 294.05C132.079 294.05 133.051 294.231 133.898 294.593C134.745 294.944 135.494 295.445 136.145 296.096L135.417 297.088ZM143.936 310.248C142.696 310.248 141.74 309.902 141.068 309.209C140.407 308.517 140.076 307.52 140.076 306.218V296.608H138.185C138.02 296.608 137.88 296.561 137.767 296.468C137.653 296.365 137.596 296.21 137.596 296.003V294.903L140.169 294.577L140.805 289.726C140.825 289.571 140.892 289.447 141.006 289.354C141.12 289.251 141.264 289.199 141.44 289.199H142.835V294.608H147.33V296.608H142.835V306.032C142.835 306.693 142.995 307.184 143.316 307.504C143.636 307.825 144.049 307.985 144.556 307.985C144.845 307.985 145.093 307.949 145.3 307.876C145.517 307.794 145.703 307.706 145.858 307.613C146.013 307.52 146.142 307.437 146.245 307.365C146.359 307.282 146.457 307.241 146.54 307.241C146.684 307.241 146.813 307.329 146.927 307.504L147.733 308.822C147.258 309.266 146.684 309.618 146.013 309.876C145.341 310.124 144.649 310.248 143.936 310.248ZM153.811 294.298V310H151.052V294.298H153.811ZM154.431 289.369C154.431 289.638 154.374 289.891 154.26 290.129C154.157 290.356 154.012 290.563 153.826 290.749C153.65 290.925 153.444 291.064 153.206 291.167C152.968 291.271 152.715 291.322 152.447 291.322C152.178 291.322 151.925 291.271 151.687 291.167C151.46 291.064 151.253 290.925 151.067 290.749C150.891 290.563 150.752 290.356 150.649 290.129C150.545 289.891 150.494 289.638 150.494 289.369C150.494 289.101 150.545 288.848 150.649 288.61C150.752 288.362 150.891 288.15 151.067 287.974C151.253 287.788 151.46 287.644 151.687 287.54C151.925 287.437 152.178 287.385 152.447 287.385C152.715 287.385 152.968 287.437 153.206 287.54C153.444 287.644 153.65 287.788 153.826 287.974C154.012 288.15 154.157 288.362 154.26 288.61C154.374 288.848 154.431 289.101 154.431 289.369ZM156.689 294.298H158.952C159.169 294.298 159.35 294.355 159.495 294.469C159.639 294.583 159.743 294.717 159.805 294.872L163.788 304.978C163.933 305.35 164.046 305.722 164.129 306.094C164.212 306.466 164.289 306.833 164.362 307.194C164.444 306.833 164.532 306.466 164.625 306.094C164.718 305.722 164.837 305.35 164.982 304.978L169.012 294.872C169.074 294.707 169.172 294.572 169.306 294.469C169.451 294.355 169.626 294.298 169.833 294.298H171.988L165.586 310H163.091L156.689 294.298ZM180.358 294.05C181.299 294.05 182.167 294.211 182.962 294.531C183.758 294.841 184.445 295.296 185.024 295.895C185.603 296.484 186.052 297.218 186.372 298.096C186.703 298.964 186.868 299.956 186.868 301.072C186.868 301.506 186.822 301.795 186.729 301.94C186.636 302.085 186.46 302.157 186.202 302.157H175.755C175.776 303.149 175.91 304.012 176.158 304.745C176.406 305.479 176.747 306.094 177.181 306.59C177.615 307.076 178.132 307.442 178.731 307.69C179.33 307.928 180.002 308.047 180.746 308.047C181.438 308.047 182.032 307.969 182.528 307.814C183.035 307.649 183.469 307.473 183.83 307.287C184.192 307.101 184.492 306.931 184.729 306.776C184.977 306.611 185.189 306.528 185.365 306.528C185.592 306.528 185.768 306.616 185.892 306.791L186.667 307.799C186.326 308.212 185.918 308.574 185.442 308.884C184.967 309.184 184.456 309.432 183.908 309.628C183.371 309.824 182.813 309.969 182.234 310.062C181.655 310.165 181.082 310.217 180.513 310.217C179.428 310.217 178.426 310.036 177.506 309.674C176.597 309.302 175.807 308.765 175.135 308.062C174.474 307.349 173.957 306.471 173.585 305.427C173.213 304.384 173.027 303.185 173.027 301.831C173.027 300.736 173.192 299.713 173.523 298.762C173.864 297.812 174.35 296.99 174.98 296.298C175.61 295.595 176.38 295.048 177.289 294.655C178.199 294.252 179.222 294.05 180.358 294.05ZM180.42 296.081C179.087 296.081 178.039 296.468 177.274 297.243C176.509 298.008 176.034 299.072 175.848 300.436H184.388C184.388 299.796 184.301 299.212 184.125 298.685C183.949 298.148 183.691 297.688 183.35 297.305C183.009 296.913 182.59 296.613 182.094 296.406C181.609 296.189 181.051 296.081 180.42 296.081Z" fill="black"/>
<path d="M94.074 165.26C93.981 165.415 93.8828 165.534 93.7795 165.617C93.6762 165.689 93.5418 165.725 93.3765 165.725C93.2008 165.725 92.9942 165.638 92.7565 165.462C92.5292 165.286 92.2347 165.095 91.873 164.888C91.5217 164.671 91.0928 164.475 90.5865 164.299C90.0905 164.124 89.486 164.036 88.773 164.036C88.1013 164.036 87.5072 164.129 86.9905 164.315C86.4738 164.491 86.0398 164.733 85.6885 165.043C85.3475 165.353 85.0892 165.72 84.9135 166.144C84.7378 166.557 84.65 167.007 84.65 167.492C84.65 168.112 84.7998 168.629 85.0995 169.042C85.4095 169.445 85.8125 169.792 86.3085 170.081C86.8148 170.37 87.3832 170.623 88.0135 170.84C88.6542 171.047 89.3052 171.264 89.9665 171.491C90.6382 171.719 91.2892 171.977 91.9195 172.266C92.5602 172.545 93.1285 172.902 93.6245 173.336C94.1308 173.77 94.5338 174.302 94.8335 174.932C95.1435 175.563 95.2985 176.338 95.2985 177.257C95.2985 178.229 95.1332 179.143 94.8025 180.001C94.4718 180.848 93.9862 181.587 93.3455 182.217C92.7152 182.848 91.935 183.344 91.005 183.705C90.0853 184.067 89.0365 184.248 87.8585 184.248C86.4222 184.248 85.1098 183.99 83.9215 183.473C82.7435 182.946 81.736 182.238 80.899 181.349L81.767 179.923C81.8497 179.81 81.9478 179.717 82.0615 179.644C82.1855 179.562 82.3198 179.52 82.4645 179.52C82.6815 179.52 82.9295 179.639 83.2085 179.877C83.4875 180.104 83.8337 180.357 84.247 180.636C84.6707 180.915 85.177 181.174 85.766 181.411C86.3653 181.639 87.0938 181.752 87.9515 181.752C88.6645 181.752 89.3 181.654 89.858 181.458C90.416 181.262 90.8862 180.988 91.2685 180.636C91.6612 180.275 91.9608 179.846 92.1675 179.35C92.3742 178.854 92.4775 178.301 92.4775 177.691C92.4775 177.02 92.3225 176.472 92.0125 176.048C91.7128 175.614 91.315 175.253 90.819 174.963C90.323 174.674 89.7547 174.431 89.114 174.235C88.4837 174.028 87.8327 173.822 87.161 173.615C86.4997 173.398 85.8487 173.15 85.208 172.871C84.5777 172.592 84.0145 172.23 83.5185 171.786C83.0225 171.342 82.6195 170.789 82.3095 170.127C82.0098 169.456 81.86 168.629 81.86 167.647C81.86 166.862 82.0098 166.103 82.3095 165.369C82.6195 164.635 83.0638 163.984 83.6425 163.416C84.2212 162.848 84.9342 162.393 85.7815 162.052C86.6392 161.711 87.6208 161.54 88.7265 161.54C89.9665 161.54 91.098 161.737 92.121 162.129C93.144 162.522 94.0378 163.09 94.8025 163.834L94.074 165.26ZM104.917 168.05C105.857 168.05 106.725 168.211 107.521 168.531C108.317 168.841 109.004 169.296 109.582 169.895C110.161 170.484 110.611 171.218 110.931 172.096C111.262 172.964 111.427 173.956 111.427 175.072C111.427 175.506 111.38 175.795 111.287 175.94C111.194 176.085 111.019 176.157 110.76 176.157H100.313C100.334 177.149 100.468 178.012 100.716 178.745C100.964 179.479 101.305 180.094 101.739 180.59C102.173 181.076 102.69 181.442 103.289 181.69C103.889 181.928 104.56 182.047 105.304 182.047C105.997 182.047 106.591 181.969 107.087 181.814C107.593 181.649 108.027 181.473 108.389 181.287C108.751 181.101 109.05 180.931 109.288 180.776C109.536 180.611 109.748 180.528 109.923 180.528C110.151 180.528 110.326 180.616 110.45 180.791L111.225 181.799C110.884 182.212 110.476 182.574 110.001 182.884C109.526 183.184 109.014 183.432 108.466 183.628C107.929 183.824 107.371 183.969 106.792 184.062C106.214 184.165 105.64 184.217 105.072 184.217C103.987 184.217 102.985 184.036 102.065 183.674C101.156 183.302 100.365 182.765 99.6935 182.062C99.0321 181.349 98.5155 180.471 98.1435 179.427C97.7715 178.384 97.5855 177.185 97.5855 175.831C97.5855 174.736 97.7508 173.713 98.0815 172.762C98.4225 171.812 98.9081 170.99 99.5385 170.298C100.169 169.595 100.939 169.048 101.848 168.655C102.757 168.252 103.78 168.05 104.917 168.05ZM104.979 170.081C103.646 170.081 102.597 170.468 101.832 171.243C101.068 172.008 100.592 173.072 100.406 174.436H108.947C108.947 173.796 108.859 173.212 108.683 172.685C108.508 172.148 108.249 171.688 107.908 171.305C107.567 170.913 107.149 170.613 106.653 170.406C106.167 170.189 105.609 170.081 104.979 170.081ZM125.669 171.088C125.586 171.202 125.503 171.29 125.421 171.352C125.338 171.414 125.219 171.445 125.064 171.445C124.909 171.445 124.739 171.383 124.553 171.259C124.377 171.125 124.15 170.98 123.871 170.825C123.592 170.67 123.251 170.53 122.848 170.406C122.455 170.272 121.969 170.205 121.391 170.205C120.626 170.205 119.949 170.344 119.36 170.623C118.771 170.892 118.275 171.285 117.872 171.801C117.48 172.318 117.18 172.943 116.973 173.677C116.777 174.411 116.679 175.232 116.679 176.141C116.679 177.092 116.787 177.939 117.004 178.683C117.221 179.417 117.526 180.037 117.919 180.543C118.311 181.039 118.787 181.422 119.345 181.69C119.913 181.949 120.549 182.078 121.251 182.078C121.923 182.078 122.476 182 122.91 181.845C123.344 181.68 123.705 181.499 123.995 181.303C124.284 181.107 124.522 180.931 124.708 180.776C124.894 180.611 125.08 180.528 125.266 180.528C125.503 180.528 125.679 180.616 125.793 180.791L126.568 181.799C125.886 182.636 125.033 183.251 124.01 183.643C122.987 184.026 121.907 184.217 120.771 184.217C119.789 184.217 118.875 184.036 118.027 183.674C117.19 183.313 116.462 182.791 115.842 182.109C115.222 181.417 114.731 180.569 114.369 179.567C114.018 178.565 113.842 177.423 113.842 176.141C113.842 174.974 114.002 173.894 114.323 172.902C114.653 171.91 115.129 171.057 115.749 170.344C116.379 169.621 117.154 169.058 118.074 168.655C118.993 168.252 120.047 168.05 121.236 168.05C122.331 168.05 123.302 168.231 124.15 168.593C124.997 168.944 125.746 169.445 126.397 170.096L125.669 171.088ZM135.784 168.05C136.931 168.05 137.964 168.242 138.884 168.624C139.814 169.006 140.599 169.549 141.24 170.251C141.891 170.954 142.387 171.807 142.728 172.809C143.079 173.801 143.255 174.912 143.255 176.141C143.255 177.381 143.079 178.497 142.728 179.489C142.387 180.481 141.891 181.329 141.24 182.031C140.599 182.734 139.814 183.277 138.884 183.659C137.964 184.031 136.931 184.217 135.784 184.217C134.637 184.217 133.599 184.031 132.669 183.659C131.749 183.277 130.964 182.734 130.313 182.031C129.662 181.329 129.16 180.481 128.809 179.489C128.458 178.497 128.282 177.381 128.282 176.141C128.282 174.912 128.458 173.801 128.809 172.809C129.16 171.807 129.662 170.954 130.313 170.251C130.964 169.549 131.749 169.006 132.669 168.624C133.599 168.242 134.637 168.05 135.784 168.05ZM135.784 182.062C137.334 182.062 138.491 181.546 139.256 180.512C140.021 179.469 140.403 178.017 140.403 176.157C140.403 174.287 140.021 172.83 139.256 171.786C138.491 170.742 137.334 170.22 135.784 170.22C134.999 170.22 134.317 170.355 133.738 170.623C133.159 170.892 132.674 171.28 132.281 171.786C131.899 172.292 131.609 172.917 131.413 173.661C131.227 174.395 131.134 175.227 131.134 176.157C131.134 177.087 131.227 177.919 131.413 178.652C131.609 179.386 131.899 180.006 132.281 180.512C132.674 181.008 133.159 181.391 133.738 181.659C134.317 181.928 134.999 182.062 135.784 182.062ZM146.655 184V168.298H148.298C148.69 168.298 148.938 168.49 149.042 168.872L149.259 170.577C149.941 169.823 150.7 169.213 151.537 168.748C152.384 168.283 153.361 168.05 154.467 168.05C155.324 168.05 156.079 168.195 156.73 168.484C157.391 168.763 157.939 169.166 158.373 169.693C158.817 170.21 159.153 170.835 159.38 171.569C159.607 172.303 159.721 173.114 159.721 174.002V184H156.962V174.002C156.962 172.814 156.688 171.894 156.141 171.243C155.603 170.582 154.777 170.251 153.661 170.251C152.844 170.251 152.08 170.448 151.367 170.84C150.664 171.233 150.013 171.765 149.414 172.437V184H146.655ZM174.932 184C174.539 184 174.291 183.809 174.188 183.426L173.94 181.52C173.268 182.336 172.498 182.992 171.63 183.489C170.773 183.974 169.786 184.217 168.67 184.217C167.771 184.217 166.954 184.046 166.221 183.705C165.487 183.354 164.862 182.843 164.345 182.171C163.829 181.499 163.431 180.662 163.152 179.66C162.873 178.658 162.733 177.505 162.733 176.203C162.733 175.046 162.888 173.971 163.198 172.979C163.508 171.977 163.953 171.109 164.531 170.375C165.12 169.642 165.833 169.068 166.67 168.655C167.507 168.231 168.458 168.019 169.522 168.019C170.483 168.019 171.305 168.185 171.987 168.515C172.669 168.836 173.278 169.29 173.816 169.879V161.168H176.575V184H174.932ZM169.584 181.985C170.483 181.985 171.269 181.778 171.94 181.365C172.622 180.952 173.247 180.368 173.816 179.613V172.018C173.309 171.336 172.751 170.861 172.142 170.592C171.542 170.313 170.876 170.174 170.142 170.174C168.675 170.174 167.549 170.696 166.763 171.739C165.978 172.783 165.585 174.271 165.585 176.203C165.585 177.226 165.673 178.105 165.849 178.838C166.024 179.562 166.283 180.161 166.624 180.636C166.965 181.101 167.383 181.442 167.879 181.659C168.375 181.876 168.944 181.985 169.584 181.985ZM192.729 184H191.504C191.235 184 191.018 183.959 190.853 183.876C190.688 183.793 190.579 183.618 190.528 183.349L190.218 181.892C189.804 182.264 189.401 182.6 189.009 182.899C188.616 183.189 188.203 183.437 187.769 183.643C187.335 183.84 186.87 183.99 186.374 184.093C185.888 184.196 185.345 184.248 184.746 184.248C184.136 184.248 183.563 184.165 183.026 184C182.499 183.824 182.039 183.566 181.646 183.225C181.253 182.884 180.938 182.455 180.701 181.938C180.473 181.411 180.36 180.791 180.36 180.078C180.36 179.458 180.53 178.864 180.871 178.296C181.212 177.717 181.76 177.206 182.514 176.761C183.279 176.317 184.276 175.955 185.506 175.676C186.735 175.387 188.239 175.222 190.016 175.18V173.956C190.016 172.737 189.753 171.817 189.226 171.197C188.709 170.567 187.939 170.251 186.916 170.251C186.244 170.251 185.676 170.339 185.211 170.515C184.756 170.68 184.359 170.871 184.018 171.088C183.687 171.295 183.398 171.486 183.15 171.662C182.912 171.827 182.674 171.91 182.437 171.91C182.251 171.91 182.085 171.863 181.941 171.77C181.806 171.667 181.698 171.543 181.615 171.398L181.119 170.515C181.987 169.678 182.922 169.053 183.925 168.639C184.927 168.226 186.038 168.019 187.257 168.019C188.135 168.019 188.916 168.164 189.598 168.453C190.28 168.743 190.853 169.146 191.318 169.662C191.783 170.179 192.134 170.804 192.372 171.538C192.61 172.272 192.729 173.078 192.729 173.956V184ZM185.568 182.31C186.053 182.31 186.498 182.264 186.901 182.171C187.304 182.068 187.681 181.928 188.032 181.752C188.394 181.566 188.735 181.344 189.055 181.086C189.386 180.828 189.706 180.533 190.016 180.202V176.932C188.745 176.973 187.665 177.077 186.777 177.242C185.888 177.397 185.165 177.604 184.607 177.862C184.049 178.12 183.64 178.425 183.382 178.776C183.134 179.128 183.01 179.52 183.01 179.954C183.01 180.368 183.077 180.724 183.212 181.024C183.346 181.324 183.527 181.572 183.754 181.768C183.981 181.954 184.25 182.093 184.56 182.186C184.87 182.269 185.206 182.31 185.568 182.31ZM196.909 184V168.298H198.49C198.789 168.298 198.996 168.355 199.11 168.469C199.223 168.583 199.301 168.779 199.342 169.058L199.528 171.507C200.065 170.412 200.727 169.559 201.512 168.949C202.308 168.329 203.238 168.019 204.302 168.019C204.736 168.019 205.129 168.071 205.48 168.174C205.831 168.267 206.157 168.402 206.457 168.577L206.1 170.639C206.028 170.897 205.868 171.026 205.62 171.026C205.475 171.026 205.253 170.98 204.953 170.887C204.653 170.784 204.235 170.732 203.698 170.732C202.737 170.732 201.931 171.011 201.28 171.569C200.639 172.127 200.102 172.938 199.668 174.002V184H196.909ZM214.015 188.635C213.922 188.841 213.803 189.007 213.658 189.131C213.524 189.255 213.312 189.317 213.023 189.317H210.977L213.844 183.085L207.365 168.298H209.752C209.99 168.298 210.176 168.36 210.31 168.484C210.445 168.598 210.543 168.727 210.605 168.872L214.805 178.761C214.898 178.988 214.976 179.216 215.038 179.443C215.11 179.67 215.172 179.903 215.224 180.14C215.296 179.903 215.369 179.67 215.441 179.443C215.513 179.216 215.596 178.983 215.689 178.745L219.765 168.872C219.827 168.707 219.931 168.572 220.075 168.469C220.23 168.355 220.396 168.298 220.571 168.298H222.772L214.015 188.635Z" fill="black"/>
<rect x="361" y="140" width="250" height="65" rx="2" fill="black"/>
<path d="M460.439 167C462.007 167 463.167 167.392 463.919 168.176C464.687 168.96 465.071 170.152 465.071 171.752V179H462.743V177.056C462.439 177.744 461.983 178.272 461.375 178.64C460.783 178.992 460.087 179.168 459.287 179.168C458.519 179.168 457.815 179.016 457.175 178.712C456.535 178.392 456.031 177.952 455.663 177.392C455.311 176.832 455.135 176.208 455.135 175.52C455.135 174.672 455.351 174.008 455.783 173.528C456.231 173.032 456.959 172.68 457.967 172.472C458.991 172.264 460.391 172.16 462.167 172.16H462.719V171.464C462.719 170.568 462.527 169.92 462.143 169.52C461.775 169.12 461.167 168.92 460.319 168.92C458.991 168.92 457.663 169.328 456.335 170.144L455.615 168.44C456.239 168.008 456.991 167.664 457.871 167.408C458.767 167.136 459.623 167 460.439 167ZM459.719 177.368C460.599 177.368 461.319 177.072 461.879 176.48C462.439 175.872 462.719 175.096 462.719 174.152V173.528H462.287C461.039 173.528 460.079 173.584 459.407 173.696C458.735 173.808 458.255 174 457.967 174.272C457.679 174.528 457.535 174.904 457.535 175.4C457.535 175.96 457.735 176.432 458.135 176.816C458.551 177.184 459.079 177.368 459.719 177.368ZM473.523 179.168C472.339 179.168 471.307 178.92 470.427 178.424C469.563 177.928 468.891 177.232 468.411 176.336C467.947 175.424 467.715 174.36 467.715 173.144C467.715 171.928 467.955 170.856 468.435 169.928C468.931 169 469.619 168.28 470.499 167.768C471.395 167.256 472.435 167 473.619 167C474.435 167 475.219 167.136 475.971 167.408C476.739 167.68 477.363 168.048 477.843 168.512L477.099 170.24C476.043 169.376 474.947 168.944 473.811 168.944C472.691 168.944 471.811 169.312 471.171 170.048C470.547 170.768 470.235 171.792 470.235 173.12C470.235 174.432 470.547 175.448 471.171 176.168C471.795 176.872 472.675 177.224 473.811 177.224C474.947 177.224 476.043 176.792 477.099 175.928L477.843 177.68C477.331 178.144 476.691 178.512 475.923 178.784C475.155 179.04 474.355 179.168 473.523 179.168ZM485.579 177.296C485.947 177.296 486.307 177.272 486.659 177.224L486.539 179.072C486.139 179.136 485.723 179.168 485.291 179.168C483.771 179.168 482.635 178.8 481.883 178.064C481.147 177.312 480.779 176.232 480.779 174.824V169.16H478.499V167.288H480.779V163.76H483.203V167.288H486.419V169.16H483.203V174.728C483.203 176.44 483.995 177.296 485.579 177.296ZM488.496 179V167.288H490.92V179H488.496ZM488.328 162.056H491.112V164.576H488.328V162.056ZM502.613 167.312H505.037L499.949 179H497.765L492.725 167.312H495.269L498.917 176.264L502.613 167.312ZM516.646 173.552H508.366C508.542 176.032 509.774 177.272 512.062 177.272C513.406 177.272 514.622 176.832 515.71 175.952L516.454 177.656C515.91 178.12 515.238 178.488 514.438 178.76C513.638 179.032 512.822 179.168 511.99 179.168C510.118 179.168 508.638 178.632 507.55 177.56C506.478 176.488 505.942 175.008 505.942 173.12C505.942 171.92 506.174 170.856 506.638 169.928C507.118 169 507.782 168.28 508.63 167.768C509.494 167.256 510.47 167 511.558 167C513.142 167 514.382 167.512 515.278 168.536C516.19 169.56 516.646 170.976 516.646 172.784V173.552ZM511.606 168.776C510.678 168.776 509.934 169.072 509.374 169.664C508.83 170.24 508.502 171.072 508.39 172.16H514.558C514.51 171.072 514.23 170.24 513.718 169.664C513.222 169.072 512.518 168.776 511.606 168.776Z" fill="white"/>
</svg>
