<svg width="1200" height="711" viewBox="0 0 1200 711" fill="none" xmlns="http://www.w3.org/2000/svg">
<rect width="1200" height="711" fill="white"/>
<rect x="530" y="696" width="110" height="110" rx="55" transform="rotate(-90 530 696)" fill="#F3EFEB"/>
<g filter="url(#filter0_d)">
<rect x="390" y="696" width="110" height="110" rx="55" transform="rotate(-90 390 696)" fill="white"/>
</g>
<rect x="670" y="696" width="110" height="110" rx="55" transform="rotate(-90 670 696)" fill="#9C9AAA"/>
<rect x="950" y="696" width="110" height="110" rx="55" transform="rotate(-90 950 696)" fill="#38363D"/>
<rect x="634" y="220" width="210" height="210" rx="105" transform="rotate(-90 634 220)" fill="#FCD2D4"/>
<rect x="1090" y="696" width="110" height="110" rx="55" transform="rotate(-90 1090 696)" fill="black"/>
<rect x="810" y="696" width="110" height="110" rx="55" transform="rotate(-90 810 696)" fill="#5C5863"/>
<rect x="770" y="480" width="130" height="130" rx="65" transform="rotate(-90 770 480)" fill="#597263"/>
<rect x="374" y="220" width="210" height="210" rx="105" transform="rotate(-90 374 220)" fill="#FFCA5F"/>
<rect x="390" y="480" width="130" height="130" rx="65" transform="rotate(-90 390 480)" fill="#FEE7C1"/>
<rect x="580" y="480" width="130" height="130" rx="65" transform="rotate(-90 580 480)" fill="#502A39"/>
<path d="M92.195 650.885C92.775 650.885 93.305 650.86 93.785 650.81C94.275 650.75 94.735 650.665 95.165 650.555C95.595 650.445 96 650.315 96.38 650.165C96.76 650.005 97.14 649.825 97.52 649.625V644.885H94.19C94 644.885 93.845 644.83 93.725 644.72C93.615 644.61 93.56 644.475 93.56 644.315V642.665H100.16V650.915C99.62 651.305 99.055 651.645 98.465 651.935C97.885 652.225 97.26 652.47 96.59 652.67C95.93 652.86 95.22 653 94.46 653.09C93.7 653.19 92.875 653.24 91.985 653.24C90.425 653.24 88.995 652.975 87.695 652.445C86.395 651.905 85.275 651.155 84.335 650.195C83.395 649.225 82.66 648.065 82.13 646.715C81.61 645.365 81.35 643.88 81.35 642.26C81.35 640.62 81.605 639.125 82.115 637.775C82.635 636.425 83.37 635.27 84.32 634.31C85.28 633.34 86.435 632.59 87.785 632.06C89.145 631.53 90.665 631.265 92.345 631.265C93.195 631.265 93.985 631.33 94.715 631.46C95.445 631.58 96.12 631.76 96.74 632C97.37 632.23 97.95 632.515 98.48 632.855C99.01 633.185 99.505 633.56 99.965 633.98L99.14 635.3C98.97 635.57 98.75 635.705 98.48 635.705C98.32 635.705 98.145 635.65 97.955 635.54C97.705 635.4 97.425 635.23 97.115 635.03C96.805 634.83 96.425 634.64 95.975 634.46C95.535 634.27 95.01 634.11 94.4 633.98C93.8 633.85 93.085 633.785 92.255 633.785C91.045 633.785 89.95 633.985 88.97 634.385C87.99 634.775 87.155 635.34 86.465 636.08C85.775 636.81 85.245 637.7 84.875 638.75C84.505 639.79 84.32 640.96 84.32 642.26C84.32 643.62 84.51 644.835 84.89 645.905C85.28 646.965 85.825 647.865 86.525 648.605C87.225 649.345 88.055 649.91 89.015 650.3C89.975 650.69 91.035 650.885 92.195 650.885ZM104.221 653V637.805H105.751C106.041 637.805 106.241 637.86 106.351 637.97C106.461 638.08 106.536 638.27 106.576 638.54L106.756 640.91C107.276 639.85 107.916 639.025 108.676 638.435C109.446 637.835 110.346 637.535 111.376 637.535C111.796 637.535 112.176 637.585 112.516 637.685C112.856 637.775 113.171 637.905 113.461 638.075L113.116 640.07C113.046 640.32 112.891 640.445 112.651 640.445C112.511 640.445 112.296 640.4 112.006 640.31C111.716 640.21 111.311 640.16 110.791 640.16C109.861 640.16 109.081 640.43 108.451 640.97C107.831 641.51 107.311 642.295 106.891 643.325V653H104.221ZM122.336 637.565C123.246 637.565 124.086 637.72 124.856 638.03C125.626 638.33 126.291 638.77 126.851 639.35C127.411 639.92 127.846 640.63 128.156 641.48C128.476 642.32 128.636 643.28 128.636 644.36C128.636 644.78 128.591 645.06 128.501 645.2C128.411 645.34 128.241 645.41 127.991 645.41H117.881C117.901 646.37 118.031 647.205 118.271 647.915C118.511 648.625 118.841 649.22 119.261 649.7C119.681 650.17 120.181 650.525 120.761 650.765C121.341 650.995 121.991 651.11 122.711 651.11C123.381 651.11 123.956 651.035 124.436 650.885C124.926 650.725 125.346 650.555 125.696 650.375C126.046 650.195 126.336 650.03 126.566 649.88C126.806 649.72 127.011 649.64 127.181 649.64C127.401 649.64 127.571 649.725 127.691 649.895L128.441 650.87C128.111 651.27 127.716 651.62 127.256 651.92C126.796 652.21 126.301 652.45 125.771 652.64C125.251 652.83 124.711 652.97 124.151 653.06C123.591 653.16 123.036 653.21 122.486 653.21C121.436 653.21 120.466 653.035 119.576 652.685C118.696 652.325 117.931 651.805 117.281 651.125C116.641 650.435 116.141 649.585 115.781 648.575C115.421 647.565 115.241 646.405 115.241 645.095C115.241 644.035 115.401 643.045 115.721 642.125C116.051 641.205 116.521 640.41 117.131 639.74C117.741 639.06 118.486 638.53 119.366 638.15C120.246 637.76 121.236 637.565 122.336 637.565ZM122.396 639.53C121.106 639.53 120.091 639.905 119.351 640.655C118.611 641.395 118.151 642.425 117.971 643.745H126.236C126.236 643.125 126.151 642.56 125.981 642.05C125.811 641.53 125.561 641.085 125.231 640.715C124.901 640.335 124.496 640.045 124.016 639.845C123.546 639.635 123.006 639.53 122.396 639.53ZM136.127 657.485C136.037 657.685 135.922 657.845 135.782 657.965C135.652 658.085 135.447 658.145 135.167 658.145H133.187L135.962 652.115L129.692 637.805H132.002C132.232 637.805 132.412 637.865 132.542 637.985C132.672 638.095 132.767 638.22 132.827 638.36L136.892 647.93C136.982 648.15 137.057 648.37 137.117 648.59C137.187 648.81 137.247 649.035 137.297 649.265C137.367 649.035 137.437 648.81 137.507 648.59C137.577 648.37 137.657 648.145 137.747 647.915L141.692 638.36C141.752 638.2 141.852 638.07 141.992 637.97C142.142 637.86 142.302 637.805 142.472 637.805H144.602L136.127 657.485ZM161.525 640.31C161.405 640.53 161.22 640.64 160.97 640.64C160.82 640.64 160.65 640.585 160.46 640.475C160.27 640.365 160.035 640.245 159.755 640.115C159.485 639.975 159.16 639.85 158.78 639.74C158.4 639.62 157.95 639.56 157.43 639.56C156.98 639.56 156.575 639.62 156.215 639.74C155.855 639.85 155.545 640.005 155.285 640.205C155.035 640.405 154.84 640.64 154.7 640.91C154.57 641.17 154.505 641.455 154.505 641.765C154.505 642.155 154.615 642.48 154.835 642.74C155.065 643 155.365 643.225 155.735 643.415C156.105 643.605 156.525 643.775 156.995 643.925C157.465 644.065 157.945 644.22 158.435 644.39C158.935 644.55 159.42 644.73 159.89 644.93C160.36 645.13 160.78 645.38 161.15 645.68C161.52 645.98 161.815 646.35 162.035 646.79C162.265 647.22 162.38 647.74 162.38 648.35C162.38 649.05 162.255 649.7 162.005 650.3C161.755 650.89 161.385 651.405 160.895 651.845C160.405 652.275 159.805 652.615 159.095 652.865C158.385 653.115 157.565 653.24 156.635 653.24C155.575 653.24 154.615 653.07 153.755 652.73C152.895 652.38 152.165 651.935 151.565 651.395L152.195 650.375C152.275 650.245 152.37 650.145 152.48 650.075C152.59 650.005 152.735 649.97 152.915 649.97C153.095 649.97 153.285 650.04 153.485 650.18C153.685 650.32 153.925 650.475 154.205 650.645C154.495 650.815 154.84 650.97 155.24 651.11C155.65 651.25 156.16 651.32 156.77 651.32C157.29 651.32 157.745 651.255 158.135 651.125C158.525 650.985 158.85 650.8 159.11 650.57C159.37 650.34 159.56 650.075 159.68 649.775C159.81 649.475 159.875 649.155 159.875 648.815C159.875 648.395 159.76 648.05 159.53 647.78C159.31 647.5 159.015 647.265 158.645 647.075C158.275 646.875 157.85 646.705 157.37 646.565C156.9 646.415 156.415 646.26 155.915 646.1C155.425 645.94 154.94 645.76 154.46 645.56C153.99 645.35 153.57 645.09 153.2 644.78C152.83 644.47 152.53 644.09 152.3 643.64C152.08 643.18 151.97 642.625 151.97 641.975C151.97 641.395 152.09 640.84 152.33 640.31C152.57 639.77 152.92 639.3 153.38 638.9C153.84 638.49 154.405 638.165 155.075 637.925C155.745 637.685 156.51 637.565 157.37 637.565C158.37 637.565 159.265 637.725 160.055 638.045C160.855 638.355 161.545 638.785 162.125 639.335L161.525 640.31ZM165.833 653V630.905H168.503V639.845C169.153 639.155 169.873 638.605 170.663 638.195C171.453 637.775 172.363 637.565 173.393 637.565C174.223 637.565 174.953 637.705 175.583 637.985C176.223 638.255 176.753 638.645 177.173 639.155C177.603 639.655 177.928 640.26 178.148 640.97C178.368 641.68 178.478 642.465 178.478 643.325V653H175.808V643.325C175.808 642.175 175.543 641.285 175.013 640.655C174.493 640.015 173.693 639.695 172.613 639.695C171.823 639.695 171.083 639.885 170.393 640.265C169.713 640.645 169.083 641.16 168.503 641.81V653H165.833ZM193.663 653H192.478C192.218 653 192.008 652.96 191.848 652.88C191.688 652.8 191.583 652.63 191.533 652.37L191.233 650.96C190.833 651.32 190.443 651.645 190.063 651.935C189.683 652.215 189.283 652.455 188.863 652.655C188.443 652.845 187.993 652.99 187.513 653.09C187.043 653.19 186.518 653.24 185.938 653.24C185.348 653.24 184.793 653.16 184.272 653C183.763 652.83 183.318 652.58 182.938 652.25C182.558 651.92 182.253 651.505 182.023 651.005C181.803 650.495 181.693 649.895 181.693 649.205C181.693 648.605 181.858 648.03 182.188 647.48C182.518 646.92 183.048 646.425 183.778 645.995C184.518 645.565 185.483 645.215 186.673 644.945C187.863 644.665 189.318 644.505 191.038 644.465V643.28C191.038 642.1 190.783 641.21 190.273 640.61C189.773 640 189.028 639.695 188.038 639.695C187.388 639.695 186.838 639.78 186.388 639.95C185.948 640.11 185.563 640.295 185.233 640.505C184.913 640.705 184.633 640.89 184.393 641.06C184.163 641.22 183.933 641.3 183.703 641.3C183.523 641.3 183.363 641.255 183.223 641.165C183.093 641.065 182.988 640.945 182.908 640.805L182.428 639.95C183.268 639.14 184.173 638.535 185.143 638.135C186.113 637.735 187.188 637.535 188.368 637.535C189.218 637.535 189.973 637.675 190.633 637.955C191.293 638.235 191.848 638.625 192.298 639.125C192.748 639.625 193.088 640.23 193.318 640.94C193.548 641.65 193.663 642.43 193.663 643.28V653ZM186.733 651.365C187.203 651.365 187.633 651.32 188.022 651.23C188.413 651.13 188.778 650.995 189.118 650.825C189.468 650.645 189.798 650.43 190.108 650.18C190.428 649.93 190.738 649.645 191.038 649.325V646.16C189.808 646.2 188.763 646.3 187.903 646.46C187.043 646.61 186.343 646.81 185.803 647.06C185.263 647.31 184.868 647.605 184.618 647.945C184.378 648.285 184.258 648.665 184.258 649.085C184.258 649.485 184.323 649.83 184.453 650.12C184.583 650.41 184.758 650.65 184.978 650.84C185.198 651.02 185.458 651.155 185.758 651.245C186.058 651.325 186.383 651.365 186.733 651.365ZM208.403 653C208.023 653 207.783 652.815 207.683 652.445L207.443 650.6C206.793 651.39 206.048 652.025 205.208 652.505C204.378 652.975 203.423 653.21 202.343 653.21C201.473 653.21 200.683 653.045 199.973 652.715C199.263 652.375 198.658 651.88 198.158 651.23C197.658 650.58 197.273 649.77 197.003 648.8C196.733 647.83 196.598 646.715 196.598 645.455C196.598 644.335 196.748 643.295 197.048 642.335C197.348 641.365 197.778 640.525 198.338 639.815C198.908 639.105 199.598 638.55 200.408 638.15C201.218 637.74 202.138 637.535 203.168 637.535C204.098 637.535 204.893 637.695 205.553 638.015C206.213 638.325 206.803 638.765 207.323 639.335V630.905H209.993V653H208.403ZM203.228 651.05C204.098 651.05 204.858 650.85 205.508 650.45C206.168 650.05 206.773 649.485 207.323 648.755V641.405C206.833 640.745 206.293 640.285 205.703 640.025C205.123 639.755 204.478 639.62 203.768 639.62C202.348 639.62 201.258 640.125 200.498 641.135C199.738 642.145 199.358 643.585 199.358 645.455C199.358 646.445 199.443 647.295 199.613 648.005C199.783 648.705 200.033 649.285 200.363 649.745C200.693 650.195 201.098 650.525 201.578 650.735C202.058 650.945 202.608 651.05 203.228 651.05ZM220.48 637.565C221.39 637.565 222.23 637.72 223 638.03C223.77 638.33 224.435 638.77 224.995 639.35C225.555 639.92 225.99 640.63 226.3 641.48C226.62 642.32 226.78 643.28 226.78 644.36C226.78 644.78 226.735 645.06 226.645 645.2C226.555 645.34 226.385 645.41 226.135 645.41H216.025C216.045 646.37 216.175 647.205 216.415 647.915C216.655 648.625 216.985 649.22 217.405 649.7C217.825 650.17 218.325 650.525 218.905 650.765C219.485 650.995 220.135 651.11 220.855 651.11C221.525 651.11 222.1 651.035 222.58 650.885C223.07 650.725 223.49 650.555 223.84 650.375C224.19 650.195 224.48 650.03 224.71 649.88C224.95 649.72 225.155 649.64 225.325 649.64C225.545 649.64 225.715 649.725 225.835 649.895L226.585 650.87C226.255 651.27 225.86 651.62 225.4 651.92C224.94 652.21 224.445 652.45 223.915 652.64C223.395 652.83 222.855 652.97 222.295 653.06C221.735 653.16 221.18 653.21 220.63 653.21C219.58 653.21 218.61 653.035 217.72 652.685C216.84 652.325 216.075 651.805 215.425 651.125C214.785 650.435 214.285 649.585 213.925 648.575C213.565 647.565 213.385 646.405 213.385 645.095C213.385 644.035 213.545 643.045 213.865 642.125C214.195 641.205 214.665 640.41 215.275 639.74C215.885 639.06 216.63 638.53 217.51 638.15C218.39 637.76 219.38 637.565 220.48 637.565ZM220.54 639.53C219.25 639.53 218.235 639.905 217.495 640.655C216.755 641.395 216.295 642.425 216.115 643.745H224.38C224.38 643.125 224.295 642.56 224.125 642.05C223.955 641.53 223.705 641.085 223.375 640.715C223.045 640.335 222.64 640.045 222.16 639.845C221.69 639.635 221.15 639.53 220.54 639.53ZM238.898 640.31C238.778 640.53 238.593 640.64 238.343 640.64C238.193 640.64 238.023 640.585 237.833 640.475C237.643 640.365 237.408 640.245 237.128 640.115C236.858 639.975 236.533 639.85 236.153 639.74C235.773 639.62 235.323 639.56 234.803 639.56C234.353 639.56 233.948 639.62 233.588 639.74C233.228 639.85 232.918 640.005 232.658 640.205C232.408 640.405 232.213 640.64 232.073 640.91C231.943 641.17 231.878 641.455 231.878 641.765C231.878 642.155 231.988 642.48 232.208 642.74C232.438 643 232.738 643.225 233.108 643.415C233.478 643.605 233.898 643.775 234.368 643.925C234.838 644.065 235.318 644.22 235.808 644.39C236.308 644.55 236.793 644.73 237.263 644.93C237.733 645.13 238.153 645.38 238.523 645.68C238.893 645.98 239.188 646.35 239.408 646.79C239.638 647.22 239.753 647.74 239.753 648.35C239.753 649.05 239.628 649.7 239.378 650.3C239.128 650.89 238.758 651.405 238.268 651.845C237.778 652.275 237.178 652.615 236.468 652.865C235.758 653.115 234.938 653.24 234.008 653.24C232.948 653.24 231.988 653.07 231.128 652.73C230.268 652.38 229.538 651.935 228.938 651.395L229.568 650.375C229.648 650.245 229.743 650.145 229.853 650.075C229.963 650.005 230.108 649.97 230.288 649.97C230.468 649.97 230.658 650.04 230.858 650.18C231.058 650.32 231.298 650.475 231.578 650.645C231.868 650.815 232.213 650.97 232.613 651.11C233.023 651.25 233.533 651.32 234.143 651.32C234.663 651.32 235.118 651.255 235.508 651.125C235.898 650.985 236.223 650.8 236.483 650.57C236.743 650.34 236.933 650.075 237.053 649.775C237.183 649.475 237.248 649.155 237.248 648.815C237.248 648.395 237.133 648.05 236.903 647.78C236.683 647.5 236.388 647.265 236.018 647.075C235.648 646.875 235.223 646.705 234.743 646.565C234.273 646.415 233.788 646.26 233.288 646.1C232.798 645.94 232.313 645.76 231.833 645.56C231.363 645.35 230.943 645.09 230.573 644.78C230.203 644.47 229.903 644.09 229.673 643.64C229.453 643.18 229.343 642.625 229.343 641.975C229.343 641.395 229.463 640.84 229.703 640.31C229.943 639.77 230.293 639.3 230.753 638.9C231.213 638.49 231.778 638.165 232.448 637.925C233.118 637.685 233.883 637.565 234.743 637.565C235.743 637.565 236.638 637.725 237.428 638.045C238.228 638.355 238.918 638.785 239.498 639.335L238.898 640.31Z" fill="black"/>
<path d="M80.21 105.505H82.625C82.885 105.505 83.1 105.57 83.27 105.7C83.44 105.83 83.555 105.995 83.615 106.195L88.055 121.135C88.135 121.405 88.205 121.695 88.265 122.005C88.335 122.315 88.4 122.64 88.46 122.98C88.53 122.64 88.6 122.315 88.67 122.005C88.74 121.685 88.82 121.395 88.91 121.135L93.965 106.195C94.025 106.025 94.14 105.87 94.31 105.73C94.49 105.58 94.705 105.505 94.955 105.505H95.795C96.055 105.505 96.265 105.57 96.425 105.7C96.595 105.83 96.715 105.995 96.785 106.195L101.81 121.135C101.99 121.655 102.15 122.25 102.29 122.92C102.35 122.59 102.405 122.275 102.455 121.975C102.505 121.675 102.57 121.395 102.65 121.135L107.105 106.195C107.155 106.015 107.265 105.855 107.435 105.715C107.615 105.575 107.83 105.505 108.08 105.505H110.345L103.64 127H101.03L95.585 110.605C95.475 110.295 95.375 109.935 95.285 109.525C95.235 109.725 95.185 109.92 95.135 110.11C95.095 110.29 95.05 110.455 95 110.605L89.525 127H86.915L80.21 105.505ZM115.717 111.805V127H113.047V111.805H115.717ZM116.317 107.035C116.317 107.295 116.262 107.54 116.152 107.77C116.052 107.99 115.912 108.19 115.732 108.37C115.562 108.54 115.362 108.675 115.132 108.775C114.902 108.875 114.657 108.925 114.397 108.925C114.137 108.925 113.892 108.875 113.662 108.775C113.442 108.675 113.242 108.54 113.062 108.37C112.892 108.19 112.757 107.99 112.657 107.77C112.557 107.54 112.507 107.295 112.507 107.035C112.507 106.775 112.557 106.53 112.657 106.3C112.757 106.06 112.892 105.855 113.062 105.685C113.242 105.505 113.442 105.365 113.662 105.265C113.892 105.165 114.137 105.115 114.397 105.115C114.657 105.115 114.902 105.165 115.132 105.265C115.362 105.365 115.562 105.505 115.732 105.685C115.912 105.855 116.052 106.06 116.152 106.3C116.262 106.53 116.317 106.775 116.317 107.035ZM120.422 127V111.805H122.012C122.392 111.805 122.632 111.99 122.732 112.36L122.942 114.01C123.602 113.28 124.337 112.69 125.147 112.24C125.967 111.79 126.912 111.565 127.982 111.565C128.812 111.565 129.542 111.705 130.172 111.985C130.812 112.255 131.342 112.645 131.762 113.155C132.192 113.655 132.517 114.26 132.737 114.97C132.957 115.68 133.067 116.465 133.067 117.325V127H130.397V117.325C130.397 116.175 130.132 115.285 129.602 114.655C129.082 114.015 128.282 113.695 127.202 113.695C126.412 113.695 125.672 113.885 124.982 114.265C124.302 114.645 123.672 115.16 123.092 115.81V127H120.422ZM143.107 111.565C144.017 111.565 144.857 111.72 145.627 112.03C146.397 112.33 147.062 112.77 147.622 113.35C148.182 113.92 148.617 114.63 148.927 115.48C149.247 116.32 149.407 117.28 149.407 118.36C149.407 118.78 149.362 119.06 149.272 119.2C149.182 119.34 149.012 119.41 148.762 119.41H138.652C138.672 120.37 138.802 121.205 139.042 121.915C139.282 122.625 139.612 123.22 140.032 123.7C140.452 124.17 140.952 124.525 141.532 124.765C142.112 124.995 142.762 125.11 143.482 125.11C144.152 125.11 144.727 125.035 145.207 124.885C145.697 124.725 146.117 124.555 146.467 124.375C146.817 124.195 147.107 124.03 147.337 123.88C147.577 123.72 147.782 123.64 147.952 123.64C148.172 123.64 148.342 123.725 148.462 123.895L149.212 124.87C148.882 125.27 148.487 125.62 148.027 125.92C147.567 126.21 147.072 126.45 146.542 126.64C146.022 126.83 145.482 126.97 144.922 127.06C144.362 127.16 143.807 127.21 143.257 127.21C142.207 127.21 141.237 127.035 140.347 126.685C139.467 126.325 138.702 125.805 138.052 125.125C137.412 124.435 136.912 123.585 136.552 122.575C136.192 121.565 136.012 120.405 136.012 119.095C136.012 118.035 136.172 117.045 136.492 116.125C136.822 115.205 137.292 114.41 137.902 113.74C138.512 113.06 139.257 112.53 140.137 112.15C141.017 111.76 142.007 111.565 143.107 111.565ZM143.167 113.53C141.877 113.53 140.862 113.905 140.122 114.655C139.382 115.395 138.922 116.425 138.742 117.745H147.007C147.007 117.125 146.922 116.56 146.752 116.05C146.582 115.53 146.332 115.085 146.002 114.715C145.672 114.335 145.267 114.045 144.787 113.845C144.317 113.635 143.777 113.53 143.167 113.53ZM167.326 114.31C167.206 114.53 167.021 114.64 166.771 114.64C166.621 114.64 166.451 114.585 166.261 114.475C166.071 114.365 165.836 114.245 165.556 114.115C165.286 113.975 164.961 113.85 164.581 113.74C164.201 113.62 163.751 113.56 163.231 113.56C162.781 113.56 162.376 113.62 162.016 113.74C161.656 113.85 161.346 114.005 161.086 114.205C160.836 114.405 160.641 114.64 160.501 114.91C160.371 115.17 160.306 115.455 160.306 115.765C160.306 116.155 160.416 116.48 160.636 116.74C160.866 117 161.166 117.225 161.536 117.415C161.906 117.605 162.326 117.775 162.796 117.925C163.266 118.065 163.746 118.22 164.236 118.39C164.736 118.55 165.221 118.73 165.691 118.93C166.161 119.13 166.581 119.38 166.951 119.68C167.321 119.98 167.616 120.35 167.836 120.79C168.066 121.22 168.181 121.74 168.181 122.35C168.181 123.05 168.056 123.7 167.806 124.3C167.556 124.89 167.186 125.405 166.696 125.845C166.206 126.275 165.606 126.615 164.896 126.865C164.186 127.115 163.366 127.24 162.436 127.24C161.376 127.24 160.416 127.07 159.556 126.73C158.696 126.38 157.966 125.935 157.366 125.395L157.996 124.375C158.076 124.245 158.171 124.145 158.281 124.075C158.391 124.005 158.536 123.97 158.716 123.97C158.896 123.97 159.086 124.04 159.286 124.18C159.486 124.32 159.726 124.475 160.006 124.645C160.296 124.815 160.641 124.97 161.041 125.11C161.451 125.25 161.961 125.32 162.571 125.32C163.091 125.32 163.546 125.255 163.936 125.125C164.326 124.985 164.651 124.8 164.911 124.57C165.171 124.34 165.361 124.075 165.481 123.775C165.611 123.475 165.676 123.155 165.676 122.815C165.676 122.395 165.561 122.05 165.331 121.78C165.111 121.5 164.816 121.265 164.446 121.075C164.076 120.875 163.651 120.705 163.171 120.565C162.701 120.415 162.216 120.26 161.716 120.1C161.226 119.94 160.741 119.76 160.261 119.56C159.791 119.35 159.371 119.09 159.001 118.78C158.631 118.47 158.331 118.09 158.101 117.64C157.881 117.18 157.771 116.625 157.771 115.975C157.771 115.395 157.891 114.84 158.131 114.31C158.371 113.77 158.721 113.3 159.181 112.9C159.641 112.49 160.206 112.165 160.876 111.925C161.546 111.685 162.311 111.565 163.171 111.565C164.171 111.565 165.066 111.725 165.856 112.045C166.656 112.355 167.346 112.785 167.926 113.335L167.326 114.31ZM171.633 127V104.905H174.303V113.845C174.953 113.155 175.673 112.605 176.463 112.195C177.253 111.775 178.163 111.565 179.193 111.565C180.023 111.565 180.753 111.705 181.383 111.985C182.023 112.255 182.553 112.645 182.973 113.155C183.403 113.655 183.728 114.26 183.948 114.97C184.168 115.68 184.278 116.465 184.278 117.325V127H181.608V117.325C181.608 116.175 181.343 115.285 180.813 114.655C180.293 114.015 179.493 113.695 178.413 113.695C177.623 113.695 176.883 113.885 176.193 114.265C175.513 114.645 174.883 115.16 174.303 115.81V127H171.633ZM199.463 127H198.278C198.018 127 197.808 126.96 197.648 126.88C197.488 126.8 197.383 126.63 197.333 126.37L197.033 124.96C196.633 125.32 196.243 125.645 195.863 125.935C195.483 126.215 195.083 126.455 194.663 126.655C194.243 126.845 193.793 126.99 193.313 127.09C192.843 127.19 192.318 127.24 191.738 127.24C191.148 127.24 190.593 127.16 190.073 127C189.563 126.83 189.118 126.58 188.738 126.25C188.358 125.92 188.053 125.505 187.823 125.005C187.603 124.495 187.493 123.895 187.493 123.205C187.493 122.605 187.658 122.03 187.988 121.48C188.318 120.92 188.848 120.425 189.578 119.995C190.318 119.565 191.283 119.215 192.473 118.945C193.663 118.665 195.118 118.505 196.838 118.465V117.28C196.838 116.1 196.583 115.21 196.073 114.61C195.573 114 194.828 113.695 193.838 113.695C193.188 113.695 192.638 113.78 192.188 113.95C191.748 114.11 191.363 114.295 191.033 114.505C190.713 114.705 190.433 114.89 190.193 115.06C189.963 115.22 189.733 115.3 189.503 115.3C189.323 115.3 189.163 115.255 189.023 115.165C188.893 115.065 188.788 114.945 188.708 114.805L188.228 113.95C189.068 113.14 189.973 112.535 190.943 112.135C191.913 111.735 192.988 111.535 194.168 111.535C195.018 111.535 195.773 111.675 196.433 111.955C197.093 112.235 197.648 112.625 198.098 113.125C198.548 113.625 198.888 114.23 199.118 114.94C199.348 115.65 199.463 116.43 199.463 117.28V127ZM192.533 125.365C193.003 125.365 193.433 125.32 193.823 125.23C194.213 125.13 194.578 124.995 194.918 124.825C195.268 124.645 195.598 124.43 195.908 124.18C196.228 123.93 196.538 123.645 196.838 123.325V120.16C195.608 120.2 194.563 120.3 193.703 120.46C192.843 120.61 192.143 120.81 191.603 121.06C191.063 121.31 190.668 121.605 190.418 121.945C190.178 122.285 190.058 122.665 190.058 123.085C190.058 123.485 190.123 123.83 190.253 124.12C190.383 124.41 190.558 124.65 190.778 124.84C190.998 125.02 191.258 125.155 191.558 125.245C191.858 125.325 192.183 125.365 192.533 125.365ZM214.203 127C213.823 127 213.583 126.815 213.483 126.445L213.243 124.6C212.593 125.39 211.848 126.025 211.008 126.505C210.178 126.975 209.223 127.21 208.143 127.21C207.273 127.21 206.483 127.045 205.773 126.715C205.063 126.375 204.458 125.88 203.958 125.23C203.458 124.58 203.073 123.77 202.803 122.8C202.533 121.83 202.398 120.715 202.398 119.455C202.398 118.335 202.548 117.295 202.848 116.335C203.148 115.365 203.578 114.525 204.138 113.815C204.708 113.105 205.398 112.55 206.208 112.15C207.018 111.74 207.938 111.535 208.968 111.535C209.898 111.535 210.693 111.695 211.353 112.015C212.013 112.325 212.603 112.765 213.123 113.335V104.905H215.793V127H214.203ZM209.028 125.05C209.898 125.05 210.658 124.85 211.308 124.45C211.968 124.05 212.573 123.485 213.123 122.755V115.405C212.633 114.745 212.093 114.285 211.503 114.025C210.923 113.755 210.278 113.62 209.568 113.62C208.148 113.62 207.058 114.125 206.298 115.135C205.538 116.145 205.158 117.585 205.158 119.455C205.158 120.445 205.243 121.295 205.413 122.005C205.583 122.705 205.833 123.285 206.163 123.745C206.493 124.195 206.898 124.525 207.378 124.735C207.858 124.945 208.408 125.05 209.028 125.05ZM226.281 111.565C227.191 111.565 228.031 111.72 228.801 112.03C229.571 112.33 230.236 112.77 230.796 113.35C231.356 113.92 231.791 114.63 232.101 115.48C232.421 116.32 232.581 117.28 232.581 118.36C232.581 118.78 232.536 119.06 232.446 119.2C232.356 119.34 232.186 119.41 231.936 119.41H221.826C221.846 120.37 221.976 121.205 222.216 121.915C222.456 122.625 222.786 123.22 223.206 123.7C223.626 124.17 224.126 124.525 224.706 124.765C225.286 124.995 225.936 125.11 226.656 125.11C227.326 125.11 227.901 125.035 228.381 124.885C228.871 124.725 229.291 124.555 229.641 124.375C229.991 124.195 230.281 124.03 230.511 123.88C230.751 123.72 230.956 123.64 231.126 123.64C231.346 123.64 231.516 123.725 231.636 123.895L232.386 124.87C232.056 125.27 231.661 125.62 231.201 125.92C230.741 126.21 230.246 126.45 229.716 126.64C229.196 126.83 228.656 126.97 228.096 127.06C227.536 127.16 226.981 127.21 226.431 127.21C225.381 127.21 224.411 127.035 223.521 126.685C222.641 126.325 221.876 125.805 221.226 125.125C220.586 124.435 220.086 123.585 219.726 122.575C219.366 121.565 219.186 120.405 219.186 119.095C219.186 118.035 219.346 117.045 219.666 116.125C219.996 115.205 220.466 114.41 221.076 113.74C221.686 113.06 222.431 112.53 223.311 112.15C224.191 111.76 225.181 111.565 226.281 111.565ZM226.341 113.53C225.051 113.53 224.036 113.905 223.296 114.655C222.556 115.395 222.096 116.425 221.916 117.745H230.181C230.181 117.125 230.096 116.56 229.926 116.05C229.756 115.53 229.506 115.085 229.176 114.715C228.846 114.335 228.441 114.045 227.961 113.845C227.491 113.635 226.951 113.53 226.341 113.53ZM244.699 114.31C244.579 114.53 244.394 114.64 244.144 114.64C243.994 114.64 243.824 114.585 243.634 114.475C243.444 114.365 243.209 114.245 242.929 114.115C242.659 113.975 242.334 113.85 241.954 113.74C241.574 113.62 241.124 113.56 240.604 113.56C240.154 113.56 239.749 113.62 239.389 113.74C239.029 113.85 238.719 114.005 238.459 114.205C238.209 114.405 238.014 114.64 237.874 114.91C237.744 115.17 237.679 115.455 237.679 115.765C237.679 116.155 237.789 116.48 238.009 116.74C238.239 117 238.539 117.225 238.909 117.415C239.279 117.605 239.699 117.775 240.169 117.925C240.639 118.065 241.119 118.22 241.609 118.39C242.109 118.55 242.594 118.73 243.064 118.93C243.534 119.13 243.954 119.38 244.324 119.68C244.694 119.98 244.989 120.35 245.209 120.79C245.439 121.22 245.554 121.74 245.554 122.35C245.554 123.05 245.429 123.7 245.179 124.3C244.929 124.89 244.559 125.405 244.069 125.845C243.579 126.275 242.979 126.615 242.269 126.865C241.559 127.115 240.739 127.24 239.809 127.24C238.749 127.24 237.789 127.07 236.929 126.73C236.069 126.38 235.339 125.935 234.739 125.395L235.369 124.375C235.449 124.245 235.544 124.145 235.654 124.075C235.764 124.005 235.909 123.97 236.089 123.97C236.269 123.97 236.459 124.04 236.659 124.18C236.859 124.32 237.099 124.475 237.379 124.645C237.669 124.815 238.014 124.97 238.414 125.11C238.824 125.25 239.334 125.32 239.944 125.32C240.464 125.32 240.919 125.255 241.309 125.125C241.699 124.985 242.024 124.8 242.284 124.57C242.544 124.34 242.734 124.075 242.854 123.775C242.984 123.475 243.049 123.155 243.049 122.815C243.049 122.395 242.934 122.05 242.704 121.78C242.484 121.5 242.189 121.265 241.819 121.075C241.449 120.875 241.024 120.705 240.544 120.565C240.074 120.415 239.589 120.26 239.089 120.1C238.599 119.94 238.114 119.76 237.634 119.56C237.164 119.35 236.744 119.09 236.374 118.78C236.004 118.47 235.704 118.09 235.474 117.64C235.254 117.18 235.144 116.625 235.144 115.975C235.144 115.395 235.264 114.84 235.504 114.31C235.744 113.77 236.094 113.3 236.554 112.9C237.014 112.49 237.579 112.165 238.249 111.925C238.919 111.685 239.684 111.565 240.544 111.565C241.544 111.565 242.439 111.725 243.229 112.045C244.029 112.355 244.719 112.785 245.299 113.335L244.699 114.31Z" fill="black"/>
<path d="M430.375 111.25H433.35L432.85 114.85H429.65V116.45H432.625L431.825 122.15L433.375 122.375L434.2 116.45H437.6L436.8 122.15L438.325 122.375L439.15 116.45H442.375V114.85H439.375L439.9 111.25H443.1V109.65H440.125L440.875 104.325L439.325 104.1L438.55 109.65H435.15L435.9 104.325L434.375 104.1L433.575 109.65H430.375V111.25ZM434.925 111.25H438.325L437.825 114.85H434.425L434.925 111.25ZM448.445 106.5H456.22V104.5H446.345V122H448.445V114.025H455.72V112.025H448.445V106.5ZM461.531 106.5H469.306V104.5H459.431V122H461.531V114.025H468.806V112.025H461.531V106.5ZM486.342 106.875C486.342 106.875 484.167 104.2 480.067 104.2C475.017 104.2 471.417 108.2 471.417 113.25C471.417 118.3 475.017 122.3 480.067 122.3C484.167 122.3 486.542 119.425 486.542 119.425L485.117 117.975C485.117 117.975 483.242 120.3 480.067 120.3C476.267 120.3 473.667 116.975 473.667 113.25C473.667 109.525 476.267 106.2 480.067 106.2C483.267 106.2 484.892 108.25 484.892 108.25L486.342 106.875ZM487.244 122H489.494L491.319 117.275H498.869L500.694 122H502.894L496.069 104.5H494.119L487.244 122ZM495.094 107.5L498.094 115.275H492.094L495.094 107.5ZM516.259 116.425C516.259 112.425 513.559 110.525 510.734 110.525C508.784 110.525 507.509 111.25 507.509 111.25V106.45H515.884V104.5H505.509V114.45C505.509 114.45 507.834 112.5 510.259 112.5C512.409 112.5 514.159 113.8 514.159 116.425C514.159 119 512.359 120.35 510.309 120.35C507.434 120.35 506.459 117.55 506.459 117.55L504.634 118.525C504.634 118.525 506.009 122.3 510.309 122.3C513.334 122.3 516.259 120.35 516.259 116.425ZM521.614 106.5H529.389V104.5H519.514V122H521.614V114.025H528.889V112.025H521.614V106.5Z" fill="black"/>
<path d="M408.183 412.25H411.158L410.658 415.85H407.458V417.45H410.433L409.633 423.15L411.183 423.375L412.008 417.45H415.408L414.608 423.15L416.133 423.375L416.958 417.45H420.183V415.85H417.183L417.708 412.25H420.908V410.65H417.933L418.683 405.325L417.133 405.1L416.358 410.65H412.958L413.708 405.325L412.183 405.1L411.383 410.65H408.183V412.25ZM412.733 412.25H416.133L415.633 415.85H412.233L412.733 412.25ZM426.253 407.5H434.028V405.5H424.153V423H426.253V415.025H433.528V413.025H426.253V407.5ZM439.339 407.5H447.339V405.5H437.239V423H447.489V421H439.339V415.025H446.739V413.025H439.339V407.5ZM452.938 407.5H460.938V405.5H450.838V423H461.088V421H452.938V415.025H460.338V413.025H452.938V407.5ZM463.536 407.45H471.886L464.111 422.5L465.886 423.45L475.186 405.5H463.536V407.45ZM490.908 407.875C490.908 407.875 488.733 405.2 484.633 405.2C479.583 405.2 475.983 409.2 475.983 414.25C475.983 419.3 479.583 423.3 484.633 423.3C488.733 423.3 491.108 420.425 491.108 420.425L489.683 418.975C489.683 418.975 487.808 421.3 484.633 421.3C480.833 421.3 478.233 417.975 478.233 414.25C478.233 410.525 480.833 407.2 484.633 407.2C487.833 407.2 489.458 409.25 489.458 409.25L490.908 407.875ZM492.06 409.325L493.285 410.925L496.635 408.25V423H498.735V405.5H496.86L492.06 409.325Z" fill="black"/>
<path d="M400.245 638.25H403.22L402.72 641.85H399.52V643.45H402.495L401.695 649.15L403.245 649.375L404.07 643.45H407.47L406.67 649.15L408.195 649.375L409.02 643.45H412.245V641.85H409.245L409.77 638.25H412.97V636.65H409.995L410.745 631.325L409.195 631.1L408.42 636.65H405.02L405.77 631.325L404.245 631.1L403.445 636.65H400.245V638.25ZM404.795 638.25H408.195L407.695 641.85H404.295L404.795 638.25ZM418.315 633.5H426.09V631.5H416.215V649H418.315V641.025H425.59V639.025H418.315V633.5ZM431.4 633.5H439.175V631.5H429.3V649H431.4V641.025H438.675V639.025H431.4V633.5ZM444.486 633.5H452.261V631.5H442.386V649H444.486V641.025H451.761V639.025H444.486V633.5ZM457.572 633.5H465.347V631.5H455.472V649H457.572V641.025H464.847V639.025H457.572V633.5ZM470.658 633.5H478.433V631.5H468.558V649H470.658V641.025H477.933V639.025H470.658V633.5ZM483.744 633.5H491.519V631.5H481.644V649H483.744V641.025H491.019V639.025H483.744V633.5Z" fill="black"/>
<path d="M538.975 638.25H541.95L541.45 641.85H538.25V643.45H541.225L540.425 649.15L541.975 649.375L542.8 643.45H546.2L545.4 649.15L546.925 649.375L547.75 643.45H550.975V641.85H547.975L548.5 638.25H551.7V636.65H548.725L549.475 631.325L547.925 631.1L547.15 636.65H543.75L544.5 631.325L542.975 631.1L542.175 636.65H538.975V638.25ZM543.525 638.25H546.925L546.425 641.85H543.025L543.525 638.25ZM557.045 633.5H564.82V631.5H554.945V649H557.045V641.025H564.32V639.025H557.045V633.5ZM575.706 636.125C575.706 638.125 574.106 639.1 572.131 639.1H571.606V641.025H572.431C574.931 641.025 576.131 642.225 576.131 644.175C576.131 645.85 574.781 647.35 572.531 647.35C569.506 647.35 568.756 644.475 568.756 644.475L566.906 645.325C566.906 645.325 568.031 649.3 572.531 649.3C575.731 649.3 578.231 647.35 578.231 644.175C578.231 640.6 575.656 639.925 575.656 639.925C575.656 639.925 577.806 638.975 577.806 636.125C577.806 633.35 575.456 631.2 572.581 631.2C568.756 631.2 567.506 634.625 567.506 634.625L569.306 635.425C569.306 635.425 570.081 633.15 572.581 633.15C574.431 633.15 575.706 634.575 575.706 636.125ZM583.73 633.5H591.73V631.5H581.63V649H591.88V647H583.73V641.025H591.13V639.025H583.73V633.5ZM597.328 633.5H605.103V631.5H595.228V649H597.328V641.025H604.603V639.025H597.328V633.5ZM610.414 633.5H618.414V631.5H608.314V649H618.564V647H610.414V641.025H617.814V639.025H610.414V633.5ZM621.913 649H627.388C630.838 649 633.088 647.05 633.088 644C633.088 640.525 630.413 639.75 630.163 639.7C630.413 639.65 632.138 638.65 632.138 636.275C632.138 633.35 630.113 631.5 626.513 631.5H621.913V649ZM627.388 647H624.013V641H627.388C629.888 641 630.988 642.35 630.988 644C630.988 645.65 629.888 647 627.388 647ZM624.013 639.05V633.5H626.863C628.838 633.5 630.038 634.575 630.038 636.275C630.038 637.975 628.838 639.05 626.863 639.05H624.013Z" fill="black"/>
<path d="M673.104 638.25H676.079L675.579 641.85H672.379V643.45H675.354L674.554 649.15L676.104 649.375L676.929 643.45H680.329L679.529 649.15L681.054 649.375L681.879 643.45H685.104V641.85H682.104L682.629 638.25H685.829V636.65H682.854L683.604 631.325L682.054 631.1L681.279 636.65H677.879L678.629 631.325L677.104 631.1L676.304 636.65H673.104V638.25ZM677.654 638.25H681.054L680.554 641.85H677.154L677.654 638.25ZM691.249 648.425L692.949 649.525C692.949 649.525 698.424 640.45 698.774 639.725C699.199 638.85 699.474 638 699.474 637C699.474 634.125 697.424 631.2 693.749 631.2C690.074 631.2 688.024 634.125 688.024 637C688.024 639.875 690.074 642.7 693.749 642.7C694.649 642.7 695.024 642.4 695.024 642.4L691.249 648.425ZM693.749 640.75C691.549 640.75 690.124 639.05 690.124 637C690.124 634.95 691.499 633.15 693.749 633.15C695.999 633.15 697.374 634.95 697.374 637C697.374 639.05 695.949 640.75 693.749 640.75ZM716.449 633.875C716.449 633.875 714.274 631.2 710.174 631.2C705.124 631.2 701.524 635.2 701.524 640.25C701.524 645.3 705.124 649.3 710.174 649.3C714.274 649.3 716.649 646.425 716.649 646.425L715.224 644.975C715.224 644.975 713.349 647.3 710.174 647.3C706.374 647.3 703.774 643.975 703.774 640.25C703.774 636.525 706.374 633.2 710.174 633.2C713.374 633.2 714.999 635.25 714.999 635.25L716.449 633.875ZM721.376 648.425L723.076 649.525C723.076 649.525 728.551 640.45 728.901 639.725C729.326 638.85 729.601 638 729.601 637C729.601 634.125 727.551 631.2 723.876 631.2C720.201 631.2 718.151 634.125 718.151 637C718.151 639.875 720.201 642.7 723.876 642.7C724.776 642.7 725.151 642.4 725.151 642.4L721.376 648.425ZM723.876 640.75C721.676 640.75 720.251 639.05 720.251 637C720.251 634.95 721.626 633.15 723.876 633.15C726.126 633.15 727.501 634.95 727.501 637C727.501 639.05 726.076 640.75 723.876 640.75ZM730.901 649H733.151L734.976 644.275H742.526L744.351 649H746.551L739.726 631.5H737.776L730.901 649ZM738.751 634.5L741.751 642.275H735.751L738.751 634.5ZM746.941 649H749.191L751.016 644.275H758.566L760.391 649H762.591L755.766 631.5H753.816L746.941 649ZM754.791 634.5L757.791 642.275H751.791L754.791 634.5ZM762.981 649H765.231L767.056 644.275H774.606L776.431 649H778.631L771.806 631.5H769.856L762.981 649ZM770.831 634.5L773.831 642.275H767.831L770.831 634.5Z" fill="black"/>
<path d="M816.363 638.25H819.338L818.838 641.85H815.638V643.45H818.613L817.813 649.15L819.363 649.375L820.188 643.45H823.588L822.788 649.15L824.313 649.375L825.138 643.45H828.363V641.85H825.363L825.888 638.25H829.088V636.65H826.113L826.863 631.325L825.313 631.1L824.538 636.65H821.138L821.888 631.325L820.363 631.1L819.563 636.65H816.363V638.25ZM820.913 638.25H824.313L823.813 641.85H820.413L820.913 638.25ZM843.458 643.425C843.458 639.425 840.758 637.525 837.933 637.525C835.983 637.525 834.708 638.25 834.708 638.25V633.45H843.083V631.5H832.708V641.45C832.708 641.45 835.033 639.5 837.458 639.5C839.608 639.5 841.358 640.8 841.358 643.425C841.358 646 839.558 647.35 837.508 647.35C834.633 647.35 833.658 644.55 833.658 644.55L831.833 645.525C831.833 645.525 833.208 649.3 837.508 649.3C840.533 649.3 843.458 647.35 843.458 643.425ZM860.538 633.875C860.538 633.875 858.363 631.2 854.263 631.2C849.213 631.2 845.613 635.2 845.613 640.25C845.613 645.3 849.213 649.3 854.263 649.3C858.363 649.3 860.738 646.425 860.738 646.425L859.313 644.975C859.313 644.975 857.438 647.3 854.263 647.3C850.463 647.3 847.863 643.975 847.863 640.25C847.863 636.525 850.463 633.2 854.263 633.2C857.463 633.2 859.088 635.25 859.088 635.25L860.538 633.875ZM874.415 643.425C874.415 639.425 871.715 637.525 868.89 637.525C866.94 637.525 865.665 638.25 865.665 638.25V633.45H874.04V631.5H863.665V641.45C863.665 641.45 865.99 639.5 868.415 639.5C870.565 639.5 872.315 640.8 872.315 643.425C872.315 646 870.515 647.35 868.465 647.35C865.59 647.35 864.615 644.55 864.615 644.55L862.79 645.525C862.79 645.525 864.165 649.3 868.465 649.3C871.49 649.3 874.415 647.35 874.415 643.425ZM882.52 631.2C879.395 631.2 877.595 633.6 877.595 635.9C877.595 637.325 878.37 638.825 879.545 639.525C877.97 640.375 876.97 642 876.97 644C876.97 646.85 879.17 649.3 882.52 649.3C885.87 649.3 888.07 646.85 888.07 644C888.07 642 887.07 640.375 885.495 639.525C886.67 638.825 887.445 637.325 887.445 635.9C887.445 633.6 885.645 631.2 882.52 631.2ZM882.52 647.35C880.395 647.35 879.07 645.675 879.07 644C879.07 642.2 880.37 640.525 882.52 640.525C884.67 640.525 885.97 642.2 885.97 644C885.97 645.675 884.645 647.35 882.52 647.35ZM882.52 638.7C880.945 638.7 879.695 637.55 879.695 635.925C879.695 634.3 880.945 633.15 882.52 633.15C884.095 633.15 885.345 634.3 885.345 635.925C885.345 637.55 884.095 638.7 882.52 638.7ZM898.764 632L897.064 630.9C897.064 630.9 891.714 639.775 891.364 640.425C890.864 641.35 890.514 642.525 890.514 643.525C890.514 646.4 892.564 649.3 896.239 649.3C899.914 649.3 901.964 646.4 901.964 643.475C901.964 640.525 899.914 637.75 896.239 637.75C895.514 637.75 894.989 638 894.989 638L898.764 632ZM896.239 639.7C898.439 639.7 899.864 641.425 899.864 643.475C899.864 645.525 898.489 647.35 896.239 647.35C893.989 647.35 892.614 645.525 892.614 643.475C892.614 641.425 894.039 639.7 896.239 639.7ZM912.688 636.125C912.688 638.125 911.088 639.1 909.113 639.1H908.588V641.025H909.413C911.913 641.025 913.113 642.225 913.113 644.175C913.113 645.85 911.763 647.35 909.513 647.35C906.488 647.35 905.738 644.475 905.738 644.475L903.888 645.325C903.888 645.325 905.013 649.3 909.513 649.3C912.713 649.3 915.213 647.35 915.213 644.175C915.213 640.6 912.638 639.925 912.638 639.925C912.638 639.925 914.788 638.975 914.788 636.125C914.788 633.35 912.438 631.2 909.563 631.2C905.738 631.2 904.488 634.625 904.488 634.625L906.288 635.425C906.288 635.425 907.063 633.15 909.563 633.15C911.413 633.15 912.688 634.575 912.688 636.125Z" fill="white"/>
<path d="M957.095 638.25H960.07L959.57 641.85H956.37V643.45H959.345L958.545 649.15L960.095 649.375L960.92 643.45H964.32L963.52 649.15L965.045 649.375L965.87 643.45H969.095V641.85H966.095L966.62 638.25H969.82V636.65H966.845L967.595 631.325L966.045 631.1L965.27 636.65H961.87L962.62 631.325L961.095 631.1L960.295 636.65H957.095V638.25ZM961.645 638.25H965.045L964.545 641.85H961.145L961.645 638.25ZM980.74 636.125C980.74 638.125 979.14 639.1 977.165 639.1H976.64V641.025H977.465C979.965 641.025 981.165 642.225 981.165 644.175C981.165 645.85 979.815 647.35 977.565 647.35C974.54 647.35 973.79 644.475 973.79 644.475L971.94 645.325C971.94 645.325 973.065 649.3 977.565 649.3C980.765 649.3 983.265 647.35 983.265 644.175C983.265 640.6 980.69 639.925 980.69 639.925C980.69 639.925 982.84 638.975 982.84 636.125C982.84 633.35 980.49 631.2 977.615 631.2C973.79 631.2 972.54 634.625 972.54 634.625L974.34 635.425C974.34 635.425 975.115 633.15 977.615 633.15C979.465 633.15 980.74 634.575 980.74 636.125ZM991.514 631.2C988.389 631.2 986.589 633.6 986.589 635.9C986.589 637.325 987.364 638.825 988.539 639.525C986.964 640.375 985.964 642 985.964 644C985.964 646.85 988.164 649.3 991.514 649.3C994.864 649.3 997.064 646.85 997.064 644C997.064 642 996.064 640.375 994.489 639.525C995.664 638.825 996.439 637.325 996.439 635.9C996.439 633.6 994.639 631.2 991.514 631.2ZM991.514 647.35C989.389 647.35 988.064 645.675 988.064 644C988.064 642.2 989.364 640.525 991.514 640.525C993.664 640.525 994.964 642.2 994.964 644C994.964 645.675 993.639 647.35 991.514 647.35ZM991.514 638.7C989.939 638.7 988.689 637.55 988.689 635.925C988.689 634.3 989.939 633.15 991.514 633.15C993.089 633.15 994.339 634.3 994.339 635.925C994.339 637.55 993.089 638.7 991.514 638.7ZM1008.13 636.125C1008.13 638.125 1006.53 639.1 1004.56 639.1H1004.03V641.025H1004.86C1007.36 641.025 1008.56 642.225 1008.56 644.175C1008.56 645.85 1007.21 647.35 1004.96 647.35C1001.93 647.35 1001.18 644.475 1001.18 644.475L999.333 645.325C999.333 645.325 1000.46 649.3 1004.96 649.3C1008.16 649.3 1010.66 647.35 1010.66 644.175C1010.66 640.6 1008.08 639.925 1008.08 639.925C1008.08 639.925 1010.23 638.975 1010.23 636.125C1010.23 633.35 1007.88 631.2 1005.01 631.2C1001.18 631.2 999.933 634.625 999.933 634.625L1001.73 635.425C1001.73 635.425 1002.51 633.15 1005.01 633.15C1006.86 633.15 1008.13 634.575 1008.13 636.125ZM1021.36 632L1019.66 630.9C1019.66 630.9 1014.31 639.775 1013.96 640.425C1013.46 641.35 1013.11 642.525 1013.11 643.525C1013.11 646.4 1015.16 649.3 1018.83 649.3C1022.51 649.3 1024.56 646.4 1024.56 643.475C1024.56 640.525 1022.51 637.75 1018.83 637.75C1018.11 637.75 1017.58 638 1017.58 638L1021.36 632ZM1018.83 639.7C1021.03 639.7 1022.46 641.425 1022.46 643.475C1022.46 645.525 1021.08 647.35 1018.83 647.35C1016.58 647.35 1015.21 645.525 1015.21 643.475C1015.21 641.425 1016.63 639.7 1018.83 639.7ZM1035.28 636.125C1035.28 638.125 1033.68 639.1 1031.71 639.1H1031.18V641.025H1032.01C1034.51 641.025 1035.71 642.225 1035.71 644.175C1035.71 645.85 1034.36 647.35 1032.11 647.35C1029.08 647.35 1028.33 644.475 1028.33 644.475L1026.48 645.325C1026.48 645.325 1027.61 649.3 1032.11 649.3C1035.31 649.3 1037.81 647.35 1037.81 644.175C1037.81 640.6 1035.23 639.925 1035.23 639.925C1035.23 639.925 1037.38 638.975 1037.38 636.125C1037.38 633.35 1035.03 631.2 1032.16 631.2C1028.33 631.2 1027.08 634.625 1027.08 634.625L1028.88 635.425C1028.88 635.425 1029.66 633.15 1032.16 633.15C1034.01 633.15 1035.28 634.575 1035.28 636.125ZM1046.23 631.5H1041.2V649H1046.23C1051.65 649 1054.88 645.3 1054.88 640.25C1054.88 635.2 1051.65 631.5 1046.23 631.5ZM1046.1 647H1043.3V633.5H1046.1C1050.38 633.5 1052.63 636.525 1052.63 640.25C1052.63 643.975 1050.38 647 1046.1 647Z" fill="white"/>
<path d="M1095.12 638.25H1098.09L1097.59 641.85H1094.39V643.45H1097.37L1096.57 649.15L1098.12 649.375L1098.94 643.45H1102.34L1101.54 649.15L1103.07 649.375L1103.89 643.45H1107.12V641.85H1104.12L1104.64 638.25H1107.84V636.65H1104.87L1105.62 631.325L1104.07 631.1L1103.29 636.65H1099.89L1100.64 631.325L1099.12 631.1L1098.32 636.65H1095.12V638.25ZM1099.67 638.25H1103.07L1102.57 641.85H1099.17L1099.67 638.25ZM1116.46 631.2C1112.01 631.2 1110.09 635.575 1110.09 640.25C1110.09 644.925 1112.01 649.3 1116.46 649.3C1120.91 649.3 1122.79 644.925 1122.79 640.25C1122.79 635.575 1120.91 631.2 1116.46 631.2ZM1116.46 647.35C1113.36 647.35 1112.19 643.675 1112.19 640.25C1112.19 636.825 1113.36 633.15 1116.46 633.15C1119.56 633.15 1120.69 636.825 1120.69 640.25C1120.69 643.675 1119.56 647.35 1116.46 647.35ZM1131.26 631.2C1126.81 631.2 1124.88 635.575 1124.88 640.25C1124.88 644.925 1126.81 649.3 1131.26 649.3C1135.71 649.3 1137.58 644.925 1137.58 640.25C1137.58 635.575 1135.71 631.2 1131.26 631.2ZM1131.26 647.35C1128.16 647.35 1126.98 643.675 1126.98 640.25C1126.98 636.825 1128.16 633.15 1131.26 633.15C1134.36 633.15 1135.48 636.825 1135.48 640.25C1135.48 643.675 1134.36 647.35 1131.26 647.35ZM1146.05 631.2C1141.6 631.2 1139.68 635.575 1139.68 640.25C1139.68 644.925 1141.6 649.3 1146.05 649.3C1150.5 649.3 1152.38 644.925 1152.38 640.25C1152.38 635.575 1150.5 631.2 1146.05 631.2ZM1146.05 647.35C1142.95 647.35 1141.78 643.675 1141.78 640.25C1141.78 636.825 1142.95 633.15 1146.05 633.15C1149.15 633.15 1150.28 636.825 1150.28 640.25C1150.28 643.675 1149.15 647.35 1146.05 647.35ZM1160.85 631.2C1156.4 631.2 1154.47 635.575 1154.47 640.25C1154.47 644.925 1156.4 649.3 1160.85 649.3C1165.3 649.3 1167.17 644.925 1167.17 640.25C1167.17 635.575 1165.3 631.2 1160.85 631.2ZM1160.85 647.35C1157.75 647.35 1156.57 643.675 1156.57 640.25C1156.57 636.825 1157.75 633.15 1160.85 633.15C1163.95 633.15 1165.07 636.825 1165.07 640.25C1165.07 643.675 1163.95 647.35 1160.85 647.35ZM1175.64 631.2C1171.19 631.2 1169.27 635.575 1169.27 640.25C1169.27 644.925 1171.19 649.3 1175.64 649.3C1180.09 649.3 1181.97 644.925 1181.97 640.25C1181.97 635.575 1180.09 631.2 1175.64 631.2ZM1175.64 647.35C1172.54 647.35 1171.37 643.675 1171.37 640.25C1171.37 636.825 1172.54 633.15 1175.64 633.15C1178.74 633.15 1179.87 636.825 1179.87 640.25C1179.87 643.675 1178.74 647.35 1175.64 647.35ZM1190.44 631.2C1185.99 631.2 1184.06 635.575 1184.06 640.25C1184.06 644.925 1185.99 649.3 1190.44 649.3C1194.89 649.3 1196.76 644.925 1196.76 640.25C1196.76 635.575 1194.89 631.2 1190.44 631.2ZM1190.44 647.35C1187.34 647.35 1186.16 643.675 1186.16 640.25C1186.16 636.825 1187.34 633.15 1190.44 633.15C1193.54 633.15 1194.66 636.825 1194.66 640.25C1194.66 643.675 1193.54 647.35 1190.44 647.35Z" fill="white"/>
<path d="M595.168 412.25H598.143L597.643 415.85H594.443V417.45H597.418L596.618 423.15L598.168 423.375L598.993 417.45H602.393L601.593 423.15L603.118 423.375L603.943 417.45H607.168V415.85H604.168L604.693 412.25H607.893V410.65H604.918L605.668 405.325L604.118 405.1L603.343 410.65H599.943L600.693 405.325L599.168 405.1L598.368 410.65H595.168V412.25ZM599.718 412.25H603.118L602.618 415.85H599.218L599.718 412.25ZM622.263 417.425C622.263 413.425 619.563 411.525 616.738 411.525C614.788 411.525 613.513 412.25 613.513 412.25V407.45H621.888V405.5H611.513V415.45C611.513 415.45 613.838 413.5 616.263 413.5C618.413 413.5 620.163 414.8 620.163 417.425C620.163 420 618.363 421.35 616.313 421.35C613.438 421.35 612.463 418.55 612.463 418.55L610.638 419.525C610.638 419.525 612.013 423.3 616.313 423.3C619.338 423.3 622.263 421.35 622.263 417.425ZM630.893 405.2C626.443 405.2 624.518 409.575 624.518 414.25C624.518 418.925 626.443 423.3 630.893 423.3C635.343 423.3 637.218 418.925 637.218 414.25C637.218 409.575 635.343 405.2 630.893 405.2ZM630.893 421.35C627.793 421.35 626.618 417.675 626.618 414.25C626.618 410.825 627.793 407.15 630.893 407.15C633.993 407.15 635.118 410.825 635.118 414.25C635.118 417.675 633.993 421.35 630.893 421.35ZM639.563 423H650.163V421.05H643.563L648.213 414.85C648.588 414.325 650.038 412.675 650.038 410.325C650.038 407.425 647.938 405.2 644.713 405.2C640.463 405.2 639.463 409.15 639.463 409.15L641.263 409.825C641.263 409.825 641.938 407.15 644.713 407.15C646.888 407.15 647.938 408.65 647.938 410.325C647.938 412.25 646.363 414 645.713 414.85L639.563 423ZM651.768 423H654.018L655.843 418.275H663.393L665.218 423H667.418L660.593 405.5H658.643L651.768 423ZM659.618 408.5L662.618 416.275H656.618L659.618 408.5ZM677.333 410.125C677.333 412.125 675.733 413.1 673.758 413.1H673.233V415.025H674.058C676.558 415.025 677.758 416.225 677.758 418.175C677.758 419.85 676.408 421.35 674.158 421.35C671.133 421.35 670.383 418.475 670.383 418.475L668.533 419.325C668.533 419.325 669.658 423.3 674.158 423.3C677.358 423.3 679.858 421.35 679.858 418.175C679.858 414.6 677.283 413.925 677.283 413.925C677.283 413.925 679.433 412.975 679.433 410.125C679.433 407.35 677.083 405.2 674.208 405.2C670.383 405.2 669.133 408.625 669.133 408.625L670.933 409.425C670.933 409.425 671.708 407.15 674.208 407.15C676.058 407.15 677.333 408.575 677.333 410.125ZM685.432 422.425L687.132 423.525C687.132 423.525 692.607 414.45 692.957 413.725C693.382 412.85 693.657 412 693.657 411C693.657 408.125 691.607 405.2 687.932 405.2C684.257 405.2 682.207 408.125 682.207 411C682.207 413.875 684.257 416.7 687.932 416.7C688.832 416.7 689.207 416.4 689.207 416.4L685.432 422.425ZM687.932 414.75C685.732 414.75 684.307 413.05 684.307 411C684.307 408.95 685.682 407.15 687.932 407.15C690.182 407.15 691.557 408.95 691.557 411C691.557 413.05 690.132 414.75 687.932 414.75Z" fill="white"/>
<path d="M787.988 412.25H790.963L790.463 415.85H787.263V417.45H790.238L789.438 423.15L790.988 423.375L791.813 417.45H795.213L794.413 423.15L795.938 423.375L796.763 417.45H799.988V415.85H796.988L797.513 412.25H800.713V410.65H797.738L798.488 405.325L796.938 405.1L796.163 410.65H792.763L793.513 405.325L791.988 405.1L791.188 410.65H787.988V412.25ZM792.538 412.25H795.938L795.438 415.85H792.038L792.538 412.25ZM815.082 417.425C815.082 413.425 812.382 411.525 809.557 411.525C807.607 411.525 806.332 412.25 806.332 412.25V407.45H814.707V405.5H804.332V415.45C804.332 415.45 806.657 413.5 809.082 413.5C811.232 413.5 812.982 414.8 812.982 417.425C812.982 420 811.182 421.35 809.132 421.35C806.257 421.35 805.282 418.55 805.282 418.55L803.457 419.525C803.457 419.525 804.832 423.3 809.132 423.3C812.157 423.3 815.082 421.35 815.082 417.425ZM820.512 422.425L822.212 423.525C822.212 423.525 827.687 414.45 828.037 413.725C828.462 412.85 828.737 412 828.737 411C828.737 408.125 826.687 405.2 823.012 405.2C819.337 405.2 817.287 408.125 817.287 411C817.287 413.875 819.337 416.7 823.012 416.7C823.912 416.7 824.287 416.4 824.287 416.4L820.512 422.425ZM823.012 414.75C820.812 414.75 819.387 413.05 819.387 411C819.387 408.95 820.762 407.15 823.012 407.15C825.262 407.15 826.637 408.95 826.637 411C826.637 413.05 825.212 414.75 823.012 414.75ZM830.987 407.45H839.337L831.562 422.5L833.337 423.45L842.637 405.5H830.987V407.45ZM843.783 423H854.383V421.05H847.783L852.433 414.85C852.808 414.325 854.258 412.675 854.258 410.325C854.258 407.425 852.158 405.2 848.933 405.2C844.683 405.2 843.683 409.15 843.683 409.15L845.483 409.825C845.483 409.825 846.158 407.15 848.933 407.15C851.108 407.15 852.158 408.65 852.158 410.325C852.158 412.25 850.583 414 849.933 414.85L843.783 423ZM865.139 406L863.439 404.9C863.439 404.9 858.089 413.775 857.739 414.425C857.239 415.35 856.889 416.525 856.889 417.525C856.889 420.4 858.939 423.3 862.614 423.3C866.289 423.3 868.339 420.4 868.339 417.475C868.339 414.525 866.289 411.75 862.614 411.75C861.889 411.75 861.364 412 861.364 412L865.139 406ZM862.614 413.7C864.814 413.7 866.239 415.425 866.239 417.475C866.239 419.525 864.864 421.35 862.614 421.35C860.364 421.35 858.989 419.525 858.989 417.475C858.989 415.425 860.414 413.7 862.614 413.7ZM879.064 410.125C879.064 412.125 877.464 413.1 875.489 413.1H874.964V415.025H875.789C878.289 415.025 879.489 416.225 879.489 418.175C879.489 419.85 878.139 421.35 875.889 421.35C872.864 421.35 872.114 418.475 872.114 418.475L870.264 419.325C870.264 419.325 871.389 423.3 875.889 423.3C879.089 423.3 881.589 421.35 881.589 418.175C881.589 414.6 879.014 413.925 879.014 413.925C879.014 413.925 881.164 412.975 881.164 410.125C881.164 407.35 878.814 405.2 875.939 405.2C872.114 405.2 870.864 408.625 870.864 408.625L872.664 409.425C872.664 409.425 873.439 407.15 875.939 407.15C877.789 407.15 879.064 408.575 879.064 410.125Z" fill="white"/>
<path d="M687.324 111.25H690.299L689.799 114.85H686.599V116.45H689.574L688.774 122.15L690.324 122.375L691.149 116.45H694.549L693.749 122.15L695.274 122.375L696.099 116.45H699.324V114.85H696.324L696.849 111.25H700.049V109.65H697.074L697.824 104.325L696.274 104.1L695.499 109.65H692.099L692.849 104.325L691.324 104.1L690.524 109.65H687.324V111.25ZM691.874 111.25H695.274L694.774 114.85H691.374L691.874 111.25ZM705.394 106.5H713.169V104.5H703.294V122H705.394V114.025H712.669V112.025H705.394V106.5ZM730.205 106.875C730.205 106.875 728.03 104.2 723.93 104.2C718.88 104.2 715.28 108.2 715.28 113.25C715.28 118.3 718.88 122.3 723.93 122.3C728.03 122.3 730.405 119.425 730.405 119.425L728.98 117.975C728.98 117.975 727.105 120.3 723.93 120.3C720.13 120.3 717.53 116.975 717.53 113.25C717.53 109.525 720.13 106.2 723.93 106.2C727.13 106.2 728.755 108.25 728.755 108.25L730.205 106.875ZM737.982 104.5H732.957V122H737.982C743.407 122 746.632 118.3 746.632 113.25C746.632 108.2 743.407 104.5 737.982 104.5ZM737.857 120H735.057V106.5H737.857C742.132 106.5 744.382 109.525 744.382 113.25C744.382 116.975 742.132 120 737.857 120ZM748.882 122H759.482V120.05H752.882L757.532 113.85C757.907 113.325 759.357 111.675 759.357 109.325C759.357 106.425 757.257 104.2 754.032 104.2C749.782 104.2 748.782 108.15 748.782 108.15L750.582 108.825C750.582 108.825 751.257 106.15 754.032 106.15C756.207 106.15 757.257 107.65 757.257 109.325C757.257 111.25 755.682 113 755.032 113.85L748.882 122ZM767.963 104.5H762.938V122H767.963C773.388 122 776.613 118.3 776.613 113.25C776.613 108.2 773.388 104.5 767.963 104.5ZM767.838 120H765.038V106.5H767.838C772.113 106.5 774.363 109.525 774.363 113.25C774.363 116.975 772.113 120 767.838 120ZM777.613 117.4H786.538V122H788.588V117.4H790.762V115.45H788.588V104.5H786.738L777.613 117.4ZM781.113 115.45L786.538 107.7V115.45H781.113Z" fill="black"/>
<path d="M100.295 427H98.045C97.785 427 97.575 426.935 97.415 426.805C97.255 426.675 97.135 426.51 97.055 426.31L95.045 421.12H85.4L83.39 426.31C83.32 426.49 83.2 426.65 83.03 426.79C82.86 426.93 82.65 427 82.4 427H80.15L88.745 405.505H91.7L100.295 427ZM86.21 419.02H94.235L90.86 410.275C90.64 409.735 90.425 409.06 90.215 408.25C90.105 408.66 89.995 409.04 89.885 409.39C89.785 409.73 89.685 410.03 89.585 410.29L86.21 419.02ZM113.276 427C112.896 427 112.656 426.815 112.556 426.445L112.316 424.6C111.666 425.39 110.921 426.025 110.081 426.505C109.251 426.975 108.296 427.21 107.216 427.21C106.346 427.21 105.556 427.045 104.846 426.715C104.136 426.375 103.531 425.88 103.031 425.23C102.531 424.58 102.146 423.77 101.876 422.8C101.606 421.83 101.471 420.715 101.471 419.455C101.471 418.335 101.621 417.295 101.921 416.335C102.221 415.365 102.651 414.525 103.211 413.815C103.781 413.105 104.471 412.55 105.281 412.15C106.091 411.74 107.011 411.535 108.041 411.535C108.971 411.535 109.766 411.695 110.426 412.015C111.086 412.325 111.676 412.765 112.196 413.335V404.905H114.866V427H113.276ZM108.101 425.05C108.971 425.05 109.731 424.85 110.381 424.45C111.041 424.05 111.646 423.485 112.196 422.755V415.405C111.706 414.745 111.166 414.285 110.576 414.025C109.996 413.755 109.351 413.62 108.641 413.62C107.221 413.62 106.131 414.125 105.371 415.135C104.611 416.145 104.231 417.585 104.231 419.455C104.231 420.445 104.316 421.295 104.486 422.005C104.656 422.705 104.906 423.285 105.236 423.745C105.566 424.195 105.971 424.525 106.451 424.735C106.931 424.945 107.481 425.05 108.101 425.05ZM130.033 427C129.653 427 129.413 426.815 129.313 426.445L129.073 424.6C128.423 425.39 127.678 426.025 126.838 426.505C126.008 426.975 125.053 427.21 123.973 427.21C123.103 427.21 122.313 427.045 121.603 426.715C120.893 426.375 120.288 425.88 119.788 425.23C119.288 424.58 118.903 423.77 118.633 422.8C118.363 421.83 118.228 420.715 118.228 419.455C118.228 418.335 118.378 417.295 118.678 416.335C118.978 415.365 119.408 414.525 119.968 413.815C120.538 413.105 121.228 412.55 122.038 412.15C122.848 411.74 123.768 411.535 124.798 411.535C125.728 411.535 126.523 411.695 127.183 412.015C127.843 412.325 128.433 412.765 128.953 413.335V404.905H131.623V427H130.033ZM124.858 425.05C125.728 425.05 126.488 424.85 127.138 424.45C127.798 424.05 128.403 423.485 128.953 422.755V415.405C128.463 414.745 127.923 414.285 127.333 414.025C126.753 413.755 126.108 413.62 125.398 413.62C123.978 413.62 122.888 414.125 122.128 415.135C121.368 416.145 120.988 417.585 120.988 419.455C120.988 420.445 121.073 421.295 121.243 422.005C121.413 422.705 121.663 423.285 121.993 423.745C122.323 424.195 122.728 424.525 123.208 424.735C123.688 424.945 124.238 425.05 124.858 425.05ZM139.066 411.805V427H136.396V411.805H139.066ZM139.666 407.035C139.666 407.295 139.611 407.54 139.501 407.77C139.401 407.99 139.261 408.19 139.081 408.37C138.911 408.54 138.711 408.675 138.481 408.775C138.251 408.875 138.006 408.925 137.746 408.925C137.486 408.925 137.241 408.875 137.011 408.775C136.791 408.675 136.591 408.54 136.411 408.37C136.241 408.19 136.106 407.99 136.006 407.77C135.906 407.54 135.856 407.295 135.856 407.035C135.856 406.775 135.906 406.53 136.006 406.3C136.106 406.06 136.241 405.855 136.411 405.685C136.591 405.505 136.791 405.365 137.011 405.265C137.241 405.165 137.486 405.115 137.746 405.115C138.006 405.115 138.251 405.165 138.481 405.265C138.711 405.365 138.911 405.505 139.081 405.685C139.261 405.855 139.401 406.06 139.501 406.3C139.611 406.53 139.666 406.775 139.666 407.035ZM148.377 427.24C147.177 427.24 146.252 426.905 145.602 426.235C144.962 425.565 144.642 424.6 144.642 423.34V414.04H142.812C142.652 414.04 142.517 413.995 142.407 413.905C142.297 413.805 142.242 413.655 142.242 413.455V412.39L144.732 412.075L145.347 407.38C145.367 407.23 145.432 407.11 145.542 407.02C145.652 406.92 145.792 406.87 145.962 406.87H147.312V412.105H151.662V414.04H147.312V423.16C147.312 423.8 147.467 424.275 147.777 424.585C148.087 424.895 148.487 425.05 148.977 425.05C149.257 425.05 149.497 425.015 149.697 424.945C149.907 424.865 150.087 424.78 150.237 424.69C150.387 424.6 150.512 424.52 150.612 424.45C150.722 424.37 150.817 424.33 150.897 424.33C151.037 424.33 151.162 424.415 151.272 424.585L152.052 425.86C151.592 426.29 151.037 426.63 150.387 426.88C149.737 427.12 149.067 427.24 148.377 427.24ZM157.933 411.805V427H155.263V411.805H157.933ZM158.533 407.035C158.533 407.295 158.478 407.54 158.368 407.77C158.268 407.99 158.128 408.19 157.948 408.37C157.778 408.54 157.578 408.675 157.348 408.775C157.118 408.875 156.873 408.925 156.613 408.925C156.353 408.925 156.108 408.875 155.878 408.775C155.658 408.675 155.458 408.54 155.278 408.37C155.108 408.19 154.973 407.99 154.873 407.77C154.773 407.54 154.723 407.295 154.723 407.035C154.723 406.775 154.773 406.53 154.873 406.3C154.973 406.06 155.108 405.855 155.278 405.685C155.458 405.505 155.658 405.365 155.878 405.265C156.108 405.165 156.353 405.115 156.613 405.115C156.873 405.115 157.118 405.165 157.348 405.265C157.578 405.365 157.778 405.505 157.948 405.685C158.128 405.855 158.268 406.06 158.368 406.3C158.478 406.53 158.533 406.775 158.533 407.035ZM168.789 411.565C169.899 411.565 170.899 411.75 171.789 412.12C172.689 412.49 173.449 413.015 174.069 413.695C174.699 414.375 175.179 415.2 175.509 416.17C175.849 417.13 176.019 418.205 176.019 419.395C176.019 420.595 175.849 421.675 175.509 422.635C175.179 423.595 174.699 424.415 174.069 425.095C173.449 425.775 172.689 426.3 171.789 426.67C170.899 427.03 169.899 427.21 168.789 427.21C167.679 427.21 166.674 427.03 165.774 426.67C164.884 426.3 164.124 425.775 163.494 425.095C162.864 424.415 162.379 423.595 162.039 422.635C161.699 421.675 161.529 420.595 161.529 419.395C161.529 418.205 161.699 417.13 162.039 416.17C162.379 415.2 162.864 414.375 163.494 413.695C164.124 413.015 164.884 412.49 165.774 412.12C166.674 411.75 167.679 411.565 168.789 411.565ZM168.789 425.125C170.289 425.125 171.409 424.625 172.149 423.625C172.889 422.615 173.259 421.21 173.259 419.41C173.259 417.6 172.889 416.19 172.149 415.18C171.409 414.17 170.289 413.665 168.789 413.665C168.029 413.665 167.369 413.795 166.809 414.055C166.249 414.315 165.779 414.69 165.399 415.18C165.029 415.67 164.749 416.275 164.559 416.995C164.379 417.705 164.289 418.51 164.289 419.41C164.289 420.31 164.379 421.115 164.559 421.825C164.749 422.535 165.029 423.135 165.399 423.625C165.779 424.105 166.249 424.475 166.809 424.735C167.369 424.995 168.029 425.125 168.789 425.125ZM179.309 427V411.805H180.899C181.279 411.805 181.519 411.99 181.619 412.36L181.829 414.01C182.489 413.28 183.224 412.69 184.034 412.24C184.854 411.79 185.799 411.565 186.869 411.565C187.699 411.565 188.429 411.705 189.059 411.985C189.699 412.255 190.229 412.645 190.649 413.155C191.079 413.655 191.404 414.26 191.624 414.97C191.844 415.68 191.954 416.465 191.954 417.325V427H189.284V417.325C189.284 416.175 189.019 415.285 188.489 414.655C187.969 414.015 187.169 413.695 186.089 413.695C185.299 413.695 184.559 413.885 183.869 414.265C183.189 414.645 182.559 415.16 181.979 415.81V427H179.309ZM207.139 427H205.954C205.694 427 205.484 426.96 205.324 426.88C205.164 426.8 205.059 426.63 205.009 426.37L204.709 424.96C204.309 425.32 203.919 425.645 203.539 425.935C203.159 426.215 202.759 426.455 202.339 426.655C201.919 426.845 201.469 426.99 200.989 427.09C200.519 427.19 199.994 427.24 199.414 427.24C198.824 427.24 198.269 427.16 197.749 427C197.239 426.83 196.794 426.58 196.414 426.25C196.034 425.92 195.729 425.505 195.499 425.005C195.279 424.495 195.169 423.895 195.169 423.205C195.169 422.605 195.334 422.03 195.664 421.48C195.994 420.92 196.524 420.425 197.254 419.995C197.994 419.565 198.959 419.215 200.149 418.945C201.339 418.665 202.794 418.505 204.514 418.465V417.28C204.514 416.1 204.259 415.21 203.749 414.61C203.249 414 202.504 413.695 201.514 413.695C200.864 413.695 200.314 413.78 199.864 413.95C199.424 414.11 199.039 414.295 198.709 414.505C198.389 414.705 198.109 414.89 197.869 415.06C197.639 415.22 197.409 415.3 197.179 415.3C196.999 415.3 196.839 415.255 196.699 415.165C196.569 415.065 196.464 414.945 196.384 414.805L195.904 413.95C196.744 413.14 197.649 412.535 198.619 412.135C199.589 411.735 200.664 411.535 201.844 411.535C202.694 411.535 203.449 411.675 204.109 411.955C204.769 412.235 205.324 412.625 205.774 413.125C206.224 413.625 206.564 414.23 206.794 414.94C207.024 415.65 207.139 416.43 207.139 417.28V427ZM200.209 425.365C200.679 425.365 201.109 425.32 201.499 425.23C201.889 425.13 202.254 424.995 202.594 424.825C202.944 424.645 203.274 424.43 203.584 424.18C203.904 423.93 204.214 423.645 204.514 423.325V420.16C203.284 420.2 202.239 420.3 201.379 420.46C200.519 420.61 199.819 420.81 199.279 421.06C198.739 421.31 198.344 421.605 198.094 421.945C197.854 422.285 197.734 422.665 197.734 423.085C197.734 423.485 197.799 423.83 197.929 424.12C198.059 424.41 198.234 424.65 198.454 424.84C198.674 425.02 198.934 425.155 199.234 425.245C199.534 425.325 199.859 425.365 200.209 425.365ZM214.154 404.905V427H211.484V404.905H214.154Z" fill="black"/>
<rect x="894" y="220" width="210" height="210" rx="105" transform="rotate(-90 894 220)" fill="#7A223B"/>
<path d="M954.011 111.25H956.986L956.486 114.85H953.286V116.45H956.261L955.461 122.15L957.011 122.375L957.836 116.45H961.236L960.436 122.15L961.961 122.375L962.786 116.45H966.011V114.85H963.011L963.536 111.25H966.736V109.65H963.761L964.511 104.325L962.961 104.1L962.186 109.65H958.786L959.536 104.325L958.011 104.1L957.211 109.65H954.011V111.25ZM958.561 111.25H961.961L961.461 114.85H958.061L958.561 111.25ZM969.081 106.45H977.431L969.656 121.5L971.431 122.45L980.731 104.5H969.081V106.45ZM980.777 122H983.027L984.852 117.275H992.402L994.227 122H996.427L989.602 104.5H987.652L980.777 122ZM988.627 107.5L991.627 115.275H985.627L988.627 107.5ZM997.917 122H1008.52V120.05H1001.92L1006.57 113.85C1006.94 113.325 1008.39 111.675 1008.39 109.325C1008.39 106.425 1006.29 104.2 1003.07 104.2C998.817 104.2 997.817 108.15 997.817 108.15L999.617 108.825C999.617 108.825 1000.29 106.15 1003.07 106.15C1005.24 106.15 1006.29 107.65 1006.29 109.325C1006.29 111.25 1004.72 113 1004.07 113.85L997.917 122ZM1011.22 122H1021.82V120.05H1015.22L1019.87 113.85C1020.25 113.325 1021.7 111.675 1021.7 109.325C1021.7 106.425 1019.6 104.2 1016.37 104.2C1012.12 104.2 1011.12 108.15 1011.12 108.15L1012.92 108.825C1012.92 108.825 1013.6 106.15 1016.37 106.15C1018.55 106.15 1019.6 107.65 1019.6 109.325C1019.6 111.25 1018.02 113 1017.37 113.85L1011.22 122ZM1032.95 109.125C1032.95 111.125 1031.35 112.1 1029.38 112.1H1028.85V114.025H1029.68C1032.18 114.025 1033.38 115.225 1033.38 117.175C1033.38 118.85 1032.03 120.35 1029.78 120.35C1026.75 120.35 1026 117.475 1026 117.475L1024.15 118.325C1024.15 118.325 1025.28 122.3 1029.78 122.3C1032.98 122.3 1035.48 120.35 1035.48 117.175C1035.48 113.6 1032.9 112.925 1032.9 112.925C1032.9 112.925 1035.05 111.975 1035.05 109.125C1035.05 106.35 1032.7 104.2 1029.83 104.2C1026 104.2 1024.75 107.625 1024.75 107.625L1026.55 108.425C1026.55 108.425 1027.33 106.15 1029.83 106.15C1031.68 106.15 1032.95 107.575 1032.95 109.125ZM1038.88 122H1044.35C1047.8 122 1050.05 120.05 1050.05 117C1050.05 113.525 1047.38 112.75 1047.13 112.7C1047.38 112.65 1049.1 111.65 1049.1 109.275C1049.1 106.35 1047.08 104.5 1043.48 104.5H1038.88V122ZM1044.35 120H1040.98V114H1044.35C1046.85 114 1047.95 115.35 1047.95 117C1047.95 118.65 1046.85 120 1044.35 120ZM1040.98 112.05V106.5H1043.83C1045.8 106.5 1047 107.575 1047 109.275C1047 110.975 1045.8 112.05 1043.83 112.05H1040.98Z" fill="white"/>
<defs>
<filter id="filter0_d" x="384" y="580" width="122" height="122" filterUnits="userSpaceOnUse" color-interpolation-filters="sRGB">
<feFlood flood-opacity="0" result="BackgroundImageFix"/>
<feColorMatrix in="SourceAlpha" type="matrix" values="0 0 0 0 0 0 0 0 0 0 0 0 0 0 0 0 0 0 127 0"/>
<feOffset/>
<feGaussianBlur stdDeviation="3"/>
<feColorMatrix type="matrix" values="0 0 0 0 0 0 0 0 0 0 0 0 0 0 0 0 0 0 0.2 0"/>
<feBlend mode="normal" in2="BackgroundImageFix" result="effect1_dropShadow"/>
<feBlend mode="normal" in="SourceGraphic" in2="effect1_dropShadow" result="shape"/>
</filter>
</defs>
</svg>
