<svg width="1200" height="643" viewBox="0 0 1200 643" fill="none" xmlns="http://www.w3.org/2000/svg">
<g clip-path="url(#clip0)">
<rect width="1200" height="643" fill="white"/>
<path fill-rule="evenodd" clip-rule="evenodd" d="M776.3 556.374C784.439 556.374 791.037 549.888 791.037 541.887C791.037 533.886 784.439 527.4 776.3 527.4C768.161 527.4 761.563 533.886 761.563 541.887C761.563 549.888 768.161 556.374 776.3 556.374Z" stroke="#38363D" stroke-width="2" stroke-linecap="round" stroke-linejoin="round"/>
<path fill-rule="evenodd" clip-rule="evenodd" d="M811.7 608.6C819.839 608.6 826.437 602.114 826.437 594.113C826.437 586.112 819.839 579.626 811.7 579.626C803.561 579.626 796.963 586.112 796.963 594.113C796.963 602.114 803.561 608.6 811.7 608.6Z" stroke="#38363D" stroke-width="2" stroke-linecap="round" stroke-linejoin="round"/>
<path d="M769.823 608.6L817.495 527.452" stroke="#38363D" stroke-width="2" stroke-linecap="round" stroke-linejoin="round"/>
<path fill-rule="evenodd" clip-rule="evenodd" d="M992.439 556.323C1000.66 556.323 1007.33 549.848 1007.33 541.861C1007.33 533.875 1000.66 527.4 992.439 527.4C984.217 527.4 977.551 533.875 977.551 541.861C977.551 549.848 984.217 556.323 992.439 556.323Z" stroke="#38363D" stroke-width="2" stroke-linecap="round" stroke-linejoin="round"/>
<path d="M1003.07 594.474C1005.4 594.554 1007.26 596.381 1007.33 598.65C1007.31 599.773 1006.84 600.845 1006.01 601.624C1005.18 602.404 1004.06 602.828 1002.91 602.8H942.089C939.719 602.8 937.793 600.935 937.778 598.624C937.847 596.356 939.71 594.529 942.036 594.448L1003.07 594.474Z" fill="#38363D"/>
<path fill-rule="evenodd" clip-rule="evenodd" d="M1003.55 588.7C993.417 587.926 981.465 581.868 981.465 570.655C981.465 570.655 981.914 561.916 982.417 552.611C979.142 549.698 977.376 545.51 977.601 541.194C977.826 536.878 980.019 532.887 983.58 530.313C983.551 528.739 982.234 527.477 980.618 527.477H964.381C963.551 527.482 962.759 527.824 962.197 528.42C961.635 529.017 961.354 529.815 961.42 530.622L963.535 570.707C963.535 581.972 951.582 588.029 941.454 588.751C936.039 589.074 931.795 593.413 931.723 598.701C931.743 601.356 932.849 603.893 934.795 605.751C936.74 607.609 939.365 608.634 942.089 608.6H1002.91C1005.63 608.607 1008.23 607.562 1010.16 605.696C1012.08 603.83 1013.16 601.296 1013.17 598.65C1013.1 593.399 1008.92 589.074 1003.55 588.7Z" stroke="#38363D" stroke-width="2" stroke-linecap="round" stroke-linejoin="round"/>
<path d="M992.439 531.988V541.861L999.341 548.589" stroke="#38363D" stroke-width="2" stroke-linecap="round"/>
<path d="M592.4 543.769C591.908 543.769 591.508 543.377 591.508 542.892V528.276C591.508 527.792 591.908 527.4 592.4 527.4C592.892 527.4 593.292 527.792 593.292 528.276V542.892C593.292 543.377 592.892 543.769 592.4 543.769Z" fill="#38363D"/>
<path d="M616 543.769C615.508 543.769 615.108 543.377 615.108 542.892V528.276C615.108 527.792 615.508 527.4 616 527.4C616.492 527.4 616.892 527.792 616.892 528.276V542.892C616.892 543.377 616.492 543.769 616 543.769Z" fill="#38363D"/>
<path d="M639.6 543.769C639.108 543.769 638.708 543.377 638.708 542.892V528.276C638.708 527.792 639.108 527.4 639.6 527.4C640.092 527.4 640.492 527.792 640.492 528.276V542.892C640.492 543.377 640.092 543.769 639.6 543.769Z" fill="#38363D"/>
<path d="M660.263 550.188V556.632H571.737V550.188C571.723 547.1 572.959 544.133 575.173 541.943C577.387 539.752 580.396 538.517 583.537 538.51H587.969V542.892C587.969 545.298 589.953 547.249 592.4 547.249C594.848 547.249 596.832 545.298 596.832 542.892V538.51H611.569V542.892C611.569 545.298 613.553 547.249 616 547.249C618.448 547.249 620.432 545.298 620.432 542.892V538.51H635.169V542.892C635.169 545.298 637.153 547.249 639.6 547.249C642.048 547.249 644.032 545.298 644.032 542.892V538.51H648.463C651.604 538.517 654.614 539.752 656.827 541.943C659.041 544.133 660.277 547.1 660.263 550.188Z" fill="#38363D"/>
<path fill-rule="evenodd" clip-rule="evenodd" d="M571.763 556.632H660.263V596.923C660.277 603.348 654.999 608.572 648.463 608.6H583.563C580.422 608.593 577.413 607.358 575.199 605.168C572.985 602.977 571.749 600.011 571.763 596.923V556.632ZM658.48 597.052V558.385H573.52V596.923C573.485 599.571 574.525 602.123 576.41 604.015C578.295 605.906 580.869 606.981 583.563 607.002H648.463C654.018 606.959 658.495 602.513 658.48 597.052Z" fill="#38363D"/>
<rect x="613.063" y="578.466" width="5.89999" height="5.85155" rx="0.87" fill="#38363D"/>
<rect x="613.063" y="591.896" width="5.89999" height="5.85155" rx="0.87" fill="#38363D"/>
<rect x="613.063" y="565.01" width="5.89999" height="5.85156" rx="0.87" fill="#38363D"/>
<rect x="626.62" y="578.466" width="5.89999" height="5.85155" rx="0.87" fill="#38363D"/>
<rect x="626.62" y="591.896" width="5.89999" height="5.85155" rx="0.87" fill="#38363D"/>
<rect x="626.62" y="565.01" width="5.89999" height="5.85156" rx="0.87" fill="#38363D"/>
<rect x="585.897" y="578.466" width="5.9" height="5.85155" rx="0.87" fill="#38363D"/>
<rect x="585.897" y="591.896" width="5.9" height="5.85155" rx="0.87" fill="#38363D"/>
<rect x="585.923" y="565.01" width="5.9" height="5.85156" rx="0.87" fill="#38363D"/>
<rect x="599.48" y="578.466" width="5.9" height="5.85155" rx="0.87" fill="#38363D"/>
<rect x="599.48" y="591.896" width="5.9" height="5.85155" rx="0.87" fill="#38363D"/>
<rect x="599.48" y="565.01" width="5.9" height="5.85156" rx="0.87" fill="#38363D"/>
<rect x="640.177" y="578.466" width="5.9" height="5.85155" rx="0.87" fill="#38363D"/>
<rect x="640.203" y="591.896" width="5.89999" height="5.85155" rx="0.87" fill="#38363D"/>
<rect x="640.177" y="565.01" width="5.9" height="5.85156" rx="0.87" fill="#38363D"/>
<path d="M1140.98 585.89V614.4" stroke="#38363D" stroke-width="2" stroke-linecap="round" stroke-linejoin="round"/>
<path d="M1125.49 614.4H1156.51" stroke="#38363D" stroke-width="2" stroke-linecap="round" stroke-linejoin="round"/>
<path d="M1126.82 567.072C1128.48 575.888 1134.22 582.384 1140.98 582.384C1147.75 582.384 1153.52 575.888 1155.17 567.072H1126.82Z" fill="#38363D"/>
<path fill-rule="evenodd" clip-rule="evenodd" d="M1149.01 545.135C1149 542.546 1149.72 540.004 1151.08 537.789H1130.36C1125.66 544.981 1123.04 553.295 1122.78 561.839C1122.78 575.141 1130.94 585.89 1140.98 585.89C1151.03 585.89 1159.34 575.141 1159.34 561.839C1159.34 560.739 1159.29 559.657 1159.18 558.591C1153.15 556.79 1149.02 551.331 1149.01 545.135V545.135Z" stroke="#38363D" stroke-width="2" stroke-linecap="round" stroke-linejoin="round"/>
<path fill-rule="evenodd" clip-rule="evenodd" d="M1163.27 553.977C1159.39 553.933 1155.98 551.457 1154.79 547.828C1153.6 544.199 1154.9 540.229 1158.03 537.969V526.781C1158.03 523.934 1160.38 521.626 1163.27 521.626C1166.17 521.626 1168.52 523.934 1168.52 526.781V537.969C1171.64 540.229 1172.94 544.199 1171.75 547.828C1170.57 551.457 1167.15 553.933 1163.27 553.977V553.977Z" stroke="#38363D" stroke-width="2" stroke-linecap="round" stroke-linejoin="round"/>
<path d="M1164.87 540.134V526.781C1164.87 526.22 1164.57 525.7 1164.07 525.42C1163.58 525.139 1162.97 525.139 1162.47 525.42C1161.98 525.7 1161.67 526.22 1161.67 526.781V540.134C1159.21 540.909 1157.69 543.33 1158.09 545.84C1158.49 548.35 1160.69 550.2 1163.27 550.2C1165.86 550.2 1168.05 548.35 1168.45 545.84C1168.85 543.33 1167.33 540.909 1164.87 540.134Z" fill="#38363D"/>
<path d="M1173.16 525.905H1179.22" stroke="#38363D" stroke-width="2" stroke-linecap="round"/>
<path d="M1173.16 531.37H1179.22" stroke="#38363D" stroke-width="2" stroke-linecap="round"/>
<path fill-rule="evenodd" clip-rule="evenodd" d="M444 613.409C450.83 613.409 456.367 607.872 456.367 601.042C456.367 594.212 450.83 588.676 444 588.676C437.17 588.676 431.633 594.212 431.633 601.042C431.633 607.872 437.17 613.409 444 613.409Z" stroke="#38363D" stroke-width="2" stroke-linecap="round" stroke-linejoin="round"/>
<path fill-rule="evenodd" clip-rule="evenodd" d="M458.84 588.676C465.67 588.676 471.207 583.139 471.207 576.309C471.207 569.479 465.67 563.942 458.84 563.942C452.01 563.942 446.473 569.479 446.473 576.309C446.473 583.139 452.01 588.676 458.84 588.676Z" stroke="#38363D" stroke-width="2" stroke-linecap="round" stroke-linejoin="round"/>
<path fill-rule="evenodd" clip-rule="evenodd" d="M444 563.942C450.83 563.942 456.367 558.406 456.367 551.576C456.367 544.746 450.83 539.209 444 539.209C437.17 539.209 431.633 544.746 431.633 551.576C431.633 558.406 437.17 563.942 444 563.942Z" stroke="#38363D" stroke-width="2" stroke-linecap="round" stroke-linejoin="round"/>
<path fill-rule="evenodd" clip-rule="evenodd" d="M473.68 563.942C480.51 563.942 486.047 558.406 486.047 551.576C486.047 544.746 480.51 539.209 473.68 539.209C466.85 539.209 461.313 544.746 461.313 551.576C461.313 558.406 466.85 563.942 473.68 563.942Z" stroke="#38363D" stroke-width="2" stroke-linecap="round" stroke-linejoin="round"/>
<path fill-rule="evenodd" clip-rule="evenodd" d="M414.32 563.942C421.15 563.942 426.687 558.406 426.687 551.576C426.687 544.746 421.15 539.209 414.32 539.209C407.49 539.209 401.953 544.746 401.953 551.576C401.953 558.406 407.49 563.942 414.32 563.942Z" stroke="#38363D" stroke-width="2" stroke-linecap="round" stroke-linejoin="round"/>
<path d="M444 531.2C446.259 528.511 447.358 525.034 447.053 521.535C446.748 518.036 445.065 514.802 442.375 512.544" stroke="#38363D" stroke-width="2" stroke-linecap="round" stroke-linejoin="round"/>
<path fill-rule="evenodd" clip-rule="evenodd" d="M429.16 588.676C435.99 588.676 441.527 583.139 441.527 576.309C441.527 569.479 435.99 563.942 429.16 563.942C422.33 563.942 416.793 569.479 416.793 576.309C416.793 583.139 422.33 588.676 429.16 588.676Z" stroke="#38363D" stroke-width="2" stroke-linecap="round" stroke-linejoin="round"/>
<path fill-rule="evenodd" clip-rule="evenodd" d="M422.204 65.1C422.204 80.5 430.223 101.975 443.298 101.975C445.128 101.953 446.931 101.526 448.577 100.725C451.257 99.2617 453.566 97.2004 455.326 94.7C457.387 91.8604 459.062 88.7581 460.307 85.475C462.047 81.0763 463.218 76.4722 463.794 71.775C464.087 69.3533 464.212 66.9141 464.167 64.475V61.775C464.035 59.5186 464.035 57.2563 464.167 55V54.925C467.386 57.4781 471.371 58.8615 475.474 58.85C483.647 58.825 490.821 53.385 493.08 45.5C493.151 45.1771 493.057 44.8402 492.831 44.6C488.901 40.834 483.514 39.004 478.113 39.6C477.391 39.7 476.694 39.825 475.996 39.975C475.314 40.1489 474.641 40.3575 473.979 40.6C473.321 40.8278 472.68 41.1035 472.062 41.425C471.442 41.7272 470.844 42.0696 470.269 42.45C469.7 42.8299 469.152 43.2388 468.625 43.675C468.096 44.1159 467.589 44.5831 467.106 45.075C466.631 45.5767 466.182 46.1024 465.761 46.65C465.337 47.1923 464.946 47.76 464.591 48.35C464.242 48.95 463.794 49.775 463.619 50.175C463.445 50.575 463.271 51 463.121 51.4C462.801 51.0688 462.502 50.7182 462.225 50.35L461.727 49.65C459.838 46.4638 457.105 43.8671 453.832 42.15C451.581 41.1966 449.194 40.606 446.76 40.4C444.515 40.1876 442.255 40.1876 440.011 40.4C435.972 40.5523 432.091 42.0174 428.953 44.575C427.672 45.8366 426.513 47.2178 425.492 48.7C424.595 50.0021 423.586 51.2234 422.478 52.35C418.362 56.2791 412.521 57.8044 407.019 56.3868C401.518 54.9692 397.13 50.8084 395.408 45.375C398.403 42.6492 402.298 41.135 406.341 41.125C410.426 41.1275 414.366 42.6507 417.398 45.4C417.562 45.5679 417.786 45.6626 418.021 45.6626C418.255 45.6626 418.479 45.5679 418.643 45.4C418.812 45.2311 418.907 45.0017 418.907 44.7625C418.907 44.5232 418.812 44.2938 418.643 44.125C411.53 37.7028 400.698 37.8333 393.739 44.425C393.517 44.6674 393.425 45.0022 393.49 45.325C395.215 51.6105 400.123 56.5108 406.394 58.2066C412.665 59.9024 419.361 58.1405 423.998 53.575C425.183 52.3745 426.258 51.0692 427.21 49.675C428.168 48.3004 429.242 47.0122 430.423 45.825C433.263 43.5527 436.755 42.2557 440.384 42.125C442.513 41.925 444.656 41.925 446.784 42.125C449.029 42.3277 451.23 42.8758 453.309 43.75C456.284 45.3021 458.768 47.6572 460.481 50.55L460.98 51.25C461.525 51.9469 462.115 52.6067 462.748 53.225C462.73 53.3251 462.71 53.4281 462.689 53.5334C462.621 53.8752 462.548 54.2428 462.548 54.625C462.404 56.9727 462.404 59.3272 462.548 61.675V64.35C462.593 66.6976 462.468 69.0454 462.175 71.375C461.627 75.9265 460.497 80.3882 458.813 84.65C457.645 87.7872 456.053 90.7483 454.081 93.45C452.498 95.7251 450.409 97.5995 447.98 98.925C446.534 99.6847 444.929 100.088 443.298 100.1C432.415 100.1 423.998 81.325 423.998 65.1C423.998 64.6029 423.596 64.2 423.101 64.2C422.606 64.2 422.204 64.6029 422.204 65.1ZM479.844 56.2581C474.472 57.7399 468.717 56.402 464.541 52.7L464.615 52.475C464.795 51.9193 465.011 51.3764 465.263 50.85C465.519 50.2741 465.81 49.7147 466.135 49.175C466.454 48.6473 466.804 48.1382 467.181 47.65C467.56 47.1523 467.968 46.6766 468.401 46.225C468.825 45.7827 469.274 45.3653 469.746 44.975C470.244 44.575 470.742 44.2 471.24 43.875C471.77 43.5289 472.319 43.2118 472.883 42.925C473.443 42.6449 474.016 42.3946 474.602 42.175C475.195 41.9589 475.803 41.7835 476.42 41.65C477.04 41.4829 477.673 41.3659 478.312 41.3C482.984 40.7346 487.673 42.2095 491.188 45.35C489.482 50.6744 485.216 54.7762 479.844 56.2581Z" fill="#38363D"/>
<path d="M430.846 45H430.672C424.959 43.7852 419.968 40.327 416.81 35.3962C413.653 30.4653 412.591 24.4714 413.862 18.75C413.909 18.5137 414.05 18.3065 414.251 18.1749C414.452 18.0433 414.698 17.9983 414.933 18.05C415.167 18.0973 415.372 18.2392 415.499 18.4425C415.626 18.6458 415.664 18.8925 415.605 19.125C413.28 30.0164 420.176 40.7418 431.02 43.1C431.501 43.2116 431.801 43.692 431.693 44.175C431.667 44.6291 431.299 44.9877 430.846 45Z" fill="#38363D"/>
<path d="M455.75 45.0001C455.255 45.0553 454.809 44.6971 454.754 44.2001C454.699 43.703 455.055 43.2553 455.55 43.2001C466.393 40.8426 473.282 30.1112 470.941 19.2251C470.889 18.9895 470.934 18.7431 471.065 18.541C471.196 18.3389 471.403 18.198 471.638 18.1501C472.122 18.0697 472.587 18.3735 472.709 18.8501C475.252 30.7133 467.758 42.4067 455.949 45.0001H455.75Z" fill="#38363D"/>
<path fill-rule="evenodd" clip-rule="evenodd" d="M959.203 55.725C959.203 59.9914 962.661 63.45 966.928 63.45C971.194 63.45 974.653 59.9914 974.653 55.725C974.653 51.4586 971.194 48 966.928 48C962.661 48 959.203 51.4586 959.203 55.725ZM961.41 53.4614C962.338 51.2358 964.517 49.7899 966.928 49.8C970.194 49.8137 972.839 52.4584 972.853 55.725C972.863 58.1361 971.417 60.3149 969.191 61.2422C966.966 62.1696 964.4 61.6621 962.695 59.9572C960.991 58.2523 960.483 55.6871 961.41 53.4614Z" fill="#38363D"/>
<path fill-rule="evenodd" clip-rule="evenodd" d="M986.203 70.1161C986.212 73.6206 989.048 76.4608 992.553 76.4749C994.265 76.4819 995.908 75.7995 997.112 74.5815C998.316 73.3635 998.979 71.7123 998.953 69.9999C998.898 66.4959 996.025 63.6933 992.52 63.7252C989.016 63.7572 986.195 66.6117 986.203 70.1161ZM988.335 68.3903C989.029 66.6677 990.696 65.5355 992.553 65.525C995.05 65.5107 997.098 67.5026 997.153 70C997.193 71.8566 996.107 73.5536 994.404 74.2948C992.702 75.0359 990.72 74.6741 989.389 73.3791C988.057 72.0842 987.641 70.113 988.335 68.3903Z" fill="#38363D"/>
<path fill-rule="evenodd" clip-rule="evenodd" d="M953.806 90.9776C954.676 93.0795 956.728 94.45 959.003 94.45C962.109 94.45 964.628 91.9316 964.628 88.825C964.628 86.5499 963.257 84.4988 961.155 83.6282C959.053 82.7575 956.634 83.2388 955.025 84.8475C953.416 86.4563 952.935 88.8757 953.806 90.9776ZM955.178 88.825C955.178 86.7125 956.89 85 959.003 85C961.109 85.0137 962.814 86.7182 962.828 88.825C962.828 90.9375 961.115 92.65 959.003 92.65C956.89 92.65 955.178 90.9375 955.178 88.825Z" fill="#38363D"/>
<path fill-rule="evenodd" clip-rule="evenodd" d="M930.812 56.0667C931.488 57.6851 933.074 58.7351 934.828 58.725C937.197 58.7114 939.114 56.7942 939.128 54.425C939.138 52.6712 938.088 51.0849 936.469 50.4091C934.851 49.7333 932.985 50.1017 931.745 51.3418C930.504 52.582 930.136 54.4483 930.812 56.0667ZM932.328 54.4C932.328 53.0193 933.447 51.9 934.828 51.9C936.208 51.9 937.328 53.0193 937.328 54.4C937.328 55.7807 936.208 56.9 934.828 56.9C933.447 56.9 932.328 55.7807 932.328 54.4Z" fill="#38363D"/>
<path fill-rule="evenodd" clip-rule="evenodd" d="M999.903 45.9C999.903 49.0066 1002.42 51.525 1005.53 51.525C1008.63 51.525 1011.15 49.0066 1011.15 45.9C1011.15 42.7934 1008.63 40.275 1005.53 40.275C1002.42 40.275 999.903 42.7934 999.903 45.9ZM1001.7 45.9C1001.7 43.7875 1003.42 42.075 1005.53 42.075C1007.63 42.0886 1009.34 43.7932 1009.35 45.9C1009.35 48.0125 1007.64 49.725 1005.53 49.725C1003.42 49.725 1001.7 48.0125 1001.7 45.9Z" fill="#38363D"/>
<path d="M920.953 105.6C920.732 105.601 920.518 105.521 920.353 105.375C920.155 105.207 920.045 104.959 920.053 104.7V83.025C920.053 83.025 920.053 82.85 920.053 82.8C920.142 82.3179 920.591 81.9889 921.078 82.05C921.394 82.0748 921.711 82.0748 922.028 82.05C925.158 81.8468 927.592 79.2489 927.592 76.1125C927.592 72.9761 925.158 70.3782 922.028 70.175C921.712 70.1493 921.394 70.1493 921.078 70.175C920.596 70.2509 920.142 69.9294 920.053 69.45V47.175C920.053 46.678 920.456 46.275 920.953 46.275C921.45 46.275 921.853 46.678 921.853 47.175V68.45C923.934 68.4166 925.943 69.2168 927.431 70.6723C928.92 72.1279 929.765 74.1182 929.778 76.2C929.764 80.4607 926.313 83.9113 922.053 83.925H921.853V103.675L1018.25 91.375V33.45L923.253 42.05C922.304 42.2175 921.38 41.648 921.103 40.725C920.939 39.8899 921.437 39.067 922.253 38.825L996.928 14.425H997.203C1005.8 14.0816 1014.11 17.5923 1019.85 24C1020.12 24.3883 1020.05 24.9206 1019.68 25.2173C1019.31 25.5141 1018.77 25.4737 1018.45 25.125C1013.05 19.2225 1005.35 15.9642 997.353 16.2L924.003 40.2L1019 31.575C1019.26 31.5361 1019.52 31.6194 1019.7 31.8C1019.92 31.9701 1020.05 32.2264 1020.05 32.5V92.175C1020.04 92.6313 1019.7 93.0134 1019.25 93.075L921.078 105.575L920.953 105.6Z" fill="#38363D"/>
<path fill-rule="evenodd" clip-rule="evenodd" d="M582.755 46.4249C583.043 73.6764 605.202 95.6241 632.455 95.6499C640.697 95.6433 648.598 92.363 654.421 86.5306C660.244 80.6982 663.512 72.7915 663.505 64.5499C663.51 61.7449 662.905 58.9723 661.73 56.4249C661.591 56.1067 661.277 55.9007 660.93 55.8999H658.08C658.456 53.9298 658.507 51.9114 658.23 49.9249C658.169 49.4866 657.798 49.1579 657.355 49.1499H616.605C616.108 49.1499 615.705 49.5529 615.705 50.0499C615.705 50.547 616.108 50.9499 616.605 50.9499H656.53C656.684 52.6211 656.592 54.3058 656.255 55.9499H623.48C621.06 55.635 618.609 56.2321 616.605 57.6249C614.954 58.9116 613.818 60.7477 613.405 62.7999C612.947 65.1103 613.463 67.5071 614.83 69.4249C617.305 72.3554 620.762 74.2839 624.555 74.8499C627.705 75.5474 630.943 75.7498 634.155 75.4499C645.005 74.3499 654.655 67.1749 657.63 57.9499V57.7499H660.23C661.144 59.9176 661.612 62.2474 661.605 64.5999C661.592 80.7137 648.569 93.7924 632.455 93.8749C605.983 93.8749 584.519 72.4222 584.505 45.9499C584.507 45.6553 584.355 45.3809 584.105 45.2249L577.305 40.4999L584.005 36.6249C584.29 36.4605 584.463 36.1538 584.455 35.8249V34.4499C584.226 28.7412 587.141 23.3654 592.051 20.4429C596.96 17.5204 603.075 17.5204 607.985 20.4429C612.894 23.3654 615.809 28.7412 615.58 34.4499C615.58 34.947 615.983 35.3499 616.48 35.3499C616.977 35.3499 617.38 34.947 617.38 34.4499C617.026 25.1171 609.357 17.7339 600.018 17.7339C590.678 17.7339 583.009 25.1171 582.655 34.4499V35.3499L575.155 39.6499C574.878 39.7977 574.705 40.086 574.705 40.3999C574.686 40.7061 574.828 41.0002 575.08 41.1749L582.755 46.4249ZM617.605 59.0499C619.231 57.9875 621.174 57.5194 623.105 57.7249L623.205 57.7499H655.705C652.505 67.0999 642.38 72.7749 633.905 73.5999C630.885 73.8843 627.84 73.6902 624.88 73.0249C621.517 72.5541 618.436 70.8852 616.205 68.3249C615.128 66.8121 614.729 64.9188 615.105 63.0999C615.436 61.4977 616.321 60.0636 617.605 59.0499Z" fill="#38363D"/>
<path fill-rule="evenodd" clip-rule="evenodd" d="M586.18 25.45C586.352 25.6049 586.574 25.6935 586.805 25.7H586.88C587.138 25.6668 587.372 25.5317 587.53 25.325C589.078 23.171 591.153 21.4496 593.555 20.325C594.003 20.116 594.462 19.9323 594.93 19.775C598.295 18.5875 601.965 18.5875 605.33 19.775C605.78 19.925 606.23 20.125 606.68 20.325L606.68 20.325C609.078 21.4571 611.15 23.1771 612.705 25.325C612.859 25.5363 613.095 25.6725 613.355 25.7C613.611 25.7048 613.86 25.6159 614.055 25.45C615.753 23.7985 616.281 21.2836 615.392 19.0884C614.503 16.8933 612.374 15.4549 610.005 15.45C609.251 15.4407 608.502 15.5853 607.805 15.875C606.833 12.4269 603.688 10.0453 600.105 10.0453C596.523 10.0453 593.377 12.4269 592.405 15.875C591.71 15.5811 590.96 15.4363 590.205 15.45C587.841 15.465 585.721 16.907 584.838 19.0999C583.956 21.2928 584.486 23.8017 586.18 25.45ZM605.905 18.1C604.042 17.4416 602.081 17.1035 600.105 17.1C598.138 17.1063 596.185 17.4444 594.33 18.1C593.81 18.278 593.301 18.4867 592.805 18.725C590.482 19.807 588.426 21.3858 586.78 23.35C586.375 22.7152 586.158 21.9783 586.155 21.225C586.155 20.1443 586.584 19.1078 587.349 18.3436C588.113 17.5793 589.149 17.15 590.23 17.15C591.064 17.1531 591.877 17.4152 592.555 17.9C592.836 18.0511 593.174 18.0511 593.455 17.9C593.734 17.766 593.929 17.5048 593.98 17.2C594.327 14.0585 596.982 11.6809 600.143 11.6809C603.303 11.6809 605.958 14.0585 606.305 17.2C606.356 17.5048 606.552 17.766 606.83 17.9C607.102 18.0513 607.433 18.0513 607.705 17.9C608.387 17.4224 609.197 17.1611 610.03 17.15C612.281 17.15 614.105 18.9745 614.105 21.225C614.098 21.9812 613.872 22.7191 613.455 23.35C611.811 21.3945 609.765 19.8169 607.455 18.725C606.955 18.5 606.43 18.275 605.905 18.1Z" fill="#38363D"/>
<path d="M629.105 110H616.605C616.108 110 615.705 109.597 615.705 109.1C615.705 108.603 616.108 108.2 616.605 108.2H628.18V94.775C628.18 94.2779 628.583 93.875 629.08 93.875C629.577 93.875 629.98 94.2779 629.98 94.775V109.1C629.98 109.587 629.593 109.986 629.105 110Z" fill="#38363D"/>
<path d="M803.286 87.3251H782.21C781.715 87.3115 781.32 86.9013 781.32 86.4C781.32 85.903 781.719 85.5 782.21 85.5H803.262C818.302 85.5 830.472 74.05 830.472 60C830.472 45.9501 818.326 34.5 803.286 34.5H767.368C756.113 34.5 746.911 45.9501 746.911 60C746.911 74.05 756.113 85.5 767.368 85.5C776.249 85.5 784.115 78.4501 786.886 68C788.272 62.7756 788.272 57.2745 786.886 52.05C785.822 47.9433 783.813 44.1485 781.023 40.975C780.807 40.7384 780.731 40.4029 780.826 40.0951C780.921 39.7872 781.17 39.5537 781.482 39.4826C781.793 39.4114 782.118 39.5134 782.334 39.75C785.343 43.1209 787.499 47.1783 788.617 51.575C790.069 57.1129 790.069 62.9372 788.617 68.475C785.723 79.725 777.263 87.3251 767.368 87.3251C755 87.3251 745.105 75.05 745.105 60C745.105 44.95 755.124 32.675 767.368 32.675H803.286C819.316 32.675 832.352 45 832.352 60C832.352 75 819.316 87.3251 803.286 87.3251Z" fill="#38363D"/>
<path fill-rule="evenodd" clip-rule="evenodd" d="M766.824 69.775C766.824 72.3984 768.928 74.525 771.524 74.525C774.12 74.525 776.224 72.3984 776.224 69.775C776.224 67.1517 774.12 65.025 771.524 65.025C768.928 65.025 766.824 67.1517 766.824 69.775ZM768.848 68.6865C769.294 67.5904 770.351 66.875 771.524 66.875C772.289 66.8683 773.026 67.1709 773.569 67.7155C774.113 68.2601 774.418 69.0015 774.418 69.775C774.428 70.9603 773.73 72.0345 772.649 72.4951C771.568 72.9557 770.319 72.7117 769.487 71.8771C768.654 71.0426 768.402 69.7826 768.848 68.6865Z" fill="#38363D"/>
<path fill-rule="evenodd" clip-rule="evenodd" d="M753.194 60C753.194 62.6096 755.287 64.725 757.869 64.725C759.109 64.725 760.299 64.2272 761.175 63.3411C762.052 62.455 762.545 61.2532 762.545 60C762.545 57.3905 760.452 55.275 757.869 55.275C755.287 55.275 753.194 57.3905 753.194 60ZM754.975 60C754.975 58.3845 756.271 57.075 757.869 57.075C759.468 57.075 760.764 58.3845 760.764 60C760.764 61.6154 759.468 62.925 757.869 62.925C756.271 62.925 754.975 61.6154 754.975 60Z" fill="#38363D"/>
<path fill-rule="evenodd" clip-rule="evenodd" d="M767.137 52.0793C767.871 53.8565 769.594 55.0101 771.499 54.9999C774.076 54.9863 776.161 52.8788 776.175 50.275C776.185 48.3492 775.043 46.608 773.285 45.8664C771.526 45.1248 769.499 45.5296 768.151 46.8913C766.804 48.253 766.403 50.3021 767.137 52.0793ZM768.808 49.1382C769.264 48.046 770.327 47.3398 771.499 47.35V47.3C772.271 47.3065 773.009 47.6245 773.548 48.1831C774.086 48.7418 774.382 49.4949 774.369 50.275C774.369 51.4603 773.661 52.5284 772.576 52.9796C771.492 53.4308 770.245 53.176 769.419 52.3342C768.594 51.4925 768.352 50.2303 768.808 49.1382Z" fill="#38363D"/>
<path d="M843.162 69.525C837.957 69.525 833.737 65.2605 833.737 60C833.737 54.7395 837.957 50.475 843.162 50.475C843.654 50.475 844.053 50.8779 844.053 51.375C844.053 51.872 843.654 52.275 843.162 52.275C838.94 52.275 835.518 55.7336 835.518 60C835.518 64.2664 838.94 67.725 843.162 67.725C843.654 67.725 844.053 68.1279 844.053 68.625C844.053 69.122 843.654 69.525 843.162 69.525Z" fill="#38363D"/>
<path d="M433.5 283.225C417.925 283.225 402.875 275.225 392.25 261.25C390.749 259.177 390.749 256.373 392.25 254.3C400.478 242.874 412.87 235.142 426.75 232.775C427.012 232.749 427.274 232.83 427.475 233C427.662 233.175 427.77 233.419 427.775 233.675V240.15C427.801 241.356 427.461 242.541 426.8 243.55C425.775 245.059 425.775 247.041 426.8 248.55C427.456 249.561 427.796 250.745 427.775 251.95C427.797 253.147 427.457 254.324 426.8 255.325C426.286 256.055 426.023 256.932 426.05 257.825C426.017 258.718 426.281 259.597 426.8 260.325C427.457 261.326 427.797 262.502 427.775 263.7C427.796 264.905 427.456 266.089 426.8 267.1C425.775 268.609 425.775 270.591 426.8 272.1C427.456 273.111 427.796 274.295 427.775 275.5C427.775 275.997 427.372 276.4 426.875 276.4C426.378 276.4 425.975 275.997 425.975 275.5C426.002 274.611 425.749 273.736 425.25 273C424.572 271.998 424.222 270.81 424.25 269.6C424.227 268.391 424.576 267.204 425.25 266.2C426.241 264.681 426.241 262.719 425.25 261.2C423.92 259.138 423.92 256.487 425.25 254.425C426.241 252.906 426.241 250.944 425.25 249.425C424.576 248.421 424.227 247.234 424.25 246.025C424.222 244.823 424.572 243.643 425.25 242.65C425.744 241.912 425.997 241.038 425.975 240.15V234.725C412.909 237.207 401.289 244.596 393.5 255.375C392.485 256.805 392.485 258.72 393.5 260.15C403.8 273.675 418.3 281.425 433.325 281.425C447.518 281.163 460.906 274.783 470.05 263.925C470.228 263.745 470.471 263.643 470.725 263.643C470.979 263.643 471.222 263.745 471.4 263.925C475.91 269.07 481.357 273.312 487.45 276.425C484.115 270.771 482.387 264.314 482.45 257.75C482.376 251.177 484.105 244.709 487.45 239.05C481.345 242.155 475.889 246.398 471.375 251.55C471.197 251.73 470.954 251.831 470.7 251.831C470.446 251.831 470.203 251.73 470.025 251.55C469.475 250.925 468.9 250.325 468.325 249.725C459.791 240.477 448.011 234.887 435.45 234.125C435.102 234.1 434.8 233.876 434.675 233.55C434.532 233.215 434.612 232.827 434.875 232.575C438.029 229.032 442.486 226.921 447.225 226.725C453.15 226.725 458.95 230.625 464 238C464.282 238.408 464.181 238.966 463.775 239.25C463.576 239.383 463.333 239.431 463.098 239.384C462.864 239.338 462.657 239.199 462.525 239C455.025 227.975 446 225.625 437.725 232.5C449.962 233.786 461.315 239.472 469.675 248.5L470.775 249.625C476.06 243.799 482.53 239.171 489.75 236.05C490.124 235.904 490.549 236.023 490.793 236.342C491.036 236.661 491.039 237.103 490.8 237.425C486.461 243.306 484.161 250.442 484.25 257.75C484.158 265.05 486.458 272.18 490.8 278.05C491.05 278.374 491.05 278.826 490.8 279.15C490.562 279.482 490.121 279.598 489.75 279.425C482.521 276.319 476.049 271.689 470.775 265.85C461.351 276.632 447.817 282.94 433.5 283.225Z" fill="#38363D"/>
<path d="M435.125 274.075C434.628 274.075 434.225 273.672 434.225 273.175C434.247 272.418 434.028 271.674 433.6 271.05C433.013 270.152 432.708 269.098 432.725 268.025C432.672 266.962 432.942 265.907 433.5 265C433.925 264.374 434.144 263.631 434.125 262.875C434.147 262.118 433.928 261.374 433.5 260.75C432.334 258.911 432.334 256.564 433.5 254.725C434.335 253.441 434.335 251.785 433.5 250.5C432.335 248.652 432.335 246.299 433.5 244.45C433.925 243.833 434.143 243.098 434.125 242.35C434.166 241.832 434.62 241.446 435.138 241.488C435.655 241.529 436.041 241.982 436 242.5C436.036 243.568 435.73 244.619 435.125 245.5C434.29 246.785 434.29 248.441 435.125 249.725C436.29 251.574 436.29 253.927 435.125 255.775C434.29 257.06 434.29 258.716 435.125 260C436.29 261.849 436.29 264.202 435.125 266.05C434.29 267.335 434.29 268.991 435.125 270.275C435.699 271.133 436.004 272.143 436 273.175C436 273.662 435.612 274.062 435.125 274.075Z" fill="#38363D"/>
<path d="M442.2 271.875C441.703 271.875 441.3 271.472 441.3 270.975C441.313 270.351 441.129 269.739 440.775 269.225C440.257 268.439 439.987 267.516 440 266.575C439.978 265.633 440.248 264.707 440.775 263.925C441.129 263.411 441.313 262.799 441.3 262.175C441.316 261.551 441.132 260.937 440.775 260.425C440.253 259.641 439.982 258.717 440 257.775C439.963 256.792 440.234 255.822 440.775 255C441.472 253.946 441.472 252.579 440.775 251.525C439.751 249.898 439.751 247.827 440.775 246.2C441.134 245.698 441.318 245.092 441.3 244.475C441.3 243.978 441.703 243.575 442.2 243.575C442.697 243.575 443.1 243.978 443.1 244.475C443.095 245.414 442.827 246.332 442.325 247.125C441.628 248.179 441.628 249.546 442.325 250.6C442.843 251.386 443.113 252.309 443.1 253.25C443.1 254.197 442.831 255.125 442.325 255.925C441.628 256.979 441.628 258.346 442.325 259.4C442.846 260.194 443.116 261.126 443.1 262.075C443.105 263.015 442.836 263.936 442.325 264.725C441.624 265.786 441.624 267.164 442.325 268.225C442.84 269.012 443.11 269.934 443.1 270.875C443.129 271.131 443.046 271.386 442.874 271.577C442.702 271.768 442.457 271.877 442.2 271.875Z" fill="#38363D"/>
<path d="M615.947 279.45H614.381C603.074 279.275 589.026 277.25 585.722 268.55C585.431 267.561 585.282 266.533 585.282 265.5C585.357 262.761 586.088 260.083 587.411 257.7C588.708 255.224 590.358 252.957 592.306 250.975C586.801 246.401 584.419 238.964 586.212 231.95C584.915 229.079 584.915 225.771 586.212 222.9C586.737 221.739 587.458 220.682 588.341 219.775C590.48 217.641 593.38 216.493 596.368 216.6C596.661 216.614 596.927 216.776 597.079 217.032C597.232 217.287 597.249 217.603 597.127 217.875C596.05 220.375 596.026 222.45 597.127 223.5C598.228 224.55 600.309 224.55 602.658 223.5C602.924 223.375 603.234 223.393 603.484 223.549C603.734 223.704 603.892 223.976 603.906 224.275C604.051 227.53 602.762 230.681 600.394 232.864C598.025 235.046 594.824 236.032 591.669 235.55C591.669 235.925 591.669 236.325 591.669 236.725C591.813 238.836 592.46 240.878 593.554 242.675C593.681 242.873 593.724 243.115 593.673 243.346C593.622 243.576 593.482 243.776 593.285 243.9C593.087 244.031 592.847 244.075 592.617 244.023C592.387 243.972 592.187 243.828 592.061 243.625C590.817 241.58 590.086 239.253 589.932 236.85C589.857 236.018 589.857 235.182 589.932 234.35C589.959 234.09 590.092 233.854 590.299 233.7C590.514 233.55 590.782 233.504 591.033 233.575C594.082 234.292 597.276 233.346 599.477 231.075C600.892 229.567 601.756 227.607 601.924 225.525C599.869 226.497 597.451 226.176 595.708 224.7C594.263 222.919 593.949 220.449 594.9 218.35C591.994 218.638 589.41 220.362 587.984 222.965C586.559 225.568 586.473 228.72 587.754 231.4C587.825 231.602 587.825 231.823 587.754 232.025C587.357 233.491 587.151 235.004 587.142 236.525C587.15 241.869 589.673 246.882 593.921 250C594.17 250.174 594.338 250.446 594.386 250.75C594.386 251.025 594.386 251.375 594.239 251.55C592.147 253.575 590.387 255.93 589.026 258.525C587.853 260.66 587.198 263.052 587.117 265.5C587.114 266.346 587.229 267.188 587.46 268C589.663 274 599.256 277.45 614.381 277.675H618.688C628.845 277.4 641.571 275.525 644.459 268.125C644.693 267.313 644.816 266.472 644.826 265.625C644.281 260.166 641.641 255.151 637.484 251.675C637.285 251.492 637.185 251.222 637.215 250.95C637.235 250.681 637.369 250.435 637.582 250.275L638.292 250.8L637.974 250C639.931 248.496 641.536 246.566 642.673 244.35C643.9 241.96 644.539 239.299 644.533 236.6C644.535 235.078 644.329 233.564 643.921 232.1C643.85 231.898 643.85 231.677 643.921 231.475C645.077 229.009 645.077 226.141 643.921 223.675C643.474 222.741 642.869 221.894 642.134 221.175C640.658 219.729 638.739 218.847 636.701 218.675C637.647 220.771 637.343 223.234 635.918 225.025C634.165 226.5 631.74 226.82 629.677 225.85C629.928 228.483 631.288 230.873 633.402 232.4C635.517 233.926 638.177 234.437 640.69 233.8C640.941 233.725 641.211 233.771 641.424 233.925C641.627 234.083 641.759 234.317 641.792 234.575C641.816 235.058 641.816 235.542 641.792 236.025C641.792 236.375 641.792 236.7 641.792 237.05C641.465 241.824 638.928 246.152 634.963 248.7C634.613 248.896 634.188 248.896 633.838 248.7C632.149 247.499 630.355 246.461 628.478 245.6C620.372 242.151 611.254 242.151 603.148 245.6C601.277 246.448 599.49 247.478 597.812 248.675C597.413 248.957 596.866 248.856 596.589 248.45C596.449 248.257 596.394 248.013 596.436 247.777C596.477 247.54 596.612 247.332 596.809 247.2C598.578 245.92 600.473 244.83 602.462 243.95C611.004 240.301 620.621 240.301 629.163 243.95C630.972 244.771 632.707 245.75 634.352 246.875C637.633 244.593 639.729 240.917 640.054 236.875C640.054 236.575 640.054 236.275 640.054 235.975V235.5C636.899 235.982 633.698 234.996 631.33 232.814C628.961 230.631 627.672 227.48 627.817 224.225C627.831 223.926 627.989 223.654 628.24 223.499C628.49 223.343 628.799 223.325 629.065 223.45C631.513 224.55 633.544 224.575 634.596 223.45C635.649 222.325 635.6 220.225 634.596 217.825C634.461 217.558 634.461 217.242 634.596 216.975C634.79 216.653 635.169 216.5 635.526 216.6C638.518 216.472 641.426 217.623 643.554 219.775C645.523 221.842 646.622 224.615 646.613 227.5C646.617 229.037 646.292 230.556 645.658 231.95C646.047 233.468 646.245 235.031 646.246 236.6C646.26 239.587 645.554 242.532 644.19 245.175C643.043 247.405 641.47 249.377 639.564 250.975C643.64 254.722 646.161 259.918 646.613 265.5C646.61 266.576 646.453 267.645 646.148 268.675C642.893 277.05 629.457 279.125 618.762 279.4L615.947 279.45Z" fill="#38363D"/>
<path d="M590.079 255.375C580.244 255.361 572.275 247.221 572.262 237.175C572.262 236.678 572.656 236.275 573.143 236.275C573.63 236.275 574.024 236.678 574.024 237.175C574.024 246.232 581.212 253.575 590.079 253.575C590.565 253.575 590.96 253.978 590.96 254.475C590.96 254.972 590.565 255.375 590.079 255.375Z" fill="#38363D"/>
<path d="M567.881 280C567.404 280 567.013 279.612 567 279.125C567 270.841 573.574 264.125 581.684 264.125C583.266 264.118 584.837 264.38 586.334 264.9C586.558 264.969 586.744 265.127 586.851 265.34C586.957 265.552 586.974 265.8 586.897 266.025C586.735 266.495 586.237 266.75 585.771 266.6C581.82 265.221 577.459 265.874 574.061 268.353C570.663 270.833 568.644 274.834 568.64 279.1C568.644 279.552 568.319 279.937 567.881 280Z" fill="#38363D"/>
<path d="M584.474 291.4C584.212 291.393 583.964 291.275 583.789 291.075C581.521 288.258 580.283 284.722 580.289 281.075C580.28 276.311 582.408 271.806 586.065 268.85C586.246 268.696 586.48 268.622 586.715 268.646C586.949 268.669 587.165 268.788 587.313 268.975C587.608 269.371 587.543 269.934 587.166 270.25C584.281 272.559 582.437 275.966 582.059 279.69C581.68 283.414 582.799 287.135 585.159 290C585.492 290.357 585.492 290.918 585.159 291.275C584.954 291.401 584.71 291.445 584.474 291.4Z" fill="#38363D"/>
<path d="M605.008 293.425H604.812C601.004 292.581 597.681 290.226 595.574 286.878C593.468 283.53 592.75 279.464 593.578 275.575C593.625 275.345 593.761 275.144 593.954 275.017C594.147 274.89 594.382 274.848 594.606 274.9C594.838 274.948 595.041 275.089 595.169 275.291C595.298 275.493 595.342 275.739 595.292 275.975C593.788 283.059 598.158 290.057 605.081 291.65C605.545 291.773 605.835 292.244 605.742 292.725C605.664 293.092 605.371 293.371 605.008 293.425Z" fill="#38363D"/>
<path d="M641.816 255.375C641.329 255.375 640.935 254.972 640.935 254.475C640.935 253.978 641.329 253.575 641.816 253.575C650.683 253.575 657.871 246.232 657.871 237.175C657.871 236.678 658.265 236.275 658.752 236.275C659.238 236.275 659.633 236.678 659.633 237.175C659.619 247.221 651.65 255.361 641.816 255.375Z" fill="#38363D"/>
<path d="M664.014 280C663.527 280 663.133 279.597 663.133 279.1C663.128 274.834 661.109 270.833 657.711 268.353C654.313 265.874 649.953 265.221 646.001 266.6C645.535 266.75 645.038 266.495 644.875 266.025C644.799 265.8 644.816 265.552 644.922 265.34C645.028 265.127 645.215 264.969 645.438 264.9C646.974 264.367 648.588 264.105 650.211 264.125C658.32 264.125 664.895 270.841 664.895 279.125C664.882 279.612 664.491 280 664.014 280Z" fill="#38363D"/>
<path d="M647.421 291.4C647.217 291.395 647.02 291.325 646.858 291.2C646.489 290.877 646.435 290.315 646.735 289.925C649.056 287.067 650.151 283.374 649.773 279.681C649.396 275.988 647.577 272.606 644.728 270.3C644.545 270.148 644.429 269.928 644.406 269.689C644.383 269.449 644.455 269.21 644.606 269.025C644.75 268.84 644.961 268.722 645.192 268.698C645.423 268.674 645.653 268.747 645.83 268.9C649.487 271.856 651.615 276.361 651.606 281.125C651.612 284.772 650.374 288.308 648.106 291.125C647.923 291.307 647.676 291.406 647.421 291.4Z" fill="#38363D"/>
<path d="M626.887 293.425C626.4 293.473 625.968 293.11 625.92 292.613C625.873 292.115 626.229 291.673 626.716 291.625C633.639 290.032 638.009 283.035 636.505 275.95C636.455 275.714 636.499 275.468 636.627 275.266C636.756 275.064 636.959 274.923 637.19 274.875C637.415 274.823 637.65 274.865 637.843 274.992C638.036 275.119 638.172 275.32 638.218 275.55C639.047 279.439 638.329 283.505 636.222 286.853C634.116 290.201 630.792 292.556 626.985 293.4L626.887 293.425Z" fill="#38363D"/>
<path d="M1183.22 95.95C1183.09 95.9841 1182.96 95.9841 1182.84 95.95L1164.16 85.275C1163.86 85.0297 1163.78 84.5999 1163.97 84.2591C1164.16 83.9183 1164.57 83.7664 1164.94 83.9L1183.61 94.6C1183.79 94.6994 1183.92 94.8678 1183.97 95.0662C1184.03 95.2645 1184 95.4755 1183.89 95.65C1183.73 95.8542 1183.48 95.9661 1183.22 95.95Z" fill="#38363D"/>
<path d="M1145.86 107.5C1118.47 107.5 1096.05 92.5 1096.05 73.875V61.375C1096.05 61.1652 1096.12 60.9616 1096.27 60.8108C1096.42 60.66 1096.62 60.5749 1096.82 60.575C1097.03 60.5749 1097.23 60.66 1097.38 60.8108C1097.53 60.9616 1097.6 61.1652 1097.6 61.375V73.875C1097.6 91.55 1119.24 105.925 1145.86 105.925C1151.89 105.934 1157.9 105.17 1163.74 103.65V76.625L1145.19 46.625C1145.01 46.3156 1145.07 45.9289 1145.31 45.675C1145.55 45.4232 1145.93 45.3713 1146.23 45.55L1183.22 66.475C1190.34 60.725 1194.25 53.525 1194.25 46.125C1194.25 28.45 1172.58 14.075 1145.98 14.075C1119.39 14.075 1097.6 28.45 1097.6 46.125C1097.6 63.8 1119.24 78.15 1145.86 78.15C1149.05 78.1468 1152.24 77.9297 1155.4 77.5C1155.6 77.4717 1155.81 77.5272 1155.97 77.6541C1156.14 77.7811 1156.25 77.9687 1156.27 78.175C1156.31 78.6002 1156.02 78.9856 1155.6 79.05C1152.37 79.4805 1149.12 79.6976 1145.86 79.7C1118.47 79.7 1096.05 64.7 1096.05 46.1C1096.05 27.5 1118.47 12.5 1145.86 12.5C1173.25 12.5 1195.67 27.5 1195.67 46.125C1195.67 54.15 1191.41 61.925 1183.64 68.025C1183.38 68.201 1183.05 68.201 1182.79 68.025L1148.1 48.3L1165.16 76C1165.24 76.1187 1165.28 76.2575 1165.28 76.4V104.25C1165.28 104.595 1165.05 104.894 1164.71 104.975C1158.57 106.655 1152.23 107.504 1145.86 107.5Z" fill="#38363D"/>
<path fill-rule="evenodd" clip-rule="evenodd" d="M1182.44 95.1749C1182.44 95.603 1182.79 95.9499 1183.22 95.9499C1183.38 95.9792 1183.55 95.9434 1183.69 95.8499C1191.46 89.7749 1195.72 81.9749 1195.72 73.9499V46.1999C1195.72 45.923 1195.57 45.6672 1195.33 45.5288C1195.09 45.3903 1194.8 45.3903 1194.56 45.5288C1194.32 45.6672 1194.17 45.923 1194.17 46.1999C1194.17 53.7499 1190.21 61.0749 1182.74 66.8749C1182.55 67.0218 1182.44 67.2551 1182.44 67.4999V95.1749ZM1183.99 93.5249V67.7999H1183.94C1188.49 64.3521 1192.03 59.7299 1194.17 54.4249V73.8749C1193.84 81.6154 1190.11 88.8109 1183.99 93.5249Z" fill="#38363D"/>
<path d="M975.303 305H974.878C973.847 304.804 973.048 303.985 972.878 302.95C971.978 297.7 968.503 291.875 964.828 285.7C959.828 277.175 953.953 267.525 952.503 255.9C951.428 246.975 952.553 235 958.653 227.5C961.169 224.391 964.717 222.289 968.653 221.575C969.076 221.486 969.501 221.72 969.653 222.125C969.804 222.521 969.658 222.969 969.303 223.2C968.953 223.425 968.353 223.9 968.353 224.425C968.353 225.425 970.553 226.8 974.128 226.8C977.703 226.8 980.053 225.375 980.053 224.375C980.053 223.375 978.753 222.575 976.328 222.15C976.035 222.109 975.783 221.924 975.657 221.657C975.531 221.389 975.548 221.077 975.703 220.825C976.551 219.296 976.99 217.574 976.978 215.825C977.128 212.451 975.433 209.263 972.553 207.5C974.758 211.03 974.845 215.487 972.778 219.1C972.517 219.479 972.013 219.601 971.608 219.383C971.204 219.164 971.029 218.676 971.203 218.25C973.584 214.41 972.64 209.388 969.028 206.675C968.683 206.458 968.521 206.042 968.628 205.65C968.747 205.266 969.101 205.004 969.503 205C974.503 205 978.653 209.825 978.653 215.725C978.674 217.441 978.342 219.143 977.678 220.725C980.178 221.425 981.728 222.8 981.728 224.45C981.728 226.825 978.478 228.625 974.228 228.625C969.978 228.625 966.728 226.825 966.728 224.45C966.715 224.3 966.715 224.15 966.728 224C964.12 224.899 961.81 226.499 960.053 228.625C954.228 235.6 953.278 247.125 954.328 255.625C955.728 266.875 961.378 276.35 966.378 284.725C970.053 291.05 973.703 297 974.653 302.5C974.689 302.797 974.91 303.038 975.203 303.1C975.471 303.13 975.73 302.99 975.853 302.75C977.628 299.375 977.178 293.825 976.678 287.4C975.903 277.925 974.953 266.125 980.553 255.55C983.404 250.188 985.251 244.351 986.003 238.325C986.12 237.296 986.179 236.261 986.178 235.225C986.206 233.312 985.936 231.405 985.378 229.575C985.279 229.267 985.353 228.93 985.571 228.691C985.788 228.451 986.117 228.347 986.433 228.416C986.749 228.485 987.004 228.717 987.103 229.025C987.712 231.034 988.007 233.126 987.978 235.225C987.978 236.275 987.978 237.375 987.803 238.5C987.015 244.759 985.1 250.823 982.153 256.4C976.778 266.4 977.703 278 978.453 287.25C979.003 293.975 979.478 299.75 977.428 303.6C977.027 304.419 976.213 304.956 975.303 305Z" fill="#38363D"/>
<path d="M1156.05 300.4C1155.81 300.375 1155.59 300.255 1155.44 300.067C1155.29 299.879 1155.22 299.639 1155.25 299.4L1158.55 266.15C1158.57 265.906 1158.69 265.68 1158.88 265.525C1159.07 265.369 1159.31 265.297 1159.55 265.325C1160.05 265.378 1160.42 265.822 1160.38 266.325L1157 299.575C1156.95 300.056 1156.54 300.416 1156.05 300.4Z" fill="#38363D"/>
<path d="M1147.15 300.4C1146.64 300.4 1146.23 299.986 1146.23 299.475V266.225C1146.3 265.779 1146.69 265.452 1147.14 265.452C1147.59 265.452 1147.98 265.779 1148.05 266.225V299.475C1148.05 299.976 1147.65 300.386 1147.15 300.4Z" fill="#38363D"/>
<path d="M1138.2 300.4C1137.74 300.39 1137.35 300.037 1137.3 299.575L1133.93 266.325C1133.88 265.822 1134.25 265.378 1134.75 265.325C1135 265.297 1135.24 265.369 1135.43 265.525C1135.62 265.68 1135.73 265.906 1135.75 266.15L1139.1 299.4C1139.13 299.639 1139.06 299.879 1138.91 300.067C1138.76 300.255 1138.54 300.375 1138.3 300.4H1138.2Z" fill="#38363D"/>
<path d="M1156.05 227.95C1155.81 227.949 1155.58 227.86 1155.4 227.7C1155.05 227.34 1155.05 226.76 1155.4 226.4L1162.13 219.7C1162.3 219.53 1162.53 219.435 1162.77 219.435C1163 219.435 1163.23 219.53 1163.4 219.7C1163.58 219.87 1163.68 220.105 1163.68 220.35C1163.68 220.595 1163.58 220.83 1163.4 221L1156.73 227.7C1156.55 227.876 1156.3 227.967 1156.05 227.95Z" fill="#38363D"/>
<path d="M1119.63 248.35C1119.38 248.351 1119.15 248.251 1118.98 248.075C1118.62 247.715 1118.62 247.135 1118.98 246.775L1125.68 240C1125.9 239.722 1126.26 239.596 1126.61 239.675C1126.95 239.754 1127.22 240.025 1127.3 240.371C1127.38 240.717 1127.26 241.078 1126.98 241.3L1120.25 248.075C1120.09 248.245 1119.86 248.344 1119.63 248.35Z" fill="#38363D"/>
<path d="M1138.2 226.55C1137.96 226.551 1137.72 226.451 1137.55 226.275L1130.85 219.575C1130.5 219.215 1130.5 218.635 1130.85 218.275C1131.02 218.106 1131.25 218.01 1131.49 218.01C1131.73 218.01 1131.96 218.106 1132.13 218.275L1138.85 225C1139.21 225.36 1139.21 225.94 1138.85 226.3C1138.67 226.458 1138.44 226.547 1138.2 226.55Z" fill="#38363D"/>
<path d="M1150.13 252.1C1149.89 252.103 1149.67 252.013 1149.5 251.85L1142.78 245.125C1142.61 244.956 1142.51 244.727 1142.51 244.488C1142.51 244.248 1142.61 244.019 1142.78 243.85C1142.95 243.673 1143.18 243.573 1143.43 243.573C1143.67 243.573 1143.91 243.673 1144.08 243.85L1150.78 250.55C1151.05 250.808 1151.13 251.205 1150.99 251.549C1150.84 251.892 1150.5 252.112 1150.13 252.1Z" fill="#38363D"/>
<path d="M1170.18 249.075C1169.93 249.065 1169.7 248.968 1169.53 248.8L1162.83 242.1C1162.55 241.878 1162.42 241.517 1162.5 241.171C1162.58 240.825 1162.85 240.554 1163.2 240.475C1163.54 240.396 1163.91 240.522 1164.13 240.8L1170.83 247.5C1171.18 247.86 1171.18 248.44 1170.83 248.8C1170.66 248.976 1170.42 249.076 1170.18 249.075Z" fill="#38363D"/>
<path d="M1165 305H1129.28C1128.83 304.994 1128.45 304.667 1128.38 304.225L1122.43 266.725C1122.35 266.23 1122.68 265.764 1123.18 265.675C1123.68 265.614 1124.14 265.954 1124.23 266.45L1130.05 303.175H1164.23L1170.68 262.5H1125.1C1116.5 262.426 1109.11 256.37 1107.35 247.949C1105.59 239.529 1109.93 231.017 1117.78 227.5C1116.46 222.056 1117.73 216.31 1121.2 211.917C1124.68 207.525 1129.98 204.974 1135.58 205C1139.33 204.984 1142.99 206.137 1146.05 208.3C1149.12 206.137 1152.78 204.984 1156.53 205C1162.13 204.974 1167.43 207.525 1170.9 211.917C1174.38 216.31 1175.64 222.056 1174.33 227.5C1180.97 230.434 1185.26 236.992 1185.3 244.25C1185.32 248.362 1183.94 252.356 1181.38 255.575C1181.23 255.766 1181.01 255.889 1180.77 255.917C1180.53 255.946 1180.29 255.876 1180.1 255.725C1179.91 255.577 1179.79 255.359 1179.76 255.119C1179.73 254.879 1179.8 254.638 1179.95 254.45C1182.27 251.555 1183.54 247.959 1183.55 244.25C1183.53 237.445 1179.34 231.348 1173 228.875C1172.56 228.71 1172.32 228.229 1172.45 227.775C1172.86 226.318 1173.07 224.813 1173.08 223.3C1173.07 218.92 1171.32 214.722 1168.22 211.631C1165.11 208.541 1160.91 206.812 1156.53 206.825C1152.92 206.796 1149.4 207.965 1146.53 210.15C1146.2 210.4 1145.75 210.4 1145.43 210.15C1142.55 207.965 1139.04 206.796 1135.43 206.825C1126.39 206.921 1119.12 214.265 1119.1 223.3C1119.11 224.813 1119.32 226.318 1119.73 227.775C1119.86 228.229 1119.62 228.71 1119.18 228.875C1111.77 231.727 1107.45 239.458 1108.9 247.263C1110.35 255.068 1117.16 260.728 1125.1 260.725H1171.73C1172 260.712 1172.26 260.824 1172.43 261.03C1172.61 261.235 1172.68 261.51 1172.63 261.775L1165.9 304.275C1165.82 304.703 1165.44 305.008 1165 305Z" fill="#38363D"/>
<path d="M794.93 294.675C769.157 294.675 748.263 273.409 748.263 247.175C748.263 246.678 748.659 246.275 749.147 246.275H832.681C832.102 235.568 824.18 226.765 813.753 225.241C803.325 223.716 793.289 229.892 789.772 240C789.656 240.356 789.33 240.598 788.961 240.6C788.597 240.593 788.266 240.382 788.102 240.05C785.865 234.238 782.47 228.96 778.13 224.55C769.377 215.715 757.468 210.886 745.144 211.175C744.878 221.209 747.855 231.054 753.618 239.2C753.844 239.599 753.737 240.108 753.37 240.378C753.003 240.648 752.495 240.593 752.193 240.25C746.016 231.556 742.9 220.995 743.351 210.275C743.374 209.811 743.731 209.437 744.186 209.4C757.309 208.808 770.075 213.841 779.382 223.275C783.368 227.327 786.59 232.089 788.888 237.325C793.443 226.856 804.577 221.063 815.582 223.436C826.587 225.809 834.456 235.7 834.449 247.15C834.449 247.647 834.053 248.05 833.565 248.05H750.056C750.815 272.927 770.973 292.623 795.424 292.378C819.875 292.133 839.648 272.037 839.926 247.15C839.926 246.653 840.322 246.25 840.811 246.25C841.299 246.25 841.695 246.653 841.695 247.15C841.701 259.769 836.774 271.873 828 280.789C819.227 289.705 807.328 294.702 794.93 294.675Z" fill="#38363D"/>
<path d="M773.168 240.625C772.936 240.619 772.716 240.52 772.554 240.35L749.074 216.45C748.728 216.098 748.728 215.527 749.074 215.175C749.42 214.823 749.98 214.823 750.326 215.175L773.807 239.075C773.974 239.244 774.067 239.473 774.067 239.712C774.067 239.952 773.974 240.181 773.807 240.35C773.637 240.522 773.408 240.62 773.168 240.625Z" fill="#38363D"/>
<path d="M818.312 300.625H770.368C769.889 300.625 769.497 300.237 769.484 299.75V292.25C769.484 291.753 769.88 291.35 770.368 291.35C770.857 291.35 771.253 291.753 771.253 292.25V298.9H817.428V292.2C817.428 291.703 817.824 291.3 818.312 291.3C818.801 291.3 819.196 291.703 819.196 292.2V299.7C819.203 299.943 819.113 300.178 818.946 300.353C818.78 300.527 818.551 300.625 818.312 300.625Z" fill="#38363D"/>
<path d="M810.551 235C810.298 235.002 810.057 234.893 809.888 234.702C809.719 234.511 809.639 234.256 809.667 234V227.85C809.667 227.353 810.063 226.95 810.551 226.95C811.039 226.95 811.435 227.353 811.435 227.85V234C811.463 234.256 811.383 234.511 811.214 234.702C811.045 234.893 810.803 235.002 810.551 235Z" fill="#38363D"/>
<path d="M817.035 236.475C816.89 236.51 816.738 236.51 816.593 236.475C816.171 236.215 816.029 235.661 816.274 235.225L819.295 229.9C819.559 229.521 820.064 229.41 820.459 229.643C820.854 229.877 821.01 230.378 820.818 230.8L817.796 236.125C817.616 236.364 817.33 236.495 817.035 236.475Z" fill="#38363D"/>
<path d="M821.947 241.15C821.624 241.157 821.323 240.985 821.161 240.7C821.04 240.493 821.008 240.244 821.073 240.012C821.138 239.78 821.295 239.586 821.505 239.475L826.737 236.4C827.01 236.202 827.37 236.179 827.666 236.339C827.962 236.5 828.143 236.818 828.133 237.159C828.124 237.5 827.925 237.806 827.621 237.95L822.389 241.05C822.252 241.119 822.1 241.153 821.947 241.15Z" fill="#38363D"/>
<path d="M799.547 241.8C799.393 241.794 799.241 241.751 799.105 241.675L793.874 238.575C793.501 238.306 793.392 237.792 793.622 237.39C793.851 236.988 794.343 236.83 794.758 237.025L799.989 240C800.197 240.12 800.349 240.321 800.409 240.556C800.469 240.792 800.433 241.042 800.309 241.25C800.183 241.57 799.885 241.785 799.547 241.8Z" fill="#38363D"/>
<path d="M804.14 236.85C803.829 236.839 803.543 236.67 803.379 236.4L800.358 231.05C800.116 230.622 800.258 230.075 800.677 229.825C801.1 229.593 801.627 229.735 801.881 230.15L804.902 235.5C805.025 235.704 805.06 235.951 805 236.182C804.94 236.414 804.789 236.61 804.582 236.725C804.448 236.805 804.296 236.848 804.14 236.85Z" fill="#38363D"/>
<path d="M80.21 558.505H82.625C82.885 558.505 83.1 558.57 83.27 558.7C83.44 558.83 83.555 558.995 83.615 559.195L88.055 574.135C88.135 574.405 88.205 574.695 88.265 575.005C88.335 575.315 88.4 575.64 88.46 575.98C88.53 575.64 88.6 575.315 88.67 575.005C88.74 574.685 88.82 574.395 88.91 574.135L93.965 559.195C94.025 559.025 94.14 558.87 94.31 558.73C94.49 558.58 94.705 558.505 94.955 558.505H95.795C96.055 558.505 96.265 558.57 96.425 558.7C96.595 558.83 96.715 558.995 96.785 559.195L101.81 574.135C101.99 574.655 102.15 575.25 102.29 575.92C102.35 575.59 102.405 575.275 102.455 574.975C102.505 574.675 102.57 574.395 102.65 574.135L107.105 559.195C107.155 559.015 107.265 558.855 107.435 558.715C107.615 558.575 107.83 558.505 108.08 558.505H110.345L103.64 580H101.03L95.585 563.605C95.475 563.295 95.375 562.935 95.285 562.525C95.235 562.725 95.185 562.92 95.135 563.11C95.095 563.29 95.05 563.455 95 563.605L89.525 580H86.915L80.21 558.505ZM115.717 564.805V580H113.047V564.805H115.717ZM116.317 560.035C116.317 560.295 116.262 560.54 116.152 560.77C116.052 560.99 115.912 561.19 115.732 561.37C115.562 561.54 115.362 561.675 115.132 561.775C114.902 561.875 114.657 561.925 114.397 561.925C114.137 561.925 113.892 561.875 113.662 561.775C113.442 561.675 113.242 561.54 113.062 561.37C112.892 561.19 112.757 560.99 112.657 560.77C112.557 560.54 112.507 560.295 112.507 560.035C112.507 559.775 112.557 559.53 112.657 559.3C112.757 559.06 112.892 558.855 113.062 558.685C113.242 558.505 113.442 558.365 113.662 558.265C113.892 558.165 114.137 558.115 114.397 558.115C114.657 558.115 114.902 558.165 115.132 558.265C115.362 558.365 115.562 558.505 115.732 558.685C115.912 558.855 116.052 559.06 116.152 559.3C116.262 559.53 116.317 559.775 116.317 560.035ZM120.422 580V564.805H122.012C122.392 564.805 122.632 564.99 122.732 565.36L122.942 567.01C123.602 566.28 124.337 565.69 125.147 565.24C125.967 564.79 126.912 564.565 127.982 564.565C128.812 564.565 129.542 564.705 130.172 564.985C130.812 565.255 131.342 565.645 131.762 566.155C132.192 566.655 132.517 567.26 132.737 567.97C132.957 568.68 133.067 569.465 133.067 570.325V580H130.397V570.325C130.397 569.175 130.132 568.285 129.602 567.655C129.082 567.015 128.282 566.695 127.202 566.695C126.412 566.695 125.672 566.885 124.982 567.265C124.302 567.645 123.672 568.16 123.092 568.81V580H120.422ZM143.107 564.565C144.017 564.565 144.857 564.72 145.627 565.03C146.397 565.33 147.062 565.77 147.622 566.35C148.182 566.92 148.617 567.63 148.927 568.48C149.247 569.32 149.407 570.28 149.407 571.36C149.407 571.78 149.362 572.06 149.272 572.2C149.182 572.34 149.012 572.41 148.762 572.41H138.652C138.672 573.37 138.802 574.205 139.042 574.915C139.282 575.625 139.612 576.22 140.032 576.7C140.452 577.17 140.952 577.525 141.532 577.765C142.112 577.995 142.762 578.11 143.482 578.11C144.152 578.11 144.727 578.035 145.207 577.885C145.697 577.725 146.117 577.555 146.467 577.375C146.817 577.195 147.107 577.03 147.337 576.88C147.577 576.72 147.782 576.64 147.952 576.64C148.172 576.64 148.342 576.725 148.462 576.895L149.212 577.87C148.882 578.27 148.487 578.62 148.027 578.92C147.567 579.21 147.072 579.45 146.542 579.64C146.022 579.83 145.482 579.97 144.922 580.06C144.362 580.16 143.807 580.21 143.257 580.21C142.207 580.21 141.237 580.035 140.347 579.685C139.467 579.325 138.702 578.805 138.052 578.125C137.412 577.435 136.912 576.585 136.552 575.575C136.192 574.565 136.012 573.405 136.012 572.095C136.012 571.035 136.172 570.045 136.492 569.125C136.822 568.205 137.292 567.41 137.902 566.74C138.512 566.06 139.257 565.53 140.137 565.15C141.017 564.76 142.007 564.565 143.107 564.565ZM143.167 566.53C141.877 566.53 140.862 566.905 140.122 567.655C139.382 568.395 138.922 569.425 138.742 570.745H147.007C147.007 570.125 146.922 569.56 146.752 569.05C146.582 568.53 146.332 568.085 146.002 567.715C145.672 567.335 145.267 567.045 144.787 566.845C144.317 566.635 143.777 566.53 143.167 566.53ZM159.226 580V567.085L157.546 566.89C157.336 566.84 157.161 566.765 157.021 566.665C156.891 566.555 156.826 566.4 156.826 566.2V565.105H159.226V563.635C159.226 562.765 159.346 561.995 159.586 561.325C159.836 560.645 160.186 560.075 160.636 559.615C161.096 559.145 161.646 558.79 162.286 558.55C162.926 558.31 163.646 558.19 164.446 558.19C165.126 558.19 165.756 558.29 166.336 558.49L166.276 559.825C166.266 560.025 166.181 560.145 166.021 560.185C165.861 560.225 165.636 560.245 165.346 560.245H164.881C164.421 560.245 164.001 560.305 163.621 560.425C163.251 560.545 162.931 560.74 162.661 561.01C162.391 561.28 162.181 561.635 162.031 562.075C161.891 562.515 161.821 563.06 161.821 563.71V565.105H166.216V567.04H161.911V580H159.226ZM179.893 580H178.708C178.448 580 178.238 579.96 178.078 579.88C177.918 579.8 177.813 579.63 177.763 579.37L177.463 577.96C177.063 578.32 176.673 578.645 176.293 578.935C175.913 579.215 175.513 579.455 175.093 579.655C174.673 579.845 174.223 579.99 173.743 580.09C173.273 580.19 172.748 580.24 172.168 580.24C171.578 580.24 171.023 580.16 170.503 580C169.993 579.83 169.548 579.58 169.168 579.25C168.788 578.92 168.483 578.505 168.253 578.005C168.033 577.495 167.923 576.895 167.923 576.205C167.923 575.605 168.088 575.03 168.418 574.48C168.748 573.92 169.278 573.425 170.008 572.995C170.748 572.565 171.713 572.215 172.903 571.945C174.093 571.665 175.548 571.505 177.268 571.465V570.28C177.268 569.1 177.013 568.21 176.503 567.61C176.003 567 175.258 566.695 174.268 566.695C173.618 566.695 173.068 566.78 172.618 566.95C172.178 567.11 171.793 567.295 171.463 567.505C171.143 567.705 170.863 567.89 170.623 568.06C170.393 568.22 170.163 568.3 169.933 568.3C169.753 568.3 169.593 568.255 169.453 568.165C169.323 568.065 169.218 567.945 169.138 567.805L168.658 566.95C169.498 566.14 170.403 565.535 171.373 565.135C172.343 564.735 173.418 564.535 174.598 564.535C175.448 564.535 176.203 564.675 176.863 564.955C177.523 565.235 178.078 565.625 178.528 566.125C178.978 566.625 179.318 567.23 179.548 567.94C179.778 568.65 179.893 569.43 179.893 570.28V580ZM172.963 578.365C173.433 578.365 173.863 578.32 174.253 578.23C174.643 578.13 175.008 577.995 175.348 577.825C175.698 577.645 176.028 577.43 176.338 577.18C176.658 576.93 176.968 576.645 177.268 576.325V573.16C176.038 573.2 174.993 573.3 174.133 573.46C173.273 573.61 172.573 573.81 172.033 574.06C171.493 574.31 171.098 574.605 170.848 574.945C170.608 575.285 170.488 575.665 170.488 576.085C170.488 576.485 170.553 576.83 170.683 577.12C170.813 577.41 170.988 577.65 171.208 577.84C171.428 578.02 171.688 578.155 171.988 578.245C172.288 578.325 172.613 578.365 172.963 578.365ZM194.303 567.505C194.223 567.615 194.143 567.7 194.063 567.76C193.983 567.82 193.868 567.85 193.718 567.85C193.568 567.85 193.403 567.79 193.223 567.67C193.053 567.54 192.833 567.4 192.563 567.25C192.293 567.1 191.963 566.965 191.573 566.845C191.193 566.715 190.723 566.65 190.163 566.65C189.423 566.65 188.768 566.785 188.198 567.055C187.628 567.315 187.148 567.695 186.758 568.195C186.378 568.695 186.088 569.3 185.888 570.01C185.698 570.72 185.603 571.515 185.603 572.395C185.603 573.315 185.708 574.135 185.918 574.855C186.128 575.565 186.423 576.165 186.803 576.655C187.183 577.135 187.643 577.505 188.183 577.765C188.733 578.015 189.348 578.14 190.028 578.14C190.678 578.14 191.213 578.065 191.633 577.915C192.053 577.755 192.403 577.58 192.683 577.39C192.963 577.2 193.193 577.03 193.373 576.88C193.553 576.72 193.733 576.64 193.913 576.64C194.143 576.64 194.313 576.725 194.423 576.895L195.173 577.87C194.513 578.68 193.688 579.275 192.698 579.655C191.708 580.025 190.663 580.21 189.563 580.21C188.613 580.21 187.728 580.035 186.908 579.685C186.098 579.335 185.393 578.83 184.793 578.17C184.193 577.5 183.718 576.68 183.368 575.71C183.028 574.74 182.858 573.635 182.858 572.395C182.858 571.265 183.013 570.22 183.323 569.26C183.643 568.3 184.103 567.475 184.703 566.785C185.313 566.085 186.063 565.54 186.953 565.15C187.843 564.76 188.863 564.565 190.013 564.565C191.073 564.565 192.013 564.74 192.833 565.09C193.653 565.43 194.378 565.915 195.008 566.545L194.303 567.505ZM202.547 580.24C201.347 580.24 200.422 579.905 199.772 579.235C199.132 578.565 198.812 577.6 198.812 576.34V567.04H196.982C196.822 567.04 196.687 566.995 196.577 566.905C196.467 566.805 196.412 566.655 196.412 566.455V565.39L198.902 565.075L199.517 560.38C199.537 560.23 199.602 560.11 199.712 560.02C199.822 559.92 199.962 559.87 200.132 559.87H201.482V565.105H205.832V567.04H201.482V576.16C201.482 576.8 201.637 577.275 201.947 577.585C202.257 577.895 202.657 578.05 203.147 578.05C203.427 578.05 203.667 578.015 203.867 577.945C204.077 577.865 204.257 577.78 204.407 577.69C204.557 577.6 204.682 577.52 204.782 577.45C204.892 577.37 204.987 577.33 205.067 577.33C205.207 577.33 205.332 577.415 205.442 577.585L206.222 578.86C205.762 579.29 205.207 579.63 204.557 579.88C203.907 580.12 203.237 580.24 202.547 580.24ZM217.833 567.31C217.713 567.53 217.528 567.64 217.278 567.64C217.128 567.64 216.958 567.585 216.768 567.475C216.578 567.365 216.343 567.245 216.063 567.115C215.793 566.975 215.468 566.85 215.088 566.74C214.708 566.62 214.258 566.56 213.738 566.56C213.288 566.56 212.883 566.62 212.523 566.74C212.163 566.85 211.853 567.005 211.593 567.205C211.343 567.405 211.148 567.64 211.008 567.91C210.878 568.17 210.813 568.455 210.813 568.765C210.813 569.155 210.923 569.48 211.143 569.74C211.373 570 211.673 570.225 212.043 570.415C212.413 570.605 212.833 570.775 213.303 570.925C213.773 571.065 214.253 571.22 214.743 571.39C215.243 571.55 215.728 571.73 216.198 571.93C216.668 572.13 217.088 572.38 217.458 572.68C217.828 572.98 218.123 573.35 218.343 573.79C218.573 574.22 218.688 574.74 218.688 575.35C218.688 576.05 218.563 576.7 218.313 577.3C218.063 577.89 217.693 578.405 217.203 578.845C216.713 579.275 216.113 579.615 215.403 579.865C214.693 580.115 213.873 580.24 212.943 580.24C211.883 580.24 210.923 580.07 210.063 579.73C209.203 579.38 208.473 578.935 207.873 578.395L208.503 577.375C208.583 577.245 208.678 577.145 208.788 577.075C208.898 577.005 209.043 576.97 209.223 576.97C209.403 576.97 209.593 577.04 209.793 577.18C209.993 577.32 210.233 577.475 210.513 577.645C210.803 577.815 211.148 577.97 211.548 578.11C211.958 578.25 212.468 578.32 213.078 578.32C213.598 578.32 214.053 578.255 214.443 578.125C214.833 577.985 215.158 577.8 215.418 577.57C215.678 577.34 215.868 577.075 215.988 576.775C216.118 576.475 216.183 576.155 216.183 575.815C216.183 575.395 216.068 575.05 215.838 574.78C215.618 574.5 215.323 574.265 214.953 574.075C214.583 573.875 214.158 573.705 213.678 573.565C213.208 573.415 212.723 573.26 212.223 573.1C211.733 572.94 211.248 572.76 210.768 572.56C210.298 572.35 209.878 572.09 209.508 571.78C209.138 571.47 208.838 571.09 208.608 570.64C208.388 570.18 208.278 569.625 208.278 568.975C208.278 568.395 208.398 567.84 208.638 567.31C208.878 566.77 209.228 566.3 209.688 565.9C210.148 565.49 210.713 565.165 211.383 564.925C212.053 564.685 212.818 564.565 213.678 564.565C214.678 564.565 215.573 564.725 216.363 565.045C217.163 565.355 217.853 565.785 218.433 566.335L217.833 567.31Z" fill="black"/>
<path d="M95.855 50.505V52.875H85.535V60.39H94.355V62.76H85.535V72H82.61V50.505H95.855ZM104.278 56.565C105.388 56.565 106.388 56.75 107.278 57.12C108.178 57.49 108.938 58.015 109.558 58.695C110.188 59.375 110.668 60.2 110.998 61.17C111.338 62.13 111.508 63.205 111.508 64.395C111.508 65.595 111.338 66.675 110.998 67.635C110.668 68.595 110.188 69.415 109.558 70.095C108.938 70.775 108.178 71.3 107.278 71.67C106.388 72.03 105.388 72.21 104.278 72.21C103.168 72.21 102.163 72.03 101.263 71.67C100.373 71.3 99.6125 70.775 98.9825 70.095C98.3525 69.415 97.8675 68.595 97.5275 67.635C97.1875 66.675 97.0175 65.595 97.0175 64.395C97.0175 63.205 97.1875 62.13 97.5275 61.17C97.8675 60.2 98.3525 59.375 98.9825 58.695C99.6125 58.015 100.373 57.49 101.263 57.12C102.163 56.75 103.168 56.565 104.278 56.565ZM104.278 70.125C105.778 70.125 106.898 69.625 107.638 68.625C108.378 67.615 108.748 66.21 108.748 64.41C108.748 62.6 108.378 61.19 107.638 60.18C106.898 59.17 105.778 58.665 104.278 58.665C103.518 58.665 102.858 58.795 102.298 59.055C101.738 59.315 101.268 59.69 100.888 60.18C100.518 60.67 100.238 61.275 100.048 61.995C99.8675 62.705 99.7775 63.51 99.7775 64.41C99.7775 65.31 99.8675 66.115 100.048 66.825C100.238 67.535 100.518 68.135 100.888 68.625C101.268 69.105 101.738 69.475 102.298 69.735C102.858 69.995 103.518 70.125 104.278 70.125ZM120.947 56.565C122.057 56.565 123.057 56.75 123.947 57.12C124.847 57.49 125.607 58.015 126.227 58.695C126.857 59.375 127.337 60.2 127.667 61.17C128.007 62.13 128.177 63.205 128.177 64.395C128.177 65.595 128.007 66.675 127.667 67.635C127.337 68.595 126.857 69.415 126.227 70.095C125.607 70.775 124.847 71.3 123.947 71.67C123.057 72.03 122.057 72.21 120.947 72.21C119.837 72.21 118.832 72.03 117.932 71.67C117.042 71.3 116.282 70.775 115.652 70.095C115.022 69.415 114.537 68.595 114.197 67.635C113.857 66.675 113.687 65.595 113.687 64.395C113.687 63.205 113.857 62.13 114.197 61.17C114.537 60.2 115.022 59.375 115.652 58.695C116.282 58.015 117.042 57.49 117.932 57.12C118.832 56.75 119.837 56.565 120.947 56.565ZM120.947 70.125C122.447 70.125 123.567 69.625 124.307 68.625C125.047 67.615 125.417 66.21 125.417 64.41C125.417 62.6 125.047 61.19 124.307 60.18C123.567 59.17 122.447 58.665 120.947 58.665C120.187 58.665 119.527 58.795 118.967 59.055C118.407 59.315 117.937 59.69 117.557 60.18C117.187 60.67 116.907 61.275 116.717 61.995C116.537 62.705 116.447 63.51 116.447 64.41C116.447 65.31 116.537 66.115 116.717 66.825C116.907 67.535 117.187 68.135 117.557 68.625C117.937 69.105 118.407 69.475 118.967 69.735C119.527 69.995 120.187 70.125 120.947 70.125ZM142.162 72C141.782 72 141.542 71.815 141.442 71.445L141.202 69.6C140.552 70.39 139.807 71.025 138.967 71.505C138.137 71.975 137.182 72.21 136.102 72.21C135.232 72.21 134.442 72.045 133.732 71.715C133.022 71.375 132.417 70.88 131.917 70.23C131.417 69.58 131.032 68.77 130.762 67.8C130.492 66.83 130.357 65.715 130.357 64.455C130.357 63.335 130.507 62.295 130.807 61.335C131.107 60.365 131.537 59.525 132.097 58.815C132.667 58.105 133.357 57.55 134.167 57.15C134.977 56.74 135.897 56.535 136.927 56.535C137.857 56.535 138.652 56.695 139.312 57.015C139.972 57.325 140.562 57.765 141.082 58.335V49.905H143.752V72H142.162ZM136.987 70.05C137.857 70.05 138.617 69.85 139.267 69.45C139.927 69.05 140.532 68.485 141.082 67.755V60.405C140.592 59.745 140.052 59.285 139.462 59.025C138.882 58.755 138.237 58.62 137.527 58.62C136.107 58.62 135.017 59.125 134.257 60.135C133.497 61.145 133.117 62.585 133.117 64.455C133.117 65.445 133.202 66.295 133.372 67.005C133.542 67.705 133.792 68.285 134.122 68.745C134.452 69.195 134.857 69.525 135.337 69.735C135.817 69.945 136.367 70.05 136.987 70.05ZM154.026 77.145V56.805H155.616C155.996 56.805 156.236 56.99 156.336 57.36L156.561 59.16C157.211 58.37 157.951 57.735 158.781 57.255C159.621 56.775 160.586 56.535 161.676 56.535C162.546 56.535 163.336 56.705 164.046 57.045C164.756 57.375 165.361 57.87 165.861 58.53C166.361 59.18 166.746 59.99 167.016 60.96C167.286 61.93 167.421 63.045 167.421 64.305C167.421 65.425 167.271 66.47 166.971 67.44C166.671 68.4 166.241 69.235 165.681 69.945C165.121 70.645 164.431 71.2 163.611 71.61C162.801 72.01 161.886 72.21 160.866 72.21C159.926 72.21 159.121 72.055 158.451 71.745C157.791 71.435 157.206 70.995 156.696 70.425V77.145H154.026ZM160.791 58.695C159.921 58.695 159.156 58.895 158.496 59.295C157.846 59.695 157.246 60.26 156.696 60.99V68.34C157.186 69 157.721 69.465 158.301 69.735C158.891 70.005 159.546 70.14 160.266 70.14C161.676 70.14 162.761 69.635 163.521 68.625C164.281 67.615 164.661 66.175 164.661 64.305C164.661 63.315 164.571 62.465 164.391 61.755C164.221 61.045 163.971 60.465 163.641 60.015C163.311 59.555 162.906 59.22 162.426 59.01C161.946 58.8 161.401 58.695 160.791 58.695ZM181.739 72H180.554C180.294 72 180.084 71.96 179.924 71.88C179.764 71.8 179.659 71.63 179.609 71.37L179.309 69.96C178.909 70.32 178.519 70.645 178.139 70.935C177.759 71.215 177.359 71.455 176.939 71.655C176.519 71.845 176.069 71.99 175.589 72.09C175.119 72.19 174.594 72.24 174.014 72.24C173.424 72.24 172.869 72.16 172.349 72C171.839 71.83 171.394 71.58 171.014 71.25C170.634 70.92 170.329 70.505 170.099 70.005C169.879 69.495 169.769 68.895 169.769 68.205C169.769 67.605 169.934 67.03 170.264 66.48C170.594 65.92 171.124 65.425 171.854 64.995C172.594 64.565 173.559 64.215 174.749 63.945C175.939 63.665 177.394 63.505 179.114 63.465V62.28C179.114 61.1 178.859 60.21 178.349 59.61C177.849 59 177.104 58.695 176.114 58.695C175.464 58.695 174.914 58.78 174.464 58.95C174.024 59.11 173.639 59.295 173.309 59.505C172.989 59.705 172.709 59.89 172.469 60.06C172.239 60.22 172.009 60.3 171.779 60.3C171.599 60.3 171.439 60.255 171.299 60.165C171.169 60.065 171.064 59.945 170.984 59.805L170.504 58.95C171.344 58.14 172.249 57.535 173.219 57.135C174.189 56.735 175.264 56.535 176.444 56.535C177.294 56.535 178.049 56.675 178.709 56.955C179.369 57.235 179.924 57.625 180.374 58.125C180.824 58.625 181.164 59.23 181.394 59.94C181.624 60.65 181.739 61.43 181.739 62.28V72ZM174.809 70.365C175.279 70.365 175.709 70.32 176.099 70.23C176.489 70.13 176.854 69.995 177.194 69.825C177.544 69.645 177.874 69.43 178.184 69.18C178.504 68.93 178.814 68.645 179.114 68.325V65.16C177.884 65.2 176.839 65.3 175.979 65.46C175.119 65.61 174.419 65.81 173.879 66.06C173.339 66.31 172.944 66.605 172.694 66.945C172.454 67.285 172.334 67.665 172.334 68.085C172.334 68.485 172.399 68.83 172.529 69.12C172.659 69.41 172.834 69.65 173.054 69.84C173.274 70.02 173.534 70.155 173.834 70.245C174.134 70.325 174.459 70.365 174.809 70.365ZM188.754 56.805V72H186.084V56.805H188.754ZM189.354 52.035C189.354 52.295 189.299 52.54 189.189 52.77C189.089 52.99 188.949 53.19 188.769 53.37C188.599 53.54 188.399 53.675 188.169 53.775C187.939 53.875 187.694 53.925 187.434 53.925C187.174 53.925 186.929 53.875 186.699 53.775C186.479 53.675 186.279 53.54 186.099 53.37C185.929 53.19 185.794 52.99 185.694 52.77C185.594 52.54 185.544 52.295 185.544 52.035C185.544 51.775 185.594 51.53 185.694 51.3C185.794 51.06 185.929 50.855 186.099 50.685C186.279 50.505 186.479 50.365 186.699 50.265C186.929 50.165 187.174 50.115 187.434 50.115C187.694 50.115 187.939 50.165 188.169 50.265C188.399 50.365 188.599 50.505 188.769 50.685C188.949 50.855 189.089 51.06 189.189 51.3C189.299 51.53 189.354 51.775 189.354 52.035ZM193.46 72V56.805H194.99C195.28 56.805 195.48 56.86 195.59 56.97C195.7 57.08 195.775 57.27 195.815 57.54L195.995 59.91C196.515 58.85 197.155 58.025 197.915 57.435C198.685 56.835 199.585 56.535 200.615 56.535C201.035 56.535 201.415 56.585 201.755 56.685C202.095 56.775 202.41 56.905 202.7 57.075L202.355 59.07C202.285 59.32 202.13 59.445 201.89 59.445C201.75 59.445 201.535 59.4 201.245 59.31C200.955 59.21 200.55 59.16 200.03 59.16C199.1 59.16 198.32 59.43 197.69 59.97C197.07 60.51 196.55 61.295 196.13 62.325V72H193.46ZM208.529 56.805V72H205.859V56.805H208.529ZM209.129 52.035C209.129 52.295 209.074 52.54 208.964 52.77C208.864 52.99 208.724 53.19 208.544 53.37C208.374 53.54 208.174 53.675 207.944 53.775C207.714 53.875 207.469 53.925 207.209 53.925C206.949 53.925 206.704 53.875 206.474 53.775C206.254 53.675 206.054 53.54 205.874 53.37C205.704 53.19 205.569 52.99 205.469 52.77C205.369 52.54 205.319 52.295 205.319 52.035C205.319 51.775 205.369 51.53 205.469 51.3C205.569 51.06 205.704 50.855 205.874 50.685C206.054 50.505 206.254 50.365 206.474 50.265C206.704 50.165 206.949 50.115 207.209 50.115C207.469 50.115 207.714 50.165 207.944 50.265C208.174 50.365 208.374 50.505 208.544 50.685C208.724 50.855 208.864 51.06 208.964 51.3C209.074 51.53 209.129 51.775 209.129 52.035ZM213.235 72V56.805H214.825C215.205 56.805 215.445 56.99 215.545 57.36L215.755 59.01C216.415 58.28 217.15 57.69 217.96 57.24C218.78 56.79 219.725 56.565 220.795 56.565C221.625 56.565 222.355 56.705 222.985 56.985C223.625 57.255 224.155 57.645 224.575 58.155C225.005 58.655 225.33 59.26 225.55 59.97C225.77 60.68 225.88 61.465 225.88 62.325V72H223.21V62.325C223.21 61.175 222.945 60.285 222.415 59.655C221.895 59.015 221.095 58.695 220.015 58.695C219.225 58.695 218.485 58.885 217.795 59.265C217.115 59.645 216.485 60.16 215.905 60.81V72H213.235ZM235.02 56.55C235.68 56.55 236.295 56.625 236.865 56.775C237.445 56.915 237.97 57.125 238.44 57.405H242.565V58.395C242.565 58.725 242.355 58.935 241.935 59.025L240.21 59.265C240.55 59.915 240.72 60.64 240.72 61.44C240.72 62.18 240.575 62.855 240.285 63.465C240.005 64.065 239.61 64.58 239.1 65.01C238.6 65.44 238 65.77 237.3 66C236.61 66.23 235.85 66.345 235.02 66.345C234.31 66.345 233.64 66.26 233.01 66.09C232.69 66.29 232.445 66.505 232.275 66.735C232.115 66.965 232.035 67.19 232.035 67.41C232.035 67.77 232.18 68.045 232.47 68.235C232.76 68.415 233.145 68.545 233.625 68.625C234.105 68.705 234.65 68.755 235.26 68.775C235.87 68.795 236.49 68.83 237.12 68.88C237.76 68.92 238.385 68.995 238.995 69.105C239.605 69.215 240.15 69.395 240.63 69.645C241.11 69.895 241.495 70.24 241.785 70.68C242.075 71.12 242.22 71.69 242.22 72.39C242.22 73.04 242.055 73.67 241.725 74.28C241.405 74.89 240.94 75.43 240.33 75.9C239.72 76.38 238.975 76.76 238.095 77.04C237.215 77.33 236.22 77.475 235.11 77.475C234 77.475 233.025 77.365 232.185 77.145C231.355 76.925 230.665 76.63 230.115 76.26C229.565 75.89 229.15 75.46 228.87 74.97C228.6 74.49 228.465 73.985 228.465 73.455C228.465 72.705 228.7 72.07 229.17 71.55C229.65 71.02 230.305 70.6 231.135 70.29C230.705 70.09 230.36 69.825 230.1 69.495C229.85 69.155 229.725 68.705 229.725 68.145C229.725 67.925 229.765 67.7 229.845 67.47C229.925 67.23 230.045 66.995 230.205 66.765C230.375 66.535 230.58 66.315 230.82 66.105C231.06 65.895 231.34 65.71 231.66 65.55C230.91 65.13 230.32 64.575 229.89 63.885C229.47 63.185 229.26 62.37 229.26 61.44C229.26 60.7 229.4 60.03 229.68 59.43C229.97 58.82 230.37 58.305 230.88 57.885C231.39 57.455 231.995 57.125 232.695 56.895C233.405 56.665 234.18 56.55 235.02 56.55ZM239.76 72.825C239.76 72.445 239.655 72.14 239.445 71.91C239.235 71.68 238.95 71.505 238.59 71.385C238.23 71.255 237.815 71.16 237.345 71.1C236.875 71.04 236.38 71 235.86 70.98C235.34 70.95 234.81 70.92 234.27 70.89C233.73 70.86 233.215 70.805 232.725 70.725C232.155 70.995 231.69 71.325 231.33 71.715C230.98 72.105 230.805 72.57 230.805 73.11C230.805 73.45 230.89 73.765 231.06 74.055C231.24 74.355 231.51 74.61 231.87 74.82C232.23 75.04 232.68 75.21 233.22 75.33C233.77 75.46 234.415 75.525 235.155 75.525C235.875 75.525 236.52 75.46 237.09 75.33C237.66 75.2 238.14 75.015 238.53 74.775C238.93 74.535 239.235 74.25 239.445 73.92C239.655 73.59 239.76 73.225 239.76 72.825ZM235.02 64.575C235.56 64.575 236.035 64.5 236.445 64.35C236.865 64.2 237.215 63.99 237.495 63.72C237.775 63.45 237.985 63.13 238.125 62.76C238.265 62.38 238.335 61.965 238.335 61.515C238.335 60.585 238.05 59.845 237.48 59.295C236.92 58.745 236.1 58.47 235.02 58.47C233.95 58.47 233.13 58.745 232.56 59.295C232 59.845 231.72 60.585 231.72 61.515C231.72 61.965 231.79 62.38 231.93 62.76C232.08 63.13 232.295 63.45 232.575 63.72C232.855 63.99 233.2 64.2 233.61 64.35C234.02 64.5 234.49 64.575 235.02 64.575ZM253.927 59.31C253.807 59.53 253.622 59.64 253.372 59.64C253.222 59.64 253.052 59.585 252.862 59.475C252.672 59.365 252.437 59.245 252.157 59.115C251.887 58.975 251.562 58.85 251.182 58.74C250.802 58.62 250.352 58.56 249.832 58.56C249.382 58.56 248.977 58.62 248.617 58.74C248.257 58.85 247.947 59.005 247.687 59.205C247.437 59.405 247.242 59.64 247.102 59.91C246.972 60.17 246.907 60.455 246.907 60.765C246.907 61.155 247.017 61.48 247.237 61.74C247.467 62 247.767 62.225 248.137 62.415C248.507 62.605 248.927 62.775 249.397 62.925C249.867 63.065 250.347 63.22 250.837 63.39C251.337 63.55 251.822 63.73 252.292 63.93C252.762 64.13 253.182 64.38 253.552 64.68C253.922 64.98 254.217 65.35 254.437 65.79C254.667 66.22 254.782 66.74 254.782 67.35C254.782 68.05 254.657 68.7 254.407 69.3C254.157 69.89 253.787 70.405 253.297 70.845C252.807 71.275 252.207 71.615 251.497 71.865C250.787 72.115 249.967 72.24 249.037 72.24C247.977 72.24 247.017 72.07 246.157 71.73C245.297 71.38 244.567 70.935 243.967 70.395L244.597 69.375C244.677 69.245 244.772 69.145 244.882 69.075C244.992 69.005 245.137 68.97 245.317 68.97C245.497 68.97 245.687 69.04 245.887 69.18C246.087 69.32 246.327 69.475 246.607 69.645C246.897 69.815 247.242 69.97 247.642 70.11C248.052 70.25 248.562 70.32 249.172 70.32C249.692 70.32 250.147 70.255 250.537 70.125C250.927 69.985 251.252 69.8 251.512 69.57C251.772 69.34 251.962 69.075 252.082 68.775C252.212 68.475 252.277 68.155 252.277 67.815C252.277 67.395 252.162 67.05 251.932 66.78C251.712 66.5 251.417 66.265 251.047 66.075C250.677 65.875 250.252 65.705 249.772 65.565C249.302 65.415 248.817 65.26 248.317 65.1C247.827 64.94 247.342 64.76 246.862 64.56C246.392 64.35 245.972 64.09 245.602 63.78C245.232 63.47 244.932 63.09 244.702 62.64C244.482 62.18 244.372 61.625 244.372 60.975C244.372 60.395 244.492 59.84 244.732 59.31C244.972 58.77 245.322 58.3 245.782 57.9C246.242 57.49 246.807 57.165 247.477 56.925C248.147 56.685 248.912 56.565 249.772 56.565C250.772 56.565 251.667 56.725 252.457 57.045C253.257 57.355 253.947 57.785 254.527 58.335L253.927 59.31Z" fill="black"/>
</g>
<defs>
<clipPath id="clip0">
<rect width="1200" height="643" fill="white"/>
</clipPath>
</defs>
</svg>
