<svg width="800" height="600" viewBox="0 0 800 600" fill="none" xmlns="http://www.w3.org/2000/svg">
<path d="M272.714 288.114L267.143 313.44H258.057L250 269.987H258.571L263.586 299.556L268.643 275.987H276.743L281.929 299.341L286.986 269.987H295.557L287.371 313.44H278.329L272.714 288.114Z" fill="#2D2731"/>
<path d="M312.829 239.134L308.2 246.076L271.857 221.864L276.529 214.879L312.829 239.134Z" fill="#2D2731"/>
<path d="M362.414 198.981L355.129 203.266L327.143 186.768L341.114 211.194L333.871 215.479L312.1 177.469L319.386 173.183L347.414 189.51L333.443 165.256L340.686 160.97L362.414 198.981Z" fill="#2D2731"/>
<path d="M396.613 167.484H414.828V175.712H396.613V185.353H414.828V193.667H388.256V150H414.828V158.313H396.613V167.484Z" fill="#2D2731"/>
<path d="M522.657 304.612L519.571 313.44H511L526.429 269.987H534.4L550 313.44H541.429L538.3 304.612H522.657ZM530.414 282.543L525.529 296.727H535.257L530.414 282.543Z" fill="#2D2731"/>
<path d="M501.142 367.092C499.259 366.164 497.591 364.852 496.246 363.241C494.9 361.629 493.907 359.754 493.33 357.736C492.753 355.718 492.604 353.602 492.894 351.523C493.184 349.444 493.906 347.449 495.014 345.665C495.821 343.629 497.062 341.792 498.649 340.282C500.237 338.772 502.133 337.625 504.208 336.92C506.282 336.215 508.485 335.969 510.664 336.199C512.843 336.429 514.946 337.129 516.828 338.252L528.099 343.951C530.124 344.798 531.94 346.075 533.422 347.694C534.904 349.313 536.016 351.235 536.681 353.326C537.345 355.418 537.547 357.629 537.271 359.806C536.996 361.983 536.25 364.075 535.085 365.935C534.315 367.905 533.137 369.69 531.63 371.174C530.123 372.659 528.32 373.808 526.338 374.548C524.356 375.289 522.24 375.602 520.129 375.469C518.018 375.336 515.958 374.76 514.085 373.777L517.856 366.235C519.762 366.794 521.807 366.639 523.605 365.796C525.404 364.954 526.833 363.483 527.623 361.661C528.413 359.839 528.51 357.791 527.895 355.903C527.28 354.014 525.996 352.416 524.285 351.408L513.014 345.708C511.178 344.902 509.11 344.802 507.205 345.425C505.301 346.049 503.693 347.354 502.69 349.089C501.687 350.824 501.359 352.868 501.769 354.83C502.18 356.792 503.299 358.533 504.914 359.721L501.142 367.092Z" fill="#2D2731"/>
<path d="M463.686 404.416C461.286 400.981 460.283 396.762 460.881 392.614C461.479 388.467 463.632 384.702 466.905 382.085C470.177 379.467 474.323 378.193 478.5 378.52C482.678 378.847 486.575 380.752 489.4 383.847L497.543 393.446C500.492 396.719 502.021 401.03 501.792 405.43C501.562 409.83 499.595 413.958 496.321 416.908C493.048 419.857 488.736 421.385 484.336 421.156C479.936 420.927 475.807 418.959 472.857 415.686L479.285 410.244C480.815 411.58 482.788 412.297 484.819 412.254C486.849 412.21 488.79 411.41 490.261 410.009C491.731 408.608 492.625 406.709 492.767 404.683C492.909 402.657 492.289 400.652 491.028 399.059L482.885 389.46C481.494 388.079 479.65 387.247 477.694 387.116C475.738 386.985 473.8 387.564 472.236 388.747C470.673 389.93 469.589 391.637 469.183 393.555C468.777 395.473 469.078 397.473 470.028 399.188L463.686 404.416Z" fill="#2D2731"/>
<path d="M435.828 427.599L418.214 432.399L416.071 424.257L433.642 419.5L431.114 410.201L413.542 415.001L411.356 407.116L437.071 400.131L448.514 442.298L422.799 449.24L420.614 441.398L438.228 436.641L435.828 427.599Z" fill="#2D2731"/>
<path d="M389.242 420.957L380.671 418.986C380.839 417.232 380.342 415.479 379.278 414.074C378.215 412.67 376.662 411.716 374.928 411.401C371.328 410.544 368.542 411.401 367.857 414.23C367.171 417.058 368.371 418.258 371.157 419.758L377.885 423.357C380.609 424.613 382.79 426.805 384.033 429.534C385.276 432.264 385.497 435.348 384.657 438.227C382.685 446.798 375.057 449.026 367.514 447.312C363.88 446.78 360.6 444.843 358.38 441.918C356.16 438.993 355.177 435.313 355.642 431.671L364.214 433.599C364.371 435.017 364.995 436.342 365.988 437.366C366.981 438.39 368.287 439.055 369.7 439.255C373.085 440.027 375.828 439.255 376.514 436.299C377.199 433.342 375.399 432.27 373.257 431.113L366.785 427.6C363.906 426.396 361.583 424.158 360.274 421.326C358.965 418.493 358.765 415.273 359.714 412.301C361.514 404.673 367.6 401.159 376.857 403.302C378.858 403.588 380.779 404.28 382.502 405.337C384.224 406.394 385.712 407.793 386.873 409.448C388.034 411.103 388.843 412.978 389.25 414.957C389.658 416.937 389.655 418.979 389.242 420.957V420.957Z" fill="#2D2731"/>
<path d="M339.745 405.573L332.93 400.302C333.842 398.738 334.119 396.885 333.704 395.123C333.289 393.361 332.215 391.825 330.702 390.832C327.787 388.603 324.959 388.089 323.116 390.489C321.273 392.889 321.916 394.346 323.845 396.874L328.43 402.83C330.393 405.097 331.474 407.995 331.474 410.994C331.474 413.992 330.393 416.891 328.43 419.157C323.073 426.057 315.187 424.985 309.187 420.357C306.095 418.361 303.912 415.229 303.11 411.636C302.308 408.044 302.951 404.281 304.902 401.159L311.716 406.473C311.237 407.83 311.23 409.309 311.697 410.67C312.164 412.031 313.076 413.195 314.287 413.972C317.073 416.115 319.859 416.586 321.745 413.972C323.63 411.358 322.43 409.687 320.93 407.93L316.645 402.016C314.53 399.722 313.357 396.716 313.357 393.596C313.357 390.476 314.53 387.47 316.645 385.175C321.445 378.962 328.43 378.319 335.93 384.104C337.657 385.207 339.136 386.657 340.274 388.361C341.412 390.064 342.184 391.985 342.543 394.003C342.901 396.02 342.838 398.09 342.356 400.081C341.874 402.072 340.985 403.942 339.745 405.573V405.573Z" fill="#2D2731"/>
<path d="M479.285 296.727H323.843V304.655H479.285V296.727Z" fill="#2D2731"/>
</svg>
