<svg width="2436" height="401" viewBox="0 0 2436 401" fill="none" xmlns="http://www.w3.org/2000/svg">
<path d="M44.864 148.224C42.9973 148.224 41.3733 147.823 39.992 147.02C38.6107 146.199 37.5467 145.032 36.8 143.52C36.072 141.989 35.708 140.188 35.708 138.116C35.708 136.044 36.072 134.252 36.8 132.74C37.5467 131.228 38.6107 130.071 39.992 129.268C41.3733 128.447 42.9973 128.036 44.864 128.036C46.2267 128.036 47.4773 128.251 48.616 128.68C49.7547 129.091 50.744 129.707 51.584 130.528L50.716 132.292C49.764 131.489 48.8307 130.911 47.916 130.556C47.0013 130.201 45.9933 130.024 44.892 130.024C42.7267 130.024 41.0467 130.733 39.852 132.152C38.676 133.552 38.088 135.54 38.088 138.116C38.088 140.711 38.676 142.717 39.852 144.136C41.0467 145.536 42.7267 146.236 44.892 146.236C45.9933 146.236 47.0013 146.059 47.916 145.704C48.8307 145.349 49.764 144.771 50.716 143.968L51.584 145.732C50.744 146.553 49.7547 147.179 48.616 147.608C47.4773 148.019 46.2267 148.224 44.864 148.224ZM60.4318 148.196C59.1438 148.196 58.0051 147.907 57.0158 147.328C56.0451 146.749 55.2891 145.928 54.7478 144.864C54.2251 143.781 53.9638 142.531 53.9638 141.112C53.9638 139.693 54.2251 138.452 54.7478 137.388C55.2891 136.305 56.0451 135.475 57.0158 134.896C58.0051 134.317 59.1438 134.028 60.4318 134.028C61.7198 134.028 62.8584 134.317 63.8478 134.896C64.8371 135.475 65.5931 136.305 66.1158 137.388C66.6571 138.452 66.9278 139.693 66.9278 141.112C66.9278 142.531 66.6571 143.781 66.1158 144.864C65.5931 145.928 64.8371 146.749 63.8478 147.328C62.8584 147.907 61.7198 148.196 60.4318 148.196ZM60.4318 146.32C61.7758 146.32 62.8024 145.881 63.5118 145.004C64.2398 144.108 64.6038 142.811 64.6038 141.112C64.6038 139.451 64.2398 138.172 63.5118 137.276C62.7838 136.361 61.7571 135.904 60.4318 135.904C59.1064 135.904 58.0798 136.361 57.3518 137.276C56.6238 138.172 56.2598 139.451 56.2598 141.112C56.2598 142.792 56.6144 144.08 57.3238 144.976C58.0518 145.872 59.0878 146.32 60.4318 146.32ZM70.307 148V128.26H72.575V148H70.307ZM82.4708 148.196C81.1828 148.196 80.0442 147.907 79.0548 147.328C78.0842 146.749 77.3282 145.928 76.7868 144.864C76.2642 143.781 76.0028 142.531 76.0028 141.112C76.0028 139.693 76.2642 138.452 76.7868 137.388C77.3282 136.305 78.0842 135.475 79.0548 134.896C80.0442 134.317 81.1828 134.028 82.4708 134.028C83.7588 134.028 84.8975 134.317 85.8868 134.896C86.8762 135.475 87.6322 136.305 88.1548 137.388C88.6962 138.452 88.9668 139.693 88.9668 141.112C88.9668 142.531 88.6962 143.781 88.1548 144.864C87.6322 145.928 86.8762 146.749 85.8868 147.328C84.8975 147.907 83.7588 148.196 82.4708 148.196ZM82.4708 146.32C83.8148 146.32 84.8415 145.881 85.5508 145.004C86.2788 144.108 86.6428 142.811 86.6428 141.112C86.6428 139.451 86.2788 138.172 85.5508 137.276C84.8228 136.361 83.7962 135.904 82.4708 135.904C81.1455 135.904 80.1188 136.361 79.3908 137.276C78.6628 138.172 78.2988 139.451 78.2988 141.112C78.2988 142.792 78.6535 144.08 79.3628 144.976C80.0908 145.872 81.1268 146.32 82.4708 146.32ZM100.074 135.988L98.5901 136.128C97.1901 136.259 96.1728 136.697 95.5381 137.444C94.9221 138.191 94.6141 139.115 94.6141 140.216V148H92.3461V134.364H94.5581V136.744C95.3234 135.157 96.8261 134.271 99.0661 134.084L99.8781 134.028L100.074 135.988ZM106.7 148.196C104.404 148.196 102.584 147.608 101.24 146.432L101.996 144.752C102.724 145.331 103.462 145.751 104.208 146.012C104.974 146.255 105.832 146.376 106.784 146.376C107.792 146.376 108.558 146.208 109.08 145.872C109.622 145.517 109.892 145.013 109.892 144.36C109.892 143.819 109.715 143.389 109.36 143.072C109.006 142.755 108.418 142.503 107.596 142.316L105.3 141.784C104.143 141.523 103.256 141.075 102.64 140.44C102.024 139.805 101.716 139.021 101.716 138.088C101.716 136.875 102.192 135.895 103.144 135.148C104.096 134.401 105.366 134.028 106.952 134.028C107.904 134.028 108.81 134.187 109.668 134.504C110.527 134.803 111.246 135.241 111.824 135.82L111.068 137.472C109.818 136.408 108.446 135.876 106.952 135.876C106 135.876 105.254 136.063 104.712 136.436C104.19 136.791 103.928 137.295 103.928 137.948C103.928 138.489 104.087 138.928 104.404 139.264C104.74 139.581 105.272 139.824 106 139.992L108.324 140.552C109.594 140.851 110.536 141.308 111.152 141.924C111.768 142.521 112.076 143.305 112.076 144.276C112.076 145.471 111.591 146.423 110.62 147.132C109.668 147.841 108.362 148.196 106.7 148.196Z" fill="black"/>
<path d="M716.436 148V128.26H718.732V148H716.436ZM729.032 148.196C727.688 148.196 726.521 147.907 725.532 147.328C724.543 146.749 723.777 145.937 723.236 144.892C722.713 143.828 722.452 142.587 722.452 141.168C722.452 139.749 722.723 138.508 723.264 137.444C723.824 136.361 724.599 135.521 725.588 134.924C726.596 134.327 727.772 134.028 729.116 134.028C730.031 134.028 730.927 134.196 731.804 134.532C732.681 134.849 733.391 135.279 733.932 135.82L733.176 137.5C731.888 136.455 730.581 135.932 729.256 135.932C727.856 135.932 726.764 136.389 725.98 137.304C725.196 138.219 724.804 139.507 724.804 141.168C724.804 142.811 725.196 144.08 725.98 144.976C726.764 145.872 727.856 146.32 729.256 146.32C730.581 146.32 731.888 145.797 733.176 144.752L733.932 146.432C733.353 146.973 732.625 147.403 731.748 147.72C730.871 148.037 729.965 148.196 729.032 148.196ZM742.319 148.196C741.031 148.196 739.892 147.907 738.903 147.328C737.932 146.749 737.176 145.928 736.635 144.864C736.112 143.781 735.851 142.531 735.851 141.112C735.851 139.693 736.112 138.452 736.635 137.388C737.176 136.305 737.932 135.475 738.903 134.896C739.892 134.317 741.031 134.028 742.319 134.028C743.607 134.028 744.745 134.317 745.735 134.896C746.724 135.475 747.48 136.305 748.003 137.388C748.544 138.452 748.815 139.693 748.815 141.112C748.815 142.531 748.544 143.781 748.003 144.864C747.48 145.928 746.724 146.749 745.735 147.328C744.745 147.907 743.607 148.196 742.319 148.196ZM742.319 146.32C743.663 146.32 744.689 145.881 745.399 145.004C746.127 144.108 746.491 142.811 746.491 141.112C746.491 139.451 746.127 138.172 745.399 137.276C744.671 136.361 743.644 135.904 742.319 135.904C740.993 135.904 739.967 136.361 739.239 137.276C738.511 138.172 738.147 139.451 738.147 141.112C738.147 142.792 738.501 144.08 739.211 144.976C739.939 145.872 740.975 146.32 742.319 146.32ZM759.054 134.028C762.32 134.028 763.954 135.829 763.954 139.432V148H761.686V139.572C761.686 138.303 761.434 137.379 760.93 136.8C760.444 136.221 759.66 135.932 758.578 135.932C757.327 135.932 756.328 136.315 755.582 137.08C754.835 137.845 754.462 138.881 754.462 140.188V148H752.194V134.364H754.434V136.604C754.882 135.764 755.507 135.129 756.31 134.7C757.112 134.252 758.027 134.028 759.054 134.028ZM772.728 148.196C770.432 148.196 768.612 147.608 767.268 146.432L768.024 144.752C768.752 145.331 769.489 145.751 770.236 146.012C771.001 146.255 771.86 146.376 772.812 146.376C773.82 146.376 774.585 146.208 775.108 145.872C775.649 145.517 775.92 145.013 775.92 144.36C775.92 143.819 775.742 143.389 775.388 143.072C775.033 142.755 774.445 142.503 773.624 142.316L771.328 141.784C770.17 141.523 769.284 141.075 768.668 140.44C768.052 139.805 767.744 139.021 767.744 138.088C767.744 136.875 768.22 135.895 769.172 135.148C770.124 134.401 771.393 134.028 772.98 134.028C773.932 134.028 774.837 134.187 775.696 134.504C776.554 134.803 777.273 135.241 777.852 135.82L777.096 137.472C775.845 136.408 774.473 135.876 772.98 135.876C772.028 135.876 771.281 136.063 770.74 136.436C770.217 136.791 769.956 137.295 769.956 137.948C769.956 138.489 770.114 138.928 770.432 139.264C770.768 139.581 771.3 139.824 772.028 139.992L774.352 140.552C775.621 140.851 776.564 141.308 777.18 141.924C777.796 142.521 778.104 143.305 778.104 144.276C778.104 145.471 777.618 146.423 776.648 147.132C775.696 147.841 774.389 148.196 772.728 148.196Z" fill="black"/>
<path d="M1707.64 137.864C1708.77 138.163 1709.65 138.723 1710.27 139.544C1710.9 140.365 1711.22 141.392 1711.22 142.624C1711.22 144.36 1710.65 145.695 1709.51 146.628C1708.37 147.543 1706.76 148 1704.67 148H1696.44V128.26H1704.36C1706.39 128.26 1707.97 128.708 1709.09 129.604C1710.21 130.5 1710.77 131.769 1710.77 133.412C1710.77 134.476 1710.49 135.391 1709.93 136.156C1709.39 136.921 1708.63 137.491 1707.64 137.864ZM1698.7 137.024H1704.02C1705.5 137.024 1706.61 136.725 1707.36 136.128C1708.12 135.531 1708.5 134.663 1708.5 133.524C1708.5 131.284 1707.01 130.164 1704.02 130.164H1698.7V137.024ZM1704.44 146.096C1705.99 146.096 1707.13 145.816 1707.86 145.256C1708.61 144.677 1708.98 143.781 1708.98 142.568C1708.98 140.141 1707.47 138.928 1704.44 138.928H1698.7V146.096H1704.44ZM1726.45 134.364V148H1724.24V145.676C1723.81 146.497 1723.2 147.123 1722.42 147.552C1721.65 147.981 1720.78 148.196 1719.81 148.196C1718.19 148.196 1716.96 147.748 1716.14 146.852C1715.32 145.937 1714.91 144.593 1714.91 142.82V134.364H1717.18V142.764C1717.18 143.977 1717.42 144.873 1717.91 145.452C1718.39 146.012 1719.16 146.292 1720.2 146.292C1721.4 146.292 1722.36 145.909 1723.09 145.144C1723.82 144.36 1724.18 143.333 1724.18 142.064V134.364H1726.45ZM1736.65 146.376C1737.07 146.376 1737.48 146.348 1737.89 146.292L1737.77 148.084C1737.35 148.159 1736.88 148.196 1736.37 148.196C1734.73 148.196 1733.49 147.767 1732.65 146.908C1731.83 146.049 1731.42 144.855 1731.42 143.324V136.156H1728.76V134.364H1731.42V130.22H1733.69V134.364H1737.55V136.156H1733.69V143.156C1733.69 145.303 1734.68 146.376 1736.65 146.376ZM1746.25 146.376C1746.66 146.376 1747.07 146.348 1747.48 146.292L1747.37 148.084C1746.94 148.159 1746.48 148.196 1745.97 148.196C1744.33 148.196 1743.09 147.767 1742.25 146.908C1741.43 146.049 1741.02 144.855 1741.02 143.324V136.156H1738.36V134.364H1741.02V130.22H1743.28V134.364H1747.15V136.156H1743.28V143.156C1743.28 145.303 1744.27 146.376 1746.25 146.376ZM1755.43 148.196C1754.14 148.196 1753.01 147.907 1752.02 147.328C1751.05 146.749 1750.29 145.928 1749.75 144.864C1749.23 143.781 1748.96 142.531 1748.96 141.112C1748.96 139.693 1749.23 138.452 1749.75 137.388C1750.29 136.305 1751.05 135.475 1752.02 134.896C1753.01 134.317 1754.14 134.028 1755.43 134.028C1756.72 134.028 1757.86 134.317 1758.85 134.896C1759.84 135.475 1760.59 136.305 1761.12 137.388C1761.66 138.452 1761.93 139.693 1761.93 141.112C1761.93 142.531 1761.66 143.781 1761.12 144.864C1760.59 145.928 1759.84 146.749 1758.85 147.328C1757.86 147.907 1756.72 148.196 1755.43 148.196ZM1755.43 146.32C1756.78 146.32 1757.8 145.881 1758.51 145.004C1759.24 144.108 1759.6 142.811 1759.6 141.112C1759.6 139.451 1759.24 138.172 1758.51 137.276C1757.78 136.361 1756.76 135.904 1755.43 135.904C1754.11 135.904 1753.08 136.361 1752.35 137.276C1751.62 138.172 1751.26 139.451 1751.26 141.112C1751.26 142.792 1751.61 144.08 1752.32 144.976C1753.05 145.872 1754.09 146.32 1755.43 146.32ZM1772.17 134.028C1775.43 134.028 1777.07 135.829 1777.07 139.432V148H1774.8V139.572C1774.8 138.303 1774.55 137.379 1774.04 136.8C1773.56 136.221 1772.77 135.932 1771.69 135.932C1770.44 135.932 1769.44 136.315 1768.7 137.08C1767.95 137.845 1767.58 138.881 1767.58 140.188V148H1765.31V134.364H1767.55V136.604C1768 135.764 1768.62 135.129 1769.42 134.7C1770.23 134.252 1771.14 134.028 1772.17 134.028ZM1785.84 148.196C1783.55 148.196 1781.73 147.608 1780.38 146.432L1781.14 144.752C1781.87 145.331 1782.6 145.751 1783.35 146.012C1784.11 146.255 1784.97 146.376 1785.93 146.376C1786.93 146.376 1787.7 146.208 1788.22 145.872C1788.76 145.517 1789.03 145.013 1789.03 144.36C1789.03 143.819 1788.86 143.389 1788.5 143.072C1788.15 142.755 1787.56 142.503 1786.74 142.316L1784.44 141.784C1783.28 141.523 1782.4 141.075 1781.78 140.44C1781.17 139.805 1780.86 139.021 1780.86 138.088C1780.86 136.875 1781.33 135.895 1782.29 135.148C1783.24 134.401 1784.51 134.028 1786.09 134.028C1787.05 134.028 1787.95 134.187 1788.81 134.504C1789.67 134.803 1790.39 135.241 1790.97 135.82L1790.21 137.472C1788.96 136.408 1787.59 135.876 1786.09 135.876C1785.14 135.876 1784.39 136.063 1783.85 136.436C1783.33 136.791 1783.07 137.295 1783.07 137.948C1783.07 138.489 1783.23 138.928 1783.55 139.264C1783.88 139.581 1784.41 139.824 1785.14 139.992L1787.47 140.552C1788.73 140.851 1789.68 141.308 1790.29 141.924C1790.91 142.521 1791.22 143.305 1791.22 144.276C1791.22 145.471 1790.73 146.423 1789.76 147.132C1788.81 147.841 1787.5 148.196 1785.84 148.196Z" fill="black"/>
<path d="M2229.2 148V130.22H2222.34V128.26H2238.41V130.22H2231.52V148H2229.2ZM2248.56 134.392H2250.82L2242.76 153.04H2240.44L2242.73 147.832L2236.96 134.392H2239.37L2243.94 145.536L2248.56 134.392ZM2260.03 134.028C2261.22 134.028 2262.28 134.327 2263.19 134.924C2264.11 135.521 2264.81 136.361 2265.32 137.444C2265.82 138.508 2266.07 139.749 2266.07 141.168C2266.07 142.587 2265.82 143.828 2265.32 144.892C2264.81 145.937 2264.11 146.749 2263.19 147.328C2262.29 147.907 2261.24 148.196 2260.03 148.196C2258.96 148.196 2258.03 147.963 2257.23 147.496C2256.44 147.029 2255.85 146.367 2255.43 145.508V153.04H2253.17V134.364H2255.43V136.716C2255.85 135.857 2256.44 135.195 2257.23 134.728C2258.03 134.261 2258.96 134.028 2260.03 134.028ZM2259.58 146.32C2260.9 146.32 2261.93 145.872 2262.66 144.976C2263.39 144.08 2263.75 142.811 2263.75 141.168C2263.75 139.525 2263.39 138.247 2262.66 137.332C2261.93 136.399 2260.9 135.932 2259.58 135.932C2258.25 135.932 2257.23 136.38 2256.5 137.276C2255.79 138.172 2255.43 139.451 2255.43 141.112C2255.43 142.773 2255.79 144.061 2256.5 144.976C2257.23 145.872 2258.25 146.32 2259.58 146.32ZM2275.12 148.196C2273.83 148.196 2272.69 147.907 2271.7 147.328C2270.73 146.749 2269.98 145.928 2269.44 144.864C2268.91 143.781 2268.65 142.531 2268.65 141.112C2268.65 139.693 2268.91 138.452 2269.44 137.388C2269.98 136.305 2270.73 135.475 2271.7 134.896C2272.69 134.317 2273.83 134.028 2275.12 134.028C2276.41 134.028 2277.55 134.317 2278.54 134.896C2279.52 135.475 2280.28 136.305 2280.8 137.388C2281.34 138.452 2281.62 139.693 2281.62 141.112C2281.62 142.531 2281.34 143.781 2280.8 144.864C2280.28 145.928 2279.52 146.749 2278.54 147.328C2277.55 147.907 2276.41 148.196 2275.12 148.196ZM2275.12 146.32C2276.46 146.32 2277.49 145.881 2278.2 145.004C2278.93 144.108 2279.29 142.811 2279.29 141.112C2279.29 139.451 2278.93 138.172 2278.2 137.276C2277.47 136.361 2276.44 135.904 2275.12 135.904C2273.79 135.904 2272.77 136.361 2272.04 137.276C2271.31 138.172 2270.95 139.451 2270.95 141.112C2270.95 142.792 2271.3 144.08 2272.01 144.976C2272.74 145.872 2273.78 146.32 2275.12 146.32ZM2297.2 134.364V147.076C2297.2 149.111 2296.68 150.641 2295.63 151.668C2294.59 152.713 2293.04 153.236 2290.99 153.236C2288.6 153.236 2286.59 152.62 2284.97 151.388L2285.72 149.708C2286.64 150.305 2287.5 150.735 2288.3 150.996C2289.1 151.257 2290 151.388 2290.99 151.388C2292.29 151.388 2293.28 151.033 2293.95 150.324C2294.63 149.633 2294.96 148.616 2294.96 147.272V144.864C2294.57 145.741 2293.96 146.413 2293.14 146.88C2292.34 147.347 2291.39 147.58 2290.29 147.58C2289.09 147.58 2288.03 147.3 2287.09 146.74C2286.18 146.18 2285.46 145.387 2284.94 144.36C2284.43 143.333 2284.18 142.148 2284.18 140.804C2284.18 139.46 2284.43 138.275 2284.94 137.248C2285.46 136.221 2286.18 135.428 2287.09 134.868C2288.03 134.308 2289.09 134.028 2290.29 134.028C2291.37 134.028 2292.31 134.261 2293.11 134.728C2293.92 135.195 2294.52 135.857 2294.93 136.716V134.364H2297.2ZM2290.73 145.704C2292.04 145.704 2293.07 145.275 2293.81 144.416C2294.56 143.539 2294.93 142.335 2294.93 140.804C2294.93 139.292 2294.56 138.107 2293.81 137.248C2293.09 136.371 2292.06 135.932 2290.73 135.932C2289.41 135.932 2288.36 136.371 2287.6 137.248C2286.85 138.107 2286.48 139.292 2286.48 140.804C2286.48 142.335 2286.85 143.539 2287.6 144.416C2288.36 145.275 2289.41 145.704 2290.73 145.704ZM2309.13 135.988L2307.64 136.128C2306.24 136.259 2305.23 136.697 2304.59 137.444C2303.98 138.191 2303.67 139.115 2303.67 140.216V148H2301.4V134.364H2303.61V136.744C2304.38 135.157 2305.88 134.271 2308.12 134.084L2308.93 134.028L2309.13 135.988ZM2316.71 134.028C2318.44 134.028 2319.73 134.476 2320.57 135.372C2321.43 136.249 2321.86 137.593 2321.86 139.404V148H2319.65V145.676C2319.29 146.479 2318.75 147.104 2318.02 147.552C2317.29 147.981 2316.45 148.196 2315.5 148.196C2314.63 148.196 2313.81 148.019 2313.07 147.664C2312.34 147.309 2311.76 146.815 2311.33 146.18C2310.9 145.545 2310.69 144.845 2310.69 144.08C2310.69 143.053 2310.95 142.26 2311.47 141.7C2311.99 141.121 2312.85 140.711 2314.05 140.468C2315.24 140.207 2316.9 140.076 2319.03 140.076H2319.65V139.152C2319.65 138.013 2319.41 137.192 2318.95 136.688C2318.48 136.165 2317.72 135.904 2316.68 135.904C2315.11 135.904 2313.55 136.389 2312 137.36L2311.25 135.708C2311.96 135.204 2312.81 134.803 2313.79 134.504C2314.8 134.187 2315.77 134.028 2316.71 134.028ZM2315.81 146.404C2316.93 146.404 2317.85 146.031 2318.55 145.284C2319.28 144.519 2319.65 143.539 2319.65 142.344V141.532H2319.14C2317.5 141.532 2316.25 141.607 2315.39 141.756C2314.53 141.887 2313.92 142.12 2313.54 142.456C2313.19 142.773 2313.01 143.249 2313.01 143.884C2313.01 144.612 2313.27 145.219 2313.79 145.704C2314.34 146.171 2315.01 146.404 2315.81 146.404ZM2332.87 134.028C2334.06 134.028 2335.12 134.327 2336.03 134.924C2336.95 135.521 2337.66 136.361 2338.16 137.444C2338.67 138.508 2338.92 139.749 2338.92 141.168C2338.92 142.587 2338.67 143.828 2338.16 144.892C2337.66 145.937 2336.95 146.749 2336.03 147.328C2335.14 147.907 2334.08 148.196 2332.87 148.196C2331.81 148.196 2330.87 147.963 2330.07 147.496C2329.29 147.029 2328.69 146.367 2328.28 145.508V153.04H2326.01V134.364H2328.28V136.716C2328.69 135.857 2329.29 135.195 2330.07 134.728C2330.87 134.261 2331.81 134.028 2332.87 134.028ZM2332.42 146.32C2333.75 146.32 2334.77 145.872 2335.5 144.976C2336.23 144.08 2336.59 142.811 2336.59 141.168C2336.59 139.525 2336.23 138.247 2335.5 137.332C2334.77 136.399 2333.75 135.932 2332.42 135.932C2331.1 135.932 2330.07 136.38 2329.34 137.276C2328.63 138.172 2328.28 139.451 2328.28 141.112C2328.28 142.773 2328.63 144.061 2329.34 144.976C2330.07 145.872 2331.1 146.32 2332.42 146.32ZM2349.17 134.028C2352.43 134.028 2354.07 135.829 2354.07 139.432V148H2351.8V139.572C2351.8 138.303 2351.55 137.379 2351.04 136.8C2350.56 136.221 2349.77 135.932 2348.69 135.932C2347.44 135.932 2346.44 136.315 2345.7 137.08C2344.95 137.845 2344.58 138.881 2344.58 140.188V148H2342.31V128.26H2344.58V136.548C2345.02 135.727 2345.64 135.101 2346.42 134.672C2347.23 134.243 2348.14 134.028 2349.17 134.028ZM2367.99 134.392H2370.26L2362.2 153.04H2359.87L2362.17 147.832L2356.4 134.392H2358.81L2363.37 145.536L2367.99 134.392Z" fill="black"/>
<g filter="url(#filter0_d)">
<rect x="24" y="173" width="600" height="200" fill="white"/>
</g>
<g filter="url(#filter1_d)">
<rect x="704" y="173" width="900" height="200" fill="white"/>
</g>
<g filter="url(#filter2_d)">
<rect x="2212" y="173" width="200" height="200" fill="white"/>
</g>
<g filter="url(#filter3_d)">
<rect x="1684" y="173" width="448" height="200" fill="white"/>
</g>
<rect x="264" y="333" width="120" height="120" rx="60" transform="rotate(-90 264 333)" fill="#FCD2D4"/>
<rect x="84" y="333" width="120" height="120" rx="60" transform="rotate(-90 84 333)" fill="#FFCA5F"/>
<rect x="444" y="333" width="120" height="120" rx="60" transform="rotate(-90 444 333)" fill="#7A223B"/>
<path d="M2306.1 306L2299.8 291.4H2268.6L2262.3 306H2243.8L2276.7 235.5H2291.3L2324.3 306H2306.1ZM2274.5 277.6H2293.9L2284.2 255L2274.5 277.6ZM2349.77 255.6C2357.51 255.6 2363.21 257.4 2366.87 261C2370.61 264.533 2372.47 270.067 2372.47 277.6V306H2355.77V299.1C2354.84 301.5 2353.27 303.4 2351.07 304.8C2348.87 306.133 2346.24 306.8 2343.17 306.8C2339.77 306.8 2336.71 306.133 2333.97 304.8C2331.24 303.4 2329.07 301.5 2327.47 299.1C2325.94 296.633 2325.17 293.867 2325.17 290.8C2325.17 287.267 2326.07 284.467 2327.87 282.4C2329.74 280.267 2332.67 278.733 2336.67 277.8C2340.67 276.867 2346.07 276.4 2352.87 276.4H2355.57V275.2C2355.57 272.733 2355.01 271.033 2353.87 270.1C2352.74 269.1 2350.74 268.6 2347.87 268.6C2345.61 268.6 2342.97 269.067 2339.97 270C2337.04 270.867 2334.27 272 2331.67 273.4L2327.17 261.7C2330.04 259.967 2333.61 258.533 2337.87 257.4C2342.21 256.2 2346.17 255.6 2349.77 255.6ZM2347.37 294.9C2349.77 294.9 2351.74 294.067 2353.27 292.4C2354.81 290.667 2355.57 288.467 2355.57 285.8V284.6H2353.97C2349.71 284.6 2346.67 285 2344.87 285.8C2343.07 286.533 2342.17 287.8 2342.17 289.6C2342.17 291.133 2342.64 292.4 2343.57 293.4C2344.57 294.4 2345.84 294.9 2347.37 294.9Z" fill="black"/>
<path fill-rule="evenodd" clip-rule="evenodd" d="M1504.16 314.409C1510.99 314.409 1516.52 308.872 1516.52 302.042C1516.52 295.212 1510.99 289.676 1504.16 289.676C1497.33 289.676 1491.79 295.212 1491.79 302.042C1491.79 308.872 1497.33 314.409 1504.16 314.409Z" stroke="#38363D" stroke-width="2" stroke-linecap="round" stroke-linejoin="round"/>
<path fill-rule="evenodd" clip-rule="evenodd" d="M1519 289.675C1525.83 289.675 1531.36 284.139 1531.36 277.309C1531.36 270.479 1525.83 264.942 1519 264.942C1512.17 264.942 1506.63 270.479 1506.63 277.309C1506.63 284.139 1512.17 289.675 1519 289.675Z" stroke="#38363D" stroke-width="2" stroke-linecap="round" stroke-linejoin="round"/>
<path fill-rule="evenodd" clip-rule="evenodd" d="M1504.16 264.942C1510.99 264.942 1516.52 259.405 1516.52 252.575C1516.52 245.745 1510.99 240.209 1504.16 240.209C1497.33 240.209 1491.79 245.745 1491.79 252.575C1491.79 259.405 1497.33 264.942 1504.16 264.942Z" stroke="#38363D" stroke-width="2" stroke-linecap="round" stroke-linejoin="round"/>
<path fill-rule="evenodd" clip-rule="evenodd" d="M1533.84 264.942C1540.67 264.942 1546.2 259.405 1546.2 252.575C1546.2 245.745 1540.67 240.209 1533.84 240.209C1527.01 240.209 1521.47 245.745 1521.47 252.575C1521.47 259.405 1527.01 264.942 1533.84 264.942Z" stroke="#38363D" stroke-width="2" stroke-linecap="round" stroke-linejoin="round"/>
<path fill-rule="evenodd" clip-rule="evenodd" d="M1474.48 264.942C1481.31 264.942 1486.84 259.405 1486.84 252.575C1486.84 245.745 1481.31 240.209 1474.48 240.209C1467.65 240.209 1462.11 245.745 1462.11 252.575C1462.11 259.405 1467.65 264.942 1474.48 264.942Z" stroke="#38363D" stroke-width="2" stroke-linecap="round" stroke-linejoin="round"/>
<path d="M1504.16 232.2C1506.42 229.511 1507.52 226.034 1507.21 222.535C1506.91 219.036 1505.22 215.802 1502.53 213.544" stroke="#38363D" stroke-width="2" stroke-linecap="round" stroke-linejoin="round"/>
<path fill-rule="evenodd" clip-rule="evenodd" d="M1489.32 289.675C1496.15 289.675 1501.68 284.139 1501.68 277.309C1501.68 270.479 1496.15 264.942 1489.32 264.942C1482.49 264.942 1476.95 270.479 1476.95 277.309C1476.95 284.139 1482.49 289.675 1489.32 289.675Z" stroke="#38363D" stroke-width="2" stroke-linecap="round" stroke-linejoin="round"/>
<path fill-rule="evenodd" clip-rule="evenodd" d="M932.65 261.425C932.938 288.676 955.097 310.624 982.35 310.65C990.592 310.643 998.493 307.363 1004.32 301.531C1010.14 295.698 1013.41 287.792 1013.4 279.55C1013.4 276.745 1012.8 273.972 1011.62 271.425C1011.49 271.107 1011.17 270.901 1010.82 270.9H1007.97C1008.35 268.93 1008.4 266.911 1008.12 264.925C1008.06 264.487 1007.69 264.158 1007.25 264.15H966.5C966.003 264.15 965.6 264.553 965.6 265.05C965.6 265.547 966.003 265.95 966.5 265.95H1006.42C1006.58 267.621 1006.49 269.306 1006.15 270.95H973.375C970.955 270.635 968.504 271.232 966.5 272.625C964.849 273.912 963.713 275.748 963.3 277.8C962.842 280.11 963.358 282.507 964.725 284.425C967.199 287.355 970.657 289.284 974.45 289.85C977.599 290.547 980.838 290.75 984.05 290.45C994.9 289.35 1004.55 282.175 1007.52 272.95V272.75H1010.12C1011.04 274.918 1011.51 277.247 1011.5 279.6C1011.49 295.714 998.464 308.792 982.35 308.875C955.878 308.875 934.414 287.422 934.4 260.95C934.401 260.655 934.25 260.381 934 260.225L927.2 255.5L933.9 251.625C934.185 251.461 934.357 251.154 934.35 250.825V249.45C934.121 243.741 937.036 238.365 941.946 235.443C946.855 232.52 952.97 232.52 957.879 235.443C962.789 238.365 965.704 243.741 965.475 249.45C965.475 249.947 965.878 250.35 966.375 250.35C966.872 250.35 967.275 249.947 967.275 249.45C966.921 240.117 959.252 232.734 949.912 232.734C940.573 232.734 932.904 240.117 932.55 249.45V250.35L925.05 254.65C924.773 254.798 924.6 255.086 924.6 255.4C924.58 255.706 924.723 256 924.975 256.175L932.65 261.425ZM967.5 274.05C969.126 272.987 971.069 272.519 973 272.725L973.1 272.75H1005.6C1002.4 282.1 992.275 287.775 983.8 288.6C980.78 288.884 977.734 288.69 974.775 288.025C971.412 287.554 968.331 285.885 966.1 283.325C965.022 281.812 964.624 279.919 965 278.1C965.331 276.498 966.216 275.064 967.5 274.05Z" fill="#38363D"/>
<path fill-rule="evenodd" clip-rule="evenodd" d="M936.075 240.45C936.247 240.605 936.469 240.694 936.7 240.7H936.775C937.033 240.667 937.267 240.532 937.425 240.325C938.973 238.171 941.047 236.45 943.45 235.325C943.898 235.116 944.357 234.932 944.825 234.775C948.19 233.588 951.86 233.588 955.225 234.775C955.675 234.925 956.125 235.125 956.575 235.325L956.575 235.325C958.973 236.457 961.045 238.177 962.6 240.325C962.754 240.536 962.99 240.673 963.25 240.7C963.506 240.705 963.755 240.616 963.95 240.45C965.647 238.799 966.176 236.284 965.287 234.089C964.398 231.893 962.268 230.455 959.9 230.45C959.145 230.441 958.397 230.585 957.7 230.875C956.728 227.427 953.582 225.045 950 225.045C946.417 225.045 943.272 227.427 942.3 230.875C941.604 230.581 940.855 230.436 940.1 230.45C937.736 230.465 935.616 231.907 934.733 234.1C933.85 236.293 934.381 238.802 936.075 240.45ZM955.8 233.1C953.937 232.442 951.976 232.104 950 232.1C948.032 232.106 946.08 232.445 944.225 233.1C943.705 233.278 943.195 233.487 942.7 233.725C940.377 234.807 938.32 236.386 936.675 238.35C936.269 237.715 936.053 236.978 936.05 236.225C936.05 235.144 936.479 234.108 937.243 233.344C938.008 232.579 939.044 232.15 940.125 232.15C940.959 232.153 941.771 232.415 942.45 232.9C942.731 233.051 943.069 233.051 943.35 232.9C943.628 232.766 943.824 232.505 943.875 232.2C944.222 229.059 946.877 226.681 950.037 226.681C953.198 226.681 955.853 229.059 956.2 232.2C956.251 232.505 956.446 232.766 956.725 232.9C956.997 233.051 957.328 233.051 957.6 232.9C958.282 232.423 959.092 232.161 959.925 232.15C962.175 232.15 964 233.975 964 236.225C963.992 236.981 963.767 237.719 963.35 238.35C961.706 236.395 959.659 234.817 957.35 233.725C956.85 233.5 956.325 233.275 955.8 233.1Z" fill="#38363D"/>
<path d="M979 325H966.5C966.003 325 965.6 324.597 965.6 324.1C965.6 323.603 966.003 323.2 966.5 323.2H978.075V309.775C978.075 309.278 978.478 308.875 978.975 308.875C979.472 308.875 979.875 309.278 979.875 309.775V324.1C979.875 324.587 979.487 324.986 979 325V325Z" fill="#38363D"/>
<path d="M1143.04 314.675C1117.26 314.675 1096.37 293.409 1096.37 267.175C1096.37 266.678 1096.76 266.275 1097.25 266.275H1180.79C1180.21 255.569 1172.29 246.766 1161.86 245.241C1151.43 243.716 1141.39 249.893 1137.88 260C1137.76 260.356 1137.44 260.598 1137.07 260.6C1136.7 260.593 1136.37 260.382 1136.21 260.05C1133.97 254.238 1130.57 248.961 1126.24 244.55C1117.48 235.715 1105.57 230.887 1093.25 231.175C1092.98 241.209 1095.96 251.054 1101.72 259.2C1101.95 259.599 1101.84 260.108 1101.48 260.378C1101.11 260.649 1100.6 260.593 1100.3 260.25C1094.12 251.556 1091.01 240.995 1091.46 230.275C1091.48 229.811 1091.84 229.437 1092.29 229.4C1105.41 228.808 1118.18 233.841 1127.49 243.275C1131.47 247.327 1134.7 252.089 1136.99 257.325C1141.55 246.856 1152.68 241.063 1163.69 243.436C1174.69 245.809 1182.56 255.7 1182.55 267.15C1182.55 267.647 1182.16 268.05 1181.67 268.05H1098.16C1098.92 292.927 1119.08 312.623 1143.53 312.378C1167.98 312.133 1187.75 292.038 1188.03 267.15C1188.03 266.653 1188.43 266.25 1188.92 266.25C1189.4 266.25 1189.8 266.653 1189.8 267.15C1189.81 279.77 1184.88 291.873 1176.11 300.789C1167.33 309.706 1155.43 314.702 1143.04 314.675V314.675Z" fill="#38363D"/>
<path d="M1121.27 260.625C1121.04 260.619 1120.82 260.52 1120.66 260.35L1097.18 236.45C1096.83 236.098 1096.83 235.527 1097.18 235.175C1097.52 234.823 1098.09 234.823 1098.43 235.175L1121.91 259.075C1122.08 259.244 1122.17 259.473 1122.17 259.712C1122.17 259.952 1122.08 260.181 1121.91 260.35C1121.74 260.522 1121.51 260.62 1121.27 260.625Z" fill="#38363D"/>
<path d="M1166.42 320.625H1118.47C1117.99 320.625 1117.6 320.237 1117.59 319.75V312.25C1117.59 311.753 1117.99 311.35 1118.47 311.35C1118.96 311.35 1119.36 311.753 1119.36 312.25V318.9H1165.53V312.2C1165.53 311.703 1165.93 311.3 1166.42 311.3C1166.91 311.3 1167.3 311.703 1167.3 312.2V319.7C1167.31 319.943 1167.22 320.178 1167.05 320.353C1166.89 320.527 1166.66 320.625 1166.42 320.625V320.625Z" fill="#38363D"/>
<path d="M1158.66 255C1158.4 255.002 1158.16 254.893 1157.99 254.702C1157.82 254.511 1157.74 254.255 1157.77 254V247.85C1157.77 247.353 1158.17 246.95 1158.66 246.95C1159.14 246.95 1159.54 247.353 1159.54 247.85V254C1159.57 254.255 1159.49 254.511 1159.32 254.702C1159.15 254.893 1158.91 255.002 1158.66 255V255Z" fill="#38363D"/>
<path d="M1165.14 256.475C1164.99 256.51 1164.84 256.51 1164.7 256.475C1164.28 256.216 1164.13 255.661 1164.38 255.225L1167.4 249.9C1167.66 249.521 1168.17 249.41 1168.56 249.644C1168.96 249.877 1169.11 250.378 1168.92 250.8L1165.9 256.125C1165.72 256.364 1165.44 256.496 1165.14 256.475V256.475Z" fill="#38363D"/>
<path d="M1170.05 261.15C1169.73 261.158 1169.43 260.985 1169.27 260.7C1169.15 260.493 1169.11 260.244 1169.18 260.012C1169.24 259.78 1169.4 259.586 1169.61 259.475L1174.84 256.4C1175.12 256.202 1175.48 256.179 1175.77 256.339C1176.07 256.5 1176.25 256.818 1176.24 257.159C1176.23 257.5 1176.03 257.807 1175.73 257.95L1170.49 261.05C1170.36 261.119 1170.21 261.153 1170.05 261.15V261.15Z" fill="#38363D"/>
<path d="M1147.65 261.8C1147.5 261.793 1147.35 261.751 1147.21 261.675L1141.98 258.575C1141.61 258.305 1141.5 257.792 1141.73 257.39C1141.96 256.988 1142.45 256.829 1142.86 257.025L1148.09 260C1148.3 260.12 1148.45 260.321 1148.51 260.556C1148.57 260.792 1148.54 261.042 1148.41 261.25C1148.29 261.57 1147.99 261.785 1147.65 261.8V261.8Z" fill="#38363D"/>
<path d="M1152.25 256.85C1151.93 256.839 1151.65 256.67 1151.48 256.4L1148.46 251.05C1148.22 250.622 1148.36 250.075 1148.78 249.825C1149.2 249.593 1149.73 249.735 1149.99 250.15L1153.01 255.5C1153.13 255.704 1153.17 255.951 1153.11 256.182C1153.04 256.414 1152.89 256.61 1152.69 256.725C1152.55 256.804 1152.4 256.847 1152.25 256.85V256.85Z" fill="#38363D"/>
<path fill-rule="evenodd" clip-rule="evenodd" d="M1341.6 265.323C1349.82 265.323 1356.49 258.848 1356.49 250.861C1356.49 242.874 1349.82 236.4 1341.6 236.4C1333.37 236.4 1326.71 242.874 1326.71 250.861C1326.71 258.848 1333.37 265.323 1341.6 265.323Z" stroke="#38363D" stroke-width="2" stroke-linecap="round" stroke-linejoin="round"/>
<path d="M1352.23 303.474C1354.55 303.554 1356.42 305.381 1356.49 307.65C1356.47 308.773 1356 309.845 1355.17 310.624C1354.34 311.404 1353.22 311.828 1352.07 311.8H1291.25C1288.88 311.8 1286.95 309.935 1286.94 307.624C1287 305.356 1288.87 303.529 1291.19 303.448L1352.23 303.474Z" fill="#38363D"/>
<path fill-rule="evenodd" clip-rule="evenodd" d="M1352.7 297.7C1342.58 296.926 1330.62 290.868 1330.62 279.655C1330.62 279.655 1331.07 270.916 1331.57 261.611C1328.3 258.698 1326.53 254.51 1326.76 250.194C1326.98 245.878 1329.18 241.887 1332.74 239.313C1332.71 237.739 1331.39 236.477 1329.78 236.477H1313.54C1312.71 236.482 1311.92 236.824 1311.36 237.42C1310.79 238.017 1310.51 238.815 1310.58 239.622L1312.69 279.707C1312.69 290.972 1300.74 297.029 1290.61 297.751C1285.2 298.074 1280.95 302.413 1280.88 307.701C1280.9 310.356 1282.01 312.893 1283.95 314.751C1285.9 316.609 1288.52 317.634 1291.25 317.6H1352.07C1354.78 317.607 1357.39 316.562 1359.31 314.696C1361.24 312.83 1362.32 310.296 1362.33 307.65C1362.26 302.399 1358.08 298.074 1352.7 297.7Z" stroke="#38363D" stroke-width="2" stroke-linecap="round" stroke-linejoin="round"/>
<path d="M1341.6 240.988V250.861L1348.5 257.589" stroke="#38363D" stroke-width="2" stroke-linecap="round"/>
<path d="M791.5 303.225C775.925 303.225 760.875 295.225 750.25 281.25C748.749 279.177 748.749 276.374 750.25 274.3C758.478 262.874 770.87 255.142 784.75 252.775C785.012 252.749 785.274 252.83 785.475 253C785.662 253.175 785.77 253.419 785.775 253.675V260.15C785.801 261.356 785.461 262.541 784.8 263.55C783.775 265.059 783.775 267.041 784.8 268.55C785.456 269.561 785.796 270.745 785.775 271.95C785.797 273.148 785.457 274.324 784.8 275.325C784.286 276.055 784.023 276.933 784.05 277.825C784.017 278.718 784.281 279.597 784.8 280.325C785.457 281.326 785.797 282.503 785.775 283.7C785.796 284.905 785.456 286.089 784.8 287.1C783.775 288.609 783.775 290.591 784.8 292.1C785.456 293.111 785.796 294.295 785.775 295.5C785.775 295.997 785.372 296.4 784.875 296.4C784.378 296.4 783.975 295.997 783.975 295.5C784.002 294.611 783.749 293.736 783.25 293C782.572 291.998 782.222 290.81 782.25 289.6C782.227 288.391 782.576 287.204 783.25 286.2C784.241 284.681 784.241 282.719 783.25 281.2C781.92 279.138 781.92 276.488 783.25 274.425C784.241 272.906 784.241 270.944 783.25 269.425C782.576 268.421 782.227 267.234 782.25 266.025C782.222 264.823 782.572 263.643 783.25 262.65C783.744 261.912 783.997 261.038 783.975 260.15V254.725C770.909 257.207 759.289 264.596 751.5 275.375C750.485 276.805 750.485 278.72 751.5 280.15C761.8 293.675 776.3 301.425 791.325 301.425C805.518 301.163 818.906 294.783 828.05 283.925C828.228 283.745 828.471 283.644 828.725 283.644C828.979 283.644 829.222 283.745 829.4 283.925C833.91 289.071 839.357 293.312 845.45 296.425C842.115 290.771 840.387 284.314 840.45 277.75C840.376 271.177 842.105 264.709 845.45 259.05C839.345 262.155 833.889 266.398 829.375 271.55C829.197 271.73 828.954 271.832 828.7 271.832C828.446 271.832 828.203 271.73 828.025 271.55C827.475 270.925 826.9 270.325 826.325 269.725C817.791 260.477 806.011 254.887 793.45 254.125C793.102 254.1 792.8 253.876 792.675 253.55C792.532 253.215 792.612 252.827 792.875 252.575C796.029 249.032 800.486 246.921 805.225 246.725C811.15 246.725 816.95 250.625 822 258C822.282 258.408 822.181 258.966 821.775 259.25C821.576 259.383 821.333 259.431 821.098 259.385C820.864 259.338 820.657 259.199 820.525 259C813.025 247.975 804 245.625 795.725 252.5C807.962 253.786 819.315 259.472 827.675 268.5L828.775 269.625C834.06 263.799 840.53 259.171 847.75 256.05C848.124 255.904 848.549 256.023 848.793 256.342C849.036 256.661 849.039 257.103 848.8 257.425C844.461 263.306 842.161 270.443 842.25 277.75C842.158 285.051 844.458 292.18 848.8 298.05C849.05 298.374 849.05 298.826 848.8 299.15C848.562 299.482 848.121 299.598 847.75 299.425C840.521 296.319 834.049 291.689 828.775 285.85C819.351 296.632 805.817 302.94 791.5 303.225Z" fill="#38363D"/>
<path d="M793.125 294.075C792.628 294.075 792.225 293.672 792.225 293.175C792.247 292.418 792.028 291.674 791.6 291.05C791.013 290.152 790.708 289.098 790.725 288.025C790.672 286.961 790.942 285.907 791.5 285C791.925 284.374 792.144 283.631 792.125 282.875C792.147 282.118 791.928 281.374 791.5 280.75C790.334 278.911 790.334 276.564 791.5 274.725C792.335 273.44 792.335 271.784 791.5 270.5C790.335 268.651 790.335 266.298 791.5 264.45C791.925 263.833 792.143 263.098 792.125 262.35C792.166 261.832 792.62 261.446 793.138 261.487C793.655 261.529 794.041 261.982 794 262.5C794.036 263.568 793.73 264.619 793.125 265.5C792.29 266.784 792.29 268.44 793.125 269.725C794.29 271.573 794.29 273.926 793.125 275.775C792.29 277.059 792.29 278.715 793.125 280C794.29 281.848 794.29 284.201 793.125 286.05C792.29 287.334 792.29 288.99 793.125 290.275C793.699 291.133 794.004 292.143 794 293.175C794 293.662 793.612 294.061 793.125 294.075Z" fill="#38363D"/>
<path d="M800.2 291.875C799.703 291.875 799.3 291.472 799.3 290.975C799.313 290.351 799.129 289.739 798.775 289.225C798.257 288.439 797.987 287.516 798 286.575C797.978 285.633 798.248 284.707 798.775 283.925C799.129 283.411 799.313 282.799 799.3 282.175C799.316 281.551 799.132 280.937 798.775 280.425C798.253 279.641 797.982 278.717 798 277.775C797.963 276.792 798.234 275.822 798.775 275C799.472 273.946 799.472 272.579 798.775 271.525C797.751 269.898 797.751 267.827 798.775 266.2C799.134 265.698 799.318 265.092 799.3 264.475C799.3 263.978 799.703 263.575 800.2 263.575C800.697 263.575 801.1 263.978 801.1 264.475C801.095 265.414 800.827 266.332 800.325 267.125C799.628 268.179 799.628 269.546 800.325 270.6C800.843 271.386 801.113 272.309 801.1 273.25C801.1 274.197 800.831 275.125 800.325 275.925C799.628 276.979 799.628 278.346 800.325 279.4C800.846 280.194 801.116 281.126 801.1 282.075C801.105 283.015 800.836 283.936 800.325 284.725C799.624 285.786 799.624 287.164 800.325 288.225C800.84 289.012 801.11 289.934 801.1 290.875C801.129 291.13 801.046 291.386 800.874 291.577C800.703 291.768 800.457 291.877 800.2 291.875V291.875Z" fill="#38363D"/>
<rect x="1744" y="230" width="328" height="85" rx="2" fill="#F7B42F"/>
<path d="M1815.27 280.536L1817.31 280.408C1818.34 280.323 1819.12 279.981 1819.65 279.384C1820.18 278.765 1820.45 277.912 1820.45 276.824V260.44H1823.78V276.856C1823.78 278.776 1823.27 280.269 1822.24 281.336C1821.24 282.403 1819.77 282.989 1817.83 283.096L1815.49 283.256L1815.27 280.536ZM1835.42 283.224C1833.88 283.224 1832.53 282.893 1831.36 282.232C1830.2 281.571 1829.31 280.632 1828.67 279.416C1828.05 278.179 1827.74 276.749 1827.74 275.128C1827.74 273.485 1828.05 272.056 1828.67 270.84C1829.31 269.603 1830.2 268.653 1831.36 267.992C1832.53 267.331 1833.88 267 1835.42 267C1836.96 267 1838.3 267.331 1839.45 267.992C1840.63 268.653 1841.52 269.603 1842.14 270.84C1842.78 272.056 1843.1 273.485 1843.1 275.128C1843.1 276.749 1842.78 278.179 1842.14 279.416C1841.52 280.632 1840.63 281.571 1839.45 282.232C1838.3 282.893 1836.96 283.224 1835.42 283.224ZM1835.42 280.664C1836.85 280.664 1837.94 280.195 1838.68 279.256C1839.45 278.317 1839.84 276.941 1839.84 275.128C1839.84 273.336 1839.45 271.971 1838.68 271.032C1837.92 270.072 1836.83 269.592 1835.42 269.592C1834.01 269.592 1832.92 270.072 1832.16 271.032C1831.39 271.971 1831 273.336 1831 275.128C1831 276.941 1831.38 278.317 1832.12 279.256C1832.89 280.195 1833.99 280.664 1835.42 280.664ZM1846.7 283V267.384H1849.93V283H1846.7ZM1846.48 260.408H1850.19V263.768H1846.48V260.408ZM1862.87 267C1866.6 267 1868.47 269.101 1868.47 273.304V283H1865.23V273.464C1865.23 272.141 1864.97 271.171 1864.43 270.552C1863.92 269.933 1863.11 269.624 1862 269.624C1860.7 269.624 1859.65 270.029 1858.87 270.84C1858.08 271.651 1857.68 272.739 1857.68 274.104V283H1854.45V267.384H1857.62V269.88C1858.13 268.941 1858.84 268.227 1859.76 267.736C1860.68 267.245 1861.71 267 1862.87 267ZM1888.72 280.728C1889.21 280.728 1889.69 280.696 1890.16 280.632L1890 283.096C1889.46 283.181 1888.91 283.224 1888.33 283.224C1886.31 283.224 1884.79 282.733 1883.79 281.752C1882.81 280.749 1882.32 279.309 1882.32 277.432V269.88H1879.28V267.384H1882.32V262.68H1885.55V267.384H1889.84V269.88H1885.55V277.304C1885.55 279.587 1886.6 280.728 1888.72 280.728ZM1901.02 267C1904.75 267 1906.62 269.101 1906.62 273.304V283H1903.39V273.464C1903.39 272.141 1903.12 271.171 1902.59 270.552C1902.08 269.933 1901.27 269.624 1900.16 269.624C1898.86 269.624 1897.81 270.029 1897.02 270.84C1896.23 271.651 1895.84 272.739 1895.84 274.104V283H1892.61V260.44H1895.84V269.752C1896.37 268.856 1897.09 268.173 1897.98 267.704C1898.88 267.235 1899.89 267 1901.02 267ZM1924.42 275.736H1913.38C1913.61 279.043 1915.26 280.696 1918.31 280.696C1920.1 280.696 1921.72 280.109 1923.17 278.936L1924.16 281.208C1923.44 281.827 1922.54 282.317 1921.48 282.68C1920.41 283.043 1919.32 283.224 1918.21 283.224C1915.72 283.224 1913.74 282.509 1912.29 281.08C1910.86 279.651 1910.15 277.677 1910.15 275.16C1910.15 273.56 1910.46 272.141 1911.08 270.904C1911.72 269.667 1912.6 268.707 1913.73 268.024C1914.88 267.341 1916.18 267 1917.64 267C1919.75 267 1921.4 267.683 1922.6 269.048C1923.81 270.413 1924.42 272.301 1924.42 274.712V275.736ZM1917.7 269.368C1916.46 269.368 1915.47 269.763 1914.72 270.552C1914 271.32 1913.56 272.429 1913.41 273.88H1921.64C1921.57 272.429 1921.2 271.32 1920.52 270.552C1919.85 269.763 1918.92 269.368 1917.7 269.368ZM1946.72 283.256C1944.55 283.256 1942.65 282.787 1941.03 281.848C1939.43 280.909 1938.19 279.576 1937.31 277.848C1936.46 276.099 1936.03 274.051 1936.03 271.704C1936.03 269.357 1936.46 267.32 1937.31 265.592C1938.19 263.843 1939.43 262.509 1941.03 261.592C1942.65 260.653 1944.55 260.184 1946.72 260.184C1948.26 260.184 1949.69 260.429 1951.01 260.92C1952.33 261.389 1953.45 262.072 1954.37 262.968L1953.22 265.4C1952.17 264.525 1951.13 263.896 1950.08 263.512C1949.06 263.128 1947.95 262.936 1946.75 262.936C1944.41 262.936 1942.59 263.693 1941.31 265.208C1940.06 266.723 1939.43 268.888 1939.43 271.704C1939.43 274.52 1940.06 276.696 1941.31 278.232C1942.59 279.747 1944.41 280.504 1946.75 280.504C1947.95 280.504 1949.06 280.312 1950.08 279.928C1951.13 279.544 1952.17 278.915 1953.22 278.04L1954.37 280.472C1953.45 281.368 1952.33 282.061 1951.01 282.552C1949.69 283.021 1948.26 283.256 1946.72 283.256ZM1958.07 283V260.44H1961.31V283H1958.07ZM1979.52 267.384V283H1976.38V280.472C1975.89 281.368 1975.21 282.051 1974.34 282.52C1973.48 282.989 1972.52 283.224 1971.46 283.224C1967.66 283.224 1965.76 281.133 1965.76 276.952V267.384H1968.99V276.92C1968.99 278.179 1969.25 279.107 1969.76 279.704C1970.27 280.301 1971.06 280.6 1972.13 280.6C1973.39 280.6 1974.39 280.195 1975.14 279.384C1975.9 278.573 1976.29 277.496 1976.29 276.152V267.384H1979.52ZM1992.43 267C1993.79 267 1995 267.331 1996.04 267.992C1997.09 268.653 1997.9 269.592 1998.48 270.808C1999.07 272.024 1999.37 273.443 1999.37 275.064C1999.37 276.664 1999.07 278.083 1998.48 279.32C1997.9 280.557 1997.08 281.517 1996.01 282.2C1994.97 282.883 1993.77 283.224 1992.43 283.224C1991.25 283.224 1990.22 282.979 1989.32 282.488C1988.43 281.976 1987.74 281.251 1987.28 280.312V283H1984.04V260.44H1987.28V269.944C1987.74 269.005 1988.43 268.28 1989.32 267.768C1990.22 267.256 1991.25 267 1992.43 267ZM1991.66 280.664C1993.05 280.664 1994.12 280.173 1994.89 279.192C1995.68 278.211 1996.08 276.835 1996.08 275.064C1996.08 273.315 1995.69 271.971 1994.92 271.032C1994.16 270.072 1993.07 269.592 1991.66 269.592C1990.25 269.592 1989.16 270.072 1988.4 271.032C1987.65 271.992 1987.28 273.357 1987.28 275.128C1987.28 276.899 1987.65 278.264 1988.4 279.224C1989.16 280.184 1990.25 280.664 1991.66 280.664Z" fill="black"/>
<defs>
<filter id="filter0_d" x="0" y="153" width="648" height="248" filterUnits="userSpaceOnUse" color-interpolation-filters="sRGB">
<feFlood flood-opacity="0" result="BackgroundImageFix"/>
<feColorMatrix in="SourceAlpha" type="matrix" values="0 0 0 0 0 0 0 0 0 0 0 0 0 0 0 0 0 0 127 0"/>
<feOffset dy="4"/>
<feGaussianBlur stdDeviation="12"/>
<feColorMatrix type="matrix" values="0 0 0 0 0 0 0 0 0 0 0 0 0 0 0 0 0 0 0.09 0"/>
<feBlend mode="normal" in2="BackgroundImageFix" result="effect1_dropShadow"/>
<feBlend mode="normal" in="SourceGraphic" in2="effect1_dropShadow" result="shape"/>
</filter>
<filter id="filter1_d" x="680" y="153" width="948" height="248" filterUnits="userSpaceOnUse" color-interpolation-filters="sRGB">
<feFlood flood-opacity="0" result="BackgroundImageFix"/>
<feColorMatrix in="SourceAlpha" type="matrix" values="0 0 0 0 0 0 0 0 0 0 0 0 0 0 0 0 0 0 127 0"/>
<feOffset dy="4"/>
<feGaussianBlur stdDeviation="12"/>
<feColorMatrix type="matrix" values="0 0 0 0 0 0 0 0 0 0 0 0 0 0 0 0 0 0 0.09 0"/>
<feBlend mode="normal" in2="BackgroundImageFix" result="effect1_dropShadow"/>
<feBlend mode="normal" in="SourceGraphic" in2="effect1_dropShadow" result="shape"/>
</filter>
<filter id="filter2_d" x="2188" y="153" width="248" height="248" filterUnits="userSpaceOnUse" color-interpolation-filters="sRGB">
<feFlood flood-opacity="0" result="BackgroundImageFix"/>
<feColorMatrix in="SourceAlpha" type="matrix" values="0 0 0 0 0 0 0 0 0 0 0 0 0 0 0 0 0 0 127 0"/>
<feOffset dy="4"/>
<feGaussianBlur stdDeviation="12"/>
<feColorMatrix type="matrix" values="0 0 0 0 0 0 0 0 0 0 0 0 0 0 0 0 0 0 0.09 0"/>
<feBlend mode="normal" in2="BackgroundImageFix" result="effect1_dropShadow"/>
<feBlend mode="normal" in="SourceGraphic" in2="effect1_dropShadow" result="shape"/>
</filter>
<filter id="filter3_d" x="1660" y="153" width="496" height="248" filterUnits="userSpaceOnUse" color-interpolation-filters="sRGB">
<feFlood flood-opacity="0" result="BackgroundImageFix"/>
<feColorMatrix in="SourceAlpha" type="matrix" values="0 0 0 0 0 0 0 0 0 0 0 0 0 0 0 0 0 0 127 0"/>
<feOffset dy="4"/>
<feGaussianBlur stdDeviation="12"/>
<feColorMatrix type="matrix" values="0 0 0 0 0 0 0 0 0 0 0 0 0 0 0 0 0 0 0.09 0"/>
<feBlend mode="normal" in2="BackgroundImageFix" result="effect1_dropShadow"/>
<feBlend mode="normal" in="SourceGraphic" in2="effect1_dropShadow" result="shape"/>
</filter>
</defs>
</svg>
