<svg width="600" height="600" viewBox="0 0 600 600" fill="none" xmlns="http://www.w3.org/2000/svg">
<g clip-path="url(#clip0)">
<rect width="600" height="600" fill="#F9F1E8"/>
<path d="M187.434 15.44L205.634 83.62L228.034 15.44H249.874L272.274 83.62L290.474 15.44H319.174L287.674 121H259.674L238.954 59.82L218.234 121H190.234L158.734 15.44H187.434ZM360.542 15.44V121H333.102V15.44H360.542ZM385.394 121V15.44H412.834L463.514 79.98V15.44H490.814V121H463.514L412.834 56.46V121H385.394ZM575.813 38.68H543.193V56.32H573.993V79.56H543.193V97.76H575.813V121H515.753V15.44H575.813V38.68ZM84.46 235.8L72.14 200.66L59.82 235.8H84.46ZM91.74 256.66H52.54L46.24 275H16.98L57.16 169.44H87.12L127.3 275H98.04L91.74 256.66ZM214.161 204.72C207.815 196.973 199.975 193.1 190.641 193.1C186.535 193.1 182.708 193.847 179.161 195.34C175.708 196.833 172.721 198.887 170.201 201.5C167.681 204.02 165.675 207.053 164.181 210.6C162.781 214.147 162.081 217.973 162.081 222.08C162.081 226.28 162.781 230.153 164.181 233.7C165.675 237.247 167.681 240.327 170.201 242.94C172.815 245.553 175.848 247.607 179.301 249.1C182.755 250.593 186.488 251.34 190.501 251.34C199.275 251.34 207.161 247.607 214.161 240.14V272.62L211.361 273.6C207.161 275.093 203.241 276.167 199.601 276.82C195.961 277.567 192.368 277.94 188.821 277.94C181.541 277.94 174.541 276.587 167.821 273.88C161.195 271.08 155.315 267.207 150.181 262.26C145.141 257.22 141.081 251.293 138.001 244.48C134.921 237.573 133.381 230.06 133.381 221.94C133.381 213.82 134.875 206.4 137.861 199.68C140.941 192.867 145.001 187.033 150.041 182.18C155.175 177.233 161.101 173.407 167.821 170.7C174.541 167.9 181.588 166.5 188.961 166.5C193.161 166.5 197.268 166.967 201.281 167.9C205.388 168.74 209.681 170.093 214.161 171.96V204.72ZM310.34 204.72C303.993 196.973 296.153 193.1 286.82 193.1C282.713 193.1 278.887 193.847 275.34 195.34C271.887 196.833 268.9 198.887 266.38 201.5C263.86 204.02 261.853 207.053 260.36 210.6C258.96 214.147 258.26 217.973 258.26 222.08C258.26 226.28 258.96 230.153 260.36 233.7C261.853 237.247 263.86 240.327 266.38 242.94C268.993 245.553 272.027 247.607 275.48 249.1C278.933 250.593 282.667 251.34 286.68 251.34C295.454 251.34 303.34 247.607 310.34 240.14V272.62L307.54 273.6C303.34 275.093 299.42 276.167 295.78 276.82C292.14 277.567 288.547 277.94 285 277.94C277.72 277.94 270.72 276.587 264 273.88C257.373 271.08 251.493 267.207 246.36 262.26C241.32 257.22 237.26 251.293 234.18 244.48C231.1 237.573 229.56 230.06 229.56 221.94C229.56 213.82 231.053 206.4 234.04 199.68C237.12 192.867 241.18 187.033 246.22 182.18C251.353 177.233 257.28 173.407 264 170.7C270.72 167.9 277.767 166.5 285.14 166.5C289.34 166.5 293.447 166.967 297.46 167.9C301.567 168.74 305.86 170.093 310.34 171.96V204.72ZM390.559 192.68H357.939V210.32H388.739V233.56H357.939V251.76H390.559V275H330.499V169.44H390.559V192.68ZM471.103 196.46C468.116 194.033 465.129 192.26 462.143 191.14C459.156 189.927 456.263 189.32 453.463 189.32C449.916 189.32 447.023 190.16 444.783 191.84C442.543 193.52 441.423 195.713 441.423 198.42C441.423 200.287 441.983 201.827 443.103 203.04C444.223 204.253 445.669 205.327 447.443 206.26C449.309 207.1 451.363 207.847 453.603 208.5C455.936 209.153 458.223 209.853 460.463 210.6C469.423 213.587 475.956 217.6 480.063 222.64C484.263 227.587 486.363 234.073 486.363 242.1C486.363 247.513 485.429 252.413 483.563 256.8C481.789 261.187 479.129 264.967 475.583 268.14C472.129 271.22 467.836 273.6 462.703 275.28C457.663 277.053 451.923 277.94 445.483 277.94C432.136 277.94 419.769 273.973 408.383 266.04L420.143 243.92C424.249 247.56 428.309 250.267 432.323 252.04C436.336 253.813 440.303 254.7 444.223 254.7C448.703 254.7 452.016 253.673 454.163 251.62C456.403 249.567 457.523 247.233 457.523 244.62C457.523 243.033 457.243 241.68 456.683 240.56C456.123 239.347 455.189 238.273 453.883 237.34C452.576 236.313 450.849 235.38 448.703 234.54C446.649 233.7 444.129 232.767 441.143 231.74C437.596 230.62 434.096 229.407 430.643 228.1C427.283 226.7 424.249 224.88 421.543 222.64C418.929 220.4 416.783 217.6 415.103 214.24C413.516 210.787 412.723 206.447 412.723 201.22C412.723 195.993 413.563 191.28 415.243 187.08C417.016 182.787 419.443 179.147 422.523 176.16C425.696 173.08 429.523 170.7 434.003 169.02C438.576 167.34 443.663 166.5 449.263 166.5C454.489 166.5 459.949 167.247 465.643 168.74C471.336 170.14 476.796 172.24 482.023 175.04L471.103 196.46ZM564.411 196.46C561.424 194.033 558.437 192.26 555.451 191.14C552.464 189.927 549.571 189.32 546.771 189.32C543.224 189.32 540.331 190.16 538.091 191.84C535.851 193.52 534.731 195.713 534.731 198.42C534.731 200.287 535.291 201.827 536.411 203.04C537.531 204.253 538.977 205.327 540.751 206.26C542.617 207.1 544.671 207.847 546.911 208.5C549.244 209.153 551.531 209.853 553.771 210.6C562.731 213.587 569.264 217.6 573.371 222.64C577.571 227.587 579.671 234.073 579.671 242.1C579.671 247.513 578.737 252.413 576.871 256.8C575.097 261.187 572.437 264.967 568.891 268.14C565.437 271.22 561.144 273.6 556.011 275.28C550.971 277.053 545.231 277.94 538.791 277.94C525.444 277.94 513.077 273.973 501.691 266.04L513.451 243.92C517.557 247.56 521.617 250.267 525.631 252.04C529.644 253.813 533.611 254.7 537.531 254.7C542.011 254.7 545.324 253.673 547.471 251.62C549.711 249.567 550.831 247.233 550.831 244.62C550.831 243.033 550.551 241.68 549.991 240.56C549.431 239.347 548.497 238.273 547.191 237.34C545.884 236.313 544.157 235.38 542.011 234.54C539.957 233.7 537.437 232.767 534.451 231.74C530.904 230.62 527.404 229.407 523.951 228.1C520.591 226.7 517.557 224.88 514.851 222.64C512.237 220.4 510.091 217.6 508.411 214.24C506.824 210.787 506.031 206.447 506.031 201.22C506.031 195.993 506.871 191.28 508.551 187.08C510.324 182.787 512.751 179.147 515.831 176.16C519.004 173.08 522.831 170.7 527.311 169.02C531.884 167.34 536.971 166.5 542.571 166.5C547.797 166.5 553.257 167.247 558.951 168.74C564.644 170.14 570.104 172.24 575.331 175.04L564.411 196.46ZM54.5 323.44V380.84C54.5 383.92 54.5933 387.093 54.78 390.36C55.06 393.533 55.76 396.427 56.88 399.04C58.0933 401.653 59.96 403.8 62.48 405.48C65 407.067 68.5467 407.86 73.12 407.86C77.6933 407.86 81.1933 407.067 83.62 405.48C86.14 403.8 88.0067 401.653 89.22 399.04C90.4333 396.427 91.1333 393.533 91.32 390.36C91.6 387.093 91.74 383.92 91.74 380.84V323.44H119.04V384.62C119.04 401.047 115.26 413.04 107.7 420.6C100.233 428.16 88.7067 431.94 73.12 431.94C57.5333 431.94 45.96 428.16 38.4 420.6C30.84 413.04 27.06 401.047 27.06 384.62V323.44H54.5ZM137.02 429V323.44H164.46L215.14 387.98V323.44H242.44V429H215.14L164.46 364.46V429H137.02ZM320.859 346.68H287.819V364.32H317.919V387.56H287.819V429H260.379V323.44H320.859V346.68ZM360.455 323.44V429H333.015V323.44H360.455ZM405.747 323.44V405.76H438.647V429H378.307V323.44H405.747ZM483.053 346.68V429H455.613V346.68H433.073V323.44H505.593V346.68H483.053ZM573.658 346.68H541.038V364.32H571.838V387.56H541.038V405.76H573.658V429H513.598V323.44H573.658V346.68ZM54.5 524.62H59.68C65.0933 524.62 69.2467 523.5 72.14 521.26C75.0333 519.02 76.48 515.8 76.48 511.6C76.48 507.4 75.0333 504.18 72.14 501.94C69.2467 499.7 65.0933 498.58 59.68 498.58H54.5V524.62ZM114.84 583H80.68L54.5 542.4V583H27.06V477.44H69.76C75.64 477.44 80.7733 478.327 85.16 480.1C89.5467 481.78 93.14 484.113 95.94 487.1C98.8333 490.087 100.98 493.54 102.38 497.46C103.873 501.38 104.62 505.58 104.62 510.06C104.62 518.087 102.66 524.62 98.74 529.66C94.9133 534.607 89.22 537.967 81.66 539.74L114.84 583ZM186.378 500.68H153.758V518.32H184.558V541.56H153.758V559.76H186.378V583H126.318V477.44H186.378V500.68ZM233.602 559.76H239.902C244.662 559.76 248.908 559.013 252.642 557.52C256.375 556.027 259.502 553.973 262.022 551.36C264.635 548.747 266.595 545.667 267.902 542.12C269.302 538.48 270.002 534.513 270.002 530.22C270.002 526.02 269.302 522.1 267.902 518.46C266.502 514.82 264.495 511.693 261.882 509.08C259.362 506.467 256.235 504.413 252.502 502.92C248.768 501.427 244.568 500.68 239.902 500.68H233.602V559.76ZM206.162 477.44H246.762C253.948 477.44 260.668 478.887 266.922 481.78C273.268 484.673 278.775 488.547 283.442 493.4C288.202 498.16 291.935 503.76 294.642 510.2C297.348 516.547 298.702 523.22 298.702 530.22C298.702 537.127 297.348 543.8 294.642 550.24C292.028 556.587 288.342 562.187 283.582 567.04C278.915 571.893 273.408 575.767 267.062 578.66C260.808 581.553 254.042 583 246.762 583H206.162V477.44Z" fill="#38363D"/>
<path d="M187.434 15.44L188.401 15.1821L188.202 14.44H187.434V15.44ZM205.634 83.62L204.668 83.8779L205.535 87.1257L206.584 83.9321L205.634 83.62ZM228.034 15.44V14.44H227.31L227.084 15.1279L228.034 15.44ZM249.874 15.44L250.824 15.1279L250.598 14.44H249.874V15.44ZM272.274 83.62L271.324 83.9321L272.374 87.1257L273.241 83.8779L272.274 83.62ZM290.474 15.44V14.44H289.706L289.508 15.1821L290.474 15.44ZM319.174 15.44L320.133 15.7259L320.516 14.44H319.174V15.44ZM287.674 121V122H288.42L288.633 121.286L287.674 121ZM259.674 121L258.727 121.321L258.957 122H259.674V121ZM238.954 59.82L239.902 59.4992L238.954 56.7026L238.007 59.4992L238.954 59.82ZM218.234 121V122H218.951L219.182 121.321L218.234 121ZM190.234 121L189.276 121.286L189.489 122H190.234V121ZM158.734 15.44V14.44H157.392L157.776 15.7259L158.734 15.44ZM186.468 15.6979L204.668 83.8779L206.601 83.3621L188.401 15.1821L186.468 15.6979ZM206.584 83.9321L228.984 15.7521L227.084 15.1279L204.684 83.3079L206.584 83.9321ZM228.034 16.44H249.874V14.44H228.034V16.44ZM248.924 15.7521L271.324 83.9321L273.224 83.3079L250.824 15.1279L248.924 15.7521ZM273.241 83.8779L291.441 15.6979L289.508 15.1821L271.308 83.3621L273.241 83.8779ZM290.474 16.44H319.174V14.44H290.474V16.44ZM318.216 15.1541L286.716 120.714L288.633 121.286L320.133 15.7259L318.216 15.1541ZM287.674 120H259.674V122H287.674V120ZM260.622 120.679L239.902 59.4992L238.007 60.1408L258.727 121.321L260.622 120.679ZM238.007 59.4992L217.287 120.679L219.182 121.321L239.902 60.1408L238.007 59.4992ZM218.234 120H190.234V122H218.234V120ZM191.193 120.714L159.693 15.1541L157.776 15.7259L189.276 121.286L191.193 120.714ZM158.734 16.44H187.434V14.44H158.734V16.44ZM360.542 15.44H361.542V14.44H360.542V15.44ZM360.542 121V122H361.542V121H360.542ZM333.102 121H332.102V122H333.102V121ZM333.102 15.44V14.44H332.102V15.44H333.102ZM359.542 15.44V121H361.542V15.44H359.542ZM360.542 120H333.102V122H360.542V120ZM334.102 121V15.44H332.102V121H334.102ZM333.102 16.44H360.542V14.44H333.102V16.44ZM385.394 121H384.394V122H385.394V121ZM385.394 15.44V14.44H384.394V15.44H385.394ZM412.834 15.44L413.621 14.8224L413.321 14.44H412.834V15.44ZM463.514 79.98L462.728 80.5976L464.514 82.8727V79.98H463.514ZM463.514 15.44V14.44H462.514V15.44H463.514ZM490.814 15.44H491.814V14.44H490.814V15.44ZM490.814 121V122H491.814V121H490.814ZM463.514 121L462.728 121.618L463.028 122H463.514V121ZM412.834 56.46L413.621 55.8424L411.834 53.5673V56.46H412.834ZM412.834 121V122H413.834V121H412.834ZM386.394 121V15.44H384.394V121H386.394ZM385.394 16.44H412.834V14.44H385.394V16.44ZM412.048 16.0576L462.728 80.5976L464.301 79.3624L413.621 14.8224L412.048 16.0576ZM464.514 79.98V15.44H462.514V79.98H464.514ZM463.514 16.44H490.814V14.44H463.514V16.44ZM489.814 15.44V121H491.814V15.44H489.814ZM490.814 120H463.514V122H490.814V120ZM464.301 120.382L413.621 55.8424L412.048 57.0776L462.728 121.618L464.301 120.382ZM411.834 56.46V121H413.834V56.46H411.834ZM412.834 120H385.394V122H412.834V120ZM575.813 38.68V39.68H576.813V38.68H575.813ZM543.193 38.68V37.68H542.193V38.68H543.193ZM543.193 56.32H542.193V57.32H543.193V56.32ZM573.993 56.32H574.993V55.32H573.993V56.32ZM573.993 79.56V80.56H574.993V79.56H573.993ZM543.193 79.56V78.56H542.193V79.56H543.193ZM543.193 97.76H542.193V98.76H543.193V97.76ZM575.813 97.76H576.813V96.76H575.813V97.76ZM575.813 121V122H576.813V121H575.813ZM515.753 121H514.753V122H515.753V121ZM515.753 15.44V14.44H514.753V15.44H515.753ZM575.813 15.44H576.813V14.44H575.813V15.44ZM575.813 37.68H543.193V39.68H575.813V37.68ZM542.193 38.68V56.32H544.193V38.68H542.193ZM543.193 57.32H573.993V55.32H543.193V57.32ZM572.993 56.32V79.56H574.993V56.32H572.993ZM573.993 78.56H543.193V80.56H573.993V78.56ZM542.193 79.56V97.76H544.193V79.56H542.193ZM543.193 98.76H575.813V96.76H543.193V98.76ZM574.813 97.76V121H576.813V97.76H574.813ZM575.813 120H515.753V122H575.813V120ZM516.753 121V15.44H514.753V121H516.753ZM515.753 16.44H575.813V14.44H515.753V16.44ZM574.813 15.44V38.68H576.813V15.44H574.813ZM84.46 235.8V236.8H85.8703L85.4037 235.469L84.46 235.8ZM72.14 200.66L73.0837 200.329L72.14 197.638L71.1963 200.329L72.14 200.66ZM59.82 235.8L58.8763 235.469L58.4097 236.8H59.82V235.8ZM91.74 256.66L92.6858 256.335L92.4538 255.66H91.74V256.66ZM52.54 256.66V255.66H51.8262L51.5942 256.335L52.54 256.66ZM46.24 275V276H46.9538L47.1858 275.325L46.24 275ZM16.98 275L16.0454 274.644L15.5294 276H16.98V275ZM57.16 169.44V168.44H56.4706L56.2254 169.084L57.16 169.44ZM87.12 169.44L88.0546 169.084L87.8094 168.44H87.12V169.44ZM127.3 275V276H128.751L128.235 274.644L127.3 275ZM98.04 275L97.0942 275.325L97.3262 276H98.04V275ZM85.4037 235.469L73.0837 200.329L71.1963 200.991L83.5163 236.131L85.4037 235.469ZM71.1963 200.329L58.8763 235.469L60.7637 236.131L73.0837 200.991L71.1963 200.329ZM59.82 236.8H84.46V234.8H59.82V236.8ZM91.74 255.66H52.54V257.66H91.74V255.66ZM51.5942 256.335L45.2942 274.675L47.1858 275.325L53.4858 256.985L51.5942 256.335ZM46.24 274H16.98V276H46.24V274ZM17.9146 275.356L58.0946 169.796L56.2254 169.084L16.0454 274.644L17.9146 275.356ZM57.16 170.44H87.12V168.44H57.16V170.44ZM86.1854 169.796L126.365 275.356L128.235 274.644L88.0546 169.084L86.1854 169.796ZM127.3 274H98.04V276H127.3V274ZM98.9858 274.675L92.6858 256.335L90.7942 256.985L97.0942 275.325L98.9858 274.675ZM214.161 204.72L213.388 205.354L215.161 207.519V204.72H214.161ZM179.161 195.34L178.773 194.418L178.764 194.422L179.161 195.34ZM170.201 201.5L170.908 202.207L170.915 202.201L170.921 202.194L170.201 201.5ZM164.181 210.6L163.26 210.212L163.255 210.222L163.251 210.233L164.181 210.6ZM164.181 233.7L163.251 234.067L163.255 234.078L163.26 234.088L164.181 233.7ZM170.201 242.94L169.481 243.634L169.488 243.641L169.494 243.647L170.201 242.94ZM179.301 249.1L178.904 250.018L179.301 249.1ZM214.161 240.14H215.161V237.611L213.432 239.456L214.161 240.14ZM214.161 272.62L214.492 273.564L215.161 273.329V272.62H214.161ZM211.361 273.6L211.031 272.656L211.026 272.658L211.361 273.6ZM199.601 276.82L199.425 275.836L199.412 275.838L199.4 275.84L199.601 276.82ZM167.821 273.88L167.432 274.801L167.44 274.804L167.448 274.808L167.821 273.88ZM150.181 262.26L149.474 262.967L149.481 262.974L149.487 262.98L150.181 262.26ZM138.001 244.48L137.088 244.887L137.09 244.892L138.001 244.48ZM137.861 199.68L136.95 199.268L136.947 199.274L137.861 199.68ZM150.041 182.18L150.735 182.9L150.735 182.9L150.041 182.18ZM167.821 170.7L168.195 171.628L168.206 171.623L167.821 170.7ZM201.281 167.9L201.055 168.874L201.068 168.877L201.081 168.88L201.281 167.9ZM214.161 171.96H215.161V171.293L214.546 171.037L214.161 171.96ZM214.935 204.086C208.414 196.127 200.298 192.1 190.641 192.1V194.1C199.651 194.1 207.215 197.82 213.388 205.354L214.935 204.086ZM190.641 192.1C186.41 192.1 182.451 192.87 178.773 194.418L179.549 196.262C182.965 194.823 186.659 194.1 190.641 194.1V192.1ZM178.764 194.422C175.194 195.966 172.097 198.094 169.481 200.806L170.921 202.194C173.346 199.679 176.222 197.701 179.558 196.258L178.764 194.422ZM169.494 200.793C166.876 203.411 164.799 206.556 163.26 210.212L165.103 210.988C166.55 207.551 168.487 204.629 170.908 202.207L169.494 200.793ZM163.251 210.233C161.801 213.905 161.081 217.857 161.081 222.08H163.081C163.081 218.089 163.761 214.388 165.111 210.967L163.251 210.233ZM161.081 222.08C161.081 226.393 161.8 230.392 163.251 234.067L165.111 233.333C163.762 229.914 163.081 226.167 163.081 222.08H161.081ZM163.26 234.088C164.798 237.741 166.871 240.927 169.481 243.634L170.921 242.246C168.492 239.726 166.551 236.752 165.103 233.312L163.26 234.088ZM169.494 243.647C172.198 246.351 175.337 248.475 178.904 250.018L179.698 248.182C176.358 246.738 173.431 244.755 170.908 242.233L169.494 243.647ZM178.904 250.018C182.491 251.569 186.361 252.34 190.501 252.34V250.34C186.615 250.34 183.018 249.618 179.698 248.182L178.904 250.018ZM190.501 252.34C199.598 252.34 207.736 248.456 214.891 240.824L213.432 239.456C206.586 246.758 198.952 250.34 190.501 250.34V252.34ZM213.161 240.14V272.62H215.161V240.14H213.161ZM213.831 271.676L211.031 272.656L211.692 274.544L214.492 273.564L213.831 271.676ZM211.026 272.658C206.868 274.136 203.001 275.194 199.425 275.836L199.778 277.804C203.481 277.14 207.455 276.05 211.696 274.542L211.026 272.658ZM199.4 275.84C195.823 276.574 192.297 276.94 188.821 276.94V278.94C192.439 278.94 196.099 278.559 199.802 277.8L199.4 275.84ZM188.821 276.94C181.669 276.94 174.796 275.611 168.195 272.952L167.448 274.808C174.287 277.562 181.414 278.94 188.821 278.94V276.94ZM168.21 272.959C161.696 270.206 155.919 266.401 150.875 261.54L149.487 262.98C154.71 268.013 160.693 271.954 167.432 274.801L168.21 272.959ZM150.888 261.553C145.938 256.602 141.945 250.777 138.912 244.068L137.09 244.892C140.217 251.81 144.345 257.838 149.474 262.967L150.888 261.553ZM138.915 244.073C135.896 237.303 134.381 229.93 134.381 221.94H132.381C132.381 230.19 133.947 237.843 137.088 244.887L138.915 244.073ZM134.381 221.94C134.381 213.945 135.851 206.666 138.775 200.086L136.947 199.274C133.898 206.134 132.381 213.695 132.381 221.94H134.381ZM138.772 200.092C141.804 193.386 145.792 187.66 150.735 182.9L149.348 181.46C144.21 186.407 140.079 192.347 136.95 199.268L138.772 200.092ZM150.735 182.9C155.775 178.044 161.592 174.287 168.195 171.628L167.448 169.772C160.611 172.526 154.575 176.423 149.347 181.46L150.735 182.9ZM168.206 171.623C174.802 168.875 181.718 167.5 188.961 167.5V165.5C181.458 165.5 174.28 166.925 167.437 169.777L168.206 171.623ZM188.961 167.5C193.086 167.5 197.117 167.958 201.055 168.874L201.508 166.926C197.419 165.975 193.236 165.5 188.961 165.5V167.5ZM201.081 168.88C205.115 169.705 209.347 171.037 213.777 172.883L214.546 171.037C210.016 169.149 205.66 167.775 201.482 166.92L201.081 168.88ZM213.161 171.96V204.72H215.161V171.96H213.161ZM310.34 204.72L309.567 205.354L311.34 207.519V204.72H310.34ZM275.34 195.34L274.952 194.418L274.943 194.422L275.34 195.34ZM266.38 201.5L267.087 202.207L267.094 202.201L267.1 202.194L266.38 201.5ZM260.36 210.6L259.439 210.212L259.434 210.222L259.43 210.233L260.36 210.6ZM260.36 233.7L259.43 234.067L259.434 234.078L259.439 234.088L260.36 233.7ZM266.38 242.94L265.66 243.634L265.667 243.641L265.673 243.647L266.38 242.94ZM275.48 249.1L275.083 250.018L275.48 249.1ZM310.34 240.14H311.34V237.611L309.611 239.456L310.34 240.14ZM310.34 272.62L310.671 273.564L311.34 273.329V272.62H310.34ZM307.54 273.6L307.21 272.656L307.205 272.658L307.54 273.6ZM295.78 276.82L295.603 275.836L295.591 275.838L295.579 275.84L295.78 276.82ZM264 273.88L263.611 274.801L263.619 274.804L263.627 274.808L264 273.88ZM246.36 262.26L245.653 262.967L245.66 262.974L245.666 262.98L246.36 262.26ZM234.18 244.48L233.267 244.887L233.269 244.892L234.18 244.48ZM234.04 199.68L233.129 199.268L233.126 199.274L234.04 199.68ZM246.22 182.18L246.914 182.9L246.914 182.9L246.22 182.18ZM264 170.7L264.374 171.628L264.385 171.623L264 170.7ZM297.46 167.9L297.234 168.874L297.247 168.877L297.26 168.88L297.46 167.9ZM310.34 171.96H311.34V171.293L310.725 171.037L310.34 171.96ZM311.114 204.086C304.593 196.127 296.477 192.1 286.82 192.1V194.1C295.83 194.1 303.394 197.82 309.567 205.354L311.114 204.086ZM286.82 192.1C282.589 192.1 278.63 192.87 274.952 194.418L275.728 196.262C279.144 194.823 282.838 194.1 286.82 194.1V192.1ZM274.943 194.422C271.373 195.966 268.275 198.094 265.66 200.806L267.1 202.194C269.525 199.679 272.401 197.701 275.737 196.258L274.943 194.422ZM265.673 200.793C263.055 203.411 260.978 206.556 259.439 210.212L261.282 210.988C262.729 207.551 264.666 204.629 267.087 202.207L265.673 200.793ZM259.43 210.233C257.98 213.905 257.26 217.857 257.26 222.08H259.26C259.26 218.089 259.94 214.388 261.29 210.967L259.43 210.233ZM257.26 222.08C257.26 226.393 257.979 230.392 259.43 234.067L261.29 233.333C259.941 229.914 259.26 226.167 259.26 222.08H257.26ZM259.439 234.088C260.977 237.741 263.05 240.927 265.66 243.634L267.1 242.246C264.671 239.726 262.73 236.752 261.282 233.312L259.439 234.088ZM265.673 243.647C268.377 246.351 271.516 248.475 275.083 250.018L275.877 248.182C272.537 246.738 269.61 244.755 267.087 242.233L265.673 243.647ZM275.083 250.018C278.67 251.569 282.54 252.34 286.68 252.34V250.34C282.794 250.34 279.197 249.618 275.877 248.182L275.083 250.018ZM286.68 252.34C295.776 252.34 303.915 248.456 311.07 240.824L309.611 239.456C302.765 246.758 295.131 250.34 286.68 250.34V252.34ZM309.34 240.14V272.62H311.34V240.14H309.34ZM310.01 271.676L307.21 272.656L307.871 274.544L310.671 273.564L310.01 271.676ZM307.205 272.658C303.047 274.136 299.18 275.194 295.603 275.836L295.957 277.804C299.66 277.14 303.634 276.05 307.875 274.542L307.205 272.658ZM295.579 275.84C292.002 276.574 288.476 276.94 285 276.94V278.94C288.617 278.94 292.278 278.559 295.981 277.8L295.579 275.84ZM285 276.94C277.848 276.94 270.974 275.611 264.374 272.952L263.627 274.808C270.466 277.562 277.593 278.94 285 278.94V276.94ZM264.389 272.959C257.875 270.206 252.098 266.401 247.054 261.54L245.666 262.98C250.889 268.013 256.872 271.954 263.611 274.801L264.389 272.959ZM247.067 261.553C242.117 256.602 238.124 250.777 235.091 244.068L233.269 244.892C236.396 251.81 240.524 257.838 245.653 262.967L247.067 261.553ZM235.093 244.073C232.075 237.303 230.56 229.93 230.56 221.94H228.56C228.56 230.19 230.126 237.843 233.267 244.887L235.093 244.073ZM230.56 221.94C230.56 213.945 232.03 206.666 234.954 200.086L233.126 199.274C230.077 206.134 228.56 213.695 228.56 221.94H230.56ZM234.951 200.092C237.983 193.386 241.971 187.66 246.914 182.9L245.527 181.46C240.389 186.407 236.258 192.347 233.129 199.268L234.951 200.092ZM246.914 182.9C251.953 178.044 257.771 174.287 264.374 171.628L263.627 169.772C256.789 172.526 250.754 176.423 245.526 181.46L246.914 182.9ZM264.385 171.623C270.981 168.875 277.897 167.5 285.14 167.5V165.5C277.637 165.5 270.459 166.925 263.616 169.777L264.385 171.623ZM285.14 167.5C289.265 167.5 293.296 167.958 297.234 168.874L297.687 166.926C293.598 165.975 289.415 165.5 285.14 165.5V167.5ZM297.26 168.88C301.294 169.705 305.526 171.037 309.956 172.883L310.725 171.037C306.194 169.149 301.839 167.775 297.661 166.92L297.26 168.88ZM309.34 171.96V204.72H311.34V171.96H309.34ZM390.559 192.68V193.68H391.559V192.68H390.559ZM357.939 192.68V191.68H356.939V192.68H357.939ZM357.939 210.32H356.939V211.32H357.939V210.32ZM388.739 210.32H389.739V209.32H388.739V210.32ZM388.739 233.56V234.56H389.739V233.56H388.739ZM357.939 233.56V232.56H356.939V233.56H357.939ZM357.939 251.76H356.939V252.76H357.939V251.76ZM390.559 251.76H391.559V250.76H390.559V251.76ZM390.559 275V276H391.559V275H390.559ZM330.499 275H329.499V276H330.499V275ZM330.499 169.44V168.44H329.499V169.44H330.499ZM390.559 169.44H391.559V168.44H390.559V169.44ZM390.559 191.68H357.939V193.68H390.559V191.68ZM356.939 192.68V210.32H358.939V192.68H356.939ZM357.939 211.32H388.739V209.32H357.939V211.32ZM387.739 210.32V233.56H389.739V210.32H387.739ZM388.739 232.56H357.939V234.56H388.739V232.56ZM356.939 233.56V251.76H358.939V233.56H356.939ZM357.939 252.76H390.559V250.76H357.939V252.76ZM389.559 251.76V275H391.559V251.76H389.559ZM390.559 274H330.499V276H390.559V274ZM331.499 275V169.44H329.499V275H331.499ZM330.499 170.44H390.559V168.44H330.499V170.44ZM389.559 169.44V192.68H391.559V169.44H389.559ZM471.103 196.46L470.472 197.236L471.432 198.016L471.994 196.914L471.103 196.46ZM462.143 191.14L461.766 192.066L461.779 192.072L461.792 192.076L462.143 191.14ZM444.783 191.84L444.183 191.04L444.783 191.84ZM443.103 203.04L442.368 203.718L443.103 203.04ZM447.443 206.26L446.977 207.145L447.004 207.159L447.032 207.172L447.443 206.26ZM453.603 208.5L453.323 209.46L453.333 209.463L453.603 208.5ZM460.463 210.6L460.147 211.549L460.463 210.6ZM480.063 222.64L479.288 223.272L479.294 223.28L479.301 223.287L480.063 222.64ZM483.563 256.8L482.643 256.408L482.639 256.417L482.636 256.425L483.563 256.8ZM475.583 268.14L476.248 268.886L476.25 268.885L475.583 268.14ZM462.703 275.28L462.392 274.33L462.381 274.333L462.371 274.337L462.703 275.28ZM408.383 266.04L407.5 265.571L407.084 266.354L407.811 266.861L408.383 266.04ZM420.143 243.92L420.806 243.172L419.856 242.329L419.26 243.451L420.143 243.92ZM432.323 252.04L431.919 252.955L432.323 252.04ZM454.163 251.62L453.487 250.883L453.479 250.89L453.472 250.897L454.163 251.62ZM456.683 240.56L455.775 240.979L455.781 240.993L455.788 241.007L456.683 240.56ZM453.883 237.34L453.265 238.126L453.283 238.14L453.302 238.154L453.883 237.34ZM448.703 234.54L448.324 235.466L448.331 235.468L448.338 235.471L448.703 234.54ZM441.143 231.74L441.468 230.794L441.456 230.79L441.444 230.786L441.143 231.74ZM430.643 228.1L430.258 229.023L430.273 229.029L430.289 229.035L430.643 228.1ZM421.543 222.64L420.892 223.399L420.899 223.405L420.905 223.41L421.543 222.64ZM415.103 214.24L414.194 214.658L414.201 214.672L414.208 214.687L415.103 214.24ZM415.243 187.08L414.319 186.698L414.314 186.709L415.243 187.08ZM422.523 176.16L423.219 176.878L423.219 176.878L422.523 176.16ZM434.003 169.02L433.658 168.081L433.652 168.084L434.003 169.02ZM465.643 168.74L465.389 169.707L465.397 169.709L465.404 169.711L465.643 168.74ZM482.023 175.04L482.914 175.494L483.359 174.621L482.495 174.159L482.023 175.04ZM471.733 195.684C468.68 193.203 465.6 191.369 462.494 190.204L461.792 192.076C464.659 193.151 467.553 194.864 470.472 197.236L471.733 195.684ZM462.519 190.214C459.431 188.959 456.41 188.32 453.463 188.32V190.32C456.116 190.32 458.881 190.894 461.766 192.066L462.519 190.214ZM453.463 188.32C449.758 188.32 446.637 189.199 444.183 191.04L445.383 192.64C447.408 191.121 450.074 190.32 453.463 190.32V188.32ZM444.183 191.04C441.701 192.901 440.423 195.386 440.423 198.42H442.423C442.423 196.041 443.384 194.139 445.383 192.64L444.183 191.04ZM440.423 198.42C440.423 200.503 441.055 202.296 442.368 203.718L443.838 202.362C442.911 201.358 442.423 200.071 442.423 198.42H440.423ZM442.368 203.718C443.58 205.031 445.124 206.169 446.977 207.145L447.909 205.375C446.215 204.484 444.866 203.476 443.838 202.362L442.368 203.718ZM447.032 207.172C448.947 208.033 451.044 208.795 453.323 209.46L453.883 207.54C451.681 206.898 449.672 206.167 447.853 205.348L447.032 207.172ZM453.333 209.463C455.651 210.112 457.922 210.807 460.147 211.549L460.779 209.651C458.523 208.899 456.221 208.195 453.872 207.537L453.333 209.463ZM460.147 211.549C469.004 214.501 475.343 218.431 479.288 223.272L480.838 222.008C476.569 216.769 469.842 212.672 460.779 209.651L460.147 211.549ZM479.301 223.287C483.313 228.013 485.363 234.252 485.363 242.1H487.363C487.363 233.894 485.212 227.16 480.825 221.993L479.301 223.287ZM485.363 242.1C485.363 247.397 484.45 252.161 482.643 256.408L484.483 257.192C486.409 252.665 487.363 247.63 487.363 242.1H485.363ZM482.636 256.425C480.92 260.669 478.349 264.323 474.916 267.395L476.25 268.885C479.91 265.611 482.659 261.704 484.49 257.175L482.636 256.425ZM474.917 267.394C471.583 270.368 467.416 272.685 462.392 274.33L463.014 276.23C468.257 274.515 472.676 272.072 476.248 268.886L474.917 267.394ZM462.371 274.337C457.457 276.066 451.832 276.94 445.483 276.94V278.94C452.013 278.94 457.869 278.041 463.035 276.223L462.371 274.337ZM445.483 276.94C432.349 276.94 420.181 273.041 408.954 265.22L407.811 266.861C419.358 274.906 431.923 278.94 445.483 278.94V276.94ZM409.266 266.509L421.026 244.389L419.26 243.451L407.5 265.571L409.266 266.509ZM419.48 244.668C423.645 248.36 427.791 251.131 431.919 252.955L432.727 251.125C428.828 249.403 424.854 246.76 420.806 243.172L419.48 244.668ZM431.919 252.955C436.044 254.778 440.148 255.7 444.223 255.7V253.7C440.458 253.7 436.628 252.849 432.727 251.125L431.919 252.955ZM444.223 255.7C448.832 255.7 452.446 254.646 454.854 252.343L453.472 250.897C451.587 252.7 448.573 253.7 444.223 253.7V255.7ZM454.839 252.357C457.248 250.148 458.523 247.56 458.523 244.62H456.523C456.523 246.907 455.557 248.985 453.487 250.883L454.839 252.357ZM458.523 244.62C458.523 242.918 458.223 241.404 457.577 240.113L455.788 241.007C456.263 241.956 456.523 243.148 456.523 244.62H458.523ZM457.591 240.141C456.945 238.741 455.884 237.54 454.464 236.526L453.302 238.154C454.495 239.006 455.301 239.952 455.775 240.979L457.591 240.141ZM454.501 236.554C453.094 235.448 451.273 234.472 449.067 233.609L448.338 235.471C450.426 236.288 452.059 237.178 453.265 238.126L454.501 236.554ZM449.081 233.614C447.005 232.765 444.466 231.825 441.468 230.794L440.818 232.686C443.793 233.709 446.294 234.635 448.324 235.466L449.081 233.614ZM441.444 230.786C437.915 229.672 434.433 228.465 430.997 227.165L430.289 229.035C433.76 230.349 437.277 231.568 440.842 232.694L441.444 230.786ZM431.027 227.177C427.756 225.814 424.808 224.044 422.18 221.87L420.905 223.41C423.691 225.716 426.81 227.586 430.258 229.023L431.027 227.177ZM422.194 221.881C419.69 219.735 417.623 217.045 415.997 213.793L414.208 214.687C415.943 218.155 418.169 221.065 420.892 223.399L422.194 221.881ZM416.012 213.822C414.503 210.54 413.723 206.353 413.723 201.22H411.723C411.723 206.54 412.529 211.034 414.194 214.658L416.012 213.822ZM413.723 201.22C413.723 196.101 414.545 191.516 416.171 187.451L414.314 186.709C412.58 191.044 411.723 195.886 411.723 201.22H413.723ZM416.167 187.462C417.893 183.284 420.245 179.762 423.219 176.878L421.827 175.442C418.641 178.532 416.14 182.289 414.319 186.698L416.167 187.462ZM423.219 176.878C426.286 173.901 429.992 171.592 434.354 169.956L433.652 168.084C429.053 169.808 425.106 172.259 421.826 175.442L423.219 176.878ZM434.348 169.959C438.795 168.325 443.763 167.5 449.263 167.5V165.5C443.562 165.5 438.357 166.355 433.658 168.081L434.348 169.959ZM449.263 167.5C454.394 167.5 459.768 168.233 465.389 169.707L465.897 167.773C460.131 166.26 454.585 165.5 449.263 165.5V167.5ZM465.404 169.711C471.015 171.091 476.397 173.161 481.551 175.921L482.495 174.159C477.195 171.319 471.657 169.189 465.882 167.769L465.404 169.711ZM481.132 174.586L470.212 196.006L471.994 196.914L482.914 175.494L481.132 174.586ZM564.411 196.46L563.78 197.236L564.74 198.016L565.302 196.914L564.411 196.46ZM555.451 191.14L555.074 192.066L555.087 192.072L555.099 192.076L555.451 191.14ZM538.091 191.84L537.491 191.04L538.091 191.84ZM536.411 203.04L535.676 203.718L536.411 203.04ZM540.751 206.26L540.285 207.145L540.312 207.159L540.34 207.172L540.751 206.26ZM546.911 208.5L546.631 209.46L546.641 209.463L546.911 208.5ZM553.771 210.6L553.454 211.549L553.771 210.6ZM573.371 222.64L572.595 223.272L572.602 223.28L572.608 223.287L573.371 222.64ZM576.871 256.8L575.951 256.408L575.947 256.417L575.944 256.425L576.871 256.8ZM568.891 268.14L569.556 268.886L569.557 268.885L568.891 268.14ZM556.011 275.28L555.7 274.33L555.689 274.333L555.679 274.337L556.011 275.28ZM501.691 266.04L500.808 265.571L500.391 266.354L501.119 266.861L501.691 266.04ZM513.451 243.92L514.114 243.172L513.164 242.329L512.568 243.451L513.451 243.92ZM525.631 252.04L525.226 252.955L525.631 252.04ZM547.471 251.62L546.795 250.883L546.787 250.89L546.779 250.897L547.471 251.62ZM549.991 240.56L549.083 240.979L549.089 240.993L549.096 241.007L549.991 240.56ZM547.191 237.34L546.573 238.126L546.591 238.14L546.609 238.154L547.191 237.34ZM542.011 234.54L541.632 235.466L541.639 235.468L541.646 235.471L542.011 234.54ZM534.451 231.74L534.776 230.794L534.764 230.79L534.752 230.786L534.451 231.74ZM523.951 228.1L523.566 229.023L523.581 229.029L523.597 229.035L523.951 228.1ZM514.851 222.64L514.2 223.399L514.206 223.405L514.213 223.41L514.851 222.64ZM508.411 214.24L507.502 214.658L507.509 214.672L507.516 214.687L508.411 214.24ZM508.551 187.08L507.626 186.698L507.622 186.709L508.551 187.08ZM515.831 176.16L516.527 176.878L516.527 176.878L515.831 176.16ZM527.311 169.02L526.966 168.081L526.96 168.084L527.311 169.02ZM558.951 168.74L558.697 169.707L558.704 169.709L558.712 169.711L558.951 168.74ZM575.331 175.04L576.222 175.494L576.667 174.621L575.803 174.159L575.331 175.04ZM565.041 195.684C561.987 193.203 558.908 191.369 555.802 190.204L555.099 192.076C557.967 193.151 560.86 194.864 563.78 197.236L565.041 195.684ZM555.827 190.214C552.739 188.959 549.718 188.32 546.771 188.32V190.32C549.424 190.32 552.189 190.894 555.074 192.066L555.827 190.214ZM546.771 188.32C543.066 188.32 539.945 189.199 537.491 191.04L538.691 192.64C540.716 191.121 543.382 190.32 546.771 190.32V188.32ZM537.491 191.04C535.009 192.901 533.731 195.386 533.731 198.42H535.731C535.731 196.041 536.692 194.139 538.691 192.64L537.491 191.04ZM533.731 198.42C533.731 200.503 534.363 202.296 535.676 203.718L537.145 202.362C536.219 201.358 535.731 200.071 535.731 198.42H533.731ZM535.676 203.718C536.888 205.031 538.432 206.169 540.285 207.145L541.216 205.375C539.523 204.484 538.174 203.476 537.145 202.362L535.676 203.718ZM540.34 207.172C542.255 208.033 544.352 208.795 546.631 209.46L547.191 207.54C544.989 206.898 542.98 206.167 541.161 205.348L540.34 207.172ZM546.641 209.463C548.959 210.112 551.23 210.807 553.454 211.549L554.087 209.651C551.831 208.899 549.529 208.195 547.18 207.537L546.641 209.463ZM553.454 211.549C562.311 214.501 568.651 218.431 572.595 223.272L574.146 222.008C569.877 216.769 563.15 212.672 554.087 209.651L553.454 211.549ZM572.608 223.287C576.621 228.013 578.671 234.252 578.671 242.1H580.671C580.671 233.894 578.52 227.16 574.133 221.993L572.608 223.287ZM578.671 242.1C578.671 247.397 577.758 252.161 575.951 256.408L577.791 257.192C579.717 252.665 580.671 247.63 580.671 242.1H578.671ZM575.944 256.425C574.228 260.669 571.657 264.323 568.224 267.395L569.557 268.885C573.217 265.611 575.967 261.704 577.798 257.175L575.944 256.425ZM568.225 267.394C564.89 270.368 560.724 272.685 555.7 274.33L556.322 276.23C561.564 274.515 565.984 272.072 569.556 268.886L568.225 267.394ZM555.679 274.337C550.765 276.066 545.14 276.94 538.791 276.94V278.94C545.321 278.94 551.177 278.041 556.343 276.223L555.679 274.337ZM538.791 276.94C525.657 276.94 513.488 273.041 502.262 265.22L501.119 266.861C512.666 274.906 525.231 278.94 538.791 278.94V276.94ZM502.574 266.509L514.334 244.389L512.568 243.451L500.808 265.571L502.574 266.509ZM512.787 244.668C516.953 248.36 521.098 251.131 525.226 252.955L526.035 251.125C522.136 249.403 518.162 246.76 514.114 243.172L512.787 244.668ZM525.226 252.955C529.352 254.778 533.456 255.7 537.531 255.7V253.7C533.766 253.7 529.936 252.849 526.035 251.125L525.226 252.955ZM537.531 255.7C542.14 255.7 545.753 254.646 548.162 252.343L546.779 250.897C544.894 252.7 541.881 253.7 537.531 253.7V255.7ZM548.146 252.357C550.556 250.148 551.831 247.56 551.831 244.62H549.831C549.831 246.907 548.865 248.985 546.795 250.883L548.146 252.357ZM551.831 244.62C551.831 242.918 551.531 241.404 550.885 240.113L549.096 241.007C549.571 241.956 549.831 243.148 549.831 244.62H551.831ZM550.899 240.141C550.252 238.741 549.191 237.54 547.772 236.526L546.609 238.154C547.803 239.006 548.609 239.952 549.083 240.979L550.899 240.141ZM547.808 236.554C546.402 235.448 544.58 234.472 542.375 233.609L541.646 235.471C543.734 236.288 545.366 237.178 546.573 238.126L547.808 236.554ZM542.389 233.614C540.313 232.765 537.774 231.825 534.776 230.794L534.126 232.686C537.101 233.709 539.602 234.635 541.632 235.466L542.389 233.614ZM534.752 230.786C531.223 229.672 527.74 228.465 524.305 227.165L523.597 229.035C527.068 230.349 530.585 231.568 534.149 232.694L534.752 230.786ZM524.335 227.177C521.063 225.814 518.116 224.044 515.488 221.87L514.213 223.41C516.999 225.716 520.118 227.586 523.566 229.023L524.335 227.177ZM515.501 221.881C512.998 219.735 510.931 217.045 509.305 213.793L507.516 214.687C509.25 218.155 511.476 221.065 514.2 223.399L515.501 221.881ZM509.319 213.822C507.811 210.54 507.031 206.353 507.031 201.22H505.031C505.031 206.54 505.837 211.034 507.502 214.658L509.319 213.822ZM507.031 201.22C507.031 196.101 507.853 191.516 509.479 187.451L507.622 186.709C505.888 191.044 505.031 195.886 505.031 201.22H507.031ZM509.475 187.462C511.2 183.284 513.553 179.762 516.527 176.878L515.134 175.442C511.948 178.532 509.448 182.289 507.626 186.698L509.475 187.462ZM516.527 176.878C519.594 173.901 523.3 171.592 527.662 169.956L526.96 168.084C522.361 169.808 518.414 172.259 515.134 175.442L516.527 176.878ZM527.655 169.959C532.103 168.325 537.071 167.5 542.571 167.5V165.5C536.87 165.5 531.665 166.355 526.966 168.081L527.655 169.959ZM542.571 167.5C547.702 167.5 553.076 168.233 558.697 169.707L559.204 167.773C553.438 166.26 547.893 165.5 542.571 165.5V167.5ZM558.712 169.711C564.323 171.091 569.705 173.161 574.858 175.921L575.803 174.159C570.503 171.319 564.965 169.189 559.189 167.769L558.712 169.711ZM574.44 174.586L563.52 196.006L565.302 196.914L576.222 175.494L574.44 174.586ZM54.5 323.44H55.5V322.44H54.5V323.44ZM54.78 390.36L53.7816 390.417L53.7825 390.432L53.7839 390.448L54.78 390.36ZM56.88 399.04L55.9609 399.434L55.9667 399.448L55.973 399.461L56.88 399.04ZM62.48 405.48L61.9253 406.312L61.9362 406.319L61.9472 406.326L62.48 405.48ZM83.62 405.48L84.1673 406.317L84.1747 406.312L83.62 405.48ZM89.22 399.04L88.313 398.619L89.22 399.04ZM91.32 390.36L90.3237 390.275L90.3225 390.288L90.3217 390.301L91.32 390.36ZM91.74 323.44V322.44H90.74V323.44H91.74ZM119.04 323.44H120.04V322.44H119.04V323.44ZM107.7 420.6L106.993 419.893L106.989 419.897L107.7 420.6ZM38.4 420.6L39.1071 419.893L38.4 420.6ZM27.06 323.44V322.44H26.06V323.44H27.06ZM53.5 323.44V380.84H55.5V323.44H53.5ZM53.5 380.84C53.5 383.94 53.5939 387.133 53.7816 390.417L55.7784 390.303C55.5927 387.054 55.5 383.9 55.5 380.84H53.5ZM53.7839 390.448C54.0721 393.714 54.7945 396.712 55.9609 399.434L57.7991 398.646C56.7255 396.141 56.0479 393.353 55.7761 390.272L53.7839 390.448ZM55.973 399.461C57.2678 402.25 59.2605 404.536 61.9253 406.312L63.0347 404.648C60.6595 403.064 58.9189 401.057 57.787 398.619L55.973 399.461ZM61.9472 406.326C64.6907 408.054 68.4515 408.86 73.12 408.86V406.86C68.6418 406.86 65.3093 406.08 63.0128 404.634L61.9472 406.326ZM73.12 408.86C77.7847 408.86 81.509 408.055 84.1673 406.317L83.0728 404.643C80.8776 406.078 77.602 406.86 73.12 406.86V408.86ZM84.1747 406.312C86.8395 404.536 88.8322 402.25 90.127 399.461L88.313 398.619C87.1811 401.057 85.4405 403.064 83.0653 404.648L84.1747 406.312ZM90.127 399.461C91.3985 396.723 92.125 393.705 92.3183 390.419L90.3217 390.301C90.1417 393.362 89.4682 396.131 88.313 398.619L90.127 399.461ZM92.3164 390.445C92.5986 387.152 92.74 383.95 92.74 380.84H90.74C90.74 383.89 90.6014 387.035 90.3237 390.275L92.3164 390.445ZM92.74 380.84V323.44H90.74V380.84H92.74ZM91.74 324.44H119.04V322.44H91.74V324.44ZM118.04 323.44V384.62H120.04V323.44H118.04ZM118.04 384.62C118.04 400.921 114.286 412.6 106.993 419.893L108.407 421.307C116.234 413.48 120.04 401.173 120.04 384.62H118.04ZM106.989 419.897C99.7822 427.194 88.564 430.94 73.12 430.94V432.94C88.8493 432.94 100.684 429.126 108.411 421.303L106.989 419.897ZM73.12 430.94C57.6772 430.94 46.4084 427.194 39.1071 419.893L37.6929 421.307C45.5116 429.126 57.3895 432.94 73.12 432.94V430.94ZM39.1071 419.893C31.8143 412.6 28.06 400.921 28.06 384.62H26.06C26.06 401.173 29.8657 413.48 37.6929 421.307L39.1071 419.893ZM28.06 384.62V323.44H26.06V384.62H28.06ZM27.06 324.44H54.5V322.44H27.06V324.44ZM137.02 429H136.02V430H137.02V429ZM137.02 323.44V322.44H136.02V323.44H137.02ZM164.46 323.44L165.247 322.822L164.946 322.44H164.46V323.44ZM215.14 387.98L214.354 388.598L216.14 390.873V387.98H215.14ZM215.14 323.44V322.44H214.14V323.44H215.14ZM242.44 323.44H243.44V322.44H242.44V323.44ZM242.44 429V430H243.44V429H242.44ZM215.14 429L214.354 429.618L214.654 430H215.14V429ZM164.46 364.46L165.247 363.842L163.46 361.567V364.46H164.46ZM164.46 429V430H165.46V429H164.46ZM138.02 429V323.44H136.02V429H138.02ZM137.02 324.44H164.46V322.44H137.02V324.44ZM163.674 324.058L214.354 388.598L215.927 387.362L165.247 322.822L163.674 324.058ZM216.14 387.98V323.44H214.14V387.98H216.14ZM215.14 324.44H242.44V322.44H215.14V324.44ZM241.44 323.44V429H243.44V323.44H241.44ZM242.44 428H215.14V430H242.44V428ZM215.927 428.382L165.247 363.842L163.674 365.078L214.354 429.618L215.927 428.382ZM163.46 364.46V429H165.46V364.46H163.46ZM164.46 428H137.02V430H164.46V428ZM320.859 346.68V347.68H321.859V346.68H320.859ZM287.819 346.68V345.68H286.819V346.68H287.819ZM287.819 364.32H286.819V365.32H287.819V364.32ZM317.919 364.32H318.919V363.32H317.919V364.32ZM317.919 387.56V388.56H318.919V387.56H317.919ZM287.819 387.56V386.56H286.819V387.56H287.819ZM287.819 429V430H288.819V429H287.819ZM260.379 429H259.379V430H260.379V429ZM260.379 323.44V322.44H259.379V323.44H260.379ZM320.859 323.44H321.859V322.44H320.859V323.44ZM320.859 345.68H287.819V347.68H320.859V345.68ZM286.819 346.68V364.32H288.819V346.68H286.819ZM287.819 365.32H317.919V363.32H287.819V365.32ZM316.919 364.32V387.56H318.919V364.32H316.919ZM317.919 386.56H287.819V388.56H317.919V386.56ZM286.819 387.56V429H288.819V387.56H286.819ZM287.819 428H260.379V430H287.819V428ZM261.379 429V323.44H259.379V429H261.379ZM260.379 324.44H320.859V322.44H260.379V324.44ZM319.859 323.44V346.68H321.859V323.44H319.859ZM360.455 323.44H361.455V322.44H360.455V323.44ZM360.455 429V430H361.455V429H360.455ZM333.015 429H332.015V430H333.015V429ZM333.015 323.44V322.44H332.015V323.44H333.015ZM359.455 323.44V429H361.455V323.44H359.455ZM360.455 428H333.015V430H360.455V428ZM334.015 429V323.44H332.015V429H334.015ZM333.015 324.44H360.455V322.44H333.015V324.44ZM405.747 323.44H406.747V322.44H405.747V323.44ZM405.747 405.76H404.747V406.76H405.747V405.76ZM438.647 405.76H439.647V404.76H438.647V405.76ZM438.647 429V430H439.647V429H438.647ZM378.307 429H377.307V430H378.307V429ZM378.307 323.44V322.44H377.307V323.44H378.307ZM404.747 323.44V405.76H406.747V323.44H404.747ZM405.747 406.76H438.647V404.76H405.747V406.76ZM437.647 405.76V429H439.647V405.76H437.647ZM438.647 428H378.307V430H438.647V428ZM379.307 429V323.44H377.307V429H379.307ZM378.307 324.44H405.747V322.44H378.307V324.44ZM483.053 346.68V345.68H482.053V346.68H483.053ZM483.053 429V430H484.053V429H483.053ZM455.613 429H454.613V430H455.613V429ZM455.613 346.68H456.613V345.68H455.613V346.68ZM433.073 346.68H432.073V347.68H433.073V346.68ZM433.073 323.44V322.44H432.073V323.44H433.073ZM505.593 323.44H506.593V322.44H505.593V323.44ZM505.593 346.68V347.68H506.593V346.68H505.593ZM482.053 346.68V429H484.053V346.68H482.053ZM483.053 428H455.613V430H483.053V428ZM456.613 429V346.68H454.613V429H456.613ZM455.613 345.68H433.073V347.68H455.613V345.68ZM434.073 346.68V323.44H432.073V346.68H434.073ZM433.073 324.44H505.593V322.44H433.073V324.44ZM504.593 323.44V346.68H506.593V323.44H504.593ZM505.593 345.68H483.053V347.68H505.593V345.68ZM573.658 346.68V347.68H574.658V346.68H573.658ZM541.038 346.68V345.68H540.038V346.68H541.038ZM541.038 364.32H540.038V365.32H541.038V364.32ZM571.838 364.32H572.838V363.32H571.838V364.32ZM571.838 387.56V388.56H572.838V387.56H571.838ZM541.038 387.56V386.56H540.038V387.56H541.038ZM541.038 405.76H540.038V406.76H541.038V405.76ZM573.658 405.76H574.658V404.76H573.658V405.76ZM573.658 429V430H574.658V429H573.658ZM513.598 429H512.598V430H513.598V429ZM513.598 323.44V322.44H512.598V323.44H513.598ZM573.658 323.44H574.658V322.44H573.658V323.44ZM573.658 345.68H541.038V347.68H573.658V345.68ZM540.038 346.68V364.32H542.038V346.68H540.038ZM541.038 365.32H571.838V363.32H541.038V365.32ZM570.838 364.32V387.56H572.838V364.32H570.838ZM571.838 386.56H541.038V388.56H571.838V386.56ZM540.038 387.56V405.76H542.038V387.56H540.038ZM541.038 406.76H573.658V404.76H541.038V406.76ZM572.658 405.76V429H574.658V405.76H572.658ZM573.658 428H513.598V430H573.658V428ZM514.598 429V323.44H512.598V429H514.598ZM513.598 324.44H573.658V322.44H513.598V324.44ZM572.658 323.44V346.68H574.658V323.44H572.658ZM54.5 524.62H53.5V525.62H54.5V524.62ZM72.14 521.26L72.7522 522.051H72.7522L72.14 521.26ZM72.14 501.94L72.7522 501.149H72.7522L72.14 501.94ZM54.5 498.58V497.58H53.5V498.58H54.5ZM114.84 583V584H116.867L115.633 582.391L114.84 583ZM80.68 583L79.8396 583.542L80.135 584H80.68V583ZM54.5 542.4L55.3404 541.858L53.5 539.004V542.4H54.5ZM54.5 583V584H55.5V583H54.5ZM27.06 583H26.06V584H27.06V583ZM27.06 477.44V476.44H26.06V477.44H27.06ZM85.16 480.1L84.7852 481.027L84.7938 481.031L84.8024 481.034L85.16 480.1ZM95.94 487.1L95.2105 487.784L95.2161 487.79L95.2218 487.796L95.94 487.1ZM102.38 497.46L101.438 497.796L101.442 497.806L101.446 497.816L102.38 497.46ZM98.74 529.66L97.9506 529.046L97.949 529.048L98.74 529.66ZM81.66 539.74L81.4316 538.766L79.9242 539.12L80.8665 540.349L81.66 539.74ZM54.5 525.62H59.68V523.62H54.5V525.62ZM59.68 525.62C65.213 525.62 69.6172 524.478 72.7522 522.051L71.5278 520.469C68.8761 522.522 64.9736 523.62 59.68 523.62V525.62ZM72.7522 522.051C75.9284 519.592 77.48 516.058 77.48 511.6H75.48C75.48 515.542 74.1383 518.448 71.5278 520.469L72.7522 522.051ZM77.48 511.6C77.48 507.142 75.9284 503.608 72.7522 501.149L71.5278 502.731C74.1383 504.752 75.48 507.658 75.48 511.6H77.48ZM72.7522 501.149C69.6172 498.722 65.213 497.58 59.68 497.58V499.58C64.9736 499.58 68.8761 500.678 71.5278 502.731L72.7522 501.149ZM59.68 497.58H54.5V499.58H59.68V497.58ZM53.5 498.58V524.62H55.5V498.58H53.5ZM114.84 582H80.68V584H114.84V582ZM81.5204 582.458L55.3404 541.858L53.6596 542.942L79.8396 583.542L81.5204 582.458ZM53.5 542.4V583H55.5V542.4H53.5ZM54.5 582H27.06V584H54.5V582ZM28.06 583V477.44H26.06V583H28.06ZM27.06 478.44H69.76V476.44H27.06V478.44ZM69.76 478.44C75.5417 478.44 80.5427 479.312 84.7852 481.027L85.5348 479.173C81.004 477.341 75.7383 476.44 69.76 476.44V478.44ZM84.8024 481.034C89.0686 482.668 92.5282 484.923 95.2105 487.784L96.6695 486.416C93.7518 483.304 90.0247 480.892 85.5176 479.166L84.8024 481.034ZM95.2218 487.796C98.0157 490.68 100.086 494.011 101.438 497.796L103.322 497.124C101.874 493.069 99.651 489.493 96.6582 486.404L95.2218 487.796ZM101.446 497.816C102.893 501.615 103.62 505.693 103.62 510.06H105.62C105.62 505.467 104.854 501.145 103.314 497.104L101.446 497.816ZM103.62 510.06C103.62 517.922 101.702 524.223 97.9507 529.046L99.5294 530.274C103.618 525.017 105.62 518.251 105.62 510.06H103.62ZM97.949 529.048C94.2941 533.773 88.8236 537.032 81.4316 538.766L81.8884 540.714C89.6164 538.901 95.5325 535.441 99.531 530.272L97.949 529.048ZM80.8665 540.349L114.047 583.609L115.633 582.391L82.4535 539.131L80.8665 540.349ZM186.378 500.68V501.68H187.378V500.68H186.378ZM153.758 500.68V499.68H152.758V500.68H153.758ZM153.758 518.32H152.758V519.32H153.758V518.32ZM184.558 518.32H185.558V517.32H184.558V518.32ZM184.558 541.56V542.56H185.558V541.56H184.558ZM153.758 541.56V540.56H152.758V541.56H153.758ZM153.758 559.76H152.758V560.76H153.758V559.76ZM186.378 559.76H187.378V558.76H186.378V559.76ZM186.378 583V584H187.378V583H186.378ZM126.318 583H125.318V584H126.318V583ZM126.318 477.44V476.44H125.318V477.44H126.318ZM186.378 477.44H187.378V476.44H186.378V477.44ZM186.378 499.68H153.758V501.68H186.378V499.68ZM152.758 500.68V518.32H154.758V500.68H152.758ZM153.758 519.32H184.558V517.32H153.758V519.32ZM183.558 518.32V541.56H185.558V518.32H183.558ZM184.558 540.56H153.758V542.56H184.558V540.56ZM152.758 541.56V559.76H154.758V541.56H152.758ZM153.758 560.76H186.378V558.76H153.758V560.76ZM185.378 559.76V583H187.378V559.76H185.378ZM186.378 582H126.318V584H186.378V582ZM127.318 583V477.44H125.318V583H127.318ZM126.318 478.44H186.378V476.44H126.318V478.44ZM185.378 477.44V500.68H187.378V477.44H185.378ZM233.602 559.76H232.602V560.76H233.602V559.76ZM252.642 557.52L252.27 556.591L252.642 557.52ZM262.022 551.36L261.314 550.653L261.308 550.659L261.302 550.666L262.022 551.36ZM267.902 542.12L266.968 541.761L266.966 541.768L266.963 541.774L267.902 542.12ZM267.902 518.46L268.835 518.101L267.902 518.46ZM261.882 509.08L261.162 509.774L261.168 509.781L261.174 509.787L261.882 509.08ZM252.502 502.92L252.873 501.992L252.502 502.92ZM233.602 500.68V499.68H232.602V500.68H233.602ZM206.162 477.44V476.44H205.162V477.44H206.162ZM266.922 481.78L266.502 482.688L266.507 482.69L266.922 481.78ZM283.442 493.4L282.721 494.093L282.728 494.1L282.734 494.107L283.442 493.4ZM294.642 510.2L293.72 510.587L293.722 510.592L294.642 510.2ZM294.642 550.24L293.72 549.853L293.717 549.859L294.642 550.24ZM283.582 567.04L282.868 566.34L282.861 566.347L283.582 567.04ZM267.062 578.66L266.647 577.75L266.642 577.752L267.062 578.66ZM206.162 583H205.162V584H206.162V583ZM233.602 560.76H239.902V558.76H233.602V560.76ZM239.902 560.76C244.766 560.76 249.142 559.997 253.013 558.448L252.27 556.591C248.675 558.03 244.557 558.76 239.902 558.76V560.76ZM253.013 558.448C256.863 556.908 260.113 554.78 262.741 552.054L261.302 550.666C258.89 553.167 255.886 555.145 252.27 556.591L253.013 558.448ZM262.729 552.067C265.447 549.349 267.484 546.145 268.84 542.466L266.963 541.774C265.705 545.188 263.823 548.144 261.314 550.653L262.729 552.067ZM268.835 542.479C270.283 538.713 271.002 534.624 271.002 530.22H269.002C269.002 534.403 268.32 538.247 266.968 541.761L268.835 542.479ZM271.002 530.22C271.002 525.907 270.282 521.864 268.835 518.101L266.968 518.819C268.321 522.336 269.002 526.133 269.002 530.22H271.002ZM268.835 518.101C267.388 514.338 265.306 511.091 262.589 508.373L261.174 509.787C263.683 512.296 265.616 515.302 266.968 518.819L268.835 518.101ZM262.601 508.386C259.973 505.66 256.723 503.532 252.873 501.992L252.13 503.848C255.746 505.295 258.75 507.273 261.162 509.774L262.601 508.386ZM252.873 501.992C249.004 500.444 244.675 499.68 239.902 499.68V501.68C244.461 501.68 248.532 502.409 252.13 503.848L252.873 501.992ZM239.902 499.68H233.602V501.68H239.902V499.68ZM232.602 500.68V559.76H234.602V500.68H232.602ZM206.162 478.44H246.762V476.44H206.162V478.44ZM246.762 478.44C253.81 478.44 260.386 479.858 266.502 482.688L267.341 480.872C260.951 477.916 254.087 476.44 246.762 476.44V478.44ZM266.507 482.69C272.743 485.533 278.145 489.334 282.721 494.093L284.162 492.707C279.405 487.759 273.794 483.814 267.336 480.87L266.507 482.69ZM282.734 494.107C287.399 498.772 291.061 504.262 293.72 510.587L295.563 509.813C292.809 503.258 289.004 497.548 284.149 492.693L282.734 494.107ZM293.722 510.592C296.375 516.813 297.702 523.353 297.702 530.22H299.702C299.702 523.087 298.322 516.28 295.561 509.808L293.722 510.592ZM297.702 530.22C297.702 536.992 296.375 543.534 293.72 549.853L295.563 550.627C298.321 544.066 299.702 537.261 299.702 530.22H297.702ZM293.717 549.859C291.152 556.088 287.537 561.579 282.868 566.34L284.296 567.74C289.147 562.794 292.904 557.085 295.566 550.621L293.717 549.859ZM282.861 566.347C278.285 571.106 272.883 574.907 266.647 577.75L267.476 579.57C273.934 576.626 279.545 572.681 284.302 567.733L282.861 566.347ZM266.642 577.752C260.527 580.581 253.905 582 246.762 582V584C254.178 584 261.089 582.525 267.481 579.568L266.642 577.752ZM246.762 582H206.162V584H246.762V582ZM207.162 583V477.44H205.162V583H207.162Z" fill="#38363D"/>
<rect x="323" y="477" width="277" height="106" fill="#7A223B"/>
<rect y="15" width="147" height="106" fill="#F7B42F"/>
</g>
<defs>
<clipPath id="clip0">
<rect width="600" height="600" fill="white"/>
</clipPath>
</defs>
</svg>
